<svg id="Capa_1" data-name="Capa 1" xmlns="http://www.w3.org/2000/svg" viewBox="0 0 496 239"><defs><style>.cls-1{fill:#fff;}</style></defs><title>titulo 2 RLS</title><path d="M19,167v-8c2.18-12.65,7.44-23.68,17.16-32.32l3.71-3.29c-2.79-3.86-6.07-7-7.64-10.8C26,97.29,25.38,74.35,44.51,61c7.09-5,10.87-11.46,13.26-19.7,7.93-27.36,34.16-27.37,51.08-17.72,3.78,2.15,6,2.25,9.57.13,11-6.43,22.64-9.35,34.6-2.85,3.51,1.92,5.68,1.71,8.85-.31,8.11-5.17,17.11-7,26.73-6.37,7.42.5,12.89,3.84,16.07,10.67,8.63-7.61,13.1-10.08,20.37-11.46,14.43-2.74,24,4.51,24.72,19.12.61,11.52-1.28,22.58-7.23,32.7-1.23,2.08-2.37,4.22-3.32,5.91l18.06,4.75c.23-1.82.5-3.95.78-6.07,1.37-10.29,3.67-20.22,9-29.36,9.35-16,35.75-22.53,47.46-10,10.32-11.3,27.62-13.31,37.54-5,1.28-.9,2.57-1.92,4-2.78,15.2-9.49,31.26-12.23,48-5,4.51,1.95,8.17,2.47,12.77.79,9.53-3.48,19.26-3.69,28.76.38,10.29,4.43,14.65,13.23,11.68,24-1,3.62-2.83,7-4.38,10.78,6.74,3.85,10.12,9.8,9.25,18-.83,7.92-5.55,13.12-12.18,17.1,7,8.25,7.47,17.16,4.21,26.48,20.9,9.07,24.92,21.29,11.75,35.91,6.52,7.36,8.45,16.22,8.06,25.87-1.13,27.86-27.34,44.3-53,33.34-1.87-.8-4.84-.38-6.78.55-8.05,3.87-15,3.23-21.75-2.62-1.85-1.61-3.59-3.33-5.44-5.06a10.21,10.21,0,0,0-1.08.91c-11.12,12-18.39,12.6-31.07,2.15-2.54-2.09-4.62-1.45-7.31-.4-4.43,1.74-9,3.54-13.68,4.15-9.47,1.23-17.95-2-25.28-7.8-12.76,12.17-25.36,11.67-37.94-1.42-6.23,5-13.1,8.71-21.43,6.31-3.95-1.13-6.62-.58-9.66,2.45-6.44,6.42-15.31,7.2-22.87,2.14-3.09-2.07-5.53-1.95-8.76-.74-12.94,4.85-19.8,2.34-26.63-9.67-11.9,2.59-24.3,7.48-34.72-4.29-3.84,7.19-9,11.25-16.48,11.82s-13.23-3.33-18.13-8.54c-7.53,8.37-11.38,9.74-22.34,8.16q-1.48-.22-3-.42c-4.3-.59-7.76.56-10.46,4.25-4,5.44-9.74,7.93-16.29,8.6-4.3.44-8.64.71-13,.85-11.55.38-18.73-7.9-16.51-19.48.7-3.66,2.7-7.09,4.22-10.57A35,35,0,0,1,37,187.93c-1.26-.42-2-.75-2.81-.93-8.86-2.08-14-7.3-14.16-16.75A12.47,12.47,0,0,0,19,167ZM81.69,75.94c.65,1.68,1.48,3,1.63,4.34,1.34,12,.19,23.29-9,32.39-3.83,3.82-3.58,5.07,1.33,7.29a16.54,16.54,0,0,0,15.8-.78c11.66-6.71,19.43-15.63,18.87-30.3-.28-7.33-2.29-12.86-8.71-16.68-4.74-2.81-4.19-3.28-.53-7.72a71.84,71.84,0,0,0,10.26-16.1A13.57,13.57,0,0,0,109,33.8c-8.72-10.18-31-14.23-40.93,2.33-2.92,4.87-4,10.81-6.28,16.1a30,30,0,0,1-5.24,8.62c-4.63,5-10.16,9.12-14.61,14.23-7.86,9-8.43,19.64-4.5,30.5C41,115.38,49,119.16,59,116.31a27.75,27.75,0,0,0,19.58-29C78.21,83.34,77.76,79.37,81.69,75.94Zm181.56,6c.27,11.3,2.47,24.85,6.51,33.41,5,10.49,12.94,16.49,24.82,15.63,6.07-.44,12.37-1.18,18-3.3,17.68-6.65,17.51-10.32,19.14-27.08,1-10.25-8.35-16.81-18-13.26-3.48,1.27-6.37,4.08-9.66,6-1.1.62-2.61.53-3.93.76-.09-1.22-.65-2.67-.19-3.64,1.75-3.75,3.79-7.38,5.8-11a53.2,53.2,0,0,0,6.34-32.75C310.58,34,301.82,28.3,289.71,32.16a29,29,0,0,0-19.63,19.76C267.06,61.69,265.47,71.89,263.25,81.9Zm123.86,35.76c7.52,2.53,14.38,5.55,21.56,7.1,13.19,2.84,25.12-.64,35.13-9.71,6.06-5.49,6.31-13.74.26-19.28-2.71-2.49-6.95-3.3-10.47-4.93-1.25-.57-2.43-1.3-3.65-2,.81-1.16,1.39-2.62,2.47-3.4s2.73-1,4.14-1.49c3.79-1.2,7.76-2,11.35-3.65,5.23-2.4,7.24-6.75,6.2-11.78-.89-4.31-5-8-10-8.45-2.63-.26-5.32.13-8,0-2.35-.15-4.68-.68-7-1l-.45-1.53A35.1,35.1,0,0,1,433.41,54c3.4-1.74,7.11-2.88,10.39-4.79a12.48,12.48,0,0,0,2.18-20c-7.48-7.1-23.7-7.91-32.14-1.51a9.17,9.17,0,0,0-2.41,3.09c-2.56,5.08-5,10.22-7.76,15.87-.2-.14.35.24.88.63,11.6,8.31,10.88,22.56-1.61,29.46-3.62,2-7.72,3.13-11.34,5.12-1.38.76-3.1,3.09-2.83,4.29C391.09,96.35,390.44,106.33,387.11,117.66ZM146.9,88.18c8.24,7.6,8.84,12.69,2.78,21.89C149,111,148,112,147.85,113c-.2,1.27-.14,3.09.63,3.93,5.27,5.78,17.19,5.19,21-1.62,2.78-4.93,3.74-10.86,5.81-16.23.61-1.59,2.25-2.79,3.42-4.17a34.48,34.48,0,0,1,1.88,4.73c1.2,5,1.69,10.15,3.43,14.89s5.18,4.88,7.89.38a42.67,42.67,0,0,0,4-9.09,160.46,160.46,0,0,0,7.69-52.08c-.18-7.75-2.41-15.76-5.26-23-3.27-8.37-10.47-11.64-19.17-9.29-5.47,1.47-10.67,4.43-15.52,7.47-1.71,1.07-2.87,4.42-2.79,6.67a19.79,19.79,0,0,1-7.63,17.06,80.22,80.22,0,0,1-7.82,5C159.35,66.08,159.7,72.26,146.9,88.18Zm74.37,36.62a39.73,39.73,0,0,0,23.64-6.61c10-6.35,13.62-16.2,10.16-27.61-2.54-8.39-8.27-12.28-17-11-3.59.5-7,2-10.61,2.62-1.28.24-2.75-.53-4.13-.84.3-1.35.25-3,1-4C228,71.94,232.28,67,235.55,61.42c5.42-9.23,8-19.31,6.61-30.15-.84-6.43-4.71-10.14-11.14-10.75-10.66-1-24.62,8.65-23.08,23.26,2.43,23.06-.28,45.84-9.28,67.5-1.18,2.83-.79,4.6,1.38,6.53C206.13,123.24,213.33,125.09,221.27,124.8ZM360.38,67c-1.28,9.88-2.13,19.85-4,29.62-1.18,6.13-3.59,12.09-6,17.92-3.12,7.61-2.27,10.79,5.61,13.59a22,22,0,0,0,11.13,1c10.76-2.16,14.34-11,16.83-20.21,2.15-8,.64-15.86-1.66-23.6-1.28-4.26-.22-7,4.44-8.2A91.71,91.71,0,0,0,399.56,73c6.54-2.73,8.28-7,6.54-14.72-1.17-5.15-3.75-6.6-11.18-6.28-1.17,0-2.43.44-3.47.11a27.62,27.62,0,0,1-4.35-2.25,22.8,22.8,0,0,1,3.44-3.56c3.55-2.36,7.74-3.94,10.79-6.79,5.74-5.38,3.95-12.72-3.37-15.87-11.54-5-30.71-1.44-39.74,7.61-1.23,1.24-2.18,4.11-1.61,5.57C360.48,46.59,360.15,56.71,360.38,67ZM47.32,215.26c10-1.45,19-2.69,25-11.2,2.2-3.12,4.89-5.9,7.07-9,9.43-13.58,2.74-33.85-12.43-37.26-3.1-.69-6.55.34-9.82.19-1.4-.06-2.75-1.11-4.12-1.7.83-1.3,1.36-3.12,2.54-3.79,3-1.72,6.34-2.89,9.52-4.34,5.67-2.57,10.07-6.52,12.39-12.39,1.51-3.81,1.62-7.54-2.29-10.23-5.91-4.08-12.27-5.21-18.89-2.11-10.33,4.84-18.86,11.86-24.6,21.88A32.39,32.39,0,0,0,28,168.41c1.14,5.71,3.92,8.36,9.73,8.93,5.13.5,10.33.43,15.41,1.21,1.91.29,3.57,2.24,5.34,3.44-1.36,1.46-2.65,3-4.12,4.37-4.72,4.33-9.88,8.25-14.15,13A8.52,8.52,0,0,0,40,210.5C41.69,212.66,44.82,213.71,47.32,215.26ZM418.5,131.89c-2.41-.39-4-.74-5.62-.91-7.75-.8-9.76,1-10,8.93-.1,3.15.33,6.34,0,9.48-.25,2.84,2,7.53-2.38,8s-3.54-4.48-4-7.32c-1.08-6.69-2.52-13.33-7.74-17.94-2.34-2.07-6.84-4.33-9-3.39-4.81,2.08-11.32,3.66-11.79,10.69a153.91,153.91,0,0,0-.18,17.45c.55,11.92-1.56,23.15-7.41,33.65-2.95,5.28-2.08,8.05,3.32,12.17,4.23,3.23,8.62,3.46,12-.72a37.28,37.28,0,0,0,7.2-13.36c1.57-6,1.26-12.53,2.11-18.78.21-1.62,1.71-3.06,2.62-4.59,1.19,1.5,3.26,2.92,3.38,4.49a102.49,102.49,0,0,1-.11,15c-.45,6.57,2.19,11.77,7,15.8,2.22,1.88,5.82,4.38,7.88,3.73,4.31-1.38,9.16-3.39,9.53-9.52.4-6.69,4.46-10.87,10.33-13.54,1.46-.66,2.9-1.36,5.07-2.38C414.36,166.31,409.68,151.1,418.5,131.89Zm-55.41,31.29-1.09-.25a39.37,39.37,0,0,0,0-4.48c-1.22-10.54-3.47-20.78-14.38-25.57-11.13-4.89-21.23-1.25-30.22,5.74-16.65,12.94-16.83,44.47-.53,57.87,5.41,4.46,11.68,5.56,18.32,4.31,10.87-2.06,19.08-8,23-18.49C360.46,176.18,361.49,169.57,363.09,163.18ZM104.68,115.86a33.06,33.06,0,0,0,3.28,1.85c9.77,4,29.81-.64,36.64-8.63a17,17,0,0,0,3.27-6.07c1.6-5.41-.86-9.25-6.49-10.06-2.75-.4-5.63.19-8.43,0a17.65,17.65,0,0,1-4.25-1.36c1.05-1.24,1.87-2.91,3.2-3.64,2.45-1.35,5.26-2,7.83-3.22a34.68,34.68,0,0,0,6.52-3.59c3.59-2.71,5.5-9.19,4.09-13.09-1.62-4.45-5.68-4.93-9.45-5.07s-7.57.74-11.36.82c-1.8,0-3.61-.73-5.42-1.14,1.27-1.45,2.27-3.55,3.88-4.24,6.25-2.7,12.78-4.75,19-7.43,5.16-2.21,7.91-6.45,8.22-12.12s-2.37-9.8-7.44-11.81c-3.44-1.36-7.61-2.86-10.94-2.1-6.2,1.42-12.19,4.13-17.9,7-1.43.73-2.21,4.28-2,6.42,1,11-1.95,20.4-10.08,28a12.56,12.56,0,0,0-1.12,1.43C119.51,82,119.19,101.59,104.68,115.86Zm343.35,8c-10.51.07-20.73,5.75-25,13.9-7.91,15.14-.74,31.36,16.34,37.42,1.74.62,3,2.52,4.54,3.83-1.39,1.44-2.54,3.39-4.23,4.22-4.47,2.18-9.52,3.33-13.63,6A10,10,0,0,0,422.2,197c.16,2.17,3,5.12,5.38,6,13.64,5.26,37.7-2.87,38.39-27.22.35-12.4-4.78-18.62-17.05-21.06-.33-.06-.66-.11-1-.19-3.28-.84-3.68-2.79-1.5-5,1.2-1.2,3.06-1.8,4.69-2.5,3-1.31,6.37-2.1,9.13-3.82,5.66-3.52,6.24-8.28,2-13.45C458.59,125.25,453.63,123.76,448,123.88ZM114.12,175.17c-.15,8.52,2,15,6.34,19.82,7.38,8.28,15.13,6.95,18.64-3.57A63.83,63.83,0,0,0,140.33,155c-1.66-6.55-.91-7.69,5.74-8,9.62-.47,14.42-5,15.85-14.6.6-4-.42-6.1-4.76-7a37.69,37.69,0,0,1-12.4-4.61,8.62,8.62,0,0,0-8.24-1.07c-5.35,1.69-10.79,3.7-16.29,4.09-10,.71-12.93,2.62-14.78,12.33-.87,4.57.87,7.22,5.58,7.29,3.26.05,6.52-1.06,9.8-1.4a16.9,16.9,0,0,1,4.11.58c-.24,1.52.07,3.59-.8,4.48C116.13,155.2,114.63,165.44,114.12,175.17Zm196.33-92.8c2.62-.49,4.06-.72,5.49-1,12-2.52,21.25,4.43,20.82,16.73-.25,7.14-2.11,14.33-4.07,21.27-1.07,3.79.25,5,3.17,4.51a11,11,0,0,0,6.08-3.67c1.87-2.25,3-5.15,4.18-7.9,8.61-20.55,9.12-42.17,7.48-63.85-.36-4.76-3.4-9.73-6.33-13.78-4.55-6.28-11.14-7.88-17.72-5.61-6.17,2.13-11.88,8.88-11.56,15.5A78.27,78.27,0,0,1,310.45,82.37ZM233.9,130.13a80.6,80.6,0,0,0-8.48-1.1c-15.94-.56-19.18,1.87-20.16,17.86s-5.51,30.31-14.71,43.33c-3,4.21,2.43,13.72,7.64,13.89,8.92.28,20.3-8.68,21.9-17.44,1.1-6.06,1.76-12.2,2.94-18.24.23-1.23,1.86-2.2,2.85-3.28,1,1.28,3,2.6,2.93,3.85-.35,9.68-1.4,19.25-6.61,27.85-1,1.62-2.09,4.87-1.43,5.46a11.58,11.58,0,0,0,6.87,3.05c5.63.06,10.38-5.2,11.13-11.54.42-3.47.49-7,1-10.44,1-7.39,2.19-14.76,3.32-22.28-1-.38-1.69-.73-2.46-1-6.84-2.17-9-4.78-8.67-12C232.19,142.44,233.14,136.76,233.9,130.13Zm-33.37,17.29c-1.84-5.74-3.18-11.72-5.67-17.17-1.86-4.06-4.59-4.15-7.23-.45a27.54,27.54,0,0,0-4.49,10.2c-1.41,7-1.83,14.19-3.12,21.21-.25,1.37-2.59,2.35-4,3.5-.76-1.43-2.05-2.83-2.16-4.32-.21-2.62.32-5.3.53-7.95.54-6.79,1.4-13.57,1.41-20.36,0-2-2.39-4.09-3.68-6.13-1.23,1.77-2.55,3.48-3.63,5.33a8.07,8.07,0,0,0-.7,2.89c-1.41,9.91-6.58,16.42-16.54,19-1.39.35-3.36,2.28-3.38,3.49-.09,8,.23,15.93.56,23.89a9.92,9.92,0,0,0,1.33,3.72c6.84,13.72,25.18,15.3,35.35,2.8C194.38,175.71,198.52,162.34,200.53,147.42Zm45.22,36.75c.1,2.05.05,3.56.25,5,1.29,9.79,9,13,17,7.1,6.27-4.67,8-11.26,7.47-18.58-.42-5.46-1.53-10.87-2.21-16.31-.77-6.16.41-7.44,6.47-7.35,7,.11,11.47-4,12.43-11,.6-4.42-.34-7.3-5.23-8.49-2.81-.69-6.27-1.89-7.82-4-4.72-6.54-10.8-7-17.74-5.55-8.11,1.73-14.68,5.45-17.5,13.82-3.49,10.4-.67,14.46,10,14.59,3.77.05,5.55,2.52,3.46,5.46C246.74,166.73,247,175.87,245.75,184.17ZM112.64,151.9c-4.08-2.32-8.34-3.86-11.39-6.7-4-3.76-1.16-8.57-.71-13.12.25-2.57-1.88-6.49-4.13-7.92-2.88-1.82-10.65,3.08-11.69,6a77.84,77.84,0,0,1-5.15,12.26c-1.84,3.26-4.62,6-6.94,8.89.29.37.37.54.5.62q1.07.65,2.16,1.23c9.92,5.15,14.51,13.52,13.95,24.47a84.61,84.61,0,0,1-2.65,15.16c-1.25,5.16-.46,6.66,4.77,7.19,10.31,1,18.27-7.14,17.25-17.44a41.91,41.91,0,0,1,.09-10.44C109.8,165.1,111.39,158.16,112.64,151.9Zm195.64-16.47-8.55.73c-3.93.34-6,1.73-6.26,6.4-.51,8.75-5.29,14.88-13.91,17.54-2.66.81-3.47,2.34-3.39,5.18.18,6.61.14,13.24-.25,19.84-.46,7.52,2.09,13.49,7.49,16.1s12.81.9,18-3.84c2.74-2.52,3.63-5,2.17-8.78-3.74-9.74-6.19-19.93-3.52-30.28C302,150.86,305.22,143.75,308.28,135.43Zm-54.16-17c9.69.46,10.82-1.32,6.71-10.74C258.49,111.48,256.39,114.85,254.12,118.47Z"/><path class="cls-1" d="M19,167a12.47,12.47,0,0,1,1,3.25c.2,9.45,5.3,14.67,14.16,16.75.79.18,1.55.51,2.81.93a35,35,0,0,0-2.29,3.82c-1.52,3.48-3.52,6.91-4.22,10.57-2.22,11.58,5,19.86,16.51,19.48,4.32-.14,8.66-.41,13-.85,6.55-.67,12.31-3.16,16.29-8.6,2.7-3.69,6.16-4.84,10.46-4.25q1.49.19,3,.42c11,1.58,14.81.21,22.34-8.16,4.9,5.21,10.53,9.12,18.13,8.54s12.64-4.63,16.48-11.82C157,208.85,169.4,204,181.3,201.37c6.83,12,13.69,14.52,26.63,9.67,3.23-1.21,5.67-1.33,8.76.74,7.56,5.06,16.43,4.28,22.87-2.14,3-3,5.71-3.58,9.66-2.45,8.33,2.4,15.2-1.3,21.43-6.31,12.58,13.09,25.18,13.59,37.94,1.42,7.33,5.82,15.81,9,25.28,7.8,4.67-.61,9.25-2.41,13.68-4.15,2.69-1,4.77-1.69,7.31.4,12.68,10.45,19.95,9.89,31.07-2.15a10.21,10.21,0,0,1,1.08-.91c1.85,1.73,3.59,3.45,5.44,5.06,6.74,5.85,13.7,6.49,21.75,2.62,1.94-.93,4.91-1.35,6.78-.55,25.66,11,51.87-5.48,53-33.34.39-9.65-1.54-18.51-8.06-25.87,13.17-14.62,9.15-26.84-11.75-35.91C457.43,106,457,97.07,450,88.82c6.63-4,11.35-9.18,12.18-17.1.87-8.22-2.51-14.17-9.25-18,1.55-3.76,3.37-7.16,4.38-10.78,3-10.76-1.39-19.56-11.68-24-9.5-4.07-19.23-3.86-28.76-.38-4.6,1.68-8.26,1.16-12.77-.79-16.77-7.26-32.83-4.52-48,5-1.39.86-2.68,1.88-4,2.78-9.92-8.35-27.22-6.34-37.54,5-11.71-12.58-38.11-6-47.46,10-5.35,9.14-7.65,19.07-9,29.36-.28,2.12-.55,4.25-.78,6.07L239.21,71.1c.95-1.69,2.09-3.83,3.32-5.91,5.95-10.12,7.84-21.18,7.23-32.7C249,17.88,239.47,10.63,225,13.37c-7.27,1.38-11.74,3.85-20.37,11.46C201.49,18,196,14.66,188.6,14.16c-9.62-.64-18.62,1.2-26.73,6.37-3.17,2-5.34,2.23-8.85.31-12-6.5-23.63-3.58-34.6,2.85-3.62,2.12-5.79,2-9.57-.13C91.93,13.91,65.7,13.92,57.77,41.28,55.38,49.52,51.6,56,44.51,61,25.38,74.35,26,97.29,32.23,112.59c1.57,3.82,4.85,6.94,7.64,10.8l-3.71,3.29c-9.72,8.64-15,19.67-17.16,32.32V12H475V223H19Z"/><path class="cls-1" d="M81.69,75.94c-3.93,3.43-3.48,7.4-3.08,11.37a27.75,27.75,0,0,1-19.58,29c-10,2.85-18.05-.93-21.59-10.73-3.93-10.86-3.36-21.46,4.5-30.5,4.45-5.11,10-9.27,14.61-14.23a30,30,0,0,0,5.24-8.62c2.3-5.29,3.36-11.23,6.28-16.1C78,19.57,100.28,23.62,109,33.8a13.57,13.57,0,0,1,2.37,14.58,71.84,71.84,0,0,1-10.26,16.1c-3.66,4.44-4.21,4.91.53,7.72,6.42,3.82,8.43,9.35,8.71,16.68.56,14.67-7.21,23.59-18.87,30.3a16.54,16.54,0,0,1-15.8.78c-4.91-2.22-5.16-3.47-1.33-7.29,9.16-9.1,10.31-20.42,9-32.39C83.17,78.91,82.34,77.62,81.69,75.94ZM94.86,34.17l-1.8,1.3c-.29.57-.82,1.14-.84,1.72-.23,6.74-.46,13.48-.48,20.22,0,.81,1.24,1.62,1.91,2.43.81-.67,2.27-1.29,2.32-2,.46-6.59.79-13.2.86-19.8C96.84,36.76,95.55,35.46,94.86,34.17Z"/><path class="cls-1" d="M263.25,81.9c2.22-10,3.81-20.21,6.83-30a29,29,0,0,1,19.63-19.76c12.11-3.86,20.87,1.81,22.34,14.47a53.2,53.2,0,0,1-6.34,32.75c-2,3.62-4,7.25-5.8,11-.46,1,.1,2.42.19,3.64,1.32-.23,2.83-.14,3.93-.76,3.29-1.88,6.18-4.69,9.66-6,9.68-3.55,19,3,18,13.26-1.63,16.76-1.46,20.43-19.14,27.08-5.63,2.12-11.93,2.86-18,3.3-11.88.86-19.86-5.14-24.82-15.63C265.72,106.75,263.52,93.2,263.25,81.9Z"/><path class="cls-1" d="M387.11,117.66c3.33-11.33,4-21.31,1.66-31.48-.27-1.2,1.45-3.53,2.83-4.29,3.62-2,7.72-3.12,11.34-5.12,12.49-6.9,13.21-21.15,1.61-29.46-.53-.39-1.08-.77-.88-.63,2.74-5.65,5.2-10.79,7.76-15.87a9.17,9.17,0,0,1,2.41-3.09c8.44-6.4,24.66-5.59,32.14,1.51a12.48,12.48,0,0,1-2.18,20c-3.28,1.91-7,3.05-10.39,4.79a35.1,35.1,0,0,0-4.76,3.48L429.1,59c2.34.37,4.67.9,7,1,2.65.17,5.34-.22,8,0,5,.48,9.12,4.14,10,8.45,1,5-1,9.38-6.2,11.78-3.59,1.65-7.56,2.45-11.35,3.65-1.41.44-3,.66-4.14,1.49s-1.66,2.24-2.47,3.4c1.22.66,2.4,1.39,3.65,2,3.52,1.63,7.76,2.44,10.47,4.93,6.05,5.54,5.8,13.79-.26,19.28-10,9.07-21.94,12.55-35.13,9.71C401.49,123.21,394.63,120.19,387.11,117.66Z"/><path class="cls-1" d="M146.9,88.18c12.8-15.92,12.45-22.1-1.45-30.55a80.22,80.22,0,0,0,7.82-5,19.79,19.79,0,0,0,7.63-17.06c-.08-2.25,1.08-5.6,2.79-6.67,4.85-3,10.05-6,15.52-7.47,8.7-2.35,15.9.92,19.17,9.29,2.85,7.29,5.08,15.3,5.26,23A160.46,160.46,0,0,1,196,105.81a42.67,42.67,0,0,1-4,9.09c-2.71,4.5-6.11,4.45-7.89-.38s-2.23-9.93-3.43-14.89a34.48,34.48,0,0,0-1.88-4.73c-1.17,1.38-2.81,2.58-3.42,4.17-2.07,5.37-3,11.3-5.81,16.23-3.84,6.81-15.76,7.4-21,1.62-.77-.84-.83-2.66-.63-3.93.16-1,1.19-1.95,1.83-2.92C155.74,100.87,155.14,95.78,146.9,88.18Zm34.89-49.13c-.6,1.56-1.3,2.56-1.35,3.6C180,53.1,179.52,63.54,179.33,74c0,1.71,1.23,3.43,2.24,6.07C187.16,70.35,187.19,43.88,181.79,39.05Z"/><path class="cls-1" d="M221.27,124.8c-7.94.29-15.14-1.56-21.23-7-2.17-1.93-2.56-3.7-1.38-6.53,9-21.66,11.71-44.44,9.28-67.5C206.4,29.17,220.36,19.5,231,20.52c6.43.61,10.3,4.32,11.14,10.75,1.43,10.84-1.19,20.92-6.61,30.15C232.28,67,228,71.94,224.34,77.28c-.73,1.07-.68,2.68-1,4,1.38.31,2.85,1.08,4.13.84,3.58-.67,7-2.12,10.61-2.62,8.7-1.23,14.43,2.66,17,11,3.46,11.41-.17,21.26-10.16,27.61A39.73,39.73,0,0,1,221.27,124.8Z"/><path class="cls-1" d="M360.38,67c-.23-10.24.1-20.36-3.77-30.13-.57-1.46.38-4.33,1.61-5.57,9-9,28.2-12.57,39.74-7.61,7.32,3.15,9.11,10.49,3.37,15.87-3.05,2.85-7.24,4.43-10.79,6.79a22.8,22.8,0,0,0-3.44,3.56,27.62,27.62,0,0,0,4.35,2.25c1,.33,2.3-.06,3.47-.11,7.43-.32,10,1.13,11.18,6.28,1.74,7.68,0,12-6.54,14.72a91.71,91.71,0,0,1-12.81,4.07c-4.66,1.19-5.72,3.94-4.44,8.2,2.3,7.74,3.81,15.63,1.66,23.6-2.49,9.24-6.07,18-16.83,20.21a22,22,0,0,1-11.13-1c-7.88-2.8-8.73-6-5.61-13.59,2.39-5.83,4.8-11.79,6-17.92C358.25,86.8,359.1,76.83,360.38,67Z"/><path class="cls-1" d="M47.32,215.26c-2.5-1.55-5.63-2.6-7.36-4.76a8.52,8.52,0,0,1,.2-11.15c4.27-4.74,9.43-8.66,14.15-13,1.47-1.35,2.76-2.91,4.12-4.37-1.77-1.2-3.43-3.15-5.34-3.44-5.08-.78-10.28-.71-15.41-1.21-5.81-.57-8.59-3.22-9.73-8.93a32.39,32.39,0,0,1,3.72-23.14c5.74-10,14.27-17,24.6-21.88,6.62-3.1,13-2,18.89,2.11,3.91,2.69,3.8,6.42,2.29,10.23-2.32,5.87-6.72,9.82-12.39,12.39-3.18,1.45-6.5,2.62-9.52,4.34-1.18.67-1.71,2.49-2.54,3.79,1.37.59,2.72,1.64,4.12,1.7,3.27.15,6.72-.88,9.82-.19C82.11,161.17,88.8,181.44,79.37,195c-2.18,3.14-4.87,5.92-7.07,9C66.29,212.57,57.33,213.81,47.32,215.26Z"/><path class="cls-1" d="M418.5,131.89c-8.82,19.21-4.14,34.42,12.18,46.89-2.17,1-3.61,1.72-5.07,2.38-5.87,2.67-9.93,6.85-10.33,13.54-.37,6.13-5.22,8.14-9.53,9.52-2.06.65-5.66-1.85-7.88-3.73-4.77-4-7.41-9.23-7-15.8a102.49,102.49,0,0,0,.11-15c-.12-1.57-2.19-3-3.38-4.49-.91,1.53-2.41,3-2.62,4.59-.85,6.25-.54,12.75-2.11,18.78a37.28,37.28,0,0,1-7.2,13.36c-3.37,4.18-7.76,3.95-12,.72-5.4-4.12-6.27-6.89-3.32-12.17,5.85-10.5,8-21.73,7.41-33.65a153.91,153.91,0,0,1,.18-17.45c.47-7,7-8.61,11.79-10.69,2.18-.94,6.68,1.32,9,3.39,5.22,4.61,6.66,11.25,7.74,17.94.45,2.84-.25,7.75,4,7.32s2.13-5.14,2.38-8c.29-3.14-.14-6.33,0-9.48.25-8,2.26-9.73,10-8.93C414.49,131.15,416.09,131.5,418.5,131.89Z"/><path class="cls-1" d="M363.09,163.18c-1.6,6.39-2.63,13-4.92,19.13-3.92,10.49-12.13,16.43-23,18.49-6.64,1.25-12.91.15-18.32-4.31-16.3-13.4-16.12-44.93.53-57.87,9-7,19.09-10.63,30.22-5.74,10.91,4.79,13.16,15,14.38,25.57a39.37,39.37,0,0,1,0,4.48Zm-23-14.51a23.93,23.93,0,0,0-.75-5.06,3.37,3.37,0,0,0-2.6-1.75c-.6,0-1.65,1.47-1.76,2.37-1.35,11.67-2.7,23.34-3.71,35-.16,1.91,1.29,4,2,5.95,1.16-1.68,3.12-3.26,3.35-5.06C338,169.8,338.92,159.38,340.06,148.67Z"/><path class="cls-1" d="M104.68,115.86c14.51-14.27,14.83-33.83,1.08-48a12.56,12.56,0,0,1,1.12-1.43c8.13-7.64,11.09-17,10.08-28-.2-2.14.58-5.69,2-6.42,5.71-2.91,11.7-5.62,17.9-7,3.33-.76,7.5.74,10.94,2.1,5.07,2,7.74,6.14,7.44,11.81S152.19,48.79,147,51c-6.26,2.68-12.79,4.73-19,7.43-1.61.69-2.61,2.79-3.88,4.24,1.81.41,3.62,1.18,5.42,1.14,3.79-.08,7.59-1,11.36-.82s7.83.62,9.45,5.07c1.41,3.9-.5,10.38-4.09,13.09a34.68,34.68,0,0,1-6.52,3.59c-2.57,1.17-5.38,1.87-7.83,3.22-1.33.73-2.15,2.4-3.2,3.64A17.65,17.65,0,0,0,133,93c2.8.18,5.68-.41,8.43,0,5.63.81,8.09,4.65,6.49,10.06a17,17,0,0,1-3.27,6.07c-6.83,8-26.87,12.63-36.64,8.63A33.06,33.06,0,0,1,104.68,115.86Z"/><path class="cls-1" d="M448,123.88c5.59-.12,10.55,1.37,14.22,5.86,4.24,5.17,3.66,9.93-2,13.45-2.76,1.72-6.1,2.51-9.13,3.82-1.63.7-3.49,1.3-4.69,2.5-2.18,2.21-1.78,4.16,1.5,5,.32.08.65.13,1,.19,12.27,2.44,17.4,8.66,17.05,21.06-.69,24.35-24.75,32.48-38.39,27.22-2.34-.9-5.22-3.85-5.38-6a10,10,0,0,1,3.87-7.72c4.11-2.66,9.16-3.81,13.63-6,1.69-.83,2.84-2.78,4.23-4.22-1.5-1.31-2.8-3.21-4.54-3.83-17.08-6.06-24.25-22.28-16.34-37.42C427.3,129.63,437.52,124,448,123.88Z"/><path class="cls-1" d="M114.12,175.17c.51-9.73,2-20,10-28.07.87-.89.56-3,.8-4.48a16.9,16.9,0,0,0-4.11-.58c-3.28.34-6.54,1.45-9.8,1.4-4.71-.07-6.45-2.72-5.58-7.29,1.85-9.71,4.75-11.62,14.78-12.33,5.5-.39,10.94-2.4,16.29-4.09a8.62,8.62,0,0,1,8.24,1.07,37.69,37.69,0,0,0,12.4,4.61c4.34.91,5.36,3,4.76,7-1.43,9.62-6.23,14.13-15.85,14.6-6.65.33-7.4,1.47-5.74,8a63.83,63.83,0,0,1-1.23,36.38c-3.51,10.52-11.26,11.85-18.64,3.57C116.14,190.14,114,183.69,114.12,175.17Z"/><path class="cls-1" d="M310.45,82.37A78.27,78.27,0,0,0,318,44.54c-.32-6.62,5.39-13.37,11.56-15.5,6.58-2.27,13.17-.67,17.72,5.61,2.93,4.05,6,9,6.33,13.78,1.64,21.68,1.13,43.3-7.48,63.85-1.15,2.75-2.31,5.65-4.18,7.9a11,11,0,0,1-6.08,3.67c-2.92.49-4.24-.72-3.17-4.51,2-6.94,3.82-14.13,4.07-21.27.43-12.3-8.82-19.25-20.82-16.73C314.51,81.65,313.07,81.88,310.45,82.37Z"/><path class="cls-1" d="M233.9,130.13c-.76,6.63-1.71,12.31-2,18-.32,7.2,1.83,9.81,8.67,12,.77.24,1.5.59,2.46,1-1.13,7.52-2.31,14.89-3.32,22.28-.48,3.46-.55,7-1,10.44-.75,6.34-5.5,11.6-11.13,11.54a11.58,11.58,0,0,1-6.87-3.05c-.66-.59.44-3.84,1.43-5.46,5.21-8.6,6.26-18.17,6.61-27.85.05-1.25-1.91-2.57-2.93-3.85-1,1.08-2.62,2-2.85,3.28-1.18,6-1.84,12.18-2.94,18.24-1.6,8.76-13,17.72-21.9,17.44-5.21-.17-10.62-9.68-7.64-13.89,9.2-13,13.73-27.41,14.71-43.33s4.22-18.42,20.16-17.86A80.6,80.6,0,0,1,233.9,130.13ZM221,145.85l.4,0c-.14,2.49-.41,5-.37,7.47,0,.83.8,2.3,1.25,2.31,1,0,2.71-.61,2.8-1.17.92-6.32,1.69-12.66,2.2-19,.06-.79-1.65-2.41-2.53-2.41a3.67,3.67,0,0,0-2.57,2.44C221.51,138.9,221.32,142.39,221,145.85Z"/><path class="cls-1" d="M200.53,147.42c-2,14.92-6.15,28.29-15.39,39.63-10.17,12.5-28.51,10.92-35.35-2.8a9.92,9.92,0,0,1-1.33-3.72c-.33-8-.65-15.93-.56-23.89,0-1.21,2-3.14,3.38-3.49,10-2.56,15.13-9.07,16.54-19a8.07,8.07,0,0,1,.7-2.89c1.08-1.85,2.4-3.56,3.63-5.33,1.29,2,3.68,4.09,3.68,6.13,0,6.79-.87,13.57-1.41,20.36-.21,2.65-.74,5.33-.53,7.95.11,1.49,1.4,2.89,2.16,4.32,1.38-1.15,3.72-2.13,4-3.5,1.29-7,1.71-14.21,3.12-21.21a27.54,27.54,0,0,1,4.49-10.2c2.64-3.7,5.37-3.61,7.23.45C197.35,135.7,198.69,141.68,200.53,147.42Z"/><path class="cls-1" d="M245.75,184.17c1.23-8.3,1-17.44,6.54-25.26,2.09-2.94.31-5.41-3.46-5.46-10.67-.13-13.49-4.19-10-14.59,2.82-8.37,9.39-12.09,17.5-13.82,6.94-1.48,13-1,17.74,5.55,1.55,2.14,5,3.34,7.82,4,4.89,1.19,5.83,4.07,5.23,8.49-1,7-5.44,11.07-12.43,11-6.06-.09-7.24,1.19-6.47,7.35.68,5.44,1.79,10.85,2.21,16.31.57,7.32-1.2,13.91-7.47,18.58-7.94,5.91-15.67,2.69-17-7.1C245.8,187.73,245.85,186.22,245.75,184.17Z"/><path class="cls-1" d="M112.64,151.9c-1.25,6.26-2.84,13.2-3.94,20.22a41.91,41.91,0,0,0-.09,10.44c1,10.3-6.94,18.47-17.25,17.44-5.23-.53-6-2-4.77-7.19a84.61,84.61,0,0,0,2.65-15.16c.56-11-4-19.32-13.95-24.47q-1.1-.59-2.16-1.23c-.13-.08-.21-.25-.5-.62,2.32-2.91,5.1-5.63,6.94-8.89a77.84,77.84,0,0,0,5.15-12.26c1-2.94,8.81-7.84,11.69-6,2.25,1.43,4.38,5.35,4.13,7.92-.45,4.55-3.32,9.36.71,13.12C104.3,148,108.56,149.58,112.64,151.9Z"/><path class="cls-1" d="M308.28,135.43c-3.06,8.32-6.33,15.43-8.25,22.89-2.67,10.35-.22,20.54,3.52,30.28,1.46,3.8.57,6.26-2.17,8.78-5.16,4.74-12.65,6.42-18,3.84s-8-8.58-7.49-16.1c.39-6.6.43-13.23.25-19.84-.08-2.84.73-4.37,3.39-5.18,8.62-2.66,13.4-8.79,13.91-17.54.28-4.67,2.33-6.06,6.26-6.4Z"/><path class="cls-1" d="M254.12,118.47c2.27-3.62,4.37-7,6.71-10.74C264.94,117.15,263.81,118.93,254.12,118.47Z"/><path d="M94.86,34.17c.69,1.29,2,2.59,2,3.87-.07,6.6-.4,13.21-.86,19.8,0,.71-1.51,1.33-2.32,2-.67-.81-1.91-1.62-1.91-2.43,0-6.74.25-13.48.48-20.22,0-.58.55-1.15.84-1.72Z"/><path d="M181.79,39.05c5.4,4.83,5.37,31.3-.22,41-1-2.64-2.27-4.36-2.24-6.07.19-10.45.65-20.89,1.11-31.34C180.49,41.61,181.19,40.61,181.79,39.05Z"/><path d="M340.06,148.67c-1.14,10.71-2.1,21.13-3.47,31.49-.23,1.8-2.19,3.38-3.35,5.06-.71-2-2.16-4-2-5.95,1-11.7,2.36-23.37,3.71-35,.11-.9,1.16-2.38,1.76-2.37a3.37,3.37,0,0,1,2.6,1.75A23.93,23.93,0,0,1,340.06,148.67Z"/><path d="M221,145.85c.35-3.46.54-6.95,1.18-10.35a3.67,3.67,0,0,1,2.57-2.44c.88,0,2.59,1.62,2.53,2.41-.51,6.37-1.28,12.71-2.2,19-.09.56-1.84,1.19-2.8,1.17-.45,0-1.23-1.48-1.25-2.31,0-2.48.23-5,.37-7.47Z"/></svg>