<?xml version="1.0" encoding="UTF-8" standalone="no"?>
<svg
   xmlns:dc="http://purl.org/dc/elements/1.1/"
   xmlns:cc="http://creativecommons.org/ns#"
   xmlns:rdf="http://www.w3.org/1999/02/22-rdf-syntax-ns#"
   xmlns:svg="http://www.w3.org/2000/svg"
   xmlns="http://www.w3.org/2000/svg"
   xmlns:sodipodi="http://sodipodi.sourceforge.net/DTD/sodipodi-0.dtd"
   xmlns:inkscape="http://www.inkscape.org/namespaces/inkscape"
   viewBox="0 0 150 13.999999"
   width="100%"
   xml:space="preserve"
   id="svg2"
   version="1.1"
   sodipodi:docname="01-super-talking.svg"
   inkscape:version="0.92.3 (unknown)"><sodipodi:namedview
   pagecolor="#ffffff"
   bordercolor="#666666"
   borderopacity="1"
   objecttolerance="10"
   gridtolerance="10"
   guidetolerance="10"
   inkscape:pageopacity="0"
   inkscape:pageshadow="2"
   inkscape:window-width="1920"
   inkscape:window-height="1031"
   id="namedview31"
   showgrid="false"
   inkscape:zoom="3.915636"
   inkscape:cx="44.692612"
   inkscape:cy="5.0300322"
   inkscape:window-x="0"
   inkscape:window-y="27"
   inkscape:window-maximized="1"
   inkscape:current-layer="svg2" /><defs
   id="defs604" />
  
  <metadata
   id="metadata8">
    <rdf:RDF>
      <cc:Work
   rdf:about="">
        <dc:format>image/svg+xml</dc:format>
        <dc:type
   rdf:resource="http://purl.org/dc/dcmitype/StillImage" />
        <dc:title></dc:title>
      </cc:Work>
    </rdf:RDF>
  </metadata>
  <g
   id="g601"
   transform="matrix(1.333333,0,0,-1.333333,-154.49108,574.53489)">
    <g
   id="g3319">
      <g
   id="g904"
   transform="translate(161.0912,426.251)">
        <path
   d="m 0,0 c -0.267,-0.549 -0.788,-0.672 -1.309,-0.888 -0.143,0.464 -0.099,0.87 0,1.3 C -0.783,0.514 -0.321,0.531 0,0 M -1.826,1.146 C -2.14,1.145 -2.27,0.938 -2.286,0.639 c -0.077,-1.353 0.063,-2.68 0.455,-4.025 0.195,0.016 0.372,0.031 0.595,0.049 0,0.307 -0.009,0.562 0.002,0.816 0.023,0.564 0.222,0.677 0.734,0.41 0.17,-0.088 0.313,-0.227 0.479,-0.321 0.691,-0.384 1.378,-0.775 2.084,-1.13 0.25,-0.127 0.5,0.038 0.589,0.311 0.093,0.282 -0.091,0.431 -0.304,0.463 -0.854,0.128 -1.42,0.769 -2.129,1.151 -0.122,0.065 -0.211,0.193 -0.367,0.341 0.198,0.158 0.351,0.297 0.521,0.412 0.387,0.26 0.505,0.634 0.434,1.063 -0.076,0.454 -0.322,0.849 -0.788,0.912 -0.607,0.082 -1.23,0.055 -1.845,0.055"
   style="fill:#231f20;fill-opacity:1;fill-rule:nonzero;stroke:none"
   id="path906"
   inkscape:connector-curvature="0" />
      </g>
      <g
   id="g908"
   transform="translate(196.889,426.5029)">
        <path
   d="m 0,0 c 0.343,-0.41 0.675,-0.839 1.072,-1.192 0.601,-0.536 1.085,-0.376 1.314,0.383 0.061,0.203 0.117,0.416 0.121,0.626 C 2.521,0.59 2.519,1.363 2.51,2.136 2.504,2.592 2.487,2.597 1.878,2.768 1.671,1.74 1.729,0.678 1.496,-0.488 1.257,-0.237 1.1,-0.104 0.981,0.057 0.486,0.732 0,1.413 -0.481,2.097 -0.708,2.42 -0.975,2.634 -1.489,2.517 -1.566,1.743 -1.648,0.981 -1.715,0.218 c -0.021,-0.256 -0.014,-0.516 0.003,-0.772 0.024,-0.31 0.13,-0.581 0.445,-0.717 0.365,0.124 0.475,0.34 0.345,0.7 -0.179,0.498 -0.09,0.954 0.303,1.427 C -0.395,0.543 -0.214,0.257 0,0"
   style="fill:#231f20;fill-opacity:1;fill-rule:nonzero;stroke:none"
   id="path910"
   inkscape:connector-curvature="0" />
      </g>
      <g
   id="g912"
   transform="translate(204.7806,426.9858)">
        <path
   d="m 0,0 c -0.423,0.047 -0.855,0.03 -1.283,0.016 -0.456,-0.015 -0.488,-0.079 -0.374,-0.607 0.499,-0.175 1.063,0.102 1.55,-0.192 -0.148,-0.538 -0.358,-0.757 -0.797,-0.78 -0.406,-0.021 -0.816,-0.029 -1.219,0.005 -0.598,0.051 -0.896,0.399 -0.831,0.99 0.07,0.637 0.328,1.202 0.861,1.59 0.378,0.275 0.773,0.513 1.266,0.584 0.511,0.074 0.61,0.284 0.485,0.832 -0.242,-0.046 -0.486,-0.099 -0.732,-0.139 -1.702,-0.275 -2.748,-1.6 -2.61,-3.308 0.057,-0.694 0.649,-1.282 1.351,-1.308 0.557,-0.021 1.114,-0.018 1.67,0.004 0.181,0.007 0.392,0.065 0.528,0.174 0.266,0.213 0.517,0.457 0.725,0.725 C 1.112,-0.741 0.845,-0.095 0,0"
   style="fill:#231f20;fill-opacity:1;fill-rule:nonzero;stroke:none"
   id="path914"
   inkscape:connector-curvature="0" />
      </g>
      <g
   id="g916"
   transform="translate(144.1341,424.8311)">
        <path
   d="m 0,0 c -0.046,0.596 -0.003,1.199 -0.033,1.797 -0.029,0.566 -0.179,0.657 -0.862,0.546 0.052,-0.416 0.118,-0.792 0.141,-1.17 0.024,-0.384 -0.025,-0.774 0.013,-1.156 0.05,-0.507 0.095,-1.027 0.246,-1.509 0.322,-1.024 0.851,-1.402 1.932,-1.458 0.554,-0.029 0.995,0.21 1.231,0.75 0.549,1.256 0.611,2.562 0.415,3.896 C 3.071,1.779 3.039,1.863 2.998,1.936 2.893,2.124 2.788,2.334 2.512,2.237 2.229,2.138 2.229,1.942 2.275,1.67 2.361,1.168 2.441,0.651 2.412,0.147 2.38,-0.4 2.273,-0.958 2.102,-1.479 1.851,-2.247 1.312,-2.378 0.695,-1.858 0.507,-1.7 0.333,-1.474 0.258,-1.245 0.126,-0.844 0.032,-0.42 0,0"
   style="fill:#231f20;fill-opacity:1;fill-rule:nonzero;stroke:none"
   id="path918"
   inkscape:connector-curvature="0" />
      </g>
      <g
   id="g920"
   transform="translate(153.3138,426.54)">
        <path
   d="m 0,0 c 0.029,-0.404 0.064,-0.808 0.074,-1.213 0.013,-0.557 -0.007,-1.114 0.007,-1.67 0.017,-0.683 0.126,-0.79 0.785,-0.796 0.75,-0.007 1.499,-0.005 2.249,0.002 0.139,10e-4 0.277,0.045 0.415,0.069 0.05,0.398 -0.129,0.561 -0.46,0.587 -0.17,0.013 -0.341,0.006 -0.513,0.007 -0.549,0 -1.099,0 -1.671,0 v 0.739 c 0.319,0.015 0.593,0.029 0.866,0.041 0.299,0.011 0.603,-0.009 0.897,0.037 0.454,0.071 0.702,0.307 0.657,0.563 -0.051,0.285 -0.29,0.326 -0.809,0.238 -0.498,-0.084 -1.007,-0.101 -1.658,-0.16 0,0.422 -0.007,0.693 0.002,0.963 0.007,0.221 0.119,0.359 0.35,0.383 0.551,0.059 1.1,0.126 1.652,0.177 C 3.12,-0.007 3.433,-0.04 3.504,0.322 3.546,0.537 3.278,0.692 2.867,0.719 2.007,0.775 1.162,0.693 0.329,0.46 0.068,0.388 -0.019,0.249 0,0"
   style="fill:#231f20;fill-opacity:1;fill-rule:nonzero;stroke:none"
   id="path922"
   inkscape:connector-curvature="0" />
      </g>
      <g
   id="g924"
   transform="translate(183.6771,425.811)">
        <path
   d="m 0,0 c 0.009,-0.288 0.147,-0.576 0.248,-0.855 0.084,-0.232 0.262,-0.317 0.528,-0.253 0.032,0.112 0.085,0.212 0.081,0.311 -0.007,0.233 -0.04,0.465 -0.068,0.698 -0.032,0.269 -0.004,0.505 0.242,0.683 0.268,0.193 0.457,0.01 0.625,-0.133 0.488,-0.416 0.953,-0.857 1.432,-1.285 0.174,-0.157 0.341,-0.33 0.539,-0.449 0.251,-0.15 0.622,-0.098 0.704,0.078 0.13,0.281 -0.089,0.421 -0.264,0.581 C 3.455,-0.062 2.848,0.504 2.242,1.073 2.201,1.111 2.194,1.187 2.141,1.325 2.549,1.537 2.965,1.741 3.368,1.967 3.732,2.171 3.732,2.201 3.539,2.775 3.287,2.707 3.012,2.674 2.777,2.558 2.318,2.329 1.887,2.048 1.437,1.8 1.225,1.682 1.021,1.468 0.648,1.716 V 3.272 C 0.371,3.24 0.192,3.219 -0.012,3.195 -0.012,2.096 -0.029,1.047 0,0"
   style="fill:#231f20;fill-opacity:1;fill-rule:nonzero;stroke:none"
   id="path926"
   inkscape:connector-curvature="0" />
      </g>
      <g
   id="g928"
   transform="translate(175.3392,426.1831)">
        <path
   d="M 0,0 C -0.102,-0.217 -0.284,-0.297 -0.624,-0.144 -0.502,0.151 -0.395,0.41 -0.269,0.713 -0.006,0.479 0.125,0.271 0,0 M 1.059,-0.243 C 0.832,0.398 0.553,1.022 0.27,1.64 0.145,1.912 -0.05,2.19 -0.398,2.15 -0.727,2.113 -0.804,1.786 -0.895,1.535 -1.219,0.629 -1.534,-0.28 -1.82,-1.198 c -0.118,-0.38 -0.209,-0.788 0.01,-1.185 0.312,-0.099 0.501,0.014 0.592,0.31 0.063,0.204 0.099,0.418 0.179,0.615 0.185,0.454 0.342,0.497 0.981,0.505 0.432,0.005 0.545,-0.233 0.619,-0.576 0.035,-0.165 0.105,-0.325 0.173,-0.482 0.145,-0.328 0.349,-0.45 0.577,-0.341 0.257,0.124 0.197,0.352 0.148,0.56 -0.125,0.519 -0.224,1.048 -0.4,1.549"
   style="fill:#231f20;fill-opacity:1;fill-rule:nonzero;stroke:none"
   id="path930"
   inkscape:connector-curvature="0" />
      </g>
      <g
   id="g932"
   transform="translate(192.9037,427.8047)">
        <path
   d="M 0,0 C 0.198,0.007 0.416,0.063 0.416,0.307 0.415,0.571 0.267,0.748 -0.029,0.743 -0.072,0.742 -0.115,0.747 -0.158,0.745 -0.581,0.721 -0.967,0.801 -1.28,1.115 -1.475,1.31 -1.738,1.342 -1.922,1.177 -2.201,0.927 -2.511,0.968 -2.827,0.955 -3.016,0.948 -3.203,0.923 -3.401,0.906 V 0.2 h 1.22 c 0.409,-0.657 0.35,-1.313 0.28,-2.088 -0.294,0.048 -0.521,0.082 -0.747,0.122 -0.231,0.041 -0.419,-0.059 -0.428,-0.27 -0.007,-0.152 0.13,-0.32 0.23,-0.461 0.04,-0.055 0.157,-0.077 0.238,-0.077 1.064,-0.005 2.129,-0.003 3.176,-0.003 0.149,0.577 0.106,0.66 -0.331,0.699 -0.128,0.012 -0.258,0.003 -0.385,0.004 -0.729,0.005 -0.904,0.158 -0.95,0.874 -0.019,0.311 -0.003,0.625 -0.003,0.997 C -0.68,-0.003 -0.34,-0.012 0,0"
   style="fill:#231f20;fill-opacity:1;fill-rule:nonzero;stroke:none"
   id="path934"
   inkscape:connector-curvature="0" />
      </g>
      <g
   id="g936"
   transform="translate(139.7435,422.8477)">
        <path
   d="m 0,0 c -0.211,0.009 -0.417,0.082 -0.627,0.12 -0.197,0.037 -0.403,0.054 -0.482,-0.186 -0.083,-0.253 -0.029,-0.491 0.248,-0.574 0.281,-0.085 0.58,-0.113 0.871,-0.166 0.305,0.052 0.618,0.05 0.884,0.16 0.72,0.299 1.024,1.113 0.835,1.944 C 1.581,1.95 1.106,2.299 0.619,2.641 -0.186,3.207 0.132,3.725 0.557,4.182 0.746,4.387 0.977,4.463 1.255,4.378 1.396,4.335 1.545,4.289 1.691,4.289 2.013,4.289 2.145,4.544 1.963,4.814 1.895,4.917 1.792,5.041 1.685,5.065 1.205,5.177 0.683,5.289 0.265,4.971 -0.965,4.037 -0.931,2.679 0.208,1.924 0.401,1.796 0.582,1.632 0.729,1.453 0.971,1.162 1.12,0.835 0.921,0.449 0.725,0.069 0.378,-0.016 0,0"
   style="fill:#231f20;fill-opacity:1;fill-rule:nonzero;stroke:none"
   id="path938"
   inkscape:connector-curvature="0" />
      </g>
      <g
   id="g940"
   transform="translate(150.0179,426.1895)">
        <path
   d="M 0,0 C 0.358,0.253 0.745,0.202 1.118,0.009 1.009,-0.547 0.767,-0.762 0.04,-0.97 -0.159,-0.604 -0.204,-0.145 0,0 m -0.877,0.212 c 0.003,-0.385 0.001,-0.771 0.001,-1.157 -0.026,-0.003 -0.053,-0.007 -0.078,-0.01 0.114,-0.887 0.221,-1.775 0.348,-2.66 0.033,-0.229 0.107,-0.498 0.421,-0.469 0.296,0.026 0.367,0.267 0.355,0.521 -0.019,0.382 -0.025,0.77 -0.094,1.145 -0.052,0.28 0.018,0.434 0.259,0.575 0.387,0.227 0.792,0.447 1.114,0.749 0.252,0.236 0.444,0.573 0.564,0.902 C 2.141,0.16 1.866,0.733 1.565,0.765 0.846,0.842 0.115,0.921 -0.594,0.663 -0.808,0.585 -0.879,0.425 -0.877,0.212"
   style="fill:#231f20;fill-opacity:1;fill-rule:nonzero;stroke:none"
   id="path942"
   inkscape:connector-curvature="0" />
      </g>
      <g
   id="g944"
   transform="translate(171.4251,428.1646)">
        <path
   d="M 0,0 C -0.256,0.002 -0.54,-0.043 -0.763,0.049 -1.2,0.23 -1.643,0.219 -2.091,0.212 -2.709,0.201 -2.796,0.056 -2.584,-0.621 c 0.364,-0.036 0.741,-0.073 1.168,-0.115 0.19,-1.258 0.369,-2.433 0.555,-3.658 0.22,0.016 0.395,0.027 0.668,0.047 -0.077,0.632 -0.156,1.197 -0.209,1.764 -0.057,0.591 -0.088,1.185 -0.135,1.846 0.596,0.107 1.201,0.089 1.813,-0.01 0.648,-0.105 0.742,0.013 0.561,0.746 C 1.236,-0.001 0.618,-0.005 0,0"
   style="fill:#231f20;fill-opacity:1;fill-rule:nonzero;stroke:none"
   id="path946"
   inkscape:connector-curvature="0" />
      </g>
      <g
   id="g948"
   transform="translate(181.4505,424.3525)">
        <path
   d="M 0,0 C 0.101,0.032 0.222,0.161 0.234,0.258 0.247,0.355 0.16,0.517 0.071,0.563 -0.072,0.638 -0.252,0.664 -0.418,0.672 -0.738,0.687 -1.06,0.674 -1.381,0.678 -1.943,0.685 -1.988,0.713 -2.172,1.225 -2.229,1.383 -2.263,1.554 -2.279,1.722 -2.342,2.336 -2.392,2.952 -2.45,3.567 -2.492,4.009 -2.548,4.041 -3.119,3.935 -3.28,2.681 -2.953,1.519 -2.764,0.344 c 0.052,-0.316 0.318,-0.376 0.589,-0.38 0.556,-0.006 1.113,-0.009 1.668,-0.007 C -0.337,-0.042 -0.157,-0.051 0,0"
   style="fill:#231f20;fill-opacity:1;fill-rule:nonzero;stroke:none"
   id="path950"
   inkscape:connector-curvature="0" />
      </g>
    </g>
  </g>
</svg>