<?xml version="1.0" encoding="UTF-8" standalone="no"?>
<svg
   xmlns:dc="http://purl.org/dc/elements/1.1/"
   xmlns:cc="http://creativecommons.org/ns#"
   xmlns:rdf="http://www.w3.org/1999/02/22-rdf-syntax-ns#"
   xmlns:svg="http://www.w3.org/2000/svg"
   xmlns="http://www.w3.org/2000/svg"
   xmlns:sodipodi="http://sodipodi.sourceforge.net/DTD/sodipodi-0.dtd"
   xmlns:inkscape="http://www.inkscape.org/namespaces/inkscape"
   viewBox="0 0 150.00001 14"
   width="100%"
   xml:space="preserve"
   id="svg2"
   version="1.1"
   sodipodi:docname="02-doing-alright.svg"
   inkscape:version="0.92.3 (unknown)"><sodipodi:namedview
   pagecolor="#ffffff"
   bordercolor="#666666"
   borderopacity="1"
   objecttolerance="10"
   gridtolerance="10"
   guidetolerance="10"
   inkscape:pageopacity="0"
   inkscape:pageshadow="2"
   inkscape:window-width="1920"
   inkscape:window-height="1031"
   id="namedview31"
   showgrid="false"
   inkscape:zoom="3.7780237"
   inkscape:cx="46.320515"
   inkscape:cy="4.7631083"
   inkscape:window-x="0"
   inkscape:window-y="27"
   inkscape:window-maximized="1"
   inkscape:current-layer="svg2" /><defs
   id="defs524" />
  
  <metadata
   id="metadata8">
    <rdf:RDF>
      <cc:Work
   rdf:about="">
        <dc:format>image/svg+xml</dc:format>
        <dc:type
   rdf:resource="http://purl.org/dc/dcmitype/StillImage" />
        <dc:title></dc:title>
      </cc:Work>
    </rdf:RDF>
  </metadata>
  <g
   id="g521"
   transform="matrix(1.333333,0,0,-1.333333,-153.79039,560.15)">
    <g
   id="g3345">
      <g
   id="g776"
   transform="translate(194.597,415.2134)">
        <path
   d="m 0,0 c -0.574,0.033 -1.154,0.02 -1.728,-0.032 -0.242,-0.022 -0.415,-0.233 -0.344,-0.523 0.077,-0.316 0.304,-0.304 0.557,-0.241 0.332,0.082 0.667,0.143 1.037,-0.029 -0.282,-1.06 -0.779,-1.379 -1.743,-1.167 -0.949,0.209 -1.425,0.915 -1.268,1.886 0.012,0.085 0.036,0.168 0.047,0.252 0.199,1.453 1.133,2.198 2.607,2.067 0.247,-0.021 0.43,0.016 0.47,0.295 C -0.328,2.766 -0.47,2.953 -0.76,2.982 -1.693,3.079 -2.536,2.902 -3.247,2.218 -4.083,1.414 -4.324,0.379 -4.379,-0.698 -4.41,-1.31 -4.097,-1.839 -3.558,-2.21 c 0.609,-0.419 1.311,-0.536 2.007,-0.598 0.432,-0.039 0.93,0.033 1.237,0.41 0.43,0.529 0.607,1.175 0.649,1.849 C 0.351,-0.312 0.272,-0.016 0,0"
   style="fill:#231f20;fill-opacity:1;fill-rule:nonzero;stroke:none"
   id="path778"
   inkscape:connector-curvature="0" />
      </g>
      <g
   id="g780"
   transform="translate(164.4857,415.4609)">
        <path
   d="m 0,0 c -0.15,-0.002 -0.302,0.012 -0.45,-0.007 -0.37,-0.046 -0.423,-0.137 -0.392,-0.703 0.188,0 0.335,0.002 0.483,0 0.149,-0.004 0.301,0.004 0.448,-0.021 0.511,-0.086 0.733,-0.463 0.569,-0.945 -0.112,-0.328 -0.47,-0.632 -0.828,-0.587 -0.61,0.077 -1.221,0.193 -1.814,0.354 -0.477,0.13 -0.704,0.449 -0.682,1.007 0.027,0.763 0.367,1.316 0.942,1.738 0.617,0.454 1.19,0.991 1.989,1.141 C 0.469,2.015 0.718,2.127 0.65,2.4 0.581,2.674 0.338,2.73 0.08,2.668 -0.229,2.594 -0.554,2.549 -0.842,2.422 -1.705,2.043 -2.354,1.376 -2.956,0.683 -3.191,0.412 -3.313,0.005 -3.384,-0.36 -3.455,-0.732 -3.399,-1.129 -3.4,-1.516 c -10e-4,-0.404 0.191,-0.669 0.541,-0.875 0.59,-0.349 1.254,-0.428 1.904,-0.53 0.438,-0.07 0.901,-0.045 1.348,-0.002 0.588,0.056 0.876,0.399 0.992,1.229 C 1.549,-0.529 1.35,0.02 0,0"
   style="fill:#231f20;fill-opacity:1;fill-rule:nonzero;stroke:none"
   id="path782"
   inkscape:connector-curvature="0" />
      </g>
      <g
   id="g784"
   transform="translate(181.6292,417.2427)">
        <path
   d="M 0,0 C 0.165,0.192 0.421,0.257 0.628,0.098 0.814,-0.045 0.796,-0.288 0.673,-0.481 0.491,-0.768 0.253,-0.996 -0.145,-1.132 -0.338,-0.663 -0.262,-0.307 0,0 m -1.097,-0.573 c -0.082,-1.209 0.223,-2.371 0.391,-3.55 0.004,-0.021 0.006,-0.042 0.012,-0.063 0.117,-0.374 0.187,-0.399 0.716,-0.224 -0.041,0.53 -0.083,1.075 -0.125,1.619 0.044,0.034 0.088,0.066 0.133,0.1 0.159,-0.124 0.331,-0.235 0.476,-0.374 0.475,-0.463 0.941,-0.936 1.411,-1.405 0.091,-0.091 0.168,-0.222 0.277,-0.261 0.164,-0.057 0.35,-0.048 0.526,-0.067 0,0.181 0.044,0.377 -0.013,0.537 -0.054,0.15 -0.208,0.266 -0.328,0.388 -0.48,0.49 -0.971,0.968 -1.441,1.466 -0.427,0.455 -0.402,0.728 0.126,1.081 0.364,0.243 0.524,0.545 0.486,0.97 C 1.539,-0.228 1.552,-0.099 1.548,0.03 1.532,0.582 1.308,0.844 0.764,0.948 -0.234,1.139 -1.026,0.476 -1.097,-0.573"
   style="fill:#231f20;fill-opacity:1;fill-rule:nonzero;stroke:none"
   id="path786"
   inkscape:connector-curvature="0" />
      </g>
      <g
   id="g788"
   transform="translate(143.2992,415.3872)">
        <path
   d="m 0,0 c 0.622,0.24 1.349,0.203 1.991,-0.114 0.103,-0.05 0.18,-0.231 0.196,-0.361 0.029,-0.253 0.008,-0.512 0.008,-0.768 h 0.001 c 0,-0.236 -0.002,-0.47 0,-0.706 C 2.2,-2.323 1.991,-2.607 1.664,-2.659 1.039,-2.758 0.394,-2.847 -0.183,-2.421 -0.961,-1.845 -0.899,-0.347 0,0 m -1.448,-1.12 c -0.055,-0.608 0.02,-1.164 0.476,-1.661 0.535,-0.581 1.16,-0.761 1.825,-0.686 0.335,0 0.593,-0.016 0.848,0.004 0.726,0.054 1.169,0.502 1.247,1.228 0.036,0.338 0.074,0.676 0.131,1.011 C 3.272,-0.094 2.788,0.591 1.673,0.783 1.257,0.854 0.852,0.983 0.437,1.066 0.303,1.094 0.136,1.103 0.018,1.047 -0.898,0.619 -1.359,-0.133 -1.448,-1.12"
   style="fill:#231f20;fill-opacity:1;fill-rule:nonzero;stroke:none"
   id="path790"
   inkscape:connector-curvature="0" />
      </g>
      <g
   id="g792"
   transform="translate(196.432,412.853)">
        <path
   d="M 0,0 C 0.05,-0.114 0.235,-0.277 0.301,-0.253 0.458,-0.195 0.612,-0.062 0.704,0.083 0.759,0.168 0.686,0.33 0.683,0.458 0.671,0.951 0.659,1.443 0.656,1.936 0.655,2.176 0.762,2.379 1.016,2.39 1.542,2.412 2.075,2.487 2.656,2.309 2.656,2.038 2.648,1.784 2.658,1.531 2.668,1.254 2.665,0.972 2.718,0.702 2.8,0.282 2.821,0.284 3.363,0.385 3.376,0.46 3.401,0.543 3.401,0.626 3.405,2.127 3.406,3.629 3.404,5.131 3.404,5.237 3.417,5.368 3.362,5.443 3.284,5.552 3.159,5.667 3.037,5.69 2.963,5.703 2.803,5.56 2.778,5.462 2.71,5.196 2.672,4.917 2.661,4.641 2.644,4.177 2.656,3.711 2.656,3.207 H 0.685 C 0.666,3.504 0.643,3.776 0.632,4.049 0.62,4.349 0.633,4.65 0.612,4.95 0.579,5.434 0.475,5.592 0.222,5.556 -0.164,5.5 -0.067,5.177 -0.069,4.945 -0.08,3.465 -0.076,1.984 -0.071,0.504 -0.07,0.334 -0.066,0.15 0,0"
   style="fill:#231f20;fill-opacity:1;fill-rule:nonzero;stroke:none"
   id="path794"
   inkscape:connector-curvature="0" />
      </g>
      <g
   id="g796"
   transform="translate(138.1029,415.46)">
        <path
   d="M 0,0 C 0.005,0.321 0.158,0.418 0.466,0.354 0.653,0.316 0.833,0.24 1.014,0.171 1.675,-0.08 1.68,-0.089 1.683,-0.807 1.685,-1.171 1.69,-1.535 1.682,-1.899 1.657,-2.946 1.143,-3.399 -0.007,-3.306 -0.007,-2.177 -0.018,-1.088 0,0 m -0.719,0.541 c -0.01,-1.393 -0.005,-2.785 0,-4.177 0,-0.121 0.035,-0.243 0.063,-0.422 0.451,0 0.875,-0.007 1.299,10e-4 1.004,0.021 1.686,0.701 1.705,1.703 0.01,0.621 0.002,1.242 0.002,1.863 C 2.349,0.456 2.211,0.642 1.307,0.924 1.184,0.962 1.061,1.028 0.937,1.029 0.475,1.034 0.12,1.226 -0.146,1.675 -0.648,1.391 -0.716,0.97 -0.719,0.541"
   style="fill:#231f20;fill-opacity:1;fill-rule:nonzero;stroke:none"
   id="path798"
   inkscape:connector-curvature="0" />
      </g>
      <g
   id="g800"
   transform="translate(152.1068,416.3638)">
        <path
   d="M 0,0 C -0.379,0 -0.718,0.01 -1.056,-0.002 -1.425,-0.016 -1.714,0.09 -1.947,0.4 -2.076,0.571 -2.294,0.674 -2.51,0.836 -2.588,0.723 -2.642,0.675 -2.657,0.618 -2.771,0.19 -3.08,0.127 -3.456,0.17 c -0.275,0.031 -0.552,0.058 -0.828,0.077 -0.163,0.011 -0.328,0.002 -0.482,0.002 -0.094,-0.645 -0.043,-0.731 0.492,-0.74 0.494,-0.008 0.99,0.021 1.443,-0.225 0.106,-0.057 0.258,-0.136 0.278,-0.229 0.139,-0.641 0.33,-1.285 0.098,-2.035 -0.381,0 -0.765,0.027 -1.141,-0.015 -0.129,-0.015 -0.238,-0.202 -0.357,-0.31 0.109,-0.116 0.208,-0.319 0.33,-0.334 0.613,-0.076 1.232,-0.138 1.85,-0.14 0.66,-0.002 1.321,0.071 1.982,0.104 0.229,0.011 0.46,0.002 0.679,0.002 0.088,0.621 0.059,0.67 -0.396,0.704 -0.192,0.015 -0.387,0.004 -0.58,0.005 -0.485,0.002 -0.971,0.005 -1.48,0.007 -0.057,0.766 -0.107,1.442 -0.167,2.251 H 0 Z"
   style="fill:#231f20;fill-opacity:1;fill-rule:nonzero;stroke:none"
   id="path802"
   inkscape:connector-curvature="0" />
      </g>
      <g
   id="g804"
   transform="translate(158.5941,417.0972)">
        <path
   d="m 0,0 c -0.134,-1.074 -0.258,-2.077 -0.396,-3.191 -0.229,0.182 -0.373,0.268 -0.481,0.387 -0.475,0.521 -0.919,1.072 -1.416,1.571 -0.251,0.251 -0.565,0.473 -0.894,0.605 -0.492,0.197 -0.791,-0.03 -0.801,-0.559 -0.016,-0.729 -0.025,-1.459 0.007,-2.188 0.012,-0.292 0.118,-0.585 0.214,-0.867 0.098,-0.284 0.303,-0.395 0.646,-0.244 0.118,0.946 -0.359,1.914 0.015,2.971 0.351,-0.368 0.647,-0.67 0.935,-0.979 0.451,-0.485 0.875,-1.001 1.354,-1.457 0.468,-0.446 0.957,-0.316 1.087,0.308 0.167,0.812 0.255,1.642 0.346,2.468 0.041,0.376 0.007,0.761 0.007,1.175 z"
   style="fill:#231f20;fill-opacity:1;fill-rule:nonzero;stroke:none"
   id="path806"
   inkscape:connector-curvature="0" />
      </g>
      <g
   id="g808"
   transform="translate(173.2621,415.2622)">
        <path
   d="M 0,0 C -0.044,-0.118 -0.327,-0.147 -0.552,-0.237 -0.72,0.354 -0.47,0.675 -0.218,1.084 0.076,0.721 0.132,0.355 0,0 m -0.911,1.715 c -0.438,-1.208 -0.86,-2.421 -1.274,-3.638 -0.077,-0.229 -0.08,-0.484 -0.117,-0.731 0.358,-0.136 0.563,-0.099 0.686,0.215 0.132,0.339 0.29,0.668 0.429,1.005 0.214,0.517 0.35,0.587 1.013,0.505 0.459,-0.057 0.504,-0.129 0.622,-0.664 0.073,-0.329 0.175,-0.663 0.331,-0.96 0.122,-0.233 0.419,-0.183 0.479,0.078 0.055,0.243 0.024,0.506 0.017,0.76 -0.006,0.296 -0.081,0.6 -0.033,0.885 0.059,0.345 0.064,0.622 -0.237,0.863 C 0.902,0.115 0.852,0.287 0.82,0.428 0.717,0.908 0.651,1.396 0.534,1.873 0.446,2.232 0.42,2.653 -0.03,2.791 -0.534,2.586 -0.75,2.162 -0.911,1.715"
   style="fill:#231f20;fill-opacity:1;fill-rule:nonzero;stroke:none"
   id="path810"
   inkscape:connector-curvature="0" />
      </g>
      <g
   id="g812"
   transform="translate(187.474,417.1543)">
        <path
   d="M 0,0 C 0.278,-0.002 0.557,0.003 0.835,0.003 1.087,0.002 1.307,0.051 1.392,0.371 1.318,0.447 1.242,0.605 1.148,0.615 0.413,0.696 -0.324,0.778 -1.062,0.798 -1.505,0.809 -1.949,0.709 -2.393,0.654 -2.451,0.647 -2.507,0.607 -2.59,0.57 c 0.007,-0.162 0.015,-0.325 0.027,-0.571 0.377,0 0.675,0.002 0.973,-0.001 0.208,-0.002 0.393,-0.06 0.432,-0.295 0.182,-1.073 0.36,-2.146 0.534,-3.22 0.048,-0.292 -0.088,-0.442 -0.388,-0.452 -0.191,-0.006 -0.39,-0.002 -0.57,-0.057 -0.097,-0.029 -0.218,-0.17 -0.221,-0.264 -0.002,-0.097 0.105,-0.232 0.2,-0.287 0.102,-0.059 0.248,-0.054 0.374,-0.056 0.407,-0.007 0.815,-0.026 1.219,0.003 0.424,0.031 0.847,0.096 1.263,0.182 0.113,0.023 0.294,0.197 0.278,0.266 -0.03,0.139 -0.153,0.283 -0.277,0.369 -0.093,0.064 -0.246,0.047 -0.373,0.057 -0.535,0.041 -0.603,0.109 -0.663,0.641 -0.025,0.21 -0.017,0.451 -0.12,0.618 -0.392,0.633 -0.313,1.365 -0.473,2.044 C -0.441,-0.174 -0.312,0.001 0,0"
   style="fill:#231f20;fill-opacity:1;fill-rule:nonzero;stroke:none"
   id="path814"
   inkscape:connector-curvature="0" />
      </g>
      <g
   id="g816"
   transform="translate(201.6947,417.5386)">
        <path
   d="m 0,0 c 0.29,0.042 0.536,0.075 0.78,0.113 0.518,0.081 0.671,0.012 0.772,-0.496 0.136,-0.69 0.216,-1.391 0.319,-2.088 0.092,-0.626 0.184,-1.252 0.275,-1.874 0.604,0.075 0.63,0.088 0.632,0.579 0.004,1.119 -0.213,2.21 -0.434,3.3 C 2.236,0.058 2.277,0.122 2.83,0.131 3.431,0.142 4.031,0.126 4.632,0.139 5.205,0.15 5.268,0.265 5.044,0.884 3.517,0.884 1.975,0.892 0.432,0.878 -0.022,0.875 -0.083,0.743 0,0"
   style="fill:#231f20;fill-opacity:1;fill-rule:nonzero;stroke:none"
   id="path818"
   inkscape:connector-curvature="0" />
      </g>
      <g
   id="g820"
   transform="translate(177.0658,413.4111)">
        <path
   d="m 0,0 c -0.021,0.333 -0.051,0.606 -0.053,0.878 -0.008,0.923 0,1.846 -0.009,2.769 -0.003,0.188 -0.035,0.382 -0.095,0.56 C -0.184,4.282 -0.32,4.366 -0.403,4.362 -0.487,4.358 -0.621,4.263 -0.638,4.187 -0.701,3.896 -0.758,3.597 -0.762,3.3 -0.775,2.228 -0.772,1.154 -0.764,0.082 c 0.002,-0.251 0.052,-0.502 0.085,-0.8 0.687,0 1.329,-0.018 1.969,0.007 0.407,0.015 0.47,0.144 0.403,0.711 z"
   style="fill:#231f20;fill-opacity:1;fill-rule:nonzero;stroke:none"
   id="path822"
   inkscape:connector-curvature="0" />
      </g>
    </g>
  </g>
</svg>