<?xml version="1.0" encoding="UTF-8" standalone="no"?>
<svg
   xmlns:dc="http://purl.org/dc/elements/1.1/"
   xmlns:cc="http://creativecommons.org/ns#"
   xmlns:rdf="http://www.w3.org/1999/02/22-rdf-syntax-ns#"
   xmlns:svg="http://www.w3.org/2000/svg"
   xmlns="http://www.w3.org/2000/svg"
   xmlns:sodipodi="http://sodipodi.sourceforge.net/DTD/sodipodi-0.dtd"
   xmlns:inkscape="http://www.inkscape.org/namespaces/inkscape"
   viewBox="0 0 150 14"
   width="100%"
   xml:space="preserve"
   id="svg2"
   version="1.1"
   sodipodi:docname="03-rubia.svg"
   inkscape:version="0.92.3 (unknown)"><sodipodi:namedview
   pagecolor="#ffffff"
   bordercolor="#666666"
   borderopacity="1"
   objecttolerance="10"
   gridtolerance="10"
   guidetolerance="10"
   inkscape:pageopacity="0"
   inkscape:pageshadow="2"
   inkscape:window-width="1920"
   inkscape:window-height="1031"
   id="namedview48"
   showgrid="false"
   inkscape:zoom="4.9490565"
   inkscape:cx="-11.672893"
   inkscape:cy="-10.744304"
   inkscape:window-x="0"
   inkscape:window-y="27"
   inkscape:window-maximized="1"
   inkscape:current-layer="svg2" /><defs
   id="defs426" />
  
  <metadata
   id="metadata8">
    <rdf:RDF>
      <cc:Work
   rdf:about="">
        <dc:format>image/svg+xml</dc:format>
        <dc:type
   rdf:resource="http://purl.org/dc/dcmitype/StillImage" />
        <dc:title></dc:title>
      </cc:Work>
    </rdf:RDF>
  </metadata>
  <g
   id="g423"
   transform="matrix(1.333333,0,0,-1.333333,-154.4265,547.08722)">
    <g
   id="g3357">
      <g
   id="g672"
   transform="translate(171.098,404.019)">
        <path
   d="M 0,0 C 0.016,0.562 0.146,0.666 0.707,0.564 1.407,0.437 1.67,0.077 1.554,-0.599 1.478,-1.047 0.812,-1.529 0.349,-1.461 0.144,-1.431 -0.009,-1.333 0,-1.086 c 0.007,0.212 0.001,0.425 0.001,0.639 H -0.001 C -0.001,-0.298 -0.005,-0.149 0,0 M 0.039,2.997 C 0.591,2.997 1.017,3.018 1.44,2.992 2.006,2.957 2.14,2.681 1.865,2.179 1.62,1.729 0.793,1.35 0.321,1.501 0.207,1.538 0.062,1.69 0.052,1.801 0.019,2.171 0.039,2.547 0.039,2.997 m -0.375,-5.2 c 0.398,-0.041 0.82,-0.051 1.207,0.036 0.871,0.195 1.402,0.866 1.39,1.758 C 2.255,0.045 2.118,0.498 2.041,0.951 1.985,0.997 1.931,1.043 1.875,1.09 2.017,1.187 2.175,1.267 2.297,1.385 2.634,1.71 2.805,2.119 2.829,2.585 2.868,3.339 2.556,3.701 1.793,3.746 1.366,3.771 0.936,3.778 0.511,3.743 -0.47,3.664 -0.644,3.437 -0.673,2.458 c -0.041,-1.342 0.134,-2.69 -0.129,-4.028 -0.071,-0.363 0.096,-0.596 0.466,-0.633"
   style="fill:#231f20;fill-opacity:1;fill-rule:nonzero;stroke:none"
   id="path674"
   inkscape:connector-curvature="0" />
      </g>
      <g
   id="g676"
   transform="translate(159.7113,405.0732)">
        <path
   d="M 0,0 C -0.136,0.542 -0.098,1.079 -0.017,1.699 H 1.111 C 1.292,1.003 0.76,0.165 0,0 M 1.951,1.967 C 1.876,2.384 1.784,2.469 1.358,2.479 0.888,2.491 0.415,2.503 -0.054,2.475 -0.596,2.442 -0.809,2.19 -0.834,1.673 c -0.071,-1.433 0.067,-2.852 0.263,-4.269 0.042,-0.312 0.217,-0.438 0.591,-0.409 0.037,0.219 0.09,0.441 0.108,0.665 0.018,0.247 0.004,0.497 0.004,0.746 0.059,0.02 0.119,0.04 0.179,0.061 0.161,-0.133 0.317,-0.272 0.484,-0.395 0.464,-0.343 0.929,-0.685 1.402,-1.015 0.2,-0.14 0.412,-0.13 0.566,0.082 0.162,0.225 0.054,0.404 -0.136,0.547 -0.395,0.294 -0.783,0.597 -1.19,0.873 -0.754,0.512 -0.786,0.661 -0.151,1.3 0.59,0.593 0.812,1.291 0.665,2.108"
   style="fill:#231f20;fill-opacity:1;fill-rule:nonzero;stroke:none"
   id="path678"
   inkscape:connector-curvature="0" />
      </g>
      <g
   id="g680"
   transform="translate(182.5736,405.3555)">
        <path
   d="M 0,0 C 0.011,0.68 0.094,1.308 0.473,1.982 1.192,1.503 1.341,0.837 1.477,0.118 0.988,-0.076 0.531,-0.018 0,0 M 0.586,2.704 C 0.047,2.752 -0.349,2.415 -0.491,1.812 c -0.183,-0.77 -0.397,-1.538 -0.495,-2.32 -0.082,-0.648 -0.017,-1.314 -0.017,-1.969 0.506,-0.081 0.641,-0.009 0.682,0.387 0.026,0.255 -0.018,0.52 0.03,0.769 0.027,0.139 0.156,0.334 0.276,0.366 0.39,0.105 0.794,0.18 1.197,0.204 0.439,0.025 0.62,-0.138 0.706,-0.572 0.046,-0.23 0.014,-0.474 0.059,-0.703 C 2.029,-2.443 2.13,-2.864 2.805,-2.996 2.734,-1.999 2.716,-1.087 2.586,-0.191 2.521,0.258 2.286,0.695 2.068,1.106 1.819,1.574 1.53,2.027 1.203,2.442 1.079,2.598 0.802,2.685 0.586,2.704"
   style="fill:#231f20;fill-opacity:1;fill-rule:nonzero;stroke:none"
   id="path682"
   inkscape:connector-curvature="0" />
      </g>
      <g
   id="g684"
   transform="translate(166.9212,403.1626)">
        <path
   d="m 0,0 c -0.111,-0.253 -0.309,-0.388 -0.598,-0.415 -0.676,-0.062 -1.125,0.225 -1.251,0.909 -0.108,0.586 -0.147,1.186 -0.199,1.781 -0.025,0.298 0.004,0.6 -0.013,0.9 C -2.078,3.491 -2.2,3.764 -2.502,3.907 -2.607,3.957 -2.796,4.002 -2.85,3.95 -2.936,3.866 -3.007,3.675 -2.97,3.571 -2.754,2.966 -2.853,2.34 -2.791,1.727 c 0.061,-0.613 0.169,-1.231 0.344,-1.821 0.211,-0.713 1.072,-1.282 1.775,-1.265 0.669,0.015 1.188,0.44 1.477,1.227 C 1.162,0.843 1.211,1.869 1.321,2.921 1.286,3.253 1.255,3.615 1.209,3.975 1.175,4.241 1.041,4.429 0.742,4.376 0.43,4.322 0.392,4.073 0.459,3.83 0.75,2.77 0.331,1.757 0.258,0.722 0.24,0.476 0.103,0.234 0,0"
   style="fill:#231f20;fill-opacity:1;fill-rule:nonzero;stroke:none"
   id="path686"
   inkscape:connector-curvature="0" />
      </g>
      <g
   id="g688"
   transform="translate(178.4603,406.2549)">
        <path
   d="M 0,0 C 0.292,0.034 0.59,0.101 0.86,0.213 0.981,0.263 1.109,0.456 1.116,0.59 1.128,0.824 0.916,0.911 0.711,0.901 0.479,0.891 0.248,0.836 0.018,0.799 -0.455,0.723 -0.925,0.627 -1.235,1.153 -1.338,1.328 -1.566,1.368 -1.665,1.195 -1.945,0.708 -2.32,0.727 -2.764,0.897 -2.855,0.933 -2.973,0.903 -3.07,0.903 -3.245,0.204 -3.175,0.148 -1.854,-0.08 c 0.033,-0.086 0.1,-0.183 0.102,-0.282 0.014,-0.728 0.023,-1.456 0.018,-2.184 -0.002,-0.29 -0.18,-0.392 -0.463,-0.41 -0.315,-0.021 -0.634,-0.074 -0.935,-0.165 -0.102,-0.031 -0.226,-0.233 -0.211,-0.336 0.015,-0.102 0.189,-0.245 0.305,-0.256 0.636,-0.065 1.275,-0.132 1.913,-0.128 0.639,0.004 1.275,0.098 1.913,0.136 0.242,0.015 0.42,0.061 0.433,0.35 0.013,0.315 -0.157,0.41 -0.44,0.406 -0.385,-0.007 -0.771,-0.005 -1.157,10e-4 -0.586,0.008 -0.651,0.068 -0.669,0.671 -0.013,0.45 -0.014,0.901 0,1.35 0.009,0.292 0.053,0.582 0.086,0.919 0.365,0 0.666,-0.027 0.959,0.008"
   style="fill:#231f20;fill-opacity:1;fill-rule:nonzero;stroke:none"
   id="path690"
   inkscape:connector-curvature="0" />
      </g>
    </g>
  </g>
</svg>