<?xml version="1.0" encoding="UTF-8" standalone="no"?>
<svg
   xmlns:dc="http://purl.org/dc/elements/1.1/"
   xmlns:cc="http://creativecommons.org/ns#"
   xmlns:rdf="http://www.w3.org/1999/02/22-rdf-syntax-ns#"
   xmlns:svg="http://www.w3.org/2000/svg"
   xmlns="http://www.w3.org/2000/svg"
   xmlns:sodipodi="http://sodipodi.sourceforge.net/DTD/sodipodi-0.dtd"
   xmlns:inkscape="http://www.inkscape.org/namespaces/inkscape"
   viewBox="0 0 150.00001 14"
   width="100%"
   xml:space="preserve"
   id="svg2"
   version="1.1"
   sodipodi:docname="04-letter.svg"
   inkscape:version="0.92.3 (unknown)"><sodipodi:namedview
   pagecolor="#ffffff"
   bordercolor="#666666"
   borderopacity="1"
   objecttolerance="10"
   gridtolerance="10"
   guidetolerance="10"
   inkscape:pageopacity="0"
   inkscape:pageshadow="2"
   inkscape:window-width="1920"
   inkscape:window-height="1031"
   id="namedview67"
   showgrid="false"
   inkscape:zoom="6.0344325"
   inkscape:cx="22.641895"
   inkscape:cy="-5.5108924"
   inkscape:window-x="0"
   inkscape:window-y="27"
   inkscape:window-maximized="1"
   inkscape:current-layer="svg2" /><defs
   id="defs492" />
  
  <metadata
   id="metadata8">
    <rdf:RDF>
      <cc:Work
   rdf:about="">
        <dc:format>image/svg+xml</dc:format>
        <dc:type
   rdf:resource="http://purl.org/dc/dcmitype/StillImage" />
        <dc:title></dc:title>
      </cc:Work>
    </rdf:RDF>
  </metadata>
  <g
   id="g489"
   transform="matrix(1.333333,0,0,-1.333333,-155.95588,534.82239)">
    <g
   id="g3371">
      <g
   id="g752"
   transform="translate(185.6439,397.4043)">
        <path
   d="M 0,0 C -0.143,-0.697 -0.473,-0.963 -1.187,-0.927 -1.329,0.032 -1.065,0.226 0,0 M -1.495,0.926 C -1.92,1.022 -2.025,0.912 -2.099,0.49 -2.15,0.196 -2.219,-0.096 -2.271,-0.39 c -0.034,-0.188 -0.1,-0.386 -0.069,-0.567 0.122,-0.715 0.278,-1.424 0.42,-2.136 0.05,-0.25 0.135,-0.465 0.445,-0.439 0.35,0.028 0.378,0.282 0.385,0.556 0.007,0.269 0.029,0.537 0.045,0.801 0.424,0.106 0.623,-0.126 0.846,-0.324 0.431,-0.383 0.861,-0.771 1.316,-1.124 0.168,-0.13 0.408,-0.166 0.641,-0.253 0.204,0.493 0.064,0.726 -0.237,0.943 -0.396,0.288 -0.778,0.602 -1.133,0.939 -0.317,0.3 -0.339,0.477 -0.041,0.761 0.423,0.402 0.471,0.879 0.458,1.409 -0.01,0.353 -0.18,0.588 -0.481,0.687 -0.254,0.083 -0.546,0.118 -0.809,0.084 -0.34,-0.043 -0.66,-0.1 -1.01,-0.021"
   style="fill:#231f20;fill-opacity:1;fill-rule:nonzero;stroke:none"
   id="path754"
   inkscape:connector-curvature="0" />
      </g>
      <g
   id="g756"
   transform="translate(180.0081,398.4326)">
        <path
   d="m 0,0 c -0.593,-0.035 -0.968,-0.448 -0.972,-1.048 -0.006,-1.007 -0.004,-2.014 0.001,-3.021 0.001,-0.162 0.036,-0.325 0.056,-0.488 h 2.783 c 0.073,0.58 0.059,0.611 -0.422,0.622 -0.528,0.012 -1.056,0.003 -1.633,0.003 v 1.152 h 1.863 c 0.009,0.624 -0.043,0.703 -0.524,0.731 -0.439,0.026 -0.881,0.018 -1.354,0.026 v 1.252 c 0.651,0.022 1.279,0.044 1.892,0.065 0.121,0.594 0.073,0.685 -0.406,0.708 C 0.856,0.021 0.427,0.025 0,0"
   style="fill:#231f20;fill-opacity:1;fill-rule:nonzero;stroke:none"
   id="path758"
   inkscape:connector-curvature="0" />
      </g>
      <g
   id="g760"
   transform="translate(165.7425,397.1919)">
        <path
   d="m 0,0 c -0.013,0.516 -0.143,0.723 -0.615,0.752 -0.762,0.047 -1.53,0.013 -2.284,0.013 -0.141,-0.776 -0.112,-3.849 0.051,-4.374 0.825,0.13 1.645,-0.324 2.557,-0.078 -0.021,0.207 -0.039,0.384 -0.058,0.565 -0.583,0.095 -1.11,0.167 -1.63,0.274 -0.118,0.024 -0.264,0.152 -0.305,0.265 -0.146,0.407 0.035,0.65 0.483,0.662 0.529,0.014 1.059,0.003 1.583,0.003 0.016,0.59 -0.047,0.688 -0.463,0.724 C -0.937,-1.172 -1.196,-1.2 -1.452,-1.182 -2.285,-1.123 -2.517,-0.7 -2.115,0.139 -1.43,0.094 -0.716,0.047 0,0"
   style="fill:#231f20;fill-opacity:1;fill-rule:nonzero;stroke:none"
   id="path762"
   inkscape:connector-curvature="0" />
      </g>
      <g
   id="g764"
   transform="translate(159.5423,393.2422)">
        <path
   d="M 0,0 C 0.204,0.007 0.433,0.063 0.6,0.174 0.842,0.334 0.755,0.695 0.469,0.768 0.352,0.797 0.217,0.761 0.091,0.758 -0.443,0.744 -0.979,0.715 -1.513,0.723 -1.971,0.729 -2.041,0.792 -2.035,1.25 c 0.013,0.896 0.06,1.791 0.089,2.686 0.005,0.143 -0.017,0.286 -0.025,0.423 C -2.568,4.405 -2.764,4.279 -2.78,3.729 -2.811,2.768 -2.813,1.803 -2.777,0.841 -2.757,0.271 -2.431,0.003 -1.861,-0.006 -1.24,-0.017 -0.619,-0.022 0,0"
   style="fill:#231f20;fill-opacity:1;fill-rule:nonzero;stroke:none"
   id="path766"
   inkscape:connector-curvature="0" />
      </g>
      <g
   id="g768"
   transform="translate(176.7298,397.6284)">
        <path
   d="M 0,0 C -0.103,0.028 -0.213,0.029 -0.314,0.057 -1.179,0.293 -2.062,0.208 -2.938,0.21 -3.08,0.21 -3.222,0.159 -3.38,0.128 v -0.512 c 0.112,-0.029 0.172,-0.053 0.234,-0.057 0.981,-0.083 1.051,-0.145 1.183,-1.116 0.024,-0.169 0.015,-0.343 0.016,-0.514 0.002,-0.387 -0.008,-0.773 0.004,-1.159 0.013,-0.483 0.165,-0.733 0.406,-0.676 0.373,0.088 0.325,0.394 0.314,0.675 -0.031,0.849 -0.06,1.697 -0.091,2.578 0.111,0 0.253,0.005 0.395,-0.001 0.278,-0.012 0.556,-0.032 0.833,-0.045 0.195,-0.009 0.337,0.062 0.372,0.27 C 0.325,-0.198 0.217,-0.059 0,0"
   style="fill:#231f20;fill-opacity:1;fill-rule:nonzero;stroke:none"
   id="path770"
   inkscape:connector-curvature="0" />
      </g>
      <g
   id="g772"
   transform="translate(167.9955,397.791)">
        <path
   d="M 0,0 C -0.126,-0.02 -0.296,-0.183 -0.325,-0.308 -0.376,-0.523 -0.175,-0.581 0.006,-0.6 0.3,-0.631 0.595,-0.657 0.991,-0.695 v -0.789 c 0.001,-0.664 -0.01,-1.329 0.008,-1.994 0.011,-0.402 0.198,-0.636 0.438,-0.589 0.312,0.06 0.286,0.329 0.303,0.56 0.01,0.128 0.003,0.257 0.003,0.385 10e-4,0.643 -0.011,1.287 0.005,1.93 0.012,0.449 0.157,0.571 0.598,0.541 0.234,-0.016 0.469,-0.086 0.7,-0.07 0.116,0.008 0.309,0.146 0.315,0.237 0.01,0.135 -0.086,0.307 -0.189,0.412 C 3.094,0.006 2.936,0.021 2.811,0.032 2.342,0.073 1.872,0.13 1.403,0.126 0.935,0.122 0.464,0.073 0,0"
   style="fill:#231f20;fill-opacity:1;fill-rule:nonzero;stroke:none"
   id="path774"
   inkscape:connector-curvature="0" />
      </g>
    </g>
  </g>
</svg>