<?xml version="1.0" encoding="UTF-8" standalone="no"?>
<svg
   xmlns:dc="http://purl.org/dc/elements/1.1/"
   xmlns:cc="http://creativecommons.org/ns#"
   xmlns:rdf="http://www.w3.org/1999/02/22-rdf-syntax-ns#"
   xmlns:svg="http://www.w3.org/2000/svg"
   xmlns="http://www.w3.org/2000/svg"
   xmlns:sodipodi="http://sodipodi.sourceforge.net/DTD/sodipodi-0.dtd"
   xmlns:inkscape="http://www.inkscape.org/namespaces/inkscape"
   viewBox="0 0 149.99999 14"
   width="100%"
   xml:space="preserve"
   id="svg2"
   version="1.1"
   sodipodi:docname="05-bolero-maurice-ravel.svg"
   inkscape:version="0.92.3 (unknown)"><sodipodi:namedview
   pagecolor="#ffffff"
   bordercolor="#666666"
   borderopacity="1"
   objecttolerance="10"
   gridtolerance="10"
   guidetolerance="10"
   inkscape:pageopacity="0"
   inkscape:pageshadow="2"
   inkscape:window-width="1920"
   inkscape:window-height="1031"
   id="namedview114"
   showgrid="false"
   inkscape:zoom="2.6949854"
   inkscape:cx="50.093036"
   inkscape:cy="5.8814573"
   inkscape:window-x="0"
   inkscape:window-y="27"
   inkscape:window-maximized="1"
   inkscape:current-layer="svg2" /><defs
   id="defs572" />
  
  <metadata
   id="metadata8">
    <rdf:RDF>
      <cc:Work
   rdf:about="">
        <dc:format>image/svg+xml</dc:format>
        <dc:type
   rdf:resource="http://purl.org/dc/dcmitype/StillImage" />
        <dc:title></dc:title>
      </cc:Work>
    </rdf:RDF>
  </metadata>
  <g
   id="g569"
   transform="matrix(1.333333,0,0,-1.333333,-153.4243,520.97988)">
    <g
   id="g3413">
      <g
   id="g824"
   transform="translate(125.2083,385.8306)">
        <path
   d="M 0,0 C 0.283,-0.071 0.556,-0.186 0.89,-0.3 0.531,-0.979 -0.207,-1.333 -1.012,-1.259 -1.022,-1.1 -1.052,-0.933 -1.041,-0.768 -0.997,-0.042 -0.704,0.178 0,0 m -0.846,-3.591 c -0.024,0.069 -0.076,0.147 -0.077,0.226 -0.005,0.276 0.009,0.552 0.019,0.947 0.6,-0.015 1.141,-0.028 1.685,-0.041 0.236,-0.965 -0.358,-1.385 -1.627,-1.132 M -1.123,-4.37 c 0.428,-0.028 0.858,-0.041 1.287,-0.036 0.799,0.01 1.379,0.539 1.474,1.329 0.072,0.602 0.022,1.163 -0.611,1.515 0.12,0.128 0.189,0.207 0.262,0.279 C 1.9,-0.679 1.822,-0.044 1.114,0.418 0.571,0.772 -0.048,0.874 -0.614,0.71 -1.49,0.456 -1.801,0.396 -1.791,-0.682 c 0.009,-1.047 0.053,-2.093 0.102,-3.139 0.018,-0.395 0.164,-0.523 0.566,-0.549"
   style="fill:#231f20;fill-opacity:1;fill-rule:nonzero;stroke:none"
   id="path826"
   inkscape:connector-curvature="0" />
      </g>
      <g
   id="g828"
   transform="translate(162.3841,386.9341)">
        <path
   d="m 0,0 c -0.295,0.057 -0.56,0.005 -0.748,-0.246 -0.103,-0.135 -0.182,-0.29 -0.27,-0.436 -0.213,-0.36 -0.427,-0.72 -0.714,-1.202 -0.145,0.342 -0.239,0.567 -0.332,0.792 -0.116,0.276 -0.203,0.569 -0.352,0.824 -0.171,0.291 -0.477,0.295 -0.686,0.035 -0.078,-0.099 -0.136,-0.22 -0.177,-0.339 -0.325,-0.952 -0.656,-1.902 -0.959,-2.861 -0.075,-0.238 -0.075,-0.505 -0.075,-0.759 -0.001,-0.248 0.162,-0.403 0.399,-0.425 0.274,-0.026 0.257,0.201 0.308,0.39 0.188,0.702 0.396,1.398 0.606,2.094 0.028,0.093 0.11,0.171 0.234,0.356 0.134,-0.303 0.244,-0.52 0.327,-0.747 0.11,-0.301 0.171,-0.622 0.304,-0.912 0.159,-0.347 0.491,-0.361 0.695,-0.045 0.09,0.142 0.137,0.313 0.198,0.472 0.166,0.441 0.316,0.887 0.498,1.321 0.076,0.18 0.216,0.333 0.363,0.553 0.1,-0.163 0.168,-0.229 0.183,-0.305 0.17,-0.903 0.339,-1.807 0.493,-2.712 0.089,-0.521 0.181,-0.594 0.831,-0.509 -0.012,0.158 -0.011,0.321 -0.036,0.48 -0.121,0.738 -0.24,1.477 -0.38,2.213 -0.095,0.503 -0.222,1 -0.337,1.499 C 0.323,-0.254 0.259,-0.049 0,0"
   style="fill:#231f20;fill-opacity:1;fill-rule:nonzero;stroke:none"
   id="path830"
   inkscape:connector-curvature="0" />
      </g>
      <g
   id="g832"
   transform="translate(131.9496,382.7061)">
        <path
   d="m 0,0 c -0.098,-0.354 -0.355,-0.541 -0.77,-0.543 -0.529,-0.005 -1.014,0.118 -1.491,0.319 -0.526,0.223 -0.844,0.574 -0.765,1.187 0.017,0.127 0.008,0.257 0.011,0.385 h 0.006 c 0.004,0.172 10e-4,0.343 0.014,0.514 0.053,0.7 0.651,0.992 1.24,0.621 0.136,-0.085 0.313,-0.11 0.474,-0.15 C -1.033,2.271 -0.784,2.214 -0.533,2.168 0.015,2.068 0.216,1.703 0.181,1.197 0.153,0.795 0.106,0.387 0,0 M 0.816,0.064 C 0.868,0.617 0.854,1.176 0.865,1.733 0.874,2.133 0.69,2.451 0.358,2.642 -0.046,2.873 -0.494,3.023 -0.772,3.44 -0.829,3.525 -1.002,3.56 -1.124,3.568 -1.443,3.59 -1.769,3.623 -2.083,3.583 -2.658,3.511 -3.114,3.177 -3.518,2.787 -3.811,2.505 -3.724,2.109 -3.743,1.751 -3.752,1.602 -3.752,1.452 -3.755,1.302 c -0.007,-0.3 -0.029,-0.6 -0.016,-0.899 0.008,-0.163 0.03,-0.373 0.131,-0.474 0.3,-0.298 0.616,-0.599 0.976,-0.81 0.583,-0.343 1.243,-0.418 1.92,-0.411 0.827,0.008 1.483,0.533 1.56,1.356"
   style="fill:#231f20;fill-opacity:1;fill-rule:nonzero;stroke:none"
   id="path834"
   inkscape:connector-curvature="0" />
      </g>
      <g
   id="g836"
   transform="translate(143.9818,384.9473)">
        <path
   d="M 0,0 C 0.011,0.105 0.025,0.212 0.053,0.314 0.221,0.946 0.601,1.158 1.252,0.986 1.775,0.848 1.964,0.413 1.773,-0.215 1.364,-0.312 0.959,-0.426 0.546,-0.504 0.096,-0.589 -0.044,-0.448 0,0 m 1.951,-2.804 c 0.352,-0.263 0.658,-0.618 1.174,-0.604 0.178,0.387 0.056,0.678 -0.244,0.911 -0.304,0.237 -0.625,0.453 -0.928,0.691 -0.228,0.18 -0.441,0.379 -0.738,0.637 0.441,0.137 0.75,0.215 1.045,0.328 0.277,0.106 0.446,0.319 0.496,0.623 C 2.908,0.721 2.117,1.701 1.174,1.736 0.98,1.744 0.787,1.749 0.595,1.75 -0.271,1.759 -0.672,1.396 -0.706,0.525 -0.747,-0.482 -0.76,-1.49 -0.782,-2.498 c -0.003,-0.128 0.003,-0.258 0.018,-0.385 0.026,-0.195 0.063,-0.406 0.314,-0.414 0.259,-0.01 0.303,0.192 0.316,0.396 0.017,0.235 0.014,0.472 0.04,0.706 0.027,0.22 0.08,0.438 0.13,0.701 0.183,-0.075 0.291,-0.097 0.372,-0.156 0.518,-0.38 1.029,-0.769 1.543,-1.154"
   style="fill:#231f20;fill-opacity:1;fill-rule:nonzero;stroke:none"
   id="path838"
   inkscape:connector-curvature="0" />
      </g>
      <g
   id="g840"
   transform="translate(198.7259,386.1904)">
        <path
   d="m 0,0 c -0.143,-0.095 -0.301,-0.165 -0.443,-0.259 -0.576,-0.379 -0.686,-1.366 -0.171,-1.835 0.583,-0.533 1.2,-1.03 1.816,-1.525 0.323,-0.26 0.371,-0.236 0.72,0.161 -0.245,0.455 -0.581,0.831 -1.016,1.124 -0.45,0.301 -0.785,0.708 -1.065,1.139 0.038,0.078 0.046,0.128 0.076,0.151 0.203,0.156 0.406,0.313 0.616,0.46 0.625,0.436 0.81,1.07 0.525,1.763 C 0.939,1.466 0.764,1.6 0.437,1.635 -0.367,1.721 -1.021,1.349 -1.68,0.999 -1.815,0.927 -1.925,0.695 -1.941,0.527 c -0.136,-1.414 0.031,-2.806 0.32,-4.235 0.205,0.011 0.383,0.02 0.573,0.031 0.022,0.156 0.04,0.259 0.05,0.364 0.076,0.779 -0.072,1.533 -0.248,2.286 -0.103,0.439 -0.205,0.933 0.1,1.295 0.343,0.403 0.784,0.751 1.443,0.566 C 0.364,0.294 0.342,0.226 0,0"
   style="fill:#231f20;fill-opacity:1;fill-rule:nonzero;stroke:none"
   id="path842"
   inkscape:connector-curvature="0" />
      </g>
      <g
   id="g844"
   transform="translate(151.4642,382.8618)">
        <path
   d="m 0,0 c -0.166,-0.168 -0.5,-0.171 -0.758,-0.25 -1.005,0.086 -1.738,1.122 -1.497,2.151 0.005,0.02 0.011,0.041 0.017,0.061 C -1.97,2.951 -1.5,3.199 -0.525,2.845 -0.267,2.751 -0.016,2.625 0.218,2.48 0.506,2.299 0.661,2.008 0.674,1.674 0.696,1.022 0.444,0.45 0,0 m 0.132,3.44 c -0.302,0.096 -0.583,0.265 -0.862,0.42 -0.329,0.182 -0.634,0.169 -0.979,0.024 -1,-0.423 -1.215,-1.292 -1.33,-2.228 -0.06,-0.85 0.279,-1.557 0.798,-2.178 0.413,-0.495 1.032,-0.631 1.623,-0.59 0.79,0.054 1.409,0.464 1.698,1.253 C 1.189,0.442 1.324,0.744 1.368,1.056 1.499,1.973 1.275,3.078 0.132,3.44"
   style="fill:#231f20;fill-opacity:1;fill-rule:nonzero;stroke:none"
   id="path846"
   inkscape:connector-curvature="0" />
      </g>
      <g
   id="g848"
   transform="translate(214.4662,387.5845)">
        <path
   d="m 0,0 c -0.244,0.006 -0.496,0.007 -0.748,0.019 -0.792,0.037 -1.586,0.052 -2.374,0.125 -0.55,0.05 -0.831,-0.094 -0.851,-0.653 -0.043,-1.193 -0.183,-2.395 0.197,-3.606 1.067,-0.027 2.152,-0.053 3.235,-0.079 0.044,0.583 -0.029,0.694 -0.529,0.723 -0.514,0.031 -1.031,0.019 -1.544,0.048 -0.472,0.027 -0.52,0.102 -0.507,0.726 0.886,-0.021 1.774,-0.043 2.644,-0.064 0.15,0.668 0.116,0.726 -0.438,0.749 -0.578,0.023 -1.157,0.027 -1.736,0.048 -0.185,0.006 -0.369,0.04 -0.572,0.063 -0.016,0.222 -0.039,0.39 -0.038,0.558 0.003,0.609 0.046,0.651 0.652,0.649 0.708,-0.003 1.415,-0.019 2.123,-0.012 C -0.024,-0.701 0.054,-0.585 0,0"
   style="fill:#231f20;fill-opacity:1;fill-rule:nonzero;stroke:none"
   id="path850"
   inkscape:connector-curvature="0" />
      </g>
      <g
   id="g852"
   transform="translate(175.5716,385.8491)">
        <path
   d="M 0,0 C -0.207,0.611 -0.055,0.771 0.673,0.715 0.437,0.465 0.247,0.262 0,0 M 1.448,0.457 C 1.766,1.023 1.51,1.516 0.867,1.521 0.403,1.525 -0.065,1.441 -0.523,1.354 -0.673,1.326 -0.851,1.191 -0.921,1.056 -1.065,0.78 -1.235,0.471 -1.236,0.175 c -0.006,-1.214 0.047,-2.429 0.081,-3.643 0,-0.018 0.021,-0.036 0.055,-0.088 0.138,-0.003 0.298,-0.007 0.471,-0.011 0.178,0.72 0.339,1.368 0.512,2.067 0.216,-0.104 0.364,-0.144 0.472,-0.233 0.395,-0.327 0.789,-0.658 1.159,-1.011 0.215,-0.206 0.446,-0.332 0.74,-0.314 0.228,0.014 0.344,0.205 0.248,0.412 -0.043,0.092 -0.122,0.174 -0.199,0.245 -0.396,0.359 -0.801,0.707 -1.192,1.072 -0.211,0.197 -0.397,0.42 -0.627,0.665 0.203,0.214 0.353,0.361 0.489,0.52 0.166,0.194 0.351,0.381 0.475,0.601"
   style="fill:#231f20;fill-opacity:1;fill-rule:nonzero;stroke:none"
   id="path854"
   inkscape:connector-curvature="0" />
      </g>
      <g
   id="g856"
   transform="translate(203.3177,386.2271)">
        <path
   d="M 0,0 C 0.338,-0.407 0.389,-0.875 0.428,-1.46 0.132,-1.5 -0.089,-1.528 -0.301,-1.556 -0.474,-0.933 -0.393,-0.527 0,0 m -0.918,-3.536 c 0.064,0.449 0.127,0.907 0.186,1.317 0.399,-0.036 0.684,-0.102 0.961,-0.077 0.536,0.048 0.589,0.035 0.815,-0.48 C 1.129,-2.972 1.197,-3.184 1.323,-3.35 1.396,-3.444 1.584,-3.518 1.696,-3.493 1.812,-3.468 2,-3.292 1.984,-3.218 1.879,-2.703 1.721,-2.2 1.75,-1.664 1.752,-1.634 1.698,-1.599 1.666,-1.571 1.343,-1.286 1.24,-0.893 1.116,-0.502 0.955,0.007 0.775,0.513 0.57,1.006 0.32,1.609 0.24,1.639 -0.534,1.577 -0.626,1.283 -0.739,0.965 -0.824,0.64 c -0.199,-0.764 -0.392,-1.53 -0.574,-2.299 -0.108,-0.456 -0.248,-0.915 -0.269,-1.378 -0.023,-0.531 0.14,-0.609 0.749,-0.499"
   style="fill:#231f20;fill-opacity:1;fill-rule:nonzero;stroke:none"
   id="path858"
   inkscape:connector-curvature="0" />
      </g>
      <g
   id="g860"
   transform="translate(190.1087,386.5186)">
        <path
   d="m 0,0 c 0.315,0.025 0.635,0.078 0.937,0.169 0.096,0.03 0.2,0.226 0.196,0.342 C 1.128,0.629 1.017,0.776 0.909,0.847 0.814,0.911 0.663,0.896 0.535,0.902 0.036,0.929 -0.468,0.737 -0.971,0.997 -1.082,1.055 -1.383,0.887 -1.505,0.746 -1.632,0.6 -1.696,0.36 -1.706,0.157 c -0.039,-0.812 -0.067,-1.627 -0.057,-2.44 0.005,-0.336 0.078,-0.686 0.199,-0.999 0.063,-0.163 0.292,-0.363 0.454,-0.37 0.843,-0.038 1.706,-0.189 2.565,0.23 C 1.448,-3.253 1.44,-3.076 1.43,-2.815 0.931,-2.857 0.488,-2.879 0.049,-2.934 c -0.743,-0.092 -1.04,0.148 -1.056,0.892 -0.002,0.103 0.036,0.206 0.072,0.398 0.996,-0.008 1.99,-0.018 2.972,-0.026 0.115,0.607 0.08,0.67 -0.428,0.695 -0.555,0.029 -1.113,0.029 -1.67,0.047 -0.292,0.009 -0.584,0.029 -0.882,0.045 0.007,0.319 0.013,0.565 0.021,0.899 C -0.587,0.008 -0.292,-0.023 0,0"
   style="fill:#231f20;fill-opacity:1;fill-rule:nonzero;stroke:none"
   id="path862"
   inkscape:connector-curvature="0" />
      </g>
      <g
   id="g864"
   transform="translate(138.2386,385.2881)">
        <path
   d="m 0,0 c -0.032,-0.749 -0.044,-1.499 -0.058,-2.249 -0.004,-0.256 -0.017,-0.518 0.026,-0.768 0.059,-0.348 0.205,-0.714 0.6,-0.745 0.783,-0.06 1.571,-0.051 2.34,-0.069 0.155,0.663 0.105,0.737 -0.426,0.731 -0.385,-0.004 -0.77,-0.01 -1.156,-0.002 -0.288,0.007 -0.567,0.045 -0.606,0.424 -0.033,0.317 0.057,0.469 0.465,0.567 0.496,0.12 1.001,0.213 1.507,0.276 0.469,0.059 0.553,0.141 0.532,0.74 -0.813,0.23 -1.618,-0.276 -2.461,-0.11 0.01,0.426 0.019,0.799 0.031,1.269 C 1.222,0.054 1.562,0.044 1.902,0.037 2.224,0.03 2.545,0.018 2.866,0.023 3.087,0.028 3.264,0.152 3.224,0.376 3.201,0.503 3.043,0.637 2.913,0.705 2.788,0.77 2.621,0.765 2.472,0.77 1.937,0.789 1.401,0.81 0.866,0.808 0.161,0.806 0.029,0.686 0,0"
   style="fill:#231f20;fill-opacity:1;fill-rule:nonzero;stroke:none"
   id="path866"
   inkscape:connector-curvature="0" />
      </g>
      <g
   id="g868"
   transform="translate(182.1302,386.5029)">
        <path
   d="M 0,0 C 0.35,0.005 0.729,-0.148 1.065,0.19 0.832,0.711 0.832,0.7 0.296,0.737 -0.246,0.774 -0.83,0.62 -1.295,1.066 -1.351,1.12 -1.514,1.124 -1.592,1.082 -1.96,0.887 -2.341,0.785 -2.762,0.792 -3.016,0.796 -3.158,0.613 -3.158,0.374 c 10e-4,-0.263 0.179,-0.36 0.433,-0.355 0.246,0.005 0.493,-0.009 0.749,-0.016 0.07,-0.758 0.145,-1.437 0.19,-2.118 0.029,-0.44 0.047,-0.893 -0.617,-0.884 -0.085,10e-4 -0.238,-0.2 -0.243,-0.313 -0.006,-0.111 0.111,-0.289 0.217,-0.334 0.233,-0.097 0.491,-0.165 0.742,-0.181 0.578,-0.037 1.158,-0.043 1.736,-0.045 0.189,0 0.384,0.038 0.568,0.087 0.257,0.068 0.314,0.254 0.239,0.568 -0.398,0.02 -0.796,0.062 -1.194,0.054 -0.371,-0.008 -0.555,0.177 -0.635,0.503 -0.034,0.144 -0.047,0.296 -0.056,0.444 -0.036,0.575 -0.072,1.15 -0.097,1.726 -0.007,0.159 0.023,0.32 0.04,0.513 C -0.683,0.014 -0.341,-0.005 0,0"
   style="fill:#231f20;fill-opacity:1;fill-rule:nonzero;stroke:none"
   id="path870"
   inkscape:connector-curvature="0" />
      </g>
      <g
   id="g872"
   transform="translate(166.9613,385.5557)">
        <path
   d="m 0,0 c -0.123,-0.217 -0.348,-0.148 -0.6,-0.006 0.125,0.225 0.239,0.431 0.375,0.678 C 0.079,0.468 0.124,0.219 0,0 M -0.793,1.416 C -0.837,1.371 -0.866,1.308 -0.891,1.249 -1.347,0.164 -1.82,-0.916 -2.242,-2.015 c -0.089,-0.233 -0.022,-0.546 0.033,-0.809 0.07,-0.34 0.312,-0.424 0.688,-0.29 0.003,0.768 0.107,1.526 0.59,2.251 0.216,-0.005 0.471,-0.027 0.723,-0.014 0.412,0.021 0.645,-0.183 0.756,-0.555 0.08,-0.267 0.15,-0.536 0.22,-0.806 0.113,-0.435 0.257,-0.577 0.52,-0.503 0.268,0.075 0.324,0.282 0.219,0.685 -0.131,0.496 -0.235,1 -0.366,1.497 C 0.982,0.042 0.859,0.66 0.627,1.231 0.308,2.018 -0.175,2.042 -0.793,1.416"
   style="fill:#231f20;fill-opacity:1;fill-rule:nonzero;stroke:none"
   id="path874"
   inkscape:connector-curvature="0" />
      </g>
      <g
   id="g876"
   transform="translate(217.9593,388.9722)">
        <path
   d="M 0,0 C 0.419,-0.083 0.795,-0.245 1.015,-0.613 1.465,-1.365 1.957,-2.107 2.02,-3.021 2.06,-3.617 2.077,-4.214 2.117,-4.811 2.163,-5.519 2.05,-6.144 1.317,-6.476 1.299,-6.485 1.271,-6.499 1.269,-6.515 1.23,-6.689 1.147,-6.876 1.185,-7.034 1.2,-7.1 1.485,-7.162 1.626,-7.13 c 0.636,0.147 1.158,0.829 1.178,1.492 0.009,0.322 0.016,0.644 0.024,0.966 0.12,1.377 -0.079,2.695 -0.751,3.918 C 1.673,-0.017 1.096,0.546 0.303,0.851 -0.116,1.011 -0.483,0.88 -0.574,0.581 -0.669,0.271 -0.521,0.104 0,0"
   style="fill:#231f20;fill-opacity:1;fill-rule:nonzero;stroke:none"
   id="path878"
   inkscape:connector-curvature="0" />
      </g>
      <g
   id="g880"
   transform="translate(172.0169,382.8008)">
        <path
   d="M 0,0 C 0.557,0.887 0.566,1.904 0.735,2.884 0.768,3.071 0.76,3.271 0.736,3.46 0.706,3.689 0.594,3.872 0.322,3.858 0.05,3.845 0.069,3.634 0.041,3.44 -0.062,2.723 -0.174,2.007 -0.296,1.293 -0.324,1.127 -0.369,0.945 -0.465,0.813 -0.597,0.633 -0.768,0.393 -0.952,0.362 -1.227,0.316 -1.499,0.504 -1.598,0.792 -1.714,1.129 -1.844,1.484 -1.848,1.834 -1.855,2.472 -1.777,3.111 -1.728,3.749 -1.701,4.08 -1.866,4.214 -2.191,4.134 -2.447,4.071 -2.536,3.886 -2.551,3.664 -2.575,3.28 -2.573,2.895 -2.583,2.509 -2.587,2.51 -2.592,2.51 -2.597,2.51 -2.604,2.167 -2.659,1.819 -2.613,1.483 -2.428,0.111 -1.828,-0.471 -0.83,-0.473 -0.437,-0.474 -0.204,-0.326 0,0"
   style="fill:#231f20;fill-opacity:1;fill-rule:nonzero;stroke:none"
   id="path882"
   inkscape:connector-curvature="0" />
      </g>
      <g
   id="g884"
   transform="translate(207.4496,382.9497)">
        <path
   d="M 0,0 C 0.252,0.026 0.411,0.175 0.505,0.427 0.79,1.189 1.123,1.933 1.384,2.703 1.524,3.117 1.556,3.568 1.644,4.047 0.948,4.147 0.918,4.113 0.791,3.639 0.636,3.062 0.454,2.492 0.267,1.924 0.211,1.754 0.099,1.604 -0.01,1.405 -0.476,1.785 -0.563,2.281 -0.736,2.727 -0.952,3.285 -1.151,3.85 -1.368,4.408 -1.462,4.649 -1.645,4.827 -1.915,4.725 -2.203,4.617 -2.162,4.371 -2.07,4.129 -1.593,2.871 -1.255,1.555 -0.515,0.405 -0.385,0.203 -0.287,-0.03 0,0"
   style="fill:#231f20;fill-opacity:1;fill-rule:nonzero;stroke:none"
   id="path886"
   inkscape:connector-curvature="0" />
      </g>
      <g
   id="g888"
   transform="translate(186.6927,382.9302)">
        <path
   d="m 0,0 c 0.305,0.036 0.514,0.206 0.415,0.642 -0.186,0.025 -0.391,0.042 -0.591,0.082 -0.438,0.086 -0.878,0.17 -1.31,0.28 -0.343,0.087 -0.508,0.353 -0.435,0.684 0.17,0.77 0.331,1.545 1.001,2.091 0.25,0.205 0.514,0.271 0.813,0.324 0.108,0.02 0.234,0.172 0.27,0.289 C 0.186,4.466 0.082,4.637 -0.007,4.679 -0.529,4.931 -1.437,4.69 -1.739,4.195 -2.28,3.309 -2.659,2.37 -2.623,1.296 -2.61,0.91 -2.485,0.607 -2.163,0.443 -1.488,0.101 -0.766,-0.091 0,0"
   style="fill:#231f20;fill-opacity:1;fill-rule:nonzero;stroke:none"
   id="path890"
   inkscape:connector-curvature="0" />
      </g>
      <g
   id="g892"
   transform="translate(136.6361,382.0381)">
        <path
   d="M 0,0 C -0.51,0.016 -1.021,0.026 -1.57,0.04 -1.617,0.21 -1.655,0.29 -1.658,0.371 -1.695,1.372 -1.727,2.373 -1.759,3.374 -1.764,3.523 -1.756,3.673 -1.76,3.823 -1.77,4.168 -1.935,4.333 -2.35,4.271 -2.385,4.059 -2.45,3.833 -2.458,3.606 -2.494,2.58 -2.522,1.554 -2.532,0.528 c -0.003,-0.274 0.047,-0.555 0.117,-0.82 0.062,-0.237 0.214,-0.408 0.502,-0.412 0.749,-0.01 1.497,-0.034 2.245,-0.053 0.184,-0.004 0.387,0.028 0.362,0.249 -0.018,0.163 -0.13,0.351 -0.258,0.455 C 0.339,0.025 0.149,-0.005 0,0"
   style="fill:#231f20;fill-opacity:1;fill-rule:nonzero;stroke:none"
   id="path894"
   inkscape:connector-curvature="0" />
      </g>
      <g
   id="g896"
   transform="translate(156.0287,384.6323)">
        <path
   d="M 0,0 C 0.06,0.31 0.098,0.645 0.249,0.91 0.577,1.484 0.958,2.028 1.343,2.566 1.535,2.835 1.649,3.079 1.407,3.405 1.092,3.458 0.874,3.374 0.708,3.131 0.503,2.831 0.268,2.551 0.067,2.248 -0.287,1.708 -0.604,1.137 -0.65,0.482 -0.706,-0.287 -0.727,-1.061 -0.707,-1.832 -0.691,-2.452 -0.428,-2.991 0.055,-3.4 0.251,-3.566 0.477,-3.647 0.686,-3.435 0.867,-3.25 0.734,-3.069 0.613,-2.92 0.053,-2.232 -0.144,-1.451 -0.023,-0.577 0.003,-0.387 -0.036,-0.187 0,0"
   style="fill:#231f20;fill-opacity:1;fill-rule:nonzero;stroke:none"
   id="path898"
   inkscape:connector-curvature="0" />
      </g>
      <g
   id="g900"
   transform="translate(215.9203,387.2021)">
        <path
   d="m 0,0 c -0.052,-0.206 -0.064,-0.424 -0.072,-0.637 -0.024,-0.686 -0.038,-1.372 -0.051,-2.058 -0.003,-0.193 0.004,-0.387 0.024,-0.578 0.029,-0.266 0.174,-0.443 0.453,-0.453 0.643,-0.024 1.287,-0.055 1.929,-0.04 0.293,0.008 0.526,0.176 0.538,0.647 -0.257,0.034 -0.481,0.075 -0.707,0.089 -0.342,0.021 -0.685,0.032 -1.028,0.028 -0.33,-0.004 -0.479,0.151 -0.457,0.469 0.055,0.81 0.118,1.619 0.175,2.429 0.012,0.18 0.009,0.361 0.014,0.536 C 0.199,0.492 0.112,0.45 0,0"
   style="fill:#231f20;fill-opacity:1;fill-rule:nonzero;stroke:none"
   id="path902"
   inkscape:connector-curvature="0" />
      </g>
    </g>
  </g>
</svg>