<?xml version="1.0" encoding="UTF-8" standalone="no"?>
<svg
   xmlns:dc="http://purl.org/dc/elements/1.1/"
   xmlns:cc="http://creativecommons.org/ns#"
   xmlns:rdf="http://www.w3.org/1999/02/22-rdf-syntax-ns#"
   xmlns:svg="http://www.w3.org/2000/svg"
   xmlns="http://www.w3.org/2000/svg"
   xmlns:sodipodi="http://sodipodi.sourceforge.net/DTD/sodipodi-0.dtd"
   xmlns:inkscape="http://www.inkscape.org/namespaces/inkscape"
   viewBox="0 0 150 14"
   width="100%"
   xml:space="preserve"
   id="svg2"
   version="1.1"
   sodipodi:docname="06-mystery.svg"
   inkscape:version="0.92.3 (unknown)"><sodipodi:namedview
   pagecolor="#ffffff"
   bordercolor="#666666"
   borderopacity="1"
   objecttolerance="10"
   gridtolerance="10"
   guidetolerance="10"
   inkscape:pageopacity="0"
   inkscape:pageshadow="2"
   inkscape:window-width="1920"
   inkscape:window-height="1031"
   id="namedview135"
   showgrid="false"
   inkscape:zoom="7.409856"
   inkscape:cx="-0.47234386"
   inkscape:cy="4.6217203"
   inkscape:window-x="0"
   inkscape:window-y="27"
   inkscape:window-maximized="1"
   inkscape:current-layer="svg2" /><defs
   id="defs448" />
  
  <metadata
   id="metadata8">
    <rdf:RDF>
      <cc:Work
   rdf:about="">
        <dc:format>image/svg+xml</dc:format>
        <dc:type
   rdf:resource="http://purl.org/dc/dcmitype/StillImage" />
        <dc:title></dc:title>
      </cc:Work>
    </rdf:RDF>
  </metadata>
  <g
   id="g445"
   transform="matrix(1.333333,0,0,-1.333333,-154.49106,505.02428)">
    <g
   id="g3429">
      <g
   id="g692"
   transform="translate(154.4232,371.3154)">
        <path
   d="m 0,0 c 0.004,-0.06 0.043,-0.117 0.072,-0.193 0.08,-0.014 0.163,-0.045 0.243,-0.039 0.099,0.008 0.196,0.047 0.299,0.074 0.017,0.137 0.038,0.241 0.041,0.345 C 0.687,1.315 0.979,2.384 1.387,3.425 1.492,3.694 1.586,3.996 2.034,4.076 2.179,3.783 2.328,3.486 2.473,3.187 2.678,2.764 2.854,2.324 3.089,1.918 3.319,1.521 3.635,1.54 3.865,1.94 3.961,2.106 4.014,2.296 4.096,2.47 4.248,2.789 4.407,3.104 4.563,3.421 4.611,3.416 4.66,3.41 4.708,3.405 4.774,2.952 4.945,2.526 4.933,2.051 4.918,1.515 4.912,0.978 4.937,0.443 c 0.012,-0.249 0.088,-0.5 0.17,-0.738 0.079,-0.23 0.314,-0.259 0.482,-0.176 0.113,0.056 0.239,0.282 0.212,0.395 C 5.587,0.793 5.751,1.677 5.67,2.547 5.609,3.204 5.507,3.862 5.349,4.501 5.229,4.986 4.822,5.082 4.474,4.721 4.21,4.448 4.021,4.102 3.81,3.782 3.687,3.597 3.583,3.399 3.438,3.151 2.854,3.917 2.778,4.962 1.792,5.282 1.402,5.101 1.172,4.804 1.017,4.438 0.917,4.202 0.847,3.949 0.721,3.728 0.057,2.564 -0.072,1.302 0,0"
   style="fill:#231f20;fill-opacity:1;fill-rule:nonzero;stroke:none"
   id="path694"
   inkscape:connector-curvature="0" />
      </g>
      <g
   id="g696"
   transform="translate(183.2415,376.1626)">
        <path
   d="M 0,0 C -0.172,-0.553 -0.215,-0.583 -0.823,-0.549 -0.744,0.01 -0.638,0.076 0,0 m -1.614,0.316 c -0.244,-0.749 -0.462,-1.529 -0.359,-2.324 0.077,-0.591 0.25,-1.168 0.203,-1.774 -0.016,-0.214 0.131,-0.345 0.307,-0.327 0.135,0.014 0.282,0.14 0.373,0.256 0.071,0.092 0.068,0.243 0.093,0.369 0.067,0.326 0.131,0.654 0.218,1.091 0.265,-0.143 0.48,-0.217 0.643,-0.354 0.418,-0.349 0.865,-0.633 1.402,-0.748 0.293,-0.063 0.596,-0.106 0.845,0.326 -0.775,0.575 -1.796,0.777 -2.35,1.756 1.173,0.384 1.181,1.24 0.975,2.231 C 0.534,0.833 0.347,0.841 0.16,0.86 -0.029,0.88 -0.223,0.894 -0.406,0.94 -1.125,1.118 -1.383,1.024 -1.614,0.316"
   style="fill:#231f20;fill-opacity:1;fill-rule:nonzero;stroke:none"
   id="path698"
   inkscape:connector-curvature="0" />
      </g>
      <g
   id="g700"
   transform="translate(179.4476,372.8994)">
        <path
   d="m 0,0 c -0.222,0 -0.454,0 -0.687,0 -0.556,0 -1.115,-0.011 -1.671,0.005 -0.412,0.013 -0.477,0.092 -0.491,0.503 -0.005,0.125 0.024,0.251 0.043,0.441 0.923,0.102 1.887,0.035 2.744,0.572 C -0.144,1.955 -0.347,2.095 -0.717,2.003 -1.048,1.921 -1.382,1.822 -1.719,1.796 -1.985,1.776 -2.278,1.808 -2.524,1.906 -2.923,2.065 -2.968,2.51 -2.635,2.777 -2.299,3.046 -1.95,3.262 -1.472,3.209 -1.049,3.163 -0.615,3.192 -0.187,3.206 0.003,3.211 0.202,3.233 0.378,3.297 0.474,3.333 0.591,3.474 0.589,3.565 0.587,3.655 0.463,3.783 0.364,3.821 0.23,3.874 0.07,3.867 -0.079,3.869 -0.636,3.874 -1.195,3.848 -1.751,3.88 -2.306,3.913 -2.786,3.812 -3.232,3.447 -3.454,3.266 -3.589,3.102 -3.588,2.82 -3.586,2.219 -3.599,1.619 -3.589,1.019 c 0.006,-0.363 0.022,-0.728 0.067,-1.089 0.041,-0.337 0.273,-0.567 0.597,-0.576 0.877,-0.028 1.757,-0.027 2.635,0.004 C 0.039,-0.629 0.082,-0.487 0,0"
   style="fill:#231f20;fill-opacity:1;fill-rule:nonzero;stroke:none"
   id="path702"
   inkscape:connector-curvature="0" />
      </g>
      <g
   id="g704"
   transform="translate(189.7943,377.4922)">
        <path
   d="m 0,0 c -0.006,0.236 -0.212,0.296 -0.435,0.196 -0.258,-0.118 -0.294,-0.34 -0.293,-0.59 0.004,-0.428 -0.002,-0.857 -0.001,-1.286 0.002,-0.289 -0.146,-0.432 -0.423,-0.461 -0.299,-0.03 -0.6,-0.043 -0.893,-0.096 -0.326,-0.06 -0.501,0.088 -0.559,0.377 -0.075,0.37 -0.242,0.734 -0.071,1.13 0.081,0.188 0.044,0.433 -0.18,0.473 -0.152,0.027 -0.381,-0.072 -0.488,-0.192 -0.112,-0.129 -0.188,-0.359 -0.162,-0.527 0.079,-0.503 0.22,-0.995 0.327,-1.494 0.084,-0.384 0.291,-0.601 0.707,-0.606 0.139,-10e-4 0.278,-0.073 0.424,-0.114 0.07,-0.797 0.143,-1.56 0.201,-2.324 0.019,-0.252 0.027,-0.481 0.366,-0.484 0.321,-0.002 0.404,0.191 0.385,0.462 -0.032,0.448 -0.062,0.895 -0.113,1.341 -0.048,0.422 -0.124,0.841 0.039,1.269 0.357,0.019 0.695,0.037 1.121,0.059 C 0.09,-1.875 0.024,-0.936 0,0"
   style="fill:#231f20;fill-opacity:1;fill-rule:nonzero;stroke:none"
   id="path706"
   inkscape:connector-curvature="0" />
      </g>
      <g
   id="g708"
   transform="translate(167.3265,375.7075)">
        <path
   d="m 0,0 c 0.299,0.011 0.6,-0.007 0.898,0.006 0.456,0.022 0.52,0.12 0.457,0.749 -0.553,0 -1.064,0.003 -1.576,-0.001 -0.594,-0.004 -1.196,-0.421 -1.38,-0.952 -0.218,-0.629 -0.057,-1.383 0.4,-1.768 0.261,-0.221 0.557,-0.398 0.819,-0.618 0.494,-0.419 0.417,-0.813 -0.198,-1.032 -0.157,-0.056 -0.331,-0.074 -0.5,-0.091 -0.169,-0.018 -0.353,0.021 -0.509,-0.028 -0.121,-0.038 -0.298,-0.179 -0.294,-0.266 0.007,-0.137 0.121,-0.297 0.236,-0.392 0.085,-0.069 0.242,-0.051 0.368,-0.069 0.56,-0.082 1.042,0.176 1.541,0.359 0.323,0.12 0.449,0.353 0.468,0.688 0.052,0.872 -0.319,1.471 -1.1,1.851 -0.476,0.231 -0.605,0.493 -0.521,0.904 C -0.804,-0.23 -0.528,-0.021 0,0"
   style="fill:#231f20;fill-opacity:1;fill-rule:nonzero;stroke:none"
   id="path710"
   inkscape:connector-curvature="0" />
      </g>
      <g
   id="g712"
   transform="translate(162.5306,372.4199)">
        <path
   d="m 0,0 c 0,-0.107 -0.005,-0.215 0.002,-0.322 0.034,-0.53 0.178,-0.611 0.751,-0.433 0,0.365 -0.031,0.732 0.012,1.089 C 0.791,0.548 0.879,0.81 1.033,0.942 1.379,1.24 1.483,1.607 1.504,2.025 1.529,2.539 1.535,3.054 1.565,3.568 1.581,3.833 1.461,3.998 1.219,4.015 0.979,4.032 0.82,3.869 0.787,3.627 0.764,3.458 0.774,3.284 0.773,3.113 0.77,2.748 0.794,2.38 0.753,2.02 0.738,1.892 0.583,1.696 0.468,1.676 -0.166,1.569 -0.663,1.97 -0.745,2.612 c -0.022,0.169 0,0.35 -0.052,0.508 C -0.87,3.339 -1.042,3.481 -1.291,3.434 -1.533,3.388 -1.583,3.188 -1.548,2.986 -1.456,2.459 -1.363,1.931 -1.228,1.415 -1.193,1.289 -1.009,1.155 -0.867,1.112 -0.008,0.85 -0.006,0.858 0,0"
   style="fill:#231f20;fill-opacity:1;fill-rule:nonzero;stroke:none"
   id="path714"
   inkscape:connector-curvature="0" />
      </g>
      <g
   id="g716"
   transform="translate(174.2279,376.0728)">
        <path
   d="M 0,0 C 0.002,0.269 -0.128,0.393 -0.392,0.388 -0.435,0.387 -0.478,0.392 -0.521,0.389 -1.56,0.313 -2.6,0.24 -3.638,0.158 -3.914,0.136 -4.077,-0.029 -4.049,-0.31 c 0.028,-0.263 0.228,-0.344 0.467,-0.329 0.256,0.015 0.511,0.056 0.767,0.062 0.737,0.017 0.77,-0.019 0.779,-0.733 10e-4,-0.064 -0.005,-0.128 10e-4,-0.192 0.057,-0.679 0.116,-1.358 0.176,-2.037 0.022,-0.266 0.199,-0.371 0.435,-0.372 0.225,-10e-4 0.279,0.174 0.278,0.356 -0.002,0.277 0.018,0.562 -0.043,0.827 -0.174,0.744 -0.062,1.485 -0.091,2.291 0.321,0.029 0.591,0.062 0.86,0.074 C -0.176,-0.352 -0.002,-0.286 0,0"
   style="fill:#231f20;fill-opacity:1;fill-rule:nonzero;stroke:none"
   id="path718"
   inkscape:connector-curvature="0" />
      </g>
    </g>
  </g>
</svg>