<?xml version="1.0" encoding="UTF-8" standalone="no"?>
<svg
   xmlns:dc="http://purl.org/dc/elements/1.1/"
   xmlns:cc="http://creativecommons.org/ns#"
   xmlns:rdf="http://www.w3.org/1999/02/22-rdf-syntax-ns#"
   xmlns:svg="http://www.w3.org/2000/svg"
   xmlns="http://www.w3.org/2000/svg"
   xmlns:sodipodi="http://sodipodi.sourceforge.net/DTD/sodipodi-0.dtd"
   xmlns:inkscape="http://www.inkscape.org/namespaces/inkscape"
   viewBox="0 0 150 14"
   width="100%"
   xml:space="preserve"
   id="svg2"
   version="1.1"
   sodipodi:docname="07-lonely.svg"
   inkscape:version="0.92.3 (unknown)"><sodipodi:namedview
   pagecolor="#ffffff"
   bordercolor="#666666"
   borderopacity="1"
   objecttolerance="10"
   gridtolerance="10"
   guidetolerance="10"
   inkscape:pageopacity="0"
   inkscape:pageshadow="2"
   inkscape:window-width="1920"
   inkscape:window-height="1031"
   id="namedview154"
   showgrid="false"
   inkscape:zoom="3.3129684"
   inkscape:cx="-22.943016"
   inkscape:cy="4.7032975"
   inkscape:window-x="0"
   inkscape:window-y="27"
   inkscape:window-maximized="1"
   inkscape:current-layer="svg2" /><defs
   id="defs624" />
  
  <metadata
   id="metadata8">
    <rdf:RDF>
      <cc:Work
   rdf:about="">
        <dc:format>image/svg+xml</dc:format>
        <dc:type
   rdf:resource="http://purl.org/dc/dcmitype/StillImage" />
        <dc:title></dc:title>
      </cc:Work>
    </rdf:RDF>
  </metadata>
  <g
   id="g621"
   transform="matrix(1.333333,0,0,-1.333333,-154.67276,493.11055)">
    <g
   id="g3443">
      <g
   id="g952"
   transform="translate(164.265,365.2827)">
        <path
   d="M 0,0 C 0.071,0.275 0.254,0.349 0.546,0.239 0.819,0.137 1.117,0.083 1.41,0.051 2.239,-0.042 2.537,-0.454 2.355,-1.26 2.102,-2.387 1.648,-2.673 0.311,-2.519 c -0.38,0.043 -0.482,0.204 -0.499,0.618 -0.01,0.214 -0.002,0.429 -0.002,0.643 -0.022,0.005 -0.043,0.009 -0.065,0.013 C -0.172,-0.83 -0.106,-0.41 0,0 m -0.941,-2.243 c 0.013,-0.507 0.166,-0.781 0.662,-0.889 0.537,-0.117 1.098,-0.146 1.65,-0.159 0.523,-0.011 0.943,0.237 1.259,0.662 0.556,0.749 0.615,1.577 0.404,2.45 C 2.91,0.331 2.605,0.646 2.069,0.718 1.9,0.741 1.69,0.746 1.579,0.847 1.212,1.183 0.778,1.103 0.358,1.099 -0.211,1.094 -0.635,0.805 -0.774,0.245 c -0.127,-0.514 -0.158,-1.051 -0.232,-1.578 0.022,-0.003 0.042,-0.006 0.063,-0.009 0,-0.3 -0.006,-0.601 0.002,-0.901"
   style="fill:#231f20;fill-opacity:1;fill-rule:nonzero;stroke:none"
   id="path954"
   inkscape:connector-curvature="0" />
      </g>
      <g
   id="g956"
   transform="translate(174.2757,363.0693)">
        <path
   d="m 0,0 c 0.009,-0.405 0.187,-0.694 0.588,-0.719 0.764,-0.046 1.535,-0.003 2.302,0.026 0.238,0.009 0.409,0.188 0.407,0.424 C 3.294,0.011 3.065,0.146 2.818,0.161 2.369,0.19 1.918,0.173 1.468,0.183 1.243,0.188 1.019,0.212 0.823,0.225 0.683,0.646 0.9,0.795 1.165,0.853 1.498,0.923 1.842,0.944 2.183,0.971 2.459,0.992 2.753,0.955 2.895,1.288 2.8,1.585 2.569,1.647 2.292,1.644 1.949,1.64 1.605,1.635 1.263,1.647 0.886,1.661 0.632,1.919 0.616,2.293 0.603,2.639 0.897,2.699 1.126,2.776 1.302,2.836 1.507,2.814 1.699,2.818 2.063,2.826 2.431,2.802 2.793,2.836 3.174,2.872 3.22,2.979 3.138,3.526 2.257,3.488 1.36,3.645 0.476,3.397 -0.107,3.234 -0.341,2.949 -0.192,2.362 0.006,1.577 -0.018,0.791 0,0"
   style="fill:#231f20;fill-opacity:1;fill-rule:nonzero;stroke:none"
   id="path958"
   inkscape:connector-curvature="0" />
      </g>
      <g
   id="g960"
   transform="translate(171.6996,365.7607)">
        <path
   d="m 0,0 c -0.017,-0.493 0.003,-0.987 -0.01,-1.48 -0.004,-0.15 -0.062,-0.298 -0.095,-0.446 -0.046,-0.009 -0.091,-0.017 -0.137,-0.026 -0.206,0.292 -0.419,0.579 -0.617,0.876 -0.319,0.48 -0.607,0.983 -0.953,1.441 -0.107,0.141 -0.358,0.221 -0.55,0.237 -0.232,0.018 -0.397,-0.149 -0.437,-0.392 -0.061,-0.379 -0.12,-0.76 -0.167,-1.141 -0.053,-0.423 -0.048,-0.861 -0.15,-1.271 -0.091,-0.361 -0.027,-0.677 0.082,-1.003 0.069,-0.212 0.164,-0.414 0.44,-0.378 0.289,0.037 0.294,0.258 0.293,0.484 -10e-4,0.557 0,1.115 0.007,1.672 0.004,0.223 -0.015,0.46 0.237,0.693 0.102,-0.129 0.185,-0.223 0.255,-0.325 0.311,-0.46 0.602,-0.933 0.932,-1.379 0.29,-0.393 0.59,-0.799 1.295,-0.826 0.084,0.407 0.206,0.773 0.227,1.145 0.05,0.853 -0.063,1.715 0.164,2.56 C 0.857,0.597 0.767,0.787 0.735,0.975 0.186,0.785 0.021,0.562 0,0"
   style="fill:#231f20;fill-opacity:1;fill-rule:nonzero;stroke:none"
   id="path962"
   inkscape:connector-curvature="0" />
      </g>
      <g
   id="g964"
   transform="translate(186.1224,364.8428)">
        <path
   d="M 0,0 C 0,0.81 0.013,1.578 -0.016,2.345 -0.02,2.45 -0.234,2.625 -0.35,2.624 -0.474,2.623 -0.646,2.473 -0.703,2.346 -0.767,2.201 -0.729,2.009 -0.729,1.838 c -0.001,-0.357 0,-0.714 0,-1.115 C -1.147,0.695 -1.48,0.677 -1.813,0.651 -2.325,0.611 -2.507,0.718 -2.692,1.205 -2.775,1.424 -2.803,1.672 -2.92,1.869 -2.992,1.989 -3.18,2.083 -3.325,2.098 -3.389,2.104 -3.521,1.89 -3.543,1.762 -3.646,1.149 -3.355,0.624 -3.072,0.127 c 0.194,-0.341 0.615,-0.209 0.946,-0.244 0.042,-0.005 0.082,-0.02 0.219,-0.055 0.032,-0.214 0.085,-0.421 0.093,-0.629 0.015,-0.45 0,-0.901 0.013,-1.351 0.011,-0.355 0.152,-0.5 0.44,-0.496 0.263,0.003 0.445,0.22 0.415,0.539 -0.021,0.212 -0.1,0.417 -0.135,0.628 -0.073,0.441 -0.129,0.885 0.071,1.312 C -0.679,-0.113 -0.369,-0.062 0,0"
   style="fill:#231f20;fill-opacity:1;fill-rule:nonzero;stroke:none"
   id="path966"
   inkscape:connector-curvature="0" />
      </g>
      <g
   id="g968"
   transform="translate(158.9115,366.147)">
        <path
   d="m 0,0 c -0.116,0.253 -0.397,0.291 -0.561,0.063 -0.109,-0.152 -0.225,-0.342 -0.232,-0.519 -0.018,-0.488 0.002,-0.979 0.041,-1.466 0.038,-0.487 0.131,-0.969 0.174,-1.456 0.031,-0.356 0.022,-0.715 0.035,-1.172 1.03,0 1.949,-0.001 2.868,10e-4 0.214,0 0.43,-0.004 0.642,0.023 0.35,0.044 0.461,0.248 0.344,0.643 H 2.674 C 2.031,-3.882 1.388,-3.888 0.745,-3.88 0.189,-3.873 0.102,-3.831 0.15,-3.306 0.242,-2.3 -0.144,-1.316 0.051,-0.311 0.07,-0.213 0.043,-0.093 0,0"
   style="fill:#231f20;fill-opacity:1;fill-rule:nonzero;stroke:none"
   id="path970"
   inkscape:connector-curvature="0" />
      </g>
      <g
   id="g972"
   transform="translate(179.5247,362.3433)">
        <path
   d="M 0,0 C 0.573,-0.021 1.151,-0.006 1.723,0.048 2.019,0.076 2.149,0.309 2.039,0.712 H 0.298 C 0.355,1.899 0.026,3.013 0.604,4.109 0.024,4.456 -0.41,4.265 -0.432,3.637 -0.466,2.608 -0.444,1.577 -0.439,0.546 -0.438,0.254 -0.291,0.011 0,0"
   style="fill:#231f20;fill-opacity:1;fill-rule:nonzero;stroke:none"
   id="path974"
   inkscape:connector-curvature="0" />
      </g>
    </g>
  </g>
</svg>