<?xml version="1.0" encoding="UTF-8" standalone="no"?>
<svg
   xmlns:dc="http://purl.org/dc/elements/1.1/"
   xmlns:cc="http://creativecommons.org/ns#"
   xmlns:rdf="http://www.w3.org/1999/02/22-rdf-syntax-ns#"
   xmlns:svg="http://www.w3.org/2000/svg"
   xmlns="http://www.w3.org/2000/svg"
   xmlns:sodipodi="http://sodipodi.sourceforge.net/DTD/sodipodi-0.dtd"
   xmlns:inkscape="http://www.inkscape.org/namespaces/inkscape"
   viewBox="0 0 150 14"
   width="100%"
   xml:space="preserve"
   id="svg2"
   version="1.1"
   sodipodi:docname="08-mountain.svg"
   inkscape:version="0.92.3 (unknown)"><sodipodi:namedview
   pagecolor="#ffffff"
   bordercolor="#666666"
   borderopacity="1"
   objecttolerance="10"
   gridtolerance="10"
   guidetolerance="10"
   inkscape:pageopacity="0"
   inkscape:pageshadow="2"
   inkscape:window-width="1920"
   inkscape:window-height="1031"
   id="namedview177"
   showgrid="false"
   inkscape:zoom="5.8493537"
   inkscape:cx="118.81655"
   inkscape:cy="4.1320982"
   inkscape:window-x="0"
   inkscape:window-y="27"
   inkscape:window-maximized="1"
   inkscape:current-layer="svg2" /><defs
   id="defs472" />
  
  <metadata
   id="metadata8">
    <rdf:RDF>
      <cc:Work
   rdf:about="">
        <dc:format>image/svg+xml</dc:format>
        <dc:type
   rdf:resource="http://purl.org/dc/dcmitype/StillImage" />
        <dc:title></dc:title>
      </cc:Work>
    </rdf:RDF>
  </metadata>
  <g
   id="g469"
   transform="matrix(1.333333,0,0,-1.333333,-156.49202,480.33996)">
    <g
   id="g3461">
      <g
   id="g720"
   transform="translate(150.4046,352.4634)">
        <path
   d="M 0,0 C 0.091,0.205 0.131,0.451 0.126,0.677 0.115,1.137 0.191,1.563 0.395,1.982 0.554,2.307 0.649,2.663 0.774,3.005 0.868,3.261 0.963,3.516 1.07,3.806 1.562,3.661 1.666,3.327 1.81,3.018 1.981,2.65 2.144,2.272 2.366,1.937 2.62,1.556 2.941,1.576 3.173,1.948 3.274,2.111 3.332,2.301 3.436,2.462 3.822,3.062 4.263,3.599 5.03,3.728 5.085,3.635 5.137,3.584 5.145,3.528 5.258,2.661 5.466,1.806 5.405,0.917 5.384,0.606 5.478,0.283 5.551,-0.027 c 0.081,-0.339 0.3,-0.448 0.7,-0.259 0,0.197 0.012,0.426 -0.003,0.654 C 6.223,0.75 6.127,1.136 6.155,1.514 6.224,2.414 5.937,3.247 5.731,4.094 5.612,4.585 5.351,4.75 4.87,4.585 4.248,4.373 3.622,4.132 3.219,3.542 3.085,3.346 2.97,3.084 2.678,3.084 2.445,3.501 2.239,3.901 2.005,4.282 1.75,4.693 1.335,4.788 0.886,4.773 0.431,4.759 0.368,4.38 0.267,4.061 -0.054,3.061 -0.347,2.053 -0.676,1.057 -0.815,0.635 -0.626,0.299 -0.464,-0.042 -0.374,-0.23 -0.095,-0.212 0,0"
   style="fill:#231f20;fill-opacity:1;fill-rule:nonzero;stroke:none"
   id="path722"
   inkscape:connector-curvature="0" />
      </g>
      <g
   id="g724"
   transform="translate(158.7406,354.5381)">
        <path
   d="M 0,0 C 0.001,0.929 0.449,1.46 1.37,1.636 1.587,1.677 1.719,1.593 1.866,1.434 2.169,1.105 2.52,0.821 2.823,0.494 2.96,0.348 3.077,0.153 3.126,-0.04 3.357,-0.939 2.52,-1.857 1.632,-1.72 0.27,-1.508 -0.054,-1.23 0,0 m 2.452,-2.431 c 0.122,0.012 0.267,0.058 0.352,0.14 0.559,0.538 1.326,0.972 1.034,1.952 0.219,0.806 -0.209,1.3 -0.8,1.734 C 2.857,1.527 2.685,1.715 2.595,1.916 2.439,2.263 2.181,2.361 1.84,2.408 1.127,2.507 0.56,2.149 -0.039,1.866 -0.5,1.648 -0.708,1.287 -0.714,0.796 c -0.006,-0.557 -0.008,-1.114 0,-1.671 0.008,-0.54 0.268,-0.92 0.735,-1.194 0.766,-0.449 1.591,-0.447 2.431,-0.362"
   style="fill:#231f20;fill-opacity:1;fill-rule:nonzero;stroke:none"
   id="path726"
   inkscape:connector-curvature="0" />
      </g>
      <g
   id="g728"
   transform="translate(194.388,358.0312)">
        <path
   d="m 0,0 c -0.104,0.128 -0.324,0.241 -0.483,0.229 -0.248,-0.019 -0.221,-0.272 -0.211,-0.462 0.005,-0.106 0.06,-0.209 0.061,-0.314 0.006,-0.805 0.003,-1.609 0.003,-2.535 -0.291,0.152 -0.523,0.239 -0.713,0.382 -0.202,0.153 -0.355,0.371 -0.546,0.542 -0.524,0.471 -1.049,0.94 -1.588,1.393 -0.262,0.222 -0.573,0.262 -0.955,0.093 0,-0.238 -0.014,-0.489 0.003,-0.738 0.041,-0.594 0.104,-1.188 0.146,-1.783 0.017,-0.256 -0.032,-0.521 0.015,-0.769 0.041,-0.216 0.136,-0.451 0.281,-0.611 0.155,-0.172 0.409,-0.272 0.639,-0.1 0.257,0.192 0.128,0.407 0.002,0.621 -0.409,0.698 -0.202,1.423 -0.091,2.176 0.267,-0.14 0.473,-0.306 0.664,-0.488 0.648,-0.62 1.228,-1.322 2.055,-1.727 0.562,-0.275 0.868,-0.096 0.878,0.532 0.014,1.007 0.011,2.014 -0.004,3.021 C 0.154,-0.354 0.109,-0.135 0,0"
   style="fill:#231f20;fill-opacity:1;fill-rule:nonzero;stroke:none"
   id="path730"
   inkscape:connector-curvature="0" />
      </g>
      <g
   id="g732"
   transform="translate(170.5648,354.9717)">
        <path
   d="m 0,0 c 0.242,-0.454 0.456,-0.926 0.732,-1.357 0.353,-0.549 0.794,-0.981 1.676,-0.667 0,0.317 -0.013,0.657 0.003,0.994 0.021,0.406 0.066,0.81 0.104,1.215 C 2.556,0.63 2.604,1.074 2.644,1.519 2.665,1.76 2.599,1.95 2.312,1.962 2.035,1.973 1.93,1.793 1.906,1.56 1.841,0.9 1.787,0.24 1.727,-0.42 1.709,-0.619 1.683,-0.816 1.66,-1.015 1.607,-1.026 1.555,-1.038 1.502,-1.049 1.372,-0.842 1.228,-0.643 1.114,-0.427 0.769,0.239 0.448,0.918 0.091,1.578 -0.186,2.087 -0.707,2.099 -1.015,1.602 -1.134,1.41 -1.221,1.167 -1.229,0.943 c -0.026,-0.75 -0.01,-1.502 -0.01,-2.253 0,-0.413 0.195,-0.676 0.577,-0.8 0.329,0.19 0.291,0.443 0.239,0.739 -0.112,0.644 -0.1,1.293 0.104,1.97 z"
   style="fill:#231f20;fill-opacity:1;fill-rule:nonzero;stroke:none"
   id="path734"
   inkscape:connector-curvature="0" />
      </g>
      <g
   id="g736"
   transform="translate(179.7972,355.6167)">
        <path
   d="M 0,0 C -0.068,0.364 0,0.731 0.29,0.793 0.615,0.862 1.006,0.757 1.335,0.636 1.594,0.541 1.562,0.264 1.446,0 Z M 1.848,-1.333 C 1.924,-1.662 1.9,-2.013 1.952,-2.35 1.992,-2.608 2.155,-2.777 2.44,-2.762 2.69,-2.75 2.809,-2.572 2.757,-2.241 2.605,-1.271 2.448,-0.301 2.275,0.665 2.206,1.052 1.976,1.331 1.577,1.423 1.162,1.518 0.742,1.594 0.324,1.678 0.321,1.662 0.317,1.645 0.313,1.628 c -0.063,0 -0.127,0.001 -0.192,0 -0.629,-0.01 -0.655,-0.058 -0.771,-0.68 -0.095,-0.503 -0.264,-0.991 -0.376,-1.491 -0.117,-0.52 -0.211,-1.044 -0.301,-1.57 -0.043,-0.255 0.098,-0.442 0.34,-0.442 0.113,0 0.266,0.173 0.33,0.302 0.094,0.189 0.13,0.407 0.175,0.616 0.134,0.626 0.393,0.867 1.02,0.92 0.171,0.014 0.344,0.006 0.515,0.004 0.569,-0.008 0.665,-0.061 0.795,-0.62"
   style="fill:#231f20;fill-opacity:1;fill-rule:nonzero;stroke:none"
   id="path738"
   inkscape:connector-curvature="0" />
      </g>
      <g
   id="g740"
   transform="translate(186.1712,352.9497)">
        <path
   d="M 0,0 C 0.371,0.274 0.797,0.279 1.229,0.28 1.542,0.281 1.855,0.306 2.204,0.321 2.188,0.554 2.178,0.715 2.165,0.909 1.94,0.923 1.752,0.943 1.564,0.947 1.157,0.955 0.748,0.936 0.343,0.962 c -0.435,0.028 -0.525,0.119 -0.54,0.552 -0.02,0.535 -0.012,1.072 0.002,1.608 0.004,0.137 0.077,0.273 0.13,0.449 0.412,0 0.795,-0.014 1.178,0.004 0.438,0.021 0.476,0.088 0.444,0.72 -1.091,0 -2.139,0.002 -3.186,-0.002 -0.149,0 -0.304,-0.003 -0.446,-0.039 C -2.527,4.14 -2.596,3.971 -2.412,3.425 -1.963,3.47 -1.506,3.516 -1.039,3.563 -0.778,2.873 -0.897,2.226 -0.89,1.594 -0.881,0.957 -0.913,0.941 -1.526,0.778 -1.82,0.7 -2.042,0.578 -1.994,0.232 -1.942,0.189 -1.912,0.144 -1.877,0.138 -1.33,0.061 -0.783,-0.017 -0.235,-0.081 -0.16,-0.09 -0.064,-0.048 0,0"
   style="fill:#231f20;fill-opacity:1;fill-rule:nonzero;stroke:none"
   id="path742"
   inkscape:connector-curvature="0" />
      </g>
      <g
   id="g744"
   transform="translate(167.9124,353.7866)">
        <path
   d="m 0,0 c 0.051,0.184 0.095,0.376 0.098,0.565 0.01,0.75 0.01,1.5 -0.001,2.25 C 0.095,2.968 0.027,3.12 -0.005,3.252 -0.519,3.275 -0.634,2.997 -0.64,2.639 -0.65,2.039 -0.614,1.437 -0.661,0.84 -0.69,0.467 -0.825,0.101 -0.933,-0.263 -1.001,-0.497 -1.18,-0.579 -1.427,-0.582 c -0.717,-0.006 -1.212,0.407 -1.455,0.984 -0.267,0.634 -0.547,1.302 -0.466,2.04 0.022,0.205 -0.075,0.424 -0.131,0.702 -0.43,-0.212 -0.649,-0.413 -0.643,-0.753 0.021,-1.208 0.273,-2.325 1.203,-3.203 0.607,-0.574 1.34,-0.566 2.051,-0.433 C -0.258,-1.13 -0.144,-0.518 0,0"
   style="fill:#231f20;fill-opacity:1;fill-rule:nonzero;stroke:none"
   id="path746"
   inkscape:connector-curvature="0" />
      </g>
      <g
   id="g748"
   transform="translate(177.6595,356.9463)">
        <path
   d="M 0,0 C -0.498,0.038 -1.028,-0.154 -1.486,0.221 -1.554,0.276 -1.729,0.211 -1.851,0.186 -2.138,0.126 -2.424,0.06 -2.71,-0.008 -2.896,-0.053 -3.104,-0.069 -3.26,-0.166 -3.386,-0.242 -3.45,-0.42 -3.541,-0.554 c 0.138,-0.073 0.27,-0.196 0.413,-0.21 0.333,-0.031 0.671,-0.01 1.062,-0.01 0.016,-0.292 0.039,-0.521 0.041,-0.751 0.005,-0.686 -0.01,-1.372 0.009,-2.058 0.015,-0.505 0.096,-0.574 0.625,-0.643 0.012,0.212 0.032,0.419 0.034,0.627 0.003,0.707 -0.005,1.415 0.005,2.123 0.003,0.226 0.05,0.45 0.084,0.729 H 0.43 C 0.572,-0.069 0.544,-0.041 0,0"
   style="fill:#231f20;fill-opacity:1;fill-rule:nonzero;stroke:none"
   id="path750"
   inkscape:connector-curvature="0" />
      </g>
    </g>
  </g>
</svg>