<?xml version="1.0" encoding="UTF-8" standalone="no"?>
<svg
   xmlns:dc="http://purl.org/dc/elements/1.1/"
   xmlns:cc="http://creativecommons.org/ns#"
   xmlns:rdf="http://www.w3.org/1999/02/22-rdf-syntax-ns#"
   xmlns:svg="http://www.w3.org/2000/svg"
   xmlns="http://www.w3.org/2000/svg"
   xmlns:sodipodi="http://sodipodi.sourceforge.net/DTD/sodipodi-0.dtd"
   xmlns:inkscape="http://www.inkscape.org/namespaces/inkscape"
   viewBox="0 0 150 14.000001"
   width="100%"
   xml:space="preserve"
   id="svg2"
   version="1.1"
   sodipodi:docname="09-jamie-tortuga.svg"
   inkscape:version="0.92.3 (unknown)"><sodipodi:namedview
   pagecolor="#ffffff"
   bordercolor="#666666"
   borderopacity="1"
   objecttolerance="10"
   gridtolerance="10"
   guidetolerance="10"
   inkscape:pageopacity="0"
   inkscape:pageshadow="2"
   inkscape:window-width="1920"
   inkscape:window-height="1031"
   id="namedview208"
   showgrid="false"
   inkscape:zoom="8.0178628"
   inkscape:cx="36.548524"
   inkscape:cy="22.830937"
   inkscape:window-x="0"
   inkscape:window-y="27"
   inkscape:window-maximized="1"
   inkscape:current-layer="svg2" /><defs
   id="defs124">
    
  
      
      
      
      
      
      
      
      
      
      
      
      
    </defs>
  
  <metadata
   id="metadata8">
    <rdf:RDF>
      <cc:Work
   rdf:about="">
        <dc:format>image/svg+xml</dc:format>
        <dc:type
   rdf:resource="http://purl.org/dc/dcmitype/StillImage" />
        <dc:title />
      </cc:Work>
    </rdf:RDF>
  </metadata>
  <g
   id="g184"
   transform="matrix(1.333333,0,0,-1.333333,113.71611,3.5035265)">
        <path
   d="M 0,0 C 0.07,0.125 0.26,0.223 0.411,0.253 0.778,0.327 1.154,0.269 1.431,0.014 1.58,-0.124 1.686,-0.376 1.69,-0.58 1.692,-0.691 1.46,-0.848 1.304,-0.915 0.888,-1.094 0.247,-1.086 -0.384,-0.92 -0.258,-0.606 -0.16,-0.286 0,0 m -0.786,0.406 c -0.318,-1.088 -0.629,-2.177 -0.933,-3.269 -0.086,-0.31 -0.035,-0.589 0.275,-0.763 0.395,0.299 0.459,0.392 0.568,0.822 0.053,0.208 0.098,0.417 0.156,0.622 0.074,0.257 0.241,0.392 0.518,0.39 0.642,-0.004 1.285,0 1.928,-0.003 0.219,-0.001 0.361,-0.096 0.399,-0.33 0.072,-0.443 0.152,-0.884 0.234,-1.324 0.011,-0.059 0.049,-0.114 0.092,-0.208 0.155,0.008 0.315,0.015 0.546,0.026 0,0.385 0.047,0.693 -0.008,0.98 -0.17,0.88 -0.401,1.75 -0.566,2.631 C 2.31,0.591 2.121,1.045 1.368,0.907 1.272,0.889 1.162,0.967 1.057,0.973 0.694,0.993 0.33,1.025 -0.031,1.005 -0.404,0.984 -0.679,0.773 -0.786,0.406"
   style="fill:#231f20;fill-opacity:1;fill-rule:nonzero;stroke:none"
   id="path186"
   inkscape:connector-curvature="0" />
      </g><g
   id="g188"
   transform="matrix(1.333333,0,0,-1.333333,52.757099,10.729525)">
        <path
   d="M 0,0 C -0.003,0.744 -0.012,1.505 0.385,2.32 0.526,2.041 0.619,1.86 0.711,1.678 0.845,1.412 0.95,1.087 1.311,1.08 1.647,1.074 1.734,1.392 1.876,1.627 2.118,2.031 2.357,2.438 2.615,2.832 2.739,3.021 2.858,3.252 3.243,3.177 3.317,2.612 3.419,2.026 3.464,1.437 3.502,0.946 3.473,0.45 3.476,-0.043 c 0,-0.183 0.037,-0.388 0.257,-0.355 0.134,0.019 0.267,0.172 0.36,0.296 0.055,0.074 0.044,0.207 0.042,0.313 C 4.12,1.215 4.202,2.222 3.984,3.22 3.843,3.873 3.63,4.081 2.974,3.973 2.755,3.938 2.519,3.824 2.357,3.674 2.001,3.344 1.686,2.968 1.282,2.533 1.083,2.976 0.911,3.412 0.689,3.821 0.612,3.963 0.423,4.093 0.263,4.128 0.025,4.179 -0.165,4.011 -0.208,3.782 -0.409,2.712 -0.627,1.643 -0.763,0.564 -0.83,0.032 -0.662,-0.051 0,0"
   style="fill:#231f20;fill-opacity:1;fill-rule:nonzero;stroke:none"
   id="path190"
   inkscape:connector-curvature="0" />
      </g><g
   id="g192"
   transform="matrix(1.333333,0,0,-1.333333,109.44145,7.8759254)">
        <path
   d="M 0,0 C 0.179,0.277 0.295,0.609 0.375,0.932 0.531,1.562 0.273,1.928 -0.37,2.008 -0.687,2.048 -1.013,2.026 -1.334,2.02 -1.529,2.015 -1.737,1.993 -1.783,1.748 -1.836,1.467 -1.689,1.289 -1.434,1.216 -1.252,1.165 -1.056,1.162 -0.866,1.132 -0.476,1.07 -0.348,0.799 -0.613,0.506 -0.757,0.349 -1.012,0.193 -1.207,0.204 -1.604,0.225 -2.006,0.326 -2.383,0.457 -2.805,0.604 -3.189,0.89 -3.156,1.376 c 0.035,0.526 0.14,1.074 0.67,1.387 0.529,0.313 1.066,0.548 1.701,0.305 0.245,-0.094 0.424,0.037 0.488,0.281 C -0.225,3.623 -0.41,3.754 -0.633,3.798 -0.862,3.844 -1.102,3.836 -1.337,3.851 -2.207,3.89 -2.969,3.667 -3.457,2.897 -4.532,1.204 -3.858,-0.243 -1.858,-0.546 -1.183,-0.648 -0.45,-0.696 0,0"
   style="fill:#231f20;fill-opacity:1;fill-rule:nonzero;stroke:none"
   id="path194"
   inkscape:connector-curvature="0" />
      </g><g
   id="g196"
   transform="matrix(1.333333,0,0,-1.333333,39.639331,7.1116589)">
        <path
   d="M 0,0 C 0.186,0.318 0.473,0.428 0.81,0.385 1.143,0.343 1.112,0.013 1.189,-0.211 1.234,-0.341 1.198,-0.5 1.198,-0.67 0.578,-0.778 0.029,-0.873 -0.607,-0.983 -0.372,-0.604 -0.178,-0.307 0,0 m -1.295,-2.679 c 0.094,0.741 0.565,0.988 1.237,1.025 0.21,0.012 0.415,0.096 0.625,0.133 0.656,0.119 0.849,-0.042 0.915,-0.707 0.029,-0.274 0.096,-0.544 0.161,-0.813 0.044,-0.18 0.144,-0.316 0.363,-0.277 0.251,0.045 0.366,0.205 0.354,0.453 C 2.355,-2.782 2.311,-2.701 2.299,-2.618 2.203,-1.942 2.12,-1.265 2.014,-0.592 1.943,-0.151 1.847,0.286 1.75,0.722 1.696,0.967 1.521,1.066 1.277,1.065 0.849,1.062 0.418,1.089 -0.008,1.051 -0.169,1.037 -0.378,0.913 -0.462,0.775 -1.04,-0.171 -1.7,-1.083 -1.937,-2.197 c -0.059,-0.284 -0.058,-0.581 -0.086,-0.894 0.518,-0.156 0.685,0.076 0.728,0.412"
   style="fill:#231f20;fill-opacity:1;fill-rule:nonzero;stroke:none"
   id="path198"
   inkscape:connector-curvature="0" />
      </g><g
   id="g200"
   transform="matrix(1.333333,0,0,-1.333333,63.977858,10.303658)">
        <path
   d="m 0,0 v 0.728 h -2.017 c -0.04,0.069 -0.055,0.086 -0.06,0.105 -0.266,1.019 -0.142,1.187 0.881,1.188 0.637,0 1.275,0 1.911,0 C 0.711,2.641 0.646,2.746 0.187,2.765 -0.37,2.788 -0.929,2.768 -1.486,2.776 -1.668,2.779 -1.85,2.815 -2.031,2.835 -1.956,3.453 -1.952,3.468 -1.485,3.478 -0.928,3.489 -0.369,3.486 0.187,3.48 0.534,3.476 0.766,3.601 0.828,4.053 0.479,4.243 0.133,4.32 -0.235,4.303 -0.641,4.284 -1.045,4.247 -1.451,4.233 -2.3,4.204 -2.824,3.724 -2.851,2.884 -2.876,2.091 -2.861,1.296 -2.852,0.502 -2.85,0.338 -2.795,0.175 -2.763,0 Z"
   style="fill:#231f20;fill-opacity:1;fill-rule:nonzero;stroke:none"
   id="path202"
   inkscape:connector-curvature="0" />
      </g><g
   id="g204"
   transform="matrix(1.333333,0,0,-1.333333,88.449186,5.0439261)">
        <path
   d="M 0,0 C -0.212,-0.415 -0.566,-0.579 -1.044,-0.671 -1.035,0.064 -0.708,0.264 0,0 m 0.818,-3.004 c 0.256,-0.142 0.528,-0.303 0.864,-0.127 0.096,0.322 -0.099,0.53 -0.323,0.693 -0.31,0.226 -0.652,0.411 -0.971,0.626 -0.204,0.136 -0.393,0.295 -0.638,0.482 0.221,0.167 0.364,0.292 0.523,0.392 0.433,0.273 0.565,0.679 0.532,1.162 -0.03,0.435 -0.151,0.555 -0.601,0.576 -0.257,0.012 -0.516,0.015 -0.772,0 -0.827,-0.05 -1.321,-0.577 -1.325,-1.406 -0.003,-0.579 -0.027,-1.16 0.01,-1.737 0.022,-0.334 0.131,-0.667 0.237,-0.988 0.03,-0.091 0.192,-0.197 0.287,-0.191 0.093,0.006 0.24,0.135 0.255,0.228 0.045,0.267 0.041,0.544 0.045,0.817 0.002,0.14 -0.019,0.28 -0.037,0.528 0.273,-0.126 0.466,-0.198 0.644,-0.301 0.427,-0.245 0.839,-0.516 1.27,-0.754"
   style="fill:#231f20;fill-opacity:1;fill-rule:nonzero;stroke:none"
   id="path206"
   inkscape:connector-curvature="0" />
      </g><g
   id="g208"
   transform="matrix(1.333333,0,0,-1.333333,31.1928,12.096058)">
        <path
   d="M 0,0 C 0.461,-0.19 0.916,-0.122 1.384,-0.001 2.193,0.207 2.237,0.24 2.247,1.076 2.254,1.698 2.245,2.32 2.254,2.942 2.257,3.125 2.295,3.309 2.325,3.56 2.787,3.521 3.188,3.489 3.59,3.455 3.807,3.435 3.983,3.497 4.028,3.728 4.076,3.97 3.97,4.147 3.729,4.22 3.627,4.251 3.518,4.268 3.411,4.271 2.234,4.3 1.058,4.334 -0.12,4.338 -0.246,4.339 -0.452,4.18 -0.479,4.063 -0.506,3.942 -0.385,3.757 -0.278,3.647 -0.201,3.566 -0.045,3.556 0.078,3.523 0.389,3.441 0.701,3.371 1.01,3.283 1.25,3.216 1.472,3.08 1.481,2.815 1.504,2.159 1.488,1.5 1.488,0.806 1.22,0.791 1.029,0.757 0.844,0.774 0.569,0.799 0.3,0.864 0.027,0.908 -0.207,0.945 -0.513,1.013 -0.567,0.72 -0.599,0.544 -0.41,0.313 -0.287,0.13 -0.237,0.056 -0.099,0.041 0,0"
   style="fill:#231f20;fill-opacity:1;fill-rule:nonzero;stroke:none"
   id="path210"
   inkscape:connector-curvature="0" />
      </g><g
   id="g212"
   transform="matrix(1.333333,0,0,-1.333333,49.863871,10.48438)">
        <path
   d="M 0,0 C 0.517,0.056 0.572,0.153 0.337,0.801 -0.187,0.742 -0.735,0.694 -1.278,0.613 -1.644,0.559 -1.733,0.601 -1.75,0.985 -1.766,1.327 -1.764,1.671 -1.751,2.014 -1.729,2.635 -1.42,2.947 -0.806,3 -0.558,3.021 -0.31,3.056 -0.011,3.09 -0.01,3.536 -0.175,3.728 -0.517,3.707 -1.58,3.641 -2.643,3.56 -3.705,3.484 -3.727,3.483 -3.755,3.482 -3.767,3.47 -3.874,3.352 -4.034,3.246 -4.071,3.108 -4.129,2.893 -3.924,2.818 -3.755,2.79 c 0.144,-0.023 0.295,0.005 0.442,0.007 0.251,0.002 0.501,0 0.782,0 0.153,-0.725 0.18,-1.408 0.005,-2.103 -0.183,0 -0.315,-0.026 -0.432,0.005 -0.287,0.075 -0.481,-0.04 -0.546,-0.298 -0.074,-0.296 0.156,-0.444 0.395,-0.484 0.438,-0.075 0.887,-0.15 1.328,-0.131 C -1.186,-0.188 -0.595,-0.064 0,0"
   style="fill:#231f20;fill-opacity:1;fill-rule:nonzero;stroke:none"
   id="path214"
   inkscape:connector-curvature="0" />
      </g><g
   id="g216"
   transform="matrix(1.333333,0,0,-1.333333,80.587321,6.1031259)">
        <path
   d="M 0,0 C 0.166,0.532 0.543,0.651 1.209,0.498 1.762,0.371 1.968,0.103 1.941,-0.455 1.92,-0.907 1.729,-1.297 1.391,-1.573 1.236,-1.699 0.955,-1.744 0.748,-1.712 0.461,-1.668 0.19,-1.518 -0.192,-1.372 -0.128,-0.874 -0.13,-0.416 0,0 m -0.849,-1.204 c 0.005,-0.681 0.119,-0.909 0.772,-1.065 0.511,-0.122 1.057,-0.132 1.585,-0.116 0.2,0.006 0.426,0.194 0.583,0.355 0.61,0.626 0.694,1.397 0.537,2.215 C 2.512,0.788 2.161,1.113 1.559,1.211 1.242,1.263 0.928,1.329 0.613,1.39 0.1,1.489 -0.195,1.356 -0.462,0.906 -0.777,0.373 -0.934,-0.195 -0.849,-0.712 c 0,-0.234 -0.001,-0.363 0,-0.492"
   style="fill:#231f20;fill-opacity:1;fill-rule:nonzero;stroke:none"
   id="path218"
   inkscape:connector-curvature="0" />
      </g><g
   id="g220"
   transform="matrix(1.333333,0,0,-1.333333,99.714916,7.3472589)">
        <path
   d="m 0,0 c -0.182,0.281 -0.296,0.617 -0.391,0.942 -0.13,0.451 -0.208,0.917 -0.32,1.373 -0.102,0.418 -0.109,0.416 -0.744,0.374 0.002,-1.063 0.263,-2.019 0.673,-2.939 0.273,-0.613 0.756,-0.858 1.435,-0.868 0.677,-0.01 1.038,0.344 1.261,0.892 0.133,0.328 0.215,0.687 0.252,1.04 0.043,0.402 0.04,0.815 0,1.219 C 2.137,2.321 2.039,2.611 1.927,2.881 1.852,3.064 1.682,3.176 1.463,3.089 1.213,2.83 1.368,2.565 1.424,2.299 1.586,1.528 1.586,0.778 1.166,0.068 0.864,-0.441 0.323,-0.499 0,0"
   style="fill:#231f20;fill-opacity:1;fill-rule:nonzero;stroke:none"
   id="path222"
   inkscape:connector-curvature="0" />
      </g><g
   id="g224"
   transform="matrix(1.333333,0,0,-1.333333,95.838517,3.988593)">
        <path
   d="M 0,0 C -0.511,0.038 -1.024,0.045 -1.536,0.065 -2.015,0.553 -2.46,0.206 -2.92,0.022 -3.031,-0.023 -3.175,0.018 -3.304,0.011 -3.429,0.004 -3.554,-0.014 -3.711,-0.029 v -0.629 h 1.366 c 0.288,-0.871 0.551,-1.684 0.826,-2.491 0.089,-0.26 0.188,-0.524 0.331,-0.756 0.075,-0.122 0.265,-0.261 0.388,-0.248 0.248,0.025 0.242,0.274 0.213,0.461 -0.053,0.337 -0.116,0.676 -0.217,1.001 -0.199,0.646 -0.425,1.283 -0.675,2.027 H 0.392 C 0.492,-0.227 0.343,-0.025 0,0"
   style="fill:#231f20;fill-opacity:1;fill-rule:nonzero;stroke:none"
   id="path226"
   inkscape:connector-curvature="0" />
      </g><g
   id="g228"
   transform="matrix(1.333333,0,0,-1.333333,74.983056,6.0393925)">
        <path
   d="M 0,0 C 0.015,-0.621 -0.002,-1.242 0.009,-1.863 0.013,-2.074 0.044,-2.289 0.093,-2.494 0.165,-2.799 0.35,-2.922 0.715,-2.758 v 0.619 c 0.001,0.685 -0.01,1.371 0.006,2.056 C 0.732,0.415 0.8,0.47 1.283,0.493 1.518,0.504 1.754,0.5 1.989,0.499 c 0.248,0 0.42,0.088 0.423,0.365 C 2.415,1.134 2.222,1.146 2.018,1.168 0.825,1.302 -0.363,1.241 -1.596,1.119 -1.633,0.556 -1.616,0.526 -1.2,0.5 -0.966,0.486 -0.729,0.505 -0.494,0.493 -0.071,0.471 -0.009,0.418 0,0"
   style="fill:#231f20;fill-opacity:1;fill-rule:nonzero;stroke:none"
   id="path230"
   inkscape:connector-curvature="0" />
      </g>
</svg>