<?xml version="1.0" encoding="UTF-8" standalone="no"?>
<svg
   xmlns:dc="http://purl.org/dc/elements/1.1/"
   xmlns:cc="http://creativecommons.org/ns#"
   xmlns:rdf="http://www.w3.org/1999/02/22-rdf-syntax-ns#"
   xmlns:svg="http://www.w3.org/2000/svg"
   xmlns="http://www.w3.org/2000/svg"
   xmlns:sodipodi="http://sodipodi.sourceforge.net/DTD/sodipodi-0.dtd"
   xmlns:inkscape="http://www.inkscape.org/namespaces/inkscape"
   viewBox="0 0 150 14"
   width="100%"
   xml:space="preserve"
   id="svg2"
   version="1.1"
   sodipodi:docname="10-el-hombre-de-la-calle.svg"
   inkscape:version="0.92.3 (unknown)"><sodipodi:namedview
   pagecolor="#ffffff"
   bordercolor="#666666"
   borderopacity="1"
   objecttolerance="10"
   gridtolerance="10"
   guidetolerance="10"
   inkscape:pageopacity="0"
   inkscape:pageshadow="2"
   inkscape:window-width="1920"
   inkscape:window-height="1031"
   id="namedview1377"
   showgrid="false"
   inkscape:zoom="2.8829563"
   inkscape:cx="60.70158"
   inkscape:cy="4.4927869"
   inkscape:window-x="0"
   inkscape:window-y="27"
   inkscape:window-maximized="1"
   inkscape:current-layer="svg2" /><defs
   id="defs234" />
  
  <metadata
   id="metadata8">
    <rdf:RDF>
      <cc:Work
   rdf:about="">
        <dc:format>image/svg+xml</dc:format>
        <dc:type
   rdf:resource="http://purl.org/dc/dcmitype/StillImage" />
        <dc:title></dc:title>
      </cc:Work>
    </rdf:RDF>
  </metadata>
  <g
   id="g231"
   transform="matrix(1.333333,0,0,-1.333333,-154.49142,428.28812)">
    <g
   id="g3535">
      <g
   id="g336"
   transform="translate(156.5755,313.1841)">
        <path
   d="M 0,0 C 0.332,-0.014 0.344,0.314 0.357,0.576 0.359,0.619 0.359,0.662 0.36,0.705 0.378,1.712 0.401,2.72 0.409,3.728 0.41,3.938 0.382,4.158 0.318,4.358 0.152,4.876 -0.162,5.019 -0.67,4.822 -0.807,4.768 -0.936,4.681 -1.056,4.594 -1.487,4.28 -1.914,3.959 -2.429,3.577 -2.744,3.996 -3.042,4.384 -3.332,4.778 -3.668,5.235 -4.148,5.194 -4.619,5.144 -5.029,5.1 -5.085,4.752 -5.144,4.432 -5.197,4.14 -5.236,3.844 -5.28,3.55 -5.312,3.34 -5.348,3.13 -5.369,2.918 -5.428,2.325 -5.485,1.732 -5.533,1.138 -5.555,0.87 -5.407,0.741 -5.146,0.743 c 0.232,0.002 0.338,0.122 0.36,0.357 0.079,0.85 0.162,1.701 0.263,2.549 0.025,0.212 0.122,0.416 0.199,0.666 0.617,-0.295 0.923,-0.742 1.185,-1.24 0.291,-0.555 0.782,-0.669 1.264,-0.282 0.334,0.268 0.624,0.588 0.941,0.875 0.165,0.149 0.309,0.37 0.649,0.261 C -0.276,3.722 -0.259,3.515 -0.262,3.308 -0.273,2.407 -0.292,1.506 -0.307,0.606 -0.312,0.346 -0.338,0.014 0,0"
   style="fill:#231f20;fill-opacity:1;fill-rule:nonzero;stroke:none"
   id="path338"
   inkscape:connector-curvature="0" />
      </g>
      <g
   id="g340"
   transform="translate(163.9974,316.4746)">
        <path
   d="M 0,0 C -0.143,0.383 -0.141,0.721 0.001,1.041 0.254,1.612 1.082,1.89 1.648,1.613 1.992,1.445 2.021,0.855 1.658,0.573 1.18,0.201 0.621,0.016 0,0 m 2.888,-2.55 c 0.137,0.336 0.038,0.612 -0.198,0.874 -0.342,0.381 -0.669,0.777 -1.022,1.19 0.102,0.088 0.282,0.235 0.451,0.395 C 2.762,0.518 2.863,1.402 2.342,2.054 2.218,2.208 2.013,2.37 1.83,2.391 0.881,2.497 -0.051,2.434 -0.909,1.911 -0.924,1.808 -0.954,1.702 -0.952,1.598 c 0.024,-1.199 0.055,-2.396 0.084,-3.594 0.001,-0.043 -0.004,-0.091 0.014,-0.127 0.108,-0.218 0.22,-0.434 0.32,-0.628 0.417,0.077 0.586,0.264 0.564,0.596 -0.019,0.298 -0.053,0.593 -0.079,0.89 -0.016,0.193 -0.028,0.386 -0.049,0.669 0.904,-0.502 1.674,-0.953 2.286,-1.637 0.173,-0.196 0.337,-0.475 0.7,-0.317"
   style="fill:#231f20;fill-opacity:1;fill-rule:nonzero;stroke:none"
   id="path342"
   inkscape:connector-curvature="0" />
      </g>
      <g
   id="g344"
   transform="translate(159.3753,316.5928)">
        <path
   d="M 0,0 C -0.147,0.479 -0.109,0.676 0.175,0.885 0.524,1.142 1.028,1.084 1.542,0.701 1.044,0.298 0.432,0.025 0,0 M 1.223,-2.029 C 1.151,-2.137 0.991,-2.236 0.864,-2.247 0.552,-2.273 0.233,-2.246 -0.124,-2.24 c 0.009,0.502 0.017,0.94 0.026,1.485 0.287,-0.005 0.5,0.008 0.709,-0.016 0.606,-0.069 0.944,-0.755 0.612,-1.258 m 0.411,3.69 C 1.124,1.784 0.577,1.75 0.049,1.805 -0.282,1.84 -0.478,1.698 -0.586,1.4 -0.659,1.2 -0.793,1.004 -0.801,0.803 c -0.04,-1.068 -0.052,-2.138 -0.065,-3.207 -0.005,-0.336 0.186,-0.517 0.513,-0.531 0.491,-0.02 0.984,-0.039 1.475,-0.023 0.431,0.014 0.813,0.304 0.859,0.659 0.086,0.648 0.301,1.362 -0.275,1.979 0.169,0.182 0.316,0.31 0.426,0.466 0.404,0.577 0.178,1.352 -0.498,1.515"
   style="fill:#231f20;fill-opacity:1;fill-rule:nonzero;stroke:none"
   id="path346"
   inkscape:connector-curvature="0" />
      </g>
      <g
   id="g348"
   transform="translate(195.5599,316.8936)">
        <path
   d="m 0,0 c -0.344,-0.009 -0.669,-0.018 -1.033,-0.027 -0.117,0.506 0.025,0.862 0.226,1.187 0.076,0.119 0.267,0.237 0.398,0.23 0.128,-0.008 0.294,-0.152 0.36,-0.279 C 0.125,0.778 0.093,0.419 0,0 M 0.968,-0.97 C 0.908,-0.249 0.87,0.475 0.8,1.195 0.775,1.447 0.712,1.707 0.609,1.937 0.538,2.094 0.392,2.272 0.238,2.327 -0.592,2.625 -1.135,2.34 -1.511,1.526 -2.002,0.461 -2.107,-0.695 -2.371,-1.814 -2.43,-2.061 -2.438,-2.325 -2.43,-2.58 c 0.011,-0.323 0.293,-0.465 0.522,-0.242 0.148,0.144 0.21,0.394 0.268,0.608 0.089,0.326 0.115,0.672 0.225,0.988 0.043,0.122 0.241,0.255 0.377,0.267 0.376,0.03 0.758,-0.001 1.164,-0.008 0.103,-0.547 0.199,-1.024 0.278,-1.505 0.053,-0.317 0.202,-0.504 0.559,-0.505 0.177,0.296 0.182,0.604 0.133,0.928 -0.055,0.358 -0.098,0.718 -0.128,1.079"
   style="fill:#231f20;fill-opacity:1;fill-rule:nonzero;stroke:none"
   id="path350"
   inkscape:connector-curvature="0" />
      </g>
      <g
   id="g352"
   transform="translate(146.1224,315.6675)">
        <path
   d="M 0,0 C 0.072,0.436 0.232,0.862 0.404,1.272 0.463,1.413 0.684,1.586 0.817,1.576 1.281,1.54 1.749,1.464 2.195,1.336 2.731,1.182 2.895,0.898 2.88,0.197 2.841,-0.247 2.7,-0.792 2.378,-1.293 2.223,-1.536 2.014,-1.641 1.755,-1.684 0.688,-1.863 -0.175,-1.054 0,0 m 2.376,-2.341 c 0.149,0.056 0.272,0.198 0.392,0.316 0.782,0.771 0.931,1.747 0.859,2.778 C 3.594,1.228 3.343,1.612 2.903,1.817 2.597,1.96 2.262,2.043 1.938,2.152 1.718,2.226 1.484,2.273 1.276,2.374 0.652,2.676 0.439,2.648 0,2.138 -0.606,1.434 -0.75,0.579 -0.816,-0.316 c 0.038,-0.312 -0.006,-0.668 0.129,-0.931 0.442,-0.851 2.143,-1.44 3.063,-1.094"
   style="fill:#231f20;fill-opacity:1;fill-rule:nonzero;stroke:none"
   id="path354"
   inkscape:connector-curvature="0" />
      </g>
      <g
   id="g356"
   transform="translate(143.2572,313.4922)">
        <path
   d="M 0,0 C 0.007,-0.229 0.071,-0.444 0.348,-0.451 0.624,-0.458 0.689,-0.23 0.73,-0.017 0.758,0.129 0.749,0.282 0.752,0.432 0.769,1.331 0.773,2.231 0.805,3.13 0.818,3.512 0.892,3.892 0.926,4.273 0.946,4.5 0.902,4.709 0.635,4.769 0.4,4.822 0.261,4.692 0.202,4.487 0.138,4.264 0.086,4.034 0.064,3.803 0.039,3.511 0.049,3.215 0.043,2.85 -0.648,2.861 -1.264,2.84 -1.871,2.896 c -0.322,0.03 -0.515,0.282 -0.5,0.642 0.012,0.3 0.034,0.603 0,0.898 C -2.388,4.573 -2.502,4.761 -2.619,4.808 -2.819,4.889 -3.01,4.763 -3.055,4.546 -3.135,4.155 -3.214,3.758 -3.23,3.36 -3.246,3.002 -3.155,2.64 -3.15,2.279 -3.143,1.659 -3.183,1.037 -3.17,0.417 c 0.011,-0.541 0.109,-0.608 0.697,-0.553 0.016,0.199 0.039,0.408 0.046,0.618 0.013,0.364 0.005,0.728 0.026,1.092 0.023,0.438 0.104,0.519 0.545,0.526 0.45,0.007 0.9,-0.003 1.348,-0.025 C -0.345,2.067 -0.185,2.003 0.027,1.952 0.02,1.514 0.012,1.11 0.006,0.707 0.002,0.471 -0.007,0.235 0,0"
   style="fill:#231f20;fill-opacity:1;fill-rule:nonzero;stroke:none"
   id="path358"
   inkscape:connector-curvature="0" />
      </g>
      <g
   id="g360"
   transform="translate(179.4984,315.5811)">
        <path
   d="M 0,0 C -0.229,-0.396 -0.586,-0.74 -0.949,-1.026 -1.137,-1.174 -1.464,-1.144 -1.78,-1.204 -2.146,-0.078 -2.074,1.025 -2.198,2.209 -1.746,2.202 -1.425,2.223 -1.111,2.186 0.005,2.051 0.567,0.983 0,0 M 0.82,1.547 C 0.646,2.307 0.104,2.77 -0.667,2.847 -0.944,2.874 -1.225,2.86 -1.503,2.865 v 0.008 c -0.215,0.004 -0.43,0.008 -0.643,0.011 -0.043,10e-4 -0.086,0.003 -0.129,10e-4 -0.52,-0.023 -0.661,-0.125 -0.647,-0.657 0.024,-0.918 0.102,-1.834 0.16,-2.751 0.021,-0.32 0.043,-0.64 0.083,-0.958 0.063,-0.495 0.237,-0.688 0.708,-0.623 0.501,0.068 1.013,0.187 1.473,0.391 1.246,0.553 1.572,2.157 1.318,3.26"
   style="fill:#231f20;fill-opacity:1;fill-rule:nonzero;stroke:none"
   id="path362"
   inkscape:connector-curvature="0" />
      </g>
      <g
   id="g364"
   transform="translate(127.8275,316.8838)">
        <path
   d="M 0,0 C 0.713,0.077 1.407,0.387 2.151,0.193 2.266,0.163 2.525,0.291 2.544,0.38 2.576,0.54 2.506,0.746 2.416,0.894 2.367,0.976 2.189,1.016 2.07,1.013 1.667,1.003 1.264,0.957 0.86,0.94 0.505,0.926 0.145,0.897 -0.205,0.942 -0.461,0.975 -0.652,0.958 -0.85,0.78 -1.073,0.579 -1.18,0.353 -1.183,0.052 c -0.011,-1.093 -0.039,-2.186 -0.052,-3.279 -0.002,-0.144 0.037,-0.289 0.059,-0.449 0.121,-0.03 0.222,-0.074 0.324,-0.077 0.962,-0.021 1.925,-0.037 2.963,-0.055 0.019,0.241 0.035,0.449 0.053,0.675 -0.924,0.1 -1.78,-0.006 -2.668,0.128 -0.015,0.302 -0.047,0.554 -0.033,0.803 0.029,0.517 0.198,0.678 0.72,0.695 0.321,0.011 0.643,-0.014 0.963,-0.009 0.514,0.008 0.557,0.084 0.357,0.673 C 0.867,-0.832 0.211,-0.82 -0.436,-0.809 -0.531,-0.134 -0.53,-0.057 0,0"
   style="fill:#231f20;fill-opacity:1;fill-rule:nonzero;stroke:none"
   id="path366"
   inkscape:connector-curvature="0" />
      </g>
      <g
   id="g368"
   transform="translate(171.4066,314.0439)">
        <path
   d="M 0,0 C 0.199,0.084 0.411,0.168 0.356,0.454 0.295,0.774 0.051,0.767 -0.192,0.751 -0.276,0.745 -0.36,0.702 -0.443,0.703 c -0.614,0.006 -1.228,0.019 -1.829,0.03 -0.177,0.8 -0.116,0.885 0.613,0.879 0.45,-0.003 0.901,-0.033 1.35,-0.013 0.415,0.018 0.494,0.145 0.467,0.694 -0.798,0.014 -1.603,0.028 -2.454,0.043 -0.026,0.221 -0.049,0.325 -0.051,0.43 -0.018,0.957 0.141,1.116 1.106,1.114 0.301,-10e-4 0.602,-0.021 0.9,0.007 0.289,0.027 0.404,0.212 0.353,0.495 C -0.035,4.645 -0.208,4.771 -0.45,4.678 -1.016,4.461 -1.595,4.579 -2.169,4.566 -2.865,4.551 -3.345,4.097 -3.193,3.433 -3.013,2.64 -3.123,1.855 -3.084,1.068 -3.07,0.796 -3.026,0.51 -2.919,0.263 c 0.06,-0.138 0.273,-0.286 0.426,-0.295 0.727,-0.042 1.457,-0.041 2.186,-0.046 C -0.204,-0.079 -0.097,-0.041 0,0"
   style="fill:#231f20;fill-opacity:1;fill-rule:nonzero;stroke:none"
   id="path370"
   inkscape:connector-curvature="0" />
      </g>
      <g
   id="g372"
   transform="translate(184.1683,314.6045)">
        <path
   d="m 0,0 c -0.406,0.026 -0.814,0.02 -1.222,0.028 -0.958,0.019 -0.984,0.048 -0.864,0.99 0.005,0.036 0.045,0.068 0.13,0.192 0.675,-0.012 1.412,-0.025 2.164,-0.038 0.005,0.275 0.008,0.46 0.013,0.737 -0.769,0.014 -1.505,0.027 -2.252,0.04 -0.075,0.485 -0.14,0.876 0.103,1.311 0.484,-0.009 0.975,-0.04 1.464,-0.019 0.451,0.02 0.491,0.087 0.576,0.679 C -0.651,3.959 -1.405,4.078 -2.161,3.901 -2.608,3.797 -2.829,3.489 -2.832,3.011 -2.836,2.047 -2.863,1.083 -2.878,0.118 c -10e-4,-0.106 0.012,-0.215 0.032,-0.319 0.048,-0.232 0.176,-0.4 0.429,-0.405 0.914,-0.022 1.828,-0.035 2.729,-0.051 C 0.437,-0.084 0.413,-0.026 0,0"
   style="fill:#231f20;fill-opacity:1;fill-rule:nonzero;stroke:none"
   id="path374"
   inkscape:connector-curvature="0" />
      </g>
      <g
   id="g376"
   transform="translate(206.0658,318.1855)">
        <path
   d="m 0,0 c 0.247,-0.408 0.417,-0.821 0.331,-1.346 -0.271,0.005 -0.52,0.01 -0.768,0.014 C -0.605,-0.732 -0.493,-0.376 0,0 m 0.198,-2.052 c 0.283,0.004 0.419,-0.121 0.48,-0.403 0.07,-0.327 0.195,-0.642 0.302,-0.979 0.541,0.033 0.599,0.325 0.534,0.644 C 1.305,-1.766 1.069,-0.746 0.848,0.276 0.795,0.52 0.646,0.631 0.404,0.665 c -0.68,0.092 -1.459,-0.158 -1.657,-1.06 -0.197,-0.9 -0.345,-1.808 -0.295,-2.736 0.023,-0.432 0.082,-0.477 0.658,-0.508 0.041,0.514 0.083,1.033 0.129,1.602 0.366,-0.006 0.663,-0.018 0.959,-0.015"
   style="fill:#231f20;fill-opacity:1;fill-rule:nonzero;stroke:none"
   id="path378"
   inkscape:connector-curvature="0" />
      </g>
      <g
   id="g380"
   transform="translate(216.0042,318.2007)">
        <path
   d="M 0,0 C 0.352,0.076 0.707,0.152 1.064,0.183 1.487,0.219 1.673,0.299 1.636,0.522 1.578,0.865 1.306,0.862 1.041,0.864 0.762,0.866 0.477,0.912 0.206,0.868 -0.146,0.811 -0.495,0.702 -0.831,0.579 -1.042,0.502 -1.161,0.328 -1.151,0.075 c 0.031,-0.812 0.043,-1.625 0.076,-2.437 0.019,-0.476 0.283,-0.761 0.767,-0.763 0.446,-10e-4 0.891,0.087 1.337,0.122 0.281,0.021 0.452,0.138 0.432,0.435 -0.022,0.304 -0.257,0.288 -0.476,0.291 -0.421,0.006 -0.841,0.015 -1.339,0.024 0.023,0.372 0.041,0.649 0.053,0.863 0.524,0.104 0.941,0.18 1.355,0.27 0.193,0.043 0.39,0.111 0.354,0.371 C 1.365,-0.45 1.121,-0.473 0.911,-0.475 0.785,-0.477 0.661,-0.534 0.534,-0.542 0.283,-0.559 0.032,-0.558 -0.237,-0.565 -0.375,-0.2 -0.244,-0.053 0,0"
   style="fill:#231f20;fill-opacity:1;fill-rule:nonzero;stroke:none"
   id="path382"
   inkscape:connector-curvature="0" />
      </g>
      <g
   id="g384"
   transform="translate(203.1556,314.9473)">
        <path
   d="m 0,0 c -0.021,0.307 -0.213,0.453 -0.508,0.473 -0.256,0.017 -0.513,0.014 -0.768,0.044 -0.649,0.076 -1.129,0.532 -1.056,1.071 0.075,0.551 0.253,1.082 0.635,1.519 0.298,0.342 0.657,0.46 1.093,0.34 0.181,-0.049 0.362,-0.1 0.589,-0.164 0.076,0.571 0.054,0.63 -0.229,0.785 C -0.841,4.395 -1.9,4.236 -2.318,3.696 -2.916,2.925 -3.213,2.044 -3.061,1.055 -3.036,0.896 -2.969,0.72 -2.866,0.598 -2.261,-0.124 -1.447,-0.4 -0.534,-0.419 -0.191,-0.426 0.016,-0.246 0,0"
   style="fill:#231f20;fill-opacity:1;fill-rule:nonzero;stroke:none"
   id="path386"
   inkscape:connector-curvature="0" />
      </g>
      <g
   id="g388"
   transform="translate(133.2074,312.6396)">
        <path
   d="M 0,0 C 0.75,-0.028 1.501,-0.039 2.251,-0.043 2.495,-0.045 2.674,0.097 2.679,0.346 2.684,0.579 2.491,0.664 2.284,0.687 2.136,0.703 1.985,0.705 1.835,0.708 1.449,0.717 1.062,0.732 0.677,0.728 0.358,0.723 0.187,0.846 0.208,1.18 0.285,2.418 0.117,3.668 0.396,4.896 0.422,5.013 0.39,5.144 0.386,5.258 -0.122,5.377 -0.214,5.354 -0.362,5.018 -0.431,4.865 -0.476,4.69 -0.479,4.523 -0.511,3.28 -0.529,2.036 -0.551,0.792 -0.552,0.707 -0.541,0.621 -0.532,0.536 -0.501,0.212 -0.323,0.012 0,0"
   style="fill:#231f20;fill-opacity:1;fill-rule:nonzero;stroke:none"
   id="path390"
   inkscape:connector-curvature="0" />
      </g>
      <g
   id="g392"
   transform="translate(192.3382,314.6953)">
        <path
   d="m 0,0 c -0.862,0.015 -1.646,0.029 -2.409,0.042 -0.169,0.64 -0.112,2.794 0.071,3.42 0.125,0.427 0.085,0.579 -0.165,0.629 C -2.829,4.155 -3.062,4.002 -3.149,3.652 -3.187,3.508 -3.218,3.358 -3.221,3.21 -3.244,2.205 -3.267,1.199 -3.273,0.193 -3.277,-0.336 -3.097,-0.613 -2.601,-0.65 -1.753,-0.714 -0.899,-0.694 -0.013,-0.709 -0.009,-0.464 -0.005,-0.282 0,0"
   style="fill:#231f20;fill-opacity:1;fill-rule:nonzero;stroke:none"
   id="path394"
   inkscape:connector-curvature="0" />
      </g>
      <g
   id="g396"
   transform="translate(210.6693,314.6372)">
        <path
   d="M 0,0 C 0.23,0.012 0.284,0.275 0.224,0.458 0.182,0.588 0.027,0.707 -0.105,0.775 -0.209,0.83 -0.357,0.798 -0.485,0.806 -1.092,0.845 -1.131,0.882 -1.126,1.497 -1.12,2.31 -1.104,3.124 -1.094,3.938 -1.092,4.207 -1.178,4.396 -1.499,4.384 -1.802,4.373 -1.83,4.169 -1.835,3.941 L -1.864,2.271 -1.894,0.602 C -1.898,0.35 -1.848,0.067 -1.582,0.037 -1.059,-0.023 -0.526,-0.027 0,0"
   style="fill:#231f20;fill-opacity:1;fill-rule:nonzero;stroke:none"
   id="path398"
   inkscape:connector-curvature="0" />
      </g>
      <g
   id="g400"
   transform="translate(214.3119,315.4536)">
        <path
   d="m 0,0 c -0.582,0.087 -1.167,0.156 -1.836,0.242 -0.073,1.115 -0.146,2.24 -0.223,3.413 -0.524,-0.06 -0.587,-0.128 -0.629,-0.62 -0.085,-1.007 0.026,-2.005 0.133,-3.001 0.045,-0.411 0.209,-0.555 0.634,-0.576 0.492,-0.022 0.986,-0.02 1.48,-0.028 0.275,-0.005 0.507,0.058 0.601,0.377 C 0.104,-0.123 0.06,-0.009 0,0"
   style="fill:#231f20;fill-opacity:1;fill-rule:nonzero;stroke:none"
   id="path402"
   inkscape:connector-curvature="0" />
      </g>
    </g>
  </g>
</svg>