<?xml version="1.0" encoding="UTF-8" standalone="no"?>
<svg
   xmlns:dc="http://purl.org/dc/elements/1.1/"
   xmlns:cc="http://creativecommons.org/ns#"
   xmlns:rdf="http://www.w3.org/1999/02/22-rdf-syntax-ns#"
   xmlns:svg="http://www.w3.org/2000/svg"
   xmlns="http://www.w3.org/2000/svg"
   xmlns:sodipodi="http://sodipodi.sourceforge.net/DTD/sodipodi-0.dtd"
   xmlns:inkscape="http://www.inkscape.org/namespaces/inkscape"
   viewBox="0 0 149.99999 14"
   width="100%"
   xml:space="preserve"
   id="svg2"
   version="1.1"
   sodipodi:docname="11-dos.svg"
   inkscape:version="0.92.3 (unknown)"><sodipodi:namedview
   pagecolor="#ffffff"
   bordercolor="#666666"
   borderopacity="1"
   objecttolerance="10"
   gridtolerance="10"
   guidetolerance="10"
   inkscape:pageopacity="0"
   inkscape:pageshadow="2"
   inkscape:window-width="1920"
   inkscape:window-height="1031"
   id="namedview262"
   showgrid="false"
   inkscape:zoom="5.9219878"
   inkscape:cx="4.07971"
   inkscape:cy="-24.070435"
   inkscape:window-x="0"
   inkscape:window-y="27"
   inkscape:window-maximized="1"
   inkscape:current-layer="svg2" /><defs
   id="defs92" />
  
  <metadata
   id="metadata8">
    <rdf:RDF>
      <cc:Work
   rdf:about="">
        <dc:format>image/svg+xml</dc:format>
        <dc:type
   rdf:resource="http://purl.org/dc/dcmitype/StillImage" />
        <dc:title></dc:title>
      </cc:Work>
    </rdf:RDF>
  </metadata>
  <g
   id="g89"
   transform="matrix(1.333333,0,0,-1.333333,-154.70668,414.66615)">
    <g
   id="g3543">
      <g
   id="g172"
   transform="translate(165.1654,303.4429)">
        <path
   d="M 0,0 C -0.174,0.549 -0.184,3.77 -0.004,4.383 0.884,4.357 1.539,3.923 1.915,3.147 2.314,2.321 2.219,1.489 1.686,0.724 1.271,0.129 0.742,-0.187 0,0 M 1.846,-0.345 C 3.061,0.568 2.945,2.356 2.691,3.439 2.687,3.459 2.672,3.477 2.66,3.496 1.979,4.619 1.174,5.25 -0.291,5.096 -0.699,5.053 -0.808,4.949 -0.864,4.542 -0.882,4.416 -0.881,4.287 -0.881,4.158 c -0.002,-1.39 -0.004,-2.781 0.002,-4.171 0.001,-0.23 0.04,-0.459 0.068,-0.76 0.64,0 1.2,-0.049 1.746,0.018 0.317,0.039 0.648,0.213 0.911,0.41"
   style="fill:#231f20;fill-opacity:1;fill-rule:nonzero;stroke:none"
   id="path174"
   inkscape:connector-curvature="0" />
      </g>
      <g
   id="g176"
   transform="translate(170.2943,304.7012)">
        <path
   d="M 0,0 C -0.104,0.091 -0.187,0.238 -0.22,0.374 -0.28,0.621 -0.296,0.879 -0.342,1.22 -0.275,1.499 -0.227,1.862 -0.103,2.198 0.073,2.677 0.342,2.856 0.826,2.813 1.228,2.777 1.629,2.694 2.018,2.584 2.436,2.466 2.563,2.319 2.519,1.887 2.464,1.36 2.323,0.842 2.204,0.323 2.182,0.229 2.093,0.14 2.017,0.068 1.665,-0.26 0.356,-0.312 0,0 M 2.969,0.068 C 3.117,0.729 3.192,1.413 3.232,2.091 3.27,2.729 2.949,3.16 2.347,3.334 1.857,3.476 1.353,3.583 0.847,3.647 0.217,3.726 -0.459,3.258 -0.733,2.679 -1.002,2.112 -1.008,1.523 -0.988,1.074 c 0,-0.366 -0.001,-0.58 0.001,-0.794 0.004,-0.72 0.339,-1.09 1.051,-1.184 0.337,-0.045 0.672,-0.11 1.007,-0.176 0.808,-0.159 1.72,0.351 1.898,1.148"
   style="fill:#231f20;fill-opacity:1;fill-rule:nonzero;stroke:none"
   id="path178"
   inkscape:connector-curvature="0" />
      </g>
      <g
   id="g180"
   transform="translate(178.5892,308.2197)">
        <path
   d="M 0,0 C 0.3,-0.011 0.602,-0.016 0.9,0.004 1.307,0.032 1.382,0.147 1.362,0.749 0.916,0.749 0.51,0.724 0.107,0.755 -0.476,0.801 -0.969,0.637 -1.46,0.317 c -1.228,-0.801 -1.302,-2.181 -0.13,-3.056 0.138,-0.102 0.294,-0.185 0.413,-0.305 0.206,-0.206 0.345,-0.456 0.21,-0.752 -0.117,-0.261 -0.345,-0.37 -0.632,-0.347 -0.382,0.032 -0.767,0.05 -1.147,0.1 -0.508,0.067 -0.709,0.003 -0.729,-0.276 -0.017,-0.25 0.224,-0.457 0.651,-0.479 0.513,-0.027 1.035,-0.056 1.543,0.004 1.33,0.156 1.507,1.156 0.956,1.967 -0.153,0.224 -0.368,0.412 -0.575,0.592 -0.176,0.154 -0.396,0.259 -0.573,0.414 -0.24,0.211 -0.331,0.585 -0.15,0.812 C -1.207,-0.487 -0.77,0.029 0,0"
   style="fill:#231f20;fill-opacity:1;fill-rule:nonzero;stroke:none"
   id="path182"
   inkscape:connector-curvature="0" />
      </g>
    </g>
  </g>
</svg>