<?xml version="1.0" encoding="UTF-8" standalone="no"?>
<svg
   xmlns:dc="http://purl.org/dc/elements/1.1/"
   xmlns:cc="http://creativecommons.org/ns#"
   xmlns:rdf="http://www.w3.org/1999/02/22-rdf-syntax-ns#"
   xmlns:svg="http://www.w3.org/2000/svg"
   xmlns="http://www.w3.org/2000/svg"
   xmlns:sodipodi="http://sodipodi.sourceforge.net/DTD/sodipodi-0.dtd"
   xmlns:inkscape="http://www.inkscape.org/namespaces/inkscape"
   viewBox="0 0 150 14"
   width="100%"
   xml:space="preserve"
   id="svg2"
   version="1.1"
   sodipodi:docname="12-what-you-gonna-do.svg"
   inkscape:version="0.92.3 (unknown)"><sodipodi:namedview
   pagecolor="#ffffff"
   bordercolor="#666666"
   borderopacity="1"
   objecttolerance="10"
   gridtolerance="10"
   guidetolerance="10"
   inkscape:pageopacity="0"
   inkscape:pageshadow="2"
   inkscape:window-width="1920"
   inkscape:window-height="1031"
   id="namedview301"
   showgrid="false"
   inkscape:zoom="3.5212124"
   inkscape:cx="49.698792"
   inkscape:cy="3.9414306"
   inkscape:window-x="0"
   inkscape:window-y="27"
   inkscape:window-maximized="1"
   inkscape:current-layer="svg2" /><defs
   id="defs390" />
  
  <metadata
   id="metadata8">
    <rdf:RDF>
      <cc:Work
   rdf:about="">
        <dc:format>image/svg+xml</dc:format>
        <dc:type
   rdf:resource="http://purl.org/dc/dcmitype/StillImage" />
        <dc:title></dc:title>
      </cc:Work>
    </rdf:RDF>
  </metadata>
  <g
   id="g387"
   transform="matrix(1.333333,0,0,-1.333333,-154.23308,402.27938)">
    <g
   id="g3577">
      <g
   id="g588"
   transform="translate(137.054,296.2402)">
        <path
   d="m 0,0 c -0.144,-0.213 -0.271,-0.438 -0.421,-0.646 -0.106,-0.149 -0.239,-0.279 -0.36,-0.417 -0.054,0.017 -0.108,0.034 -0.161,0.05 -0.12,0.691 -0.229,1.383 -0.362,2.07 -0.043,0.227 -0.11,0.465 -0.233,0.654 -0.074,0.115 -0.276,0.199 -0.422,0.201 -0.21,0.002 -0.257,-0.192 -0.25,-0.377 0.005,-0.128 0.02,-0.256 0.038,-0.382 0.15,-0.992 0.488,-1.952 0.464,-2.973 -0.007,-0.273 0.061,-0.577 0.383,-0.677 0.322,-0.1 0.59,0.015 0.785,0.289 0.212,0.296 0.412,0.602 0.638,0.887 0.098,0.124 0.292,0.316 0.366,0.286 0.15,-0.059 0.286,-0.232 0.361,-0.389 0.119,-0.25 0.164,-0.534 0.277,-0.788 0.206,-0.468 0.788,-0.523 1.085,-0.109 0.086,0.121 0.158,0.258 0.207,0.398 0.271,0.767 0.537,1.535 0.795,2.306 C 3.251,0.564 3.31,0.757 3.31,0.945 3.311,1.097 3.265,1.335 3.165,1.383 2.94,1.492 2.761,1.33 2.662,1.119 2.58,0.945 2.516,0.762 2.453,0.58 2.306,0.155 2.171,-0.274 2.016,-0.696 1.939,-0.902 1.826,-1.093 1.687,-1.378 1.474,-0.871 1.305,-0.479 1.143,-0.084 1.039,0.169 0.999,0.509 0.665,0.536 0.319,0.563 0.167,0.248 0,0"
   style="fill:#231f20;fill-opacity:1;fill-rule:nonzero;stroke:none"
   id="path590"
   inkscape:connector-curvature="0" />
      </g>
      <g
   id="g592"
   transform="translate(183.0843,294.0259)">
        <path
   d="M 0,0 C 0.603,0.142 0.626,0.153 0.665,0.664 0.703,1.151 0.704,1.642 1.022,2.208 1.169,1.926 1.259,1.738 1.362,1.558 1.615,1.113 1.864,0.665 2.137,0.232 2.28,0.006 2.549,-0.05 2.766,0.047 2.905,0.11 3.021,0.319 3.066,0.485 3.37,1.593 3.299,2.734 3.318,3.866 3.32,3.971 3.315,4.094 3.264,4.178 3.205,4.273 3.087,4.4 3.001,4.395 2.876,4.388 2.712,4.303 2.647,4.2 2.575,4.085 2.582,3.914 2.577,3.766 2.56,3.209 2.556,2.652 2.536,2.095 2.531,1.937 2.491,1.781 2.461,1.591 2.155,1.673 2.117,1.904 2.03,2.082 1.717,2.715 1.42,3.356 1.104,3.988 0.894,4.413 0.836,4.43 0.212,4.337 0.37,2.898 -0.292,1.484 0,0"
   style="fill:#231f20;fill-opacity:1;fill-rule:nonzero;stroke:none"
   id="path594"
   inkscape:connector-curvature="0" />
      </g>
      <g
   id="g596"
   transform="translate(173.9554,294.8394)">
        <path
   d="m 0,0 c 0.502,-0.316 1.066,-0.437 1.65,-0.458 0.45,-0.015 0.896,0 1.321,-0.203 0.111,-0.053 0.276,0.008 0.467,0.019 C 3.512,-0.037 3.591,0.53 3.648,1.1 3.671,1.324 3.609,1.583 3.356,1.603 2.832,1.647 2.301,1.646 1.774,1.615 1.677,1.609 1.545,1.382 1.521,1.241 1.51,1.172 1.696,1.032 1.817,0.987 2.066,0.893 2.332,0.84 2.675,0.748 2.41,0.23 2.039,0.18 1.681,0.247 1.307,0.316 0.949,0.478 0.589,0.612 0.3,0.719 0.221,0.947 0.277,1.234 0.376,1.738 0.659,2.129 1.016,2.485 1.284,2.754 1.576,2.835 1.948,2.753 2.237,2.69 2.54,2.682 2.837,2.667 3.035,2.659 3.157,2.762 3.166,2.976 3.175,3.2 3.098,3.336 2.852,3.371 2.577,3.409 2.31,3.489 2.036,3.535 1.228,3.672 0.53,3.51 0.127,2.72 -0.104,2.266 -0.309,1.795 -0.477,1.315 -0.676,0.746 -0.508,0.32 0,0"
   style="fill:#231f20;fill-opacity:1;fill-rule:nonzero;stroke:none"
   id="path598"
   inkscape:connector-curvature="0" />
      </g>
      <g
   id="g600"
   transform="translate(162.7992,295.8911)">
        <path
   d="M 0,0 C 0.013,0.209 0.072,0.422 0.148,0.619 0.261,0.909 0.427,1.138 0.804,1.125 1.093,1.115 1.409,1.252 1.669,1.175 2.3,0.988 2.435,0.697 2.414,-0.121 2.411,-0.271 2.419,-0.422 2.403,-0.571 2.329,-1.27 2.064,-1.48 1.361,-1.503 -0.057,-1.55 -0.062,-0.994 0,0 M -0.468,-1.627 C 0.1,-2.344 0.901,-2.473 1.731,-2.389 2.526,-2.31 3.1,-1.621 3.152,-0.808 3.168,-0.573 3.164,-0.336 3.169,-0.101 3.174,0.135 3.166,0.372 3.187,0.606 3.233,1.128 2.99,1.458 2.536,1.675 2.062,1.901 1.569,1.998 1.043,1.994 0.255,1.988 -0.517,1.483 -0.656,0.717 -0.767,0.116 -0.738,-0.515 -0.728,-1.132 c 0.003,-0.168 0.145,-0.35 0.26,-0.495"
   style="fill:#231f20;fill-opacity:1;fill-rule:nonzero;stroke:none"
   id="path602"
   inkscape:connector-curvature="0" />
      </g>
      <g
   id="g604"
   transform="translate(198.5072,297.8545)">
        <path
   d="M 0,0 C 0.65,0.18 1.113,-0.043 1.556,-0.305 1.669,-0.372 1.783,-0.524 1.802,-0.651 1.921,-1.466 1.663,-2.176 1.077,-2.739 0.8,-3.005 0.431,-3.151 -0.048,-2.988 -0.104,-2.008 -0.048,-1.019 0,0 M 2.266,-2.452 C 2.51,-1.839 2.529,-1.204 2.545,-0.56 2.558,-0.064 2.343,0.252 1.907,0.451 1.311,0.723 0.686,0.844 0.033,0.794 -0.592,0.747 -0.918,0.351 -0.899,-0.278 c 0.028,-0.917 0.04,-1.836 0.058,-2.754 0.005,-0.23 0.011,-0.46 0.018,-0.768 0.382,-0.008 0.72,0.008 1.054,-0.026 0.847,-0.086 1.68,0.483 2.035,1.374"
   style="fill:#231f20;fill-opacity:1;fill-rule:nonzero;stroke:none"
   id="path606"
   inkscape:connector-curvature="0" />
      </g>
      <g
   id="g608"
   transform="translate(142.891,295.7251)">
        <path
   d="m 0,0 c 0.602,-0.012 1.216,-0.025 1.911,-0.04 0.019,-0.585 0.036,-1.152 0.056,-1.762 0.714,0.005 0.82,0.084 0.851,0.641 0.022,0.386 0.099,0.796 -10e-4,1.154 C 2.61,0.737 2.679,1.48 2.675,2.227 2.675,2.374 2.679,2.552 2.602,2.658 2.516,2.776 2.327,2.905 2.205,2.887 2.093,2.87 1.965,2.676 1.925,2.538 1.887,2.406 1.964,2.246 1.975,2.096 2.006,1.634 2.073,1.164 1.828,0.763 1.184,0.776 0.594,0.789 0.026,0.801 -0.202,1.248 -0.022,1.603 0.107,1.962 0.183,2.17 0.261,2.38 0.026,2.536 -0.179,2.671 -0.458,2.587 -0.608,2.288 -0.729,2.048 -0.8,1.769 -0.83,1.5 -0.917,0.736 -0.98,-0.031 -1.037,-0.797 c -0.025,-0.341 -0.04,-0.686 -0.008,-1.025 0.04,-0.427 0.069,-0.429 0.643,-0.451 C -0.356,-1.516 -0.368,-0.739 0,0"
   style="fill:#231f20;fill-opacity:1;fill-rule:nonzero;stroke:none"
   id="path610"
   inkscape:connector-curvature="0" />
      </g>
      <g
   id="g612"
   transform="translate(190.2113,294.8628)">
        <path
   d="M 0,0 C 0.147,1.125 0.349,2.246 0.288,3.388 0.265,3.814 0.214,3.857 -0.341,3.926 -0.613,3.139 -0.21,2.219 -0.79,1.379 -0.899,1.61 -0.961,1.761 -1.039,1.902 -1.265,2.314 -1.469,2.744 -1.734,3.13 -2.08,3.633 -2.429,3.598 -2.685,3.058 -2.782,2.849 -2.868,2.614 -2.879,2.387 -2.917,1.594 -2.926,0.8 -2.931,0.006 c -10e-4,-0.166 0.039,-0.344 0.105,-0.498 0.099,-0.236 0.378,-0.262 0.499,-0.039 0.088,0.16 0.125,0.363 0.136,0.549 0.026,0.492 0.021,0.986 0.04,1.48 0.005,0.136 0.048,0.271 0.101,0.543 0.624,-0.839 0.638,-1.872 1.403,-2.495 C -0.351,-0.438 -0.049,-0.375 0,0"
   style="fill:#231f20;fill-opacity:1;fill-rule:nonzero;stroke:none"
   id="path614"
   inkscape:connector-curvature="0" />
      </g>
      <g
   id="g616"
   transform="translate(193.6107,297.9712)">
        <path
   d="m 0,0 c 0.063,-0.365 0.13,-0.75 0.208,-1.199 -0.459,0.01 -0.772,0.017 -1.076,0.023 C -1.045,-0.216 -0.801,0.129 0,0 m -1.955,-3.583 c 0.333,0.228 0.409,0.34 0.449,0.704 0.02,0.17 -0.026,0.36 0.037,0.507 0.067,0.153 0.221,0.365 0.352,0.376 0.478,0.038 0.971,0.085 1.47,-0.087 C 0.359,-2.292 0.369,-2.482 0.37,-2.671 0.371,-2.885 0.352,-3.1 0.362,-3.313 0.385,-3.759 0.443,-3.802 0.994,-3.795 1.266,-2.706 1.084,-0.456 0.646,0.468 0.59,0.587 0.457,0.745 0.348,0.754 -0.16,0.799 -0.674,0.865 -1.17,0.651 -1.408,0.548 -1.548,0.39 -1.609,0.143 -1.713,-0.27 -1.826,-0.681 -1.934,-1.093 c -0.16,-0.621 -0.326,-1.24 -0.28,-1.893 0.017,-0.234 -0.015,-0.48 0.259,-0.597"
   style="fill:#231f20;fill-opacity:1;fill-rule:nonzero;stroke:none"
   id="path618"
   inkscape:connector-curvature="0" />
      </g>
      <g
   id="g620"
   transform="translate(148.4095,297.3799)">
        <path
   d="M 0,0 C 0.112,-0.309 0.187,-0.482 0.238,-0.662 0.428,-1.317 0.307,-1.432 -0.429,-1.277 -0.49,-0.821 -0.299,-0.461 0,0 m -0.074,-2.121 c 0.107,-0.003 0.215,0 0.321,-0.011 0.445,-0.045 0.538,-0.148 0.599,-0.598 0.039,-0.294 0.084,-0.591 0.16,-0.877 0.061,-0.229 0.242,-0.382 0.485,-0.32 0.285,0.074 0.205,0.323 0.193,0.536 -0.03,0.465 -0.037,0.931 -0.072,1.395 -0.013,0.182 -0.059,0.368 -0.129,0.536 -0.112,0.272 -0.27,0.524 -0.381,0.797 -0.168,0.414 -0.251,0.876 -0.482,1.25 -0.413,0.672 -1.122,0.622 -1.388,-0.103 -0.375,-1.022 -0.685,-2.07 -0.982,-3.119 -0.093,-0.325 -0.055,-0.688 0.452,-0.944 0.105,0.258 0.224,0.458 0.268,0.674 0.157,0.77 0.185,0.803 0.956,0.784"
   style="fill:#231f20;fill-opacity:1;fill-rule:nonzero;stroke:none"
   id="path622"
   inkscape:connector-curvature="0" />
      </g>
      <g
   id="g624"
   transform="translate(181.1419,295.354)">
        <path
   d="m 0,0 c -0.238,-0.44 -0.603,-0.624 -1.057,-0.502 -0.396,0.105 -0.579,0.377 -0.588,0.872 -10e-4,0.086 0.004,0.172 0.007,0.319 -0.034,0.409 0.087,0.815 0.42,1.173 0.214,0.229 0.403,0.354 0.72,0.22 C -0.155,1.937 0.203,1.811 0.233,1.372 0.267,0.9 0.234,0.434 0,0 M 0.525,2.384 C -0.059,3.006 -0.809,2.99 -1.562,2.931 -1.674,2.922 -1.813,2.766 -1.867,2.645 -2.229,1.838 -2.441,1.005 -2.396,0.1 c 0.025,-0.486 0.199,-0.842 0.584,-1.068 0.329,-0.192 0.697,-0.343 1.067,-0.425 0.508,-0.113 1.093,0.223 1.325,0.697 0.258,0.528 0.417,1.079 0.362,1.582 0.023,1.042 0.015,1.038 -0.417,1.498"
   style="fill:#231f20;fill-opacity:1;fill-rule:nonzero;stroke:none"
   id="path626"
   inkscape:connector-curvature="0" />
      </g>
      <g
   id="g628"
   transform="translate(202.5091,296.6968)">
        <path
   d="M 0,0 C 0.235,0.426 0.42,0.526 0.87,0.466 0.954,0.455 1.037,0.436 1.12,0.419 1.868,0.266 1.902,0.223 1.885,-0.55 1.875,-0.889 1.922,-1.27 1.513,-1.416 1.079,-1.571 0.674,-1.502 0.349,-1.142 0.277,-1.062 0.199,-0.99 0.129,-0.91 -0.193,-0.547 -0.215,-0.388 0,0 m 1.858,-2.186 c 0.342,0.047 0.553,0.236 0.63,0.55 0.086,0.349 0.127,0.71 0.187,1.066 -0.013,0.003 -0.027,0.005 -0.039,0.007 10e-4,0.085 0.004,0.171 0.005,0.257 C 2.646,0.592 2.433,0.863 1.54,1.125 1.426,1.158 1.312,1.238 1.229,1.326 0.896,1.678 0.782,1.713 0.372,1.552 -0.266,1.3 -0.542,0.729 -0.785,0.165 -1.074,-0.51 -0.857,-1.329 -0.336,-1.693 0.324,-2.155 1.062,-2.297 1.858,-2.186"
   style="fill:#231f20;fill-opacity:1;fill-rule:nonzero;stroke:none"
   id="path630"
   inkscape:connector-curvature="0" />
      </g>
      <g
   id="g632"
   transform="translate(168.18,294.9722)">
        <path
   d="m 0,0 c -0.487,0.661 -0.602,1.399 -0.489,2.196 0.033,0.242 0.014,0.491 0.021,0.846 C -0.942,2.938 -1.168,2.753 -1.2,2.425 -1.294,1.454 -1.237,0.495 -0.775,-0.392 -0.497,-0.926 -0.056,-1.193 0.566,-1.224 1.199,-1.256 1.621,-1.011 1.94,-0.48 2.503,0.457 2.478,1.48 2.431,2.51 2.426,2.611 2.385,2.744 2.313,2.8 2.207,2.884 2.045,2.971 1.932,2.946 1.817,2.921 1.696,2.775 1.647,2.654 1.606,2.549 1.665,2.405 1.677,2.278 1.747,1.52 1.682,0.784 1.321,0.094 0.961,-0.599 0.468,-0.634 0,0"
   style="fill:#231f20;fill-opacity:1;fill-rule:nonzero;stroke:none"
   id="path634"
   inkscape:connector-curvature="0" />
      </g>
      <g
   id="g636"
   transform="translate(159.0765,295.811)">
        <path
   d="M 0,0 C 0.291,-0.051 0.379,-0.232 0.375,-0.504 0.37,-0.889 0.378,-1.275 0.39,-1.66 c 0.002,-0.054 0.058,-0.107 0.096,-0.172 0.169,-0.003 0.335,-0.007 0.613,-0.013 0.007,0.391 0.026,0.709 0.018,1.026 -0.009,0.385 0.077,0.698 0.412,0.953 0.193,0.146 0.34,0.392 0.427,0.624 0.173,0.46 0.303,0.937 0.425,1.414 C 2.421,2.328 2.417,2.515 2.368,2.667 2.338,2.761 2.187,2.864 2.084,2.871 1.987,2.877 1.851,2.784 1.791,2.695 1.71,2.575 1.682,2.418 1.638,2.275 1.531,1.927 1.446,1.571 1.32,1.231 1.155,0.785 0.868,0.648 0.413,0.751 0.021,0.839 -0.108,1.17 -0.247,1.482 -0.367,1.755 -0.43,2.058 -0.576,2.315 -0.743,2.609 -1.009,2.593 -1.165,2.288 -1.289,2.046 -1.354,1.774 -1.412,1.613 -1.126,1.198 -0.88,0.88 -0.679,0.536 -0.517,0.258 -0.319,0.056 0,0"
   style="fill:#231f20;fill-opacity:1;fill-rule:nonzero;stroke:none"
   id="path638"
   inkscape:connector-curvature="0" />
      </g>
      <g
   id="g640"
   transform="translate(154.0726,297.5918)">
        <path
   d="M 0,0 C 0.247,0.006 0.507,0.058 0.493,0.37 0.48,0.638 0.228,0.667 0.014,0.7 -0.028,0.707 -0.071,0.706 -0.114,0.707 -0.991,0.725 -1.868,0.759 -2.745,0.752 -2.989,0.75 -3.239,0.647 -3.475,0.56 -3.681,0.483 -3.797,0.295 -3.663,0.104 c 0.074,-0.105 0.278,-0.166 0.424,-0.164 0.272,0.003 0.543,0.083 0.817,0.098 0.285,0.016 0.429,-0.16 0.445,-0.434 0.042,-0.703 0.083,-1.404 0.117,-2.106 0.012,-0.278 -0.017,-0.558 0.009,-0.834 0.028,-0.294 0.144,-0.537 0.555,-0.522 0.285,0.487 0.389,1.004 0.289,1.579 -0.097,0.566 -0.155,1.139 -0.214,1.711 -0.016,0.161 0.03,0.328 0.054,0.568 0.41,0 0.789,-0.008 1.167,0"
   style="fill:#231f20;fill-opacity:1;fill-rule:nonzero;stroke:none"
   id="path642"
   inkscape:connector-curvature="0" />
      </g>
      <g
   id="g644"
   transform="translate(209.3763,297.875)">
        <path
   d="M 0,0 C -0.115,0.597 -0.632,1.086 -1.236,1.129 -1.706,1.162 -2.178,1.17 -2.648,1.159 -3.189,1.146 -3.281,0.963 -3.049,0.411 -2.319,0.312 -1.511,0.638 -0.81,0.056 -0.938,-0.466 -1.32,-0.574 -1.686,-0.687 -2.16,-0.833 -2.385,-1.133 -2.365,-1.637 -2.351,-2 -2.38,-2.364 -2.38,-2.728 c -10e-4,-0.249 0.047,-0.489 0.359,-0.509 0.356,-0.023 0.337,0.25 0.344,0.486 0.013,0.403 0.019,0.807 0.027,1.202 0.419,0.191 0.796,0.339 1.149,0.531 C -0.107,-0.803 0.074,-0.391 0,0"
   style="fill:#231f20;fill-opacity:1;fill-rule:nonzero;stroke:none"
   id="path646"
   inkscape:connector-curvature="0" />
      </g>
      <g
   id="g648"
   transform="translate(207.4701,294.231)">
        <path
   d="m 0,0 c -0.272,0 -0.48,-0.249 -0.479,-0.573 0,-0.305 0.234,-0.544 0.518,-0.531 0.292,0.014 0.496,0.251 0.482,0.563 C 0.508,-0.24 0.276,0 0,0"
   style="fill:#231f20;fill-opacity:1;fill-rule:nonzero;stroke:none"
   id="path650"
   inkscape:connector-curvature="0" />
      </g>
    </g>
  </g>
</svg>