<?xml version="1.0" encoding="UTF-8" standalone="no"?>
<svg
   xmlns:dc="http://purl.org/dc/elements/1.1/"
   xmlns:cc="http://creativecommons.org/ns#"
   xmlns:rdf="http://www.w3.org/1999/02/22-rdf-syntax-ns#"
   xmlns:svg="http://www.w3.org/2000/svg"
   xmlns="http://www.w3.org/2000/svg"
   xmlns:sodipodi="http://sodipodi.sourceforge.net/DTD/sodipodi-0.dtd"
   xmlns:inkscape="http://www.inkscape.org/namespaces/inkscape"
   viewBox="0 0 150 14.000001"
   width="100%"
   xml:space="preserve"
   id="svg2"
   version="1.1"
   sodipodi:docname="13-letter-feat-maxine.svg"
   inkscape:version="0.92.3 (unknown)"><sodipodi:namedview
   pagecolor="#ffffff"
   bordercolor="#666666"
   borderopacity="1"
   objecttolerance="10"
   gridtolerance="10"
   guidetolerance="10"
   inkscape:pageopacity="0"
   inkscape:pageshadow="2"
   inkscape:window-width="1920"
   inkscape:window-height="1031"
   id="namedview346"
   showgrid="false"
   inkscape:zoom="3.482568"
   inkscape:cx="50.250275"
   inkscape:cy="4.3186135"
   inkscape:window-x="0"
   inkscape:window-y="27"
   inkscape:window-maximized="1"
   inkscape:current-layer="svg2" /><defs
   id="defs350" />
  
  <metadata
   id="metadata8">
    <rdf:RDF>
      <cc:Work
   rdf:about="">
        <dc:format>image/svg+xml</dc:format>
        <dc:type
   rdf:resource="http://purl.org/dc/dcmitype/StillImage" />
        <dc:title></dc:title>
      </cc:Work>
    </rdf:RDF>
  </metadata>
  <g
   id="g347"
   transform="matrix(1.333333,0,0,-1.333333,-152.82362,388.2213)">
    <g
   id="g3617">
      <g
   id="g512"
   transform="translate(159.6009,286.6426)">
        <path
   d="M 0,0 C -0.125,0.383 0.076,0.717 0.184,1.052 0.271,1.326 0.812,1.485 1.08,1.372 1.314,1.272 1.357,0.98 1.177,0.715 0.994,0.448 0.465,0.124 0,0 M 1.626,-2.096 C 1.82,-2.205 2.067,-2.258 2.293,-2.263 2.432,-2.265 2.573,-2.129 2.714,-2.055 2.633,-1.922 2.579,-1.758 2.467,-1.662 2.241,-1.47 1.976,-1.325 1.74,-1.145 1.004,-0.577 1.006,-0.573 1.689,0.022 2.041,0.33 2.212,0.94 2.063,1.362 1.811,2.079 1.725,2.14 0.956,2.153 0.87,2.154 0.784,2.16 0.698,2.156 0.014,2.129 -0.498,1.761 -1,1.338 -1.4,1 -1.293,0.565 -1.32,0.15 c -0.014,-0.214 -0.002,-0.429 -0.017,-0.643 -0.05,-0.739 0.307,-1.37 0.544,-2.031 0.033,-0.091 0.204,-0.204 0.287,-0.188 0.119,0.024 0.264,0.138 0.31,0.249 0.071,0.171 0.083,0.373 0.095,0.564 0.019,0.296 0.016,0.595 0.022,0.893 0.05,0.033 0.1,0.067 0.151,0.099 0.282,-0.214 0.565,-0.425 0.844,-0.642 0.237,-0.183 0.452,-0.403 0.71,-0.547"
   style="fill:#231f20;fill-opacity:1;fill-rule:nonzero;stroke:none"
   id="path514"
   inkscape:connector-curvature="0" />
      </g>
      <g
   id="g516"
   transform="translate(154.1302,283.7861)">
        <path
   d="M 0,0 C 0.868,-0.081 1.746,-0.052 2.615,-0.07 2.667,0.497 2.568,0.636 2.068,0.67 1.598,0.701 1.125,0.688 0.654,0.709 0.181,0.73 0.048,0.919 0.168,1.363 0.244,1.646 0.415,1.804 0.721,1.796 1.149,1.785 1.578,1.764 2.006,1.779 2.418,1.794 2.496,1.911 2.492,2.464 1.758,2.479 1.018,2.494 0.256,2.511 0.109,3.504 0.203,3.614 1.066,3.601 1.152,3.6 1.238,3.602 1.323,3.595 1.665,3.568 2.007,3.51 2.347,3.523 2.48,3.529 2.684,3.668 2.716,3.786 2.745,3.893 2.62,4.109 2.505,4.174 2.327,4.273 2.103,4.302 1.895,4.326 1.513,4.372 1.126,4.371 0.747,4.427 0.052,4.531 -0.528,4.041 -0.572,3.323 -0.618,2.578 -0.684,1.834 -0.769,1.093 -0.846,0.432 -0.655,0.061 0,0"
   style="fill:#231f20;fill-opacity:1;fill-rule:nonzero;stroke:none"
   id="path518"
   inkscape:connector-curvature="0" />
      </g>
      <g
   id="g520"
   transform="translate(185.5003,284.6201)">
        <path
   d="M 0,0 C 0.119,0.683 0.239,1.366 0.382,2.181 0.802,1.812 0.86,1.472 0.929,1.141 0.989,0.844 1.17,0.703 1.462,0.685 1.772,0.665 1.853,0.898 1.935,1.121 1.979,1.241 1.988,1.374 2.036,1.491 2.142,1.748 2.245,2.008 2.382,2.247 2.433,2.336 2.589,2.433 2.676,2.415 2.772,2.396 2.88,2.264 2.919,2.158 2.968,2.022 2.962,1.863 2.961,1.715 2.957,1.265 2.938,0.815 2.938,0.365 2.938,0.153 2.94,-0.065 2.995,-0.267 3.021,-0.358 3.172,-0.47 3.271,-0.474 3.37,-0.478 3.518,-0.382 3.565,-0.289 3.63,-0.164 3.632,-0.001 3.638,0.146 3.654,0.617 3.681,1.089 3.663,1.56 3.648,1.983 3.624,2.415 3.528,2.825 3.396,3.387 3.282,3.426 2.722,3.429 2.406,3.431 2.198,3.283 2.006,3.068 1.826,2.867 1.642,2.671 1.426,2.437 1.312,2.585 1.218,2.674 1.164,2.782 1.031,3.056 0.836,3.243 0.522,3.232 0.182,3.22 -0.008,2.991 -0.136,2.699 -0.457,1.962 -0.644,1.2 -0.572,0.39 -0.535,-0.028 -0.522,-0.036 0,0"
   style="fill:#231f20;fill-opacity:1;fill-rule:nonzero;stroke:none"
   id="path522"
   inkscape:connector-curvature="0" />
      </g>
      <g
   id="g524"
   transform="translate(142.2201,287.3779)">
        <path
   d="m 0,0 c -0.014,0.254 -0.022,0.439 -0.036,0.694 -0.55,0.022 -1.061,0.033 -1.57,0.067 -0.253,0.017 -0.516,0.04 -0.751,0.125 -0.588,0.213 -0.87,0.04 -0.89,-0.613 -0.029,-0.921 -0.042,-1.844 -0.062,-2.767 -0.005,-0.296 -0.011,-0.593 -0.017,-0.864 0.722,-0.28 1.738,-0.419 2.399,-0.349 0.41,0.045 0.434,0.079 0.381,0.638 -0.393,0.027 -0.8,0.033 -1.198,0.087 -0.845,0.111 -1.047,0.507 -0.654,1.335 0.445,-0.01 0.915,-0.022 1.384,-0.029 0.346,-0.005 0.623,0.09 0.723,0.539 -0.716,0.252 -1.459,0.045 -2.192,0.204 0.006,0.316 0.012,0.617 0.02,0.984 C -1.608,0.033 -0.823,0.017 0,0"
   style="fill:#231f20;fill-opacity:1;fill-rule:nonzero;stroke:none"
   id="path526"
   inkscape:connector-curvature="0" />
      </g>
      <g
   id="g528"
   transform="translate(204.7894,287.666)">
        <path
   d="m 0,0 c -0.096,0.017 -0.273,-0.065 -0.308,-0.148 -0.097,-0.231 -0.158,-0.483 -0.198,-0.732 -0.047,-0.289 -0.057,-0.584 -0.087,-0.913 -0.434,0.039 -0.522,0.299 -0.643,0.522 -0.225,0.414 -0.445,0.83 -0.666,1.247 -0.116,0.217 -0.304,0.29 -0.537,0.27 -0.247,-0.02 -0.39,-0.171 -0.45,-0.395 -0.038,-0.144 -0.046,-0.296 -0.06,-0.445 -0.054,-0.531 -0.124,-1.061 -0.152,-1.594 -0.013,-0.291 0.002,-0.602 0.09,-0.876 0.042,-0.13 0.285,-0.196 0.438,-0.29 0.069,0.144 0.17,0.283 0.201,0.436 0.038,0.186 -0.004,0.387 0.026,0.575 0.048,0.296 -0.021,0.632 0.281,0.951 0.264,-0.481 0.507,-0.903 0.729,-1.336 0.149,-0.289 0.384,-0.385 0.685,-0.379 0.283,0.004 0.399,0.205 0.505,0.425 0.347,0.714 0.326,1.498 0.437,2.256 0.01,0.062 0.01,0.145 -0.024,0.188 C 0.192,-0.144 0.101,-0.017 0,0"
   style="fill:#231f20;fill-opacity:1;fill-rule:nonzero;stroke:none"
   id="path530"
   inkscape:connector-curvature="0" />
      </g>
      <g
   id="g532"
   transform="translate(191.3919,286.5029)">
        <path
   d="M 0,0 C -0.135,0.187 -0.285,0.312 -0.262,0.381 -0.229,0.483 -0.079,0.589 0.035,0.606 0.103,0.617 0.266,0.46 0.262,0.384 0.257,0.281 0.133,0.184 0,0 m 1.647,-2.202 c 0.005,0.258 0.009,0.511 0.016,0.764 C 1.691,-0.475 1.361,0.371 0.788,1.123 0.341,1.708 -0.488,1.632 -0.815,0.967 -1.041,0.508 -1.25,0.028 -1.369,-0.466 c -0.094,-0.386 -0.066,-0.808 -0.04,-1.211 0.014,-0.228 0.187,-0.392 0.449,-0.353 0.235,0.034 0.301,0.212 0.294,0.426 -0.005,0.192 -0.033,0.386 -0.015,0.577 0.011,0.116 0.059,0.28 0.144,0.33 0.375,0.218 0.799,0.183 1.181,0.054 0.315,-0.107 0.264,-0.449 0.27,-0.728 0.004,-0.169 0.014,-0.342 0.051,-0.507 0.065,-0.299 0.248,-0.438 0.682,-0.324"
   style="fill:#231f20;fill-opacity:1;fill-rule:nonzero;stroke:none"
   id="path534"
   inkscape:connector-curvature="0" />
      </g>
      <g
   id="g536"
   transform="translate(173.5755,284.4492)">
        <path
   d="M 0,0 C 0.231,0.007 0.506,0.071 0.471,0.398 0.437,0.706 0.181,0.723 -0.066,0.726 -0.43,0.729 -0.795,0.729 -1.157,0.758 -1.275,0.768 -1.386,0.864 -1.5,0.921 c 0.019,0.073 0.037,0.145 0.055,0.219 0.462,-0.003 0.924,0 1.384,-0.012 0.255,-0.007 0.427,0.076 0.428,0.35 0.001,0.271 -0.173,0.361 -0.424,0.364 -0.341,0.005 -0.686,0.005 -1.025,0.049 -0.111,0.014 -0.272,0.143 -0.297,0.246 -0.051,0.223 0.134,0.283 0.32,0.29 0.171,0.006 0.349,-0.028 0.513,0.007 0.411,0.087 0.962,-0.306 1.213,0.341 -0.236,0.606 -0.771,0.267 -1.166,0.359 -0.269,0.062 -0.556,0.041 -0.825,0.097 -0.558,0.115 -0.768,0.01 -0.81,-0.546 -0.05,-0.662 -0.055,-1.328 -0.038,-1.99 0.01,-0.398 0.22,-0.639 0.568,-0.667 C -1.071,-0.014 -0.534,-0.015 0,0"
   style="fill:#231f20;fill-opacity:1;fill-rule:nonzero;stroke:none"
   id="path538"
   inkscape:connector-curvature="0" />
      </g>
      <g
   id="g540"
   transform="translate(176.804,286.6084)">
        <path
   d="M 0,0 C 0.087,-0.217 0.151,-0.406 -0.108,-0.486 -0.17,-0.505 -0.324,-0.418 -0.34,-0.355 -0.396,-0.131 -0.299,0.008 0,0 m -1.338,-2.319 c 0.154,0.338 0.311,0.683 0.485,1.067 0.207,-0.004 0.398,0.001 0.587,-0.014 0.582,-0.046 0.662,-0.126 0.773,-0.728 0.022,-0.124 0.042,-0.26 0.106,-0.363 0.047,-0.077 0.168,-0.15 0.252,-0.146 0.087,0.005 0.204,0.088 0.242,0.168 0.052,0.109 0.071,0.252 0.055,0.375 C 1.061,-1.136 0.961,-0.31 0.819,0.508 0.795,0.648 0.582,0.845 0.439,0.858 0.063,0.896 -0.325,0.873 -0.703,0.826 -1.122,0.773 -1.307,0.488 -1.352,0.073 -1.385,-0.242 -1.457,-0.558 -1.546,-0.862 -1.623,-1.128 -1.77,-1.374 -1.848,-1.64 c -0.121,-0.408 0,-0.564 0.51,-0.679"
   style="fill:#231f20;fill-opacity:1;fill-rule:nonzero;stroke:none"
   id="path542"
   inkscape:connector-curvature="0" />
      </g>
      <g
   id="g544"
   transform="translate(197.9583,284.832)">
        <path
   d="M 0,0 C 0.345,-0.155 0.537,-0.304 0.742,-0.321 1.252,-0.366 1.768,-0.36 2.281,-0.357 2.488,-0.355 2.746,-0.358 2.766,-0.062 2.788,0.285 2.513,0.273 2.277,0.298 2.172,0.309 2.043,0.292 1.967,0.347 1.842,0.437 1.665,0.57 1.66,0.692 1.639,1.24 1.669,1.791 1.682,2.41 2.02,2.354 2.266,2.307 2.514,2.273 2.877,2.223 3.063,2.441 2.9,2.764 2.824,2.913 2.641,3.096 2.496,3.105 1.75,3.154 1,3.157 0.252,3.164 -0.024,3.167 -0.101,2.972 -0.11,2.732 -0.12,2.481 -0.029,2.32 0.242,2.296 0.428,2.279 0.612,2.251 0.826,2.225 0.924,1.36 1.164,0.516 0,0"
   style="fill:#231f20;fill-opacity:1;fill-rule:nonzero;stroke:none"
   id="path546"
   inkscape:connector-curvature="0" />
      </g>
      <g
   id="g548"
   transform="translate(209.7845,286.0967)">
        <path
   d="M 0,0 C 0.033,1.592 0.021,1.585 -0.482,2.526 -0.687,2.908 -0.988,3.162 -1.353,3.352 -1.469,3.412 -1.731,3.437 -1.75,3.396 -1.821,3.239 -1.896,3.016 -1.833,2.879 -1.73,2.655 -1.545,2.454 -1.355,2.287 -0.898,1.885 -0.762,1.36 -0.74,0.79 -0.727,0.427 -0.781,0.059 -0.752,-0.303 c 0.063,-0.745 -0.197,-1.338 -0.759,-1.817 -0.112,-0.097 -0.24,-0.211 -0.281,-0.343 -0.044,-0.141 -0.041,-0.335 0.024,-0.464 0.094,-0.187 0.285,-0.154 0.448,-0.054 0.09,0.054 0.179,0.115 0.259,0.185 0.721,0.641 1.206,1.385 1.055,2.41 C -0.024,-0.26 -0.003,-0.129 0,0"
   style="fill:#231f20;fill-opacity:1;fill-rule:nonzero;stroke:none"
   id="path550"
   inkscape:connector-curvature="0" />
      </g>
      <g
   id="g552"
   transform="translate(150.3958,284.5869)">
        <path
   d="M 0,0 C 0.016,0.749 0.021,1.499 0.053,2.248 0.07,2.693 0.165,2.775 0.605,2.741 0.921,2.717 1.232,2.647 1.578,2.593 1.721,3.281 1.624,3.433 1.055,3.452 0.178,3.481 -0.701,3.492 -1.579,3.509 -1.686,3.511 -1.795,3.51 -1.898,3.488 -2.123,3.443 -2.317,3.346 -2.285,3.07 -2.254,2.808 -2.038,2.815 -1.844,2.805 -1.488,2.787 -1.132,2.768 -0.715,2.747 -0.725,1.555 -0.734,0.435 -0.744,-0.704 -0.466,-0.71 -0.282,-0.714 -0.016,-0.72 -0.01,-0.459 -0.005,-0.229 0,0"
   style="fill:#231f20;fill-opacity:1;fill-rule:nonzero;stroke:none"
   id="path554"
   inkscape:connector-curvature="0" />
      </g>
      <g
   id="g556"
   transform="translate(207.0365,285.6094)">
        <path
   d="M 0,0 C 0.277,0.005 0.56,-0.006 0.831,0.041 1.136,0.094 1.258,0.293 1.184,0.543 1.109,0.799 0.939,0.845 0.686,0.789 0.381,0.723 0.066,0.708 -0.32,0.662 -0.313,0.976 -0.309,1.193 -0.304,1.428 0.019,1.446 0.293,1.462 0.637,1.481 0.651,1.705 0.666,1.918 0.68,2.124 0.545,2.163 0.485,2.192 0.426,2.195 0.232,2.207 0.04,2.215 -0.152,2.214 -0.722,2.213 -1.04,2.024 -1.103,1.477 -1.185,0.759 -1.173,0.026 -1.164,-0.699 -1.16,-1.041 -0.933,-1.243 -0.58,-1.259 -0.217,-1.275 0.149,-1.303 0.511,-1.278 0.94,-1.25 1.022,-1.1 0.955,-0.495 0.647,-0.534 0.341,-0.578 0.032,-0.609 -0.181,-0.631 -0.361,-0.577 -0.375,-0.318 -0.391,-0.055 -0.22,-0.003 0,0"
   style="fill:#231f20;fill-opacity:1;fill-rule:nonzero;stroke:none"
   id="path558"
   inkscape:connector-curvature="0" />
      </g>
      <g
   id="g560"
   transform="translate(194.1087,284.665)">
        <path
   d="M 0,0 C 0.45,-0.038 0.452,-0.039 0.622,0.252 0.779,0.522 0.881,0.838 1.266,0.993 1.527,0.724 1.799,0.455 2.059,0.177 2.435,-0.229 2.541,-0.23 3.028,0.241 2.721,0.585 2.425,0.948 2.095,1.275 1.797,1.571 1.7,1.858 1.927,2.243 2.019,2.401 2.061,2.604 2.067,2.789 2.071,2.893 1.981,3.053 1.892,3.093 1.803,3.132 1.602,3.093 1.552,3.019 1.189,2.492 0.816,2.523 0.406,2.95 0.379,2.979 0.333,2.993 0.293,3.006 0.002,3.102 -0.242,2.917 -0.187,2.621 -0.163,2.484 -0.077,2.343 0.019,2.238 0.484,1.724 0.49,1.727 0.152,1.098 -0.037,0.747 -0.139,0.39 0,0"
   style="fill:#231f20;fill-opacity:1;fill-rule:nonzero;stroke:none"
   id="path562"
   inkscape:connector-curvature="0" />
      </g>
      <g
   id="g564"
   transform="translate(144.638,284.0137)">
        <path
   d="M 0,0 C 0.066,-0.122 0.231,-0.239 0.367,-0.258 0.458,-0.27 0.621,-0.126 0.666,-0.017 0.728,0.135 0.717,0.319 0.722,0.49 0.74,1.175 0.748,1.86 0.771,2.545 0.778,2.771 0.818,2.996 0.845,3.23 1.063,3.243 1.211,3.258 1.358,3.258 1.637,3.259 1.92,3.221 2.191,3.262 2.322,3.281 2.488,3.423 2.535,3.549 2.605,3.735 2.469,3.87 2.269,3.902 2.037,3.939 1.804,3.966 1.572,4.005 1.364,4.04 1.122,4.03 0.959,4.137 0.666,4.328 0.437,4.357 0.151,4.128 0.031,4.032 -0.172,4.039 -0.337,3.997 -0.752,3.892 -0.752,3.891 -0.721,3.371 -0.667,3.35 -0.611,3.318 -0.551,3.308 0.025,3.205 0.03,3.206 0.022,2.626 0.012,1.897 -0.008,1.17 -0.021,0.441 -0.023,0.292 -0.064,0.116 0,0"
   style="fill:#231f20;fill-opacity:1;fill-rule:nonzero;stroke:none"
   id="path566"
   inkscape:connector-curvature="0" />
      </g>
      <g
   id="g568"
   transform="translate(134.89,283.3984)">
        <path
   d="M 0,0 C 0.849,-0.037 1.698,-0.043 2.541,-0.061 2.583,0.569 2.524,0.666 2.059,0.689 1.504,0.718 0.949,0.717 0.349,0.729 0.31,0.896 0.265,0.98 0.276,1.057 0.392,1.831 0.48,2.612 0.652,3.375 0.754,3.821 0.641,4.201 0.211,4.333 0.028,4.39 -0.141,4.371 -0.203,4.16 -0.244,4.019 -0.251,3.867 -0.267,3.719 -0.321,3.188 -0.389,2.66 -0.422,2.129 -0.454,1.595 -0.461,1.059 -0.459,0.524 -0.458,0.233 -0.294,0.013 0,0"
   style="fill:#231f20;fill-opacity:1;fill-rule:nonzero;stroke:none"
   id="path570"
   inkscape:connector-curvature="0" />
      </g>
      <g
   id="g572"
   transform="translate(167.1634,283.5596)">
        <path
   d="m 0,0 c 0.142,0.339 -0.071,0.532 -0.271,0.729 -0.299,0.293 -0.528,0.626 -0.538,1.06 -0.006,0.363 -0.029,0.735 0.031,1.091 0.124,0.737 0.39,1.406 1.135,1.751 C 0.68,4.781 0.806,5.007 0.633,5.385 0.187,5.489 -0.216,5.343 -0.52,5.032 -1.099,4.44 -1.539,3.763 -1.542,2.886 -1.543,2.586 -1.532,2.284 -1.566,1.987 -1.649,1.261 -1.354,0.704 -0.848,0.216 -0.595,-0.028 -0.343,-0.167 0,0"
   style="fill:#231f20;fill-opacity:1;fill-rule:nonzero;stroke:none"
   id="path574"
   inkscape:connector-curvature="0" />
      </g>
      <g
   id="g576"
   transform="translate(170.2962,286.981)">
        <path
   d="M 0,0 C 0.103,0.036 0.223,0.219 0.213,0.324 0.201,0.44 0.066,0.566 -0.046,0.642 -0.123,0.693 -0.254,0.677 -0.359,0.667 -0.762,0.633 -1.164,0.583 -1.566,0.551 -1.84,0.53 -2.02,0.407 -2.029,0.125 -2.057,-0.6 -2.072,-1.327 -2.082,-2.053 c -0.003,-0.215 0.102,-0.376 0.339,-0.386 0.249,-0.011 0.323,0.167 0.355,0.371 0.036,0.227 0.066,0.453 0.105,0.722 0.531,0.02 0.966,0.036 1.413,0.053 -0.131,0.577 -0.192,0.628 -0.668,0.682 -0.274,0.03 -0.593,-0.066 -0.847,0.322 0.215,0.038 0.367,0.061 0.52,0.092 C -0.575,-0.138 -0.277,-0.098 0,0"
   style="fill:#231f20;fill-opacity:1;fill-rule:nonzero;stroke:none"
   id="path578"
   inkscape:connector-curvature="0" />
      </g>
      <g
   id="g580"
   transform="translate(181.2787,286.7119)">
        <path
   d="M 0,0 C 0.234,0.003 0.433,0.08 0.426,0.364 0.42,0.612 0.229,0.665 0.029,0.7 -0.307,0.758 -0.64,0.839 -0.979,0.872 -1.339,0.907 -1.706,0.924 -2.067,0.899 -2.301,0.884 -2.448,0.699 -2.442,0.456 -2.438,0.25 -2.29,0.173 -2.091,0.171 c 0.104,-0.002 0.207,-0.034 0.396,-0.067 -0.011,-0.532 -0.031,-1.062 -0.03,-1.592 0,-0.211 0.002,-0.439 0.083,-0.624 0.051,-0.116 0.25,-0.227 0.384,-0.229 0.208,-0.003 0.352,0.148 0.33,0.385 -0.007,0.084 -0.049,0.166 -0.054,0.25 -0.041,0.549 -0.07,1.099 0.082,1.723 C -0.589,0.01 -0.294,-0.004 0,0"
   style="fill:#231f20;fill-opacity:1;fill-rule:nonzero;stroke:none"
   id="path582"
   inkscape:connector-curvature="0" />
      </g>
      <g
   id="g584"
   transform="translate(182.0804,284.7061)">
        <path
   d="M 0,0 C 0.024,0.258 -0.339,0.657 -0.601,0.66 -0.869,0.664 -1.026,0.447 -1.036,0.063 -1.042,-0.182 -1.051,-0.428 -0.7,-0.435 -0.327,-0.442 -0.024,-0.257 0,0"
   style="fill:#231f20;fill-opacity:1;fill-rule:nonzero;stroke:none"
   id="path586"
   inkscape:connector-curvature="0" />
      </g>
    </g>
  </g>
</svg>