<?xml version="1.0" encoding="UTF-8" standalone="no"?>
<svg
   xmlns:dc="http://purl.org/dc/elements/1.1/"
   xmlns:cc="http://creativecommons.org/ns#"
   xmlns:rdf="http://www.w3.org/1999/02/22-rdf-syntax-ns#"
   xmlns:svg="http://www.w3.org/2000/svg"
   xmlns="http://www.w3.org/2000/svg"
   xmlns:sodipodi="http://sodipodi.sourceforge.net/DTD/sodipodi-0.dtd"
   xmlns:inkscape="http://www.inkscape.org/namespaces/inkscape"
   viewBox="0 0 150 14.000001"
   width="100%"
   xml:space="preserve"
   id="svg2"
   version="1.1"
   sodipodi:docname="14-crazy-funny-feat-maxine.svg"
   inkscape:version="0.92.3 (unknown)"><sodipodi:namedview
   pagecolor="#ffffff"
   bordercolor="#666666"
   borderopacity="1"
   objecttolerance="10"
   gridtolerance="10"
   guidetolerance="10"
   inkscape:pageopacity="0"
   inkscape:pageshadow="2"
   inkscape:window-width="1920"
   inkscape:window-height="1031"
   id="namedview399"
   showgrid="false"
   inkscape:zoom="2.6724801"
   inkscape:cx="65.482246"
   inkscape:cy="5.1199603"
   inkscape:window-x="0"
   inkscape:window-y="27"
   inkscape:window-maximized="1"
   inkscape:current-layer="svg2" /><defs
   id="defs304" />
  
  <metadata
   id="metadata8">
    <rdf:RDF>
      <cc:Work
   rdf:about="">
        <dc:format>image/svg+xml</dc:format>
        <dc:type
   rdf:resource="http://purl.org/dc/dcmitype/StillImage" />
        <dc:title></dc:title>
      </cc:Work>
    </rdf:RDF>
  </metadata>
  <g
   id="g301"
   transform="matrix(1.333333,0,0,-1.333333,-153.53161,374.07603)">
    <g
   id="g3665">
      <g
   id="g420"
   transform="translate(162.2044,272.1377)">
        <path
   d="M 0,0 C 0.232,1.141 -0.135,2.275 0.421,3.271 0.48,3.284 0.541,3.298 0.602,3.311 0.71,3.111 0.825,2.916 0.926,2.713 1.164,2.233 1.388,1.747 1.636,1.272 1.733,1.085 1.871,0.916 2.007,0.752 2.225,0.488 2.533,0.45 2.83,0.527 3.141,0.607 3.107,0.911 3.138,1.163 3.247,2.052 3.381,2.938 3.467,3.829 3.496,4.138 3.467,4.475 3.371,4.768 3.264,5.096 2.994,5.104 2.811,4.799 2.706,4.625 2.643,4.405 2.629,4.201 2.594,3.71 2.604,3.216 2.586,2.724 2.575,2.452 2.563,2.173 2.287,1.945 2.193,2.063 2.102,2.148 2.047,2.253 1.633,3.051 1.227,3.853 0.816,4.652 0.72,4.841 0.648,5.041 0.387,5.08 -0.084,5.149 -0.314,4.968 -0.334,4.433 -0.37,3.447 -0.518,2.481 -0.757,1.526 -0.875,1.057 -0.698,0.632 -0.483,0.238 -0.418,0.118 -0.188,0.088 0,0"
   style="fill:#231f20;fill-opacity:1;fill-rule:nonzero;stroke:none"
   id="path422"
   inkscape:connector-curvature="0" />
      </g>
      <g
   id="g424"
   transform="translate(156.9486,275.5996)">
        <path
   d="M 0,0 C 0.129,-0.209 0.252,-0.404 0.372,-0.604 0.77,-1.262 1.16,-1.923 1.562,-2.577 1.815,-2.988 2.169,-3.161 2.671,-2.993 3.241,-1.558 3.135,-0.029 3.354,1.452 2.732,1.541 2.604,1.466 2.563,0.988 2.535,0.669 2.577,0.341 2.528,0.025 2.434,-0.577 2.297,-1.173 2.179,-1.771 2.124,-1.776 2.07,-1.781 2.017,-1.786 1.935,-1.693 1.832,-1.612 1.773,-1.507 1.451,-0.928 1.145,-0.341 0.823,0.239 0.595,0.65 0.37,1.065 0.107,1.455 0.027,1.575 -0.185,1.691 -0.313,1.671 -0.428,1.652 -0.571,1.45 -0.595,1.312 -0.643,1.027 -0.715,0.792 -0.931,0.575 -1.068,0.437 -1.126,0.199 -1.175,-0.005 -1.273,-0.42 -1.367,-0.84 -1.416,-1.263 c -0.047,-0.402 -0.063,-0.814 -0.038,-1.218 0.025,-0.418 0.326,-0.628 0.829,-0.603 0.003,0.161 0.049,0.34 0.003,0.49 -0.22,0.722 0.066,1.397 0.161,2.088 C -0.428,-0.259 -0.311,-0.074 0,0"
   style="fill:#231f20;fill-opacity:1;fill-rule:nonzero;stroke:none"
   id="path426"
   inkscape:connector-curvature="0" />
      </g>
      <g
   id="g428"
   transform="translate(129.6283,275.8965)">
        <path
   d="M 0,0 C 0.105,0.007 0.292,-0.067 0.311,-0.14 0.35,-0.284 0.345,-0.479 0.275,-0.606 0.116,-0.898 -0.373,-1.111 -0.917,-1.17 -0.946,-0.453 -0.614,-0.039 0,0 m -0.667,-2.263 c 0.556,-0.53 1.1,-1.072 1.671,-1.585 0.119,-0.106 0.371,-0.188 0.499,-0.133 0.253,0.107 0.185,0.38 0.071,0.555 -0.185,0.284 -0.416,0.539 -0.643,0.793 -0.241,0.268 -0.499,0.52 -0.807,0.838 0.24,0.206 0.392,0.356 0.562,0.48 0.692,0.507 0.593,1.024 0.396,1.585 C 0.978,0.565 0.788,0.697 0.465,0.725 -0.15,0.776 -0.721,0.667 -1.284,0.427 -1.581,0.3 -1.713,0.122 -1.715,-0.201 c -0.004,-0.835 -0.041,-1.67 -0.04,-2.505 0,-0.252 0.081,-0.504 0.121,-0.757 0.03,-0.188 0.113,-0.361 0.321,-0.304 0.137,0.038 0.325,0.18 0.345,0.3 0.052,0.308 0.024,0.63 0.028,0.946 0.002,0.131 0.004,0.262 0.009,0.47 0.139,-0.11 0.206,-0.156 0.264,-0.212"
   style="fill:#231f20;fill-opacity:1;fill-rule:nonzero;stroke:none"
   id="path430"
   inkscape:connector-curvature="0" />
      </g>
      <g
   id="g432"
   transform="translate(195.7865,276.7598)">
        <path
   d="m 0,0 c -0.212,-0.158 -0.349,-0.42 -0.511,-0.64 -0.093,-0.127 -0.169,-0.265 -0.288,-0.457 -0.148,0.178 -0.241,0.286 -0.33,0.399 -0.119,0.15 -0.217,0.323 -0.356,0.451 -0.455,0.415 -0.869,0.337 -1.126,-0.211 -0.192,-0.406 -0.391,-0.813 -0.534,-1.238 -0.133,-0.404 -0.238,-0.825 -0.282,-1.247 -0.052,-0.515 0.131,-0.662 0.703,-0.629 0.186,0.842 0.178,1.767 0.774,2.553 0.371,-0.332 0.541,-0.744 0.727,-1.149 0.124,-0.268 0.235,-0.569 0.66,-0.561 0.57,0.523 0.292,1.526 1.039,2.046 0.051,-0.132 0.1,-0.206 0.106,-0.282 0.063,-0.788 0.116,-1.577 0.174,-2.366 0.033,-0.47 0.079,-0.508 0.608,-0.485 0.178,1.128 0.08,2.251 -0.151,3.362 C 1.087,0.146 0.498,0.371 0,0"
   style="fill:#231f20;fill-opacity:1;fill-rule:nonzero;stroke:none"
   id="path434"
   inkscape:connector-curvature="0" />
      </g>
      <g
   id="g436"
   transform="translate(214.1331,277.3848)">
        <path
   d="m 0,0 c -0.208,0.004 -0.384,0.008 -0.604,0.012 -0.052,-0.8 -0.102,-1.558 -0.157,-2.385 -0.162,0.091 -0.254,0.114 -0.301,0.173 -0.457,0.565 -0.913,1.132 -1.355,1.709 -0.207,0.269 -0.454,0.536 -0.793,0.433 -0.321,-0.097 -0.431,-0.447 -0.478,-0.778 -0.005,-0.042 -0.004,-0.086 -0.004,-0.129 -0.014,-0.622 -0.049,-1.245 -0.03,-1.867 0.009,-0.267 0.096,-0.548 0.217,-0.788 0.059,-0.116 0.291,-0.229 0.418,-0.203 0.118,0.023 0.269,0.221 0.286,0.358 0.048,0.382 0.03,0.771 0.047,1.157 0.01,0.219 0.037,0.437 0.057,0.656 0.051,0.011 0.104,0.022 0.156,0.034 0.125,-0.159 0.249,-0.319 0.376,-0.479 0.413,-0.518 0.82,-1.042 1.243,-1.553 0.208,-0.252 0.478,-0.351 0.842,-0.194 C -0.054,-2.58 -0.027,-1.306 0,0"
   style="fill:#231f20;fill-opacity:1;fill-rule:nonzero;stroke:none"
   id="path438"
   inkscape:connector-curvature="0" />
      </g>
      <g
   id="g440"
   transform="translate(216.4398,274.5928)">
        <path
   d="M 0,0 C 0.004,0.173 0.007,0.353 0.013,0.618 0.331,0.611 0.565,0.605 0.799,0.602 1.078,0.597 1.358,0.57 1.635,0.592 2.07,0.626 2.169,0.802 2.044,1.329 1.592,1.338 1.122,1.334 0.655,1.366 0.503,1.377 0.254,1.458 0.23,1.553 0.186,1.736 0.214,1.983 0.309,2.147 0.5,2.477 0.907,2.559 1.343,2.42 1.561,2.35 1.778,2.276 1.987,2.207 2.239,2.726 2.216,2.882 1.819,3.067 1.612,3.164 1.371,3.2 1.142,3.231 0.845,3.271 0.541,3.256 0.246,3.302 -0.407,3.404 -0.536,3.306 -0.572,2.624 -0.592,2.261 -0.612,1.897 -0.643,1.535 -0.691,0.939 -0.771,0.346 -0.794,-0.25 -0.81,-0.655 -0.665,-0.804 -0.27,-0.827 0.286,-0.86 0.846,-0.873 1.402,-0.852 1.58,-0.845 1.752,-0.7 1.979,-0.594 1.428,0.2 0.621,-0.297 0,0"
   style="fill:#231f20;fill-opacity:1;fill-rule:nonzero;stroke:none"
   id="path442"
   inkscape:connector-curvature="0" />
      </g>
      <g
   id="g444"
   transform="translate(133.7191,274.6875)">
        <path
   d="M 0,0 C -0.193,0.31 0.067,0.543 0.358,0.923 0.497,0.531 0.585,0.284 0.674,0.033 0.408,-0.152 0.142,-0.226 0,0 M 0.905,-1.424 C 0.952,-1.609 0.957,-1.806 1.002,-1.991 1.109,-2.435 1.288,-2.555 1.847,-2.518 1.838,-2.307 1.852,-2.137 1.821,-1.975 1.701,-1.345 1.565,-0.719 1.44,-0.09 1.354,0.351 1.305,0.801 1.185,1.232 1.001,1.891 0.392,2.064 -0.091,1.577 -0.368,1.297 -0.631,0.947 -0.757,0.58 c -0.215,-0.621 -0.319,-1.28 -0.46,-1.926 -0.054,-0.25 -0.086,-0.506 -0.122,-0.76 -0.029,-0.201 0.068,-0.329 0.255,-0.388 0.214,-0.068 0.335,0.062 0.393,0.233 0.094,0.282 0.148,0.577 0.239,0.861 0.138,0.425 0.308,0.506 0.765,0.521 0.404,0.012 0.515,-0.242 0.592,-0.545"
   style="fill:#231f20;fill-opacity:1;fill-rule:nonzero;stroke:none"
   id="path446"
   inkscape:connector-curvature="0" />
      </g>
      <g
   id="g448"
   transform="translate(207.5257,274.1934)">
        <path
   d="M 0,0 C -0.026,0.553 -0.053,1.122 -0.087,1.848 0.347,1.771 0.679,1.73 1,1.649 1.243,1.587 1.44,1.605 1.526,1.855 1.617,2.121 1.436,2.243 1.211,2.32 0.868,2.438 0.516,2.536 0.187,2.685 -0.6,3.04 -1.364,2.675 -2.136,2.628 -2.33,2.616 -2.436,2.392 -2.362,2.17 c 0.07,-0.213 0.215,-0.3 0.448,-0.246 0.186,0.042 0.385,0.087 0.569,0.063 0.123,-0.015 0.304,-0.128 0.333,-0.232 0.154,-0.552 0.361,-1.106 0.164,-1.73 -0.208,-0.061 -0.427,-0.127 -0.674,-0.199 -0.004,-0.192 -0.008,-0.375 -0.013,-0.635 1.077,-0.022 2.122,-0.056 3.166,-0.056 0.231,0 0.446,0.141 0.475,0.482 C 1.501,0.137 0.699,-0.315 0,0"
   style="fill:#231f20;fill-opacity:1;fill-rule:nonzero;stroke:none"
   id="path450"
   inkscape:connector-curvature="0" />
      </g>
      <g
   id="g452"
   transform="translate(199.5599,276)">
        <path
   d="M 0,0 C 0.372,-0.542 0.329,-0.653 -0.363,-0.761 -0.216,-0.453 -0.117,-0.245 0,0 m -1.104,-2.906 c 0.338,0.016 0.406,0.112 0.38,0.577 -0.03,0.551 0.074,0.715 0.505,0.801 0.57,0.113 0.787,-0.013 0.961,-0.551 0.066,-0.204 0.137,-0.406 0.213,-0.607 0.092,-0.242 0.279,-0.33 0.515,-0.245 0.244,0.088 0.286,0.282 0.21,0.523 -0.136,0.429 -0.282,0.854 -0.186,1.321 0.023,0.11 -0.039,0.254 -0.098,0.363 C 1.144,-0.251 0.895,0.225 0.611,0.68 0.266,1.234 -0.295,1.242 -0.571,0.656 c -0.372,-0.791 -0.671,-1.619 -0.96,-2.446 -0.08,-0.229 -0.032,-0.509 -0.014,-0.764 0.019,-0.258 0.184,-0.364 0.441,-0.352"
   style="fill:#231f20;fill-opacity:1;fill-rule:nonzero;stroke:none"
   id="path454"
   inkscape:connector-curvature="0" />
      </g>
      <g
   id="g456"
   transform="translate(183.5531,275.4951)">
        <path
   d="M 0,0 C 0.107,0.256 0.209,0.443 0.47,0.313 0.53,0.283 0.582,0.111 0.551,0.045 0.428,-0.219 0.239,-0.15 0,0 M 1.751,-2.206 C 1.715,-1.91 1.634,-1.609 1.66,-1.319 1.726,-0.602 1.438,0.023 1.202,0.661 1.067,1.021 0.764,1.16 0.382,1.149 0.014,1.14 -0.365,1.167 -0.543,0.741 c -0.354,-0.846 -0.718,-1.689 -1.044,-2.547 -0.066,-0.176 -0.029,-0.423 0.035,-0.613 0.115,-0.338 0.412,-0.369 0.623,-0.076 0.082,0.114 0.106,0.272 0.148,0.414 0.085,0.285 0.155,0.576 0.248,0.858 0.076,0.228 0.253,0.32 0.492,0.339 0.603,0.051 0.887,-0.16 0.922,-0.769 0.026,-0.452 0.063,-0.891 0.347,-1.312 0.511,0.2 0.578,0.307 0.523,0.759"
   style="fill:#231f20;fill-opacity:1;fill-rule:nonzero;stroke:none"
   id="path458"
   inkscape:connector-curvature="0" />
      </g>
      <g
   id="g460"
   transform="translate(167.2708,274.8057)">
        <path
   d="m 0,0 c 0.432,-0.062 0.49,-0.329 0.474,-0.688 -0.023,-0.493 -0.031,-0.985 -0.03,-1.478 0,-0.322 0.176,-0.554 0.415,-0.538 0.331,0.02 0.319,0.296 0.328,0.525 0.021,0.471 0.018,0.943 0.038,1.413 0.021,0.541 0.082,0.604 0.625,0.703 C 2.324,0.023 2.432,0.116 2.512,0.576 2.6,1.081 2.682,1.587 2.733,2.096 2.758,2.339 2.703,2.589 2.686,2.828 2.127,2.825 2.123,2.825 2.033,2.403 1.92,1.866 1.812,1.327 1.691,0.74 1.207,0.751 0.712,0.761 0.163,0.772 0.15,1.265 0.146,1.711 0.127,2.157 0.106,2.593 0.091,2.599 -0.524,2.635 -0.539,1.931 -0.572,1.271 -0.559,0.613 -0.553,0.281 -0.33,0.048 0,0"
   style="fill:#231f20;fill-opacity:1;fill-rule:nonzero;stroke:none"
   id="path462"
   inkscape:connector-curvature="0" />
      </g>
      <g
   id="g464"
   transform="translate(154.4583,275.0029)">
        <path
   d="m 0,0 c -0.017,0.002 -0.033,0.003 -0.05,0.005 0.026,0.341 0.051,0.682 0.075,1.023 0.016,0.21 -0.027,0.4 -0.269,0.437 C -0.486,1.502 -0.659,1.375 -0.732,1.146 -0.77,1.027 -0.765,0.893 -0.768,0.765 c -0.012,-0.45 0.009,-0.902 -0.04,-1.347 -0.033,-0.31 -0.139,-0.618 -0.251,-0.912 -0.117,-0.31 -0.388,-0.351 -0.691,-0.337 -0.306,0.015 -0.484,0.172 -0.547,0.447 -0.081,0.352 -0.167,0.708 -0.182,1.066 -0.02,0.531 -0.033,1.068 0.247,1.565 0.049,0.089 -0.017,0.296 -0.098,0.39 C -2.384,1.698 -2.574,1.692 -2.678,1.651 -2.973,1.536 -3.175,1.34 -3.176,0.982 -3.177,0.341 -3.215,-0.302 -3.203,-0.943 c 0.004,-0.25 0.07,-0.511 0.163,-0.745 0.304,-0.778 1.416,-1.2 2.15,-0.848 0.459,0.22 0.63,0.642 0.726,1.076 C -0.059,-0.984 -0.051,-0.487 0,0"
   style="fill:#231f20;fill-opacity:1;fill-rule:nonzero;stroke:none"
   id="path466"
   inkscape:connector-curvature="0" />
      </g>
      <g
   id="g468"
   transform="translate(136.6087,272.9697)">
        <path
   d="M 0,0 C 0.002,-0.302 0.118,-0.501 0.441,-0.509 1.399,-0.534 2.357,-0.551 3.34,-0.571 3.345,-0.315 3.349,-0.117 3.354,0.157 2.616,0.173 1.922,0.187 1.229,0.202 1.214,0.255 1.198,0.308 1.184,0.36 1.555,0.795 1.928,1.229 2.297,1.666 2.729,2.175 2.633,2.948 2.081,3.187 1.473,3.45 0.822,3.394 0.188,3.295 0.072,3.277 -0.09,3.059 -0.087,2.936 -0.085,2.83 0.111,2.657 0.24,2.639 0.576,2.589 0.923,2.609 1.265,2.596 1.479,2.588 1.705,2.587 1.752,2.229 1.354,1.836 0.929,1.42 0.506,1 0.228,0.724 -0.003,0.423 0,0"
   style="fill:#231f20;fill-opacity:1;fill-rule:nonzero;stroke:none"
   id="path470"
   inkscape:connector-curvature="0" />
      </g>
      <g
   id="g472"
   transform="translate(144.2298,276.2373)">
        <path
   d="M 0,0 C 0.128,0.263 0.259,0.55 -0.013,0.857 -0.367,0.821 -0.569,0.575 -0.729,0.298 -0.953,-0.091 -1.141,-0.501 -1.362,-0.892 -1.516,-1.163 -1.698,-1.419 -1.926,-1.771 -2.293,-1.08 -2.569,-0.531 -2.513,0.124 -2.494,0.343 -2.619,0.534 -2.844,0.5 -2.997,0.477 -3.156,0.326 -3.258,0.192 -3.324,0.105 -3.307,-0.057 -3.301,-0.184 c 0.039,-0.889 0.324,-1.681 1.012,-2.275 0.27,-0.233 0.391,-0.479 0.355,-0.832 -0.026,-0.275 -0.013,-0.556 -0.008,-0.834 0.005,-0.276 0.214,-0.39 0.426,-0.369 0.112,0.012 0.273,0.213 0.29,0.345 0.05,0.358 0.053,0.726 0.04,1.088 -0.019,0.527 0.084,1.011 0.348,1.473 C -0.541,-1.068 -0.264,-0.537 0,0"
   style="fill:#231f20;fill-opacity:1;fill-rule:nonzero;stroke:none"
   id="path474"
   inkscape:connector-curvature="0" />
      </g>
      <g
   id="g476"
   transform="translate(147.3714,272.4072)">
        <path
   d="M 0,0 C 0.239,0.017 0.397,0.028 0.572,0.04 0.627,0.696 0.677,1.308 0.735,2.017 1.339,2.004 1.829,1.971 2.318,1.99 2.785,2.009 2.845,2.122 2.77,2.716 2.123,2.729 1.466,2.743 0.765,2.758 0.756,3.026 0.726,3.238 0.745,3.445 0.792,3.923 0.987,4.311 1.605,4.224 1.911,4.181 2.228,4.214 2.589,4.212 2.571,4.507 2.56,4.707 2.547,4.943 1.638,4.957 0.795,5.021 -0.101,4.966 -0.058,4.433 0.007,3.989 0.007,3.547 0.008,2.626 -0.028,1.704 -0.04,0.783 -0.044,0.536 -0.016,0.288 0,0"
   style="fill:#231f20;fill-opacity:1;fill-rule:nonzero;stroke:none"
   id="path478"
   inkscape:connector-curvature="0" />
      </g>
      <g
   id="g480"
   transform="translate(218.6136,279.3691)">
        <path
   d="M 0,0 C -0.304,0.143 -0.569,-0.031 -0.62,-0.273 -0.683,-0.57 -0.433,-0.621 -0.249,-0.711 0.843,-1.247 1.459,-2.167 1.81,-3.288 1.92,-3.64 1.911,-4.019 1.695,-4.342 1.354,-4.855 0.993,-5.356 0.638,-5.86 0.577,-5.947 0.481,-6.017 0.44,-6.11 0.35,-6.319 0.345,-6.533 0.55,-6.687 c 0.221,-0.168 0.399,-0.071 0.55,0.118 0.294,0.367 0.592,0.731 0.879,1.105 0.4,0.523 0.68,1.091 0.632,1.78 C 2.581,-3.388 2.604,-3.074 2.512,-2.8 2.272,-2.085 1.937,-1.394 1.39,-0.876 0.997,-0.507 0.494,-0.231 0,0"
   style="fill:#231f20;fill-opacity:1;fill-rule:nonzero;stroke:none"
   id="path482"
   inkscape:connector-curvature="0" />
      </g>
      <g
   id="g484"
   transform="translate(179.0599,276.5381)">
        <path
   d="m 0,0 c -0.13,-0.92 -0.253,-1.761 -0.363,-2.604 -0.016,-0.122 0.002,-0.27 0.06,-0.373 0.069,-0.119 0.196,-0.279 0.306,-0.286 0.554,-0.037 1.112,-0.042 1.668,-0.027 0.081,0.002 0.227,0.173 0.221,0.256 -0.011,0.12 -0.107,0.277 -0.212,0.334 -0.121,0.064 -0.292,0.037 -0.442,0.048 -0.245,0.016 -0.491,0.031 -0.735,0.046 0.048,0.709 0.086,0.75 0.657,0.748 0.3,0 0.6,-0.022 0.901,-0.014 0.52,0.014 0.585,0.128 0.409,0.675 -0.576,0.213 -1.242,-0.086 -1.799,0.3 0.136,0.095 0.269,0.15 0.405,0.153 0.364,0.007 0.729,-0.019 1.093,-0.014 0.537,0.007 0.581,0.069 0.525,0.702 C 1.808,-0.037 0.918,-0.019 0,0"
   style="fill:#231f20;fill-opacity:1;fill-rule:nonzero;stroke:none"
   id="path486"
   inkscape:connector-curvature="0" />
      </g>
      <g
   id="g488"
   transform="translate(175.7933,272.6895)">
        <path
   d="M 0,0 C 0.346,0.041 0.414,0.337 0.478,0.606 0.525,0.809 0.532,1.02 0.566,1.309 1.071,1.298 1.552,1.288 2.089,1.276 2.081,1.563 2.076,1.763 2.069,2.027 1.546,2.039 1.084,2.048 0.585,2.059 0.595,2.547 0.603,2.92 0.612,3.378 1.142,3.367 1.62,3.357 2.156,3.346 2.134,3.637 2.119,3.835 2.104,4.028 1.507,4.09 0.979,4.162 0.45,4.188 0.312,4.195 0.107,4.097 0.033,3.982 -0.223,3.587 -0.429,3.164 -0.426,2.669 -0.423,2.22 -0.442,1.771 -0.451,1.321 -0.455,1.107 -0.472,0.893 -0.457,0.68 -0.431,0.281 -0.226,-0.027 0,0"
   style="fill:#231f20;fill-opacity:1;fill-rule:nonzero;stroke:none"
   id="path490"
   inkscape:connector-curvature="0" />
      </g>
      <g
   id="g492"
   transform="translate(203.9408,274.8408)">
        <path
   d="M 0,0 C -0.223,0.229 -0.262,0.465 -0.125,0.759 0.047,1.127 0.195,1.506 0.336,1.888 0.42,2.113 0.363,2.33 0.134,2.431 -0.113,2.539 -0.202,2.314 -0.297,2.156 -0.48,1.853 -0.649,1.54 -0.839,1.206 -1.156,1.408 -1.396,1.59 -1.661,1.714 -1.769,1.764 -1.988,1.736 -2.059,1.657 -2.133,1.574 -2.129,1.37 -2.083,1.248 -2.034,1.117 -1.898,1.02 -1.797,0.909 -1.327,0.396 -1.291,0.158 -1.595,-0.477 -1.678,-0.65 -1.778,-0.816 -1.853,-0.994 -1.9,-1.109 -1.957,-1.248 -1.934,-1.36 c 0.027,-0.131 0.11,-0.303 0.216,-0.35 0.096,-0.042 0.279,0.03 0.38,0.108 0.112,0.087 0.184,0.234 0.261,0.361 0.131,0.216 0.253,0.436 0.392,0.679 0.575,-0.239 0.593,-1.182 1.396,-0.877 0.113,0.351 0,0.618 -0.202,0.859 C 0.343,-0.383 0.179,-0.184 0,0"
   style="fill:#231f20;fill-opacity:1;fill-rule:nonzero;stroke:none"
   id="path494"
   inkscape:connector-curvature="0" />
      </g>
      <g
   id="g496"
   transform="translate(126.222,272.1807)">
        <path
   d="m 0,0 c 0.146,0.43 -0.077,0.572 -0.385,0.61 -0.361,0.045 -0.728,0.035 -1.09,0.072 -0.639,0.065 -1.101,0.666 -0.929,1.28 0.276,0.989 0.383,1.494 1.56,1.537 0.064,0.003 0.127,0.023 0.188,0.043 0.385,0.127 0.433,0.217 0.385,0.785 C -1.09,4.341 -1.877,4.266 -2.506,3.649 -2.654,3.503 -2.806,3.324 -2.869,3.131 -3.07,2.523 -3.242,1.907 -3.212,1.249 -3.196,0.918 -3.068,0.708 -2.812,0.499 -1.949,-0.202 -0.962,0 0,0"
   style="fill:#231f20;fill-opacity:1;fill-rule:nonzero;stroke:none"
   id="path498"
   inkscape:connector-curvature="0" />
      </g>
      <g
   id="g500"
   transform="translate(174.0462,276.9033)">
        <path
   d="M 0,0 C 0.137,0.151 0.273,0.311 0.106,0.502 -0.046,0.677 -0.26,0.744 -0.465,0.587 -0.649,0.446 -0.823,0.286 -0.979,0.113 c -0.793,-0.886 -0.874,-2.005 -0.994,-3.235 -0.003,-0.737 0.58,-1.498 1.371,-1.672 0.247,-0.054 0.457,0.015 0.51,0.253 0.026,0.119 -0.093,0.298 -0.191,0.408 -0.096,0.107 -0.284,0.133 -0.372,0.242 -0.166,0.208 -0.392,0.441 -0.413,0.679 -0.082,0.904 -0.027,1.803 0.531,2.58 C -0.376,-0.407 -0.185,-0.205 0,0"
   style="fill:#231f20;fill-opacity:1;fill-rule:nonzero;stroke:none"
   id="path502"
   inkscape:connector-curvature="0" />
      </g>
      <g
   id="g504"
   transform="translate(187.9349,276.1367)">
        <path
   d="m 0,0 c 0.119,0.04 0.254,0.033 0.379,0.056 0.433,0.077 0.463,0.139 0.29,0.743 -0.908,-0.08 -1.833,-0.163 -2.804,-0.249 0.009,-0.295 0.017,-0.54 0.026,-0.792 0.312,-0.007 0.556,-0.012 0.853,-0.019 0.069,-0.729 0.141,-1.428 0.196,-2.128 0.039,-0.476 0.048,-0.492 0.712,-0.424 -0.031,0.719 -0.048,1.401 -0.097,2.08 C -0.475,-0.323 -0.386,-0.128 0,0"
   style="fill:#231f20;fill-opacity:1;fill-rule:nonzero;stroke:none"
   id="path506"
   inkscape:connector-curvature="0" />
      </g>
      <g
   id="g508"
   transform="translate(189.054,272.8291)">
        <path
   d="M 0,0 C 0.262,0.021 0.528,0.323 0.498,0.561 0.473,0.765 0.102,1.076 -0.105,1.067 -0.319,1.058 -0.637,0.708 -0.623,0.496 -0.604,0.19 -0.329,-0.028 0,0"
   style="fill:#231f20;fill-opacity:1;fill-rule:nonzero;stroke:none"
   id="path510"
   inkscape:connector-curvature="0" />
      </g>
    </g>
  </g>
</svg>