<?xml version="1.0" encoding="UTF-8" standalone="no"?>
<svg
   xmlns:dc="http://purl.org/dc/elements/1.1/"
   xmlns:cc="http://creativecommons.org/ns#"
   xmlns:rdf="http://www.w3.org/1999/02/22-rdf-syntax-ns#"
   xmlns:svg="http://www.w3.org/2000/svg"
   xmlns="http://www.w3.org/2000/svg"
   xmlns:sodipodi="http://sodipodi.sourceforge.net/DTD/sodipodi-0.dtd"
   xmlns:inkscape="http://www.inkscape.org/namespaces/inkscape"
   viewBox="0 0 150 14"
   width="100%"
   xml:space="preserve"
   id="svg2"
   version="1.1"
   sodipodi:docname="15-lora.svg"
   inkscape:version="0.92.3 (unknown)"><sodipodi:namedview
   pagecolor="#ffffff"
   bordercolor="#666666"
   borderopacity="1"
   objecttolerance="10"
   gridtolerance="10"
   guidetolerance="10"
   inkscape:pageopacity="0"
   inkscape:pageshadow="2"
   inkscape:window-width="1920"
   inkscape:window-height="1031"
   id="namedview414"
   showgrid="false"
   inkscape:zoom="2.7657101"
   inkscape:cx="22.394719"
   inkscape:cy="-5.552603"
   inkscape:window-x="0"
   inkscape:window-y="27"
   inkscape:window-maximized="1"
   inkscape:current-layer="svg2" /><defs
   id="defs250" />
  
  <metadata
   id="metadata8">
    <rdf:RDF>
      <cc:Work
   rdf:about="">
        <dc:format>image/svg+xml</dc:format>
        <dc:type
   rdf:resource="http://purl.org/dc/dcmitype/StillImage" />
        <dc:title></dc:title>
      </cc:Work>
    </rdf:RDF>
  </metadata>
  <g
   id="g247"
   transform="matrix(1.333333,0,0,-1.333333,-153.94632,361.45051)">
    <g
   id="g3675">
      <g
   id="g404"
   transform="translate(173.9798,267.25)">
        <path
   d="M 0,0 C 0.23,0.077 0.418,0.066 0.572,-0.121 0.743,-0.33 0.742,-0.565 0.579,-0.77 0.286,-1.138 -0.085,-1.356 -0.622,-1.287 -0.77,-0.417 -0.66,-0.22 0,0 m -0.868,-2.49 c 0.337,-0.207 0.557,-0.32 0.751,-0.468 0.355,-0.274 0.69,-0.576 1.043,-0.855 0.2,-0.158 0.465,-0.248 0.618,-0.003 0.084,0.134 0.053,0.426 -0.043,0.571 -0.166,0.251 -0.417,0.448 -0.643,0.657 -0.134,0.125 -0.288,0.231 -0.56,0.444 0.344,0.294 0.627,0.507 0.876,0.755 0.4,0.397 0.496,1.108 0.242,1.577 C 1.104,0.767 0.664,0.974 -0.007,0.836 -0.284,0.779 -0.56,0.701 -0.827,0.609 -1.531,0.366 -1.9,-0.145 -1.936,-0.882 -1.965,-1.521 -1.98,-2.161 -1.974,-2.801 c 0.003,-0.256 0.054,-0.519 0.129,-0.764 0.13,-0.425 0.165,-0.429 0.774,-0.335 0.059,0.417 0.121,0.843 0.203,1.41"
   style="fill:#231f20;fill-opacity:1;fill-rule:nonzero;stroke:none"
   id="path406"
   inkscape:connector-curvature="0" />
      </g>
      <g
   id="g408"
   transform="translate(178.7884,267.1895)">
        <path
   d="M 0,0 C 0.431,-0.373 0.472,-0.81 0.324,-1.372 -0.02,-1.365 -0.312,-1.359 -0.63,-1.353 -0.692,-0.737 -0.456,-0.328 0,0 m -1.331,-4.151 c 0.037,0.454 0.087,0.874 0.101,1.295 0.01,0.324 0.101,0.571 0.456,0.61 0.646,0.069 1.601,-0.154 1.559,-1.119 -0.003,-0.071 0.005,-0.144 0.022,-0.213 0.092,-0.4 0.33,-0.597 0.634,-0.512 0.364,0.102 0.282,0.392 0.239,0.645 -0.129,0.769 -0.269,1.538 -0.408,2.306 -0.076,0.42 -0.152,0.84 -0.241,1.258 -0.105,0.5 -0.482,0.69 -0.936,0.732 -0.467,0.043 -0.907,-0.024 -1.143,-0.522 -0.603,-1.274 -1.127,-2.568 -1.031,-4.022 0.032,-0.48 0.035,-0.488 0.748,-0.458"
   style="fill:#231f20;fill-opacity:1;fill-rule:nonzero;stroke:none"
   id="path410"
   inkscape:connector-curvature="0" />
      </g>
      <g
   id="g412"
   transform="translate(168.013,265.5205)">
        <path
   d="m 0,0 c 0.098,0.214 0.205,0.432 0.352,0.613 0.5,0.621 1.125,0.572 1.535,-0.119 0.34,-0.57 0.314,-1.127 -0.18,-1.715 C 1.37,-1.214 1.037,-1.227 0.709,-1.196 0.047,-1.134 -0.272,-0.591 0,0 m 0.247,-2.004 c 0.16,-0.042 0.324,-0.072 0.486,-0.107 1.164,-0.258 2.208,0.34 2.22,1.681 C 2.967,1.168 2.356,1.891 0.713,1.891 0.254,1.957 -0.229,1.901 -0.449,1.316 -0.625,0.851 -0.816,0.385 -0.926,-0.099 -1.167,-1.16 -0.798,-1.732 0.247,-2.004"
   style="fill:#231f20;fill-opacity:1;fill-rule:nonzero;stroke:none"
   id="path414"
   inkscape:connector-curvature="0" />
      </g>
      <g
   id="g416"
   transform="translate(166.1986,263.4551)">
        <path
   d="m 0,0 c 0.031,0.616 -0.006,0.688 -0.437,0.729 -0.327,0.029 -0.657,0.017 -1.101,0.027 -0.032,0.333 -0.077,0.585 -0.076,0.836 0.002,0.663 0.029,1.325 0.033,1.988 0.002,0.2 -0.037,0.402 -0.057,0.587 C -2.365,4.242 -2.389,4.234 -2.406,3.656 -2.437,2.639 -2.455,1.621 -2.469,0.604 -2.472,0.423 -2.43,0.241 -2.407,0.05 -1.568,0.032 -0.783,0.016 0,0"
   style="fill:#231f20;fill-opacity:1;fill-rule:nonzero;stroke:none"
   id="path418"
   inkscape:connector-curvature="0" />
      </g>
    </g>
  </g>
</svg>