<?xml version="1.0" encoding="UTF-8" standalone="no"?>
<svg
   xmlns:dc="http://purl.org/dc/elements/1.1/"
   xmlns:cc="http://creativecommons.org/ns#"
   xmlns:rdf="http://www.w3.org/1999/02/22-rdf-syntax-ns#"
   xmlns:svg="http://www.w3.org/2000/svg"
   xmlns="http://www.w3.org/2000/svg"
   xmlns:sodipodi="http://sodipodi.sourceforge.net/DTD/sodipodi-0.dtd"
   xmlns:inkscape="http://www.inkscape.org/namespaces/inkscape"
   viewBox="0 0 150 13.999999"
   width="100%"
   xml:space="preserve"
   id="svg2"
   version="1.1"
   sodipodi:docname="16-straighten-up-and-lose.svg"
   inkscape:version="0.92.3 (unknown)"><sodipodi:namedview
   pagecolor="#ffffff"
   bordercolor="#666666"
   borderopacity="1"
   objecttolerance="10"
   gridtolerance="10"
   guidetolerance="10"
   inkscape:pageopacity="0"
   inkscape:pageshadow="2"
   inkscape:window-width="1920"
   inkscape:window-height="1031"
   id="namedview459"
   showgrid="false"
   inkscape:zoom="2.6396803"
   inkscape:cx="66.295906"
   inkscape:cy="4.6890917"
   inkscape:window-x="0"
   inkscape:window-y="27"
   inkscape:window-maximized="1"
   inkscape:current-layer="svg2" /><defs
   id="defs170" />
  
  <metadata
   id="metadata8">
    <rdf:RDF>
      <cc:Work
   rdf:about="">
        <dc:format>image/svg+xml</dc:format>
        <dc:type
   rdf:resource="http://purl.org/dc/dcmitype/StillImage" />
        <dc:title></dc:title>
      </cc:Work>
    </rdf:RDF>
  </metadata>
  <g
   id="g167"
   transform="matrix(1.333333,0,0,-1.333333,-155.24001,348.99222)">
    <g
   id="g3715">
      <g
   id="g232"
   transform="translate(168.2904,253.8145)">
        <path
   d="m 0,0 c 0.435,-0.27 0.904,-0.061 1.086,0.422 0.067,0.18 0.096,0.373 0.137,0.561 0.232,1.056 0.195,2.13 0.207,3.2 C 1.432,4.409 1.354,4.644 1.277,4.862 1.25,4.941 1.111,5.046 1.042,5.033 0.936,5.016 0.79,4.924 0.761,4.831 0.705,4.653 0.703,4.453 0.709,4.264 0.737,3.171 0.725,2.082 0.423,0.958 -0.085,0.902 -0.238,1.271 -0.408,1.573 -0.775,2.226 -1.102,2.903 -1.473,3.555 -1.618,3.809 -1.816,4.046 -2.033,4.244 -2.271,4.463 -2.576,4.643 -2.911,4.48 -3.252,4.316 -3.161,3.961 -3.157,3.676 c 0.012,-0.941 0.052,-1.88 0.078,-2.821 0.005,-0.17 -0.032,-0.346 -0.004,-0.513 0.048,-0.289 0.113,-0.579 0.207,-0.858 0.059,-0.175 0.149,-0.391 0.397,-0.344 0.286,0.053 0.248,0.305 0.26,0.515 0.004,0.064 -0.008,0.128 -0.01,0.193 -0.021,0.854 -0.049,1.708 -0.058,2.562 -0.002,0.169 0.075,0.338 0.115,0.507 0.053,0.007 0.105,0.014 0.157,0.021 C -1.829,2.586 -1.642,2.234 -1.458,1.882 -1.27,1.521 -1.129,1.126 -0.886,0.808 -0.646,0.494 -0.335,0.208 0,0"
   style="fill:#231f20;fill-opacity:1;fill-rule:nonzero;stroke:none"
   id="path234"
   inkscape:connector-curvature="0" />
      </g>
      <g
   id="g236"
   transform="translate(163.4242,253.4297)">
        <path
   d="m 0,0 c -0.014,0.118 -0.122,0.245 -0.224,0.326 -0.074,0.06 -0.201,0.061 -0.305,0.071 -0.721,0.078 -1.445,0.137 -2.162,0.234 -0.166,0.021 -0.414,0.133 -0.456,0.259 -0.12,0.357 -0.194,0.742 -0.205,1.118 -0.008,0.305 0.195,0.532 0.535,0.515 0.38,-0.019 0.76,-0.074 1.139,-0.12 0.44,-0.052 0.878,-0.113 1.296,-0.167 0.231,0.577 0.18,0.69 -0.305,0.744 -0.72,0.082 -1.442,0.152 -2.164,0.218 -0.432,0.039 -0.477,0.073 -0.481,0.491 -0.002,0.126 0.024,0.252 0.039,0.401 0.25,0.078 0.517,0.111 0.729,0.237 0.404,0.24 0.769,0.268 1.209,0.067 0.389,-0.178 0.822,-0.181 1.211,0.103 -0.029,0.291 -0.187,0.449 -0.43,0.521 C -0.841,5.096 -1.112,5.194 -1.385,5.205 -1.914,5.225 -2.45,5.23 -2.974,5.161 -3.296,5.118 -3.598,4.926 -3.985,4.77 -3.998,4.736 -4.04,4.677 -4.041,4.617 -4.072,3.461 -4.114,2.305 -4.116,1.148 -4.117,0.835 -3.993,0.521 -3.934,0.206 c 0.043,-0.228 0.181,-0.318 0.406,-0.323 0.32,-0.007 0.641,-0.022 0.961,-0.047 0.637,-0.051 1.273,-0.116 1.911,-0.162 0.145,-0.01 0.307,0.006 0.438,0.063 C -0.12,-0.219 0.01,-0.081 0,0"
   style="fill:#231f20;fill-opacity:1;fill-rule:nonzero;stroke:none"
   id="path238"
   inkscape:connector-curvature="0" />
      </g>
      <g
   id="g240"
   transform="translate(195.39,257.9395)">
        <path
   d="m 0,0 c -0.008,-0.364 -0.015,-0.729 -0.026,-1.093 -0.011,-0.343 -0.058,-0.676 -0.356,-1.013 -0.19,0.431 -0.368,0.812 -0.528,1.201 -0.244,0.593 -0.477,1.191 -0.714,1.786 C -1.703,1.079 -1.846,1.236 -2.06,1.167 -2.219,1.115 -2.348,0.964 -2.479,0.844 -2.521,0.806 -2.531,0.729 -2.551,0.667 -2.945,-0.547 -3.078,-1.797 -3,-3.064 c 0.016,-0.257 0.165,-0.535 0.33,-0.741 0.077,-0.096 0.358,-0.099 0.508,-0.042 0.079,0.032 0.104,0.284 0.096,0.433 -0.007,0.118 -0.115,0.227 -0.157,0.349 -0.273,0.792 -0.112,1.517 0.337,2.313 0.105,-0.232 0.164,-0.364 0.223,-0.496 0.329,-0.743 0.638,-1.496 0.997,-2.224 0.113,-0.231 0.333,-0.559 0.63,-0.432 0.209,0.089 0.327,0.41 0.462,0.641 0.05,0.085 0.031,0.209 0.047,0.315 0.037,0.253 0.092,0.504 0.11,0.758 0.053,0.767 0.099,1.535 0.127,2.302 C 0.716,0.268 0.636,0.425 0.59,0.601 0.198,0.538 0.008,0.357 0,0"
   style="fill:#231f20;fill-opacity:1;fill-rule:nonzero;stroke:none"
   id="path242"
   inkscape:connector-curvature="0" />
      </g>
      <g
   id="g244"
   transform="translate(189.5345,256.8447)">
        <path
   d="M 0,0 C -0.197,0.004 -0.372,0.008 -0.565,0.012 -0.576,0.417 -0.441,0.703 -0.146,0.973 0.153,0.663 0.093,0.35 0,0 M 1.265,-0.146 C 0.968,0.09 0.853,0.382 0.812,0.734 0.787,0.946 0.744,1.156 0.698,1.364 0.615,1.741 0.449,2.056 0.023,2.126 -0.41,2.197 -0.66,1.937 -0.842,1.6 -1.458,0.452 -2.178,-0.646 -2.569,-1.901 c -0.1,-0.32 -0.152,-0.667 -0.154,-1.002 -0.003,-0.521 0.149,-0.608 0.797,-0.505 -0.223,0.737 0.15,1.359 0.43,1.996 0.212,0.479 0.809,0.731 1.361,0.6 0.481,-0.115 0.447,-0.564 0.548,-0.918 0.023,-0.08 -0.005,-0.173 0.012,-0.255 0.044,-0.231 0.09,-0.461 0.152,-0.687 0.084,-0.302 0.278,-0.417 0.689,-0.275 -0.031,0.247 -0.063,0.473 -0.086,0.7 -0.049,0.464 -0.139,0.919 0.218,1.339 0.248,0.289 0.204,0.493 -0.133,0.762"
   style="fill:#231f20;fill-opacity:1;fill-rule:nonzero;stroke:none"
   id="path246"
   inkscape:connector-curvature="0" />
      </g>
      <g
   id="g248"
   transform="translate(152.8929,256.2539)">
        <path
   d="m 0,0 c -0.183,0.036 -0.363,0.075 -0.507,0.104 -0.238,0.633 0.249,1.387 -0.479,1.815 -0.408,-0.093 -0.441,-0.351 -0.389,-0.69 0.066,-0.438 0.119,-0.885 -0.106,-1.309 -0.376,0.008 -0.731,0.015 -1.101,0.022 -0.2,0.676 0.12,1.378 -0.157,2.018 C -3.201,1.896 -3.34,1.657 -3.348,1.284 -3.358,0.771 -3.39,0.257 -3.422,-0.257 c -0.053,-0.808 -0.125,-1.617 -0.165,-2.427 -0.017,-0.349 0.154,-0.568 0.651,-0.539 0.04,0.569 0.064,1.1 0.115,1.628 0.046,0.469 0.279,0.702 0.739,0.721 0.224,0.01 0.45,-0.06 0.721,-0.101 -0.011,-0.546 -0.038,-1.038 -0.021,-1.528 0.005,-0.137 0.142,-0.268 0.218,-0.402 0.152,0.093 0.352,0.156 0.444,0.291 0.086,0.125 0.07,0.327 0.076,0.497 0.016,0.36 0.018,0.721 0.027,1.13 0.237,0.038 0.421,0.076 0.606,0.093 0.273,0.027 0.44,0.145 0.448,0.439 C 0.447,-0.149 0.251,-0.051 0,0"
   style="fill:#231f20;fill-opacity:1;fill-rule:nonzero;stroke:none"
   id="path250"
   inkscape:connector-curvature="0" />
      </g>
      <g
   id="g252"
   transform="translate(181.3314,258.3467)">
        <path
   d="m 0,0 c 0.104,-0.022 0.251,-0.127 0.271,-0.218 0.063,-0.287 0.136,-0.645 -0.146,-0.821 -0.27,-0.169 -0.617,-0.232 -0.939,-0.277 -0.062,-0.009 -0.165,0.28 -0.192,0.329 C -1.002,-0.336 -0.494,0.105 0,0 m -0.455,-2.126 c 1.173,0.207 1.624,0.789 1.515,1.954 -0.054,0.574 -0.429,0.926 -0.997,0.985 -0.578,0.061 -1.03,-0.213 -1.5,-0.479 -0.592,-0.335 -0.983,-0.766 -0.921,-1.52 0.153,-0.773 0.3,-1.548 0.462,-2.321 0.074,-0.355 0.156,-0.712 0.273,-1.055 0.038,-0.112 0.2,-0.254 0.302,-0.252 0.114,0.002 0.296,0.135 0.325,0.244 0.068,0.261 0.097,0.544 0.085,0.815 -0.014,0.318 -0.119,0.634 -0.127,0.952 -0.012,0.469 0.12,0.596 0.583,0.677"
   style="fill:#231f20;fill-opacity:1;fill-rule:nonzero;stroke:none"
   id="path254"
   inkscape:connector-curvature="0" />
      </g>
      <g
   id="g256"
   transform="translate(178.097,257.8955)">
        <path
   d="M 0,0 C -0.001,0.189 -0.012,0.389 -0.068,0.567 -0.15,0.822 -0.207,1.145 -0.579,1.126 -0.806,1.115 -0.817,0.876 -0.8,0.421 c 0.036,-0.942 0.029,-1.885 0.002,-2.825 -0.008,-0.244 -0.118,-0.511 -0.256,-0.719 -0.119,-0.18 -0.333,-0.393 -0.523,-0.412 -0.784,-0.084 -1.286,-0.141 -1.577,0.884 C -3.34,-2 -3.399,-1.31 -3.481,-0.632 -3.521,-0.315 -3.466,0.012 -3.484,0.333 -3.49,0.441 -3.592,0.635 -3.648,0.634 -3.802,0.632 -3.99,0.585 -4.097,0.484 -4.188,0.397 -4.212,0.213 -4.219,0.068 c -0.023,-0.45 -0.078,-0.908 -0.02,-1.349 0.099,-0.759 0.149,-1.54 0.592,-2.215 0.348,-0.532 0.754,-0.934 1.461,-0.823 0.125,0.019 0.257,-0.003 0.386,-0.005 1.011,-0.018 1.372,0.202 1.615,1.188 0.153,0.615 0.146,1.271 0.21,1.907 -0.015,0.002 -0.031,0.003 -0.046,0.005 C -0.014,-0.815 0.003,-0.408 0,0"
   style="fill:#231f20;fill-opacity:1;fill-rule:nonzero;stroke:none"
   id="path258"
   inkscape:connector-curvature="0" />
      </g>
      <g
   id="g260"
   transform="translate(199.3587,255.1348)">
        <path
   d="m 0,0 c -0.187,-0.021 -0.379,0.004 -0.694,0.011 -0.068,0.591 -0.13,1.114 -0.185,1.638 -0.046,0.435 0.221,0.719 0.5,0.99 0.058,0.054 0.147,0.108 0.222,0.109 C 0.439,2.753 0.982,2.569 1.424,2.175 1.536,2.075 1.538,1.82 1.54,1.637 1.552,0.435 0.954,0.106 0,0 M 1.386,3.2 C 0.62,3.566 -0.189,3.544 -1.037,3.497 -1.213,3.068 -1.461,2.704 -1.5,2.318 -1.582,1.511 -1.58,0.69 -1.561,-0.123 c 0.01,-0.429 0.235,-0.596 0.659,-0.614 0.406,-0.017 0.815,-0.037 1.221,-0.022 1.092,0.041 1.929,0.892 1.969,1.983 C 2.295,1.417 2.287,1.61 2.303,1.803 2.358,2.508 1.974,2.919 1.386,3.2"
   style="fill:#231f20;fill-opacity:1;fill-rule:nonzero;stroke:none"
   id="path262"
   inkscape:connector-curvature="0" />
      </g>
      <g
   id="g264"
   transform="translate(220.0238,256.7822)">
        <path
   d="M 0,0 C 0.575,-0.026 1.152,-0.028 1.756,-0.041 1.87,0.569 1.856,0.597 1.426,0.63 1.255,0.644 1.083,0.64 0.912,0.644 0.34,0.655 -0.232,0.668 -0.778,0.679 -0.979,1.396 -0.913,1.56 -0.348,1.7 -0.062,1.771 0.243,1.772 0.54,1.785 0.829,1.798 1.12,1.786 1.405,1.784 1.434,2.366 1.382,2.503 1.036,2.517 0.399,2.541 -0.243,2.643 -0.873,2.407 -1.458,2.188 -1.634,1.996 -1.651,1.386 -1.676,0.508 -1.693,-0.371 -1.704,-1.249 c -0.003,-0.186 0.037,-0.371 0.059,-0.574 0.221,-0.02 0.389,-0.042 0.557,-0.046 0.664,-0.017 1.329,-0.028 1.993,-0.039 0.063,-0.001 0.142,-0.001 0.186,0.034 0.094,0.073 0.238,0.172 0.236,0.257 -0.003,0.128 -0.083,0.299 -0.185,0.368 -0.112,0.075 -0.286,0.065 -0.434,0.072 -0.385,0.018 -0.771,0.025 -1.156,0.035 -0.203,0.006 -0.426,0.036 -0.44,0.274 -0.011,0.195 0.028,0.436 0.139,0.586 C -0.579,-0.055 -0.3,0.014 0,0"
   style="fill:#231f20;fill-opacity:1;fill-rule:nonzero;stroke:none"
   id="path266"
   inkscape:connector-curvature="0" />
      </g>
      <g
   id="g268"
   transform="translate(147.0247,255.6182)">
        <path
   d="M 0,0 C -0.361,0.028 -0.727,0.019 -1.104,0.026 -1.144,-0.1 -1.19,-0.197 -1.201,-0.3 c -0.009,-0.08 0.026,-0.165 0.055,-0.309 0.337,-0.027 0.649,-0.005 0.929,-0.088 0.171,-0.052 0.383,-0.245 0.418,-0.409 0.055,-0.255 -0.144,-0.434 -0.417,-0.468 -0.233,-0.03 -0.47,-0.073 -0.702,-0.059 -0.842,0.055 -1.532,0.341 -1.135,1.544 0.02,0.061 0.032,0.124 0.043,0.188 0.144,0.734 0.633,1.097 1.333,1.194 C -0.453,1.324 -0.214,1.248 0.018,1.22 0.346,1.18 0.604,1.309 0.631,1.538 0.663,1.821 0.435,1.892 0.239,1.972 -0.754,2.382 -2.293,1.687 -2.637,0.673 c -0.09,-0.264 -0.174,-0.53 -0.239,-0.801 -0.258,-1.07 0.183,-2.197 1.607,-2.184 0.387,0.004 0.774,-0.025 1.16,-0.019 0.646,0.01 1.209,0.626 1.224,1.325 C 1.127,-0.459 0.693,-0.056 0,0"
   style="fill:#231f20;fill-opacity:1;fill-rule:nonzero;stroke:none"
   id="path270"
   inkscape:connector-curvature="0" />
      </g>
      <g
   id="g272"
   transform="translate(130.8138,255.3086)">
        <path
   d="M 0,0 C 0.006,0.295 0.012,0.548 0.019,0.893 0.323,0.868 0.561,0.85 0.844,0.827 0.717,0.334 0.48,0.092 0,0 m 2.034,-1.911 c -0.103,0.075 -0.202,0.158 -0.303,0.237 -0.35,0.275 -0.7,0.549 -1.144,0.899 0.267,0.216 0.452,0.353 0.622,0.506 0.188,0.17 0.401,0.33 0.536,0.538 C 2.026,0.7 1.873,1.196 1.391,1.365 1.032,1.49 0.644,1.563 0.266,1.583 -0.503,1.622 -0.738,1.396 -0.767,0.625 -0.803,-0.38 -0.816,-1.387 -0.83,-2.393 c -0.002,-0.178 0.046,-0.358 0.067,-0.519 0.401,-0.068 0.546,0.085 0.584,0.396 0.036,0.288 0.095,0.574 0.158,0.941 0.278,-0.118 0.504,-0.179 0.689,-0.302 0.301,-0.2 0.573,-0.443 0.86,-0.665 0.249,-0.191 0.464,-0.188 0.611,0.021 0.16,0.229 0.13,0.439 -0.105,0.61"
   style="fill:#231f20;fill-opacity:1;fill-rule:nonzero;stroke:none"
   id="path274"
   inkscape:connector-curvature="0" />
      </g>
      <g
   id="g276"
   transform="translate(212.5121,256.1406)">
        <path
   d="m 0,0 c -0.142,-0.132 -0.285,-0.261 -0.418,-0.4 -0.302,-0.319 -0.639,-0.378 -1.049,-0.21 -0.409,0.167 -0.511,0.482 -0.504,0.873 0.002,0.15 0.006,0.299 0.009,0.45 -0.005,0 -0.011,0.001 -0.017,0.002 0.026,0.255 0.02,0.517 0.082,0.764 0.126,0.501 0.534,0.736 1.027,0.597 C -0.288,1.913 0.094,1.534 0.243,0.943 0.333,0.589 0.283,0.263 0,0 M -1.038,2.771 C -1.124,2.773 -1.21,2.776 -1.295,2.777 -2.056,2.779 -2.396,2.608 -2.546,1.862 -2.687,1.163 -2.689,0.421 -2.638,-0.294 -2.617,-0.585 -2.352,-0.938 -2.096,-1.119 -1.038,-1.866 0.657,-1.18 0.98,0.09 1.342,1.512 0.418,2.739 -1.038,2.771"
   style="fill:#231f20;fill-opacity:1;fill-rule:nonzero;stroke:none"
   id="path278"
   inkscape:connector-curvature="0" />
      </g>
      <g
   id="g280"
   transform="translate(216.8968,259.292)">
        <path
   d="m 0,0 c -0.848,0.39 -2.233,-0.201 -2.516,-1.089 -0.123,-0.39 -0.111,-0.772 0.268,-1.036 0.351,-0.244 0.708,-0.479 1.071,-0.704 0.323,-0.201 0.5,-0.45 0.367,-0.858 -0.111,-0.042 -0.207,-0.099 -0.308,-0.113 -0.633,-0.083 -1.268,-0.155 -1.952,-0.237 -0.017,-0.472 0.032,-0.564 0.414,-0.616 0.802,-0.112 1.577,0.025 2.332,0.3 0.292,0.107 0.426,0.303 0.441,0.63 0.034,0.701 -0.281,1.193 -0.84,1.557 -0.232,0.151 -0.495,0.257 -0.728,0.409 -0.334,0.217 -0.338,0.557 -10e-4,0.77 0.329,0.207 0.678,0.353 1.095,0.256 C -0.143,-0.781 0.092,-0.749 0.3,-0.753 0.491,-0.34 0.313,-0.144 0,0"
   style="fill:#231f20;fill-opacity:1;fill-rule:nonzero;stroke:none"
   id="path282"
   inkscape:connector-curvature="0" />
      </g>
      <g
   id="g284"
   transform="translate(141.9915,256.3496)">
        <path
   d="M 0,0 C 0.274,-0.01 0.516,0.023 0.611,0.328 0.507,0.638 0.263,0.667 -0.011,0.671 -0.63,0.681 -1.241,0.677 -1.849,0.892 -2.173,1.007 -2.572,0.955 -2.931,0.915 -3.262,0.877 -3.414,0.662 -3.253,0.288 c 0.137,-0.018 0.282,-0.04 0.428,-0.056 0.449,-0.047 0.491,-0.092 0.517,-0.551 0.017,-0.298 0.03,-0.597 0.054,-0.894 0.021,-0.233 0.066,-0.464 0.082,-0.696 0.017,-0.242 -0.089,-0.393 -0.338,-0.473 -0.203,-0.065 -0.384,-0.2 -0.59,-0.311 0.345,-0.411 0.345,-0.42 0.734,-0.432 0.793,-0.023 1.587,-0.04 2.381,-0.051 0.591,-0.008 0.648,0.093 0.385,0.744 -0.379,0.008 -0.784,0.022 -1.189,0.023 -0.265,10e-4 -0.492,0.089 -0.543,0.355 -0.126,0.662 -0.305,1.325 -0.164,2.087 C -0.976,0.022 -0.487,0.017 0,0"
   style="fill:#231f20;fill-opacity:1;fill-rule:nonzero;stroke:none"
   id="path286"
   inkscape:connector-curvature="0" />
      </g>
      <g
   id="g288"
   transform="translate(135.5365,255.5205)">
        <path
   d="M 0,0 C -0.301,-0.007 -0.371,0.131 -0.072,0.496 0.013,0.385 0.098,0.273 0.202,0.136 0.095,0.062 0.048,0.001 0,0 M 1.928,-1.173 C 1.511,-0.405 1.021,0.323 0.542,1.055 0.314,1.401 -0.076,1.506 -0.454,1.585 -0.806,1.658 -0.952,1.523 -0.99,1.143 -1.035,0.696 -1.062,0.248 -1.117,-0.196 c -0.049,-0.402 -0.123,-0.799 -0.186,-1.2 0.016,-0.001 0.032,-0.003 0.046,-0.006 -0.005,-0.257 -0.013,-0.514 -0.015,-0.771 -0.003,-0.242 0.14,-0.351 0.362,-0.358 0.241,-0.007 0.339,0.137 0.343,0.367 0.005,0.343 0.001,0.686 0.033,1.027 0.013,0.133 0.097,0.36 0.173,0.37 0.336,0.045 0.692,0.085 1.014,0.011 0.181,-0.042 0.359,-0.289 0.451,-0.485 0.169,-0.366 0.256,-0.771 0.416,-1.143 0.066,-0.155 0.228,-0.378 0.347,-0.379 0.259,-0.002 0.328,0.267 0.302,0.48 -0.048,0.377 -0.067,0.79 -0.241,1.11"
   style="fill:#231f20;fill-opacity:1;fill-rule:nonzero;stroke:none"
   id="path290"
   inkscape:connector-curvature="0" />
      </g>
      <g
   id="g292"
   transform="translate(124.1859,255.2148)">
        <path
   d="M 0,0 C -0.247,0.152 -0.479,0.325 -0.853,0.581 -0.341,0.769 0.025,0.904 0.435,1.055 0.339,1.567 0.247,1.663 -0.155,1.656 -0.659,1.646 -1.056,1.409 -1.373,1.034 -1.722,0.62 -1.683,0.129 -1.26,-0.205 c 0.183,-0.143 0.41,-0.228 0.612,-0.349 0.217,-0.132 0.444,-0.258 0.639,-0.421 0.2,-0.166 0.264,-0.429 0.13,-0.637 -0.083,-0.129 -0.314,-0.227 -0.479,-0.226 -0.336,0.002 -0.674,0.067 -1.007,0.13 -0.189,0.034 -0.38,0.042 -0.417,-0.163 -0.03,-0.165 0.039,-0.358 0.098,-0.525 0.021,-0.058 0.143,-0.113 0.22,-0.114 0.594,-0.011 1.201,-0.088 1.777,0.011 0.624,0.106 0.864,0.672 0.683,1.293 C 0.837,-0.66 0.47,-0.291 0,0"
   style="fill:#231f20;fill-opacity:1;fill-rule:nonzero;stroke:none"
   id="path294"
   inkscape:connector-curvature="0" />
      </g>
      <g
   id="g296"
   transform="translate(157.4632,258.5811)">
        <path
   d="M 0,0 C -0.702,0.038 -1.406,-0.018 -2.101,0.197 -2.415,0.295 -2.782,0.245 -3.124,0.229 -3.457,0.215 -3.599,0.031 -3.56,-0.266 c 0.04,-0.302 0.256,-0.297 0.481,-0.276 0.063,0.006 0.127,0.021 0.19,0.029 0.779,0.117 1.121,-0.177 1.109,-0.968 -0.016,-1.029 -0.046,-2.057 -0.059,-3.086 -0.002,-0.196 0.049,-0.391 0.078,-0.603 0.412,0.075 0.567,0.274 0.58,0.591 0.01,0.236 0.014,0.472 0.019,0.707 0.018,0.836 0.026,1.672 0.057,2.507 0.019,0.565 0.091,0.621 0.643,0.626 0.272,0.002 0.543,0.011 0.875,0.018 C 0.397,-0.454 0.387,-0.256 0.374,-0.043 0.207,-0.023 0.104,-0.005 0,0"
   style="fill:#231f20;fill-opacity:1;fill-rule:nonzero;stroke:none"
   id="path298"
   inkscape:connector-curvature="0" />
      </g>
      <g
   id="g300"
   transform="translate(208.8783,255.2549)">
        <path
   d="m 0,0 c -0.148,0.018 -0.298,0.029 -0.448,0.033 -0.535,0.016 -1.072,0.022 -1.607,0.042 -0.228,0.009 -0.457,0.045 -0.759,0.076 0.017,0.816 -0.04,1.578 0.1,2.339 0.035,0.19 0.11,0.381 0.096,0.567 C -2.629,3.2 -2.729,3.426 -2.828,3.449 -2.947,3.477 -3.174,3.362 -3.235,3.247 -3.372,2.991 -3.498,2.699 -3.516,2.414 -3.566,1.603 -3.565,0.787 -3.575,-0.027 c -0.002,-0.166 0.037,-0.332 0.063,-0.551 0.248,-0.022 0.416,-0.046 0.586,-0.05 0.964,-0.023 1.928,-0.04 2.892,-0.061 0.2,-0.004 0.341,0.07 0.348,0.282 C 0.323,-0.194 0.24,-0.028 0,0"
   style="fill:#231f20;fill-opacity:1;fill-rule:nonzero;stroke:none"
   id="path302"
   inkscape:connector-curvature="0" />
      </g>
      <g
   id="g304"
   transform="translate(128.5277,256.6094)">
        <path
   d="m 0,0 c -0.749,0.026 -1.499,0.043 -2.249,0.044 -0.185,0 -0.377,-0.057 -0.553,-0.121 -0.219,-0.081 -0.246,-0.276 -0.213,-0.482 0.037,-0.221 0.203,-0.248 0.385,-0.251 0.167,-0.002 0.335,-0.006 0.543,-0.011 0.156,-0.955 0.311,-1.891 0.465,-2.835 0.211,-0.005 0.377,-0.008 0.591,-0.013 0.018,0.151 0.026,0.235 0.04,0.318 0.111,0.702 -0.147,1.352 -0.274,2.021 -0.088,0.459 0.013,0.586 0.478,0.593 0.402,0.007 0.805,-0.014 1.188,-0.022 C 0.573,-0.105 0.528,-0.019 0,0"
   style="fill:#231f20;fill-opacity:1;fill-rule:nonzero;stroke:none"
   id="path306"
   inkscape:connector-curvature="0" />
      </g>
    </g>
  </g>
</svg>