<?xml version="1.0" encoding="UTF-8" standalone="no"?>
<svg
   xmlns:dc="http://purl.org/dc/elements/1.1/"
   xmlns:cc="http://creativecommons.org/ns#"
   xmlns:rdf="http://www.w3.org/1999/02/22-rdf-syntax-ns#"
   xmlns:svg="http://www.w3.org/2000/svg"
   xmlns="http://www.w3.org/2000/svg"
   xmlns:sodipodi="http://sodipodi.sourceforge.net/DTD/sodipodi-0.dtd"
   xmlns:inkscape="http://www.inkscape.org/namespaces/inkscape"
   viewBox="0 0 150 14"
   width="100%"
   xml:space="preserve"
   id="svg2"
   version="1.1"
   sodipodi:docname="17-saludos.svg"
   inkscape:version="0.92.3 (unknown)"><sodipodi:namedview
   pagecolor="#ffffff"
   bordercolor="#666666"
   borderopacity="1"
   objecttolerance="10"
   gridtolerance="10"
   guidetolerance="10"
   inkscape:pageopacity="0"
   inkscape:pageshadow="2"
   inkscape:window-width="1920"
   inkscape:window-height="1031"
   id="namedview480"
   showgrid="false"
   inkscape:zoom="5.3776175"
   inkscape:cx="20.512941"
   inkscape:cy="5.9776507"
   inkscape:window-x="0"
   inkscape:window-y="27"
   inkscape:window-maximized="1"
   inkscape:current-layer="svg2" /><defs
   id="defs192" />
  
  <metadata
   id="metadata8">
    <rdf:RDF>
      <cc:Work
   rdf:about="">
        <dc:format>image/svg+xml</dc:format>
        <dc:type
   rdf:resource="http://purl.org/dc/dcmitype/StillImage" />
        <dc:title></dc:title>
      </cc:Work>
    </rdf:RDF>
  </metadata>
  <g
   id="g189"
   transform="matrix(1.333333,0,0,-1.333333,-153.85479,335.44666)">
    <g
   id="g3731">
      <g
   id="g308"
   transform="translate(181.7318,244.0859)">
        <path
   d="m 0,0 c -0.086,-0.08 -0.227,-0.131 -0.346,-0.139 -0.383,-0.022 -0.77,-0.053 -1.15,-0.017 -0.706,0.066 -1.127,0.458 -1.299,1.135 -0.163,0.65 0.111,1.54 0.633,1.834 0.266,0.149 0.603,0.17 0.806,0.223 C -1.003,2.998 -0.755,3.016 -0.54,2.939 -0.036,2.763 0.4,2.458 0.499,1.899 0.621,1.206 0.566,0.523 0,0 M 1.038,2.694 C 0.544,3.236 0.046,3.783 -0.789,3.737 -0.893,3.731 -1,3.771 -1.104,3.794 -2.323,4.071 -3.492,3.202 -3.583,1.938 -3.605,1.618 -3.604,1.294 -3.582,0.974 c 0.066,-0.995 0.89,-1.8 1.887,-1.855 0.235,-0.014 0.471,-0.002 0.708,-0.002 v -0.005 c 0.15,0 0.3,-0.002 0.45,0 0.906,0.009 1.633,0.573 1.747,1.45 C 1.285,1.133 1.243,1.72 1.226,2.298 1.222,2.433 1.134,2.59 1.038,2.694"
   style="fill:#231f20;fill-opacity:1;fill-rule:nonzero;stroke:none"
   id="path310"
   inkscape:connector-curvature="0" />
      </g>
      <g
   id="g312"
   transform="translate(188.8529,248.7227)">
        <path
   d="m 0,0 c -1.092,0.148 -2.102,-0.072 -2.946,-0.8 -0.535,-0.46 -0.646,-1.095 -0.517,-1.766 0.12,-0.622 0.662,-0.643 1.133,-0.775 0.371,-0.104 0.732,-0.242 1.092,-0.382 0.106,-0.04 0.191,-0.135 0.317,-0.228 -0.972,-0.941 -2.175,-0.878 -3.33,-0.92 0.012,-0.526 0.045,-0.577 0.463,-0.631 1.195,-0.152 2.306,0.092 3.32,0.741 0.673,0.432 0.655,1.185 -0.033,1.607 -0.145,0.088 -0.31,0.149 -0.473,0.199 -0.429,0.131 -0.864,0.248 -1.296,0.371 -0.378,0.107 -0.532,0.354 -0.41,0.721 0.052,0.155 0.151,0.311 0.268,0.426 0.588,0.577 1.286,0.835 2.113,0.679 0.147,-0.028 0.303,-0.107 0.437,-0.078 0.144,0.031 0.341,0.138 0.379,0.255 0.036,0.11 -0.081,0.299 -0.178,0.413 C 0.264,-0.078 0.121,-0.017 0,0"
   style="fill:#231f20;fill-opacity:1;fill-rule:nonzero;stroke:none"
   id="path314"
   inkscape:connector-curvature="0" />
      </g>
      <g
   id="g316"
   transform="translate(176.1341,245.1855)">
        <path
   d="m 0,0 c -0.629,-0.573 -1.41,-0.878 -2.227,-1.079 -0.272,-0.067 -0.39,0.142 -0.403,0.377 -0.018,0.32 -0.005,0.641 -0.005,0.962 h -0.009 v 0.835 c 0.001,0.294 0.16,0.418 0.443,0.427 0.722,0.026 1.402,-0.126 2.027,-0.489 C 0.201,0.816 0.311,0.282 0,0 m 0.477,1.605 c -0.294,0.167 -0.61,0.337 -0.936,0.401 -0.75,0.144 -1.512,0.235 -2.27,0.328 -0.343,0.042 -0.575,-0.154 -0.582,-0.521 -0.016,-0.941 -0.006,-1.882 0.004,-2.824 0.002,-0.144 0.057,-0.293 0.108,-0.432 0.163,-0.456 0.362,-0.584 0.825,-0.48 1.007,0.228 1.959,0.57 2.787,1.228 0.431,0.341 0.559,0.784 0.639,1.276 C 0.999,1.004 0.859,1.387 0.477,1.605"
   style="fill:#231f20;fill-opacity:1;fill-rule:nonzero;stroke:none"
   id="path318"
   inkscape:connector-curvature="0" />
      </g>
      <g
   id="g320"
   transform="translate(171.4124,246.873)">
        <path
   d="m 0,0 c -0.068,0.531 -0.223,0.747 -0.479,0.709 -0.258,-0.038 -0.38,-0.272 -0.388,-0.786 -0.009,-0.492 -0.006,-0.985 -0.004,-1.478 0.001,-0.326 -0.12,-0.588 -0.407,-0.75 -0.571,-0.321 -1.489,-0.017 -1.769,0.586 -0.062,0.135 -0.106,0.282 -0.142,0.426 -0.124,0.497 -0.271,0.987 -0.175,1.517 0.022,0.128 -0.095,0.369 -0.202,0.408 -0.109,0.039 -0.364,-0.07 -0.415,-0.18 -0.123,-0.259 -0.245,-0.564 -0.216,-0.836 0.048,-0.462 0.152,-0.936 0.337,-1.361 0.389,-0.897 0.968,-1.574 2.099,-1.383 0.125,0.022 0.257,-0.003 0.385,0.006 0.623,0.04 1.088,0.409 1.231,1.022 0.103,0.435 0.155,0.881 0.23,1.323 C 0.072,-0.774 0.061,-0.771 0.049,-0.77 0.033,-0.513 0.033,-0.255 0,0"
   style="fill:#231f20;fill-opacity:1;fill-rule:nonzero;stroke:none"
   id="path322"
   inkscape:connector-curvature="0" />
      </g>
      <g
   id="g324"
   transform="translate(159.7943,245.792)">
        <path
   d="M 0,0 C -0.037,0.367 0.05,0.619 0.44,0.833 0.482,0.547 0.516,0.317 0.558,0.031 0.333,0.019 0.178,0.01 0,0 M 1.581,-0.474 C 1.471,0.004 1.392,0.494 1.223,0.951 1.078,1.346 0.88,1.785 0.358,1.79 -0.145,1.794 -0.403,1.394 -0.574,1.01 -0.947,0.169 -1.268,-0.696 -1.586,-1.56 c -0.067,-0.18 -0.035,-0.397 -0.051,-0.629 1.04,0.003 0.822,0.967 1.201,1.388 H 0.81 C 0.906,-1.122 0.982,-1.411 1.08,-1.692 1.236,-2.139 1.285,-2.161 1.831,-2.093 1.807,-1.85 1.792,-1.6 1.754,-1.354 1.707,-1.059 1.647,-0.765 1.581,-0.474"
   style="fill:#231f20;fill-opacity:1;fill-rule:nonzero;stroke:none"
   id="path326"
   inkscape:connector-curvature="0" />
      </g>
      <g
   id="g328"
   transform="translate(156.2933,246.958)">
        <path
   d="M 0,0 C 0.146,0.06 0.329,0.036 0.495,0.04 0.718,0.046 0.94,0.042 1.274,0.042 1.171,0.309 1.151,0.551 1.021,0.661 0.36,1.213 -0.989,0.671 -1.108,-0.19 c -0.072,-0.516 -0.09,-1.024 0.53,-1.294 0.266,-0.117 0.498,-0.334 0.715,-0.539 0.245,-0.231 0.175,-0.498 -0.151,-0.561 -0.224,-0.044 -0.465,-0.01 -0.699,0.005 -0.224,0.014 -0.447,0.048 -0.716,0.078 -0.028,-0.63 0.083,-0.802 0.532,-0.863 0.252,-0.034 0.513,-0.024 0.77,-0.016 1.198,0.039 1.207,0.434 1.185,1.225 -0.014,0.488 -0.19,0.813 -0.632,1.013 -0.194,0.088 -0.39,0.189 -0.552,0.324 C -0.439,-0.558 -0.379,-0.156 0,0"
   style="fill:#231f20;fill-opacity:1;fill-rule:nonzero;stroke:none"
   id="path330"
   inkscape:connector-curvature="0" />
      </g>
      <g
   id="g332"
   transform="translate(165.6361,244.3145)">
        <path
   d="m 0,0 c -0.336,0.046 -0.683,0.007 -1.024,0.016 -0.289,0.007 -0.579,0.036 -0.932,0.058 0,0.366 10e-4,0.662 0,0.957 C -1.96,1.566 -1.963,2.102 -1.971,2.636 -1.974,2.865 -2.026,3.07 -2.307,3.095 -2.604,3.121 -2.68,2.904 -2.683,2.685 -2.693,1.576 -2.688,0.469 -2.688,-0.736 c 0.931,0 1.763,0 2.596,0.001 0.042,0 0.086,0.001 0.128,0.007 0.242,0.042 0.426,0.201 0.375,0.428 C 0.382,-0.171 0.154,-0.021 0,0"
   style="fill:#231f20;fill-opacity:1;fill-rule:nonzero;stroke:none"
   id="path334"
   inkscape:connector-curvature="0" />
      </g>
    </g>
  </g>
</svg>