<?xml version="1.0" encoding="UTF-8" standalone="no"?>
<svg
   xmlns:dc="http://purl.org/dc/elements/1.1/"
   xmlns:cc="http://creativecommons.org/ns#"
   xmlns:rdf="http://www.w3.org/1999/02/22-rdf-syntax-ns#"
   xmlns:svg="http://www.w3.org/2000/svg"
   xmlns="http://www.w3.org/2000/svg"
   id="svg5647"
   viewBox="0 0 173.982962083 28.0410179167"
   height="28.0410179167mm"
   width="173.982962083mm"
   version="1.1">
  <defs
     id="defs24" />
  <metadata
     id="metadata5644">
    <rdf:RDF>
      <cc:Work
         rdf:about="">
        <dc:format>image/svg+xml</dc:format>
        <dc:type
           rdf:resource="http://purl.org/dc/dcmitype/StillImage" />
      </cc:Work>
    </rdf:RDF>
  </metadata>
  <g
     id="g21"
     transform="matrix(1.000000,0.000000,0.000000,1.000000,591.346078,-128.173969)">
    <path
       d="m -440.07334,131.35903 c -0.35105,-0.0511 -0.76777,-0.23559 -0.92604,-0.40989 -0.4032,-0.444 -0.94927,-1.43333 -0.94927,-1.71977 0,-0.35023 0.81147,-0.6046 1.158,-0.36303 0.16346,0.11395 0.52567,0.20481 0.80491,0.2019 0.27922,-0.003 0.84477,0.33179 1.25678,0.74377 0.83314,0.83317 0.9439,1.10434 0.35943,0.88006 -0.21431,-0.0822 -0.54173,0.0551 -0.7276,0.30519 -0.20265,0.27263 -0.59357,0.41749 -0.97621,0.36177 z m -114.03777,13.82368 c 0.0127,-0.30824 0.0754,-0.37092 0.15986,-0.15986 0.0764,0.191 0.067,0.41921 -0.0209,0.50713 -0.0879,0.0879 -0.15047,-0.0684 -0.13899,-0.34727 z m 110.73024,0.83916 c -0.32181,-0.84262 -0.38655,-1.333 -0.20513,-1.5534 0.34491,-0.41894 0.36248,-3.03924 0.0217,-3.2498 -0.16159,-0.0999 -0.16878,-0.27995 -0.0188,-0.46924 0.14184,-0.17893 0.15526,-1.02518 0.0321,-2.02697 -0.19018,-1.54741 -0.15565,-1.77945 0.34462,-2.3151 0.30581,-0.32743 0.70705,-0.59532 0.89165,-0.59532 0.58674,0 2.21795,1.09556 2.21795,1.48966 0,0.20847 0.18819,0.45125 0.4182,0.53951 0.24593,0.0944 0.36647,0.35817 0.29265,0.64048 -0.069,0.26397 -0.005,0.52004 0.1415,0.56899 0.5352,0.17841 0.14333,6.61334 -0.45233,7.42794 -0.23233,0.31773 -0.83243,0.52879 -1.78218,0.62682 l -1.4319,0.14777 -0.47024,-1.23134 z m -24.09952,1.07907 c -0.36412,-0.12128 -0.66202,-0.32589 -0.66202,-0.45471 0,-0.12885 -0.15541,-0.1746 -0.34538,-0.10171 -0.18995,0.0729 -0.84376,-0.22849 -1.45291,-0.66976 -0.60915,-0.44128 -1.24037,-0.8023 -1.40271,-0.8023 -0.16235,0 -0.228,-0.17515 -0.14584,-0.38923 0.0822,-0.21405 -0.019,-0.55747 -0.22458,-0.76314 -0.20566,-0.20566 -0.62963,-0.86455 -0.94218,-1.46417 -0.31255,-0.59965 -0.66466,-1.14983 -0.78245,-1.22262 -0.11777,-0.0728 -0.29451,-0.60798 -0.39273,-1.1893 -0.0982,-0.58134 -0.27463,-1.05696 -0.39203,-1.05696 -0.11739,0 -0.11369,-0.44241 0.008,-0.98313 0.13923,-0.6173 0.12039,-1.10525 -0.0506,-1.31133 -0.28392,-0.34208 -0.067,-0.97653 0.26392,-0.77198 0.3066,0.1895 0.23048,-1.01573 -0.0776,-1.22899 -0.18986,-0.13142 -0.17901,-0.19568 0.0335,-0.19843 0.17286,-0.003 0.29697,-0.23392 0.27581,-0.51488 -0.0212,-0.28096 -0.15143,-0.44104 -0.28946,-0.35574 -0.35533,0.21961 0.018,-1.48796 0.47903,-2.1918 0.44479,-0.67882 1.73818,-0.99624 2.64872,-0.65006 l 0.65002,0.24715 -0.0672,4.57491 c -0.037,2.51621 0.0159,4.27725 0.11722,3.91345 l 0.18441,-0.66146 0.0265,0.712 c 0.0145,0.39158 0.13195,0.77724 0.26096,0.85696 0.12904,0.0797 0.31014,0.54771 0.40248,1.03994 0.0923,0.4922 0.40222,1.16512 0.68861,1.49532 l 0.52072,0.60039 1.25963,-0.64685 c 0.79576,-0.40865 1.28908,-0.84818 1.33967,-1.19359 0.044,-0.30073 0.34168,-0.67318 0.66145,-0.82767 0.31978,-0.15449 0.43257,-0.28895 0.25067,-0.29879 -0.1819,-0.01 -0.33073,-0.32261 -0.33073,-0.69498 0,-0.4277 0.1079,-0.6104 0.29292,-0.49605 0.19714,0.12185 0.23458,-0.003 0.11446,-0.38126 -0.10829,-0.34126 -0.0638,-0.56229 0.11327,-0.56229 0.19269,0 0.2104,-0.15719 0.0522,-0.46302 -0.13174,-0.25466 -0.20262,-0.69435 -0.15751,-0.97708 0.0451,-0.28271 8e-5,-0.6399 -0.10006,-0.79375 -0.10015,-0.15383 -0.19021,-0.90607 -0.20016,-1.67167 -0.0132,-1.0255 0.10848,-1.50648 0.4626,-1.82694 0.28874,-0.26131 0.48064,-0.31295 0.48064,-0.12939 0,0.16809 0.23812,0.3056 0.52917,0.3056 0.29104,0 0.52916,0.11104 0.52916,0.24675 0,0.1357 0.23813,0.32234 0.52917,0.41471 0.29104,0.0924 0.52917,0.32861 0.52917,0.52496 0,0.19634 0.14882,0.40663 0.33072,0.4673 0.24562,0.0819 0.32616,1.10705 0.31295,3.98267 -0.0154,3.32616 -0.0842,3.94578 -0.48895,4.39298 -0.25913,0.28633 -0.40089,0.63431 -0.31501,0.77327 0.0859,0.13894 -0.0472,0.80129 -0.29572,1.47188 -0.36092,0.97383 -0.57669,1.21923 -1.07188,1.21923 -0.34597,0 -0.54774,0.11694 -0.45649,0.26458 0.0899,0.14552 -0.0618,0.26458 -0.33716,0.26458 -0.27538,0 -0.5884,0.0877 -0.69564,0.19498 -0.26398,0.26394 -1.85571,0.25288 -2.67081,-0.0185 z m -27.64703,2.39406 c -0.2078,-0.32234 -0.35081,-0.72136 -0.31776,-0.8867 0.033,-0.16534 -0.12819,-0.37288 -0.35827,-0.46117 -0.23009,-0.0883 -0.341,-0.28564 -0.24649,-0.43855 0.0945,-0.15293 0.0277,-0.45172 -0.14846,-0.66399 -0.17616,-0.21228 -0.25913,-0.71306 -0.18436,-1.11289 0.0748,-0.39982 0.045,-0.96507 -0.0661,-1.25611 -0.11112,-0.29105 -0.0966,-0.73229 0.0324,-0.98055 0.44487,-0.85659 0.81418,-7.92067 0.45455,-8.69402 -0.10593,-0.22778 -0.0764,-0.88263 0.0655,-1.45521 0.14198,-0.57259 0.29483,-1.21965 0.33965,-1.43793 0.0646,-0.31451 0.51541,-0.39278 2.17239,-0.37709 1.15001,0.0109 2.52693,0.0979 3.05985,0.19331 0.85408,0.15293 1.17417,0.033 2.70029,-1.01198 0.95223,-0.65201 1.85568,-1.18549 2.00763,-1.18549 0.15195,0 0.27628,-0.10554 0.27628,-0.23456 0,-0.12901 0.38695,-0.29141 0.85989,-0.36089 1.08154,-0.15891 2.57969,0.52269 2.57969,1.17362 0,0.26408 0.12755,0.48016 0.28347,0.48016 0.15592,0 0.45146,0.16796 0.65675,0.37325 0.20529,0.20529 0.50361,0.41672 0.66297,0.46982 0.46117,0.15372 0.96366,3.11994 0.83349,4.91982 -0.075,1.03653 -0.005,1.78485 0.19015,2.01943 0.17079,0.2058 0.2032,0.43821 0.0724,0.51906 -0.31337,0.19368 -0.35099,1.75279 -0.0423,1.75279 0.28541,0 -1.3e-4,1.6819 -0.3063,1.80422 -0.24416,0.0975 -0.0169,2.64782 0.28408,3.1905 0.11126,0.2005 0.0852,0.82595 -0.058,1.38991 -0.21196,0.83505 -0.41386,1.06564 -1.08776,1.24235 -0.61102,0.16021 -0.9022,0.11663 -1.11304,-0.16663 -0.21601,-0.2902 -0.41188,-0.31597 -0.80447,-0.10586 -0.47445,0.25392 -0.52274,0.18346 -0.5628,-0.82148 -0.0259,-0.64984 -0.21322,-1.22309 -0.45817,-1.40219 -0.32055,-0.23439 -0.35611,-0.45608 -0.15711,-0.97946 0.18452,-0.48532 0.16748,-0.71318 -0.0603,-0.80629 -0.22625,-0.0925 -0.23429,-0.19262 -0.028,-0.34838 0.15917,-0.1202 0.26352,-0.78639 0.23182,-1.48037 -0.0317,-0.694 0.0464,-1.32609 0.17357,-1.40467 0.12716,-0.0786 0.22937,-0.34422 0.22715,-0.59028 -0.003,-0.38558 -0.0395,-0.39257 -0.26054,-0.0505 -0.22183,0.34327 -0.25702,0.33729 -0.26053,-0.0441 -0.003,-0.24251 0.14478,-0.50135 0.32668,-0.57515 0.25736,-0.10443 0.2513,-0.18991 -0.0273,-0.38528 -0.24945,-0.17492 -0.28425,-0.40172 -0.11467,-0.74774 0.35705,-0.72861 0.18174,-4.00402 -0.23543,-4.39883 -0.40103,-0.37952 -2.33474,-0.21884 -2.38231,0.19799 -0.0167,0.14552 -0.83746,0.4006 -1.82409,0.56684 -2.0429,0.34422 -2.67073,0.70644 -3.60328,2.0788 -0.58438,0.85998 -0.67551,1.32633 -0.79293,4.05779 -0.20473,4.76234 -0.17163,5.99612 0.17846,6.65027 0.23956,0.4476 0.24538,0.65241 0.0225,0.79015 -0.16547,0.10229 -0.22918,0.37275 -0.14158,0.60106 0.20675,0.53879 -0.15417,0.74332 -1.54109,0.87333 -0.94284,0.0884 -1.19306,0.009 -1.5082,-0.48008 z m -24.47644,1.28302 c -0.72761,-0.35021 -1.20714,-0.64612 -1.06561,-0.6576 0.14152,-0.0114 -0.007,-0.20622 -0.33073,-0.43275 -0.32343,-0.22654 -0.58804,-0.59074 -0.58804,-0.80936 0,-0.21863 -0.10186,-0.33454 -0.22635,-0.2576 -0.12451,0.0769 -0.16851,-0.16275 -0.0978,-0.53263 0.0707,-0.36989 -0.0201,-0.95044 -0.20193,-1.29009 -0.27561,-0.51498 -0.24379,-0.88527 0.19167,-2.22985 0.41314,-1.2758 0.44733,-1.61235 0.16369,-1.61235 -0.38893,0 -0.45384,-0.52339 -0.38555,-3.10885 0.0251,-0.95512 -0.068,-1.65365 -0.22087,-1.65365 -0.1455,0 -0.19603,-0.17859 -0.11226,-0.39687 0.0872,-0.22717 0.005,-0.39688 -0.19117,-0.39688 -0.20431,0 -0.13538,-0.15737 0.17013,-0.38846 0.28247,-0.21365 0.37865,-0.39224 0.21371,-0.39687 -0.33296,-0.009 -0.70406,-0.9575 -0.64133,-1.63862 0.0222,-0.24178 -0.0902,-0.52033 -0.2499,-0.61905 -0.18801,-0.1162 -0.0849,-0.35763 0.29242,-0.6849 0.32052,-0.27799 0.44551,-0.50543 0.27771,-0.50543 -0.16778,0 -0.30507,-0.11366 -0.30507,-0.2526 0,-0.37446 1.93641,-0.68506 2.05489,-0.32961 0.0696,0.20891 0.28268,0.20563 0.7597,-0.0117 0.50427,-0.22976 0.70972,-0.22629 0.85852,0.0146 0.12477,0.20187 0.64336,0.27458 1.43137,0.20071 0.67963,-0.0637 1.30124,-0.01 1.38139,0.11988 0.16925,0.27385 0.96366,0.0308 1.2532,-0.38335 0.13356,-0.19103 0.28495,-0.1541 0.46302,0.113 0.21941,0.32914 0.30411,0.3356 0.49612,0.0379 0.22463,-0.3483 1.60401,-0.23373 2.282,0.18955 0.56084,0.35015 2.09196,0.79565 2.29762,0.66858 0.11874,-0.0734 0.21592,-0.007 0.21592,0.14673 0,0.1541 -0.17859,0.2802 -0.39687,0.2802 -0.21828,0 -0.39688,0.13179 -0.39688,0.29289 0,0.16108 -0.16875,0.22812 -0.37497,0.14899 -0.20624,-0.0791 -0.44063,0.0272 -0.52088,0.23627 -0.0802,0.2091 -0.29845,0.37835 -0.4849,0.37613 -0.2408,-0.003 -0.22625,-0.0754 0.0502,-0.25019 0.21407,-0.13539 0.30964,-0.32573 0.21238,-0.42299 -0.0973,-0.0973 -0.49477,0.0732 -0.88334,0.37889 -0.38857,0.30564 -0.81677,0.48754 -0.95155,0.40425 -0.1348,-0.0833 -0.3887,-0.0348 -0.56422,0.10769 -0.17552,0.14253 -0.75695,0.22288 -1.29204,0.17857 -0.65209,-0.054 -1.02013,0.0425 -1.11617,0.29278 -0.0788,0.20537 -0.32562,0.37338 -0.54846,0.37338 -0.22285,0 -0.40518,0.11907 -0.40518,0.26459 0,0.14552 -0.18563,0.26458 -0.41248,0.26458 -0.22688,0 -0.33891,0.11906 -0.24898,0.26458 0.0899,0.14552 0.0519,0.26459 -0.0845,0.26459 -0.13642,0 -0.37669,0.50601 -0.53393,1.12448 -0.26744,1.05182 -0.24191,1.16234 0.39513,1.71058 0.6822,0.58711 2.47224,0.78698 2.47224,0.27604 0,-0.13422 0.36965,-0.16155 0.8268,-0.0611 0.5706,0.12534 0.89855,0.0704 1.05833,-0.1774 0.19447,-0.30154 0.26916,-0.30064 0.46654,0.006 0.12925,0.20055 0.36738,0.28281 0.52917,0.18282 0.16179,-0.1 0.29416,-0.0637 0.29416,0.0806 0,0.1443 0.22006,0.33221 0.489,0.41757 0.26898,0.0854 0.61386,0.42918 0.76642,0.76403 0.21958,0.48192 0.18659,0.67596 -0.15827,0.93083 -0.30001,0.2217 -0.31208,0.2661 -0.0388,0.14256 0.34502,-0.15597 0.34401,-0.12292 -0.008,0.25284 -0.22244,0.23775 -0.75822,0.44577 -1.19063,0.4623 -1.25912,0.0481 -3.03305,0.59121 -3.4554,1.05791 -0.21423,0.23673 -0.4966,0.80383 -0.62751,1.26024 -0.30404,1.06011 -0.0498,1.13006 3.75988,1.03434 1.56441,-0.0393 2.84433,0.0177 2.84428,0.12697 -8e-5,0.10914 0.23524,0.19844 0.52292,0.19844 0.28771,0 0.71744,0.29662 0.95498,0.65918 0.23757,0.36256 0.54274,0.59071 0.67818,0.50699 0.35084,-0.21682 -0.0542,1.3026 -0.41103,1.54176 -0.28098,0.18835 -1.22951,0.24693 -4.997,0.30866 -0.98813,0.0161 -1.8811,0.14774 -1.98437,0.29237 -0.10329,0.14459 -0.71363,0.29707 -1.35636,0.33882 -0.64273,0.0418 -1.29757,0.24837 -1.45521,0.45916 -0.24556,0.32837 -0.47614,0.29205 -1.60954,-0.25347 z m 58.64113,0.55544 c -0.1434,-0.17277 -0.29945,-0.65574 -0.34676,-1.07322 -0.0715,-0.63104 0.0233,-0.77664 0.56158,-0.86308 0.35618,-0.0572 0.8418,-0.27974 1.07916,-0.49455 0.23735,-0.21482 0.68156,-0.39056 0.98713,-0.39056 0.30557,0 0.71393,-0.15835 0.90747,-0.35189 0.19354,-0.19354 0.79499,-0.42378 1.33654,-0.51168 1.13342,-0.18391 2.55122,-1.14517 3.96692,-2.68954 0.79921,-0.87183 0.96984,-1.24262 0.89543,-1.94556 -0.10747,-1.01547 0.0164,-0.88278 -1.48867,-1.59518 -1.11816,-0.52929 -2.86925,-1.97119 -3.67933,-3.02969 -0.68529,-0.89548 -0.60227,-2.05372 0.24154,-3.36867 1.13975,-1.77618 2.21716,-2.66388 3.70515,-3.05282 1.16491,-0.30448 1.6941,-0.39589 3.01545,-0.52093 1.33993,-0.12679 1.51551,-0.0937 1.24323,0.23436 -0.26527,0.31965 -0.0772,0.45173 1.15173,0.80899 0.80782,0.23485 1.46875,0.49591 1.46875,0.58018 0,0.0843 -0.17859,0.0847 -0.39687,0 -0.21828,-0.0838 -0.39688,-0.037 -0.39688,0.10398 0,0.14095 -0.24516,0.25628 -0.54477,0.25628 -0.29964,0 -0.48416,0.0981 -0.41008,0.21794 0.0741,0.11988 -0.42754,0.36205 -1.11474,0.53818 -0.68718,0.17611 -1.63074,0.67657 -2.09677,1.11213 -0.46604,0.43553 -0.93964,0.78618 -1.05246,0.77922 -0.11282,-0.007 -0.24257,0.41463 -0.28832,0.93692 -0.0652,0.74461 0.1061,1.19711 0.79375,2.09611 0.48231,0.63058 1.20401,1.3666 1.60377,1.6356 0.39976,0.269 0.72718,0.59097 0.72761,0.71548 0,0.12452 0.3072,0.59058 0.68172,1.03566 0.46347,0.55084 0.62886,0.9855 0.51782,1.36112 -0.35841,1.21256 -0.4027,1.74247 -0.14563,1.74247 0.39196,0 0.33195,0.52782 -0.061,0.53629 -0.1819,0.004 -0.6051,0.45254 -0.94043,0.99692 -0.70731,1.14829 -2.23542,2.27968 -3.18328,2.35683 -0.36198,0.0295 -0.73594,0.17941 -0.83098,0.33319 -0.095,0.15377 -0.77965,0.49331 -1.52136,0.75451 -0.7417,0.2612 -1.51511,0.61315 -1.7187,0.78211 -0.49406,0.41002 -4.32329,0.38706 -4.66776,-0.028 z m -129.0203,0.089 c 0.0899,-0.14552 0.21603,-0.26458 0.2802,-0.26458 0.0642,0 0.11668,0.11906 0.11668,0.26458 0,0.14552 -0.1261,0.26458 -0.2802,0.26458 -0.15412,0 -0.20661,-0.11906 -0.11668,-0.26458 z m 164.87389,0.87633 c -0.067,-0.067 -0.67194,-0.15891 -1.34432,-0.20423 -0.76634,-0.0517 -1.61253,-0.34052 -2.26777,-0.77412 -0.57489,-0.38045 -1.21666,-0.69173 -1.42616,-0.69173 -0.679,0 -1.21793,-0.31213 -1.21793,-0.70538 0,-0.21129 -0.10567,-0.31887 -0.23482,-0.23905 -0.299,0.18479 -2.6756,-2.57821 -2.6756,-3.11063 0,-0.21931 -0.13266,-0.44299 -0.29482,-0.49704 -0.16214,-0.054 -0.32983,-0.39137 -0.37261,-0.74965 -0.0428,-0.35824 -0.161,-0.85973 -0.26268,-1.1144 -0.12123,-0.30374 -0.0613,-0.46442 0.1742,-0.46706 0.2835,-0.003 0.27786,-0.0554 -0.0268,-0.24813 -0.32907,-0.20815 -0.29612,-0.42376 0.22373,-1.46465 0.38306,-0.76703 0.55094,-1.45415 0.4518,-1.84918 -0.118,-0.47016 0.009,-0.75983 0.50387,-1.14908 0.36391,-0.28626 0.6653,-0.68191 0.6698,-0.87924 0.009,-0.38087 3.21855,-3.93068 3.5543,-3.93068 0.10883,0 0.66829,-0.37258 1.24323,-0.82796 0.69323,-0.54903 1.44341,-0.8728 2.22697,-0.96112 0.64987,-0.0733 1.24539,-0.23646 1.32342,-0.36267 0.23561,-0.38126 0.90434,-0.25749 0.90434,0.16738 0,0.21828 0.13253,0.36711 0.29454,0.33073 0.16198,-0.0364 0.33986,0.23151 0.39523,0.59531 0.0554,0.3638 0.16359,0.93073 0.24046,1.25979 0.10652,0.45617 -0.0188,0.67061 -0.52756,0.90239 -0.36697,0.16721 -0.66725,0.40396 -0.66725,0.52612 0,0.12216 -0.24516,0.22212 -0.54478,0.22212 -0.29964,0 -0.47262,0.11676 -0.38444,0.25947 0.0893,0.14447 -0.3012,0.33327 -0.88122,0.42601 -0.74834,0.11967 -1.1227,0.34459 -1.32969,0.79888 -0.15846,0.34777 -0.40973,0.6323 -0.55837,0.6323 -0.14865,0 -0.27025,0.16587 -0.27025,0.36857 0,0.20272 -0.17859,0.43709 -0.39687,0.52086 -0.21829,0.0838 -0.39688,0.30599 -0.39688,0.49384 0,0.18783 -0.23812,0.49025 -0.52917,0.67199 -0.29104,0.18177 -0.52916,0.55766 -0.52916,0.83534 0,0.27768 -0.12079,0.54515 -0.2684,0.59436 -0.14761,0.0492 -0.32826,0.5573 -0.40147,1.12909 -0.0732,0.57179 -0.18159,1.08812 -0.24086,1.14739 -0.0593,0.0592 0.0483,0.62635 0.23908,1.26021 0.19077,0.63383 0.30009,1.19922 0.24294,1.25637 -0.0571,0.0571 0.34335,0.56531 0.89001,1.12922 0.54665,0.56393 0.96858,1.10543 0.93766,1.20332 -0.12923,0.40889 2.04141,0.69414 3.40119,0.44699 1.63756,-0.29763 2.59926,-0.75393 3.51136,-1.66603 1.01738,-1.01737 2.04195,-0.88813 2.91198,0.36732 l 0.7121,1.02759 -0.88921,0.97063 c -1.20457,1.3149 -2.26801,1.97479 -2.97559,1.84647 -0.32369,-0.0587 -1.13464,0.0576 -1.80213,0.25852 -0.66749,0.20088 -1.26841,0.31044 -1.3354,0.24345 z M -562.0725,137.47305 c 0.29271,-0.25064 0.53218,-0.67437 0.53218,-0.94168 0,-0.26729 0.11083,-0.41746 0.2463,-0.33375 0.13547,0.0837 0.3211,0.0312 0.41249,-0.11668 0.0914,-0.1479 -0.0193,-0.2689 -0.2463,-0.2689 -0.22686,0 -0.41249,-0.11533 -0.41249,-0.25627 0,-0.33772 -0.79637,-0.0233 -1.42909,0.56446 -0.41577,0.38613 -0.44458,0.53763 -0.16603,0.87326 0.24773,0.2985 0.25421,0.40605 0.0243,0.40605 -0.17193,0 -0.239,0.11907 -0.14907,0.26459 0.23646,0.38261 0.58262,0.32692 1.18761,-0.19108 z m 14.55684,2.30491 c 0.11203,-0.18126 0.33605,-0.24773 0.49784,-0.14774 0.16179,0.1 0.29417,0.043 0.29417,-0.12671 0,-0.16968 0.17055,-0.24305 0.37901,-0.16306 0.36907,0.14163 2.00224,-2.03078 2.00224,-2.66338 0,-0.274 -0.66871,-0.68098 -1.19063,-0.72461 -0.14552,-0.0122 -0.40381,-0.10935 -0.57399,-0.21598 -0.17015,-0.10663 -0.49778,-0.006 -0.72802,0.22474 -0.23024,0.23024 -0.6268,0.37327 -0.88123,0.31781 -0.26519,-0.0578 -0.82184,0.25916 -1.30442,0.74272 -0.70474,0.70617 -0.81933,0.98866 -0.70374,1.73513 0.076,0.49038 0.24715,0.93155 0.38045,0.98036 0.1333,0.0488 0.17608,0.19601 0.095,0.32713 -0.081,0.13111 0.23,0.19445 0.69114,0.14074 0.46117,-0.0537 0.93014,-0.24591 1.04214,-0.42715 z m -5.55799,7.94033 c 0,-0.14552 -0.1261,-0.26458 -0.2802,-0.26458 -0.15412,0 -0.20661,0.11906 -0.11668,0.26458 0.0899,0.14552 0.21603,0.26459 0.28019,0.26459 0.0642,0 0.11669,-0.11907 0.11669,-0.26459 z m -11.70782,5.49405 c -0.5457,-0.57753 -0.99218,-1.20192 -0.99218,-1.38755 0,-0.18566 -0.18611,-0.492 -0.4136,-0.68078 -0.37507,-0.31128 -0.37507,-0.36483 0,-0.57472 0.22749,-0.1273 0.4136,-0.41117 0.4136,-0.6308 0,-0.23751 -0.12544,-0.32181 -0.30954,-0.20804 -0.21299,0.13163 -0.25239,0.0423 -0.12631,-0.28625 0.10602,-0.2762 0.01,-0.74248 -0.22844,-1.10591 -0.48207,-0.73572 -0.77695,-3.00125 -0.39066,-3.00125 0.45879,0 0.28009,-0.95922 -0.2717,-1.45859 -0.36949,-0.33435 -0.47707,-0.65122 -0.35079,-1.0332 0.33362,-1.0092 0.29279,-3.12301 -0.0739,-3.82577 -0.19915,-0.38163 -0.36282,-0.95192 -0.36369,-1.26727 0,-0.31536 -0.23977,-1.1289 -0.53081,-1.80787 -0.29104,-0.67898 -0.52917,-1.43386 -0.52917,-1.67752 0,-0.6731 2.17819,-1.88153 3.16606,-1.75651 0.47681,0.0603 0.75449,-0.003 0.66379,-0.14854 -0.0984,-0.15928 0.0835,-0.16126 0.49345,-0.005 0.35716,0.13578 0.70463,0.19164 0.77218,0.12409 0.0675,-0.0676 0.45413,0.003 0.85908,0.15711 0.53096,0.20188 0.99872,0.1933 1.67762,-0.0307 0.70387,-0.2323 0.96681,-0.23428 1.04227,-0.008 0.0555,0.1665 0.38089,0.30273 0.72308,0.30273 0.34221,0 0.95737,0.13886 1.36702,0.30856 0.40966,0.1697 0.80436,0.32036 0.87712,0.33478 0.0728,0.0146 0.27038,0.11409 0.43916,0.22148 0.16875,0.10737 0.49617,0.12258 0.7276,0.0338 0.23141,-0.0888 0.42074,-0.0556 0.42074,0.0739 0,0.32541 2.32013,0.39878 2.51741,0.0796 0.0878,-0.14208 0.50278,-0.25834 0.92217,-0.25834 0.41939,0 0.83611,-0.11906 0.92605,-0.26458 0.0899,-0.14552 0.68524,-0.26458 1.32291,-0.26458 0.63767,0 1.23299,-0.11907 1.32292,-0.26459 0.0899,-0.14552 0.28257,-0.26458 0.42809,-0.26458 0.14553,0 0.17852,0.1393 0.0733,0.30954 -0.12559,0.20322 -0.0512,0.25577 0.21672,0.15298 0.22442,-0.0861 0.51184,-0.0626 0.63871,0.0523 0.36293,0.32869 2.00237,0.5769 1.81573,0.27491 -0.0886,-0.14333 0.0316,-0.26059 0.26704,-0.26059 0.25183,0 0.35174,0.12358 0.24263,0.30011 -0.12965,0.20979 0.0835,0.26067 0.70815,0.16899 0.89668,-0.1316 1.71159,0.16116 2.22351,0.79878 0.15097,0.18801 0.62957,0.37465 1.06362,0.41476 0.91112,0.0842 3.86861,-0.87998 3.67255,-1.19724 -0.20296,-0.3284 1.52535,0.0659 2.34215,0.53433 0.40018,0.2295 0.7276,0.62973 0.7276,0.88939 0,0.25967 0.0893,0.47213 0.19844,0.47213 0.32112,-3e-5 0.17433,3.00762 -0.17899,3.66781 -0.20045,0.37457 -0.25699,1.00081 -0.14841,1.64367 0.14679,0.86881 0.10221,1.03852 -0.27297,1.03852 -0.27297,0 -0.39351,0.14314 -0.30808,0.36578 0.16002,0.41701 -0.33382,2.60827 -0.63344,2.81059 -0.381,0.25726 -0.35176,2.79821 0.0386,3.35196 0.33337,0.47291 0.66463,0.53691 2.76008,0.53318 4.17756,-0.007 5.60252,0.17661 6.34129,0.81894 0.8177,0.71099 0.83193,0.94406 0.0994,1.62653 -0.44087,0.41071 -0.83357,0.5071 -1.72532,0.42352 -0.79213,-0.0743 -1.09828,-0.0172 -0.97536,0.18169 0.1233,0.19947 -0.0196,0.2246 -0.45749,0.0805 -0.97541,-0.32078 -3.47337,-0.34653 -4.16137,-0.0429 -0.38158,0.1684 -0.68225,0.17658 -0.79375,0.0217 -0.32019,-0.44513 -0.89196,-0.41277 -1.25915,0.0713 -0.1973,0.26011 -0.3625,0.39071 -0.36713,0.2902 -0.005,-0.10052 -0.33584,-0.0116 -0.73602,0.19735 -0.60399,0.31554 -0.77256,0.32017 -0.99219,0.0273 -0.14552,-0.1941 -0.41341,-0.30274 -0.59531,-0.24146 -0.1819,0.0613 -0.33073,-0.0175 -0.33073,-0.17523 0,-0.15764 -0.23813,-0.28662 -0.52917,-0.28662 -0.29104,0 -0.52916,-0.11907 -0.52916,-0.26459 0,-0.14552 -0.18709,-0.26458 -0.41577,-0.26458 -0.35999,0 -0.35364,-0.0621 0.0473,-0.46302 0.41581,-0.41582 0.41949,-0.47141 0.0363,-0.54523 -0.38018,-0.0732 -0.38725,-0.19415 -0.0647,-1.10823 0.26858,-0.76126 0.2826,-1.05254 0.0543,-1.12861 -0.21124,-0.0704 -0.15756,-0.33165 0.17122,-0.83344 0.26336,-0.40195 0.52818,-1.16678 0.58846,-1.6996 0.24987,-2.20906 0.47307,-2.82371 0.92411,-2.54495 0.33784,0.20881 0.30869,-0.33036 -0.0753,-1.39221 -0.23773,-0.65741 -0.24511,-1.01179 -0.0283,-1.35898 0.19492,-0.3121 0.20743,-0.62307 0.0374,-0.92699 -0.28149,-0.50298 -0.77476,-0.43709 -2.33334,0.31162 -1.25074,0.60082 -1.22589,0.57391 -0.78607,0.85207 0.31125,0.19685 0.27646,0.24693 -0.17381,0.25019 -0.7606,0.006 -2.4797,0.74221 -2.4797,1.06272 0,0.14179 -0.38695,0.22186 -0.8599,0.17791 -0.52726,-0.049 -1.10397,0.10578 -1.4909,0.4001 -0.34702,0.26398 -0.79351,0.47998 -0.99218,0.47998 -0.19865,0 -0.36119,0.1 -0.36119,0.22212 0,0.26143 -1.33469,0.94708 -1.72265,0.88493 -0.14708,-0.0236 -0.43071,0.32604 -0.63029,0.77689 -0.28979,0.65469 -0.29569,0.86122 -0.0294,1.02582 0.18341,0.11334 0.25784,0.32845 0.16539,0.47805 -0.0924,0.14957 -0.0467,0.59121 0.10163,0.98139 0.50892,1.33855 -0.61116,3.83289 -1.72114,3.83289 -0.21993,0 -0.39688,-0.23493 -0.39688,-0.52692 0,-0.28983 -0.23812,-0.67564 -0.52917,-0.85741 -0.29104,-0.18174 -0.52916,-0.4804 -0.52916,-0.66368 0,-0.18328 -0.12764,-0.33324 -0.28364,-0.33324 -0.19195,0 -0.21926,-0.4916 -0.0845,-1.52136 0.10951,-0.83674 0.18783,-1.69995 0.17404,-1.91823 -0.0742,-1.17435 -0.20423,-1.73815 -0.43767,-1.89807 -0.16293,-0.1116 -0.1284,-0.33715 0.0923,-0.60314 0.28057,-0.33806 0.28803,-0.56666 0.0365,-1.11874 -0.17386,-0.38163 -0.21526,-0.79475 -0.092,-0.91802 0.29412,-0.29411 0.079,-2.11601 -0.22751,-1.92659 -0.12973,0.0802 -0.23588,-0.14431 -0.23588,-0.49887 0,-0.81452 -0.50641,-1.23048 -1.19062,-0.97798 -0.29104,0.10739 -0.65574,0.148 -0.81045,0.0903 -0.1547,-0.0577 -0.50522,0.14245 -0.7789,0.44489 -0.43035,0.47551 -0.43702,0.5266 -0.0494,0.37788 0.25484,-0.0978 0.44817,-0.0456 0.44817,0.12092 0,0.1611 -0.24516,0.29289 -0.54477,0.29289 -0.29964,0 -0.48104,0.10316 -0.40312,0.22923 0.17994,0.29113 -0.75412,1.15555 -0.99182,0.91787 -0.0973,-0.0973 -0.17695,0.0214 -0.17695,0.264 0,0.24254 -0.11907,0.44098 -0.26459,0.44098 -0.14552,0 -0.26458,0.12756 -0.26458,0.28348 0,0.48122 -0.78602,1.09902 -1.19742,0.94115 -0.21455,-0.0823 -0.39008,-0.0183 -0.39008,0.1424 0,0.4037 -1.26849,1.54339 -1.71781,1.54339 -0.20219,0 -0.44122,0.11906 -0.53115,0.26458 -0.0899,0.14552 -0.0332,0.26459 0.126,0.26459 0.20695,0 0.2092,0.15001 0.008,0.5262 -0.29052,0.54282 -0.24305,2.04406 0.0812,2.56873 0.10107,0.16357 0.20952,0.60836 0.24098,0.98843 0.0363,0.43836 0.18103,0.64355 0.39587,0.56113 0.32202,-0.12359 0.36264,0.0367 0.46741,1.84444 0.0169,0.29469 0.12176,0.68254 0.2326,0.86193 0.11477,0.18569 0.0135,0.51411 -0.23503,0.76272 -0.25371,0.2537 -0.38701,0.69619 -0.31816,1.05629 0.0972,0.50837 0.006,0.61971 -0.50631,0.61971 -0.34362,0 -0.62476,0.11906 -0.62476,0.26458 0,0.45408 -0.3619,0.23109 -1.38906,-0.85595 z m -14.6758,-9.85562 c 0.38722,-0.008 2.05269,-1.80684 2.19414,-2.37038 0.0774,-0.30861 -0.0434,-0.91445 -0.26863,-1.34633 -0.22522,-0.43191 -0.41021,-0.9801 -0.41109,-1.21825 -0.003,-0.68799 -1.40067,-0.76044 -2.15278,-0.11155 -0.74451,0.64236 -1.79475,2.34786 -2.10759,3.4226 -0.26093,0.89638 0.12295,1.79964 0.67482,1.58787 0.20722,-0.0795 0.58981,-0.0254 0.85021,0.12036 0.26041,0.14573 0.59505,0.18727 0.74367,0.0923 0.14864,-0.0949 0.3634,-0.17444 0.47725,-0.17666 z m -10.58153,11.70376 c -0.94279,-1.03007 -0.96113,-1.61142 -0.0821,-2.60456 0.43868,-0.49564 0.77634,-1.07976 0.75036,-1.29804 -0.085,-0.71364 0.35425,-2.64584 0.60142,-2.64584 0.13274,0 0.24133,-0.16867 0.24133,-0.37483 0,-0.20614 0.13988,-0.42146 0.31086,-0.47845 0.19018,-0.0634 0.29882,-0.63264 0.27985,-1.46611 -0.0249,-1.08783 0.15943,-1.72479 0.91384,-3.15957 0.51967,-0.9884 1.05611,-1.93739 1.19205,-2.10889 0.13597,-0.1715 0.29909,-0.93586 0.36246,-1.69857 0.0634,-0.76272 0.29397,-1.58427 0.51247,-1.82568 0.21846,-0.2414 0.39722,-0.69744 0.39722,-1.01341 0,-0.31596 0.11906,-0.57449 0.26458,-0.57449 0.14552,0 0.26458,-0.19991 0.26458,-0.44423 0,-0.74703 0.61741,-2.2016 0.93448,-2.2016 0.16447,0 0.44554,-0.26789 0.62461,-0.59531 0.17907,-0.32742 0.6238,-0.81518 0.98829,-1.08392 0.63037,-0.46477 0.72316,-0.46699 1.90194,-0.0457 0.68156,0.2436 1.49812,0.4358 1.81453,0.42707 0.42842,-0.0119 0.61937,0.18481 0.74793,0.77007 0.0949,0.43225 0.4863,1.03264 0.86971,1.33424 0.5388,0.42383 0.61614,0.59838 0.34052,0.76872 -0.28247,0.17457 -0.24027,0.31996 0.20301,0.6995 0.41445,0.35484 0.47525,0.53515 0.23448,0.69509 -0.23868,0.15854 -0.16272,0.35224 0.28569,0.72856 0.33595,0.28194 0.66858,0.83134 0.73922,1.22089 0.0706,0.38957 0.28747,1.01968 0.48184,1.40025 0.22132,0.43339 0.27331,0.9044 0.13911,1.26043 -0.2183,0.57917 0.0789,1.03356 1.15769,1.76974 0.30149,0.20577 0.52385,0.75523 0.59203,1.46299 0.06,0.62341 0.19685,1.27333 0.30403,1.44425 0.10719,0.17095 0.2575,0.84344 0.33404,1.49442 0.10546,0.8971 0.2889,1.25807 0.75787,1.49127 0.37661,0.18728 0.50602,0.3773 0.33073,0.48565 -0.1584,0.0979 -0.40706,0.1044 -0.55258,0.0146 -0.14552,-0.0899 -0.26458,0.0356 -0.26458,0.279 0,0.34118 -0.18177,0.41585 -0.79375,0.32602 -0.43657,-0.0641 -0.79375,-0.018 -0.79375,0.10226 0,0.36177 -1.06855,0.24636 -1.4741,-0.15922 -0.20789,-0.20789 -0.37981,-0.7139 -0.38204,-1.12448 -0.005,-0.9615 -0.18949,-1.23032 -1.41218,-2.06005 -0.85754,-0.58192 -1.13999,-0.64738 -1.8946,-0.43902 -0.48774,0.13467 -0.93591,0.19574 -0.99595,0.13573 -0.06,-0.06 -0.83444,-0.15364 -1.72093,-0.20807 -1.19946,-0.0736 -1.64782,-0.005 -1.75249,0.26768 -0.0774,0.20164 -0.0183,0.36661 0.1312,0.36661 0.14955,0 0.19045,0.13176 0.0909,0.29284 -0.12747,0.20627 -0.24336,0.19187 -0.39203,-0.0487 -0.16221,-0.26246 -0.4608,-0.17626 -1.28984,0.37238 -0.59333,0.39264 -1.07879,0.89315 -1.07879,1.11228 0,0.2191 -0.3035,0.87913 -0.67442,1.46674 -0.42958,0.68046 -0.61394,1.25902 -0.50779,1.59348 0.11692,0.36836 -0.023,0.67435 -0.46892,1.02505 -0.34957,0.27498 -0.78071,0.98431 -0.95806,1.57628 -0.17735,0.59196 -0.44378,1.0763 -0.59205,1.0763 -0.14825,0 -0.20434,0.10552 -0.12465,0.2345 0.0797,0.12899 -0.1216,0.30594 -0.44738,0.39328 -0.84373,0.22611 -0.84125,0.22685 -1.44188,-0.42934 z"
       style="fill:#000000;stroke-width:1.165;stroke:#000000;stroke-opacity:1;stroke-miterlimit:4;stroke-dasharray:none"
       id="path6297" />
  </g>
</svg>
