<?xml version="1.0" encoding="UTF-8" standalone="no"?>
<svg
   xmlns:dc="http://purl.org/dc/elements/1.1/"
   xmlns:cc="http://creativecommons.org/ns#"
   xmlns:rdf="http://www.w3.org/1999/02/22-rdf-syntax-ns#"
   xmlns:svg="http://www.w3.org/2000/svg"
   xmlns="http://www.w3.org/2000/svg"
   viewBox="0 0 150.00001 12.72663"
   height="12.72663"
   width="150"
   xml:space="preserve"
   id="svg2"
   version="1.1"><defs
   id="defs48" />
  
  <metadata
   id="metadata8">
    <rdf:RDF>
      <cc:Work
   rdf:about="">
        <dc:format>image/svg+xml</dc:format>
        <dc:type
   rdf:resource="http://purl.org/dc/dcmitype/StillImage" />
        <dc:title></dc:title>
      </cc:Work>
    </rdf:RDF>
  </metadata>
  
<path
   d="m 45.005491,11.895661 c -0.13005,-0.04162 -0.36133,-0.184828 -0.51397,-0.318331 l -0.27753,-0.242743 V 8.2016796 5.0687725 l 0.2705,-0.5087607 c 0.14878,-0.2798213 0.27052,-0.5762703 0.27052,-0.6587978 0,-0.08248 0.21471,-0.2420744 0.47716,-0.3545716 0.2994,-0.1283342 0.53173,-0.3183873 0.62364,-0.5101259 l 0.14645,-0.3055823 h 1.71765 1.71766 l 0.44498,0.5251721 0.44496,0.5251628 -9.5e-4,1.1519945 c 0,0.9713099 -0.0344,1.202189 -0.21642,1.4720203 -0.19624,0.2909502 -0.21584,0.5008328 -0.21584,2.3107116 v 1.9906955 l -0.37871,0.325374 c -0.2083,0.178962 -0.64652,0.453039 -0.97384,0.609074 -0.53183,0.253514 -0.73898,0.286149 -1.94767,0.306891 -0.74391,0.01281 -1.45895,-0.01083 -1.58898,-0.05235 z m 2.74886,-2.1387746 c 0.45894,-0.4789791 0.47256,-0.5131953 0.44131,-1.1090878 l -0.0322,-0.6148648 -0.80105,-0.032107 c -0.44145,-0.017702 -0.85011,0.016948 -0.91033,0.077208 -0.0601,0.060166 -0.13195,0.5002961 -0.1596,0.9781736 -0.0586,1.0106666 0.0347,1.1949576 0.60433,1.1949576 0.31473,0 0.46947,-0.08916 0.85756,-0.4942228 z m 0.15147,-3.4211082 c 0.62078,-0.2861393 0.75441,-0.396706 0.8577,-0.7096889 0.14184,-0.4297548 -0.0146,-0.9458314 -0.33916,-1.1195957 -0.28394,-0.1519389 -1.83933,-0.124728 -2.15636,0.037851 -0.19015,0.097508 -0.2642,0.2175186 -0.24928,0.4041634 0.0432,0.5411314 0.1587,1.4600342 0.19993,1.5910422 0.0794,0.2521206 0.9179,0.1508847 1.68717,-0.2036963 z"
   style="fill:#000000;stroke-width:0.10820401"
   id="path1811" /><path
   id="path1779"
   d="m 53.880231,10.7067 c -0.74058,-0.225276 -1.21651,-0.618056 -1.58192,-1.3055525 -0.1586,-0.2984168 -0.21298,-0.7009888 -0.25644,-1.8988185 -0.0459,-1.2628346 -0.0908,-1.5741508 -0.26549,-1.8394626 -0.23749,-0.360588 -0.36831,-2.037924 -0.18056,-2.315269 0.0704,-0.1041268 0.31032,-0.1584076 0.71715,-0.162315 0.682,-0.00659 0.91874,0.1751013 0.91874,0.7049341 0,0.1598951 0.0731,0.465515 0.1623,0.6791637 0.11796,0.2823257 0.16231,0.8010198 0.16231,1.898489 0,1.4666532 0.008,1.5195875 0.28014,1.842937 0.34307,0.4077221 0.71378,0.430894 1.07734,0.067321 0.26113,-0.2611313 0.26558,-0.2964491 0.26558,-2.1029386 0,-1.855648 0.0731,-2.3135459 0.41003,-2.5695458 0.28084,-0.2133754 0.56019,-0.1759675 0.95936,0.1285037 l 0.36187,0.2760175 v 2.2762413 2.2762508 l -0.39526,0.7067983 c -0.21739,0.3887406 -0.55986,0.8714016 -0.76102,1.0725746 -0.33365,0.33364 -0.4201,0.364947 -0.98435,0.356463 -0.3402,-0.0047 -0.74061,-0.04642 -0.88978,-0.0918 z"
   style="fill:#000000;stroke-width:0.10820401" /><path
   d="m 114.08079,9.2840085 c -0.25407,-0.1029026 -0.76272,-0.6967894 -0.76272,-0.8905432 0,-0.086906 -0.0813,-0.3892959 -0.18062,-0.6719511 -0.14609,-0.4156314 -0.18064,-0.7454399 -0.18064,-1.7243858 0,-0.8773236 -0.0377,-1.3006476 -0.13691,-1.5381458 -0.0753,-0.1802233 -0.16274,-0.5814393 -0.19431,-0.8915882 -0.0316,-0.3101581 -0.11221,-0.7214302 -0.17918,-0.9139503 -0.20583,-0.5915613 -0.15978,-1.1357716 0.12088,-1.4287275 0.23865,-0.24908879 0.26004,-0.25327874 1.28698,-0.25214898 1.41926,0.001893 2.51848,0.33763288 3.39246,1.03718128 0.19869,0.1590384 0.49393,0.3653522 0.65609,0.4584816 0.21265,0.1221294 0.40776,0.3879873 0.69994,0.9536745 0.39939,0.7733383 0.40509,0.7968301 0.40509,1.6738901 0,0.7469274 -0.0411,1.0052436 -0.25604,1.6113047 -0.14083,0.3969698 -0.32108,0.8467418 -0.40057,0.9994906 -0.15655,0.3008368 -0.73441,0.8591423 -1.07394,1.0376142 -0.11617,0.061107 -0.34471,0.2269812 -0.50787,0.3687136 -0.29238,0.2539756 -0.31257,0.2576194 -1.39986,0.2519701 -0.60677,-0.00282 -1.18671,-0.039545 -1.28878,-0.08088 z M 115.75655,7.69403 c 0.2732,-0.1263757 0.73041,-0.4600069 1.01603,-0.7413817 l 0.5193,-0.5115852 V 5.3058281 4.1698305 l -0.33867,-0.3224641 c -0.48441,-0.4612216 -2.18666,-1.2495306 -2.69819,-1.2495306 -0.25527,0 -0.25791,0.016101 -0.0635,0.3883168 0.118,0.2258606 0.15892,0.6147425 0.18724,1.7792219 0.0216,0.8893663 0.0856,1.6540328 0.15888,1.8965872 0.0674,0.2235256 0.14895,0.5767693 0.18107,0.7849852 0.0546,0.3536674 0.13215,0.4342082 0.45075,0.4680572 0.0497,0.00565 0.31383,-0.093779 0.58704,-0.2202021 z"
   style="fill:#000000;stroke-width:0.10820401"
   id="path1683" /><path
   d="m 106.41709,9.4425854 c -0.0234,-0.1140978 -0.0609,-0.6424618 -0.083,-1.1741493 -0.0327,-0.7785167 -0.0776,-1.0267393 -0.23105,-1.2750559 -0.17883,-0.2893498 -0.19058,-0.4312706 -0.19058,-2.3040646 v -1.995714 l 0.32017,-0.582466 c 0.17608,-0.3203551 0.38554,-0.6367276 0.46545,-0.7030414 0.10748,-0.089165 0.51188,-0.1205759 1.55385,-0.1205759 1.61902,0 1.74473,0.039734 2.34724,0.7427282 l 0.36971,0.4313459 9.9e-4,0.8390025 c 0.001,0.8865981 -0.11115,1.2374786 -0.59784,1.8767766 l -0.21109,0.2772979 0.41715,0.3097439 c 0.22943,0.1703558 0.58248,0.4216102 0.78454,0.5583431 0.20206,0.1367328 0.50131,0.3783929 0.66496,0.5370261 0.26884,0.2605571 0.29758,0.3387345 0.29758,0.8094092 0,0.6245346 -0.14987,0.7512588 -0.81314,0.6875341 -0.36083,-0.034649 -0.47767,-0.09859 -0.7683,-0.4202827 -0.20598,-0.2279791 -0.59855,-0.5025274 -0.98374,-0.6879389 -0.35253,-0.1697061 -0.90235,-0.4728779 -1.2218,-0.6737119 -0.49999,-0.3143386 -0.78061,-0.4298205 -0.83246,-0.3425854 -0.008,0.012429 -0.0378,0.7744397 -0.0677,1.6933895 l -0.0543,1.6708018 -0.56168,0.026834 c -0.52329,0.024951 -0.56458,0.012618 -0.60436,-0.1806281 z m 1.99793,-4.7137431 c 0.35819,-0.1783215 0.69348,-0.4031181 0.74509,-0.4995522 0.12979,-0.2425168 0.11906,-1.2999227 -0.0145,-1.4335296 -0.1344,-0.1343978 -1.36894,-0.1457906 -1.61353,-0.014877 -0.15926,0.085211 -0.1747,0.1995251 -0.1747,1.2944993 0,0.6605583 0.0289,1.2299362 0.0643,1.2652824 0.0353,0.035403 0.12681,-0.014877 0.20321,-0.1116591 0.0764,-0.096764 0.432,-0.3218334 0.79018,-0.5001547 z"
   style="fill:#000000;stroke-width:0.10820401"
   id="path1677" /><path
   id="path1675"
   d="m 93.087741,9.9002763 c -0.12422,-0.053857 -0.41073,-0.1486154 -0.63678,-0.2105604 -0.22605,-0.061954 -0.65667,-0.2994621 -0.95693,-0.5278179 -0.4549,-0.3459562 -0.5972,-0.5250589 -0.8534,-1.0741089 -0.27506,-0.5894617 -0.30747,-0.7410428 -0.30747,-1.437917 0,-0.7455624 0.0174,-0.8130344 0.40641,-1.5720136 0.58559,-1.1426543 0.98379,-1.5472131 2.00059,-2.0325949 0.80139,-0.3825544 0.88422,-0.4029297 1.6295,-0.4009525 0.70307,0.00189 0.80935,0.024763 1.01603,0.2189496 0.30197,0.2836816 0.31953,0.8611006 0.0371,1.2201351 -0.2073,0.263551 -0.39091,0.272816 -0.9372,0.047266 -0.25198,-0.1040232 -0.31096,-0.088036 -0.76767,0.2075943 -0.2721,0.1761372 -0.77074,0.6008545 -1.1081,0.9437976 l -0.61338,0.6235458 0.0264,0.8043344 0.0264,0.8043247 0.49672,0.3351187 c 0.28994,0.1956179 0.70351,0.3782235 0.99345,0.4386712 0.27321,0.056964 0.69715,0.161251 0.94212,0.2317832 0.24495,0.070522 0.61072,0.1288614 0.81282,0.129624 0.5511,0.00189 0.63913,0.095135 0.63366,0.6700022 -0.003,0.2734 -0.0364,0.5288349 -0.075,0.5676269 -0.11208,0.1124409 -2.50995,0.1238522 -2.76516,0.013181 z"
   style="fill:#000000;stroke-width:0.10820401" /><path
   d="m 99.86422,10.159609 c -0.5235,-0.2620257 -1.66459,-1.3418875 -1.973859,-1.867926 -0.23803,-0.404907 -0.24221,-0.4401871 -0.27092,-2.2883121 -0.0268,-1.7342249 -0.0138,-1.9266697 0.17234,-2.5287952 0.1553,-0.5023205 0.306909,-0.7699957 0.661369,-1.1676338 0.77162,-0.865686 1.09717,-0.8928972 1.90711,-0.1593961 0.27303,0.2472338 0.5554,0.4495179 0.62751,0.4495179 0.072,0 0.36636,0.087376 0.65383,0.1942149 0.40383,0.1500558 0.6937,0.360541 1.27477,0.9257197 0.41365,0.4023274 0.90135,0.9753491 1.08377,1.2733896 l 0.33169,0.5418847 0.0297,1.5860708 0.0297,1.586071 -0.32705,0.3914523 c -0.17987,0.2152964 -0.36883,0.469526 -0.41989,0.5649433 -0.0511,0.095427 -0.28081,0.2926923 -0.51053,0.438379 -0.40937,0.259606 -0.44206,0.264851 -1.64183,0.263627 -1.08523,-9.47e-4 -1.26989,-0.0242 -1.6276,-0.203207 z m 2.32712,-1.2922299 c 0.11149,-0.078149 0.32374,-0.3817448 0.47167,-0.6747854 0.2293,-0.4542258 0.26895,-0.635805 0.26895,-1.2313771 0,-0.6715937 -0.0145,-0.7196789 -0.37528,-1.2443895 -0.52421,-0.7624349 -0.86135,-1.1026289 -1.39683,-1.4095856 -0.38371,-0.2199477 -0.56436,-0.2651518 -1.05967,-0.2651518 h -0.59711 l -0.2273,0.448567 c -0.2039,0.4023648 -0.2273,0.556121 -0.2273,1.4927626 0,0.9817047 0.0164,1.0764347 0.27208,1.58319 0.26338,0.521754 0.30022,0.5533151 1.1515,0.9862616 0.93888,0.4775011 1.37316,0.5569403 1.71929,0.3145082 z"
   style="fill:#000000;stroke-width:0.10820401"
   id="path1671" /><path
   id="path1669"
   d="m 84.282131,11.299147 c -0.0993,-0.02062 -0.49178,-0.184705 -0.87207,-0.364721 -0.81944,-0.387884 -0.79696,-0.330496 -0.8027,-2.0492515 -0.004,-0.795653 -0.0468,-1.3041407 -0.13412,-1.5466198 -0.0946,-0.2627979 -0.13053,-0.7993061 -0.1315,-1.9684372 -0.001,-1.5868052 0.001,-1.6099863 0.22032,-1.8288606 l 0.22167,-0.2216803 h 2.49092 c 2.70025,0 2.84702,0.024763 3.03214,0.5117268 0.10799,0.2840112 0.0304,0.444669 -0.31883,0.6605302 -0.25877,0.1599234 -0.4487,0.1824549 -1.53801,0.1824549 -1.10818,0 -1.31978,0.026081 -1.95366,0.2407183 -0.60719,0.2055984 -0.7109,0.2705092 -0.7109,0.4450079 0,0.1131469 0.10621,0.2878245 0.23798,0.3914899 0.22678,0.1783778 0.3475,0.1871814 2.56842,0.1871814 h 2.33043 l 0.0597,0.3980807 c 0.094,0.6264082 -0.008,0.9258138 -0.33577,0.9914781 -0.15251,0.030506 -1.22587,0.055458 -2.38522,0.055458 -1.99161,0 -2.11309,0.0096 -2.2014,0.1746963 -0.1195,0.2231867 -0.12218,1.589969 -0.003,1.8115267 0.0494,0.092461 0.31516,0.2523279 0.59042,0.3553152 0.63084,0.2360294 2.32409,0.2663381 2.93032,0.052445 0.74515,-0.2629108 1.08563,0.023163 1.08563,0.912039 0,0.500673 -0.0203,0.561874 -0.2032,0.610863 -0.22338,0.05979 -3.88722,0.05856 -4.17702,-9.46e-4 z"
   style="fill:#000000;stroke-width:0.10820401" /><path
   d="m 75.056911,12.239319 c -0.0379,-0.06148 -0.0947,-0.620231 -0.12627,-1.241819 -0.0314,-0.621587 -0.10441,-1.2445681 -0.16211,-1.3843985 -0.0713,-0.1725591 -0.10314,-1.0285473 -0.0997,-2.6642665 0.005,-2.2915418 0.0151,-2.4298092 0.2032,-2.8126651 0.17917,-0.3645707 0.25339,-0.4219867 0.78493,-0.6072192 0.70176,-0.2445601 1.15457,-0.260783 1.76113,-0.063084 1.64916,0.5375159 1.67959,0.5602638 1.97509,1.4764359 0.42267,1.3104021 0.27786,2.2162739 -0.44207,2.7653991 -0.17606,0.1342752 -0.30853,0.2786065 -0.29437,0.3207317 0.0372,0.1107554 0.86552,0.6761319 1.30157,0.888406 0.5386,0.2621953 1.02751,0.8337201 1.02579,1.1991286 -0.003,0.388392 -0.0898,0.509288 -0.50708,0.69711 -0.33708,0.151703 -0.36237,0.150903 -0.71078,-0.0225 -0.19867,-0.09887 -0.49062,-0.292664 -0.64874,-0.430574 -0.15812,-0.137901 -0.69313,-0.5000136 -1.18893,-0.8046921 -0.49581,-0.3046782 -0.95056,-0.6131135 -1.01055,-0.6854156 -0.1636,-0.1971335 -0.41979,-0.1589629 -0.48162,0.071747 -0.03,0.1117628 -0.0551,0.899921 -0.0557,1.7514557 -0.001,1.327746 -0.0215,1.556064 -0.1441,1.603076 -0.26063,0.10005 -1.10818,0.05922 -1.17989,-0.05687 z m 1.27469,-4.9739984 c 0.16485,-0.2515935 0.76661,-0.6041217 1.03123,-0.6041217 0.10492,0 0.27693,-0.086058 0.38208,-0.1911831 0.2519,-0.2519041 0.19588,-0.8928216 -0.1062,-1.2143067 -0.17884,-0.1903826 -0.28778,-0.2201642 -0.80522,-0.2201642 -0.34499,0 -0.64429,0.045854 -0.70676,0.1083733 -0.13478,0.1347837 -0.15376,2.3300983 -0.0202,2.3300983 0.0486,0 0.14977,-0.093873 0.22498,-0.2086959 z"
   style="fill:#000000;stroke-width:0.10820401"
   id="path1665" /><path
   id="path1547"
   d="m 60.679441,11.733996 c -0.25374,-0.461994 -0.29364,-0.622068 -0.29364,-1.177973 0,-0.362772 -0.0536,-0.749733 -0.12292,-0.8873134 -0.0677,-0.1341906 -0.14791,-0.5240044 -0.17846,-0.8662791 -0.0305,-0.3422747 -0.12329,-0.7285201 -0.20613,-0.8583324 -0.0829,-0.1298031 -0.49391,-0.5735115 -0.91354,-0.986017 -0.72323,-0.7109128 -0.79729,-0.8215176 -1.42138,-2.1232195 -0.75902,-1.5830771 -0.80729,-1.7156105 -0.73285,-2.0122197 0.051,-0.2032445 0.0969,-0.2193544 0.62487,-0.2193544 0.69998,0 0.76207,0.057247 1.41937,1.3100726 0.26074,0.4969252 0.60593,1.0458152 0.7671,1.21973 0.16116,0.1739338 0.37948,0.4890257 0.48515,0.7002263 0.11251,0.2248342 0.2555,0.3839762 0.34506,0.3839762 0.19579,0 1.06503,-0.9162476 1.29282,-1.3627619 0.0958,-0.1878877 0.21629,-0.3676025 0.26764,-0.3993238 0.0513,-0.03173 0.19021,-0.2479401 0.30858,-0.4804763 0.11836,-0.2325268 0.31278,-0.5137133 0.43202,-0.624864 0.11922,-0.1111885 0.35552,-0.4888939 0.52509,-0.8394262 l 0.30833,-0.6373301 0.59061,0.026175 0.59064,0.026175 0.0272,0.4705145 c 0.0219,0.3781575 -0.0298,0.5909682 -0.26302,1.0842028 -0.45571,0.9636644 -1.60193,2.6935109 -2.27861,3.4388377 -0.78586,0.8655543 -0.82228,0.9635891 -0.59901,1.6125193 0.10351,0.3009591 0.17708,0.7539421 0.17708,1.0907464 0,0.3168148 0.0609,0.721995 0.13553,0.900392 0.0745,0.178396 0.13553,0.560395 0.13553,0.848869 0,0.459028 -0.0297,0.547892 -0.23807,0.71177 -0.1421,0.111829 -0.3697,0.186824 -0.56469,0.186183 -0.30503,-9.46e-4 -0.34604,-0.03644 -0.62026,-0.535698 z"
   style="fill:#000000;stroke-width:0.10820401" /><path
   id="path2224"
   d="m 27.986281,5.195845 c 3.20754,1.0099041 6.89263,0.8095502 10.09888,1.0518318 2.12029,-2.1551385 -3.7164,-2.6107766 -2.81659,-3.9292762 2.28653,0.6706707 5.62981,5.0898577 1.59575,5.6795545 -1.49373,0.7038231 -2.9812,1.4669263 -4.2515,2.5360079"
   style="fill:none;stroke:#000000;stroke-width:1.66184747;stroke-linecap:round;stroke-linejoin:round;stroke-miterlimit:4;stroke-dasharray:none;stroke-opacity:1" /></svg>