<?xml version="1.0" encoding="UTF-8" standalone="no"?>
<svg
   xmlns:dc="http://purl.org/dc/elements/1.1/"
   xmlns:cc="http://creativecommons.org/ns#"
   xmlns:rdf="http://www.w3.org/1999/02/22-rdf-syntax-ns#"
   xmlns:svg="http://www.w3.org/2000/svg"
   xmlns="http://www.w3.org/2000/svg"
   xmlns:sodipodi="http://sodipodi.sourceforge.net/DTD/sodipodi-0.dtd"
   xmlns:inkscape="http://www.inkscape.org/namespaces/inkscape"
   id="svg5647"
   viewBox="0 0 244.438334042 178.883794187"
   height="178.883794187mm"
   width="244.438334042mm"
   version="1.1"
   sodipodi:docname="choose-a-song.svg"
   inkscape:version="0.92.3 (unknown)">
  <sodipodi:namedview
     pagecolor="#ffffff"
     bordercolor="#666666"
     borderopacity="1"
     objecttolerance="10"
     gridtolerance="10"
     guidetolerance="10"
     inkscape:pageopacity="0"
     inkscape:pageshadow="2"
     inkscape:window-width="1920"
     inkscape:window-height="1031"
     id="namedview2344"
     showgrid="false"
     inkscape:zoom="0.24682463"
     inkscape:cx="157.67314"
     inkscape:cy="-21.555333"
     inkscape:window-x="0"
     inkscape:window-y="27"
     inkscape:window-maximized="1"
     inkscape:current-layer="svg5647" />
  <defs
     id="defs40" />
  <metadata
     id="metadata5644">
    <rdf:RDF>
      <cc:Work
         rdf:about="">
        <dc:format>image/svg+xml</dc:format>
        <dc:type
           rdf:resource="http://purl.org/dc/dcmitype/StillImage" />
      </cc:Work>
    </rdf:RDF>
  </metadata>
  <path
     style="fill:#000000;stroke-width:0.26458332"
     d="m 114.03541,9.16557 c 0,-0.14552 -0.11906,-0.26458 -0.26458,-0.26458 -0.14552,0 -0.26459,0.11906 -0.26459,0.26458 0,0.14553 0.11907,0.26459 0.26459,0.26459 0.14552,0 0.26458,-0.11906 0.26458,-0.26459 z"
     id="path6103" />
  <path
     style="fill:#000000;stroke-width:0.26458332"
     d="m 34.7927,172.211 c 0.48406,-0.35564 0.92605,-1.36855 0.92605,-2.12226 0,-0.40943 0.12342,-0.86784 0.27426,-1.01869 0.27096,-0.27095 0.53224,-1.31724 0.58563,-2.34511 0.0151,-0.29104 0.11928,-0.65294 0.23146,-0.80423 0.24685,-0.33292 -1.563965,-0.96897 -1.594993,-1.62723 -0.01215,-0.25781 -1.221582,-0.92602 -0.479491,-0.848 0.25212,0.15582 -1.443828,-1.04156 -1.220948,-2.45222 0.0805,-0.50932 0.02562,-1.54784 0.115422,-1.98441 0.2984,-1.45067 0.26094,-2.90009 -0.098,-3.79182 -0.3256,-0.8089 5.12604,-2.78103 5.72926,-3.79328 0.36153,-0.60664 1.08927,-1.57922 1.61722,-2.16131 0.52797,-0.58208 1.41041,-1.61176 1.96101,-2.28817 0.5506,-0.67641 2.00705,-2.10693 3.23657,-3.17895 1.22952,-1.07201 2.56127,-2.24499 2.95944,-2.60662 1.4804,-1.34449 1.76766,-1.58355 1.90294,-1.58355 0.0762,0 0.92509,-0.77884 1.88642,-1.73077 2.33011,-2.30726 2.87565,-2.57122 4.71726,-2.28243 0.86593,0.1358 1.45984,0.13123 1.45984,-0.0112 0,-0.13208 0.11083,-0.17164 0.2463,-0.0879 0.13547,0.0837 0.32409,0.0264 0.41915,-0.12744 0.095,-0.15381 0.39092,-0.21044 0.65746,-0.12584 0.26655,0.0846 0.56121,0.0299 0.65482,-0.12153 0.0936,-0.15144 0.43103,-0.27613 0.74986,-0.27709 0.31885,-0.001 0.93689,-0.24616 1.37345,-0.54489 0.43656,-0.29873 1.06164,-0.65219 1.38906,-0.78546 0.32742,-0.13327 0.59531,-0.3782 0.59531,-0.5443 0,-0.17655 0.23088,-0.24162 0.55581,-0.15665 0.5941,0.15537 1.82544,-0.28663 1.82544,-0.65526 0,-0.12216 0.12036,-0.22211 0.26747,-0.22211 0.14711,0 0.77219,-0.22349 1.38906,-0.49665 1.90172,-0.84208 3.43043,-1.3152 5.22264,-1.61635 0.94589,-0.15893 2.01745,-0.39639 2.38125,-0.52768 0.3638,-0.13128 1.25677,-0.29912 1.98438,-0.37296 1.64779,-0.16723 2.86956,-0.44618 3.0427,-0.69468 0.0728,-0.10444 1.26339,-0.26712 2.64584,-0.36153 1.38245,-0.0944 3.04932,-0.21509 3.70416,-0.26821 1.10588,-0.0897 5.36623,-0.76365 6.87917,-1.08823 0.3638,-0.0781 1.9663,-0.26743 3.56108,-0.42084 1.5948,-0.15341 3.08308,-0.37307 3.30729,-0.48813 0.22424,-0.11507 1.26302,-0.23104 2.30847,-0.25773 1.04542,-0.0267 2.25721,-0.15075 2.69284,-0.27569 0.57838,-0.16587 0.82812,-0.13324 0.92568,0.12095 0.11017,0.28714 0.31398,0.28596 1.1635,-0.007 1.13562,-0.39125 10.34106,-0.34997 10.97047,0.0492 0.18611,0.11802 1.88619,0.23434 3.77796,0.2585 2.36355,0.0302 3.81207,0.17514 4.63021,0.46336 0.65484,0.23069 1.62213,0.42118 2.14955,0.4233 0.5274,0.002 1.42037,0.16528 1.98438,0.36258 0.56398,0.19731 1.25539,0.32373 1.53643,0.28095 0.28107,-0.0428 0.718,0.033 0.97097,0.16838 0.25297,0.13539 1.29725,0.29607 2.32061,0.35706 1.02333,0.061 1.98051,0.18499 2.12704,0.27554 0.1465,0.0905 0.79499,0.093 1.44105,0.005 0.64609,-0.0876 1.24338,-0.0481 1.32736,0.0877 0.084,0.13586 0.46445,0.21279 0.84553,0.17096 0.38111,-0.0418 1.1579,0.088 1.72625,0.28852 0.78335,0.27639 1.03838,0.28742 1.05421,0.0456 0.0156,-0.23646 0.0554,-0.23342 0.15435,0.0118 0.0744,0.18437 0.58516,0.33073 1.15412,0.33073 0.56136,0 1.09426,0.11906 1.18419,0.26458 0.0899,0.14552 0.93742,0.26459 1.88331,0.26459 0.94588,0 1.65552,0.10402 1.57694,0.23115 -0.0786,0.12713 0.59901,0.37645 1.50574,0.55404 0.90673,0.17758 1.76766,0.4169 1.91318,0.53181 0.14552,0.11491 1.14064,0.36321 2.21138,0.55178 1.07075,0.18857 2.08278,0.47405 2.24896,0.6344 0.16619,0.16035 0.65934,0.31316 1.09591,0.33959 1.59763,0.0967 3.71107,0.38941 3.96875,0.54967 0.14552,0.0905 0.44317,0.20206 0.66146,0.24789 0.80473,0.16899 4.12173,0.66219 4.7625,0.70813 0.3638,0.0261 1.34323,0.26983 2.17648,0.54165 1.21841,0.39744 1.69516,0.43894 2.43491,0.21191 0.62116,-0.19065 0.94906,-0.19458 1.00989,-0.0121 0.0495,0.1486 0.6191,0.32309 1.26571,0.38775 0.64662,0.0647 1.2368,0.21261 1.31152,0.32877 0.0747,0.11617 0.73117,0.20212 1.45878,0.191 1.38607,-0.0212 2.94579,0.22823 4.04786,0.64723 0.35872,0.13639 0.87463,0.1774 1.14646,0.0911 0.27181,-0.0863 0.49422,-0.0325 0.49422,0.11956 0,0.17824 0.70482,0.2339 1.98437,0.15672 1.09141,-0.0658 1.98493,-0.0334 1.9856,0.0721 0,0.10551 0.92342,0.21242 2.05052,0.23756 1.12712,0.0251 2.94227,0.17445 4.03367,0.33178 2.05365,0.29604 5.88474,-0.004 7.40834,-0.57992 0.21828,-0.0825 0.57547,-0.15086 0.79375,-0.15183 1.37059,-0.006 4.67524,-0.90747 6.16873,-1.68251 0.26411,-0.13706 0.7316,-0.29761 1.03889,-0.35679 0.30729,-0.0592 0.62698,-0.20315 0.71043,-0.31994 0.22304,-0.31214 2.89751,-2.18053 3.12891,-2.18587 0.1088,-0.003 0.47821,-0.30017 0.82092,-0.66146 0.34269,-0.36129 0.72964,-0.65689 0.8599,-0.65689 0.13023,0 0.2368,-0.10033 0.2368,-0.22296 0,-0.12263 0.62508,-0.88266 1.38906,-1.68895 2.04314,-2.15629 2.55395,-2.78814 2.38808,-2.954 -0.0818,-0.0818 0.0469,-0.22379 0.28604,-0.31554 0.2391,-0.0918 0.43474,-0.33268 0.43474,-0.5354 0,-0.20271 0.11165,-0.36856 0.24815,-0.36856 0.26136,0 1.90016,-2.15384 1.81184,-2.38125 -0.0851,-0.21897 0.94845,-1.85209 1.17205,-1.85209 0.11414,0 0.20799,-0.26789 0.20852,-0.59531 0,-0.32742 0.23868,-0.98514 0.52917,-1.4616 0.29051,-0.47646 0.52818,-1.0624 0.52818,-1.30209 0,-0.23968 0.16471,-0.62376 0.36603,-0.8535 0.35097,-0.40054 1.25592,-3.15925 1.1435,-3.4859 -0.0299,-0.0868 0.10898,-0.35454 0.30859,-0.59504 0.32731,-0.39438 0.85904,-2.51281 1.2315,-4.90628 0.0767,-0.49313 0.19431,-0.98525 0.26127,-1.09361 0.067,-0.10835 0.18751,-0.65738 0.26787,-1.22006 0.12136,-0.84965 0.2499,-1.52508 0.52197,-2.74286 0.11811,-0.52867 0.4758,-4.948896 0.41748,-5.159372 -0.20055,-0.723884 -0.20865,-1.61576 -0.0169,-1.852083 0.11811,-0.145521 0.35468,-1.03849 0.52573,-1.984375 0.17105,-0.945885 0.40642,-1.838854 0.52305,-1.984375 0.11666,-0.145521 0.41275,-1.157552 0.65802,-2.248958 0.2453,-1.091406 0.55613,-2.191118 0.69078,-2.443806 0.13464,-0.252687 0.24481,-0.63964 0.24481,-0.859895 0,-0.220255 0.10655,-0.400466 0.23681,-0.400466 0.13022,0 0.29326,-0.446484 0.36232,-0.992187 0.20595,-1.627741 1.25312,-6.209554 1.66415,-7.281397 0.21042,-0.548648 0.38256,-1.345292 0.38256,-1.770322 0,-0.425029 0.11906,-0.846365 0.26458,-0.936302 0.14552,-0.08994 0.26458,-0.447124 0.26458,-0.79375 0,-0.346625 0.10369,-0.694309 0.2304,-0.772628 0.20474,-0.126524 0.522,-1.138478 0.71171,-2.27008 0.0366,-0.218281 0.26482,-1.230313 0.5072,-2.248958 1.06384,-4.471337 1.33448,-8.935786 0.73785,-12.170836 -0.18788,-1.01864 -0.35293,-2.53758 -0.3668,-3.37541 -0.0138,-0.83784 -0.10861,-1.57488 -0.21055,-1.63788 -0.10192,-0.063 -0.11123,-0.86578 -0.0206,-1.78396 0.0906,-0.91818 0.15259,-4.20813 0.13782,-7.31099 -0.0148,-3.10287 0.0672,-5.69971 0.18214,-5.77075 0.11496,-0.071 0.10136,-0.3303 -0.0302,-0.57613 -0.13155,-0.24583 -0.24329,-0.56602 -0.24826,-0.71154 -0.0293,-0.85623 -0.37037,-1.98438 -0.59989,-1.98438 -0.14753,0 -0.20542,-0.10161 -0.12867,-0.22581 0.21394,-0.34615 -0.44341,-1.96633 -1.0087,-2.48617 -0.27694,-0.25466 -0.40195,-0.46302 -0.27781,-0.46302 0.12412,0 0.0828,-0.14287 -0.0918,-0.3175 -0.17462,-0.17462 -0.3175,-0.54455 -0.3175,-0.82206 0,-0.35015 -0.12734,-0.45569 -0.41608,-0.34488 -0.28454,0.10918 -0.38913,0.0282 -0.33073,-0.25598 0.0487,-0.23726 -0.82309,-1.33824 -2.03131,-2.56528 -1.16417,-1.18229 -2.08214,-2.30249 -2.03997,-2.48933 0.056,-0.24774 -0.15234,-0.2939 -0.76927,-0.17051 -0.76978,0.15395 -0.83257,0.11779 -0.69681,-0.40138 0.10268,-0.39269 0.0283,-0.57058 -0.2385,-0.57058 -0.23693,0 -0.31252,0.12863 -0.19433,0.33073 0.10636,0.1819 -0.0448,0.12237 -0.33594,-0.13229 -0.29115,-0.25466 -0.76941,-0.46302 -1.06283,-0.46302 -0.2934,0 -0.74962,-0.23886 -1.01381,-0.53079 -0.26421,-0.29193 -0.53099,-0.48018 -0.59282,-0.41832 -0.1891,0.18908 -1.3901,-0.97517 -1.3901,-1.34757 0,-0.31829 -0.98533,-0.49028 -2.11667,-0.36947 -0.34633,0.037 -0.34747,0.009 -0.009,-0.21805 0.31874,-0.21397 0.27154,-0.30609 -0.26458,-0.51653 -0.35886,-0.14086 -1.07218,-0.65793 -1.5851,-1.14904 -0.51292,-0.49111 -1.32662,-1.05613 -1.80819,-1.25561 -0.48159,-0.19947 -0.97559,-0.62568 -1.0978,-0.94712 -0.1868,-0.49131 -0.39408,-0.57221 -1.30067,-0.50764 -0.75126,0.0535 -1.07844,-0.0282 -1.07844,-0.26941 0,-0.42807 -0.92541,-0.69963 -1.25638,-0.36867 -0.30186,0.30188 -1.12429,0.0111 -1.12654,-0.39832 -0.003,-0.37972 -1.47923,-1.23739 -2.07028,-1.20209 -0.26731,0.016 -0.18053,0.10999 0.21987,0.23821 0.40039,0.12823 0.48717,0.22225 0.21986,0.23821 -0.50442,0.0301 -2.06774,-0.79907 -2.07028,-1.0981 0,-0.10914 -0.3511,-0.19844 -0.77819,-0.19844 -0.42709,0 -1.1117,-0.13218 -1.52136,-0.29374 -0.40965,-0.16156 -1.06537,-0.28878 -1.45716,-0.28271 -0.51187,0.008 -0.67146,-0.0956 -0.56701,-0.36772 0.0889,-0.23178 -0.0196,-0.37875 -0.27985,-0.37875 -0.23386,0 -0.42518,-0.14287 -0.42518,-0.3175 0,-0.24694 -0.0706,-0.24694 -0.3175,0 -0.39606,0.39607 -0.83434,0.41825 -0.59444,0.0301 0.11287,-0.18262 -0.0502,-0.25795 -0.44741,-0.2066 -0.34375,0.0445 -0.79658,-0.0259 -1.00629,-0.15631 -0.23265,-0.14469 -0.41508,-0.13564 -0.46802,0.0232 -0.0845,0.25354 -3.42104,0.0281 -4.24098,-0.28656 -0.20463,-0.0785 -0.59518,-0.0233 -0.86791,0.12263 -0.35598,0.19051 -0.55584,0.17025 -0.70843,-0.0718 -0.26286,-0.41699 -2.46152,-1.01548 -2.46152,-0.67004 0,0.13511 -0.26789,0.1595 -0.59531,0.0542 -0.32743,-0.1053 -0.83344,-0.22201 -1.12448,-0.25935 -0.29104,-0.0373 -0.88636,-0.12986 -1.32292,-0.20559 -0.43656,-0.0757 -1.50812,-0.21706 -2.38125,-0.31408 -0.87312,-0.097 -2.10688,-0.28706 -2.74164,-0.42231 -0.8111,-0.17282 -1.2633,-0.15534 -1.52135,0.0588 -0.28385,0.23556 -0.36722,0.21963 -0.36722,-0.0701 0,-0.26798 -0.39611,-0.39255 -1.38906,-0.43683 -2.35328,-0.10494 -3.23525,-0.19499 -3.50811,-0.35816 -0.1442,-0.0862 -0.76822,-0.24053 -1.38668,-0.34287 -0.85453,-0.1414 -1.12546,-0.10108 -1.12853,0.16792 -0.003,0.2409 -0.0661,0.26027 -0.19844,0.0606 -0.10691,-0.16135 -0.68214,-0.29186 -1.27828,-0.29003 -0.59613,0.002 -1.19144,-0.058 -1.32291,-0.13307 -0.56206,-0.32077 -1.73255,-0.48562 -1.56898,-0.22098 0.11416,0.18474 -0.0371,0.19582 -0.46294,0.0339 -0.34791,-0.13227 -0.77531,-0.15224 -0.94981,-0.0444 -0.17449,0.10785 -2.09751,0.16531 -4.27333,0.12771 -2.2328,-0.0386 -4.02228,0.0387 -4.10803,0.17749 -0.24911,0.40304 -0.64582,0.2785 -0.48099,-0.15101 0.17891,-0.46628 -0.56843,-0.55611 -0.84904,-0.10205 -0.10891,0.17617 -0.59431,0.23954 -1.20624,0.15747 -0.67604,-0.0907 -1.02542,-0.0335 -1.02809,0.1682 -0.003,0.19464 -0.0854,0.1773 -0.22802,-0.0478 -0.30861,-0.48684 -0.41463,-0.49498 -0.92543,-0.071 -0.459,0.38093 -2.08751,0.51004 -7.90448,0.62664 -1.70985,0.0343 -3.10883,0.13562 -3.10886,0.22522 0,0.0896 -0.47881,0.0753 -1.06402,-0.0317 -0.58523,-0.10701 -1.11675,-0.10927 -1.1812,-0.005 -0.0644,0.10426 -0.47115,0.19963 -0.90379,0.21193 -0.43265,0.0123 -1.00243,0.12461 -1.26619,0.24957 -0.51692,0.2449 -3.81202,0.22222 -4.4713,-0.0308 -0.22818,-0.0876 -0.33163,-0.0412 -0.23974,0.10752 0.0889,0.14386 0.0653,0.27067 -0.0524,0.2818 -0.11771,0.0111 -0.45217,0.0753 -0.74321,0.14253 -0.29104,0.0673 -1.02534,0.1641 -1.63179,0.21521 -0.60643,0.0511 -1.22719,0.16992 -1.37943,0.26402 -0.4789,0.29597 -5.54038,0.44245 -5.71167,0.16529 -0.0989,-0.15997 -0.39666,-0.16769 -0.78428,-0.0203 -0.34369,0.13067 -0.67738,0.18508 -0.74155,0.12091 -0.0642,-0.0642 -0.76102,0.0138 -1.54855,0.17331 -0.78756,0.15949 -2.62252,0.39621 -4.07773,0.52605 -3.60111,0.32131 -4.65233,0.48802 -5.4011,0.85657 -0.47151,0.23207 -0.665,0.23577 -0.73948,0.0141 -0.0698,-0.20771 -0.40288,-0.23003 -1.0812,-0.0725 -0.53916,0.12525 -1.60123,0.23057 -2.36013,0.23404 -0.75888,0.004 -1.88997,0.1762 -2.51354,0.38383 -1.33792,0.44552 -3.14825,0.72911 -4.82333,0.75558 -0.66284,0.0105 -1.20518,0.12449 -1.20518,0.25336 0,0.12887 -0.20836,0.204 -0.46302,0.16697 -0.25466,-0.037 -0.70115,0.0109 -0.99219,0.10656 -0.29104,0.0956 -1.83766,0.36572 -3.43691,0.60016 -1.59925,0.23444 -3.03898,0.53515 -3.19934,0.66825 -0.16039,0.13311 -0.35708,0.17654 -0.43709,0.0965 -0.08,-0.08 -0.58963,0.0401 -1.13244,0.26688 -0.54285,0.22681 -1.55782,0.41238 -2.25552,0.41238 -0.69771,0 -1.30824,0.0995 -1.35676,0.22115 -0.0845,0.21202 -3.77481,1.73697 -4.32152,1.78579 -0.97041,0.0867 -2.24896,0.47323 -2.24896,0.67994 0,0.1357 -0.14883,0.2151 -0.33073,0.17644 -0.48138,-0.10232 -2.94634,0.62421 -3.14978,0.92839 -0.0953,0.14245 -0.53398,0.24874 -0.97489,0.23621 -0.44092,-0.0125 -0.94308,0.14761 -1.11596,0.35589 -0.17285,0.20828 -0.64984,0.37869 -1.06,0.37869 -0.41015,0 -0.82044,0.12087 -0.91175,0.26859 -0.2009,0.32509 -1.94315,1.07739 -2.35138,1.01534 -0.49593,-0.0754 -7.82505,3.46344 -8.64716,4.17525 -0.22974,0.19891 -0.56486,0.36165 -0.7447,0.36165 -0.17984,0 -0.62754,0.35719 -0.99489,0.79375 -0.36732,0.43656 -0.83589,0.79375 -1.04124,0.79375 -0.20534,0 -0.37335,0.11906 -0.37335,0.26458 0,0.14553 -0.15632,0.26459 -0.34737,0.26459 -0.19106,0 -0.68959,0.35719 -1.10784,0.79375 -0.41825,0.43656 -0.85892,0.79375 -0.97928,0.79375 -0.33491,0 -1.74844,1.62905 -2.12362,2.44739 -0.19518,0.42578 -0.54457,0.72761 -0.84225,0.72761 -0.27977,0 -0.43889,0.0698 -0.35359,0.15508 0.0853,0.0853 -0.31107,0.7699 -0.8808,1.52135 -0.56975,0.75145 -1.0364,1.49664 -1.03703,1.65598 0,0.15934 -0.47072,1.01625 -1.04465,1.90425 -0.57394,0.88799 -1.07995,1.82918 -1.12448,2.09154 -0.0445,0.26235 -0.1678,0.54204 -0.2739,0.62152 -0.27967,0.20945 -2.84948,5.51911 -2.85141,5.89146 0,0.17272 -0.16111,0.61962 -0.356,0.99312 -0.19492,0.3735 -0.43326,0.99333 -0.52967,1.37739 -0.0964,0.38407 -0.31663,1.03098 -0.48943,1.43758 -0.17277,0.4066 -0.33216,0.85833 -0.35417,1.00385 -0.0459,0.30302 -0.18963,0.70439 -1.04267,2.91042 -0.78594,2.03254 -1.36879,3.95192 -1.60695,5.291666 -0.10345,0.582084 -0.33446,1.35599 -0.51331,1.719792 -0.17889,0.363802 -0.26819,0.822028 -0.19849,1.018278 0.0697,0.196252 0.006,0.612971 -0.14267,0.926041 -0.14816,0.313074 -0.4141,1.462191 -0.59097,2.553597 -0.17685,1.091407 -0.59439,3.115469 -0.92787,4.497917 -0.33348,1.382448 -0.68598,3.012702 -0.78338,3.622789 -0.0974,0.610086 -0.34504,1.248656 -0.55036,1.419042 -0.20529,0.170386 -0.32125,0.393954 -0.25767,0.496816 0.0636,0.102862 -0.0433,1.071639 -0.23744,2.152835 -0.32282,1.797526 -0.43093,2.220055 -0.87537,3.421018 -0.22392,0.605107 -0.30557,1.024527 -0.61807,3.175 -0.15859,1.091406 -0.3283,2.024681 -0.37711,2.073944 -0.0488,0.04926 0.18891,0.827236 0.52827,1.728827 0.33935,0.901592 0.68209,2.52816 0.76165,3.614597 0.24519,3.348315 1.09207,6.873973 1.90445,7.928465 0.16814,0.218281 0.62486,1.289843 1.01488,2.381246 0.39003,1.09141 0.89837,2.34157 1.12962,2.77813 1.33448,2.5193 1.63234,2.99695 1.77808,2.85121 0.0887,-0.0887 0.16129,0.0372 0.16129,0.27969 0,0.24254 0.11906,0.44097 0.26458,0.44097 0.14552,0 0.26458,0.16586 0.26458,0.36857 0,0.20271 0.17352,0.43515 0.38558,0.51653 0.57147,0.2193 1.54403,1.89948 2.39752,4.14199 0.4154,1.0914 0.84651,2.10892 0.95808,2.26115 0.11155,0.15222 0.19347,0.50941 0.18201,0.79375 -0.0114,0.28433 0.0578,1.13246 0.15388,1.88473 0.11158,0.87368 0.0719,1.43128 -0.10988,1.54362 -0.1565,0.0967 -0.21844,0.38416 -0.13764,0.63875 0.0808,0.25459 -0.0122,1.16731 -0.20637,2.02826 -0.29361,1.30082 -0.48392,1.62888 -1.12623,1.94121 -0.4251,0.20672 -0.92307,0.52602 -1.10662,0.70955 -0.35761,0.35762 -4.11342,2.22148 -4.47852,2.22251 -0.12049,2.7e-4 -0.63582,0.35725 -1.14514,0.79313 -0.50932,0.43588 -1.1344,0.79279 -1.38906,0.79313 -0.25466,2.7e-4 -0.46329,0.0899 -0.46361,0.19906 0,0.10914 -0.53348,0.55562 -1.1848,0.99219 -0.65133,0.43656 -1.18684,0.89007 -1.19004,1.0078 -0.003,0.11773 -0.11139,0.1488 -0.24043,0.0691 -0.12904,-0.0797 -0.39518,0.0485 -0.59142,0.28495 -0.19627,0.23647 -0.8299,0.72858 -1.40806,1.09356 -0.57817,0.36499 -1.41335,1.00309 -1.85598,1.418 -0.44259,0.41491 -0.92379,0.75639 -1.06931,0.75885 -0.23659,0.004 -2.62591,2.38832 -4.35456,4.34546 -0.57651,0.65271 -0.791,0.72284 -1.88839,0.61739 -0.97679,-0.0939 -1.44669,-0.32161 -2.22692,-1.07935 -0.54387,-0.52822 -1.21896,-1.03342 -1.50018,-1.12268 -0.2812,-0.0892 -0.62326,-0.41998 -0.7601,-0.73495 -0.13684,-0.31497 -0.35433,-0.75127 -0.48334,-0.96955 -0.12901,-0.21828 -0.38537,-0.72023 -0.56967,-1.11545 -0.18434,-0.39522 -0.43191,-0.65876 -0.55018,-0.58566 -0.11829,0.0731 -0.40314,-0.0798 -0.63299,-0.33976 -0.92464,-1.04574 -2.77638,-3.49136 -2.77638,-3.6668 0,-0.10292 -0.19761,-0.33162 -0.43915,-0.50823 -0.35275,-0.25794 -0.53798,-0.23765 -0.94147,0.10312 -0.5906,0.4988 -1.17665,1.68988 -1.38038,2.80549 -0.0797,0.43656 -0.25326,1.38981 -0.38563,2.11832 -0.13237,0.72852 -0.41548,1.97867 -0.6291,2.77813 -0.64995,2.43217 -1.21698,5.08653 -1.38441,6.48063 -0.0874,0.72761 -0.33499,1.94918 -0.55023,2.71461 -0.21524,0.76543 -0.40428,1.837 -0.42005,2.38125 -0.0159,0.54426 -0.11266,1.10862 -0.21526,1.25414 -0.18074,0.25629 -0.60905,3.0935 -0.95859,6.35 -0.0937,0.87313 -0.28752,1.81232 -0.43069,2.08711 -0.14316,0.27478 -0.29668,0.81056 -0.34113,1.19062 -0.0444,0.38006 -0.15372,1.34587 -0.24288,2.14623 -0.0891,0.80037 -0.20172,1.78014 -0.25019,2.17728 -0.0485,0.39713 -0.25358,0.92601 -0.45583,1.17526 -0.20224,0.24927 -0.23238,0.37213 -0.067,0.27304 0.16541,-0.0991 0.45238,0.003 0.6377,0.22583 0.18531,0.2233 0.49688,0.34463 0.69238,0.26962 0.19548,-0.075 0.9085,0.15769 1.58451,0.51712 0.67601,0.35944 1.38997,0.65352 1.58655,0.65352 0.19661,0 0.35748,0.0931 0.35748,0.20687 0,0.11378 0.322,0.23353 0.71557,0.2661 0.39356,0.0326 1.1377,0.34791 1.65364,0.70075 0.51594,0.35284 1.41433,0.72502 1.99641,0.82705 0.58209,0.10205 1.28834,0.3047 1.56943,0.45035 0.80397,0.41651 3.30685,0.99314 5.04516,1.1623 0.87312,0.085 1.88515,0.27844 2.24896,0.42993 0.3638,0.15149 0.76329,0.25203 0.88775,0.22342 0.12446,-0.0286 0.36806,0.0657 0.54134,0.20948 0.1733,0.14382 0.54771,0.26152 0.83206,0.26156 0.84646,1.1e-4 2.30669,0.27165 3.2951,0.61274 0.50932,0.17576 1.16416,0.34614 1.4552,0.37861 0.97065,0.1083 2.79699,0.5515 2.965,0.71952 0.22035,0.22034 0.67668,0.20371 1.00375,-0.0366 z"
     id="path6065"
     inkscape:connector-curvature="0"
     sodipodi:nodetypes="cscccscccsccsccsccscccccssscsscccccccccccccccccccccccccccccscsccsccccccccccccccscccccccccccsssccsscsccscccccccccscccssccscscccccccccccsccscsccccccsccsccscccscccsccccccscccsscsccccccsccccccsccccccccccccccccccccccscccccccccsccccccccsccscccsccsccccscccscssssscscccccccccccccccccsscccccccccccssssccccccsccccsccccsccccccccsscccsccccccsccccccccccccsscscccccccccccc" />
  <g
     id="g6116"
     style="fill:#ffffff"
     transform="translate(149.53684,-227.25312)">
    <path
       id="path5010-0"
       d="m -68.118903,290.66057 c -0.4075,-0.12576 -1.4502,-0.39127 -2.3172,-0.59 -1.0871,-0.24918 -1.8151,-0.58938 -2.3458,-1.09611 -0.4232,-0.40415 -1.1681,-0.89835 -1.6553,-1.09825 -0.6454,-0.26479 -1.0902,-0.72556 -1.6387,-1.69738 -0.414,-0.73363 -0.9321,-1.48272 -1.1513,-1.66462 -0.3428,-0.28451 -0.3985,-1.03196 -0.3985,-5.34631 0,-4.88129 0.017,-5.05592 0.6543,-6.52425 0.6424,-1.48122 0.6907,-1.52601 2.6545,-2.46018 3.6157,-1.71997 5.7531,-2.3038 8.0521,-2.1994 1.8514,0.0841 2.0709,0.14968 2.6145,0.78169 0.4463,0.51885 0.5934,0.98038 0.5934,1.86139 0,0.64434 -0.1333,1.30485 -0.2963,1.46783 -0.1966,0.19661 -1.266,0.29631 -3.1784,0.29631 h -2.8821 l -1.8387,1.20036 c -2.6885,1.75504 -2.9163,2.1209 -2.9163,4.68315 0,2.02602 0.04,2.17961 0.9805,3.7324 1.2941,2.13738 1.6522,2.53257 2.9704,3.27716 1.0779,0.60891 1.2755,0.63095 6.6072,0.73691 l 5.496,0.10925 0.739,0.70795 c 0.4064,0.38938 0.7389,0.88759 0.7389,1.10717 0,0.67256 -1.5459,1.97645 -2.3576,1.98851 -0.4009,0.006 -1.1735,0.18296 -1.7167,0.39331 -1.1611,0.4496 -6.2843,0.67998 -7.4079,0.33311 z"
       style="fill:#ffffff;stroke-width:0.24692985"
       inkscape:connector-curvature="0" />
    <path
       d="m -31.285247,286.88013 c -0.74698,-0.17362 -2.02367,-0.39523 -2.83716,-0.49241 -2.03927,-0.24368 -2.91673,-0.76137 -5.09142,-3.00404 -2.87107,-2.96085 -2.93632,-3.14886 -2.93632,-8.45923 v -4.44249 l 0.89823,-1.71958 c 1.14967,-2.20096 2.47076,-3.94523 3.52722,-4.65722 0.69366,-0.46744 1.16297,-0.56139 2.80384,-0.56139 1.90539,0 2.00239,0.0286 2.92734,0.86423 0.83712,0.75629 1.1185,0.86429 2.2523,0.86445 1.86975,2.6e-4 3.88672,1.0446 5.78895,2.99728 2.06824,2.12317 2.79111,4.05461 2.79111,7.45757 0,2.61488 -0.46617,4.39812 -2.04377,7.81778 -0.92903,2.01383 -0.92202,2.00867 -4.00598,2.95196 -2.25777,0.69057 -2.60948,0.72364 -4.07434,0.38309 z m 3.7171,-4.9438 c 0.30287,-0.26958 0.81166,-1.04576 1.13059,-1.72482 0.49684,-1.05778 0.58029,-1.61986 0.58235,-3.92382 0.003,-3.33801 -0.40881,-4.32885 -2.44671,-5.88714 l -1.37832,-1.05394 h -3.24585 c -3.94261,0 -3.9425,-8e-5 -4.89278,3.09771 -0.86553,2.82157 -0.75091,4.24561 0.49758,6.1835 0.46778,0.72607 0.8505,1.40579 0.8505,1.51053 0,0.20323 3.1661,1.86198 4.19779,2.19933 0.33954,0.11099 1.413121,0.17642 2.38575,0.14533 1.359561,-0.0435 1.89571,-0.16983 2.3191,-0.54668 z"
       style="fill:#ffffff;stroke-width:0.24692985"
       id="path5002-0"
       inkscape:connector-curvature="0" />
    <path
       id="path4924-6"
       d="m -58.114603,288.77637 c -0.83627,-0.92398 -0.97358,-1.94702 -0.98507,-7.3352 -0.009,-4.18643 -0.10117,-5.64265 -0.40925,-6.45222 -0.48155,-1.26557 -0.75468,-6.47428 -0.44548,-8.49492 l 0.22018,-1.43758 h 1.8261 1.82605 l 0.14904,2.22176 c 0.0819,1.22194 0.409,3.06982 0.72679,4.10641 0.55343,1.80509 0.61716,1.89203 1.51034,2.05962 1.00219,0.18811 3.55545,0 4.03556,-0.29599 0.3261,-0.20153 0.21408,-1.47051 -0.28144,-3.18479 -0.38404,-1.32844 -0.15806,-2.78598 0.53983,-3.48402 0.73978,-0.73979 2.37101,-0.67941 3.30301,0.12223 l 0.73295,0.63042 0.16624,4.79324 c 0.11898,3.44416 0.29329,5.18854 0.61766,6.19771 0.34179,1.06288 0.42649,2.03045 0.34828,3.97825 -0.0971,2.41824 -0.14904,2.62157 -0.86218,3.3657 -0.90535,0.945 -1.44883,0.99217 -2.34881,0.20387 -0.79417,-0.69564 -1.35318,-2.52603 -1.75612,-5.75037 l -0.28583,-2.28714 h -2.55066 c -2.0847,0 -2.57961,0.0755 -2.70925,0.41349 -0.33391,0.87003 -0.15545,4.99158 0.27006,6.24054 0.39867,1.17004 0.39793,1.35564 -0.0116,2.65261 -0.24178,0.767 -0.61953,1.57445 -0.83945,1.79438 -0.55142,0.55143 -2.26769,0.51567 -2.78691,-0.058 z"
       style="fill:#ffffff;stroke-width:0.24692985"
       inkscape:connector-curvature="0" />
    <path
       id="path4866-3"
       d="m 9.1842001,284.82288 c -0.37,-0.2996 -0.4588,-0.58316 -0.4588,-1.46477 0,-1.42473 0.3696,-1.78915 2.0924999,-2.06354 0.728001,-0.11578 1.417901,-0.305 1.533101,-0.42025 0.2179,-0.21786 -1.499701,-2.10436 -5.0744009,-5.57288 l -1.8055,-1.7519 v -1.87552 c 0,-1.75333 0.042,-1.9309 0.6176,-2.72525 0.6999,-0.96624 1.4495,-1.38846 3.8705,-2.18012 1.1862009,-0.3879 2.0311009,-0.5382 2.7823019,-0.49487 l 1.0788,0.0622 0.062,1.17973 c 0.034,0.64885 -0.043,1.37548 -0.1712,1.61477 -0.2893,0.54075 -1.394601,1.01844 -2.356401,1.01844 -0.546301,0 -0.932901,0.18547 -1.5524009,0.74536 -0.4538,0.40991 -0.825,0.85484 -0.825,0.98866 0,0.34829 1.3672999,1.58811 2.5964009,2.35416 1.430801,0.89186 3.418901,3.00749 4.002101,4.259 0.3638,0.78059 0.4841,1.41255 0.4961,2.60562 0.02,1.92794 -0.095,2.08072 -2.4307,3.24322 -1.973801,0.98244 -3.618202,1.1587 -4.4588019,0.47803 z"
       style="fill:#ffffff;stroke-width:0.24692985"
       inkscape:connector-curvature="0" />
    <path
       id="path5177-5-9"
       d="m 22.252768,288.01836 c -0.7004,-0.25024 -1.4577,-0.6254 -1.6828,-0.83383 l -0.4093,-0.37891 v -9.53519 -9.53521 l 0.6427,-1.14925 c 0.3535,-0.63211 0.7754,-1.25942 0.9376,-1.39401 0.2333,-0.19365 1.4994,-0.24469 6.0695,-0.24469 6.7172,0 6.5402,-0.0443 6.5402,1.63381 0,0.7757 -0.082,1.01801 -0.4691,1.3817 -0.4683,0.4403 -0.4779,0.44122 -5.5942,0.532 l -5.125,0.091 v 3.18371 3.18362 l 6.2764,0.0992 c 3.452,0.0545 6.3005,0.1161 6.3301,0.1365 0.03,0.0204 0.03,0.58973 0,1.26513 l -0.054,1.22799 -5.4577,0.091 -5.4577,0.091 -0.8641,0.51757 -0.8642,0.51758 v 2.97622 2.97619 l 0.6822,0.10557 c 0.3753,0.058 1.1735,0.2444 1.7738,0.41392 0.8223,0.23243 2.1236,0.33184 5.2758,0.40309 l 4.1842,0.0945 v 1.27346 1.27347 l -5.7306,0.0292 c -5.6872,0.0292 -5.7402,0.0262 -7.004,-0.42595 z"
       style="fill:#ffffff;stroke-width:0.24692985"
       inkscape:connector-curvature="0" />
    <path
       d="m -13.01357,287.09195 c -1.68891,-0.86559 -2.51285,-1.68778 -3.35687,-3.34981 -0.68281,-1.34459 -0.71747,-1.5679 -0.71747,-4.62495 0,-2.16468 0.11388,-3.5157 0.34914,-4.14311 0.19204,-0.51205 0.4127,-1.62684 0.49038,-2.47734 0.16952,-1.85537 0.83585,-3.27488 2.20089,-4.68863 l 1.0133,-1.04945 3.09695,0.004 c 3.1650999,0.004 5.5342299,0.48877 7.5421799,1.54398 0.92242,0.48472 2.74266998,2.37927 3.85106,4.00825 l 0.84011,1.23465 v 4.44474 4.44473 l -0.94573,1.52797 c -0.52011002,0.84037 -1.48764002,2.03489 -2.15003002,2.65449 l -1.20434998,1.12654 -4.8874699,-0.0114 c -4.7481,-0.0111 -4.9226,-0.0295 -6.12209,-0.64426 z m 10.3710599,-5.39404 c 0.90543,-1.81081 0.98772,-2.14005 0.98772,-3.95086 0,-2.67499 -0.59322,-3.85212 -2.58562,-5.13067 -2.6289999,-1.68706 -5.6858399,-2.38233 -6.4837399,-1.47471 -0.78132,0.88876 -1.39108,2.48619 -1.6301,4.27062 -0.13563,1.0125 -0.37304,2.33653 -0.52758,2.94232 -0.57555,2.25584 0.10067,3.50925 2.5845,4.79065 1.13353,0.58479 1.45712,0.63249 3.9508699,0.58254 l 2.71624,-0.0544 z"
       style="fill:#ffffff;stroke-width:0.24692985"
       id="path5032-0"
       inkscape:connector-curvature="0" />
    <path
       d="m -68.326436,332.58854 c -1.06119,-0.54857 -1.06468,-0.56055 -1.07005,-3.66575 -0.003,-2.55093 0.037,-2.95339 0.37039,-3.59971 0.20648,-0.40027 0.42733,-1.21891 0.4908,-1.81925 0.0633,-0.60037 0.23537,-1.41902 0.38158,-1.81925 0.14642,-0.40018 0.26977,-0.96229 0.27416,-1.24905 0.003,-0.2867 0.1251,-0.90072 0.26832,-1.36443 0.37481,-1.21382 0.65061,-2.33648 0.85505,-3.48093 1.16361,-6.51341 2.27666,-9.0991 4.1597,-9.66327 1.80314,-0.5402 2.7803,0.31572 4.48969,3.93266 0.66201,1.40081 1.39613,2.85191 1.63139,3.22466 0.23535,0.37274 0.74769,1.3703 1.13882,2.21678 0.65892,1.42629 0.77846,1.57324 1.63129,2.00541 0.50615,0.25636 1.0051,0.62479 1.10874,0.81847 0.29705,0.55501 0.21349,1.51645 -0.17529,2.01337 -0.45085,0.57639 -0.45294,0.96668 -0.009,1.79446 0.40198,0.75041 1.56535,4.37179 1.74233,5.42358 0.0642,0.38259 0.19656,0.95668 0.29406,1.27575 0.13504,0.44193 0.10906,0.71146 -0.10822,1.13164 -0.81385,1.57385 -3.01027,1.07159 -3.01027,-0.68841 0,-0.39677 -0.2377,-1.40338 -0.52855,-2.23685 -0.29078,-0.83343 -0.79024,-2.37495 -1.11006,-3.42556 -0.86763,-2.85025 -0.70602,-2.76283 -4.97859,-2.69396 -3.25993,0.0528 -3.51547,0.0817 -4.04831,0.46175 -0.49038,0.34984 -0.59624,0.57534 -0.76848,1.63733 -0.21291,1.31302 -0.45524,2.36579 -0.84852,3.6876 -0.13414,0.45024 -0.27911,1.82544 -0.32221,3.05594 -0.0758,2.15908 -0.0968,2.2561 -0.59312,2.77434 -0.59925,0.6255 -0.5593,0.61754 -1.2651,0.25257 z m 10.1127,-14.93981 c 0.16536,-0.16595 0.15078,-0.37563 -0.0636,-0.90964 -0.51639,-1.28627 -2.8734,-5.96593 -3.23591,-6.42469 -0.32229,-0.40785 -0.38259,-0.4246 -0.58449,-0.16245 -0.41047,0.53324 -1.39028,4.67354 -1.53127,6.47067 -0.0878,1.11803 -0.0858,1.1239 0.42709,1.20788 1.04984,0.17179 4.77067,0.0365 4.98824,-0.18169 z"
       style="fill:#ffffff;stroke-width:0.24692985"
       id="path4692-8"
       inkscape:connector-curvature="0" />
    <path
       id="path4858-3"
       d="m 27.345739,326.09314 c -0.2835,-0.0534 -1.3696,-0.48713 -2.4138,-0.96385 -1.7637,-0.80526 -1.9378,-0.93999 -2.4511,-1.89733 -0.3038,-0.56676 -0.7155,-1.216 -0.9148,-1.44275 -0.1995,-0.22659 -0.6035,-1.18213 -0.8982,-2.12317 -1.0355,-3.30682 -0.5811,-7.34872 0.9851,-8.76266 0.3538,-0.31938 0.9348,-0.8614 1.2911,-1.20443 l 0.6479,-0.62376 3.1333,0.0709 3.1333,0.0709 0.4944,0.6183 c 0.6328,0.79134 0.6272,1.35118 -0.02,1.95906 -0.4401,0.41343 -0.7827,0.49868 -2.3186,0.57687 -1.8273,0.093 -2.9707,0.47093 -3.5551,1.17499 -0.2018,0.24317 -0.2828,0.99766 -0.2837,2.64287 0,2.11743 0.045,2.39368 0.5765,3.43611 0.318,0.62347 0.7672,1.33977 0.9984,1.59179 0.6145,0.67016 3.3622,1.49976 4.9672,1.49976 h 1.3298 l 0.1266,-0.97898 c 0.07,-0.53846 0.049,-1.25672 -0.047,-1.59615 -0.2042,-0.72676 -0.8338,-0.89768 -3.3765,-0.91673 -1.5064,-0.0116 -1.604,-0.0408 -2.0095,-0.61047 -0.5855,-0.8223 -0.5446,-1.54557 0.1169,-2.06582 0.4924,-0.38722 0.8205,-0.42717 3.5107,-0.42717 2.7379,0 3.0443,0.039 3.9606,0.50327 0.8175,0.4142 1.0715,0.68535 1.4359,1.53244 0.6217,1.44531 0.589,3.24699 -0.099,5.42284 -0.8092,2.56061 -0.6914,2.49439 -4.5488,2.55723 -1.7914,0.0292 -3.4889,0.009 -3.7723,-0.044 z"
       style="fill:#ffffff;stroke-width:0.24692985"
       inkscape:connector-curvature="0" />
    <path
       id="path4854-8"
       d="m 10.960439,326.70104 c -1.1081998,-0.29702 -1.7738998,-1.14818 -3.3294998,-4.25746 -0.8607,-1.72024 -1.8194,-3.45231 -2.1303,-3.84903 -0.311,-0.39676 -0.7651,-1.11556 -1.0092,-1.59731 -0.2441,-0.48178 -0.5323,-0.87596 -0.6404,-0.87596 -0.1082,0 -0.3613,0.30144 -0.5626,0.66987 -0.2943,0.53864 -0.3862,1.34168 -0.4691,4.10105 -0.09,2.99677 -0.1528,3.48604 -0.4956,3.86442 -0.5338,0.58894 -1.77270003,0.58888 -2.30630003,-1.6e-4 -0.3531,-0.3897 -0.3994,-0.84606 -0.4596,-4.53146 -0.056,-3.40998 -0.01,-4.2976 0.2864,-5.28601 0.1942,-0.65333 0.399,-2.14058 0.4549,-3.30501 0.098,-2.03579 0.1248,-2.13678 0.70840003,-2.62785 0.4089,-0.34406 0.8581,-0.51067 1.3769,-0.51067 0.8545,0 1.4139,0.46689 2.566,2.14141 0.3582,0.52072 1.1139,1.61996 1.6791,2.44274 0.5653,0.82274 1.6318,2.65027 2.3702,4.06119 0.7384,1.41092 1.4465998,2.5972 1.5737998,2.63623 0.4101,0.126 0.4844,-0.77888 0.4872,-5.93847 0,-5.02631 0.01,-5.06857 0.4799,-5.51328 0.3472,-0.32618 0.7352,-0.44812 1.4263,-0.44812 h 0.9493 l 0.1344,1.28815 c 0.074,0.70847 0.1047,4.74048 0.068,8.96003 -0.064,7.36883 -0.083,7.68827 -0.4819,8.08686 -0.4263,0.42609 -1.9037,0.69596 -2.6763,0.48884 z"
       style="fill:#ffffff;stroke-width:0.24692985"
       inkscape:connector-curvature="0" />
    <path
       inkscape:connector-curvature="0"
       d="m -13.593361,326.69636 c -0.5506,-0.10792 -3.3732,-2.99233 -3.3732,-3.44712 0,-0.1846 -0.3941,-0.76325 -0.8759,-1.28575 l -0.876,-0.94998 -0.07,-3.85853 c -0.07,-3.83923 -0.068,-3.864 0.4811,-4.94673 0.3033,-0.59848 0.9488,-1.5164 1.4344,-2.0398 0.4857,-0.52337 1.0455,-1.27625 1.2442,-1.67299 0.7219,-1.44216 0.7233,-1.44272 3.6455,-1.44272 2.4756002,0 2.7382002,0.0391 3.9483002,0.5878 1.4329,0.64974 2.3983,1.66428 3.3076,3.47591 0.533,1.06199 0.5394,1.12906 0.5267,5.46174 l -0.012,4.38656 -1.3784,2.78241 c -1.1083,2.23739 -1.4792,2.80863 -1.8936,2.91642 -0.5618,0.1461 -5.3965002,0.17208 -6.1075002,0.033 z m 4.5639002,-4.27834 c 1.1875,-1.85634 1.7541,-3.65392 1.8873,-5.98757 0.1493,-2.61901 0.01,-2.95458 -2.0641,-4.82362 -1.2599002,-1.13758 -1.6928002,-1.41899 -1.9580002,-1.27288 -0.487,0.26828 -3.1446,2.6856 -3.7478,3.40891 -0.4701,0.5638 -0.5087,0.77489 -0.5087,2.78242 0,2.16593 0,2.1773 0.8958,3.86659 0.4926,0.93181 1.258,2.02157 1.7009,2.4217 0.7162,0.6471 0.9307,0.72748 1.9408,0.72748 h 1.1355002 z"
       style="fill:#ffffff;stroke-width:0.24692985"
       id="path4850-3" />
    <path
       id="path4848-1"
       d="m -35.000561,329.74387 c -0.7909,-0.33997 -1.1722,-0.984 -1.205,-2.03537 -0.02,-0.59796 0.084,-1.15123 0.2514,-1.35295 0.3631,-0.43812 1.9699,-0.45543 2.983,-0.0321 0.4515,0.1887 1.3921,0.30916 2.4132,0.30916 h 1.6732 l 1.3219,-1.26928 c 1.1737,-1.12707 1.3218,-1.35774 1.3218,-2.05812 0,-0.70424 -0.094,-0.84788 -0.8759,-1.33956 -0.4818,-0.30292 -1.2469,-0.80211 -1.7004,-1.10937 -0.4534,-0.30723 -1.3345,-0.81245 -1.958,-1.12268 -1.2623,-0.62817 -2.3586,-1.57451 -2.7999,-2.41694 -0.1946,-0.37142 -0.2905,-1.22843 -0.2879,-2.5763 0,-1.64298 0.1138,-2.36831 0.5936,-3.8885 0.9127,-2.89171 1.3754,-3.55688 3.2157,-4.62349 0.4534,-0.26281 1.061,-0.69461 1.3502,-0.95956 0.289,-0.26496 1.6597,-1.03855 3.0458,-1.71908 2.0468,-1.00502 2.7109,-1.23733 3.5374,-1.23733 1.1982,0 1.4443,0.29356 1.4443,1.72252 0,1.22468 -0.7089,2.10288 -1.8537,2.29629 -0.4488,0.0758 -1.1196,0.35862 -1.4907,0.62844 -0.371,0.26985 -1.3794,0.85889 -2.2408,1.30905 -2.0332,1.06246 -3.4018,2.5309 -3.6018,3.86443 -0.1916,1.27706 0.01,3.50372 0.3525,3.92226 0.1546,0.18817 0.9826,0.67424 1.8399,1.08 1.1857,0.56129 1.8619,1.0627 2.8263,2.09564 0.6972,0.74681 1.3639,1.61075 1.4814,1.91987 0.2927,0.76985 0.254,4.63007 -0.053,5.3096 -0.4186,0.92573 -1.9844,2.44558 -2.9974,2.90941 -0.8451,0.38701 -1.395,0.44667 -4.5676,0.49557 -1.9838,0.0306 -3.7923,-0.0233 -4.019,-0.1216 z"
       style="fill:#ffffff;stroke-width:0.24692985"
       inkscape:connector-curvature="0" />
  </g>
</svg>
