<?xml version="1.0" encoding="UTF-8" standalone="no"?>
<svg
   xmlns:dc="http://purl.org/dc/elements/1.1/"
   xmlns:cc="http://creativecommons.org/ns#"
   xmlns:rdf="http://www.w3.org/1999/02/22-rdf-syntax-ns#"
   xmlns:svg="http://www.w3.org/2000/svg"
   xmlns="http://www.w3.org/2000/svg"
   viewBox="0 0 150.00001 12.72663"
   height="12.72663"
   width="150"
   xml:space="preserve"
   id="svg2"
   version="1.1"><defs
   id="defs48" />
  
  <metadata
   id="metadata8">
    <rdf:RDF>
      <cc:Work
   rdf:about="">
        <dc:format>image/svg+xml</dc:format>
        <dc:type
   rdf:resource="http://purl.org/dc/dcmitype/StillImage" />
        <dc:title></dc:title>
      </cc:Work>
    </rdf:RDF>
  </metadata>
  
<path
   id="path1799"
   d="m 120.9591,10.567135 c -0.83576,-0.416482 -1.73833,-1.5794089 -2.22095,-2.861639 -0.62293,-1.6549333 -0.13388,-4.215269 1.05175,-5.506457 0.32994,-0.359302 0.5701,-0.497816 1.95292,-1.126341 0.86608,-0.39366196 1.0438,-0.43848796 1.73277,-0.43708596 0.42223,8.21e-4 0.82139,0.03574 0.88702,0.07743 0.18444,0.117316 0.2672,0.59019996 0.1916,1.09444596 l -0.0686,0.457371 h -0.58275 c -0.50471,0 -0.7152,0.06998 -1.57201,0.522819 -0.65451,0.345891 -1.1483,0.692819 -1.4592,1.02522 l -0.46996,0.5024008 0.0379,1.3955728 c 0.0346,1.2720037 0.0617,1.4407006 0.30717,1.9052115 0.14806,0.2803012 0.5266,0.7619123 0.84119,1.0702413 l 0.57199,0.5606114 1.51537,0.050911 c 1.80177,0.060578 1.94393,0.1279776 1.94393,0.9212602 0,0.413645 -0.0325,0.490667 -0.22933,0.543423 -0.12614,0.03379 -1.05742,0.06209 -2.06952,0.06288 -1.7692,8.92e-4 -1.86027,-0.0089 -2.36136,-0.258323 z"
   style="fill:#000000;stroke-width:0.10192805" /><path
   id="path1783"
   d="M 39.190698,12.041717 C 39.022515,11.989827 38.592107,11.880205 38.234225,11.798171 37.785493,11.695312 37.48496,11.554891 37.265903,11.345723 37.09121,11.178897 36.783741,10.9749 36.582618,10.892387 36.316242,10.783089 36.132609,10.592892 35.906225,10.191754 35.73531,9.8889152 35.52145,9.5796994 35.430973,9.5046114 35.28947,9.3871796 35.266471,9.0786467 35.266471,7.2977673 c 0,-2.0149178 0.0071,-2.0869998 0.270093,-2.6930937 0.265161,-0.6114245 0.285099,-0.6299084 1.095714,-1.0155166 1.492498,-0.709982 2.374778,-0.950965 3.323791,-0.907868 0.764219,0.03468 0.854803,0.06173 1.079191,0.322661 0.184227,0.214171 0.244965,0.404687 0.244965,0.768352 0,0.2659685 -0.05499,0.5386152 -0.122318,0.6058902 -0.08116,0.081155 -0.522588,0.1223095 -1.311996,0.1223095 h -1.189669 l -0.759003,0.4954832 c -1.109728,0.7244479 -1.20378,0.8754769 -1.20378,1.9331238 0,0.8363093 0.01659,0.8997083 0.404722,1.540659 0.534181,0.8822798 0.682026,1.0453977 1.226131,1.3527505 0.444963,0.2513518 0.526508,0.2604428 2.72733,0.3041868 l 2.268663,0.04506 0.30503,0.292222 c 0.167757,0.160723 0.305011,0.366388 0.305011,0.457016 0,0.277614 -0.638112,0.815848 -0.973165,0.820823 -0.165503,0.0027 -0.484396,0.07548 -0.708642,0.162347 -0.479288,0.185584 -2.59404,0.280682 -3.057841,0.137503 z"
   style="fill:#000000;stroke-width:0.10192805" /><path
   id="path1781"
   d="m 105.82329,10.552474 c -0.46225,-0.08807 -0.71351,-0.42192 -0.71351,-0.9480376 0,-0.7351354 0.22471,-0.885233 1.47797,-0.9872672 l 1.01928,-0.083018 V 6.2412293 3.948307 l -0.44948,-0.09482 c -0.30949,-0.06528 -0.65865,-0.05455 -1.1212,0.0345 -1.32306,0.2546414 -1.28528,0.2558032 -1.52331,-0.04683 -0.31487,-0.40027 -0.28534,-0.886112 0.0786,-1.293654 l 0.29726,-0.332871 1.68812,-0.03424 c 0.94396,-0.01916 1.88004,0.01215 2.12353,0.07104 0.23947,0.05792 0.77943,0.196769 1.19989,0.308586 0.42046,0.111818 0.97087,0.258075 1.22313,0.325021 0.25228,0.06697 0.51575,0.136874 0.58551,0.155393 0.27768,0.07371 0.54075,0.690931 0.51239,1.2022012 -0.0388,0.6991257 -0.18143,0.7620367 -1.11249,0.4904896 -0.41242,-0.1202876 -0.99067,-0.2490011 -1.28499,-0.2860309 l -0.53512,-0.067319 v 2.2555547 c 0,1.2405436 0.0121,2.2625617 0.0255,2.2711473 0.0139,0.00887 0.91991,0.043017 2.01308,0.076455 l 1.9876,0.060845 v 0.5496045 c 0,0.4842186 -0.0342,0.5751656 -0.28758,0.7644576 -0.27778,0.207536 -0.40107,0.215341 -3.61845,0.229 -1.83197,0.008 -3.44553,-0.008 -3.58568,-0.03441 z"
   style="fill:#000000;stroke-width:0.10192805" /><path
   d="m 48.165961,12.130926 c -0.308336,-0.07167 -0.835332,-0.163145 -1.17112,-0.203261 -0.841784,-0.100589 -1.203984,-0.31428 -2.101654,-1.240012 C 43.708061,9.4654794 43.681133,9.3878714 43.681133,7.1958396 v -1.833777 l 0.37077,-0.7098133 C 44.526462,3.743734 45.071783,3.023738 45.507877,2.72984 c 0.286331,-0.192946 0.48004,-0.231732 1.157366,-0.231732 0.786516,0 0.82656,0.0118 1.208356,0.356747 0.345543,0.312178 0.461698,0.356756 0.929704,0.356827 0.771802,9.7e-5 1.604377,0.431188 2.389572,1.2372175 0.853737,0.8763994 1.152133,1.6736654 1.152133,3.078347 0,1.0793682 -0.192432,1.8154526 -0.843644,3.2270255 -0.38348,0.831272 -0.380589,0.829143 -1.653594,1.218512 -0.931968,0.285055 -1.077142,0.298705 -1.681809,0.158142 z m 1.534344,-2.04071 C 49.82533,9.9789312 50.035349,9.6585494 50.166999,9.378248 50.372088,8.9416048 50.406528,8.7095976 50.407378,7.7585619 50.408316,6.3807015 50.238637,5.9716957 49.397422,5.3284653 L 48.828484,4.8934096 h -1.339837 c -1.627429,0 -1.627387,-2.65e-5 -2.019646,1.2786913 -0.35727,1.1646832 -0.30996,1.7524972 0.205398,2.5524331 0.19309,0.2996987 0.351072,0.5802749 0.351072,0.6235135 0,0.083905 1.306904,0.7685905 1.732771,0.9078415 0.140154,0.04585 0.583299,0.07282 0.984793,0.05996 0.561197,-0.01792 0.782508,-0.07007 0.95727,-0.225657 z"
   style="fill:#000000;stroke-width:0.10192805"
   id="path1775" /><path
   d="M 83.277813,11.155952 C 82.902842,11.081094 82.747403,10.793608 82.64772,9.9906832 82.59504,9.5654994 82.491999,9.1075434 82.418986,8.9729939 82.345906,8.8384442 82.252301,8.4832848 82.210856,8.1837457 82.169436,7.8842155 82.105397,7.6090052 82.068714,7.5721792 c -0.03672,-0.036808 -0.766806,-0.082397 -1.622393,-0.101298 -1.510156,-0.033349 -1.563373,-0.027406 -1.821687,0.2038555 -0.338973,0.3034328 -0.62605,1.0960692 -0.944543,2.6080173 -0.07299,0.34637 -0.702612,0.32048 -1.083626,-0.04452 -0.262048,-0.2510588 -0.285878,-0.3358508 -0.285878,-1.0172192 0,-0.4088284 0.06501,-0.9162587 0.144606,-1.1276176 0.131996,-0.3508046 0.761158,-2.3734121 0.928056,-2.9834619 0.03832,-0.1401462 0.188706,-0.4612203 0.334147,-0.7134941 0.14544,-0.2522651 0.393246,-0.7237652 0.550686,-1.0477652 0.157441,-0.323993 0.47527,-0.794136 0.706275,-1.04476 l 0.42004,-0.455677 h 0.81585 0.815852 l 0.419784,0.439011 c 0.686086,0.717521 1.675447,2.4094308 2.008213,3.4342605 0.356756,1.098668 0.704679,2.5732942 0.709396,3.0066377 0.0027,0.2243705 0.04923,0.6143515 0.10402,0.8666252 0.223022,1.0268426 0.226021,1.1657206 0.029,1.3397656 -0.209547,0.185106 -0.684134,0.288266 -1.018718,0.221444 z M 81.47265,5.7709 C 81.50591,5.684157 81.359369,5.346488 81.138185,5.0004195 80.513899,4.0236357 80.351897,3.852047 80.122595,3.92483 79.719214,4.0528517 79.17225,5.5932538 79.436384,5.8573771 c 0.03734,0.03734 0.497489,0.06794 1.022471,0.06794 0.758684,0 0.966689,-0.031664 1.013795,-0.1544348 z"
   style="fill:#000000;stroke-width:0.10192805"
   id="path1771" /><path
   id="path1755"
   d="m 113.78447,10.451815 c -0.34528,-0.08408 -0.56061,-0.349581 -0.56061,-0.6911518 0,-0.4522089 0.28428,-0.6697056 0.98785,-0.7557925 0.93272,-0.1141144 1.53936,-0.5104637 1.40916,-0.9206757 -0.0364,-0.1145579 -0.41241,-0.5181001 -0.83567,-0.8967637 -0.83517,-0.7471804 -1.25555,-1.4599473 -1.25555,-2.1288282 0,-0.4273479 0.73933,-2.0761521 0.93095,-2.0761521 0.0708,0 0.43221,-0.203607 0.80311,-0.452449 0.77634,-0.520867 1.42024,-0.714815 2.14272,-0.645394 0.69504,0.06679 0.91383,0.284612 0.91383,0.909784 0,0.271609 -0.0144,0.493842 -0.0323,0.493842 -0.41986,0 -1.31187,0.281889 -1.59574,0.504273 -0.19778,0.154958 -0.55455,0.4035954 -0.79281,0.55254 -0.28287,0.1768302 -0.43319,0.3440105 -0.43319,0.4817531 0,0.1258841 0.34396,0.5685053 0.85289,1.0975148 0.92991,0.966664 1.22446,1.4463592 1.32912,2.1647138 0.10342,0.7102393 -0.0705,1.3089187 -0.49323,1.6971165 -0.19839,0.182196 -0.45144,0.3312648 -0.56231,0.3312648 -0.11087,0 -0.43432,0.09174 -0.71877,0.203855 -0.49574,0.195403 -1.55232,0.261419 -2.08952,0.13055 z"
   style="fill:#000000;stroke-width:0.10192805" /><path
   id="path1663"
   d="m 53.44757,10.470387 c -0.09943,-0.01951 -0.271752,-0.132163 -0.382843,-0.250322 -0.192669,-0.204929 -0.203286,-0.2786068 -0.230338,-1.5976539 -0.02723,-1.3278546 -0.0196,-1.4035731 0.191428,-1.9049542 0.120874,-0.287184 0.220567,-0.6860079 0.221524,-0.886289 0.0027,-0.4683956 0.51113,-1.9412389 0.802845,-2.3236719 0.222526,-0.29177 0.232106,-0.294963 0.883193,-0.294963 h 0.658228 l 0.346638,0.531724 c 0.190649,0.2924435 0.396117,0.6274339 0.456589,0.7444131 0.0604,0.116979 0.235317,0.3599399 0.388482,0.5399278 0.153167,0.1799789 0.381725,0.5701282 0.5079,0.8669977 0.274882,0.6467693 0.43848,0.7488922 0.574324,0.3585388 0.05295,-0.1521555 0.349998,-0.7743385 0.660127,-1.3826234 0.550022,-1.078889 0.57584,-1.112761 1.053975,-1.382481 0.995613,-0.56165 1.53713,-0.253889 1.953159,1.1100558 0.121201,0.3973248 0.220354,0.7918202 0.220354,0.8766566 0,0.084881 0.128837,0.5769934 0.286305,1.0936833 0.15746,0.5166811 0.325881,1.0925656 0.374272,1.2797288 0.04843,0.1871721 0.186721,0.6082937 0.307417,0.9358335 0.267032,0.7246074 0.273631,0.8911314 0.04674,1.1795922 -0.237196,0.3015348 -0.813062,0.3190698 -1.075323,0.03273 C 61.512826,9.8010812 60.818818,7.7785977 60.815448,7.4412658 60.814509,7.3380608 60.734918,7.0813435 60.638565,6.8707827 60.542255,6.6602219 60.429644,6.2829332 60.388206,6.0323622 60.309716,5.5575095 60.1904,5.3394186 60.009161,5.3394186 c -0.112199,0 -0.467978,0.742178 -0.467978,0.9762606 0,0.075036 -0.08187,0.2969493 -0.181896,0.4930527 -0.165875,0.3251277 -0.342369,0.7892483 -0.751562,1.976247 L 58.46107,9.2103666 57.989231,9.2355556 57.517395,9.2607446 57.173003,8.7675853 C 56.983577,8.4963487 56.630885,7.8915851 56.38921,7.4236682 56.147543,6.9557516 55.86357,6.4580599 55.758165,6.317683 55.6527,6.1773064 55.445722,5.8231844 55.298098,5.5307322 55.150492,5.2382886 55.000484,4.9990085 54.964748,4.9990085 c -0.148411,0 -0.441156,1.2548323 -0.456482,1.9567431 -0.0097,0.3977238 -0.06661,0.8265264 -0.128776,0.9528716 -0.151811,0.3086748 -0.143348,1.2507346 0.01471,1.6288122 0.336727,0.8059316 0.01624,1.1217466 -0.94654,0.9328446 z"
   style="fill:#000000;stroke-width:0.10192805" /><path
   d="m 128.1425,9.6677024 c -0.66809,-0.21143 -1.21444,-0.634139 -1.59472,-1.2337673 -0.22217,-0.3503343 -0.24265,-0.4496721 -0.24265,-1.1769229 0,-0.5135768 0.0451,-0.9022362 0.12761,-1.0997146 0.0702,-0.1679873 0.12761,-0.4534063 0.12761,-0.6342721 0,-0.3298994 0.26342,-1.4536323 0.61127,-2.6077605 0.16219,-0.538075 0.23632,-0.656916 0.57443,-0.920836 0.35346,-0.27591 0.42627,-0.299459 0.81359,-0.263085 0.23395,0.022 0.69237,0.13423 1.01872,0.249453 0.48625,0.171686 0.66829,0.292257 1.00881,0.668189 0.2285,0.252291 0.51527,0.611842 0.63727,0.799013 0.12199,0.187164 0.34146,0.47723 0.48773,0.644579 0.24349,0.2786072 0.27008,0.3685701 0.31528,1.065913 0.0271,0.4189043 0.0949,0.8616319 0.15059,0.983844 0.0812,0.1780897 0.074,0.3307241 -0.0357,0.7686444 -0.0754,0.3005503 -0.13704,0.8468996 -0.13704,1.2141391 0,0.8661199 -0.23307,1.3127589 -0.82072,1.5727137 -0.56798,0.251236 -2.20413,0.235031 -3.04198,-0.03016 z m 2.04723,-1.1117325 c 0.38082,-0.1089967 0.44652,-0.36245 0.45849,-1.7688789 l 0.0108,-1.3141337 -0.26574,-0.5020286 c -0.41943,-0.7923436 -0.71814,-1.1543057 -1.16429,-1.4108277 -0.22798,-0.131082 -0.43874,-0.238642 -0.46836,-0.239023 -0.10064,-8.92e-4 -0.49914,0.9386892 -0.49914,1.1775346 0,0.1307624 -0.0586,0.4095913 -0.13012,0.6196288 -0.0976,0.2867583 -0.12421,0.6745573 -0.1063,1.5569524 l 0.0239,1.1750695 0.59553,0.3417843 c 0.80346,0.4611227 1.02393,0.5130533 1.54501,0.3639223 z"
   style="fill:#000000;stroke-width:0.10192805"
   id="path1659" /><path
   d="m 99.80174,10.502468 -0.48998,-0.223661 0.0222,-4.0497554 0.0222,-4.0497746 0.92494,-0.0243 c 0.69502,-0.01827 0.97148,0.0062 1.11214,0.09841 0.10293,0.0675 0.3464,0.170355 0.54098,0.228654 0.54287,0.162648 1.47945,1.003304 1.7725,1.5909406 l 0.24353,0.4883786 v 1.7440536 c 0,1.6439351 -0.0108,1.764533 -0.19072,2.1008715 -0.2002,0.3745393 -1.33285,1.5224939 -1.68563,1.7084247 -0.15992,0.08426 -1.70646,0.620418 -1.76831,0.613012 -0.007,-8.92e-4 -0.23409,-0.102336 -0.50359,-0.225293 z m 1.82763,-2.0913894 c 0.98504,-1.0213616 1.00196,-1.0576554 1.00196,-2.1494585 0,-1.079359 0.0121,-1.0524934 -0.84053,-1.934179 -0.42676,-0.4415301 -0.50733,-0.4891861 -0.82712,-0.4891861 -0.29553,0 -0.36283,0.03175 -0.40561,0.1914209 -0.0908,0.3384937 -0.06,4.5720869 0.0344,4.7485625 0.16901,0.3158058 0.48664,0.2033233 1.03685,-0.3671598 z"
   style="fill:#000000;stroke-width:0.10192805"
   id="path1651" /><path
   d="M 65.833315,11.021775 C 65.625291,10.853326 65.434855,10.140816 65.247008,8.8281203 65.198938,8.4924116 65.102915,8.0819243 65.033556,7.9159327 64.949476,7.7148887 64.907451,7.3182646 64.907451,6.728109 c 0,-0.595016 -0.04195,-0.986354 -0.127668,-1.1915399 -0.07025,-0.1680495 -0.127666,-0.4538852 -0.127666,-0.6351859 0,-0.1813004 -0.05694,-0.5176654 -0.126745,-0.7474463 C 64.455662,3.924147 64.39822,3.575968 64.397706,3.38021 c -9.39e-4,-0.388934 0.108988,-0.504459 0.825516,-0.86706 0.328931,-0.166462 0.493513,-0.181327 2.006509,-0.181327 1.866593,0 1.783806,-0.02891 2.19934,0.765984 0.179331,0.343008 0.200306,0.49543 0.201097,1.4601067 l 9.38e-4,1.0771064 -0.263617,0.3272207 c -0.144989,0.1799522 -0.439367,0.43651 -0.654159,0.5701283 -0.346494,0.2155365 -0.492298,0.2481408 -1.29226,0.2889667 -0.495937,0.025278 -0.91594,0.069182 -0.933343,0.097511 -0.07131,0.1159326 0.129407,1.5637289 0.248683,1.7943611 0.19056,0.3685079 0.185663,2.3448341 -0.0062,2.4183971 -0.265791,0.101963 -0.701291,0.0486 -0.89703,-0.109795 z M 67.642576,5.2142798 C 68.130858,4.9892264 68.23596,4.9022525 68.317205,4.6560721 68.428782,4.3180484 68.305755,3.912111 68.050438,3.775433 c -0.223334,-0.119542 -1.446767,-0.09811 -1.696124,0.02971 -0.149565,0.07672 -0.20781,0.1710826 -0.196083,0.3178897 0.03397,0.4256449 0.124835,1.1484165 0.157262,1.2514708 0.06244,0.198312 0.722,0.1186999 1.327083,-0.1602178 z"
   style="fill:#000000;stroke-width:0.10192805"
   id="path1549" /><path
   d="m 70.776988,11.25921 c -0.03574,-0.05792 -0.08921,-0.584258 -0.118941,-1.169792 -0.02962,-0.5855346 -0.09836,-1.1723816 -0.152714,-1.3041017 -0.06714,-0.1625504 -0.09716,-0.96889 -0.0939,-2.5097356 0.0044,-2.1586293 0.0142,-2.2888773 0.191412,-2.6495267 0.168775,-0.343425 0.238693,-0.397511 0.739401,-0.572 0.661061,-0.230375 1.087599,-0.245657 1.658978,-0.05943 1.553509,0.506339 1.582177,0.527767 1.860536,1.3908007 0.398157,1.2343969 0.261745,2.087727 -0.41643,2.6050022 -0.165849,0.1264874 -0.290633,0.262447 -0.277294,0.302129 0.03503,0.1043313 0.815314,0.6369153 1.226078,0.8368772 0.507358,0.2469876 0.967916,0.7853633 0.966292,1.1295779 -0.0027,0.3658644 -0.08461,0.4797482 -0.477675,0.6566762 -0.317526,0.1429048 -0.34135,0.1421508 -0.669544,-0.0212 C 75.02603,9.8013472 74.751017,9.6187984 74.602071,9.4888874 74.453119,9.3589871 73.949137,9.017877 73.482097,8.7308703 73.015041,8.4438638 72.586673,8.1533182 72.530157,8.0852097 c -0.154106,-0.1856996 -0.395434,-0.1497428 -0.45368,0.067585 -0.02829,0.1052804 -0.05189,0.8477245 -0.05251,1.6498685 -9.39e-4,1.2507348 -0.02032,1.4658098 -0.135739,1.5100948 -0.245515,0.09425 -1.043907,0.05579 -1.111457,-0.05357 z m 1.200755,-4.6855003 c 0.155296,-0.2370008 0.72215,-0.5690819 0.97142,-0.5690819 0.09884,0 0.260865,-0.081067 0.359919,-0.1800943 C 73.546368,5.5872402 73.493604,4.9834967 73.209045,4.6806581 73.040579,4.5013179 72.937957,4.4732637 72.45053,4.4732637 c -0.324987,0 -0.60692,0.043194 -0.665769,0.1020875 -0.126966,0.1269661 -0.144846,2.1949498 -0.01899,2.1949498 0.04577,0 0.141087,-0.088429 0.211936,-0.1965913 z"
   style="fill:#000000;stroke-width:0.10192805"
   id="path1665-8" /><path
   d="M 85.155166,10.217262 C 85.133086,10.109782 85.097786,9.6120644 85.076936,9.1112153 85.046156,8.3778537 85.003856,8.1440283 84.859288,7.9101142 84.690832,7.637547 84.679769,7.5038578 84.679769,5.7396885 V 3.859728 L 84.981366,3.311046 C 85.147234,3.009272 85.344548,2.711249 85.419821,2.648782 85.521065,2.564792 85.902008,2.5352 86.883545,2.5352 c 1.52511,0 1.643527,0.03743 2.211093,0.699649 l 0.348268,0.406327 9.39e-4,0.7903393 c 9.38e-4,0.835174 -0.104703,1.1657031 -0.563166,1.7679213 l -0.198853,0.261214 0.392961,0.2917786 c 0.216123,0.160475 0.548691,0.3971563 0.739028,0.5259585 0.190349,0.1288021 0.472238,0.3564454 0.626398,0.5058779 0.253249,0.2454444 0.280319,0.3190874 0.280319,0.7624625 0,0.5883105 -0.141176,0.7076846 -0.765975,0.6476562 -0.339905,-0.03264 -0.449965,-0.092872 -0.72374,-0.3959058 C 89.036789,8.5837225 88.666988,8.325098 88.304137,8.1504409 87.972057,7.990578 87.454124,7.7049905 87.153203,7.5158049 86.682216,7.2196984 86.417871,7.1109145 86.369027,7.19309 c -0.0071,0.011708 -0.03566,0.7295214 -0.06377,1.595171 l -0.05118,1.573892 -0.529098,0.02528 c -0.492947,0.0235 -0.531849,0.01188 -0.569314,-0.170151 z M 87.037211,5.7769223 C 87.374632,5.6089439 87.690473,5.3971856 87.739086,5.3063447 87.861351,5.0778942 87.851242,4.0818193 87.725426,3.955962 87.598823,3.829359 86.435888,3.818627 86.205486,3.941952 86.055458,4.022221 86.04092,4.1299051 86.04092,5.1613691 c 0,0.6222452 0.02723,1.1585987 0.06058,1.1918945 0.03326,0.033349 0.119453,-0.014015 0.191419,-0.1051827 0.07193,-0.091151 0.406941,-0.3031667 0.744353,-0.4711454 z"
   style="fill:#000000;stroke-width:0.10192805"
   id="path1677-2" /><path
   id="path2224-4"
   d="m 20.612682,6.6442041 c 3.021503,0.9513284 6.492846,0.7625955 9.513134,0.9908242 C 32.123128,5.6048905 26.624974,5.17568 27.472591,3.933655 c 2.153911,0.6317713 5.303276,4.7946396 1.503194,5.3501333 -1.407094,0.6629999 -2.80829,1.3818427 -4.004912,2.3889157"
   style="fill:none;stroke:#000000;stroke-width:1.56545818;stroke-linecap:round;stroke-linejoin:round;stroke-miterlimit:4;stroke-dasharray:none;stroke-opacity:1" /></svg>