<?xml version="1.0" encoding="UTF-8" standalone="no"?>
<svg
   xmlns:dc="http://purl.org/dc/elements/1.1/"
   xmlns:cc="http://creativecommons.org/ns#"
   xmlns:rdf="http://www.w3.org/1999/02/22-rdf-syntax-ns#"
   xmlns:svg="http://www.w3.org/2000/svg"
   xmlns="http://www.w3.org/2000/svg"
   id="svg5647"
   viewBox="0 0 127.529158729 26.3941552062"
   height="26.3941552062mm"
   width="127.529158729mm"
   version="1.1">
  <defs
     id="defs8" />
  <metadata
     id="metadata5644">
    <rdf:RDF>
      <cc:Work
         rdf:about="">
        <dc:format>image/svg+xml</dc:format>
        <dc:type
           rdf:resource="http://purl.org/dc/dcmitype/StillImage" />
      </cc:Work>
    </rdf:RDF>
  </metadata>
  <g
     id="g5"
     transform="matrix(1.000000,0.000000,0.000000,1.000000,331.352816,-124.072473)">
    <path
       d="m -285.84449,145.68317 c -0.3638,-0.19312 -0.92109,-0.29027 -1.23841,-0.2159 -1.10061,0.25794 -2.48301,-0.56531 -3.16875,-1.88706 -0.57566,-1.10956 -0.54153,-1.4609 0.33446,-3.44252 0.20269,-0.45858 0.36853,-1.00428 0.36853,-1.21269 0,-0.20841 0.0824,-0.46138 0.1832,-0.56213 0.2997,-0.29967 0.45165,-1.26225 0.46535,-2.9477 0.007,-0.87313 0.0935,-1.6487 0.19209,-1.7235 0.0986,-0.0748 0.23074,-0.61058 0.29377,-1.19062 0.063,-0.58005 0.45862,-1.79533 0.87913,-2.7006 0.6496,-1.39843 0.96356,-1.75467 2.08751,-2.36869 1.11945,-0.61155 1.68915,-0.73347 3.70416,-0.79271 1.30969,-0.0385 3.02086,-0.14899 3.80257,-0.24554 1.64134,-0.20267 4.22859,0.31181 4.72183,0.93893 0.45442,0.5778 0.39963,1.37477 -0.1388,2.01866 -0.73268,0.87615 -2.61498,1.41814 -5.31413,1.53014 -1.9091,0.0793 -2.53878,0.1996 -2.71783,0.51954 -0.12816,0.22902 -0.43875,0.62397 -0.69021,0.87767 -0.43331,0.4372 -0.4321,0.45178 0.0233,0.2793 0.38436,-0.1456 0.44849,-0.0817 0.32104,0.31985 -0.14753,0.46488 -0.0855,0.48035 0.8426,0.21037 2.05298,-0.59721 6.7773,-0.11202 7.51043,0.77137 0.29562,0.35618 -0.0859,1.52707 -0.60526,1.85756 -0.71353,0.45405 -4.02013,1.41806 -4.86399,1.41806 -0.48168,0 -0.94938,0.11906 -1.03931,0.26458 -0.0899,0.14553 -0.68453,0.26459 -1.3213,0.26459 -0.6368,0 -1.44579,0.10951 -1.7978,0.24333 -0.9144,0.34767 -1.72757,1.84135 -1.57358,2.8905 l 0.12515,0.85275 1.38509,-0.13139 c 0.76179,-0.0723 1.96808,-0.26477 2.68063,-0.42778 0.71255,-0.16298 1.53368,-0.34451 1.82472,-0.40338 0.29105,-0.0589 1.13581,-0.24236 1.87728,-0.40783 1.16567,-0.26011 1.44314,-0.23855 2.05052,0.15941 0.38632,0.25313 0.70241,0.56563 0.70241,0.6944 0,0.1288 0.1786,0.23415 0.39688,0.23415 0.50966,0 0.50977,0.77939 1.8e-4,1.50694 -0.81031,1.15689 -3.20341,2.12235 -4.84282,1.95376 -0.33515,-0.0344 -0.78923,0.0866 -1.00913,0.26914 -0.21989,0.18248 -1.24034,0.3689 -2.26769,0.41425 -1.02735,0.0453 -2.24012,0.18132 -2.69504,0.30216 -0.56047,0.14888 -1.04045,0.10652 -1.48863,-0.13137 z m -22.77401,2.66385 c -0.34838,-0.10075 -1.30307,-1.77315 -1.30307,-2.28266 0,-0.0842 -0.25662,-0.4413 -0.57028,-0.79344 -0.43456,-0.48786 -0.56185,-0.94974 -0.53489,-1.94071 0.0751,-2.7581 0.23014,-4.61465 0.3995,-4.78404 0.0971,-0.0971 0.17772,-0.48406 0.17923,-0.86 0.003,-0.37592 0.23061,-1.81314 0.50913,-3.19379 0.33814,-1.67613 0.41561,-2.56646 0.23308,-2.67925 -0.39796,-0.24595 0.0116,-2.33979 0.62825,-3.21098 0.38036,-0.53745 0.7384,-0.72761 1.37004,-0.72761 0.47029,0 0.98282,-0.12771 1.13892,-0.28381 0.15611,-0.15611 0.86453,-0.33319 1.57427,-0.39349 1.7757,-0.15089 2.59152,-0.26287 4.67278,-0.64127 1.59933,-0.29081 2.24132,-0.26951 4.55518,0.1511 0.14552,0.0265 0.51345,0.0618 0.81764,0.0786 1.14924,0.0634 2.42985,2.94093 1.30881,2.94093 -0.17894,0 -0.71951,0.19664 -1.20126,0.43696 -0.48173,0.24032 -1.30371,0.46828 -1.82658,0.50659 -1.9709,0.14439 -4.16197,0.43472 -5.18403,0.68689 -0.58208,0.14362 -1.23939,0.26167 -1.46069,0.26239 -0.22722,0 -0.6178,0.52223 -0.89741,1.19824 -0.41656,1.00716 -0.43667,1.23635 -0.12681,1.4455 0.45175,0.30493 2.9977,0.07 5.11937,-0.47236 1.95328,-0.49932 3.7928,-0.55316 4.57268,-0.13383 0.59336,0.31906 1.58658,1.88688 1.20018,1.8945 -0.11287,0.003 -0.0493,0.10295 0.14129,0.22381 0.25908,0.16431 0.15896,0.34425 -0.39688,0.71321 -0.40886,0.27138 -0.91982,0.52139 -1.13546,0.55552 -0.21566,0.0342 -0.43394,0.18764 -0.48508,0.34107 -0.0512,0.15346 -0.43855,0.27901 -0.86091,0.27901 -0.72331,0 -2.81053,0.42391 -3.68591,0.74858 -0.21828,0.081 -0.51593,0.16442 -0.66145,0.18545 -0.92692,0.13391 -2.42245,0.48323 -2.64584,0.61801 -0.14552,0.0878 -0.32411,0.16733 -0.39687,0.17669 -0.78462,0.10118 -1.39946,0.58809 -1.72429,1.36554 -0.52478,1.25595 -0.4944,2.02306 0.10147,2.56231 0.42092,0.38094 0.68458,0.4055 1.78593,0.16637 0.71065,-0.15431 1.47069,-0.35825 1.68897,-0.45318 0.21828,-0.095 0.69453,-0.19063 1.05833,-0.21259 0.98751,-0.0597 3.75883,-0.41556 4.3819,-0.56275 0.3797,-0.0897 0.87908,0.18537 1.64338,0.90517 l 1.09792,1.03402 -0.8853,0.96652 c -0.48691,0.5316 -1.13011,0.96652 -1.42933,0.96652 -0.29919,0 -0.624,0.12944 -0.72176,0.28763 -0.0978,0.1582 -0.40246,0.22889 -0.67709,0.15706 -0.27461,-0.0718 -0.4993,-0.0382 -0.4993,0.0747 0,0.11287 -0.61071,0.219 -1.35715,0.23582 -0.74642,0.0167 -1.49056,0.14042 -1.65365,0.27469 -0.16306,0.13428 -0.98798,0.37143 -1.83316,0.52703 -0.84516,0.15557 -1.63648,0.34454 -1.75845,0.41994 -0.31075,0.19204 -3.7597,0.38561 -4.26535,0.23937 z m 87.33234,-17.56206 c 0,-0.14552 0.0893,-0.24098 0.19844,-0.21217 0.38161,0.10081 1.39554,-0.35703 1.2636,-0.57055 -0.0732,-0.1185 0.11398,-0.28008 0.41603,-0.35906 0.74334,-0.19439 0.55507,-1.08022 -0.25403,-1.19526 -1.4887,-0.21164 -3.03183,0.78994 -2.8376,1.84174 0.0638,0.34518 0.12475,0.65736 0.13557,0.69374 0.0619,0.20809 1.07799,0.0212 1.07799,-0.19844 z m -13.85699,9.29537 c 0.93715,0.023 3.56817,-0.28678 3.83503,-0.45172 0.10768,-0.0666 0.27061,-3e-5 0.362,0.14787 0.25619,0.41452 1.53384,0.31853 2.22753,-0.16732 0.59092,-0.41392 0.61388,-0.53914 0.4486,-2.4474 -0.22905,-2.64459 -0.26252,-2.82011 -0.61939,-3.25014 -0.16722,-0.20145 -0.21738,-0.50644 -0.11152,-0.67775 0.35631,-0.57651 -0.14428,-3.22969 -0.81069,-4.29679 -0.32615,-0.5222 -1.57083,-0.47312 -3.77769,0.14899 -0.72761,0.20511 -1.68011,0.41863 -2.11667,0.47445 -0.91509,0.11708 -2.20271,0.40706 -2.77812,0.62566 -0.57113,0.21696 -0.79531,0.24895 -2.05944,0.2939 -0.88268,0.0314 -1.30702,0.21791 -1.91823,0.84318 -0.88373,0.90405 -0.99777,1.80115 -0.35385,2.78389 0.37256,0.56861 0.56081,0.63426 1.38906,0.4845 0.52694,-0.0953 1.25574,-0.32218 1.61954,-0.50419 1.35035,-0.67558 2.52323,-0.39158 4.12133,0.99796 0.66027,0.57409 0.85622,1.25579 0.36098,1.25579 -0.15412,0 -0.21326,0.10832 -0.13145,0.24072 0.26911,0.4354 -0.14131,1.02761 -1.19573,1.7254 -0.57116,0.37796 -1.03846,0.81161 -1.03846,0.96367 0,0.15205 0.13745,0.19147 0.30546,0.0876 0.18806,-0.11623 0.2337,-0.0727 0.11874,0.11335 -0.28771,0.46551 0.4223,1.08836 0.93234,0.81788 0.23675,-0.12557 0.77253,-0.21987 1.19063,-0.20955 z m 25.5103,7.74909 c -0.50289,-0.49691 -1.39586,-1.14184 -1.98437,-1.43314 -0.58849,-0.29131 -0.95907,-0.52975 -0.82347,-0.52986 0.13558,-1e-4 -0.22161,-0.41682 -0.79375,-0.92604 -0.57216,-0.50922 -1.18909,-0.92594 -1.37099,-0.92604 -0.1819,-1.1e-4 -0.33073,-0.10867 -0.33073,-0.2412 0,-0.13252 -0.56118,-0.51265 -1.24708,-0.84468 -1.17206,-0.56737 -1.77369,-0.97433 -2.60001,-1.7586 -0.49009,-0.46517 -1.3448,-0.41098 -1.97072,0.12493 -0.39728,0.34018 -0.53219,0.78068 -0.53219,1.73757 0,1.13165 -0.11287,1.38833 -0.96305,2.19017 -0.52967,0.49954 -1.14631,0.90826 -1.37028,0.90826 -0.7624,0 -2.16458,-0.63431 -2.16458,-0.97919 0,-0.18905 -0.099,-0.34372 -0.21987,-0.34372 -0.12094,0 -0.37918,-0.29766 -0.57388,-0.66146 -0.43035,-0.8041 -1.37581,-0.86926 -2.51683,-0.17341 -0.74707,0.45559 -3.01781,0.79029 -6.6113,0.97449 -0.7276,0.0373 -1.8587,0.14229 -2.51354,0.23331 -0.65484,0.091 -1.84547,0.21344 -2.64583,0.27202 -0.80037,0.0586 -2.25396,0.31048 -3.23025,0.55983 -1.66544,0.42539 -1.83692,0.42592 -2.77812,0.009 -1.54996,-0.68723 -1.79684,-0.85016 -1.79684,-1.18573 0,-0.17135 -0.13232,-0.39648 -0.29406,-0.50033 -0.41098,-0.26384 -0.94885,-3.51115 -0.64267,-3.88006 0.28866,-0.34782 -0.29255,-4.51623 -0.58846,-4.22034 -0.10703,0.10705 -0.1946,0.0325 -0.1946,-0.16574 0,-0.1982 0.30347,-0.67709 0.67437,-1.06426 0.58996,-0.61579 0.67857,-0.94877 0.70792,-2.6603 0.0185,-1.07604 -0.05,-2.47571 -0.15203,-3.11039 -0.16333,-1.01566 -0.10713,-1.22664 0.46886,-1.76046 0.35997,-0.33359 1.11009,-0.67027 1.66701,-0.74816 0.5569,-0.0779 1.3312,-0.26279 1.72069,-0.41085 0.38947,-0.14808 1.2795,-0.30287 1.97784,-0.34396 0.69834,-0.0411 1.34062,-0.17235 1.42727,-0.29167 0.40026,-0.55116 9.03296,-0.6423 9.86078,-0.10409 0.54362,0.3534 2.30463,1.01552 3.03282,1.1403 0.19312,0.0331 0.57152,-0.13901 0.84092,-0.38245 0.923,-0.83408 1.29937,-1.10406 1.53919,-1.10406 0.13205,0 0.56195,-0.25318 0.95536,-0.56263 0.62185,-0.48916 1.08436,-0.56618 3.54139,-0.58979 3.26335,-0.0313 5.09469,0.11293 4.92472,0.38794 -0.0654,0.10575 0.24045,0.27117 0.67955,0.36761 0.43911,0.0964 0.73795,0.27313 0.66408,0.39264 -0.1619,0.26196 1.28468,0.79798 2.15352,0.79798 0.34211,0 0.62199,0.0952 0.62199,0.21143 0,0.11629 0.41444,0.36129 0.92098,0.54446 0.94129,0.34039 2.31125,1.53728 2.79572,2.44256 0.22088,0.41269 0.11134,0.6636 -0.59872,1.37152 -0.47797,0.47651 -1.34528,1.0837 -1.92736,1.34927 -1.60464,0.7321 -4.19891,2.05602 -4.50583,2.29944 -0.14988,0.11887 -0.29898,0.82457 -0.33133,1.56823 -0.0572,1.31538 -0.0337,1.36261 0.8678,1.73927 0.50967,0.21294 0.92665,0.48691 0.92665,0.60881 0,0.12189 0.89297,0.86026 1.98438,1.64081 1.0914,0.78055 1.98437,1.51265 1.98437,1.6269 0,0.11424 0.15716,0.20772 0.34925,0.20772 0.19209,0 0.83609,0.41672 1.43113,0.92604 0.59503,0.50932 1.16073,0.92604 1.25714,0.92604 0.0964,0 0.34124,0.14883 0.54407,0.33073 0.94654,0.84884 1.4841,1.16335 2.06007,1.20523 0.35983,0.0262 1.50209,1.37409 1.50209,1.77253 0,0.20394 -0.13263,0.66188 -0.29472,1.01764 -0.33308,0.73101 -1.17858,0.97697 -3.24408,0.94369 -1.17374,-0.019 -1.47889,-0.14328 -2.27039,-0.92536 z m -112.45956,-5.93492 c 0,-0.14388 0.11933,-0.26162 0.26517,-0.26162 0.49138,0 2.17154,-1.97424 2.78678,-3.27457 0.6832,-1.44393 0.57205,-2.22477 -0.386,-2.71213 -0.32237,-0.16402 -0.75367,-0.53735 -0.9584,-0.82968 -0.93242,-1.33123 -2.75331,-0.91125 -3.56852,0.82306 -0.46098,0.98068 -0.52893,1.5222 -0.42442,3.38204 0.0684,1.21793 0.13439,2.23568 0.14658,2.26166 0.30068,0.64119 2.13881,1.16652 2.13881,0.61124 z m -3.83645,6.89538 c -0.60048,-0.24714 -2.06682,-2.00168 -2.15072,-2.57341 -0.0305,-0.20783 -0.26879,-0.69909 -0.52954,-1.09167 -0.6473,-0.9747 -0.63542,-0.87236 -0.7589,-6.53463 -0.1075,-4.93051 -0.1219,-5.03724 -0.74867,-5.55625 -0.71607,-0.59296 -1.23613,-1.47614 -1.23613,-2.09928 0,-1.04289 2.43443,-2.21602 3.9638,-1.91014 0.38023,0.076 0.85863,0.0349 1.0631,-0.0915 0.20449,-0.12636 0.49305,-0.15483 0.64124,-0.0633 0.14819,0.0916 0.68966,0.19952 1.20325,0.23985 0.84045,0.066 1.76858,0.22481 2.12444,0.36356 0.0728,0.0284 0.22159,0.0375 0.33073,0.0204 0.10914,-0.0172 0.19844,0.0689 0.19844,0.19138 0,0.1225 0.49966,0.3724 1.11035,0.55536 0.61068,0.18298 1.4851,0.61854 1.9432,0.96792 0.45808,0.34941 0.92353,0.63527 1.03439,0.63527 0.11084,0 0.43014,0.29062 0.70954,0.64582 0.2794,0.3552 0.76721,0.72811 1.08405,0.82865 0.66095,0.20978 1.26222,0.74826 1.26222,1.1304 0,0.1438 0.0893,0.30112 0.19844,0.34965 0.10914,0.0485 0.41251,0.47342 0.67415,0.94427 0.34846,0.62706 0.42641,1.11898 0.29136,1.83883 -0.2124,1.13231 -1.41621,3.14671 -2.21467,3.70599 -0.30009,0.21019 -0.48789,0.47562 -0.4173,0.58984 0.0706,0.11419 -0.40764,0.59256 -1.06272,1.06299 -0.65511,0.47045 -1.37941,1.14276 -1.60957,1.49405 -0.23016,0.35126 -0.56483,0.63867 -0.74371,0.63867 -0.17892,0 -1.01201,0.76314 -1.85137,1.69588 -1.20076,1.33432 -1.77038,1.75736 -2.6719,1.98437 -0.63018,0.15867 -1.18237,0.28096 -1.22706,0.27173 -0.0447,-0.009 -0.3194,-0.11478 -0.61044,-0.23455 z m 57.29732,1.11133 c -1.15007,-0.5466 -1.33795,-0.74276 -1.33795,-1.39697 0,-0.80976 0.49149,-2.10886 0.79785,-2.10886 0.10107,0 0.52242,-0.53578 0.93634,-1.19063 0.41391,-0.65484 0.84791,-1.19062 0.9644,-1.19062 0.1165,0 0.21183,-0.11377 0.21183,-0.25284 0,-0.43619 1.3617,-2.26428 1.63041,-2.18882 0.49747,0.13965 0.0955,-1.60263 -0.4377,-1.8973 -1.04992,-0.58018 -1.88973,-1.3752 -1.7849,-1.68965 0.0589,-0.17677 -0.0114,-0.32139 -0.15621,-0.32139 -0.44294,0 -0.1456,-1.34028 0.42359,-1.90947 0.38828,-0.38825 0.99979,-0.57095 2.21645,-0.66212 0.92413,-0.0693 1.85883,-0.14597 2.07711,-0.17045 0.21828,-0.0246 0.89961,-0.34028 1.51408,-0.70175 1.31307,-0.77248 1.77982,-1.97144 0.99179,-2.54768 -0.25694,-0.18788 -0.56867,-0.27884 -0.69276,-0.20216 -0.12409,0.0767 -0.22561,0.0375 -0.22561,-0.0871 0,-0.21677 -2.96482,-0.0209 -4.63021,0.3061 -2.15088,0.42216 -2.77813,0.47101 -2.77813,0.21632 0,-0.14835 -0.29421,-0.34356 -0.65381,-0.43381 -1.39536,-0.3502 -1.53207,-2.31021 -0.1987,-2.84866 1.52493,-0.61582 4.42918,-0.92872 8.83534,-0.95187 3.9502,-0.0209 4.64404,0.0371 5.04288,0.42024 1.52815,1.46814 1.803,1.83203 1.92963,2.55458 0.28567,1.63015 0.41574,2.66795 0.40653,3.2436 -0.006,0.35298 0.25588,0.75295 0.64871,0.99219 0.362,0.22045 0.95289,0.58023 1.31312,0.79952 0.57317,0.34893 0.61815,0.47948 0.36021,1.04558 -0.321,0.70456 -1.03294,1.09297 -3.66099,1.99736 -0.94589,0.3255 -1.90775,0.75587 -2.13749,0.95634 -0.22974,0.20048 -0.53004,0.36452 -0.66733,0.36452 -0.13729,0 -0.69755,0.36922 -1.24505,0.82052 -1.11414,0.91837 -2.24285,2.98434 -2.10037,3.8445 0.0868,0.52417 0.17177,0.54457 1.20359,0.28893 0.61061,-0.15126 1.40785,-0.29488 1.77165,-0.31917 0.3638,-0.0243 1.21743,-0.13663 1.89696,-0.24966 1.72982,-0.28771 3.33126,0.0358 4.0033,0.80873 0.77806,0.89484 0.85974,1.85459 0.19323,2.27084 -0.29549,0.18454 -0.53724,0.47103 -0.53724,0.63664 0,0.55261 -1.53948,0.96157 -3.17439,0.8433 -0.87347,-0.0632 -1.58811,-0.018 -1.58811,0.10047 0,0.11842 -0.23109,0.21531 -0.51356,0.21531 -0.28244,0 -0.58645,0.11796 -0.67556,0.26213 -0.0891,0.14417 -0.60214,0.24807 -1.14009,0.2309 -0.53795,-0.0172 -1.69246,0.10226 -2.56558,0.2654 -3.12018,0.58301 -4.99716,0.5357 -6.46726,-0.16301 z"
       style="fill:#000000;stroke-width:0.26458332"
       id="path6315" />
  </g>
</svg>
