<?xml version="1.0" encoding="UTF-8" standalone="no"?>
<svg
   xmlns:dc="http://purl.org/dc/elements/1.1/"
   xmlns:cc="http://creativecommons.org/ns#"
   xmlns:rdf="http://www.w3.org/1999/02/22-rdf-syntax-ns#"
   xmlns:svg="http://www.w3.org/2000/svg"
   xmlns="http://www.w3.org/2000/svg"
   version="1.1"
   id="svg2"
   xml:space="preserve"
   width="150"
   height="12.72663"
   viewBox="0 0 150.00001 12.72663"><defs
   id="defs48" />
  
  <metadata
   id="metadata8">
    <rdf:RDF>
      <cc:Work
   rdf:about="">
        <dc:format>image/svg+xml</dc:format>
        <dc:type
   rdf:resource="http://purl.org/dc/dcmitype/StillImage" />
        <dc:title></dc:title>
      </cc:Work>
    </rdf:RDF>
  </metadata>
  
<path
   id="path1787"
   d="m 46.518102,12.286305 c -0.72743,-0.23914 -1.03482,-0.441911 -1.477204,-0.974416 L 44.62729,10.814021 V 8.9545282 c 0,-1.363945 -0.04642,-1.995923 -0.174342,-2.371219 C 44.31465,6.1774206 44.28504,5.5892749 44.309711,3.7383232 l 0.0311,-2.3333209 0.630277,-0.2342286 C 45.513843,0.9690678 45.92959,0.9310489 47.96523,0.8969532 l 2.36388,-0.039587 0.357735,0.3010191 c 0.438783,0.3692106 0.463862,0.7662198 0.07133,1.1299854 -0.350688,0.3249955 -0.915362,0.4111959 -2.693614,0.4111959 -1.185848,0 -1.379152,0.027898 -1.645611,0.2375071 -0.393106,0.3092113 -0.409289,0.9985496 -0.03886,1.6533009 l 0.259353,0.4583779 2.944394,0.057295 c 2.817857,0.054832 2.95494,0.06785 3.189822,0.3028921 0.357023,0.3572893 0.351108,1.3756686 -0.0095,1.6678286 -0.310707,0.251602 -0.787266,0.263973 -1.336036,0.03467 -0.304448,-0.127213 -0.862056,-0.171725 -2.144961,-0.171252 -1.860787,7.11e-4 -2.522614,0.112013 -2.706279,0.455219 -0.132369,0.247361 -0.155838,2.400701 -0.02832,2.593552 0.355841,0.5378478 2.230884,0.7926828 3.378238,0.4591358 0.350591,-0.101917 0.994374,-0.185309 1.430635,-0.185309 0.685038,0 0.827791,0.03683 1.046904,0.270053 0.269504,0.286875 0.427644,0.959557 0.277424,1.179982 -0.04952,0.07271 -0.399507,0.247516 -0.777665,0.388457 -0.60077,0.223912 -0.955169,0.261277 -2.807564,0.296015 -1.536847,0.02883 -2.246077,-0.0017 -2.578371,-0.110931 z"
   style="fill:#000000;stroke-width:0.11459441" /><path
   id="path1785"
   d="m 67.346852,12.059865 c -0.189082,-0.05836 -0.67298,-0.181582 -1.075325,-0.273807 -0.504495,-0.115641 -0.842377,-0.273517 -1.088658,-0.50868 -0.196401,-0.18755 -0.542085,-0.4169 -0.768193,-0.509666 -0.299483,-0.122882 -0.505932,-0.336715 -0.760449,-0.7877048 -0.192153,-0.34047 -0.432589,-0.688106 -0.534313,-0.772526 -0.15909,-0.132032 -0.184939,-0.478902 -0.184939,-2.481091 0,-2.2653027 0.0081,-2.3463393 0.303654,-3.0277513 0.298112,-0.6874053 0.320527,-0.7081898 1.23188,-1.1417153 1.677959,-0.7982066 2.669882,-1.0691429 3.736828,-1.0206911 0.859186,0.039024 0.961026,0.069461 1.2133,0.362766 0.207121,0.2407825 0.275407,0.454974 0.275407,0.863834 0,0.2990143 -0.06187,0.6055443 -0.137516,0.6811767 -0.09122,0.091251 -0.587529,0.1375131 -1.475032,0.1375131 h -1.33751 l -0.853322,0.5570563 c -1.247638,0.8144699 -1.353371,0.9842633 -1.353371,2.1733481 0,0.9402305 0.01869,1.0115095 0.455011,1.7321115 0.600563,0.991919 0.766784,1.175306 1.378501,1.520851 0.500262,0.282587 0.591932,0.292813 3.066252,0.341993 l 2.550589,0.0507 0.34293,0.3285398 c 0.188604,0.180697 0.342916,0.411912 0.342916,0.51381 0,0.312112 -0.717409,0.917224 -1.0941,0.922825 -0.186076,0.0027 -0.544599,0.0849 -0.796712,0.182518 -0.538845,0.208646 -2.916386,0.31556 -3.437828,0.154593 z"
   style="fill:#000000;stroke-width:0.11459441" /><path
   d="m 104.47567,10.956295 c -0.42156,-0.0842 -0.59633,-0.407375 -0.70839,-1.3100798 -0.0593,-0.478011 -0.17508,-0.99288 -0.25717,-1.144152 -0.0821,-0.151274 -0.18739,-0.550568 -0.23399,-0.887324 -0.0465,-0.336755 -0.11856,-0.64616 -0.1598,-0.687567 -0.0413,-0.0414 -0.8621,-0.09264 -1.824,-0.113881 -1.697833,-0.03747 -1.757653,-0.03078 -2.048073,0.229188 -0.38109,0.341139 -0.70385,1.232267 -1.06192,2.932102 -0.082,0.3894158 -0.78992,0.3603118 -1.21828,-0.05009 -0.29462,-0.282256 -0.32141,-0.377587 -0.32141,-1.143624 0,-0.459634 0.0731,-1.030121 0.16258,-1.267747 0.14839,-0.394398 0.85575,-2.6683505 1.04338,-3.3542061 0.0431,-0.1575663 0.21215,-0.5185389 0.37567,-0.8021601 0.16352,-0.2836211 0.44212,-0.8137063 0.61912,-1.1779678 0.17701,-0.3642602 0.53433,-0.8928267 0.79404,-1.1745923 l 0.472243,-0.5123007 h 0.91723 0.91724 l 0.47194,0.493567 c 0.77135,0.8066806 1.88367,2.7088441 2.25778,3.8610202 0.40109,1.2352039 0.79225,2.8930768 0.79755,3.3802678 0.003,0.252254 0.0553,0.690698 0.11694,0.97432 0.25074,1.1544488 0.25412,1.3105858 0.0327,1.5062548 -0.23558,0.208108 -0.76915,0.324094 -1.14531,0.248965 z M 102.44619,4.90205 c 0.0374,-0.097531 -0.12737,-0.4771452 -0.37604,-0.8662216 -0.70186,-1.0981693 -0.884,-1.2910753 -1.1418,-1.2092544 -0.45351,0.1439337 -1.068433,1.8757569 -0.77147,2.1727074 0.042,0.042011 0.5593,0.07639 1.14953,0.07639 0.85296,0 1.08681,-0.035636 1.13978,-0.1736254 z"
   style="fill:#000000;stroke-width:0.11459441"
   id="path1773" /><path
   id="path1755"
   d="m 56.460682,12.426633 c -0.251647,-0.08974 -0.713938,-0.201696 -1.027289,-0.248692 -0.313357,-0.04694 -0.830706,-0.217678 -1.149681,-0.379322 l -0.579939,-0.293878 v -0.773437 c 0,-0.593373 0.04468,-0.7905758 0.191869,-0.8470698 0.359926,-0.13811 1.513151,-0.07404 1.949607,0.108274 0.675501,0.2822458 2.292012,0.2416378 3.058299,-0.07687 0.593865,-0.246798 0.622687,-0.279984 0.622687,-0.717158 0,-0.443192 -0.0331,-0.478874 -1.000736,-1.077853 -0.550405,-0.340711 -1.361205,-0.727535 -1.801785,-0.859621 -0.670407,-0.200978 -0.902859,-0.34779 -1.425289,-0.9001841 L 54.67418,5.7007829 V 4.6786371 c 0,-1.4657752 0.272975,-2.068628 1.252182,-2.7653982 l 0.749295,-0.533175 2.85156,-0.038035 c 2.821439,-0.037628 2.856053,-0.035054 3.275143,0.2467796 0.232969,0.1566244 0.441001,0.4056235 0.462304,0.5533291 0.04577,0.3171059 -0.333025,0.8875019 -0.819224,1.2337079 -0.322163,0.229401 -0.37651,0.2339622 -0.779753,0.065508 -0.301869,-0.126144 -0.867274,-0.1807436 -1.86263,-0.179918 -1.276588,0.0011 -1.500408,0.034246 -2.096342,0.3112866 -0.715108,0.3323865 -1.213015,0.7301334 -1.213015,0.9690086 0,0.081073 0.9689,0.6358501 2.1531,1.2327336 2.701663,1.3617479 2.694008,1.3519219 2.696956,3.4650819 l 0.0019,1.4304868 -0.576182,0.619053 c -0.835426,0.897576 -1.770417,1.312684 -2.941556,1.30596 -0.500371,-0.0026 -1.115668,-0.07864 -1.367335,-0.168497 z"
   style="fill:#000000;stroke-width:0.11459441" /><path
   id="path1737"
   d="M 83.850328,9.6408112 C 83.076412,9.1868542 82.963368,9.0582602 82.356527,7.9413962 81.870043,7.0460572 81.862182,7.0119142 81.860501,5.7864726 81.857915,3.5271134 82.30968,2.5722081 83.774439,1.7455583 84.383587,1.4017755 84.48032,1.384329 85.594637,1.4171376 l 1.176875,0.034647 0.03155,0.6671561 c 0.01733,0.3669413 -0.01435,0.7363866 -0.06916,0.8210063 -0.05534,0.084592 -0.446845,0.2148374 -0.869957,0.2893597 -0.589268,0.1038117 -0.871152,0.2288456 -1.204487,0.5343122 l -0.435156,0.398802 v 1.4629182 1.4629231 l 0.443574,0.443574 c 0.415113,0.415101 0.508517,0.449774 1.45561,0.540242 0.556632,0.05321 1.028077,0.10016 1.047673,0.104356 0.01966,0.0039 0.01966,0.403372 0,0.887063 l -0.03575,0.879435 -1.33431,0.0298 c -1.287269,0.02871 -1.356039,0.01707 -1.950771,-0.331803 z"
   style="fill:#000000;stroke-width:0.11459441" /><path
   id="path1699"
   d="M 88.943687,11.465275 C 88.555604,11.036474 88.49187,10.561705 88.486549,8.0611692 88.482649,6.1183444 88.439609,5.442552 88.296619,5.0668568 88.07314,4.4795283 87.946389,2.0622854 88.089872,1.1245556 l 0.102189,-0.6671561 h 0.847453 0.847426 l 0.06916,1.0310658 c 0.03802,0.5670794 0.189806,1.4246427 0.337285,1.9056956 0.256832,0.8377098 0.286423,0.878053 0.700923,0.9558234 0.465083,0.0873 1.650001,3.555e-4 1.872806,-0.1373606 0.151332,-0.093526 0.09934,-0.6824244 -0.130611,-1.4779848 -0.178221,-0.6165094 -0.07336,-1.2929095 0.250515,-1.6168505 0.343324,-0.3433231 1.100339,-0.3153066 1.532858,0.056713 l 0.340142,0.2925678 0.07714,2.2244397 c 0.05521,1.5983469 0.136106,2.4078729 0.286656,2.8762024 0.158611,0.4932659 0.19792,0.9422959 0.161618,1.8462149 -0.04506,1.12225 -0.06916,1.21661 -0.400115,1.561951 -0.420143,0.4385438 -0.672365,0.4604408 -1.09002,0.09461 C 93.526735,9.7476542 93.267317,8.8982112 93.080323,7.4018632 L 92.947682,6.3404643 h -1.183714 c -0.967453,0 -1.197124,0.035042 -1.257296,0.1918822 -0.154959,0.4037677 -0.07214,2.3164767 0.125329,2.8960927 0.185022,0.543003 0.184666,0.6291198 -0.0052,1.2310138 -0.112204,0.355951 -0.287509,0.730676 -0.389556,0.832723 -0.255921,0.255921 -1.052387,0.239324 -1.293346,-0.02696 z"
   style="fill:#000000;stroke-width:0.11459441" /><path
   id="path1475"
   d="M 74.950204,11.073002 C 74.366664,10.762645 73.662547,9.9458522 73.233966,9.0821022 72.969299,8.5486942 72.465805,7.1384822 72.387285,6.7106452 72.336921,6.4361751 72.182168,5.8731049 72.043399,5.4593875 71.904635,5.0456508 71.791105,4.6060272 71.791105,4.4824053 c 0,-0.1235766 -0.0589,-0.3974249 -0.130746,-0.6084827 -0.08243,-0.2417613 -0.121405,-0.5987397 -0.105571,-0.9648405 l 0.02515,-0.5810895 0.520199,-0.024891 0.520181,-0.024891 0.12763,0.4048664 c 0.07024,0.2226759 0.184835,0.5758204 0.254737,0.7847706 0.06984,0.2089631 0.185469,0.5888866 0.256813,0.8442637 0.07146,0.2553964 0.26106,0.9012612 0.421579,1.4352644 0.160538,0.5339896 0.315523,1.1132755 0.344436,1.2872815 0.02896,0.173999 0.207799,0.639936 0.397554,1.035396 0.672663,1.401877 1.939004,2.1856068 2.879444,1.782066 0.455522,-0.195438 0.804697,-0.645729 1.092659,-1.409035 l 0.268488,-0.7117 0.0039,-2.2795153 0.0039,-2.2795088 -0.257821,-0.422135 C 77.844958,1.8192168 77.625806,0.6311509 77.957078,0.2755626 c 0.438408,-0.4705598 1.020875,-0.03168 1.590896,1.1988434 l 0.347623,0.7504207 v 3.376279 3.3762795 l -0.400166,0.758974 c -0.276693,0.5247838 -0.539305,0.8861318 -0.851065,1.1710688 l -0.450899,0.412094 -1.407348,-0.0095 c -1.358619,-0.0094 -1.422191,-0.01707 -1.836342,-0.237274 z"
   style="fill:#000000;stroke:#000000;stroke-width:0.56700176;stroke-miterlimit:4;stroke-dasharray:none;stroke-opacity:1" /></svg>