<?xml version="1.0" encoding="UTF-8" standalone="no"?>
<svg
   xmlns:dc="http://purl.org/dc/elements/1.1/"
   xmlns:cc="http://creativecommons.org/ns#"
   xmlns:rdf="http://www.w3.org/1999/02/22-rdf-syntax-ns#"
   xmlns:svg="http://www.w3.org/2000/svg"
   xmlns="http://www.w3.org/2000/svg"
   viewBox="0 0 108.75642 26.722316"
   height="26.722316px"
   width="108.75642px"
   xml:space="preserve"
   id="svg2"
   version="1.1"><defs
   id="defs48" />
  
  <metadata
   id="metadata8">
    <rdf:RDF>
      <cc:Work
   rdf:about="">
        <dc:format>image/svg+xml</dc:format>
        <dc:type
   rdf:resource="http://purl.org/dc/dcmitype/StillImage" />
        <dc:title />
      </cc:Work>
    </rdf:RDF>
  </metadata>
  <g
   id="g45"
   transform="matrix(1.333333,0.000000,0.000000,-1.333333,-176.058550,642.632360)">
    <g
   transform="translate(2.1315021,9.1779443)"
   id="g3281">
      <g
   id="g48"
   transform="translate(194.3499,467.9678)">
        <path
   d="m 0,0 -0.004,-0.107 c -0.006,-0.155 -0.048,-0.313 -0.093,-0.481 0,-0.001 0,-0.002 -0.001,-0.004 L -0.649,0.329 C -1.218,1.273 -1.806,2.25 -2.364,3.222 -2.622,3.671 -2.993,3.93 -3.469,4.18 -3.652,4.275 -3.794,4.256 -3.881,4.224 -3.968,4.191 -4.086,4.114 -4.158,3.927 -4.221,3.764 -4.267,3.585 -4.29,3.41 -4.302,3.318 -4.301,3.226 -4.299,3.133 -4.298,3.059 -4.295,2.985 -4.305,2.912 -4.353,2.519 -4.424,2.12 -4.493,1.735 -4.593,1.177 -4.696,0.6 -4.734,0.016 -4.753,-0.276 -4.805,-0.576 -4.854,-0.866 -4.89,-1.073 -4.926,-1.28 -4.951,-1.488 c -0.028,-0.219 -0.028,-0.459 0,-0.734 0.018,-0.186 0.1,-0.328 0.231,-0.401 0.062,-0.034 0.131,-0.051 0.205,-0.051 0.087,0 0.181,0.024 0.277,0.071 0.332,0.164 0.371,0.487 0.399,0.723 0.069,0.593 0.141,1.186 0.213,1.779 l 0.185,1.556 c 0.034,0.296 0.067,0.591 0.106,0.887 0.005,0.038 0.014,0.075 0.025,0.117 0.077,-0.097 0.138,-0.177 0.184,-0.26 0.287,-0.521 0.622,-1.018 0.945,-1.5 0.43,-0.638 0.873,-1.298 1.202,-2.008 0.173,-0.377 0.5,-0.69 0.731,-0.893 0.227,-0.199 0.471,-0.27 0.685,-0.2 0.216,0.07 0.373,0.274 0.44,0.573 0.138,0.613 0.216,1.117 0.248,1.586 0.044,0.655 0.049,1.321 0.054,1.965 L 1.181,2.047 C 1.182,2.156 1.18,2.264 1.177,2.372 1.168,2.736 1.159,3.081 1.295,3.404 1.335,3.496 1.336,3.592 1.333,3.674 1.326,3.944 1.211,4.071 1.116,4.131 1.022,4.189 0.861,4.236 0.622,4.127 0.205,3.938 0.109,3.629 0.104,3.405 0.101,3.322 0.104,3.238 0.107,3.155 0.11,3.103 0.112,3.052 0.113,3 0.115,2.828 0.124,2.656 0.133,2.484 0.153,2.084 0.173,1.708 0.11,1.343 0.034,0.888 0.017,0.437 0,0"
   style="fill:#231f20;fill-opacity:1;fill-rule:nonzero;stroke:none"
   id="path50" />
      </g>
      <g
   id="g52"
   transform="translate(142.2054,470.4512)">
        <path
   d="M 0,0 -0.143,0.024 C -0.502,0.085 -0.709,0.095 -0.854,-0.015 -0.975,-0.104 -1.006,-0.247 -1.02,-0.361 -1.082,-0.874 -1.132,-1.372 -1.17,-1.841 -1.186,-2.047 -1.195,-2.254 -1.205,-2.46 -1.22,-2.76 -1.234,-3.069 -1.27,-3.368 -1.295,-3.592 -1.353,-3.814 -1.418,-4.071 -1.419,-4.073 -1.419,-4.074 -1.419,-4.076 l -0.254,0.452 c -0.151,0.271 -0.302,0.541 -0.458,0.809 -0.208,0.357 -0.464,0.683 -0.712,0.999 -0.408,0.518 -0.793,1.008 -0.985,1.628 -0.056,0.178 -0.207,0.385 -0.609,0.385 -0.017,0 -0.034,0 -0.05,-0.001 -0.346,-0.014 -0.552,-0.163 -0.616,-0.444 l -0.044,-0.189 c -0.056,-0.232 -0.114,-0.471 -0.119,-0.716 -0.008,-0.457 0.007,-0.92 0.022,-1.368 l 0.03,-1.208 c 0.011,-0.521 0.023,-1.042 0.044,-1.563 0.009,-0.219 0.028,-0.409 0.17,-0.52 0.152,-0.119 0.368,-0.086 0.655,-0.027 l 0.125,0.026 0.014,0.127 c 0.014,0.128 0.031,0.258 0.048,0.39 0.04,0.301 0.08,0.612 0.085,0.927 0.008,0.46 -0.007,0.925 -0.022,1.375 -0.008,0.241 -0.014,0.48 -0.019,0.721 l -0.003,0.067 c -0.003,0.06 -0.006,0.102 0.004,0.134 l 0.079,-0.094 c 0.153,-0.183 0.306,-0.365 0.452,-0.554 0.533,-0.687 0.942,-1.474 1.338,-2.236 l 0.066,-0.127 c 0.153,-0.293 0.326,-0.538 0.515,-0.727 0.164,-0.165 0.326,-0.206 0.446,-0.206 0.021,0 0.039,0.001 0.057,0.003 0.183,0.02 0.352,0.138 0.475,0.331 0.066,0.103 0.156,0.258 0.185,0.424 0.073,0.4 0.128,0.803 0.179,1.183 0.051,0.409 0.098,0.819 0.144,1.228 l 0.017,0.151 c 0.04,0.361 0.08,0.722 0.111,1.085 0.028,0.347 0.045,0.694 0.061,1.043 0.004,0.101 0,0.203 -0.004,0.3 z"
   style="fill:#231f20;fill-opacity:1;fill-rule:nonzero;stroke:none"
   id="path54" />
      </g>
      <g
   id="g56"
   transform="translate(165.9867,468.2515)">
        <path
   d="m 0,0 c -0.039,-0.331 -0.105,-0.665 -0.196,-0.993 -0.244,-0.878 -0.7,-1.347 -1.43,-1.479 L -1.869,-2.517 C -2.092,-2.558 -2.314,-2.6 -2.54,-2.625 c -0.049,-0.007 -0.117,0.012 -0.196,0.032 -0.004,10e-4 -0.009,0.002 -0.014,0.003 0,0.235 -0.011,0.466 -0.021,0.695 -0.024,0.513 -0.045,0.998 0.044,1.489 0.073,0.396 0.043,0.805 0.015,1.201 l -0.006,0.081 c -0.019,0.283 0.059,0.551 0.141,0.833 0.028,0.097 0.056,0.195 0.082,0.295 0.863,-0.108 1.549,-0.465 2.11,-0.805 C 0.025,0.951 0.066,0.556 0,0 M 1.077,0.717 C 1.088,1.404 0.754,1.942 0.136,2.234 -0.512,2.54 -1.215,2.82 -1.955,3.067 -2.2,3.148 -2.463,3.136 -2.713,3.127 -2.791,3.124 -2.868,3.121 -2.944,3.121 -3.073,3.12 -3.252,3.024 -3.302,2.889 -3.331,2.814 -3.361,2.739 -3.393,2.664 -3.501,2.397 -3.613,2.121 -3.649,1.829 -3.701,1.406 -3.716,0.976 -3.73,0.559 -3.738,0.353 -3.745,0.147 -3.757,-0.059 c -0.009,-0.167 -0.022,-0.344 -0.061,-0.508 -0.116,-0.5 -0.113,-1.005 -0.109,-1.493 0.002,-0.359 0.005,-0.731 -0.043,-1.088 -0.039,-0.301 0.153,-0.53 0.499,-0.599 0.079,-0.015 0.16,-0.019 0.242,-0.022 0.04,-0.002 0.081,-0.003 0.12,-0.007 0.09,-0.008 0.18,-0.012 0.269,-0.012 0.404,0 0.794,0.079 1.173,0.156 0.218,0.044 0.436,0.089 0.656,0.117 0.245,0.033 0.528,0.161 0.753,0.345 0.538,0.44 0.899,0.975 1.07,1.59 0.156,0.563 0.311,1.244 0.271,2.027 L 1.081,0.5 C 1.079,0.556 1.076,0.637 1.077,0.717"
   style="fill:#231f20;fill-opacity:1;fill-rule:nonzero;stroke:none"
   id="path58" />
      </g>
      <g
   id="g60"
   transform="translate(199.8372,470.457)">
        <path
   d="M 0,0 C 0.169,0.266 0.338,0.533 0.5,0.804 0.659,1.07 0.894,1.203 1.217,1.208 1.304,1.209 1.391,1.214 1.479,1.219 1.841,1.239 2.156,1.257 2.445,1.034 2.551,0.952 2.678,0.917 2.812,0.939 2.968,0.963 3.116,1.062 3.219,1.21 3.321,1.358 3.435,1.653 3.048,1.96 2.807,2.151 2.472,2.369 2.018,2.336 L 1.885,2.326 C 1.63,2.306 1.388,2.289 1.156,2.315 0.459,2.395 0.036,1.993 -0.347,1.576 -0.473,1.439 -0.574,1.287 -0.673,1.14 -0.714,1.078 -0.756,1.016 -0.799,0.956 c -0.62,-0.871 -0.868,-1.733 -0.757,-2.638 0.028,-0.229 0.034,-0.48 0.019,-0.765 -0.035,-0.653 0.251,-1.12 0.876,-1.429 0.876,-0.432 1.761,-0.49 2.827,-0.52 0.015,0 0.03,0 0.045,0 0.895,0 1.677,0.76 1.784,1.458 0.051,0.33 0.073,0.688 0.066,1.065 -0.011,0.563 -0.226,0.776 -0.79,0.776 -0.01,0 -0.02,0 -0.031,0 C 2.576,-1.106 1.912,-1.125 1.248,-1.146 1.15,-1.148 1.054,-1.164 0.961,-1.18 L 0.727,-1.215 0.707,-1.344 C 0.664,-1.628 0.646,-1.81 0.759,-1.94 0.862,-2.062 1.028,-2.072 1.219,-2.072 1.425,-2.08 1.648,-2.066 1.863,-2.06 2.11,-2.052 2.354,-2.044 2.61,-2.048 2.71,-2.05 2.843,-2.069 2.913,-2.15 2.981,-2.23 2.979,-2.36 2.967,-2.454 2.902,-2.896 2.517,-3.261 2.048,-3.321 c -0.759,-0.098 -1.439,0.157 -2.182,0.436 -0.24,0.09 -0.349,0.257 -0.343,0.527 0.01,0.368 0,0.759 -0.027,1.16 -0.017,0.241 0.043,0.463 0.188,0.697 C -0.212,-0.333 -0.106,-0.167 0,0"
   style="fill:#231f20;fill-opacity:1;fill-rule:nonzero;stroke:none"
   id="path62" />
      </g>
      <g
   id="g64"
   transform="translate(159.5511,466.5122)">
        <path
   d="m 0,0 c -0.398,-0.806 -0.736,-0.982 -1.5,-0.787 -0.057,0.015 -0.114,0.027 -0.171,0.038 l -0.078,0.016 c -0.798,0.17 -1.157,0.672 -1.04,1.453 0.133,0.891 0.372,1.624 0.73,2.242 0.074,0.126 0.187,0.304 0.323,0.39 0.114,0.072 0.252,0.112 0.337,0.112 0.02,0 0.039,-0.003 0.051,-0.007 C -0.945,3.301 -0.523,3.09 -0.093,2.832 0.195,2.658 0.332,2.378 0.301,2.023 0.294,1.943 0.298,1.862 0.302,1.758 0.305,1.706 0.307,1.647 0.309,1.579 L 0.312,1.55 C 0.414,0.994 0.199,0.4 0,0 M 0.818,3.596 C 0.613,3.818 0.364,3.964 0.123,4.105 -0.146,4.263 -0.398,4.412 -0.571,4.652 -0.637,4.744 -0.752,4.757 -0.801,4.758 L -0.899,4.761 C -1.415,4.775 -1.997,4.792 -2.459,4.306 -2.975,3.764 -3.331,3.18 -3.548,2.52 -3.729,1.971 -3.789,1.375 -3.738,0.644 L -3.73,0.313 c 0.003,-0.188 0.008,-0.375 0.014,-0.561 0.019,-0.584 0.312,-1.03 0.849,-1.291 0.618,-0.299 1.299,-0.38 1.888,-0.433 0.039,-0.004 0.079,-0.006 0.118,-0.006 0.921,0 1.791,0.949 1.979,1.621 C 1.394,0.625 1.482,1.528 1.392,2.404 1.347,2.837 1.159,3.227 0.818,3.596"
   style="fill:#231f20;fill-opacity:1;fill-rule:nonzero;stroke:none"
   id="path66" />
      </g>
      <g
   id="g68"
   transform="translate(151.1742,468.8408)">
        <path
   d="m 0,0 0.014,0.112 c 0.024,0.2 0.048,0.407 0.092,0.602 0.016,0.07 0.081,0.162 0.135,0.19 0.202,0.105 0.407,0.142 0.596,0.142 0.181,0 0.345,-0.033 0.477,-0.074 C 1.464,0.927 1.548,0.762 1.565,0.481 1.571,0.392 1.558,0.319 1.336,0.268 0.887,0.164 0.433,0.077 0,0 m 1.347,-0.896 c 0.202,0.05 0.41,0.103 0.612,0.175 0.562,0.201 0.627,0.604 0.583,0.906 C 2.512,0.393 2.516,0.609 2.522,0.849 2.547,1.598 2.042,2.11 1.235,2.154 0.981,2.167 0.725,2.154 0.478,2.141 L 0.421,2.138 C -0.392,2.094 -0.962,1.561 -1.065,0.744 L -1.152,0.041 C -1.22,-0.509 -1.287,-1.06 -1.367,-1.608 -1.42,-1.968 -1.488,-2.326 -1.556,-2.684 -1.592,-2.875 -1.628,-3.066 -1.661,-3.257 l -0.017,-0.076 c -0.026,-0.107 -0.057,-0.241 -0.004,-0.364 0.046,-0.104 0.177,-0.356 0.394,-0.438 0.027,-0.011 0.056,-0.015 0.085,-0.015 0.18,0 0.383,0.177 0.459,0.287 0.114,0.163 0.198,0.373 0.229,0.575 0.081,0.535 0.152,1.071 0.222,1.605 l 0.035,0.268 c 0.193,-0.264 0.435,-0.471 0.672,-0.674 0.113,-0.097 0.227,-0.193 0.334,-0.296 L 0.9,-2.532 c 0.357,-0.343 0.712,-0.686 1.104,-1.05 0.129,-0.12 0.274,-0.257 0.459,-0.291 0.218,-0.04 0.535,-0.032 0.699,0.126 0.085,0.081 0.13,0.183 0.129,0.293 C 3.29,-3.3 3.2,-3.141 3.025,-2.98 2.63,-2.617 2.228,-2.263 1.825,-1.908 l -0.544,0.48 c -0.045,0.04 -0.092,0.078 -0.138,0.117 -0.11,0.088 -0.214,0.173 -0.292,0.284 l 0.236,0.064 c 0.086,0.024 0.173,0.045 0.26,0.067"
   style="fill:#231f20;fill-opacity:1;fill-rule:nonzero;stroke:none"
   id="path70" />
      </g>
      <g
   id="g72"
   transform="translate(171.4994,465.6138)">
        <path
   d="M 0,0 -0.048,-0.001 H -0.09 c -0.472,0 -0.669,0.145 -0.773,0.562 -0.134,0.525 -0.202,1.071 -0.247,1.487 -0.029,0.265 -0.031,0.541 -0.032,0.808 0,0.124 -0.001,0.248 -0.004,0.371 L -1.154,3.601 C -1.162,3.974 -1.171,4.347 -1.183,4.72 L -1.184,4.787 C -1.186,4.911 -1.187,5.05 -1.246,5.18 -1.317,5.332 -1.471,5.469 -1.62,5.513 -1.683,5.532 -1.75,5.52 -1.822,5.479 -1.901,5.435 -2.032,5.323 -2.067,5.194 L -2.104,5.055 C -2.188,4.746 -2.274,4.425 -2.286,4.096 -2.301,3.653 -2.285,3.205 -2.27,2.772 -2.263,2.563 -2.255,2.355 -2.251,2.147 -2.239,1.587 -2.098,1.055 -1.96,0.54 c 0.041,-0.153 0.082,-0.307 0.119,-0.461 0.041,-0.171 0.131,-0.354 0.265,-0.547 0.283,-0.403 0.658,-0.608 1.115,-0.608 0.014,0 0.028,0.001 0.043,0.001 0.364,0.011 0.729,0.019 1.093,0.027 0.418,0.009 0.752,0.192 1.05,0.576 0.503,0.649 0.543,1.395 0.581,2.117 L 2.32,1.899 C 2.365,2.608 2.332,3.33 2.3,4.027 2.288,4.285 2.275,4.542 2.268,4.799 2.261,5.024 2.224,5.204 2.152,5.349 2.079,5.499 1.882,5.661 1.704,5.661 1.532,5.661 1.312,5.513 1.242,5.35 1.173,5.187 1.142,4.99 1.146,4.748 1.151,4.375 1.161,4.001 1.171,3.628 1.187,3.057 1.202,2.486 1.202,1.916 1.201,1.551 1.153,1.177 1.063,0.833 0.862,0.048 0.822,0.018 0,0"
   style="fill:#231f20;fill-opacity:1;fill-rule:nonzero;stroke:none"
   id="path74" />
      </g>
      <g
   id="g76"
   transform="translate(133.7445,469.4233)">
        <path
   d="M 0,0 C 0.319,0.011 0.558,0.043 0.771,0.104 0.932,0.15 1.157,0.378 1.133,0.574 1.106,0.773 0.936,0.959 0.788,1.033 0.614,1.121 0.408,1.129 0.229,1.13 -0.8,1.136 -1.832,1.134 -2.858,1.135 L -3.244,1.134 c -0.308,0 -0.511,-0.154 -0.571,-0.432 -0.064,-0.288 0.052,-0.495 0.345,-0.615 0.313,-0.128 0.625,-0.148 0.931,-0.148 0.141,0 0.282,0.004 0.425,0.004 0.011,0.001 0.019,0.005 0.037,0 0.064,0 0.132,0.008 0.197,0.016 0.044,0.006 0.11,0.014 0.151,0.013 -0.009,-0.112 -0.018,-0.219 -0.027,-0.323 -0.022,-0.275 -0.045,-0.535 -0.043,-0.795 0.004,-0.668 0.024,-1.336 0.042,-2.004 l 0.013,-0.434 C -1.73,-4.081 -1.73,-4.081 -2,-4.152 l -0.169,-0.045 c -0.176,-0.05 -0.324,-0.11 -0.451,-0.181 -0.295,-0.166 -0.414,-0.462 -0.29,-0.721 0.109,-0.229 0.474,-0.285 0.547,-0.294 0.02,-0.002 0.04,-0.003 0.06,-0.003 0.102,0 0.198,0.03 0.283,0.057 0.046,0.014 0.093,0.029 0.138,0.037 0.043,0.007 0.088,0.017 0.133,0.027 0.095,0.021 0.2,0.045 0.26,0.025 0.429,-0.149 0.802,-0.053 1.079,0.047 0.115,0.042 0.256,0.045 0.405,0.049 l 0.134,0.004 c 0.128,0.006 0.257,0.008 0.386,0.011 0.217,0.003 0.443,0.007 0.666,0.031 0.248,0.027 0.381,0.143 0.447,0.235 0.097,0.134 0.126,0.306 0.085,0.497 C 1.679,-4.214 1.612,-4.104 1.508,-4.039 1.351,-3.94 1.15,-3.97 0.976,-4.014 0.489,-4.134 -0.02,-4.153 -0.577,-4.067 l -0.005,0.045 c -0.013,0.124 -0.025,0.242 -0.028,0.361 -0.021,0.78 -0.039,1.56 -0.058,2.34 l -0.015,0.592 C -0.699,-0.024 -0.699,-0.024 0,0"
   style="fill:#231f20;fill-opacity:1;fill-rule:nonzero;stroke:none"
   id="path78" />
      </g>
      <g
   id="g80"
   transform="translate(182.9691,470.6372)">
        <path
   d="M 0,0 0.926,0.211 C 0.935,0.189 0.941,0.174 0.944,0.165 0.982,-1.241 1.021,-2.647 1.045,-4.054 1.046,-4.12 1.015,-4.199 0.982,-4.277 l -0.785,0.03 c -0.188,0.008 -0.313,-0.04 -0.405,-0.138 -0.094,-0.1 -0.132,-0.242 -0.112,-0.422 l 0.056,-0.49 0.141,-0.013 c 0.086,-0.008 0.172,-0.014 0.256,-0.019 0.179,-0.011 0.346,-0.023 0.508,-0.056 0.36,-0.074 0.721,-0.098 1.08,-0.098 0.298,0 0.593,0.016 0.884,0.032 0.287,0.015 0.581,0.032 0.87,0.032 0.027,-0.001 0.062,10e-4 0.082,0 0.348,0 0.527,0.179 0.533,0.533 0.006,0.335 -0.186,0.549 -0.512,0.571 C 3.407,-4.304 3.234,-4.307 3.06,-4.31 L 2.967,-4.312 C 2.738,-4.315 2.51,-4.321 2.294,-4.327 L 2.175,-4.33 v 0.001 L 2.158,-3.554 C 2.134,-2.398 2.109,-1.242 2.094,-0.086 2.09,0.209 2.09,0.209 2.43,0.222 2.729,0.233 3.028,0.239 3.323,0.246 L 3.836,0.257 3.858,0.401 C 3.903,0.689 3.924,0.888 3.811,1.026 3.708,1.15 3.547,1.167 3.363,1.175 3.267,1.18 3.17,1.176 3.073,1.172 L 2.179,1.149 C 1.41,1.13 0.642,1.112 -0.127,1.096 -0.302,1.092 -0.665,1.085 -0.74,0.661 -0.792,0.362 -0.694,0.196 -0.604,0.11 -0.507,0.019 -0.324,-0.074 0,0"
   style="fill:#231f20;fill-opacity:1;fill-rule:nonzero;stroke:none"
   id="path82" />
      </g>
      <g
   id="g84"
   transform="translate(179.3089,466.1602)">
        <path
   d="m 0,0 c -0.501,-0.038 -0.96,0.084 -1.452,0.214 l -0.15,0.039 c -0.288,0.074 -0.495,0.26 -0.528,0.473 -0.082,0.53 -0.088,1.009 -0.016,1.426 0.127,0.755 0.559,1.428 1.357,2.117 0.221,0.19 0.483,0.28 0.751,0.284 C 0.07,4.547 0.169,4.555 0.28,4.559 L 0.588,4.567 0.607,4.716 C 0.648,5.031 0.647,5.258 0.521,5.416 0.405,5.558 0.222,5.601 -0.019,5.621 -0.794,5.684 -1.368,5.444 -1.794,4.888 -1.861,4.801 -1.94,4.723 -2.02,4.644 -2.093,4.572 -2.165,4.5 -2.23,4.422 -2.664,3.908 -2.97,3.37 -3.164,2.775 -3.311,2.329 -3.293,1.888 -3.275,1.46 -3.267,1.258 -3.259,1.055 -3.269,0.853 -3.31,0.031 -2.597,-0.679 -1.905,-0.827 l 0.051,-0.011 c 0.171,-0.037 0.343,-0.073 0.509,-0.126 0.413,-0.133 0.83,-0.169 1.242,-0.169 0.25,0 0.499,0.013 0.744,0.026 l 0.297,0.015 c 0.227,0.01 0.404,0.109 0.486,0.27 0.077,0.153 0.055,0.338 -0.059,0.508 C 1.27,-0.174 1.09,-0.061 0.927,-0.041 0.551,0.008 0.265,0.021 0,0"
   style="fill:#231f20;fill-opacity:1;fill-rule:nonzero;stroke:none"
   id="path86" />
      </g>
      <g
   id="g88"
   transform="translate(148.6126,470.5054)">
        <path
   d="M 0,0 C -0.246,0.082 -0.514,0.142 -0.796,0.178 -0.906,0.192 -1.02,0.189 -1.132,0.184 -1.271,0.179 -1.398,0.175 -1.5,0.209 -1.865,0.333 -2.224,0.352 -2.638,0.342 -2.754,0.336 -2.879,0.347 -3.001,0.355 L -4.404,0.429 C -4.561,0.437 -4.695,0.397 -4.787,0.312 -4.847,0.257 -4.918,0.156 -4.922,-0.015 c -0.01,-0.313 0.154,-0.538 0.427,-0.588 0.133,-0.025 0.262,-0.022 0.391,-0.021 0.06,0.001 0.12,0.002 0.179,0 0.18,-0.007 0.36,-0.016 0.555,-0.025 l 0.153,-0.007 c -0.007,-0.218 -0.014,-0.432 -0.022,-0.644 -0.023,-0.614 -0.044,-1.194 -0.016,-1.782 0.019,-0.379 -0.05,-0.75 -0.122,-1.142 -0.082,-0.44 -0.166,-0.895 -0.121,-1.377 l 0.015,-0.163 0.933,0.023 0.033,0.127 c 0.021,0.077 0.044,0.153 0.068,0.227 0.052,0.171 0.106,0.346 0.123,0.53 l 0.026,0.265 c 0.047,0.457 0.095,0.93 0.051,1.395 -0.037,0.402 0.024,0.806 0.084,1.198 0.058,0.374 0.116,0.761 0.092,1.152 0.096,0.068 0.196,0.067 0.362,0.037 0.494,-0.089 0.997,-0.154 1.431,-0.209 0.296,-0.03 0.596,0.171 0.65,0.443 C 0.423,-0.314 0.281,-0.093 0,0"
   style="fill:#231f20;fill-opacity:1;fill-rule:nonzero;stroke:none"
   id="path90" />
      </g>
      <g
   id="g92"
   transform="translate(178.4749,456.3652)">
        <path
   d="m 0,0 c -0.06,0.091 -0.115,0.177 -0.161,0.268 -0.237,0.468 -0.473,0.937 -0.707,1.406 -0.189,0.375 -0.376,0.751 -0.57,1.135 -0.268,0.529 -0.545,1.076 -1.085,1.478 -0.33,0.246 -0.647,0.431 -1.209,0.194 L -3.828,4.441 -3.839,4.339 C -3.854,4.198 -3.872,4.056 -3.89,3.912 -3.931,3.576 -3.974,3.228 -3.992,2.879 -4.028,2.177 -4.056,1.474 -4.083,0.771 -4.1,0.351 -4.115,-0.07 -4.134,-0.492 c -0.002,-0.037 -0.014,-0.084 -0.029,-0.134 -0.012,-0.043 -0.024,-0.086 -0.035,-0.151 -0.075,-0.415 -0.151,-0.829 -0.221,-1.244 -0.046,-0.273 0.08,-0.485 0.347,-0.58 0.074,-0.026 0.145,-0.039 0.213,-0.039 0.205,0 0.374,0.121 0.469,0.36 0.08,0.198 0.163,0.404 0.183,0.625 0.042,0.463 0.07,0.928 0.099,1.392 0.014,0.245 0.029,0.491 0.046,0.736 0.003,0.045 0.015,0.089 0.025,0.132 0.012,0.05 0.023,0.099 0.03,0.149 l 0.026,0.19 c 0.031,0.234 0.062,0.468 0.079,0.702 0.011,0.165 0.009,0.331 0.006,0.497 0,0.086 -10e-4,0.173 0,0.259 10e-4,0.145 0.03,0.173 0.041,0.175 0.084,0.008 0.226,-0.04 0.326,-0.113 C -2.497,2.44 -2.463,2.36 -2.435,2.296 -2.419,2.259 -2.403,2.222 -2.386,2.188 L -1.92,1.259 c 0.388,-0.772 0.774,-1.545 1.176,-2.311 0.153,-0.291 0.366,-0.554 0.599,-0.74 0.217,-0.174 0.447,-0.229 0.645,-0.147 0.206,0.082 0.347,0.299 0.387,0.595 0.01,0.076 0.027,0.151 0.044,0.226 0.011,0.052 0.022,0.103 0.032,0.154 0.024,0.129 0.056,0.258 0.086,0.387 0.069,0.292 0.14,0.595 0.148,0.904 0.017,0.67 0.009,1.349 10e-4,2.007 -0.006,0.41 -0.011,0.819 -0.01,1.229 0.001,0.245 0.039,0.5 0.075,0.748 L 1.271,4.373 C 1.293,4.516 1.356,4.949 0.871,5.061 0.673,5.106 0.491,5.082 0.349,4.985 0.216,4.897 0.13,4.757 0.1,4.581 0.08,4.468 0.083,4.358 0.085,4.252 L 0.087,4.154 0.086,0.452 C 0.085,0.278 0.085,0.131 0,0"
   style="fill:#231f20;fill-opacity:1;fill-rule:nonzero;stroke:none"
   id="path94" />
      </g>
      <g
   id="g96"
   transform="translate(168.7318,457.4292)">
        <path
   d="m 0,0 c -0.117,-0.007 -0.235,-0.01 -0.359,-0.01 -0.135,0 -0.278,0.002 -0.436,0.005 0.012,0.05 0.023,0.1 0.033,0.149 0.079,0.355 0.149,0.671 0.347,0.986 0.011,-0.023 0.022,-0.044 0.034,-0.065 0.063,-0.11 0.128,-0.218 0.193,-0.327 C -0.085,0.565 0.019,0.392 0.111,0.214 0.167,0.106 0.164,0.054 0.158,0.044 0.153,0.035 0.113,0.007 0,0 M 0.164,2.532 C 0.029,2.804 -0.163,2.93 -0.433,2.909 -0.722,2.885 -0.794,2.658 -0.838,2.523 L -0.851,2.482 C -0.887,2.379 -0.921,2.34 -0.93,2.333 -1.341,2.094 -1.485,1.691 -1.588,1.333 -1.725,0.86 -1.846,0.383 -1.967,-0.095 -2.045,-0.403 -2.124,-0.712 -2.206,-1.02 -2.358,-1.584 -2.52,-2.146 -2.682,-2.708 l -0.074,-0.26 c -0.022,-0.077 -0.049,-0.154 -0.074,-0.231 -0.045,-0.13 -0.089,-0.261 -0.117,-0.396 -0.062,-0.308 0.076,-0.542 0.368,-0.624 0.329,-0.094 0.573,0.025 0.683,0.333 0.044,0.119 0.089,0.237 0.135,0.355 0.091,0.235 0.185,0.478 0.259,0.726 0.091,0.304 0.168,0.612 0.246,0.919 0.048,0.191 0.096,0.382 0.148,0.572 0.078,0.282 0.109,0.276 0.279,0.262 l 0.235,-0.023 c 0.3,-0.031 0.608,-0.062 0.919,-0.055 0.32,0.004 0.504,-0.098 0.606,-0.367 l 0.248,-0.647 c 0.224,-0.586 0.449,-1.171 0.663,-1.782 0.123,-0.35 0.211,-0.475 0.469,-0.475 0.1,0 0.227,0.019 0.392,0.051 l 0.094,0.018 0.035,0.09 C 2.958,-3.919 2.953,-3.594 2.815,-3.218 2.7,-2.899 2.578,-2.583 2.456,-2.268 2.34,-1.966 2.224,-1.666 2.113,-1.362 2.046,-1.178 1.982,-0.983 1.991,-0.812 2.007,-0.499 1.965,-0.154 1.538,0.038 1.493,0.059 1.43,0.171 1.374,0.269 1.102,0.74 0.832,1.213 0.573,1.692 0.48,1.863 0.397,2.04 0.314,2.217 0.265,2.322 0.215,2.428 0.164,2.532"
   style="fill:#231f20;fill-opacity:1;fill-rule:nonzero;stroke:none"
   id="path98" />
      </g>
      <g
   id="g100"
   transform="translate(197.7142,459.624)">
        <path
   d="M 0,0 C 0.194,-0.059 0.395,-0.119 0.569,-0.211 0.672,-0.265 0.732,-0.341 0.736,-0.418 0.74,-0.491 0.695,-0.562 0.61,-0.62 0.197,-0.899 -0.289,-1.009 -0.711,-1.08 c -0.037,-0.005 -0.055,0 -0.059,0.002 -0.006,0.006 -0.021,0.032 -0.024,0.089 l -0.015,0.308 c 0.006,0.414 0.059,0.644 0.166,0.723 C -0.545,0.116 -0.338,0.102 0,0 M 0.852,-3.012 C 0.858,-3.057 0.817,-3.098 0.792,-3.118 l -0.08,-0.068 c -0.379,-0.316 -0.753,-0.626 -1.232,-0.607 -0.271,0.004 -0.271,0.004 -0.28,0.256 -0.009,0.276 -0.007,0.553 -0.005,0.863 l 0.001,0.265 c 0.024,-0.004 0.046,-0.007 0.068,-0.01 0.149,-0.022 0.266,-0.04 0.371,-0.074 0.397,-0.127 0.753,-0.244 1.097,-0.399 0.069,-0.031 0.115,-0.077 0.12,-0.12 M -1.72,0.443 c -0.034,-0.16 -0.034,-0.32 -0.033,-0.476 v -0.054 c -0.003,-1.291 -0.002,-2.583 -0.001,-3.874 0,-0.15 0.001,-0.299 0.003,-0.449 0.004,-0.288 0.169,-0.46 0.464,-0.483 0.159,-0.012 0.311,-0.019 0.459,-0.019 0.907,0 1.608,0.24 2.182,0.739 0.192,0.168 0.427,0.397 0.536,0.677 0.275,0.719 0.093,1.277 -0.514,1.572 -0.104,0.049 -0.203,0.108 -0.323,0.178 l -0.01,0.006 0.489,0.518 c 0.313,0.335 0.452,0.696 0.404,1.044 C 1.888,0.165 1.661,0.469 1.279,0.7 0.678,1.063 0.011,1.237 -0.758,1.218 -1.327,1.204 -1.605,0.979 -1.72,0.443"
   style="fill:#231f20;fill-opacity:1;fill-rule:nonzero;stroke:none"
   id="path102" />
      </g>
      <g
   id="g104"
   transform="translate(151.8851,459.7056)">
        <path
   d="m 0,0 c -0.208,-0.001 -0.406,-0.06 -0.598,-0.116 -0.056,-0.017 -0.112,-0.033 -0.168,-0.049 -0.29,-0.077 -0.432,-0.316 -0.372,-0.623 0.033,-0.165 0.155,-0.43 0.604,-0.399 0.088,0.008 0.174,0.031 0.26,0.056 0.047,0.014 0.094,0.027 0.142,0.037 0.55,0.102 1.119,0.109 1.693,0.017 0.003,-0.008 0.006,-0.015 0.007,-0.021 L 1.571,-2.86 C 1.572,-3.682 1.573,-4.505 1.577,-5.327 1.577,-5.513 1.5,-5.612 1.316,-5.66 1.202,-5.69 1.088,-5.725 0.975,-5.759 0.619,-5.866 0.275,-5.967 -0.077,-5.94 c -0.258,0.02 -0.541,0.017 -0.871,-0.006 -0.346,-0.025 -0.574,-0.249 -0.555,-0.546 0.01,-0.128 0.065,-0.238 0.159,-0.32 0.107,-0.091 0.255,-0.139 0.432,-0.139 0.029,0 0.058,0.002 0.089,0.004 0.392,0.033 0.785,0.06 1.178,0.078 0.102,0.003 0.203,10e-4 0.302,-0.002 0.149,-0.004 0.302,-0.008 0.456,0.01 1.045,0.119 1.645,0.741 1.607,1.663 -0.035,0.85 -0.027,1.718 -0.019,2.557 0.004,0.373 0.007,0.745 0.007,1.118 v 0.438 c 0.027,0.004 0.054,0.008 0.08,0.012 0.143,0.022 0.277,0.043 0.404,0.045 0.391,0.005 0.782,0.003 1.172,0.002 0.291,0 0.581,-0.002 0.867,0.001 0.551,0.003 0.745,0.283 0.744,0.521 0,0.111 -0.049,0.221 -0.139,0.31 -0.138,0.135 -0.35,0.21 -0.599,0.21 -0.005,0 -0.008,0 -0.013,0 C 4.307,0.006 3.387,0.004 2.474,0.007 1.641,0.006 0.823,0.007 0,0"
   style="fill:#231f20;fill-opacity:1;fill-rule:nonzero;stroke:none"
   id="path106" />
      </g>
      <g
   id="g108"
   transform="translate(207.2777,458.6255)">
        <path
   d="m 0,0 c 0.043,0.286 0.227,0.538 0.577,0.795 0.035,0.026 0.084,0.042 0.11,0.042 H 0.69 L 0.938,0.819 C 1.593,0.774 2.211,0.731 2.771,0.398 3.146,0.176 3.275,-0.12 3.169,-0.559 3.062,-1.004 2.96,-1.426 2.645,-1.744 2.338,-2.054 2.111,-2.222 1.839,-2.175 L 1.823,-2.173 C 1.107,-2.114 0.591,-1.891 0.288,-1.509 0.001,-1.147 -0.096,-0.639 0,0 m -0.521,-2.256 c 0.071,-0.069 0.141,-0.137 0.207,-0.21 0.626,-0.698 1.453,-0.755 2.251,-0.81 l 0.142,-0.01 c 0.007,-10e-4 0.014,-10e-4 0.021,-10e-4 0.056,0 0.106,0.017 0.17,0.039 0.825,0.158 1.281,0.75 1.585,1.248 0.172,0.281 0.285,0.601 0.319,0.899 0.039,0.345 0.029,0.694 0.019,1.032 L 4.186,0.215 C 4.177,0.656 3.993,0.998 3.654,1.203 3.374,1.372 3.057,1.564 2.719,1.656 2.425,1.735 2.264,1.823 2.195,2.084 L 2.161,2.215 1.657,2.218 C 1.377,2.221 1.118,2.224 0.86,2.208 0.604,2.194 0.399,2.137 0.253,2.039 -0.42,1.586 -1.189,0.913 -1.159,-0.289 c 0.006,-0.228 0.009,-0.457 -10e-4,-0.685 -0.016,-0.372 0.112,-0.708 0.391,-1.027 0.079,-0.089 0.164,-0.172 0.248,-0.255"
   style="fill:#231f20;fill-opacity:1;fill-rule:nonzero;stroke:none"
   id="path110" />
      </g>
      <g
   id="g112"
   transform="translate(192.2777,457.6274)">
        <path
   d="m 0,0 c -0.004,-0.006 -0.048,-0.064 -0.331,-0.071 -0.297,-0.006 -0.589,-0.004 -0.881,0.005 -0.071,0.003 -0.111,0.024 -0.121,0.038 -0.005,0.007 -0.004,0.026 0.004,0.049 0.149,0.467 0.324,0.937 0.493,1.391 l 0.055,0.158 c 0.004,0.003 0.007,0.007 0.01,0.01 C -0.714,1.479 -0.658,1.379 -0.603,1.282 -0.41,0.94 -0.228,0.617 -0.072,0.286 0.032,0.064 0.004,0.006 0,0 M 1.939,-2.134 1.94,-2.118 1.937,-2.103 C 1.932,-2.064 1.927,-2.025 1.922,-1.986 1.91,-1.885 1.897,-1.784 1.867,-1.688 1.817,-1.531 1.771,-1.373 1.725,-1.214 1.599,-0.787 1.469,-0.344 1.28,0.07 0.911,0.882 0.483,1.702 0.009,2.505 -0.255,2.951 -0.549,3.047 -0.749,3.05 -0.959,3.032 -1.266,2.958 -1.561,2.488 -1.843,2.037 -2.04,1.632 -2.162,1.248 -2.478,0.254 -2.761,-0.766 -3.035,-1.753 l -0.096,-0.341 c -0.052,-0.186 -0.065,-0.403 -0.038,-0.611 0.029,-0.211 0.137,-0.361 0.296,-0.41 0.036,-0.011 0.072,-0.017 0.108,-0.017 0.121,0 0.244,0.06 0.347,0.174 0.159,0.173 0.296,0.393 0.396,0.637 0.084,0.207 0.138,0.424 0.191,0.633 l 0.05,0.197 c 0.056,0.212 0.161,0.301 0.361,0.304 0.395,0.008 0.789,0.019 1.184,0.03 l 0.455,0.013 c 0.244,-0.002 0.367,-0.075 0.418,-0.28 l 0.079,-0.314 c 0.061,-0.245 0.124,-0.491 0.179,-0.737 0.04,-0.177 0.122,-0.3 0.244,-0.363 0.118,-0.061 0.258,-0.06 0.423,0.006 0.364,0.151 0.372,0.48 0.377,0.698"
   style="fill:#231f20;fill-opacity:1;fill-rule:nonzero;stroke:none"
   id="path114" />
      </g>
      <g
   id="g116"
   transform="translate(186.7318,459.2744)">
        <path
   d="M 0,0 C 0,0.539 0.043,0.585 0.573,0.621 0.647,0.627 0.721,0.625 0.795,0.624 L 1.084,0.622 V 0.63 H 1.086 C 1.216,0.624 1.346,0.619 1.473,0.598 1.663,0.565 1.821,0.404 1.848,0.213 1.856,0.149 1.88,-0.022 1.597,-0.107 1.153,-0.241 0.675,-0.375 0.187,-0.446 0.074,-0.462 0.042,-0.45 0.041,-0.45 0.033,-0.441 0.014,-0.402 0.002,-0.236 -0.002,-0.182 -0.001,-0.127 0,-0.073 Z m -1.174,-2.119 c -0.171,-0.56 -0.145,-1.123 -0.121,-1.667 0.009,-0.202 0.019,-0.404 0.018,-0.607 -0.001,-0.164 0.072,-0.305 0.201,-0.386 0.076,-0.048 0.164,-0.071 0.257,-0.071 0.088,0 0.18,0.021 0.269,0.064 0.169,0.082 0.372,0.261 0.377,0.646 0.006,0.289 0.005,0.578 0.004,0.867 v 0.156 h 0.004 l -0.002,0.526 c -0.002,0.263 -0.005,0.525 0.005,0.786 0.009,0.23 0.009,0.23 0.26,0.25 0.105,0.008 0.212,0.014 0.318,0.02 0.293,0.016 0.595,0.033 0.889,0.1 0.357,0.081 0.733,0.222 1.15,0.431 0.214,0.108 0.382,0.346 0.454,0.535 C 3.1,0.034 3.027,0.593 2.717,1.027 2.415,1.449 1.929,1.696 1.409,1.696 1.39,1.696 1.37,1.696 1.352,1.695 0.815,1.677 0.233,1.672 -0.431,1.674 -0.704,1.676 -0.866,1.677 -0.981,1.563 -1.099,1.447 -1.1,1.27 -1.1,1.002 l 0.001,-0.863 c 10e-4,-0.574 0.002,-1.148 -0.004,-1.723 -0.001,-0.203 -0.025,-0.382 -0.071,-0.535"
   style="fill:#231f20;fill-opacity:1;fill-rule:nonzero;stroke:none"
   id="path118" />
      </g>
      <g
   id="g120"
   transform="translate(161.1058,459.2866)">
        <path
   d="M 0,0 -0.026,0.039 C -0.117,0.176 -0.231,0.348 -0.407,0.402 -0.515,0.436 -0.633,0.424 -0.734,0.366 -0.855,0.296 -0.949,0.161 -0.985,0.004 l -0.04,-0.173 c -0.064,-0.271 -0.129,-0.55 -0.136,-0.835 -0.017,-0.625 -0.014,-1.25 -0.011,-1.875 10e-4,-0.289 0.002,-0.578 0.002,-0.866 -0.001,-0.418 0.123,-0.828 0.368,-1.219 0.294,-0.471 0.654,-0.702 1.094,-0.702 0.058,0 0.116,0.004 0.177,0.012 0.084,0.011 0.173,0.007 0.264,0.004 0.107,-0.004 0.217,-0.009 0.334,0.007 0.161,0.024 0.392,0.071 0.544,0.211 0.904,0.835 1.319,1.686 1.306,2.679 -0.003,0.24 -0.002,0.481 -0.002,0.72 L 2.917,-1.37 C 2.918,-1.084 2.918,-0.799 2.914,-0.512 2.91,-0.324 2.893,-0.171 2.857,-0.033 2.813,0.141 2.718,0.224 2.646,0.262 2.535,0.323 2.401,0.324 2.247,0.272 1.905,0.155 1.794,-0.027 1.788,-0.479 1.782,-0.956 1.783,-1.432 1.784,-1.908 L 1.785,-2.621 C 1.784,-3.385 1.531,-3.978 1.013,-4.434 0.7,-4.708 0.537,-4.716 0.249,-4.463 c -0.204,0.18 -0.311,0.401 -0.318,0.657 -0.007,0.262 -0.013,0.523 -0.001,0.784 0.013,0.303 0.005,0.609 -0.003,0.905 -0.016,0.601 -0.031,1.168 0.115,1.734 C 0.07,-0.271 0.074,-0.11 0,0"
   style="fill:#231f20;fill-opacity:1;fill-rule:nonzero;stroke:none"
   id="path122" />
      </g>
      <g
   id="g124"
   transform="translate(202.6048,456.4595)">
        <path
   d="m 0,0 h -0.428 c 0.041,1.444 0.031,2.868 0.02,4.247 L -0.411,4.586 -0.56,4.609 C -0.883,4.656 -1.111,4.66 -1.27,4.529 -1.424,4.402 -1.454,4.188 -1.464,3.977 -1.486,3.474 -1.478,2.964 -1.469,2.471 c 0.017,-0.899 0.033,-1.828 -0.147,-2.729 -0.052,-0.258 -0.017,-0.465 0.103,-0.617 0.123,-0.155 0.326,-0.237 0.605,-0.246 0.335,-0.01 0.674,-0.013 1.009,-0.013 0.223,0 0.446,0.002 0.666,0.003 l 0.667,0.003 c 0.166,0 0.295,0.046 0.386,0.138 0.095,0.096 0.14,0.231 0.138,0.412 C 1.953,-0.143 1.817,-0.009 1.377,-0.003 0.925,0.002 0.472,0.002 0,0"
   style="fill:#231f20;fill-opacity:1;fill-rule:nonzero;stroke:none"
   id="path126" />
      </g>
    </g>
  </g>
</svg>