<?xml version="1.0" encoding="UTF-8" standalone="no"?>
<svg
   xmlns:dc="http://purl.org/dc/elements/1.1/"
   xmlns:cc="http://creativecommons.org/ns#"
   xmlns:rdf="http://www.w3.org/1999/02/22-rdf-syntax-ns#"
   xmlns:svg="http://www.w3.org/2000/svg"
   xmlns="http://www.w3.org/2000/svg"
   viewBox="0 0 120.7366 46.249119"
   height="46.249119px"
   width="120.7366px"
   xml:space="preserve"
   id="svg2"
   version="1.1"><defs
   id="defs78" />
  
  <metadata
   id="metadata8">
    <rdf:RDF>
      <cc:Work
   rdf:about="">
        <dc:format>image/svg+xml</dc:format>
        <dc:type
   rdf:resource="http://purl.org/dc/dcmitype/StillImage" />
        <dc:title />
      </cc:Work>
    </rdf:RDF>
  </metadata>
  <g
   id="g75"
   transform="matrix(1.333333,0.000000,0.000000,-1.333333,-184.402680,714.216361)">
    <g
   transform="translate(-261.46173,14.66947)"
   id="g3239">
      <g
   id="g128"
   transform="translate(458.47421,512.80657)">
        <path
   d="m 0,0 c 0.071,-0.979 -0.03,-1.971 0.036,-2.951 0.08,-1.186 0.312,-1.324 1.965,-1.354 0.101,2.377 0.2,4.762 0.318,7.554 3.012,-2.175 4.339,-5.447 7.432,-7.18 0.362,0.513 0.876,0.971 1.056,1.536 1.016,3.198 0.648,6.465 0.268,9.709 -0.041,0.349 -0.683,0.86 -1.06,0.872 C 9.628,8.198 8.995,7.766 8.873,7.396 8.593,6.542 8.505,5.61 8.433,4.703 8.349,3.629 8.363,2.546 8.335,1.468 8.199,1.413 8.063,1.358 7.927,1.303 7.345,1.88 6.761,2.457 6.181,3.037 4.79,4.428 3.445,5.871 1.981,7.182 1.572,7.548 0.69,7.803 0.253,7.605 -0.187,7.406 -0.384,6.595 -0.607,6.021 -0.688,5.813 -0.524,5.517 -0.498,5.258 -0.324,3.506 -0.126,1.755 0,0"
   style="fill:#231f20;fill-opacity:1;fill-rule:nonzero;stroke:none"
   id="path130" />
      </g>
      <g
   id="g132"
   transform="translate(446.82971,518.54967)">
        <path
   d="M 0,0 C 0.605,-1.019 1.015,-1.709 1.452,-2.444 0.432,-3.089 -0.384,-3.161 -1.402,-2.347 -0.985,-1.649 -0.583,-0.976 0,0 m -5.059,-10.591 c 0.3,-0.075 0.824,0.271 1.07,0.575 0.318,0.394 0.509,0.916 0.668,1.41 1.043,3.238 0.822,2.794 4.152,2.812 2.297,0.012 2.641,-0.268 3.376,-2.453 0.271,-0.806 0.453,-1.678 0.905,-2.37 0.241,-0.367 0.994,-0.598 1.47,-0.536 0.272,0.036 0.617,0.775 0.634,1.208 0.021,0.563 -0.174,1.173 -0.411,1.701 -1.283,2.863 -2.648,5.689 -3.902,8.565 -0.61,1.4 -1.535,2.063 -3.055,1.804 -1.398,0.257 -2.275,-0.347 -2.707,-1.656 -1.006,-3.042 -2.017,-6.082 -3.002,-9.131 -0.097,-0.298 -0.138,-0.697 -0.016,-0.962 0.177,-0.384 0.479,-0.883 0.818,-0.967"
   style="fill:#231f20;fill-opacity:1;fill-rule:nonzero;stroke:none"
   id="path134" />
      </g>
      <g
   id="g136"
   transform="translate(413.38931,518.00137)">
        <path
   d="m 0,0 c 0.839,-0.026 1.676,-0.09 2.608,-0.144 0.308,-1.732 0.553,-3.203 0.832,-4.667 0.41,-2.15 -0.065,-2.815 -2.273,-3.144 -0.579,-0.087 -1.253,-0.05 -1.7,-0.347 -0.391,-0.26 -0.658,-0.892 -0.714,-1.39 -0.026,-0.236 0.595,-0.798 0.882,-0.771 1.357,0.125 2.725,0.307 4.043,0.651 1.234,0.323 2.028,1.214 2.06,2.557 0.039,1.629 0.013,3.26 -0.026,4.89 -0.016,0.692 -0.135,1.382 -0.233,2.328 0.987,-0.095 1.739,-0.17 2.492,-0.24 0.71,-0.066 1.429,-0.22 2.127,-0.154 0.359,0.034 0.927,0.433 0.963,0.721 C 11.113,0.714 10.9,1.398 10.574,1.592 9.992,1.938 9.246,2.142 8.563,2.158 5.946,2.219 3.328,2.183 0.711,2.182 0.449,2.182 0.186,2.184 -0.074,2.161 -0.864,2.092 -1.27,1.57 -1.273,0.859 -1.277,0.064 -0.624,0.02 0,0"
   style="fill:#231f20;fill-opacity:1;fill-rule:nonzero;stroke:none"
   id="path138" />
      </g>
      <g
   id="g140"
   transform="translate(427.96061,509.05217)">
        <path
   d="m 0,0 c 2.076,-0.87 4.235,-0.775 6.389,-0.604 0.413,0.033 0.882,0.496 1.165,0.878 1.981,2.675 2.06,5.682 1.499,8.914 C 7.78,9.316 7.255,8.828 7.229,7.761 7.212,7.105 7.247,6.437 7.126,5.8 6.944,4.844 6.763,3.859 6.37,2.98 5.838,1.788 4.516,1.283 3.227,1.574 1.866,1.881 1.483,2.308 1.364,3.908 1.282,5.017 1.342,6.135 1.306,7.249 1.279,8.062 1.201,8.873 1.146,9.693 -0.138,9.798 -0.67,9.349 -0.763,8.293 -0.848,7.319 -1.019,6.354 -1.122,5.381 -1.238,4.28 -1.321,3.176 -1.418,2.073 -1.512,0.994 -0.968,0.405 0,0"
   style="fill:#231f20;fill-opacity:1;fill-rule:nonzero;stroke:none"
   id="path142" />
      </g>
      <g
   id="g144"
   transform="translate(401.98691,486.68787)">
        <path
   d="M 0,0 C 0.941,-0.491 1.924,-0.275 2.631,0.577 3.337,1.429 3.986,2.328 4.666,3.201 5.757,4.604 6.282,4.598 7.313,3.212 7.975,2.324 8.639,1.437 9.342,0.583 c 1.221,-1.483 2.686,-1.232 3.305,0.584 0.194,0.568 0.201,1.202 0.278,1.807 0.124,0.972 0.28,1.943 0.343,2.92 0.148,2.325 0.277,4.651 0.338,6.98 0.009,0.312 -0.376,0.855 -0.643,0.898 -0.33,0.055 -0.926,-0.211 -1.055,-0.498 C 11.641,12.68 11.543,11.986 11.487,11.324 11.292,9.002 11.152,6.676 10.967,4.354 10.938,4.003 10.774,3.662 10.541,2.864 9.595,4.137 8.895,5.05 8.224,5.985 6.764,8.021 5.543,8.057 4.041,6.112 3.304,5.157 2.533,4.227 1.649,3.125 0.33,4.891 0.748,6.843 0.311,8.564 -0.135,10.31 -0.294,12.127 -0.578,13.912 -2.03,13.645 -2.133,13.611 -2.192,12.591 -2.428,8.558 -1.264,4.689 -0.716,0.748 -0.676,0.466 -0.296,0.155 0,0"
   style="fill:#231f20;fill-opacity:1;fill-rule:nonzero;stroke:none"
   id="path146" />
      </g>
      <g
   id="g148"
   transform="translate(423.80241,495.67857)">
        <path
   d="m 0,0 c 0,-0.117 -0.84,-0.232 -1.669,-0.444 0.331,0.997 0.524,1.581 0.719,2.165 0.197,0.013 0.394,0.027 0.593,0.04 C -0.217,1.174 0.002,0.586 0,0 M -1.918,4.506 C -2.454,4.107 -2.86,3.382 -3.067,2.722 -4.028,-0.329 -4.932,-3.4 -5.78,-6.484 c -0.234,-0.849 -0.209,-1.768 -0.313,-2.748 1.363,-0.158 1.908,0.238 2.186,1.149 0.447,1.474 0.94,2.934 1.457,4.384 0.137,0.384 0.345,0.857 0.664,1.041 1.207,0.698 3.154,-0.03 3.666,-1.363 0.441,-1.148 0.79,-2.333 1.148,-3.511 0.234,-0.769 0.586,-1.499 1.504,-1.254 1.06,0.282 0.621,1.17 0.471,1.849 C 4.752,-5.801 4.253,-4.69 4.187,-3.549 4.018,-0.682 2.363,1.504 1.001,3.81 0.364,4.885 -1.022,5.174 -1.918,4.506"
   style="fill:#231f20;fill-opacity:1;fill-rule:nonzero;stroke:none"
   id="path150" />
      </g>
      <g
   id="g152"
   transform="translate(470.09441,490.79237)">
        <path
   d="M 0,0 C 0.077,-0.659 0.623,-1.264 1.014,-2.007 2.188,-1.397 2.31,-0.673 2.278,0.184 2.199,2.394 2.145,4.605 2.143,6.817 2.143,7.351 2.29,7.935 2.545,8.4 2.713,8.708 3.229,9.053 3.522,9.002 3.828,8.949 4.187,8.477 4.287,8.121 4.552,7.183 4.34,6.35 3.639,5.575 2.495,4.311 2.54,3.861 3.696,2.609 4.908,1.298 6.117,-0.02 7.384,-1.278 7.678,-1.57 8.198,-1.634 8.614,-1.803 8.748,-1.31 9.138,-0.688 8.967,-0.348 8.48,0.62 7.798,1.498 7.129,2.362 6.656,2.972 6.079,3.501 5.545,4.07 5.822,4.5 5.979,4.759 6.15,5.007 7.142,6.443 6.82,9.63 5.55,10.777 5.326,10.979 5.063,11.173 4.783,11.271 2.998,11.896 0.928,11.034 0.15,9.263 -0.189,8.487 -0.507,7.609 -0.488,6.786 -0.437,4.52 -0.265,2.251 0,0"
   style="fill:#231f20;fill-opacity:1;fill-rule:nonzero;stroke:none"
   id="path154" />
      </g>
      <g
   id="g156"
   transform="translate(458.40881,491.24057)">
        <path
   d="m 0,0 c 0.096,-1.334 0.656,-2.347 2.288,-2.232 1.591,0.111 3.196,-0.004 4.796,-0.022 0.779,-0.009 1.455,0.141 1.703,0.998 C 8.392,-0.349 7.661,-0.119 6.817,-0.1 5.957,-0.08 5.096,-0.077 4.234,-0.064 1.833,-0.03 1.758,0.056 2.004,2.482 2.01,2.542 2.043,2.598 2.172,2.952 2.775,2.995 3.369,3.064 3.965,3.075 4.888,3.09 5.814,3.011 6.73,3.087 7.064,3.116 7.592,3.44 7.634,3.694 7.688,4.024 7.436,4.612 7.153,4.745 6.624,4.995 5.981,5.05 5.38,5.093 4.304,5.17 3.223,5.18 2.201,5.215 1.783,7.733 1.894,7.879 4.003,7.887 4.803,7.89 5.607,7.828 6.4,7.9 7.449,7.997 7.608,8.26 7.695,9.694 7.363,9.763 7.02,9.889 6.673,9.896 4.951,9.936 3.229,9.964 1.506,9.956 0.232,9.95 -0.111,9.566 -0.096,8.291 -0.067,6.019 -0.033,3.747 -0.006,1.476 0.001,0.983 -0.036,0.489 0,0"
   style="fill:#231f20;fill-opacity:1;fill-rule:nonzero;stroke:none"
   id="path158" />
      </g>
      <g
   id="g160"
   transform="translate(435.84731,491.33337)">
        <path
   d="M 0,0 C -0.638,0.951 -1.22,2.023 -1.483,3.124 -1.919,4.947 -2.079,6.836 -2.356,8.698 -3.827,8.646 -3.925,8.585 -4.028,7.416 -4.273,4.662 -3.836,2.029 -2.54,-0.433 c 0.99,-1.883 2.582,-2.702 4.687,-2.639 0.778,0.024 1.28,0.336 1.534,1.068 0.75,2.157 1.396,4.332 1.149,6.66 C 4.701,5.873 4.591,7.092 4.411,8.302 4.346,8.74 4.105,9.153 3.927,9.625 2.962,9.363 2.368,8.936 2.312,8.117 2.248,7.204 2.069,6.148 2.43,5.387 3.325,3.498 2.475,1.908 1.899,0.262 1.522,-0.818 0.644,-0.96 0,0"
   style="fill:#231f20;fill-opacity:1;fill-rule:nonzero;stroke:none"
   id="path162" />
      </g>
      <g
   id="g164"
   transform="translate(484.29071,489.29777)">
        <path
   d="M 0,0 C 1.155,-0.006 2.331,0.065 3.46,0.293 4.618,0.526 5.736,1.004 5.955,2.407 6.19,3.917 5.874,5.204 4.449,6.062 3.715,6.504 3.029,7.032 2.342,7.549 1.758,7.989 1.007,8.432 1.367,9.317 1.734,10.218 2.5,9.688 3.131,9.642 4.292,9.559 4.819,9.997 4.872,11.022 4.926,12.074 4.485,12.589 3.38,12.7 2.893,12.749 2.393,12.759 1.906,12.712 -0.445,12.486 -1.943,9.73 -0.89,7.617 -0.286,6.404 0.705,5.622 1.868,4.996 2.669,4.565 3.487,4.119 3.677,3.075 2.231,1.686 0.333,2.381 -1.236,1.884 -1.528,0.209 -1.437,0.008 0,0"
   style="fill:#231f20;fill-opacity:1;fill-rule:nonzero;stroke:none"
   id="path166" />
      </g>
      <g
   id="g168"
   transform="translate(446.07391,501.14637)">
        <path
   d="m 0,0 c -0.229,0.008 -0.463,-0.1 -0.673,-0.148 -0.21,-1.832 -0.058,-2.04 1.536,-2.191 1.843,-0.176 1.893,-0.222 1.884,-2.144 -0.009,-1.909 -0.041,-3.818 -0.056,-5.726 -0.003,-0.43 -0.056,-0.885 0.061,-1.285 0.21,-0.721 0.755,-1.122 1.525,-1.073 0.752,0.048 1.056,0.532 1.043,1.251 -0.037,2.081 0.314,4.183 -0.418,6.224 -0.319,0.89 -0.402,1.798 0.362,2.706 0.851,-0.009 1.77,-0.016 2.689,-0.03 0.646,-0.009 1.36,0.054 1.472,0.792 0.138,0.905 -0.671,1.047 -1.33,1.187 C 7.617,-0.335 7.124,-0.284 6.636,-0.262 4.425,-0.162 2.213,-0.075 0,0"
   style="fill:#231f20;fill-opacity:1;fill-rule:nonzero;stroke:none"
   id="path170" />
      </g>
    </g>
  </g>
</svg>