<?xml version="1.0" encoding="UTF-8" standalone="no"?>
<svg
   xmlns:dc="http://purl.org/dc/elements/1.1/"
   xmlns:cc="http://creativecommons.org/ns#"
   xmlns:rdf="http://www.w3.org/1999/02/22-rdf-syntax-ns#"
   xmlns:svg="http://www.w3.org/2000/svg"
   xmlns="http://www.w3.org/2000/svg"
   version="1.1"
   id="svg2"
   xml:space="preserve"
   width="150"
   height="12.72663"
   viewBox="0 0 150.00001 12.72663"><defs
   id="defs48" />
  
  <metadata
   id="metadata8">
    <rdf:RDF>
      <cc:Work
   rdf:about="">
        <dc:format>image/svg+xml</dc:format>
        <dc:type
   rdf:resource="http://purl.org/dc/dcmitype/StillImage" />
        <dc:title></dc:title>
      </cc:Work>
    </rdf:RDF>
  </metadata>
  
<path
   id="path1209"
   d="m 56.9998,11.832009 c -0.34939,-0.546181 -0.49545,-0.675091 -0.76549,-0.67565 -0.6229,-0.0012 -1.20239,-0.241051 -1.61742,-0.66925 l -0.41376,-0.426894 0.2234,-0.4954219 c 0.30919,-0.685674 0.42418,-0.753043 1.44008,-0.843776 l 0.89303,-0.07977 0.0362,-0.968855 c 0.0238,-0.638868 -0.0284,-1.158347 -0.1534,-1.525199 -0.11376,-0.33386 -0.18956,-0.983129 -0.18956,-1.623625 0,-0.587011 -0.0358,-1.245915 -0.0793,-1.464229 l -0.0795,-0.396955 -0.68762,0.07454 c -0.37819,0.04098 -0.91326,0.107175 -1.18904,0.147143 -0.4538,0.06578 -0.53248,0.03576 -0.82837,-0.3159 -0.21469,-0.255149 -0.32694,-0.532702 -0.32694,-0.808428 0,-0.36772 0.0724,-0.465362 0.58292,-0.78593804 l 0.58293,-0.36605699 2.45779,-0.0024 c 2.10716,-0.0024 2.49986,0.02714 2.75261,0.20417299 0.21897,0.153366 0.64432,0.22007304 1.65336,0.25930804 1.28695,0.05009 1.37287,0.06984 1.63025,0.376427 0.35688,0.42503 0.35004,0.817516 -0.0207,1.188242 -0.28459,0.284578 -0.37851,0.301214 -1.70011,0.301214 -1.97653,0 -2.90751,0.110568 -2.90751,0.345311 0,0.103155 0.0966,0.294231 0.21476,0.424556 0.18372,0.202697 0.22363,0.576654 0.27612,2.586808 l 0.0614,2.349856 1.16585,0.06525 c 0.64122,0.03588 1.2763,0.126105 1.4113,0.200512 0.13498,0.07443 0.49395,0.173329 0.79768,0.219849 1.0176,0.155844 0.98177,0.117836 0.98177,1.0413369 v 0.835445 l -0.38351,0.07668 c -0.21092,0.0422 -1.20497,0.07667 -2.20897,0.07667 -1.8239,0 -1.82547,2.41e-4 -1.82547,0.28272 0,0.357357 -0.71916,1.067207 -1.08118,1.067207 -0.19531,0 -0.39332,-0.189953 -0.70357,-0.674964 z"
   style="fill:#000000;stroke-width:0.12272099" /><path
   id="path1063"
   d="M 85.156103,11.71267 C 83.913789,11.261392 84.016458,11.75018 84.0498,6.4462422 l 0.02914,-4.620869 0.612675,-0.2280748 c 0.537001,-0.1999407 0.925579,-0.2327695 3.147864,-0.2660072 l 2.535192,-0.037964 0.277427,0.2774094 c 0.419158,0.4191688 0.391058,1.1394964 -0.06133,1.5729264 L 90.252015,3.4682092 89.769468,3.2122254 C 89.341653,2.9852598 89.168527,2.9613179 88.242445,3.0009869 87.463168,3.034329 87.01405,3.1181182 86.473878,3.3307628 l -0.724055,0.2850358 v 0.597175 0.5971684 l 0.556964,0.073742 c 0.306321,0.040541 1.35029,0.078157 2.319929,0.083497 l 1.762984,0.00935 0.325602,0.3256021 c 0.266378,0.2663704 0.325603,0.4196962 0.325603,0.842781 0,0.837187 -0.111717,0.9480523 -0.955177,0.9480523 -0.504731,0 -0.857031,-0.067587 -1.161253,-0.2227734 -0.36528,-0.1863656 -0.656518,-0.2227853 -1.781308,-0.2227853 -1.175859,0 -1.354695,0.02449 -1.424663,0.194923 -0.09831,0.2392726 -0.09679,2.7772996 0.0011,2.8757447 0.03893,0.038888 0.362403,0.1052136 0.718759,0.1472393 0.356345,0.041922 0.723032,0.1245843 0.814859,0.1836253 0.09189,0.0589 1.037966,0.134278 2.102505,0.167324 l 1.93555,0.06015 0.263866,0.329788 c 0.337945,0.422351 0.335291,0.770905 -0.0076,1.114598 l -0.273424,0.273415 -2.706285,-0.01268 c -2.526877,-0.01268 -2.75316,-0.03011 -3.4114,-0.269183 z"
   style="fill:#000000;stroke:#000000;stroke-width:0.41794693;stroke-miterlimit:4;stroke-dasharray:none;stroke-opacity:1" /><path
   id="path893"
   d="m 65.15594,11.753702 c -0.0784,-0.0459 -0.21775,-0.250116 -0.30964,-0.453881 -0.16499,-0.365857 -0.16463,-0.375541 0.0284,-0.772794 l 0.19546,-0.40228 h 1.73586 c 1.48266,0 1.83563,-0.02757 2.419743,-0.1890417 0.83583,-0.231027 1.09074,-0.38412 1.09074,-0.655073 0,-0.315033 -0.40953,-0.641965 -1.35621,-1.082666 -0.472413,-0.219922 -1.143733,-0.592354 -1.491833,-0.827631 -0.34808,-0.235295 -0.94207,-0.583915 -1.31996,-0.774731 -0.72419,-0.365705 -1.47956,-1.083248 -1.58575,-1.506365 -0.0307,-0.121897 -0.0368,-0.515465 -0.0138,-0.874449 0.0355,-0.552895 0.0908,-0.729097 0.36138,-1.152147 0.17572,-0.274699 0.43666,-0.589483 0.57987,-0.699523 0.92292,-0.70917 1.19927,-0.855748 2.34794,-1.24546 1.216183,-0.41259501 1.229703,-0.41489101 2.235213,-0.37886801 1.02826,0.03685 1.5144,0.182691 1.98359,0.59514701 0.21203,0.18642 0.22338,0.970864 0.0152,1.050759 -0.27134,0.104121 -1.2199,0.05446 -1.54358,-0.08073 -0.17852,-0.07464 -0.43982,-0.135674 -0.58063,-0.135674 -0.40315,0 -1.817643,0.492156 -2.481493,0.863404 -0.53364,0.298427 -1.39942,1.059515 -1.39942,1.230209 0,0.03436 0.11004,0.193238 0.24456,0.353083 0.33946,0.403433 1.31115,1.007603 2.600803,1.617164 0.95322,0.450524 1.46612,0.746158 2.28322,1.316011 0.11056,0.0771 0.31247,0.330357 0.44867,0.56278 0.20947,0.357418 0.25323,0.550182 0.28387,1.250233 0.0225,0.516048 -0.002,0.9002157 -0.067,1.0203467 -0.12109,0.226291 -1.707,1.008969 -2.0444,1.008969 -0.126,0 -0.47076,0.101558 -0.76613,0.226043 -0.505953,0.212952 -0.630063,0.225854 -2.144613,0.223267 -0.88415,-0.0012 -1.67172,-0.04025 -1.75013,-0.08607 z"
   style="fill:#000000;stroke:#000000;stroke-width:0.38432643;stroke-miterlimit:4;stroke-dasharray:none;stroke-opacity:1" /><path
   id="path1805"
   d="m 94.212903,12.328305 c -0.0286,-0.05026 -0.171033,-0.480951 -0.316466,-0.95709 -0.2527,-0.827292 -0.262874,-1.050054 -0.229286,-5.0203903 l 0.03513,-4.1546851 0.481642,-0.4931047 c 0.453994,-0.4647845 0.522449,-0.4931047 1.192042,-0.4931047 1.146424,0 1.695063,0.361968 3.887374,2.5646608 1.054461,1.0594566 2.008561,2.1083811 2.120221,2.3309435 0.19958,0.3978334 1.85452,2.1714168 2.02615,2.1714168 0.0483,0 0.10447,-1.6405831 0.12488,-3.6457388 l 0.0371,-3.6457371 0.29539,-0.31423142 c 0.35354,-0.37609274 1.26916,-0.45570082 1.39741,-0.12150432 0.0407,0.10600479 0.0739,2.45699374 0.0739,5.22442364 0,3.8796541 -0.0348,5.0593677 -0.15231,5.1525687 -0.24633,0.195506 -0.96513,0.271236 -1.53364,0.161582 -0.47885,-0.09236 -0.7462,-0.323241 -2.85049,-2.4616962 -1.277133,-1.2978762 -2.457241,-2.5791734 -2.622452,-2.8473269 -0.311606,-0.5057672 -1.962756,-2.25431 -2.128757,-2.25431 -0.0519,0 -0.09444,0.1123808 -0.09444,0.2497414 0,0.1373634 -0.09417,0.4252173 -0.209268,0.6396872 -0.166441,0.3101226 -0.218054,0.7890291 -0.252144,2.3394697 -0.03767,1.7134963 -0.01237,2.0436425 0.209268,2.7269294 0.246782,0.7608744 0.333281,2.0753924 0.175351,2.6647214 -0.06641,0.24766 -0.147936,0.274152 -0.844064,0.274152 -0.423822,0 -0.794011,-0.04111 -0.82265,-0.09138 z"
   style="fill:#000000;stroke-width:0.1218452" /><path
   id="path1791"
   d="m 50.908972,12.117125 c -0.329523,-0.211072 -0.606917,-0.233506 -2.894534,-0.234084 l -2.530077,-6.09e-4 -0.355102,-0.355099 -0.355101,-0.355098 V 6.2048838 1.2375343 l 0.348803,-0.33418062 c 0.29108,-0.2788718 0.436847,-0.327871 0.880753,-0.2960605 l 0.53193,0.038121 0.06066,4.50669802 c 0.04818,3.5722789 0.09527,4.5483115 0.227463,4.707401 0.145547,0.1751988 0.497921,0.2007018 2.773044,0.2007018 h 2.606319 l 0.355102,0.355101 c 0.454694,0.454703 0.470334,0.989402 0.04517,1.546763 -0.267695,0.350962 -0.379337,0.405072 -0.820001,0.397402 -0.281856,-0.0049 -0.673186,-0.113336 -0.874551,-0.242323 z"
   style="fill:#000000;stroke-width:0.12148131" /><path
   id="path1769"
   d="M 76.81625,11.988422 C 76.519776,11.771645 76.493155,11.488678 76.440397,7.9958264 76.409094,5.9282192 76.32936,4.1792172 76.263049,4.1091509 76.196736,4.0390846 75.703431,3.9112208 75.166797,3.8250076 73.93703,3.6274388 73.418676,3.0978163 73.487535,2.1092413 c 0.03753,-0.5397009 0.13515,-0.6957436 0.595476,-0.9519589 0.827935,-0.46089288 1.86192,-0.54477181 3.035528,-0.24623992 0.563177,0.14325932 1.690776,0.29268642 2.505759,0.33206122 1.411997,0.068218 2.597817,0.4146647 2.919902,0.8530784 0.06651,0.090558 0.12212,0.4295632 0.123482,0.7533553 0.0039,0.9206479 -0.563974,1.3407114 -2.099298,1.5527644 -1.132148,0.1563659 -1.272608,0.2156914 -1.374271,0.5804551 -0.06223,0.223458 -0.120566,1.8979591 -0.129705,3.7211099 -0.01556,3.2920572 -0.01945,3.3155032 -0.38686,3.4140972 -0.646815,0.173342 -1.531396,0.111776 -1.861414,-0.12955 z"
   style="fill:#000000;stroke-width:0.16464317" /></svg>