<?xml version="1.0" encoding="UTF-8" standalone="no"?>
<svg
   xmlns:dc="http://purl.org/dc/elements/1.1/"
   xmlns:cc="http://creativecommons.org/ns#"
   xmlns:rdf="http://www.w3.org/1999/02/22-rdf-syntax-ns#"
   xmlns:svg="http://www.w3.org/2000/svg"
   xmlns="http://www.w3.org/2000/svg"
   xmlns:sodipodi="http://sodipodi.sourceforge.net/DTD/sodipodi-0.dtd"
   xmlns:inkscape="http://www.inkscape.org/namespaces/inkscape"
   viewBox="0 0 150 24.50677"
   width="150"
   xml:space="preserve"
   id="svg2"
   version="1.1"
   sodipodi:docname="more-videos-coming-soon.svg"
   inkscape:version="0.92.3 (unknown)"
   height="24.506769"><sodipodi:namedview
   pagecolor="#ffffff"
   bordercolor="#666666"
   borderopacity="1"
   objecttolerance="10"
   gridtolerance="10"
   guidetolerance="10"
   inkscape:pageopacity="0"
   inkscape:pageshadow="2"
   inkscape:window-width="1920"
   inkscape:window-height="1031"
   id="namedview1377"
   showgrid="false"
   inkscape:zoom="4.0771159"
   inkscape:cx="45.485656"
   inkscape:cy="29.312334"
   inkscape:window-x="0"
   inkscape:window-y="27"
   inkscape:window-maximized="1"
   inkscape:current-layer="svg2"
   height="155px"
   fit-margin-top="0"
   fit-margin-left="0"
   fit-margin-right="0"
   fit-margin-bottom="0" /><defs
   id="defs234">
    
  
      
      
      
      
      
      
      
      
      
      
      
      
      
      
      
      
      
    </defs>
  
  <metadata
   id="metadata8">
    <rdf:RDF>
      <cc:Work
   rdf:about="">
        <dc:format>image/svg+xml</dc:format>
        <dc:type
   rdf:resource="http://purl.org/dc/dcmitype/StillImage" />
        <dc:title></dc:title>
      </cc:Work>
    </rdf:RDF>
  </metadata>
  <path
   style="fill:#000000;fill-opacity:1;stroke:none;stroke-width:1.44290519px;stroke-linecap:butt;stroke-linejoin:miter;stroke-opacity:1"
   d="M 55.888348,2.1753147 C 51.315161,2.6575191 44.902888,0.48139453 42.072898,5.3533652 40.662357,8.7525468 38.578281,13.505005 41.401672,16.6984 c 3.030904,2.351533 5.334456,5.723376 8.981898,7.196071 4.279942,1.388421 8.870083,0.05899 13.199459,-0.499478 9.102009,-2.033772 18.539492,-2.304976 27.765175,-1.001822 4.462848,3.175324 10.803626,0.958459 13.186566,-3.726275 2.27869,-3.254386 1.79652,-7.445221 3.65703,-10.8662828 1.98598,-3.9060005 -2.01783,-7.65549497 -5.81456,-7.72066667 -9.679567,-0.319628 -19.385403,0.3610394 -29.015579,1.29702307 -5.293254,-0.1693638 -10.96392,-1.80069367 -15.958149,0.7354748 l -0.753977,0.1474548 z"
   id="path4108"
   inkscape:connector-curvature="0" /><g
   id="g336"
   transform="matrix(1.2505629,0,0,-1.2505629,50.730118,10.860658)"
   style="fill:#ffffff;fill-opacity:1">
        <path
   d="M 0,0 C 0.332,-0.014 0.344,0.314 0.357,0.576 0.359,0.619 0.359,0.662 0.36,0.705 0.378,1.712 0.401,2.72 0.409,3.728 0.41,3.938 0.382,4.158 0.318,4.358 0.152,4.876 -0.162,5.019 -0.67,4.822 -0.807,4.768 -0.936,4.681 -1.056,4.594 -1.487,4.28 -1.914,3.959 -2.429,3.577 -2.744,3.996 -3.042,4.384 -3.332,4.778 -3.668,5.235 -4.148,5.194 -4.619,5.144 -5.029,5.1 -5.085,4.752 -5.144,4.432 -5.197,4.14 -5.236,3.844 -5.28,3.55 -5.312,3.34 -5.348,3.13 -5.369,2.918 -5.428,2.325 -5.485,1.732 -5.533,1.138 -5.555,0.87 -5.407,0.741 -5.146,0.743 c 0.232,0.002 0.338,0.122 0.36,0.357 0.079,0.85 0.162,1.701 0.263,2.549 0.025,0.212 0.122,0.416 0.199,0.666 0.617,-0.295 0.923,-0.742 1.185,-1.24 0.291,-0.555 0.782,-0.669 1.264,-0.282 0.334,0.268 0.624,0.588 0.941,0.875 0.165,0.149 0.309,0.37 0.649,0.261 C -0.276,3.722 -0.259,3.515 -0.262,3.308 -0.273,2.407 -0.292,1.506 -0.307,0.606 -0.312,0.346 -0.338,0.014 0,0"
   style="fill:#ffffff;fill-opacity:1;fill-rule:nonzero;stroke:none"
   id="path338"
   inkscape:connector-curvature="0" />
      </g><g
   id="g352"
   transform="matrix(1.2505629,0,0,-1.2505629,50.956091,17.117147)"
   style="fill:#ffffff;fill-opacity:1">
        <path
   d="M 0,0 C 0.072,0.436 0.232,0.862 0.404,1.272 0.463,1.413 0.684,1.586 0.817,1.576 1.281,1.54 1.749,1.464 2.195,1.336 2.731,1.182 2.895,0.898 2.88,0.197 2.841,-0.247 2.7,-0.792 2.378,-1.293 2.223,-1.536 2.014,-1.641 1.755,-1.684 0.688,-1.863 -0.175,-1.054 0,0 m 2.376,-2.341 c 0.149,0.056 0.272,0.198 0.392,0.316 0.782,0.771 0.931,1.747 0.859,2.778 C 3.594,1.228 3.343,1.612 2.903,1.817 2.597,1.96 2.262,2.043 1.938,2.152 1.718,2.226 1.484,2.273 1.276,2.374 0.652,2.676 0.439,2.648 0,2.138 -0.606,1.434 -0.75,0.579 -0.816,-0.316 c 0.038,-0.312 -0.006,-0.668 0.129,-0.931 0.442,-0.851 2.143,-1.44 3.063,-1.094"
   style="fill:#ffffff;fill-opacity:1;fill-rule:nonzero;stroke:none"
   id="path354"
   inkscape:connector-curvature="0" />
      </g><g
   id="g368"
   transform="matrix(1.2505629,0,0,-1.2505629,66.292157,9.7854233)"
   style="fill:#ffffff;fill-opacity:1">
        <path
   d="M 0,0 C 0.199,0.084 0.411,0.168 0.356,0.454 0.295,0.774 0.051,0.767 -0.192,0.751 -0.276,0.745 -0.36,0.702 -0.443,0.703 c -0.614,0.006 -1.228,0.019 -1.829,0.03 -0.177,0.8 -0.116,0.885 0.613,0.879 0.45,-0.003 0.901,-0.033 1.35,-0.013 0.415,0.018 0.494,0.145 0.467,0.694 -0.798,0.014 -1.603,0.028 -2.454,0.043 -0.026,0.221 -0.049,0.325 -0.051,0.43 -0.018,0.957 0.141,1.116 1.106,1.114 0.301,-10e-4 0.602,-0.021 0.9,0.007 0.289,0.027 0.404,0.212 0.353,0.495 C -0.035,4.645 -0.208,4.771 -0.45,4.678 -1.016,4.461 -1.595,4.579 -2.169,4.566 -2.865,4.551 -3.345,4.097 -3.193,3.433 -3.013,2.64 -3.123,1.855 -3.084,1.068 -3.07,0.796 -3.026,0.51 -2.919,0.263 c 0.06,-0.138 0.273,-0.286 0.426,-0.295 0.727,-0.042 1.457,-0.041 2.186,-0.046 C -0.204,-0.079 -0.097,-0.041 0,0"
   style="fill:#ffffff;fill-opacity:1;fill-rule:nonzero;stroke:none"
   id="path370"
   inkscape:connector-curvature="0" />
      </g><g
   id="g384"
   transform="matrix(1.2505629,0,0,-1.2505629,49.758679,19.54727)"
   style="fill:#ffffff;fill-opacity:1">
        <path
   d="m 0,0 c -0.021,0.307 -0.213,0.453 -0.508,0.473 -0.256,0.017 -0.513,0.014 -0.768,0.044 -0.649,0.076 -1.129,0.532 -1.056,1.071 0.075,0.551 0.253,1.082 0.635,1.519 0.298,0.342 0.657,0.46 1.093,0.34 0.181,-0.049 0.362,-0.1 0.589,-0.164 0.076,0.571 0.054,0.63 -0.229,0.785 C -0.841,4.395 -1.9,4.236 -2.318,3.696 -2.916,2.925 -3.213,2.044 -3.061,1.055 -3.036,0.896 -2.969,0.72 -2.866,0.598 -2.261,-0.124 -1.447,-0.4 -0.534,-0.419 -0.191,-0.426 0.016,-0.246 0,0"
   style="fill:#ffffff;fill-opacity:1;fill-rule:nonzero;stroke:none"
   id="path386"
   inkscape:connector-curvature="0" />
      </g>
<path
   style="fill:#ffffff;fill-opacity:1;stroke-width:0.04519518"
   d="M 63.730373,19.389936 C 63.601709,19.188791 63.547911,19.141313 63.448464,19.14111 63.219059,19.140638 63.005655,19.05234 62.85281,18.894639 l -0.152386,-0.157215 0.08228,-0.18245 c 0.113874,-0.25252 0.15622,-0.277329 0.530353,-0.310742 l 0.32888,-0.02938 0.01342,-0.356806 c 0.0088,-0.235278 -0.01053,-0.42659 -0.0565,-0.561692 -0.0419,-0.12295 -0.06981,-0.362064 -0.06981,-0.597942 0,-0.21618 -0.01327,-0.458839 -0.02922,-0.539242 l -0.02922,-0.146188 -0.253236,0.02743 c -0.139283,0.01509 -0.336328,0.03948 -0.437891,0.0542 -0.167126,0.02423 -0.196095,0.01313 -0.305065,-0.116327 -0.07907,-0.09396 -0.12041,-0.196183 -0.12041,-0.297726 0,-0.135417 0.02662,-0.17138 0.214678,-0.289443 l 0.214671,-0.13481 0.905151,-8.63e-4 c 0.776018,-7.2e-4 0.920637,0.01 1.013723,0.07519 0.08063,0.05649 0.237288,0.08105 0.608891,0.09551 0.473953,0.01843 0.505599,0.02574 0.600389,0.138634 0.131434,0.156526 0.128909,0.301069 -0.0081,0.437597 -0.104827,0.104798 -0.139399,0.11093 -0.626106,0.11093 -0.727924,0 -1.070777,0.04072 -1.070777,0.127164 0,0.03801 0.03562,0.108362 0.07908,0.156354 0.06766,0.07464 0.08235,0.212367 0.101696,0.952658 l 0.02261,0.865397 0.429364,0.02402 c 0.236136,0.01328 0.47003,0.04643 0.519742,0.07383 0.04978,0.0274 0.181906,0.06383 0.29377,0.08098 0.374747,0.0574 0.361559,0.0434 0.361559,0.383502 v 0.30767 l -0.141232,0.02825 c -0.07771,0.01553 -0.443758,0.02825 -0.81351,0.02825 -0.671713,0 -0.672296,8.9e-5 -0.672296,0.10412 0,0.131607 -0.264845,0.393025 -0.398169,0.393025 -0.07189,0 -0.144851,-0.06997 -0.259106,-0.248573 z"
   id="path3461"
   inkscape:connector-curvature="0" /><path
   id="path3311"
   style="fill:#ffffff;fill-opacity:1;stroke-width:0.06288531"
   d="M 57.729913,9.6888165 C 57.617006,9.5686369 57.615794,9.5465893 57.615794,7.6400337 V 5.7127366 L 57.75225,5.438918 c 0.07502,-0.1506004 0.2573,-0.3978205 0.40499,-0.549379 l 0.268525,-0.2755631 h 0.721308 0.721292 l 0.212161,0.2018249 c 0.116731,0.1110027 0.21216,0.2378355 0.21216,0.2818456 0,0.044009 0.04721,0.2278953 0.104899,0.4086264 0.149374,0.4677004 0.137076,0.7981545 -0.04433,1.1814594 -0.136773,0.2891048 -0.465124,0.6556258 -0.587356,0.6556258 -0.131766,0 -0.01897,0.2090798 0.308844,0.5725303 0.197723,0.219173 0.396965,0.4711345 0.442748,0.5599093 0.09442,0.1829315 0.452678,0.5233244 0.641415,0.6093258 0.146794,0.066922 0.20492,0.2687241 0.154597,0.5370612 l -0.03522,0.188113 H 60.905592 60.5329 L 59.682695,8.9657288 c -0.59138,-0.5874601 -0.879609,-0.8389498 -0.946781,-0.826105 -0.08728,0.01668 -0.09959,0.097497 -0.127668,0.8314452 -0.01716,0.4471436 -0.03492,0.8188865 -0.03932,0.8261126 -0.0046,0.00736 -0.169488,0.01313 -0.366528,0.01313 -0.306628,0 -0.374711,-0.017459 -0.4724,-0.1214782 z m 1.285226,-2.9884387 c 0.333617,-0.2461943 0.43774,-0.4233513 0.43774,-0.7447973 0,-0.2449404 -0.02247,-0.319061 -0.12888,-0.4254493 -0.225595,-0.2255809 -0.501027,-0.1456382 -0.501027,0.145416 0,0.081553 -0.04721,0.2826824 -0.105044,0.4469529 -0.10474,0.29812 -0.136167,0.594777 -0.06998,0.6609847 0.06649,0.066504 0.207652,0.034529 0.367091,-0.083097 z"
   inkscape:connector-curvature="0" /><path
   id="path3271"
   style="fill:#ffffff;fill-opacity:1;stroke-width:0.06288531"
   d="M 53.446749,10.230534 C 52.477809,9.6918827 52.122508,9.36848 51.762201,8.6971392 51.627549,8.4462498 51.612369,8.3512979 51.612369,7.7577142 V 7.0973816 l 0.291972,-0.5398759 c 0.2344,-0.433404 0.40651,-0.6521326 0.872785,-1.109118 0.715176,-0.700946 1.03879,-0.8804592 1.587138,-0.8804592 0.429278,0 0.613133,0.073314 1.271805,0.5073961 0.530095,0.3493245 0.667171,0.5089689 0.943674,1.0989801 l 0.239768,0.5116657 v 1.0699315 c 0,1.4034807 -0.06609,1.6295495 -0.656522,2.2450351 -0.226363,0.235999 -0.479218,0.454803 -0.561867,0.486228 -0.08253,0.0315 -0.47473,0.05682 -0.87127,0.05645 l -0.721005,-5.5e-4 -0.562141,-0.312493 z m 1.8796,-1.0035167 c 0.24805,-0.2511795 0.318652,-0.3684141 0.365185,-0.6065209 0.03174,-0.1623268 0.114567,-0.4544531 0.184014,-0.649163 C 56.031079,7.5354418 55.999205,7.2643272 55.743811,6.8491356 55.496425,6.4470902 54.993919,5.8772235 54.796948,5.7753703 54.424072,5.5825476 53.877067,5.7478103 53.466892,6.1772453 53.0996,6.5617694 52.50003,7.5265146 52.50003,7.7329597 c 0,0.1524025 0.328939,0.7520075 0.558318,1.0177835 0.261815,0.30329 0.689896,0.5185356 1.272671,0.6399229 0.242264,0.050429 0.453072,0.1043221 0.468439,0.1197178 0.08455,0.084641 0.252739,-0.00592 0.52692,-0.2833724 z"
   inkscape:connector-curvature="0" /><path
   style="fill:#ffffff;fill-opacity:1;stroke-width:0.06288531"
   d="m 70.879359,12.48304 c 0.03856,0.01241 0.126269,0.107049 0.195156,0.211406 0.106587,0.161413 0.118174,0.212642 0.07789,0.343062 -0.03402,0.10995 0.02014,0.825444 0.191677,2.530618 0.220118,2.188454 0.233067,2.392699 0.162338,2.570875 -0.107409,0.270736 -0.295043,0.508643 -0.411473,0.521714 -0.113946,0.01255 -0.58852,-0.187149 -0.595677,-0.25095 -0.0026,-0.02368 -0.141017,-0.162138 -0.307474,-0.307726 -0.357667,-0.312835 -0.621764,-0.630435 -0.944752,-1.136201 -0.129876,-0.203392 -0.308109,-0.433062 -0.396053,-0.510369 -0.157174,-0.138114 -0.456755,-0.488157 -0.936164,-1.093697 -0.133397,-0.168518 -0.29626,-0.355015 -0.36193,-0.414446 -0.110368,-0.09995 -0.121363,-0.100599 -0.145876,-0.01 -0.01462,0.05386 -0.0029,0.333127 0.02609,0.620487 0.03574,0.35454 0.03241,0.592701 -0.0101,0.740873 -0.05112,0.177683 -0.03796,0.487984 0.07015,1.66434 0.121753,1.325016 0.125562,1.45604 0.04578,1.566789 -0.130179,0.180663 -0.404288,0.195376 -0.542133,0.02905 -0.09698,-0.116977 -0.129688,-0.306321 -0.312285,-1.806877 -0.188829,-1.55201 -0.199601,-1.707299 -0.142819,-2.096736 0.03362,-0.231278 0.04355,-0.577517 0.02202,-0.769395 -0.02153,-0.191893 -0.0155,-0.450718 0.01328,-0.575141 0.02877,-0.124465 0.0547,-0.343312 0.05761,-0.486395 0.0052,-0.259513 0.0058,-0.260281 0.229135,-0.31985 0.123152,-0.03291 0.284116,-0.05163 0.357726,-0.04161 0.206269,0.02792 0.502698,0.260635 0.818651,0.642872 0.158127,0.191281 0.382664,0.433257 0.499017,0.537705 0.116356,0.104582 0.308792,0.315008 0.42765,0.467837 0.118867,0.152846 0.27657,0.348107 0.350473,0.433937 0.07392,0.08579 0.209944,0.266409 0.302326,0.401363 0.213031,0.311178 0.6897,0.847301 0.747552,0.840806 0.08432,-0.0089 0.08831,-0.18137 0.01863,-0.802467 -0.04539,-0.404694 -0.05174,-0.668123 -0.01765,-0.746637 0.0357,-0.08243 0.01912,-0.49345 -0.05153,-1.283882 -0.09607,-1.073776 -0.09679,-1.171388 -0.01125,-1.277781 0.0932,-0.115663 0.44374,-0.233901 0.574127,-0.193528 z"
   id="path3185"
   inkscape:connector-curvature="0"
   inkscape:transform-center-x="0.66707423"
   inkscape:transform-center-y="6.9435351" /><path
   style="fill:#ffffff;fill-opacity:1;stroke-width:0.06288531"
   d="m 62.080545,20.153045 c -0.154939,-0.06343 -0.267846,-0.224278 -0.302692,-0.431301 -0.01818,-0.108175 -0.06695,-0.320946 -0.108363,-0.47282 -0.04141,-0.151876 -0.07532,-0.38506 -0.07532,-0.518195 0,-0.133137 -0.02294,-0.300765 -0.05094,-0.372492 -0.02814,-0.07174 -0.0694,-0.273759 -0.0922,-0.448942 -0.02265,-0.175182 -0.07085,-0.425367 -0.107208,-0.555963 -0.08643,-0.310629 -0.168055,-0.650313 -0.218759,-0.90924 -0.04964,-0.252829 -0.222987,-0.694952 -0.272666,-0.694952 -0.05108,0 -0.183018,0.344951 -0.25714,0.671786 -0.03463,0.152893 -0.107064,0.423926 -0.16087,0.602295 -0.05396,0.178369 -0.114278,0.407706 -0.134478,0.509638 -0.0202,0.101927 -0.0694,0.310414 -0.109517,0.4633 -0.199063,0.760239 -0.264196,1.039108 -0.264196,1.131193 0,0.05541 -0.05122,0.151942 -0.113701,0.214488 -0.101436,0.101364 -0.153106,0.113715 -0.476158,0.113715 -0.247617,0 -0.393957,-0.02206 -0.461932,-0.06968 -0.05483,-0.03832 -0.202339,-0.283303 -0.328059,-0.544382 -0.125677,-0.261088 -0.294064,-0.555748 -0.374116,-0.654808 -0.07994,-0.09905 -0.145575,-0.208458 -0.145575,-0.243106 0,-0.03462 -0.07287,-0.143584 -0.161822,-0.242095 -0.08917,-0.09851 -0.21772,-0.301843 -0.286056,-0.451855 -0.148302,-0.325646 -0.471628,-0.769218 -0.543412,-0.745569 -0.141838,0.04665 -0.165603,0.249331 -0.166295,1.412498 -5.49e-4,0.937546 0.01299,1.204524 0.06883,1.337661 0.176179,0.42169 0.02164,0.729257 -0.352978,0.702319 -0.185499,-0.01342 -0.211169,-0.03134 -0.318203,-0.223001 l -0.116443,-0.208486 -0.01299,-1.575233 c -0.01299,-1.572172 -0.01299,-1.575983 0.104322,-1.965557 0.06479,-0.214681 0.150134,-0.439799 0.189742,-0.500266 0.103745,-0.158165 0.343108,-0.290448 0.526141,-0.290655 0.131737,-1.35e-4 0.200939,0.04427 0.416971,0.26766 0.142414,0.147308 0.348043,0.423556 0.456896,0.613875 0.26851,0.469494 0.759733,1.231879 0.93871,1.456891 0.08066,0.101336 0.196957,0.283751 0.258612,0.405388 0.17703,0.349377 0.264615,0.297201 0.367609,-0.218981 0.0303,-0.152894 0.101004,-0.423927 0.156657,-0.602297 0.0557,-0.178376 0.120482,-0.418132 0.144001,-0.532804 0.02366,-0.114667 0.08311,-0.302301 0.132459,-0.416966 0.04935,-0.114668 0.136355,-0.364856 0.193537,-0.555963 0.130006,-0.434377 0.321551,-0.823424 0.476649,-0.968006 0.15354,-0.143151 0.497312,-0.181919 0.734439,-0.08284 0.141838,0.0592 0.177954,0.103918 0.219798,0.271308 0.02742,0.110223 0.144824,0.481859 0.260661,0.825867 0.115865,0.344 0.231672,0.708848 0.2575,0.810775 0.02583,0.101927 0.06897,0.247867 0.09581,0.324309 0.02684,0.07644 0.06508,0.329844 0.08484,0.56311 0.01991,0.233264 0.05772,0.464197 0.08383,0.513202 0.02626,0.04894 0.06031,0.202153 0.07546,0.340331 0.0153,0.138187 0.057,0.365918 0.09263,0.506066 0.300341,1.183688 0.293935,1.111347 0.116154,1.313899 -0.14846,0.169159 -0.256505,0.199827 -0.439638,0.124869 z"
   id="path3099"
   inkscape:connector-curvature="0" /><path
   id="path4055"
   style="fill:#ffffff;stroke-width:0.05087656"
   d="m 91.785415,18.326427 c -0.153905,-0.03577 -0.416947,-0.08144 -0.584552,-0.101465 -0.420172,-0.05021 -0.600962,-0.15687 -1.049025,-0.61894 -0.591549,-0.610042 -0.604993,-0.648778 -0.604993,-1.742911 V 14.947795 L 89.731914,14.5935 c 0.23688,-0.453479 0.509071,-0.812862 0.726738,-0.959555 0.142919,-0.0963 0.239617,-0.115677 0.577697,-0.115677 0.392583,0 0.412566,0.0059 0.603139,0.178067 0.172475,0.155821 0.23045,0.178073 0.464055,0.17811 0.38524,4.9e-5 0.800814,0.215225 1.19273,0.617547 0.426136,0.437448 0.575082,0.835397 0.575082,1.53653 0,0.53876 -0.09606,0.906172 -0.421098,1.610747 -0.191414,0.414921 -0.18997,0.413859 -0.825379,0.608209 -0.46518,0.142285 -0.53765,0.149099 -0.839463,0.07894 z m 0.765862,-1.018605 c 0.06243,-0.05555 0.167227,-0.215464 0.232948,-0.355376 0.10236,-0.217942 0.119559,-0.333749 0.119978,-0.808451 6.03e-4,-0.68775 -0.08422,-0.891903 -0.504111,-1.212965 L 92.116111,14.713879 H 91.44734 c -0.812322,0 -0.812298,-1.6e-5 -1.008087,0.638246 -0.178334,0.581343 -0.154715,0.874746 0.102519,1.274027 0.09637,0.149593 0.175238,0.289642 0.175238,0.31122 0,0.04187 0.652324,0.383639 0.864896,0.453142 0.06998,0.02287 0.291155,0.03635 0.491551,0.02994 0.280122,-0.0089 0.390583,-0.03499 0.47782,-0.112632 z"
   inkscape:connector-curvature="0" /><path
   style="fill:#ffffff;stroke-width:0.06222876"
   d="m 74.835012,19.462823 c -0.0906,-0.05174 -0.337708,-0.09519 -0.549189,-0.09647 -0.314923,-0.0022 -0.459663,-0.04433 -0.79955,-0.234431 -0.228266,-0.127654 -0.566552,-0.381252 -0.751745,-0.56355 l -0.336735,-0.331448 v -1.071617 c 0,-0.951351 0.01856,-1.133907 0.164766,-1.626656 0.21256,-0.716088 0.519994,-1.321665 0.863827,-1.701586 l 0.273862,-0.302593 h 0.544937 c 0.538331,0 0.545682,0.0023 0.606984,0.18468 0.03415,0.101581 0.0429,0.286923 0.01944,0.411893 -0.03368,0.179483 -0.09757,0.255231 -0.303959,0.360547 -0.284308,0.145041 -0.565179,0.488471 -0.730591,0.89333 -0.364752,0.892728 -0.385306,0.979728 -0.385306,1.629838 0,0.354917 0.03072,0.702674 0.06822,0.7728 0.0375,0.07011 0.222788,0.207163 0.411692,0.304519 0.458584,0.236357 1.460858,0.29484 1.825549,0.10653 0.203265,-0.104957 0.232998,-0.153192 0.251217,-0.407475 0.01727,-0.240693 -0.0098,-0.319734 -0.160534,-0.477564 -0.167092,-0.174413 -0.218598,-0.189134 -0.661574,-0.189134 h -0.480366 l -0.133079,-0.260862 c -0.07323,-0.143468 -0.133079,-0.302725 -0.133079,-0.353903 0,-0.16684 0.572598,-0.636783 0.775892,-0.636783 0.361649,0 1.272475,0.310958 1.478803,0.504861 0.321667,0.302299 0.380142,0.522443 0.380142,1.431163 0,0.769729 -0.0098,0.831953 -0.157717,1.006644 -0.259973,0.306922 -1.287809,0.749215 -1.728449,0.74377 -0.103831,-0.0014 -0.262877,-0.04469 -0.353452,-0.09647 z"
   id="path3997"
   inkscape:connector-curvature="0" /><path
   style="fill:#ffffff;stroke-width:0.07114901"
   d="m 95.183119,18.525636 c -0.116775,-0.03496 -0.192077,-0.194046 -0.417644,-0.882191 l -0.174522,-0.532454 0.01729,-1.773949 0.01729,-1.773948 0.166621,-0.143251 c 0.133844,-0.115072 0.233042,-0.143252 0.504254,-0.143252 h 0.337631 l 0.76268,0.786857 c 0.419472,0.432771 0.827755,0.887359 0.907305,1.010194 0.07958,0.122835 0.276465,0.36892 0.4376,0.546856 0.161144,0.177934 0.337556,0.411477 0.392026,0.518982 0.12971,0.256094 0.26608,0.408333 0.33018,0.368715 0.10086,-0.06233 0.0558,-0.774236 -0.0659,-1.042703 -0.0691,-0.152379 -0.11875,-0.393238 -0.12063,-0.585493 -0.003,-0.190638 -0.0395,-0.374614 -0.0903,-0.441896 -0.0566,-0.07473 -0.0872,-0.255245 -0.0872,-0.513125 v -0.397852 l 0.19302,-0.02149 c 0.1062,-0.01183 0.28557,-0.0081 0.39872,0.0084 0.25681,0.03723 0.45409,0.307797 0.51204,0.702262 0.0225,0.152753 0.0906,0.434871 0.15145,0.626933 0.0765,0.241396 0.11067,0.527908 0.11067,0.928069 0,0.380204 0.0306,0.652032 0.0892,0.792061 0.0622,0.148967 0.0892,0.42604 0.0892,0.91972 0,0.624848 -0.0144,0.724612 -0.12308,0.862995 -0.1049,0.13344 -0.16883,0.156472 -0.43395,0.156472 h -0.31089 l -0.62733,-0.638393 c -0.345017,-0.351118 -0.681603,-0.745288 -0.747955,-0.875936 -0.06633,-0.130641 -0.192986,-0.304352 -0.281414,-0.386006 -0.08844,-0.08167 -0.247923,-0.282082 -0.354444,-0.445392 -0.231806,-0.355377 -1.040469,-1.217874 -1.141602,-1.217597 -0.145904,4.14e-4 -0.157655,0.425116 -0.02638,0.953664 0.07026,0.282632 0.127625,0.692798 0.127625,0.911479 0,0.263246 0.03457,0.461819 0.102359,0.587652 0.104943,0.194811 0.150908,0.995832 0.06229,1.084482 -0.05264,0.05267 -0.572928,0.0889 -0.705655,0.04917 z"
   id="path3969"
   inkscape:connector-curvature="0" /><path
   id="path3903"
   style="fill:#ffffff;stroke-width:0.07055387"
   d="m 86.513916,18.911352 c -0.157325,-0.03083 -0.963787,-0.854979 -0.963787,-0.984926 0,-0.05275 -0.112633,-0.218079 -0.250279,-0.367366 l -0.250279,-0.271435 -0.02014,-1.102479 c -0.02003,-1.096958 -0.01936,-1.104038 0.137466,-1.4134 0.0867,-0.171004 0.271091,-0.43327 0.409853,-0.582817 0.138764,-0.149546 0.298726,-0.364653 0.355474,-0.478012 0.206285,-0.412065 0.206684,-0.412222 1.041627,-0.412222 0.707321,0 0.782355,0.01111 1.128114,0.167946 0.40943,0.185645 0.685273,0.475531 0.945057,0.993149 0.152284,0.303436 0.154131,0.322599 0.150503,1.560556 l -0.0033,1.253346 -0.393839,0.794997 c -0.316688,0.639285 -0.422663,0.802497 -0.541057,0.833297 -0.160542,0.04174 -1.541929,0.04917 -1.745074,0.0095 z m 1.304026,-1.222421 c 0.339303,-0.530403 0.501193,-1.044017 0.539232,-1.710796 0.04262,-0.748315 0.0011,-0.844195 -0.58976,-1.378227 -0.35997,-0.325033 -0.483652,-0.405443 -0.559431,-0.363697 -0.139169,0.07666 -0.898515,0.767344 -1.070842,0.974015 -0.13432,0.161086 -0.145351,0.221404 -0.145351,0.794999 0,0.618857 6.89e-4,0.622115 0.255932,1.104779 0.14077,0.266242 0.359459,0.57762 0.486001,0.691941 0.204648,0.184888 0.265916,0.207854 0.554524,0.207854 h 0.324446 z"
   inkscape:connector-curvature="0" /><path
   style="fill:#ffffff;stroke-width:0.05489879"
   d="m 81.590669,19.288998 c -0.175824,-0.07558 -0.260596,-0.218768 -0.267904,-0.452514 -0.0043,-0.13295 0.0187,-0.255947 0.05585,-0.300791 0.08072,-0.09741 0.437959,-0.101249 0.663196,-0.0071 0.100383,0.04195 0.309498,0.06874 0.53651,0.06874 h 0.372014 l 0.293875,-0.282195 c 0.260951,-0.250571 0.293884,-0.301854 0.293884,-0.45757 0,-0.156565 -0.02086,-0.188507 -0.194745,-0.297816 -0.107106,-0.06735 -0.277222,-0.178331 -0.378032,-0.246641 -0.100816,-0.06831 -0.296699,-0.180629 -0.43531,-0.2496 -0.280642,-0.139658 -0.524386,-0.350053 -0.622503,-0.537348 -0.04322,-0.08258 -0.0646,-0.273114 -0.06399,-0.57278 5.36e-4,-0.365274 0.02528,-0.526537 0.131953,-0.864515 0.202938,-0.642899 0.305792,-0.79078 0.71495,-1.027916 0.100815,-0.05842 0.235879,-0.154426 0.300179,-0.213332 0.06425,-0.0589 0.369,-0.230895 0.677148,-0.382194 0.455062,-0.223444 0.602714,-0.275093 0.78647,-0.275093 0.26638,0 0.321102,0.06526 0.321102,0.38296 0,0.272276 -0.15762,0.467526 -0.412126,0.510525 -0.09978,0.01687 -0.248913,0.07973 -0.331417,0.139716 -0.08253,0.05998 -0.306684,0.190953 -0.498198,0.291032 -0.452024,0.236209 -0.756308,0.562683 -0.80076,0.859159 -0.04261,0.283922 0.0017,0.778963 0.07838,0.872017 0.03438,0.04184 0.218464,0.149903 0.409052,0.240117 0.263617,0.124782 0.413955,0.236263 0.628366,0.465912 0.155004,0.166033 0.303219,0.358111 0.329346,0.426836 0.06503,0.171155 0.05646,1.029385 -0.01183,1.180458 -0.09304,0.205812 -0.441164,0.543712 -0.666391,0.646836 -0.187895,0.08604 -0.310131,0.0993 -1.015492,0.11018 -0.441043,0.0068 -0.843133,-0.0052 -0.893534,-0.02704 z"
   id="path3901"
   inkscape:connector-curvature="0" /><path
   style="fill:#ffffff;stroke-width:0.06240884"
   d="M 75.81537,9.456578 C 75.658261,9.324379 75.632143,9.2632186 75.632143,9.0274447 V 8.7524876 l 0.51384,-0.1324154 c 0.282609,-0.072823 0.685598,-0.1321412 0.895535,-0.1317949 0.209946,3.463e-4 0.417933,-0.022336 0.462204,-0.050343 0.06528,-0.041354 0.07857,-0.3490662 0.0702,-1.6364406 -0.0059,-0.8719966 -0.03052,-1.6612297 -0.05513,-1.7538628 l -0.04479,-0.1684086 -0.641958,-0.036563 c -0.353067,-0.020128 -0.661765,-0.039954 -0.685983,-0.044081 -0.02421,-0.00447 -0.04411,-0.1508932 -0.04411,-0.3261875 0,-0.4315715 0.155023,-0.5619884 0.668567,-0.5624834 0.197503,-1.688e-4 0.517651,-0.031022 0.711442,-0.068624 0.19379,-0.037602 0.471251,-0.066417 0.616598,-0.064065 0.340968,0.00592 1.298288,0.152176 1.398437,0.2142786 0.04244,0.026319 0.324823,0.069072 0.627526,0.095015 0.302701,0.025958 0.578489,0.064498 0.612856,0.085766 0.03436,0.021225 0.06251,0.2083079 0.06251,0.4157241 0,0.4562134 0.06547,0.4299439 -1.125701,0.4517115 -0.473793,0.00866 -0.883397,0.037746 -0.910214,0.06457 -0.07659,0.076734 -0.09539,3.1271406 -0.02009,3.267818 0.05848,0.1093001 0.121074,0.118679 0.790986,0.118679 0.700099,0 0.734399,0.00592 0.911237,0.1546304 0.152799,0.1285628 0.180757,0.1900941 0.16599,0.3652166 -0.01476,0.1754847 -0.06173,0.2402916 -0.282019,0.3885775 l -0.264249,0.1779679 -2.033602,0.01681 -2.033583,0.01681 z"
   id="path3887"
   inkscape:connector-curvature="0" /><path
   style="fill:#ffffff;stroke-width:0.06240884"
   d="M 72.120805,9.8718735 C 72.025602,9.7917634 71.931099,9.643163 71.91078,9.5416474 71.890507,9.440139 71.78138,9.1522084 71.668317,8.9018269 71.555265,8.6514294 71.462771,8.4083446 71.462771,8.361619 71.462771,8.314883 71.348175,8.0407472 71.20813,7.7524028 71.068067,7.4640671 70.934105,7.1488847 70.910409,7.0519835 70.886688,6.9550924 70.805481,6.7304782 70.729889,6.5528335 70.244845,5.4130438 70.15764,5.1308923 70.182823,4.7826587 c 0.02884,-0.3983515 0.200978,-0.6374913 0.458946,-0.6374913 0.273897,0 0.458563,0.3137885 0.777606,1.3212797 0.112503,0.3552736 0.259248,0.7431207 0.326084,0.8618617 0.06685,0.1187511 0.152109,0.3301598 0.189499,0.4697912 0.09224,0.3446668 0.457863,0.9879297 0.561478,0.9879297 0.04617,0 0.120338,-0.085882 0.164788,-0.1908458 0.113124,-0.267151 0.330228,-0.9947042 0.329215,-1.1032136 -5.42e-4,-0.049607 0.07925,-0.3270936 0.177163,-0.6166024 0.09796,-0.2895001 0.229055,-0.7173648 0.291431,-0.9508081 0.06232,-0.2334361 0.155357,-0.5055189 0.206618,-0.6046393 0.09057,-0.1752105 0.103269,-0.1797283 0.457283,-0.1627987 l 0.364102,0.017474 -0.002,0.4697984 c -0.002,0.3549849 -0.04686,0.6132909 -0.184459,1.0570261 -0.100152,0.3229727 -0.19509,0.6665111 -0.210999,0.7634051 -0.03801,0.231807 -0.596328,1.9813584 -0.740157,2.3195898 -0.06183,0.1453352 -0.184499,0.443461 -0.272667,0.6624871 -0.08821,0.2190258 -0.215696,0.4370415 -0.283417,0.4844669 -0.188318,0.1318958 -0.474885,0.1065588 -0.67215,-0.059419 z"
   id="path3881"
   inkscape:connector-curvature="0" /><path
   id="path3879"
   style="fill:#ffffff;stroke-width:0.06240884"
   d="M 98.8142,8.5340592 C 99.06039,8.2847815 99.13044,8.1684357 99.17664,7.9321326 99.20814,7.7710365 99.29034,7.4811237 99.35926,7.2878898 99.5136,6.8553011 99.48205,6.5862397 99.22853,6.1741936 98.983,5.7751957 98.48431,5.2096461 98.28884,5.1085648 97.918776,4.9172039 97.375907,5.0812218 96.968862,5.5073939 c -0.364506,0.3816109 -0.959536,1.3390463 -0.959536,1.5439273 0,0.1512482 0.326428,0.7463109 0.554086,1.0100711 0.259808,0.3009944 0.684652,0.5146078 1.263032,0.6350745 0.240416,0.050054 0.449626,0.1035429 0.464886,0.1188088 0.084,0.084006 0.25082,-0.00592 0.52291,-0.2812222 z M 96.948848,9.5299714 C 95.987235,8.9954022 95.634641,8.6744495 95.277065,8.0081953 95.143437,7.7592061 95.128411,7.6649743 95.128411,7.0758881 V 6.4205595 l 0.289757,-0.5357853 c 0.232618,-0.4301199 0.403432,-0.647192 0.866169,-1.1007144 0.709766,-0.6956361 1.030918,-0.8737887 1.575121,-0.8737887 0.426032,0 0.608492,0.072751 1.262162,0.5035508 0.52609,0.3466796 0.66212,0.5051134 0.93652,1.090653 l 0.23795,0.5077901 v 1.0618252 c 0,1.3928479 -0.0655,1.6172024 -0.65153,2.2280263 -0.22466,0.2342094 -0.47559,0.4513551 -0.55762,0.4825421 -0.082,0.031253 -0.47113,0.056389 -0.86468,0.056014 l -0.715527,-5.459e-4 -0.557885,-0.310125 z"
   inkscape:connector-curvature="0" /><path
   style="fill:#ffffff;stroke-width:0.06240884"
   d="m 89.73111,10.195481 c -0.483676,-0.07823 -0.475062,-0.03766 -0.475062,-2.2380861 0,-1.4892253 0.01861,-1.9867245 0.08181,-2.1809468 0.04499,-0.1384035 0.09854,-0.4296697 0.11901,-0.64728 0.02047,-0.2176103 0.05248,-0.4353606 0.07108,-0.4838999 0.0187,-0.048568 0.196293,-0.1876094 0.394819,-0.3090414 l 0.360972,-0.220779 h 1.673624 1.673624 l 0.308235,0.1761614 c 0.294501,0.1683351 0.308245,0.1871016 0.308294,0.4214885 5.9e-5,0.1951212 -0.0316,0.2702258 -0.154668,0.3670303 -0.147098,0.1157066 -0.228829,0.1218822 -1.658947,0.1250999 -0.827311,0.00216 -1.609908,0.022105 -1.73911,0.045033 l -0.234882,0.041714 v 0.5862408 0.5862408 l 1.419279,0.029334 c 0.780599,0.016218 1.441231,0.051382 1.468078,0.078292 0.0635,0.06369 0.0635,0.7192955 2.9e-5,0.7829824 -0.02688,0.02691 -0.675518,0.062146 -1.441507,0.078307 -1.550164,0.032653 -1.660285,0.059044 -1.731364,0.4144269 -0.04725,0.2363248 -0.04754,1.1567944 -5.51e-4,1.332595 l 0.03544,0.1321269 1.710808,-0.00216 c 1.372487,-0.00144 1.739848,-0.018642 1.857629,-0.085997 0.218649,-0.1249989 0.432307,-0.1061979 0.580006,0.051079 0.111869,0.119083 0.128145,0.1930059 0.112994,0.5134722 -0.01713,0.3631841 -0.02304,0.3754721 -0.19384,0.4118181 -0.241548,0.05129 -4.224285,0.04674 -4.545811,-0.0059 z"
   id="path3871"
   inkscape:connector-curvature="0" /><path
   id="path3867"
   style="fill:#ffffff;stroke-width:0.06240884"
   d="m 83.295596,10.210688 c -0.274448,-0.04327 -0.322983,-0.117308 -0.322983,-0.4931288 0,-0.1891866 -0.03997,-0.443829 -0.0888,-0.5658875 -0.07482,-0.1871232 -0.08634,-0.5763844 -0.07344,-2.4822702 l 0.01535,-2.260334 1.145106,0.00289 c 1.014014,0.00216 1.182466,0.016738 1.471366,0.1253596 0.615751,0.2315199 0.914033,0.4203976 1.277605,0.8090759 l 0.363384,0.3884589 v 1.2180197 1.218027 l -0.204175,0.4260435 c -0.145956,0.3045742 -0.256718,0.4547821 -0.388488,0.5268581 -0.101378,0.055436 -0.290839,0.1878304 -0.421005,0.2941884 -0.303509,0.2479719 -0.378929,0.2868034 -0.757918,0.3901313 -0.172202,0.046952 -0.498067,0.1504589 -0.724159,0.2300091 -0.420168,0.147865 -0.97702,0.222322 -1.29193,0.172758 z m 1.429241,-1.3338119 c 0.154128,-0.078104 0.381883,-0.1610657 0.506122,-0.1843816 0.539268,-0.1011765 0.915559,-0.714808 0.959249,-1.5642636 0.02431,-0.4729222 0.01342,-0.5379814 -0.148505,-0.8808488 -0.148389,-0.314311 -0.223434,-0.3992865 -0.496957,-0.562645 -0.184095,-0.1099638 -0.463407,-0.2154215 -0.651674,-0.246063 -0.18122,-0.029478 -0.381824,-0.08164 -0.445794,-0.1158653 -0.06399,-0.034283 -0.26288,-0.062218 -0.442024,-0.062218 -0.293024,0 -0.329203,0.013852 -0.360392,0.1381437 -0.0191,0.075983 -0.02609,0.7175264 -0.01576,1.4256408 0.01802,1.2316783 0.02462,1.2947606 0.150997,1.455304 0.09598,0.121839 0.132141,0.2461135 0.132141,0.4535225 v 0.2856981 h 0.266209 c 0.165152,0 0.372589,-0.053878 0.546434,-0.1419963 z"
   inkscape:connector-curvature="0" /><path
   style="fill:#ffffff;stroke-width:0.06240884"
   d="m 101.51918,10.140528 c -0.0398,-0.02336 -0.11067,-0.127192 -0.15746,-0.2308186 -0.0838,-0.1860554 -0.0837,-0.1909786 0.0144,-0.3929998 l 0.0994,-0.2045779 h 0.88277 c 0.75399,0 0.93349,-0.013996 1.23054,-0.096126 0.42505,-0.1174813 0.55468,-0.1953419 0.55468,-0.3331307 0,-0.1602115 -0.20826,-0.3264674 -0.68969,-0.5505852 -0.24024,-0.1118396 -0.58164,-0.3012368 -0.75865,-0.4208839 -0.17702,-0.1196601 -0.47909,-0.2969455 -0.67125,-0.3939867 -0.36829,-0.1859732 -0.75242,-0.5508738 -0.80643,-0.7660441 -0.0156,-0.061987 -0.0188,-0.2621398 -0.007,-0.4447005 0.018,-0.2811717 0.0462,-0.3707747 0.18378,-0.5859162 0.0893,-0.139702 0.22205,-0.2997751 0.29488,-0.3557367 0.46934,-0.3606412 0.60988,-0.4351845 1.19404,-0.6333632 0.61846,-0.2098273 0.62534,-0.2109931 1.13669,-0.192674 0.52291,0.018729 0.77014,0.092909 1.00873,0.302658 0.10779,0.094799 0.11356,0.4937246 0.007,0.5343539 -0.13794,0.052926 -0.62038,0.027718 -0.78498,-0.041051 -0.0908,-0.037963 -0.22367,-0.068985 -0.29528,-0.068985 -0.20502,0 -0.92434,0.2502806 -1.26194,0.439076 -0.27138,0.1517648 -0.71167,0.5388082 -0.71167,0.6256091 0,0.017474 0.056,0.098276 0.12438,0.1795609 0.17263,0.2051609 0.66678,0.5124102 1.32261,0.8223968 0.48476,0.2291088 0.74559,0.3794508 1.16114,0.6692468 0.0563,0.039204 0.15889,0.1680018 0.22816,0.2861988 0.10649,0.1817642 0.12885,0.2797923 0.14435,0.6357959 0.0115,0.2624342 -9.8e-4,0.4577981 -0.0341,0.5188892 -0.0615,0.1150861 -0.86808,0.5131043 -1.03966,0.5131043 -0.0641,0 -0.2394,0.051671 -0.38961,0.1149568 -0.2573,0.10829 -0.32041,0.114855 -1.09063,0.113542 -0.44963,-5.4e-4 -0.85014,-0.0205 -0.89002,-0.04379 z"
   id="path3757"
   inkscape:connector-curvature="0" /></svg>