<?xml version="1.0" encoding="UTF-8" standalone="no"?>
<svg
   xmlns:dc="http://purl.org/dc/elements/1.1/"
   xmlns:cc="http://creativecommons.org/ns#"
   xmlns:rdf="http://www.w3.org/1999/02/22-rdf-syntax-ns#"
   xmlns:svg="http://www.w3.org/2000/svg"
   xmlns="http://www.w3.org/2000/svg"
   xmlns:sodipodi="http://sodipodi.sourceforge.net/DTD/sodipodi-0.dtd"
   xmlns:inkscape="http://www.inkscape.org/namespaces/inkscape"
   id="svg5647"
   viewBox="0 0 336.915707083 180.615465646"
   height="180.615465646mm"
   width="336.915707083mm"
   version="1.1"
   sodipodi:docname="pick-a-music-platform.svg"
   inkscape:version="0.92.3 (unknown)">
  <sodipodi:namedview
     pagecolor="#ffffff"
     bordercolor="#666666"
     borderopacity="1"
     objecttolerance="10"
     gridtolerance="10"
     guidetolerance="10"
     inkscape:pageopacity="0"
     inkscape:pageshadow="2"
     inkscape:window-width="1920"
     inkscape:window-height="1031"
     id="namedview2358"
     showgrid="false"
     inkscape:zoom="0.27485856"
     inkscape:cx="553.96589"
     inkscape:cy="135.44165"
     inkscape:window-x="0"
     inkscape:window-y="27"
     inkscape:window-maximized="1"
     inkscape:current-layer="svg5647" />
  <defs
     id="defs32" />
  <metadata
     id="metadata5644">
    <rdf:RDF>
      <cc:Work
         rdf:about="">
        <dc:format>image/svg+xml</dc:format>
        <dc:type
           rdf:resource="http://purl.org/dc/dcmitype/StillImage" />
      </cc:Work>
    </rdf:RDF>
  </metadata>
  <path
     style="fill:#000000;stroke:#000000;stroke-width:1.06500006;stroke-miterlimit:4;stroke-dasharray:none;stroke-opacity:1"
     d="m 303.88957,173.65849 c 0.6409,-0.13726 2.57238,-2.94393 3.06324,-4.45122 0.18954,-0.58208 0.56486,-1.38494 0.83404,-1.78413 0.26916,-0.39919 0.40709,-0.85899 0.30647,-1.02177 -0.1006,-0.16278 -0.0784,-0.37196 0.0494,-0.46483 0.23286,-0.16924 0.83894,-1.63048 1.02317,-2.46679 0.054,-0.24522 0.25228,-0.72147 0.44058,-1.05833 0.18828,-0.33687 0.36912,-0.89404 0.40185,-1.23817 0.0327,-0.34413 0.24416,-0.82976 0.46988,-1.07917 0.22571,-0.24941 0.41039,-0.65246 0.41039,-0.89567 0,-0.2432 0.10494,-0.44218 0.23318,-0.44218 0.12824,0 0.36809,-0.53578 0.53298,-1.19063 0.16488,-0.65484 0.41714,-1.19062 0.56057,-1.19062 0.14343,0 0.26077,-0.2311 0.26077,-0.51355 0,-0.28246 0.12536,-0.59102 0.27856,-0.68571 0.15319,-0.0947 0.2305,-0.31007 0.17179,-0.47863 -0.0587,-0.16857 0.11361,-0.59044 0.3829,-0.93748 0.26932,-0.34705 0.48967,-0.79353 0.48967,-0.99219 0,-0.19866 0.11906,-0.36119 0.26458,-0.36119 0.14552,0 0.26459,-0.23813 0.26459,-0.52917 0,-0.29104 0.1261,-0.52917 0.28019,-0.52917 0.15412,0 0.21809,-0.10048 0.14219,-0.2233 -0.24715,-0.39989 0.76477,-2.6329 1.50328,-3.31734 0.39611,-0.36708 0.72017,-0.83712 0.72017,-1.04453 0,-0.20741 0.17859,-0.52533 0.39687,-0.70649 0.21828,-0.18116 0.39688,-0.50478 0.39688,-0.71916 0,-0.21438 0.23021,-0.71308 0.51157,-1.10822 0.28136,-0.39514 0.59735,-1.06016 0.70218,-1.47781 0.22955,-0.91467 1.68211,-3.3094 2.00734,-3.3094 0.12737,0 0.34475,-0.29765 0.48307,-0.66145 0.13833,-0.36381 0.34642,-0.66146 0.46244,-0.66146 0.11605,0 0.4354,-0.41672 0.7097,-0.92604 0.27426,-0.50933 0.5974,-0.92605 0.71807,-0.92605 0.12065,0 0.399,-0.38695 0.61857,-0.85989 0.61254,-1.31935 1.44447,-2.6232 2.28492,-3.58108 0.79055,-0.901 1.00735,-1.6934 0.43183,-1.5783 -0.18191,0.0364 -0.30097,-0.0827 -0.26459,-0.26458 0.0753,-0.37654 -1.14406,-0.46255 -1.3702,-0.0966 -0.0796,0.12874 -0.47355,0.29603 -0.87553,0.37174 -0.40195,0.0757 -1.26074,0.33521 -1.90838,0.57665 -0.64765,0.24145 -1.38772,0.38403 -1.6446,0.31686 -0.25689,-0.0672 -0.45702,-0.0451 -0.44477,0.0492 0.0763,0.5864 -0.10718,0.78952 -0.62335,0.69011 -0.32063,-0.0617 -0.85223,0.0641 -1.18132,0.27977 -0.32908,0.21563 -0.95972,0.39205 -1.40139,0.39205 -0.44169,0 -0.80306,0.11367 -0.80306,0.25259 0,0.13893 -0.44649,0.32609 -0.99219,0.41592 -0.5457,0.0898 -1.27111,0.29983 -1.612,0.46668 -0.34089,0.16685 -0.81714,0.31651 -1.05833,0.33258 -1.19259,0.0795 -1.38279,0.14074 -1.22571,0.39492 0.11136,0.18019 -0.0795,0.21254 -0.55303,0.0937 -0.48289,-0.1212 -0.66527,-0.0879 -0.54901,0.10016 0.10205,0.16511 -0.15531,0.35398 -0.62201,0.45648 -0.43784,0.0962 -0.79605,0.28304 -0.79605,0.41529 0,0.13224 -0.20836,0.22298 -0.46303,0.20164 -0.9598,-0.0804 -1.38906,0.0577 -1.38906,0.44695 0,0.29171 -0.17346,0.35838 -0.63259,0.24315 -0.34793,-0.0873 -0.71215,-0.0301 -0.80936,0.12725 -0.0972,0.15731 -0.3933,0.28602 -0.65794,0.28602 -0.26464,0 -0.62936,0.17859 -0.81053,0.39688 -0.18116,0.21828 -0.61245,0.39687 -0.95842,0.39687 -0.346,0 -0.62908,0.12488 -0.62908,0.27752 0,0.15264 -0.50601,0.50721 -1.12447,0.78794 -1.17978,0.53552 -2.84427,0.69662 -2.84427,0.27529 0,-0.13572 -0.26745,-0.33164 -0.59431,-0.43538 -0.32687,-0.10374 -0.74528,-0.37965 -0.9298,-0.61314 -0.56179,-0.71082 -1.41602,-2.67592 -1.26762,-2.91605 0.17701,-0.28642 -0.36573,-1.8741 -0.64066,-1.8741 -0.21016,0 -0.58537,-1.29758 -0.65029,-2.24895 -0.0534,-0.78299 -0.38214,-1.19063 -0.96002,-1.19063 -0.28247,0 -0.51355,-0.16192 -0.51355,-0.35981 0,-0.1979 -0.31579,-0.58485 -0.70176,-0.8599 -1.29881,-0.92554 -1.67949,-1.4223 -1.67949,-2.19156 0,-0.42099 -0.16167,-0.82748 -0.35926,-0.9033 -0.19759,-0.0758 -0.43275,-0.50528 -0.52255,-0.95435 -0.0968,-0.48394 -0.32763,-0.81649 -0.56679,-0.81649 -0.2219,0 -0.4123,-0.14883 -0.42307,-0.33073 -0.0198,-0.33446 -2.59596,-2.48314 -3.30197,-2.75406 -0.21042,-0.0808 -0.38261,-0.36229 -0.38261,-0.62564 0,-0.26334 -0.12962,-0.52202 -0.28806,-0.57483 -0.20005,-0.0667 -0.16729,-0.55853 0.10716,-1.60955 0.21738,-0.83244 0.32856,-1.51352 0.24707,-1.51352 -0.0815,0 0.0289,-0.20836 0.24535,-0.46302 0.51792,-0.6094 1.27598,-2.28363 1.27598,-2.81812 0,-0.23267 0.11906,-0.42303 0.26458,-0.42303 0.14552,0 0.26458,-0.16867 0.26458,-0.37483 0,-0.20615 0.0893,-0.41451 0.19844,-0.46302 0.10914,-0.0485 0.65426,-1.04069 1.21139,-2.20486 0.55714,-1.16417 1.12671,-2.32987 1.26574,-2.59045 0.13902,-0.26058 0.1822,-0.588 0.0959,-0.7276 -0.0863,-0.1396 -0.0543,-0.25382 0.071,-0.25382 0.29421,0 1.04105,-2.17223 1.27352,-3.70417 0.0994,-0.65484 0.40454,-1.63237 0.67815,-2.172272 0.27361,-0.539906 0.49747,-1.284047 0.49747,-1.653646 0,-0.369599 0.11906,-0.671999 0.26458,-0.671999 0.14552,0 0.26459,-0.290629 0.26459,-0.645843 0,-0.355213 0.11906,-0.719428 0.26458,-0.809365 0.14552,-0.08994 0.26458,-0.384972 0.26458,-0.655633 0,-0.27066 0.16693,-0.82918 0.37092,-1.241155 0.61926,-1.250542 1.24026,-3.392868 1.37126,-4.730477 0.0682,-0.696098 0.34816,-1.772568 0.62225,-2.392156 0.27408,-0.619586 0.43791,-1.186926 0.36409,-1.260753 -0.0738,-0.07383 0.0353,-0.469897 0.24246,-0.880155 0.2072,-0.410255 0.57597,-1.142524 0.81952,-1.627259 0.24358,-0.484735 0.44284,-1.050282 0.44284,-1.256771 0,-0.206488 0.12427,-0.375433 0.27617,-0.375433 0.1519,0 0.2522,-0.148828 0.22286,-0.330729 -0.0293,-0.181901 0.008,-0.509323 0.0833,-0.727604 0.63588,-1.846781 0.75536,-2.313657 1.55753,-6.085507 0.1702,-0.800364 0.49548,-1.604036 0.72284,-1.785937 0.22738,-0.181901 0.2799,-0.330729 0.11671,-0.330729 -0.19749,0 -0.22741,-0.243242 -0.0895,-0.727604 0.11396,-0.400183 0.18854,-2.156354 0.16571,-3.902604 -0.023,-1.753037 0.0757,-3.332152 0.22032,-3.525896 0.18102,-0.24262 0.15091,-0.419441 -0.0976,-0.573048 -0.30142,-0.186282 -0.29181,-0.620921 0.0595,-2.691812 0.46455,-2.738811 0.46471,-6.764465 2.6e-4,-6.477416 -0.11081,0.06848 -0.21931,-0.728162 -0.24111,-1.770321 -0.0217,-1.042162 -0.12748,-2.252028 -0.23482,-2.68859 -0.10734,-0.436563 -0.2195,-1.865313 -0.24924,-3.174996 -0.0298,-1.30969 -0.12734,-2.55985 -0.21688,-2.77813 -0.0895,-0.21828 -0.13673,-0.635 -0.10493,-0.92604 0.0344,-0.31454 -0.0815,-0.50061 -0.28567,-0.45876 -0.25334,0.0519 -0.29919,-0.16588 -0.17468,-0.8296 0.10194,-0.54345 0.0546,-0.9706 -0.11951,-1.07821 -0.15859,-0.098 -0.28834,-0.40508 -0.28834,-0.68237 0,-0.46857 -0.93041,-2.35116 -1.75864,-3.55837 -0.25688,-0.37447 -0.35917,-0.41184 -0.36208,-0.13229 -0.003,0.33066 -0.0398,0.33319 -0.24011,0.0167 -0.12983,-0.20508 -0.17478,-0.53251 -0.0999,-0.7276 0.0749,-0.1951 0.008,-0.35473 -0.14846,-0.35473 -0.15653,0 -0.22225,-0.16249 -0.14602,-0.36109 0.0774,-0.20175 -0.24731,-0.68755 -0.73591,-1.10093 -0.48096,-0.40691 -0.84471,-0.83973 -0.80833,-0.96182 0.0364,-0.1221 -0.11949,-0.22199 -0.34634,-0.22199 -0.22688,0 -0.3442,-0.11049 -0.26075,-0.24553 0.0834,-0.13505 -0.10917,-0.32835 -0.42804,-0.42956 -0.31891,-0.10121 -0.88495,-0.46697 -1.25791,-0.8128 -0.37296,-0.34583 -0.74155,-0.62878 -0.8191,-0.62878 -0.0775,0 -0.36049,-0.40766 -0.62883,-0.90591 -0.29573,-0.54911 -0.62897,-0.85176 -0.84614,-0.76843 -0.19706,0.0756 -0.67548,-0.11203 -1.0632,-0.417 -0.3877,-0.30497 -0.85942,-0.55449 -1.04828,-0.55449 -0.18883,0 -0.41288,-0.21906 -0.49787,-0.4868 -0.16139,-0.50857 -0.97565,-1.01703 -1.84671,-1.15321 -0.2807,-0.0439 -0.47839,-0.18814 -0.43931,-0.32058 0.065,-0.22018 -0.46559,-0.6355 -0.96296,-0.7538 -0.11223,-0.0267 -0.52744,-0.37937 -0.92273,-0.78374 -0.39529,-0.40436 -0.96083,-0.7352 -1.25677,-0.7352 -0.29594,0 -0.53808,-0.11907 -0.53808,-0.26459 0,-0.14552 -0.15521,-0.26458 -0.34494,-0.26458 -0.4045,0 -3.16333,-1.32795 -3.36463,-1.61953 -0.17288,-0.25047 -1.64285,-0.86298 -1.9227,-0.80116 -0.11456,0.0253 -0.47863,-0.26828 -0.80907,-0.65242 -0.33041,-0.38414 -0.86328,-0.71304 -1.18414,-0.73089 -0.32086,-0.0179 -0.55208,-0.14078 -0.51385,-0.27316 0.0934,-0.32354 -1.86819,-0.88451 -2.76143,-0.78968 -0.48379,0.0514 -0.76149,-0.069 -0.86058,-0.37293 -0.18508,-0.56782 -2.09307,-1.4961 -2.64208,-1.28542 -0.22727,0.0872 -0.41325,0.0362 -0.41325,-0.11331 0,-0.14954 -0.11068,-0.20349 -0.24596,-0.11988 -0.1353,0.0836 -0.85492,-0.20702 -1.59916,-0.64584 -0.74425,-0.43883 -1.63857,-0.79786 -1.98737,-0.79786 -0.3488,0 -0.69808,-0.10337 -0.77615,-0.22971 -0.0781,-0.12634 -0.73996,-0.30904 -1.47085,-0.40599 -0.73086,-0.0969 -1.32884,-0.27172 -1.32884,-0.38838 0,-0.11665 -0.48345,-0.23103 -1.07432,-0.25419 -0.66598,-0.0261 -1.39507,-0.28116 -1.91823,-0.67107 -0.46415,-0.34593 -0.99673,-0.57338 -1.18353,-0.50543 -0.1868,0.0679 -0.5012,-0.0106 -0.69869,-0.17443 -0.19745,-0.16389 -0.72765,-0.32398 -1.17821,-0.35575 -0.45053,-0.0318 -0.87945,-0.21414 -0.95311,-0.40526 -0.0737,-0.19112 -0.25384,-0.27339 -0.40037,-0.18282 -0.14655,0.0906 -0.26646,0.0461 -0.26646,-0.0989 0,-0.15345 -0.38687,-0.20079 -0.92604,-0.11329 -0.54417,0.0883 -0.92604,0.0405 -0.92604,-0.11586 0,-0.14637 -0.29549,-0.26613 -0.65665,-0.26613 -0.41081,0 -0.59293,0.11143 -0.48649,0.29766 0.0936,0.16371 -0.14673,0.009 -0.53398,-0.34377 -0.48794,-0.4445 -0.70538,-0.52573 -0.70818,-0.26459 -0.003,0.31288 -0.0483,0.30948 -0.26458,-0.02 -0.22879,-0.34849 -0.29105,-0.3494 -0.51089,-0.007 -0.21841,0.33978 -0.27043,0.33713 -0.40777,-0.0208 -0.1047,-0.27278 -0.47049,-0.39988 -1.09157,-0.37928 -0.51374,0.017 -0.98785,-0.056 -1.05357,-0.16233 -0.0657,-0.10633 -0.68225,-0.27476 -1.37009,-0.37429 -0.68784,-0.0995 -1.36967,-0.26947 -1.51519,-0.37766 -0.28617,-0.21276 -1.85015,-0.5309 -3.26073,-0.6633 -0.48372,-0.0454 -0.93616,-0.13923 -1.00544,-0.2085 -0.0693,-0.0693 -0.53021,-0.0348 -1.0243,0.0767 -0.61344,0.13835 -1.05975,0.0896 -1.40721,-0.15381 -0.27987,-0.19602 -0.572,-0.29326 -0.64919,-0.21607 -0.0772,0.0772 -0.59884,0.0175 -1.15924,-0.13271 -0.56039,-0.15017 -2.11235,-0.32471 -3.4488,-0.38784 -1.33646,-0.0631 -2.54103,-0.18347 -2.67684,-0.2674 -0.23393,-0.14458 -3.70026,-0.45963 -5.53235,-0.50283 -0.46724,-0.011 -0.90724,-0.17044 -0.97778,-0.35427 -0.13822,-0.3602 -2.25665,-0.32929 -3.17704,0.0463 -0.30206,0.12327 -0.44413,0.10589 -0.35206,-0.0431 0.0865,-0.14002 -0.33039,-0.26141 -0.94879,-0.27625 -8.79484,-0.21104 -12.13529,-0.2231 -12.24586,-0.0442 -0.0733,0.11864 -0.3119,0.21571 -0.53018,0.21571 -0.21828,0 -0.32329,-0.11906 -0.23336,-0.26459 0.17054,-0.27593 -0.16091,-0.36773 -1.05833,-0.29312 -0.95511,0.0794 -3.1389,2.6e-4 -3.33482,-0.12077 -0.10552,-0.0652 -0.2525,0.031 -0.32661,0.21381 -0.10452,0.25783 -0.19229,0.25008 -0.39132,-0.0346 -0.15575,-0.22274 -0.5276,-0.31515 -0.94619,-0.23513 -0.37928,0.0725 -0.6896,0.0293 -0.6896,-0.0961 0,-0.12534 -0.44648,-0.2308 -0.99219,-0.23436 -0.5457,-0.004 -1.51145,-0.1262 -2.14612,-0.27253 -0.82826,-0.19098 -1.2566,-0.18086 -1.51771,0.0358 -0.22321,0.18525 -0.74855,0.23428 -1.35961,0.1269 -1.13339,-0.19919 -3.75954,-0.20907 -5.01731,-0.0189 -0.46557,0.0704 -0.91928,0.0102 -1.00825,-0.13373 -0.10482,-0.16961 -0.32954,-0.17194 -0.63844,-0.007 -0.289,0.15466 -1.03052,0.16756 -1.88333,0.0327 -0.8022,-0.12681 -1.75582,-0.11967 -2.21924,0.0166 -0.87642,0.25775 -2.70417,0.0611 -2.93724,-0.31597 -0.0806,-0.13034 -0.43545,-0.12028 -0.81236,0.023 -0.882,0.33533 -1.23692,0.32188 -1.01422,-0.0384 0.12573,-0.20344 -0.011,-0.22763 -0.44741,-0.0791 -0.34564,0.11757 -0.86657,0.19704 -1.15761,0.17658 -1.26219,-0.0887 -3.82489,-0.0793 -5.28152,0.0195 -0.86754,0.0588 -1.90038,0.0143 -2.29519,-0.0989 -0.39481,-0.11323 -0.78565,-0.13805 -0.86855,-0.0552 -0.17274,0.17275 -0.18107,0.17343 -5.84224,0.48237 -2.32833,0.12706 -5.037,0.23407 -6.01927,0.23781 -0.98227,0.004 -1.78594,0.0712 -1.78594,0.14991 0,0.0787 -1.27992,0.1784 -2.84427,0.22151 -1.56435,0.0431 -3.30213,0.0978 -3.86173,0.12146 -0.55961,0.0237 -1.07238,-0.0458 -1.1395,-0.15439 -0.0671,-0.10861 -0.44269,-0.0382 -0.83462,0.15637 -0.42765,0.21236 -1.34016,0.32079 -2.28209,0.27118 -0.86323,-0.0455 -1.72122,0.0433 -1.90664,0.19713 -0.18542,0.15389 -0.45981,0.20398 -0.60975,0.11131 -0.14994,-0.0927 -0.66125,-0.0612 -1.13625,0.07 -0.47499,0.13116 -1.10167,0.15322 -1.39261,0.049 -0.29095,-0.10418 -0.82312,-0.0794 -1.18262,0.0552 -0.64584,0.24167 -1.28069,0.32083 -4.90263,0.61131 -1.01864,0.0817 -2.56645,0.21408 -3.43958,0.29418 -0.87312,0.0801 -2.18281,0.16777 -2.91041,0.19483 -0.72761,0.0271 -1.48506,0.15146 -1.68323,0.27646 -0.21278,0.13421 -0.42945,0.11622 -0.52917,-0.0439 -0.2418,-0.38838 -1.11907,-0.45032 -1.88865,-0.13336 -0.3638,0.14983 -0.69827,0.17647 -0.74326,0.0592 -0.0938,-0.24465 -1.71739,-0.0616 -2.69632,0.30399 -0.85665,0.31994 -2.32057,0.56475 -3.24115,0.54202 -0.40018,-0.01 -0.7276,0.0963 -0.7276,0.23597 0,0.13967 -0.38695,0.2546 -0.8599,0.25541 -0.47294,8e-4 -1.32122,0.12957 -1.88506,0.28613 -1.60445,0.4455 -2.08297,0.54196 -3.07587,0.6201 -0.50933,0.0401 -0.90094,0.19546 -0.87025,0.34529 0.0307,0.14982 -0.42451,0.27904 -1.01156,0.28714 -0.58705,0.008 -1.24414,0.16145 -1.4602,0.34077 -0.21607,0.17931 -0.95149,0.34669 -1.63427,0.37195 -0.68279,0.0253 -1.50932,0.13204 -1.83674,0.23728 -0.36506,0.11735 -0.59532,0.0821 -0.59532,-0.0911 0,-0.45595 -0.64819,-0.32506 -1.27302,0.25706 -0.31848,0.29671 -0.57906,0.481 -0.57906,0.40953 0,-0.0715 -0.55611,0.0374 -1.23579,0.24198 -0.67969,0.20455 -1.33207,0.31242 -1.44974,0.23969 -0.11767,-0.0727 -0.4815,0.011 -0.80851,0.18597 -0.80651,0.43163 -2.1686,0.75675 -3.91429,0.93431 -0.80037,0.0814 -1.6338,0.30606 -1.85209,0.49924 -0.21828,0.19318 -0.99218,0.42236 -1.71979,0.50931 -1.94595,0.23251 -2.2149,0.287 -2.41769,0.48979 -0.10122,0.10122 -0.55115,0.18471 -0.99984,0.18552 -0.44869,7.9e-4 -1.24877,0.12174 -1.77795,0.26872 -0.52918,0.14699 -1.36379,0.30022 -1.85469,0.34052 -0.4909,0.0403 -1.05868,0.17595 -1.26174,0.30144 -0.20306,0.1255 -0.79158,0.27472 -1.30783,0.33161 -0.51625,0.0569 -1.06332,0.2009 -1.2157,0.32003 -0.15238,0.11912 -0.96989,0.28449 -1.81669,0.36749 -0.84679,0.083 -1.70931,0.29174 -1.9167,0.46387 -0.2074,0.17212 -0.67827,0.25537 -1.04638,0.185 -0.36811,-0.0704 -0.73421,-0.0229 -0.81355,0.10547 -0.0793,0.12838 -0.25509,0.16492 -0.39056,0.0812 -0.13547,-0.0837 -0.39513,-0.0559 -0.57703,0.0618 -0.1819,0.11773 -0.98557,0.3535 -1.78594,0.52393 -0.80036,0.17044 -2.11005,0.48837 -2.91042,0.70651 -1.71965,0.4687 -4.04746,0.95077 -5.15937,1.06847 -0.43656,0.0462 -1.12117,0.21815 -1.52135,0.38209 -0.40019,0.16395 -0.72761,0.21874 -0.72761,0.12177 0,-0.097 -0.16053,0.0432 -0.35674,0.31155 -0.1962,0.26832 -0.4914,0.40464 -0.65599,0.30292 -0.16458,-0.10173 -0.56206,-0.0443 -0.88326,0.1276 -0.32121,0.17191 -1.00762,0.36964 -1.52536,0.43941 -0.51774,0.0698 -1.17686,0.29182 -1.4647,0.49344 -0.28785,0.20161 -0.76803,0.36657 -1.06707,0.36657 -0.29905,0 -0.81064,0.18696 -1.13689,0.41547 -0.32624,0.22851 -0.86675,0.44464 -1.20114,0.48029 -0.33438,0.0356 -0.88152,0.25643 -1.21586,0.49061 -0.33435,0.23419 -0.75746,0.3684 -0.94026,0.29825 -0.1828,-0.0701 -0.40352,0.0579 -0.49049,0.28455 -0.087,0.22664 -0.34046,0.41208 -0.56331,0.41208 -0.22285,0 -0.40518,0.11906 -0.40518,0.26458 0,0.14552 -0.35719,0.26459 -0.79375,0.26459 -0.43656,0 -0.79375,0.12513 -0.79375,0.27808 0,0.15295 -0.41672,0.4522 -0.92604,0.66501 -0.50932,0.21281 -0.92604,0.50439 -0.92604,0.64796 0,0.14356 -0.24515,0.26103 -0.54478,0.26103 -0.29963,0 -0.4712,0.11906 -0.38126,0.26458 0.10275,0.16626 -0.49058,0.26459 -1.59666,0.26459 -1.53766,0 -1.77767,0.0669 -1.89855,0.52916 -0.0761,0.29104 -0.2422,0.52917 -0.36909,0.52917 -0.61222,0 -2.40526,1.8645 -2.23064,2.31956 0.0747,0.19456 0.0215,0.28317 -0.11805,0.1969 -0.13958,-0.0863 -0.32872,0.1417 -0.42031,0.5066 -0.0916,0.3649 -0.2439,0.64853 -0.33848,0.63028 -0.33538,-0.0647 -1.09801,0.37595 -1.09801,0.63446 0,0.63383 -0.9778,2.26657 -1.83938,3.07142 -0.51631,0.48231 -0.90164,1.05708 -0.8563,1.27728 0.0463,0.22457 -0.15573,0.46263 -0.46004,0.54221 -0.29837,0.078 -0.47838,0.24561 -0.40001,0.37241 0.0784,0.1268 -0.22063,0.5855 -0.66444,1.01934 -0.4438,0.43383 -0.80692,0.95018 -0.80692,1.14745 0,0.19726 -0.3443,0.82042 -0.76511,1.38481 -0.42082,0.56438 -0.70574,1.1809 -0.63316,1.37005 0.0726,0.18914 0.0224,0.34389 -0.11154,0.34389 -0.13392,0 -0.41084,0.42648 -0.61536,0.94772 -0.20452,0.52124 -0.57949,1.05884 -0.83328,1.19466 -0.25378,0.13582 -0.40091,0.40465 -0.32695,0.5974 0.074,0.19274 -0.0552,0.50784 -0.28696,0.700208 -0.33572,0.278625 -0.35162,0.394877 -0.0782,0.571558 0.2799,0.180859 0.27804,0.263874 -0.0101,0.44981 -0.19433,0.125413 -0.33215,0.274241 -0.30627,0.330729 0.0259,0.05649 -0.0725,0.400368 -0.21873,0.76417 -0.91582,2.279123 -1.45883,3.817874 -1.45883,4.133977 0,0.200168 -0.15875,0.36394 -0.35278,0.36394 -0.19402,0 -0.36766,0.238125 -0.38585,0.529166 -0.0182,0.291042 -0.0547,0.618464 -0.0811,0.727604 -0.0264,0.109141 -0.13733,0.573046 -0.24651,1.030899 -0.10917,0.457854 -0.42706,1.039312 -0.70642,1.29213 -0.27937,0.25282 -0.44096,0.568036 -0.3591,0.700484 0.0818,0.132448 0.009,0.408977 -0.16131,0.614508 -0.17058,0.205531 -0.23418,0.49661 -0.14133,0.646838 0.10436,0.168854 -0.006,0.20625 -0.28774,0.09795 -0.34983,-0.134244 -0.41683,-0.07169 -0.28663,0.267613 0.0935,0.243546 0.0546,0.442809 -0.0864,0.442809 -0.14095,0 -0.25628,0.239742 -0.25628,0.532757 0,0.484767 -0.20252,0.996191 -0.83679,2.113077 -0.12396,0.218281 -0.37196,0.694531 -0.5511,1.058333 -0.17915,0.363802 -0.47594,0.81879 -0.65954,1.011087 -0.1836,0.192294 -0.33382,0.626041 -0.33382,0.963879 0,0.337839 -0.17859,0.682784 -0.39687,0.766549 -0.25482,0.09778 -0.39833,0.51041 -0.40093,1.152786 -0.003,0.661276 -0.0812,0.87878 -0.23151,0.641514 -0.15856,-0.250245 -0.28228,-0.270279 -0.40844,-0.06614 -0.0995,0.161057 -0.11248,0.403666 -0.0288,0.539131 0.0837,0.135466 0.0185,0.328943 -0.14493,0.429947 -0.21603,0.133514 -0.20999,0.237512 0.0221,0.380963 0.22929,0.141709 0.0981,0.502688 -0.46572,1.280946 -0.43173,0.595998 -0.87192,0.998339 -0.9782,0.894093 -0.10627,-0.104248 -0.16394,0.108114 -0.12815,0.471916 0.0746,0.758595 -0.15843,1.422355 -0.85042,2.422094 -0.26736,0.386265 -0.48611,1.011343 -0.48611,1.389063 0,0.454384 -0.14386,0.68676 -0.42518,0.68676 -0.26526,0 -0.36908,0.146198 -0.27603,0.388691 0.082,0.213778 -0.0227,0.719794 -0.23286,1.12448 -0.21011,0.404682 -0.31793,0.938056 -0.23961,1.185275 0.0816,0.257468 -0.0952,0.687104 -0.41382,1.005721 -0.37882,0.378819 -0.50068,0.731268 -0.38206,1.105 0.11234,0.353946 0.0749,0.487408 -0.10548,0.375931 -0.29221,-0.180592 -0.92189,0.725612 -0.67544,0.972058 0.20456,0.204557 -0.4989,1.251177 -0.84094,1.251177 -0.33067,0 -0.3609,0.128881 -0.49651,2.116667 -0.0546,0.800364 -0.24178,1.812396 -0.41593,2.248958 -0.33576,0.841637 -0.37896,2.327542 -0.13077,4.497917 0.0832,0.727604 0.14933,1.590807 0.14696,1.918229 -0.002,0.327422 0.10545,0.595312 0.23961,0.595312 0.13415,0 0.23442,0.334296 0.2228,0.742881 -0.0283,0.997019 0.6406,2.30726 1.15831,2.268736 0.28082,-0.0209 0.37624,0.127948 0.29099,0.453927 -0.12462,0.476542 1.55166,2.355292 2.10147,2.355292 0.13488,0 0.68377,0.41568 1.21976,0.92375 0.53599,0.50806 1.06246,0.92478 1.16994,0.92604 0.24396,0.003 1.15431,0.72682 1.97178,1.56807 0.57843,0.59525 1.23404,1.04766 2.19843,1.51705 0.21828,0.10624 0.86122,0.52763 1.42876,0.93642 0.56754,0.40879 1.16744,0.74325 1.33312,0.74325 0.16568,0 0.76834,0.23815 1.33925,0.52921 0.57091,0.29107 1.24073,0.46488 1.48849,0.38624 0.26846,-0.0852 0.70885,0.11541 1.08996,0.49652 0.35172,0.35171 1.4919,0.90851 2.53373,1.23732 1.04184,0.32881 2.029,0.7602 2.1937,0.95865 0.3463,0.41726 1.29299,0.48772 1.29299,0.0962 0,-0.14552 0.11906,-0.26459 0.26458,-0.26459 0.14552,0 0.26459,0.1786 0.26459,0.39688 0,0.22369 0.23664,0.39687 0.5423,0.39687 0.29827,0 0.88999,0.1798 1.31493,0.39954 0.42494,0.21975 0.86551,0.37911 0.97905,0.35415 0.21246,-0.0467 1.38816,0.3794 2.32309,0.84196 0.29104,0.14399 0.88635,0.30694 1.32292,0.3621 0.43656,0.0552 1.2605,0.30215 1.83097,0.54885 0.57048,0.24671 1.46345,0.49192 1.98438,0.54492 1.77445,0.18052 3.06206,0.37122 4.51902,0.6693 2.30264,0.47109 2.7431,0.55318 3.32065,0.61889 0.29839,0.034 0.70346,0.16119 0.90014,0.28275 0.19669,0.12156 0.86166,0.24688 1.47773,0.2785 0.61606,0.0316 1.28256,0.15846 1.48111,0.28187 0.19855,0.12341 1.73022,0.2556 3.4037,0.29376 4.84347,0.11042 6.46365,0.20047 6.74688,0.37497 0.39199,0.24152 3.82101,-0.091 4.35748,-0.42256 0.15,-0.0927 0.27273,-0.0608 0.27273,0.0708 0,0.13165 0.67693,0.2615 1.50428,0.28853 0.82736,0.027 1.6581,0.17681 1.84609,0.33283 0.19723,0.16368 1.21164,0.25267 2.39832,0.21039 1.13108,-0.0403 2.23511,-2.7e-4 2.45339,0.0889 0.21828,0.0892 0.87313,0.22787 1.45521,0.30817 0.58208,0.0803 1.47505,0.24413 1.98437,0.36406 0.50933,0.11994 1.28323,0.19641 1.7198,0.16995 0.43656,-0.0265 0.91281,0.0446 1.05833,0.15801 0.14552,0.11337 1.27661,0.21292 2.51354,0.22122 2.84313,0.0191 7.33477,0.39846 7.57623,0.63991 0.0728,0.0728 0.52805,0.0231 1.01165,-0.1104 0.58881,-0.16258 1.12917,-0.14232 1.6358,0.0613 0.41609,0.16726 1.73982,0.34016 2.94162,0.38422 1.2018,0.0441 2.43706,0.16008 2.74501,0.25782 0.34985,0.11104 0.64679,0.043 0.79147,-0.18133 0.15643,-0.24255 0.29593,-0.26792 0.42999,-0.0782 0.10914,0.15446 0.43656,0.30277 0.72761,0.32957 0.29104,0.0268 1.06494,0.0978 1.71979,0.15776 0.65484,0.06 1.48828,0.15852 1.85208,0.21901 0.3638,0.0605 1.76281,0.0417 3.10892,-0.0417 1.34609,-0.0834 2.44742,-0.0549 2.44739,0.0635 -3e-5,0.11836 0.8968,0.15255 1.99297,0.076 1.09617,-0.0766 2.2936,-0.025 2.66095,0.11472 0.39513,0.15023 0.60615,0.15399 0.51667,0.009 -0.0832,-0.1346 0.0588,-0.30605 0.31561,-0.38099 0.50458,-0.14726 9.1062,0.003 12.76999,0.22319 2.87662,0.17281 5.55957,0.16509 6.15156,-0.0177 0.25466,-0.0786 0.46302,-0.014 0.46302,0.14363 0,0.15764 0.32743,0.27721 0.72761,0.26571 1.16682,-0.0335 6.14117,0.50402 6.45417,0.69746 0.15715,0.0971 0.37633,0.03 0.48707,-0.14921 0.14231,-0.23027 0.34699,-0.24903 0.69803,-0.064 0.71574,0.37727 6.34659,0.70304 6.547,0.37877 0.10331,-0.16717 0.53314,-0.13344 1.19193,0.0935 0.70042,0.24131 2.81945,0.37999 6.61741,0.43307 3.07287,0.043 5.58708,0.13968 5.58712,0.21496 4e-5,0.0753 0.44656,0.1125 0.99227,0.0827 0.5457,-0.0298 3.83958,-0.0914 7.31972,-0.13688 4.64269,-0.0607 6.355,-5.3e-4 6.43066,0.2254 0.0739,0.22076 0.34275,0.23606 0.9485,0.054 0.77476,-0.23292 3.43953,-0.29495 6.60305,-0.15371 0.92791,0.0414 1.22569,-0.0325 1.13044,-0.2806 -0.10375,-0.27026 -0.0128,-0.27236 0.46004,-0.0106 0.67436,0.37327 2.44809,0.5165 5.92286,0.47829 1.41821,-0.0156 2.49346,0.0872 2.59278,0.24792 0.16649,0.26938 1.48124,0.19525 2.78934,-0.15729 0.3638,-0.0981 1.43536,-0.19939 2.38125,-0.22522 0.94588,-0.0258 2.10674,-0.1343 2.57969,-0.24104 0.55894,-0.12617 0.85989,-0.0941 0.85989,0.0915 0,0.15708 0.29766,0.2856 0.66146,0.2856 0.3638,0 0.66154,-0.0893 0.66165,-0.19843 1e-4,-0.10915 0.29775,-0.21561 0.66145,-0.2366 0.3637,-0.021 0.6631,0.0981 0.66533,0.26459 0.003,0.1928 0.0746,0.20666 0.19843,0.0382 0.20313,-0.27649 4.29664,-0.38041 4.29587,-0.10906 -5.3e-4,0.22771 8.7805,0.0921 9.32612,-0.14406 0.25467,-0.11021 0.46302,-0.0972 0.46302,0.0289 0,0.28939 2.66396,0.29805 3.10886,0.0101 0.1819,-0.11773 0.33073,-0.11773 0.33073,0 -1e-5,0.11773 1.45851,0.17503 3.24114,0.12734 1.78263,-0.0477 3.7174,-0.0819 4.29948,-0.0759 0.58209,0.006 1.59412,-0.008 2.24896,-0.0303 0.65484,-0.0226 2.14313,-0.0479 3.30729,-0.0563 1.16417,-0.008 2.20414,-0.13436 2.31106,-0.27988 0.12038,-0.16386 0.19592,-0.13867 0.19844,0.0661 0.005,0.40999 1.35342,0.43063 2.75262,0.0421 0.56583,-0.15711 1.10161,-0.18621 1.19062,-0.0647 0.089,0.12154 0.51753,0.25968 0.95226,0.30699 0.43471,0.0473 0.86842,0.21224 0.96377,0.36654 0.10107,0.16353 0.47408,0.20506 0.89437,0.0996 0.49594,-0.12448 0.86821,-0.0477 1.19275,0.24601 0.32461,0.29377 0.52816,0.33573 0.65254,0.13451 0.2037,-0.32961 2.9995,-0.13389 4.11832,0.2883 0.37105,0.14002 1.56167,0.2936 2.64583,0.34129 1.08413,0.0477 2.26883,0.16407 2.63263,0.25863 0.3638,0.0946 1.13062,0.23382 1.70408,0.30945 1.41472,0.18662 1.64891,0.43253 2.85781,3.0009 0.57648,1.2247 1.45275,2.80239 1.94728,3.50597 0.49454,0.70359 0.89916,1.43922 0.89916,1.63474 0,0.19552 0.35388,0.70276 0.7864,1.12719 0.43251,0.42444 0.7897,0.89983 0.79375,1.05643 0.004,0.1566 0.42407,0.63218 0.9334,1.05685 0.50932,0.42467 0.92604,0.9804 0.92604,1.23497 0,0.48886 1.94545,2.05366 2.55323,2.05366 0.19645,0 0.35901,0.26789 0.36123,0.59531 0.003,0.4814 0.0531,0.51937 0.26054,0.19844 0.23074,-0.35703 0.37843,-0.19195 0.29591,0.33073 -0.0172,0.10914 0.15761,0.19844 0.38854,0.19844 0.2309,0 0.55507,0.35827 0.72035,0.79616 0.16529,0.43789 0.41386,0.75838 0.5524,0.7122 0.13851,-0.0462 0.58825,0.26806 0.99941,0.69829 0.41116,0.43024 0.74755,0.69389 0.74755,0.5859 0,-0.108 0.59558,0.23153 1.32353,0.7545 0.72795,0.52298 1.42626,0.95087 1.55183,0.95087 0.57029,0 1.5775,1.13201 1.72985,1.94421 0.1797,0.95787 -0.008,1.75995 -0.41124,1.75995 -0.13605,0 -0.49596,0.23163 -0.79984,0.51472 -0.55158,0.51389 -2.34103,0.63407 -3.03697,0.20396 -0.16346,-0.10103 -0.44883,-0.001 -0.63415,0.22232 -0.18531,0.2233 -0.51673,0.33702 -0.73644,0.25271 -0.21971,-0.0843 -0.47368,-0.0332 -0.56441,0.11357 -0.17097,0.27667 -1.01867,0.49112 -2.07579,0.52514 -0.33631,0.0108 -0.53742,0.1386 -0.44741,0.28425 0.16481,0.26665 -0.36197,0.38834 -1.30405,0.30124 -0.28067,-0.0259 -0.59539,0.0905 -0.6994,0.2588 -0.10401,0.16828 -0.80124,0.36479 -1.5494,0.43667 -0.98176,0.0943 -1.43584,0.27189 -1.63182,0.63805 -0.18087,0.33797 -0.43794,0.45451 -0.77007,0.34911 -0.27418,-0.087 -1.03431,0.0858 -1.68915,0.38415 -1.2465,0.56786 -1.89812,0.71628 -1.21965,0.27781 0.284,-0.18354 0.29922,-0.25763 0.0535,-0.26053 -0.18886,-0.002 -0.62923,0.3044 -0.97864,0.6814 -0.37703,0.40682 -0.76494,0.60531 -0.95427,0.48829 -0.18587,-0.11486 -0.2503,-0.0859 -0.15433,0.0693 0.0906,0.14656 -0.0164,0.49238 -0.23742,0.76848 -0.38568,0.4815 -0.39528,0.47727 -0.235,-0.10365 0.1528,-0.55383 0.10306,-0.59 -0.58161,-0.42268 -0.41179,0.10064 -1.03266,0.40295 -1.37972,0.6718 -0.34703,0.26885 -0.77893,0.48882 -0.95977,0.48882 -0.18085,0 -0.46202,0.1605 -0.62482,0.35667 -0.1628,0.19617 -1.01081,0.64059 -1.88447,0.98761 -0.87365,0.34701 -1.58847,0.79457 -1.58847,0.99455 0,0.22391 -0.1619,0.30149 -0.42135,0.20193 -0.2811,-0.10786 -0.46755,0.0148 -0.56005,0.36857 -0.0763,0.29164 -0.29535,0.53025 -0.48683,0.53025 -0.19151,0 -0.42378,0.23813 -0.51615,0.52917 -0.30771,0.96953 0.089,1.51378 1.33146,1.82663 0.65014,0.16371 1.18208,0.39931 1.18208,0.52355 0,0.12424 0.96967,0.24659 2.15482,0.27189 1.18518,0.0253 2.38207,0.16761 2.6598,0.31624 0.27774,0.14864 1.00468,0.27553 1.61547,0.282 0.61079,0.006 1.24741,0.12263 1.4147,0.25815 0.1673,0.13552 0.99491,0.19739 1.83917,0.1375 0.84426,-0.0599 1.89468,-0.006 2.33429,0.12033 0.43961,0.12607 1.45743,0.25028 2.26187,0.27601 0.80441,0.0257 1.5667,0.10217 1.69394,0.16986 0.12724,0.0677 0.78208,0.15955 1.45521,0.20412 1.66256,0.11009 2.72121,0.27306 3.27438,0.50406 0.27858,0.11633 0.46302,0.0767 0.46302,-0.0995 0,-0.16109 0.11906,-0.29289 0.26458,-0.29289 0.14552,0 0.26458,0.19133 0.26458,0.42518 0,0.25433 0.14783,0.36846 0.36786,0.28403 0.20232,-0.0776 0.64592,0.11798 0.98578,0.43471 0.48704,0.45392 0.96792,0.58278 2.27081,0.60848 0.95859,0.0189 2.06068,0.2261 2.62361,0.49323 0.53388,0.25333 1.45984,0.52582 2.05767,0.60552 0.59785,0.0797 1.47756,0.36376 1.95492,0.63125 0.47736,0.26749 1.16197,0.48635 1.52136,0.48635 0.35938,0 0.65341,0.10094 0.65341,0.22432 0,0.12337 0.37351,0.23494 0.83,0.24791 0.45651,0.013 0.95374,0.14733 1.10495,0.29856 0.19021,0.19021 0.38291,0.18536 0.62521,-0.0158 0.25525,-0.21182 0.35026,-0.21011 0.35026,0.006 0,0.16334 0.35719,0.29698 0.79375,0.29698 0.43656,0 0.79375,0.0937 0.79375,0.2083 0,0.11457 0.38695,0.23433 0.85989,0.26612 1.2672,0.0852 2.31511,0.33496 2.31511,0.55179 0,0.2801 1.63674,0.82355 2.53232,0.84081 0.42622,0.008 1.19169,0.17496 1.70101,0.37055 0.90046,0.34579 3.01823,0.46383 4.11345,0.22927 z"
     id="path5224" />
  <g
     id="g5290"
     transform="translate(-116.47658,194.4485)"
     style="fill:#ffffff">
    <path
       d="m 152.12006,-127.68048 c -0.50395,-0.40808 -0.96529,-2.13421 -1.42037,-5.31432 -0.11639,-0.8133 -0.34907,-1.80773 -0.5171,-2.20986 -0.2036,-0.48706 -0.30551,-1.44789 -0.30551,-2.87762 0,-1.44148 -0.10155,-2.38951 -0.30928,-2.8866 -0.17023,-0.40711 -0.30928,-1.09958 -0.30928,-1.5388 0,-0.43922 -0.13806,-1.25409 -0.30706,-1.81076 -0.16878,-0.55668 -0.30804,-1.40018 -0.30928,-1.87441 -0.002,-0.94223 0.26403,-1.22209 1.99989,-2.10054 0.79687,-0.40327 1.19558,-0.43929 4.86095,-0.43929 4.52199,0 4.32142,-0.07 5.32809,1.85568 0.43445,0.83097 0.48527,1.20023 0.48718,3.53724 l 0.002,2.60939 -0.63864,0.7927 c -0.35124,0.43596 -1.06439,1.0575 -1.58476,1.3812 -0.83941,0.52217 -1.19263,0.60115 -3.13062,0.70004 -1.20144,0.0612 -2.21894,0.1677 -2.2611,0.23624 -0.17266,0.28086 0.3135,3.78826 0.60246,4.34701 0.46166,0.89274 0.4498,5.68057 -0.0146,5.85877 -0.64391,0.24702 -1.69894,0.11782 -2.17314,-0.26599 z m 4.3831,-14.06917 c 1.18291,-0.54521 1.43755,-0.75593 1.63437,-1.35232 0.2703,-0.8189 -0.0277,-1.80231 -0.64628,-2.13342 -0.54104,-0.28961 -3.50492,-0.23769 -4.10901,0.072 -0.36234,0.18578 -0.50344,0.41446 -0.47502,0.77013 0.0823,1.03115 0.30241,2.78213 0.38097,3.03178 0.15122,0.48043 1.74911,0.28757 3.21497,-0.38813 z"
       style="fill:#ffffff;stroke-width:0.24692985"
       id="path4776-7"
       inkscape:connector-curvature="0" />
    <path
       id="path5020-7"
       d="m 173.67866,-126.43192 c -0.70301,-1.09897 -0.99691,-1.35837 -1.54025,-1.35949 -1.25337,-0.003 -2.41935,-0.48503 -3.25444,-1.34662 l -0.83255,-0.85897 0.44951,-0.99684 c 0.62214,-1.37967 0.85352,-1.51522 2.89763,-1.69778 l 1.79688,-0.16047 0.0728,-1.94945 c 0.048,-1.28548 -0.0572,-2.33073 -0.30866,-3.06888 -0.22892,-0.67178 -0.38144,-1.97819 -0.38144,-3.26694 0,-1.18113 -0.0719,-2.50693 -0.15973,-2.94622 l -0.15974,-0.79871 -1.38357,0.14988 c -0.76097,0.0824 -1.8376,0.21564 -2.3925,0.29605 -0.91313,0.13232 -1.07141,0.072 -1.66678,-0.63561 -0.432,-0.5134 -0.65785,-1.07187 -0.65785,-1.62667 0,-0.7399 0.14571,-0.93635 1.17292,-1.5814 l 1.17292,-0.73655 4.94539,-0.005 c 4.23986,-0.004 5.03001,0.0546 5.53858,0.4108 0.4406,0.30861 1.29643,0.44284 3.32677,0.52178 2.5895,0.10068 2.76237,0.14061 3.28026,0.75743 0.71807,0.8552 0.70432,1.64493 -0.0416,2.39087 -0.57263,0.57261 -0.7616,0.6061 -3.42081,0.6061 -3.97706,0 -5.85029,0.22247 -5.85029,0.69479 0,0.20763 0.19447,0.59205 0.43213,0.85426 0.36965,0.40784 0.44998,1.1603 0.55559,5.20498 l 0.12345,4.72821 2.34584,0.13127 c 1.29021,0.0722 2.56807,0.25373 2.83969,0.40345 0.27162,0.1497 0.99389,0.34876 1.60505,0.44236 2.04751,0.31358 1.97544,0.23711 1.97544,2.09531 v 1.681 l -0.77166,0.15435 c -0.42442,0.0849 -2.42456,0.15434 -4.44474,0.15434 -3.66992,0 -3.67308,5.1e-4 -3.67308,0.56888 0,0.71903 -1.44701,2.14734 -2.17545,2.14734 -0.39299,0 -0.79141,-0.38221 -1.41568,-1.35811 z"
       style="fill:#ffffff;stroke-width:0.24692985"
       inkscape:connector-curvature="0" />
    <path
       id="path5010-2"
       d="m 199.23647,-125.78769 c -0.40744,-0.12575 -1.45014,-0.39127 -2.31713,-0.59 -1.08709,-0.24918 -1.81517,-0.58938 -2.34585,-1.09611 -0.42322,-0.40414 -1.16809,-0.89834 -1.65532,-1.09824 -0.64533,-0.26479 -1.09018,-0.72556 -1.63863,-1.69736 -0.41405,-0.73365 -0.93214,-1.48274 -1.15134,-1.66465 -0.34281,-0.2845 -0.39851,-1.03194 -0.39851,-5.34629 0,-4.88131 0.0175,-5.05593 0.65431,-6.52425 0.64239,-1.48123 0.69069,-1.52602 2.65448,-2.46019 3.61569,-1.71998 5.7531,-2.3038 8.05218,-2.1994 1.85139,0.0841 2.07082,0.14968 2.61443,0.7817 0.44631,0.51884 0.59345,0.98038 0.59345,1.8614 0,0.64432 -0.13329,1.30484 -0.29632,1.46781 -0.19657,0.19663 -1.26602,0.29632 -3.17842,0.29632 h -2.88208 l -1.83876,1.20035 c -2.68843,1.75503 -2.91627,2.12091 -2.91627,4.68317 0,2.02602 0.0402,2.17961 0.98047,3.73238 1.29411,2.1374 1.65228,2.53256 2.97042,3.27715 1.07797,0.60892 1.2755,0.63096 6.6072,0.73693 l 5.49605,0.10925 0.73895,0.70795 c 0.40642,0.38937 0.73893,0.88759 0.73893,1.10716 0,0.67255 -1.54589,1.97645 -2.35758,1.98852 -0.40096,0.006 -1.17351,0.18295 -1.71677,0.39329 -1.16111,0.4496 -6.28428,0.67998 -7.40789,0.33312 z"
       style="fill:#ffffff;stroke-width:0.24692985"
       inkscape:connector-curvature="0" />
    <path
       id="path4760-3"
       d="m 213.47416,-123.96774 c -0.0761,-0.12307 -0.20328,-1.25983 -0.28261,-2.52577 -0.079,-1.26596 -0.25431,-2.50439 -0.38914,-2.75212 -0.18024,-0.33102 -0.24499,-3.20814 -0.24499,-10.85945 0,-5.72502 0.0563,-10.55587 0.12512,-10.73524 0.21699,-0.56551 1.7664,-0.43082 2.36469,0.20562 0.48679,0.51776 0.50257,0.64046 0.60296,4.69071 0.0968,3.90854 0.19599,4.67456 0.6045,4.67456 0.0924,0 0.7904,-0.5103 1.55128,-1.13402 0.76095,-0.62372 1.47765,-1.13405 1.59267,-1.13405 0.11491,0 0.82645,-0.58983 1.58089,-1.31076 0.75444,-0.7209 1.88201,-1.63785 2.50573,-2.03767 0.62372,-0.39979 1.59445,-1.20168 2.15722,-1.78201 0.99936,-1.0306 1.05101,-1.05516 2.21951,-1.05516 1.12848,0 1.21953,0.0379 1.60495,0.67013 0.77214,1.2664 0.43654,2.02148 -1.41847,3.19137 -0.6386,0.4028 -1.87076,1.39204 -2.73804,2.19834 -0.86727,0.80629 -1.83071,1.65654 -2.14096,1.88939 l -0.56408,0.42342 0.45077,1.0199 c 0.48641,1.10054 1.62425,2.87656 2.54146,3.96695 0.31411,0.37349 0.85903,1.25494 1.2109,1.95881 0.35185,0.70384 0.86148,1.57508 1.13248,1.93608 0.40288,0.53664 0.49274,0.9033 0.49274,2.01032 v 1.35395 h -1.41135 c -1.63589,0 -1.71697,-0.061 -2.70514,-2.03595 -0.3617,-0.72288 -1.01211,-1.83628 -1.44535,-2.47424 -0.43328,-0.63798 -0.94072,-1.53107 -1.12761,-1.98467 -0.68395,-1.65963 -2.84183,-3.33583 -3.31302,-2.5734 -0.0715,0.1155 -0.58076,0.43858 -1.13186,0.71784 -0.55107,0.27911 -1.14759,0.71565 -1.32561,0.96979 -0.42648,0.60894 -0.43526,3.14556 -0.0146,4.15294 0.23478,0.56201 0.30926,1.60644 0.30926,4.33823 0,1.9789 -0.0563,3.74478 -0.12511,3.92417 -0.0942,0.24586 -0.42138,0.32613 -1.32803,0.32613 -0.66161,0 -1.26523,-0.10091 -1.34138,-0.22399 z"
       style="fill:#ffffff;stroke-width:0.24692985"
       inkscape:connector-curvature="0" />
    <path
       d="m 266.0714,-127.72345 c -0.9084,-0.18144 -1.28498,-0.87782 -1.52646,-2.82298 -0.12775,-1.03003 -0.37725,-2.13948 -0.55414,-2.46544 -0.17703,-0.32597 -0.40379,-1.18637 -0.5042,-1.91202 -0.10033,-0.72565 -0.25549,-1.39236 -0.34435,-1.48158 -0.089,-0.0892 -1.85766,-0.19964 -3.93039,-0.24539 -3.65851,-0.0807 -3.78741,-0.0663 -4.41321,0.49385 -0.82119,0.73509 -1.51666,2.65531 -2.28825,6.31814 -0.17674,0.83912 -1.70212,0.77641 -2.62516,-0.10794 -0.63484,-0.60821 -0.69258,-0.81363 -0.69258,-2.4643 0,-0.99042 0.15749,-2.21972 0.35032,-2.73176 0.31977,-0.84985 1.84399,-5.7498 2.2483,-7.2277 0.0927,-0.33952 0.45716,-1.11735 0.8095,-1.7285 0.35235,-0.61115 0.95268,-1.75339 1.3341,-2.53831 0.38141,-0.78491 1.15137,-1.92387 1.71102,-2.53103 l 1.01756,-1.10391 h 1.97648 1.97648 l 1.01695,1.06355 c 1.66211,1.73824 4.05895,5.83706 4.86509,8.31978 0.86428,2.66164 1.70714,6.23405 1.71858,7.28386 0.006,0.54356 0.11928,1.48833 0.25198,2.09948 0.54031,2.48762 0.54757,2.82407 0.0703,3.2457 -0.50765,0.44843 -1.65739,0.69836 -2.46794,0.53648 z m -4.37317,-13.04579 c 0.0805,-0.21016 -0.27444,-1.02816 -0.81029,-1.86655 -1.51237,-2.36635 -1.90485,-2.78203 -2.46035,-2.60572 -0.97723,0.31015 -2.30228,4.04191 -1.6624,4.68179 0.0904,0.0905 1.20521,0.1646 2.47703,0.1646 1.83798,0 2.34189,-0.0768 2.45601,-0.37413 z"
       style="fill:#ffffff;stroke-width:0.24692985"
       id="path4998-7"
       inkscape:connector-curvature="0" />
    <path
       id="path4890-2"
       d="m 296.38977,-131.20871 c -0.2409,-0.0472 -0.65834,-0.32019 -0.92748,-0.60644 -0.46675,-0.49644 -0.49247,-0.67495 -0.55801,-3.87045 -0.0659,-3.21684 -0.0475,-3.40028 0.46375,-4.61494 0.29282,-0.69572 0.53433,-1.6619 0.53667,-2.14709 0.006,-1.13473 1.23825,-4.70284 1.94495,-5.62932 0.53908,-0.70683 0.5623,-0.71457 2.13963,-0.71457 h 1.59462 l 0.83975,1.28814 c 0.46185,0.70849 0.95964,1.52002 1.10614,1.80341 0.1464,0.2834 0.57005,0.872 0.94112,1.30802 0.37106,0.43602 0.92476,1.38119 1.23044,2.10039 0.66592,1.56685 1.06224,1.81426 1.39134,0.86859 0.12833,-0.36861 0.84791,-1.87589 1.59923,-3.34953 1.33246,-2.6137 1.39502,-2.69576 2.55334,-3.34918 2.41197,-1.36065 3.72383,-0.61508 4.73172,2.6892 0.2936,0.96256 0.5338,1.91826 0.5338,2.12379 0,0.20552 0.31213,1.39782 0.6936,2.64954 0.38148,1.25172 0.7895,2.64684 0.90671,3.10027 0.11725,0.45342 0.45235,1.47364 0.74476,2.26713 0.64691,1.75544 0.66289,2.15885 0.11316,2.85766 -0.57464,0.73051 -1.96971,0.77299 -2.60507,0.0794 -0.43544,-0.47537 -2.11674,-5.37501 -2.1249,-6.19224 -0.002,-0.25003 -0.19512,-0.87195 -0.42852,-1.38205 -0.23332,-0.51011 -0.50613,-1.42412 -0.60652,-2.03114 -0.19015,-1.15038 -0.47921,-1.67873 -0.91826,-1.67873 -0.27181,0 -1.13372,1.79799 -1.13372,2.36509 0,0.18187 -0.19833,0.71938 -0.44066,1.19445 -0.40186,0.78767 -0.82942,1.91204 -1.82074,4.78765 l -0.35528,1.03053 -1.14307,0.0611 -1.14306,0.0611 -0.83432,-1.19473 c -0.45891,-0.65709 -1.31333,-2.12218 -1.89881,-3.25575 -0.58546,-1.13357 -1.2734,-2.33927 -1.52877,-2.67935 -0.25548,-0.34007 -0.75692,-1.19797 -1.11454,-1.90645 -0.35759,-0.70848 -0.72101,-1.28815 -0.80758,-1.28815 -0.35954,0 -1.06875,3.03995 -1.10587,4.74038 -0.0233,0.96353 -0.16128,2.00233 -0.31198,2.30843 -0.36777,0.74778 -0.34727,3.03 0.0356,3.94593 0.81577,1.95244 0.0394,2.71754 -2.29306,2.25989 z"
       style="fill:#ffffff;stroke-width:0.24692985"
       inkscape:connector-curvature="0" />
    <path
       id="path5006-5"
       d="m 328.6733,-131.78101 c -1.69008,-0.5141 -2.77618,-1.41047 -3.61006,-2.97937 -0.36194,-0.68102 -0.48604,-1.59973 -0.5852,-4.33325 -0.1047,-2.88189 -0.20707,-3.59233 -0.60587,-4.1978 -0.54197,-0.82288 -0.8405,-4.65069 -0.41207,-5.28363 0.1607,-0.2376 0.70818,-0.36148 1.63659,-0.37039 1.55639,-0.0149 2.09664,0.39959 2.09664,1.60869 0,0.3649 0.16682,1.06235 0.37039,1.54992 0.2692,0.64428 0.3704,1.82798 0.3704,4.33248 0,3.34703 0.0175,3.46782 0.63929,4.20573 0.78291,0.93046 1.62889,0.98332 2.45858,0.15364 0.59593,-0.59592 0.60608,-0.67651 0.60608,-4.79904 0,-4.23474 0.16682,-5.2797 0.9357,-5.86391 0.64092,-0.48695 1.27841,-0.40156 2.18935,0.29325 l 0.82583,0.62989 v 5.19457 5.19456 l -0.90204,1.61298 c -0.4961,0.88714 -1.27763,1.9886 -1.73672,2.44769 -0.7614,0.7614 -0.95867,0.83285 -2.24634,0.81349 -0.77637,-0.0117 -1.69013,-0.10596 -2.03055,-0.2095 z"
       style="fill:#ffffff;stroke-width:0.24692985"
       inkscape:connector-curvature="0" />
    <path
       id="path4848-3"
       d="m 338.72257,-127.19224 c -0.79087,-0.33998 -1.17217,-0.984 -1.20501,-2.03536 -0.0204,-0.59797 0.084,-1.15123 0.2514,-1.35294 0.36313,-0.43814 1.96992,-0.45544 2.98302,-0.0321 0.4515,0.1887 1.39207,0.30915 2.41317,0.30915 h 1.67328 l 1.32184,-1.26929 c 1.17371,-1.12705 1.32184,-1.35771 1.32184,-2.05811 0,-0.70422 -0.0939,-0.84788 -0.87594,-1.33955 -0.48177,-0.30293 -1.24691,-0.80212 -1.70034,-1.10937 -0.45346,-0.30723 -1.33453,-0.81245 -1.95799,-1.12268 -1.26232,-0.62818 -2.35863,-1.57451 -2.79998,-2.41694 -0.19453,-0.37142 -0.29048,-1.22844 -0.28786,-2.57631 0.002,-1.64298 0.11374,-2.36832 0.59354,-3.88851 0.91277,-2.89171 1.37542,-3.55687 3.21575,-4.62348 0.45343,-0.26281 1.06099,-0.6946 1.35019,-0.95955 0.28903,-0.26497 1.65975,-1.03855 3.04576,-1.71908 2.04682,-1.00503 2.71097,-1.23734 3.53747,-1.23734 1.19816,0 1.44428,0.29356 1.44428,1.72252 0,1.22467 -0.70894,2.10289 -1.85372,2.29629 -0.44879,0.0758 -1.11959,0.35863 -1.49065,0.62846 -0.37104,0.26983 -1.37945,0.85889 -2.24086,1.30904 -2.03315,1.06245 -3.4018,2.53089 -3.60176,3.86442 -0.19161,1.27706 0.009,3.50371 0.35249,3.92226 0.15457,0.18817 0.98263,0.67425 1.83987,1.08002 1.18573,0.56128 1.86195,1.06269 2.82635,2.09563 0.69718,0.7468 1.36384,1.61075 1.48134,1.91987 0.2927,0.76984 0.25403,4.63008 -0.0534,5.3096 -0.41851,0.92572 -1.98432,2.44557 -2.99737,2.9094 -0.84514,0.38702 -1.39496,0.44667 -4.56761,0.49558 -1.98377,0.0306 -3.79231,-0.0233 -4.01901,-0.12162 z"
       style="fill:#ffffff;stroke-width:0.24692985"
       inkscape:connector-curvature="0" />
    <path
       id="path4788-7"
       d="m 360.89776,-129.99713 c -0.72279,-0.27065 -1.59647,-0.38845 -2.92319,-0.39448 -1.79388,-0.006 -1.91448,-0.0367 -2.31961,-0.55184 -0.25368,-0.3225 -0.42732,-0.84678 -0.42732,-1.29016 0,-0.669 0.10205,-0.80971 0.97938,-1.34941 0.74237,-0.45672 1.30371,-0.62425 2.3196,-0.69226 0.7371,-0.0496 1.45621,-0.18315 1.59795,-0.29752 0.34989,-0.28201 0.32475,-1.56501 -0.0516,-2.63154 -0.16997,-0.4821 -0.30967,-1.4912 -0.31017,-2.2424 0,-1.04668 -0.12102,-1.60285 -0.51544,-2.3802 -0.28305,-0.55786 -0.51461,-1.17866 -0.51461,-1.37955 0,-0.57282 -0.36336,-0.68013 -2.71672,-0.80232 -2.44274,-0.12687 -3.05649,-0.41697 -3.05649,-1.44481 0,-0.65772 0.84452,-1.64764 1.40562,-1.64764 0.21699,0 0.63032,-0.18549 0.91869,-0.41239 0.31816,-0.25024 0.83561,-0.4121 1.31646,-0.41172 0.43572,5.3e-4 1.45833,-0.19687 2.27243,-0.43806 1.88404,-0.55839 2.77431,-0.42248 3.64032,0.55568 l 0.62548,0.70649 h 2.29462 c 2.25835,0 2.30362,0.009 2.86263,0.59286 0.45715,0.47716 0.55523,0.74886 0.50253,1.39179 -0.0597,0.72585 -0.15608,0.84377 -1.05667,1.29031 -0.96917,0.48057 -1.0142,0.48399 -2.03398,0.15458 -1.31181,-0.42365 -2.11225,-0.42775 -2.5272,-0.0117 -0.43225,0.43225 -0.44175,3.0552 -0.0146,4.0772 0.17775,0.42546 0.31025,1.3786 0.31155,2.24168 0.003,0.8258 0.0599,1.8494 0.13004,2.27469 l 0.12785,0.77319 h 2.41649 c 1.32905,0 2.69671,0.0977 3.03921,0.21699 0.74579,0.25986 1.36031,1.29784 1.2618,2.13102 -0.0638,0.53973 -0.20576,0.63865 -1.51371,1.05583 -0.79382,0.25315 -2.18559,0.51082 -3.09279,0.57254 -0.9072,0.0618 -1.99443,0.25927 -2.41609,0.43905 -0.94457,0.40265 -1.23169,0.39189 -2.53238,-0.0951 z"
       style="fill:#ffffff;stroke-width:0.24692985"
       inkscape:connector-curvature="0" />
    <path
       id="path4758-6"
       d="m 390.92872,-124.69502 c -0.91294,-0.32435 -1.69328,-0.40419 -4.00251,-0.40959 -3.72687,-0.009 -4.84201,-0.30395 -7.40781,-1.96097 -0.82518,-0.5329 -1.13913,-0.96853 -2.37757,-3.29896 -2.5323,-4.76526 -2.29465,-3.88975 -2.29465,-8.45459 v -4.03342 l 0.84923,-1.69644 c 0.46707,-0.93308 1.27892,-2.16486 1.80414,-2.73736 0.52518,-0.57252 1.1057,-1.32536 1.28998,-1.67297 0.18434,-0.34762 0.84341,-0.96942 1.46465,-1.38177 l 1.12951,-0.74977 h 2.50449 2.50444 v 1.51771 1.51769 l -1.08249,0.13007 c -0.59533,0.0715 -1.3436,0.13065 -1.6628,0.13183 -0.7507,0.002 -2.45377,1.43415 -3.19024,2.68224 -0.30112,0.5103 -0.8432,1.31804 -1.20456,1.79501 -0.90914,1.19997 -1.17475,2.14555 -1.17534,4.18438 0,2.05783 0.59233,4.062 1.98255,6.70106 0.74343,1.4112 1.02447,1.74211 1.9457,2.29081 0.59221,0.35275 1.79842,0.90683 2.68044,1.23135 1.46552,0.53921 1.91442,0.60016 5.21189,0.70784 3.48411,0.11374 3.64228,0.13794 4.5969,0.69867 l 0.98864,0.58085 -0.061,1.26588 -0.061,1.26583 -1.64949,0.0487 c -1.211,0.0359 -1.95093,-0.0583 -2.7835,-0.3541 z"
       style="fill:#ffffff;stroke-width:0.24692985"
       inkscape:connector-curvature="0" />
    <path
       id="path5016-8"
       d="m 223.80567,-88.657759 c -0.6698,-0.42902 -1.23365,-0.47463 -5.88359,-0.4758 h -5.14277 l -0.72181,-0.72178 -0.7218,-0.72181 v -10.097161 -10.09693 l 0.709,-0.67926 c 0.59167,-0.56684 0.88796,-0.66643 1.79026,-0.60179 l 1.08123,0.0775 0.12337,9.16056 c 0.098,7.261231 0.19366,9.245151 0.46235,9.568531 0.29585,0.35612 1.01211,0.40796 5.63665,0.40796 h 5.29776 l 0.7218,0.72181 c 0.92424,0.92424 0.95603,2.01109 0.0919,3.14401 -0.54413,0.7134 -0.77106,0.82339 -1.66678,0.8078 -0.57291,-0.01 -1.36836,-0.23037 -1.77766,-0.49257 z"
       style="fill:#ffffff;stroke-width:0.24692985"
       inkscape:connector-curvature="0" />
    <path
       d="m 245.92317,-88.6589 c -0.9084,-0.18142 -1.28498,-0.8778 -1.52646,-2.82297 -0.12775,-1.03002 -0.37725,-2.13947 -0.55414,-2.46544 -0.17703,-0.32596 -0.40379,-1.18636 -0.5042,-1.91201 -0.10033,-0.72567 -0.25549,-1.39237 -0.34435,-1.48159 -0.089,-0.0892 -1.85766,-0.19965 -3.93039,-0.2454 -3.65851,-0.0807 -3.78741,-0.0663 -4.41321,0.49385 -0.82119,0.73509 -1.51666,2.65533 -2.28825,6.31814 -0.17674,0.83913 -1.70212,0.77642 -2.62516,-0.10792 -0.63484,-0.60823 -0.69258,-0.81365 -0.69258,-2.46431 0,-0.99041 0.15749,-2.21972 0.35032,-2.73177 0.31977,-0.84984 1.84399,-5.74979 2.2483,-7.2277 0.0927,-0.33951 0.45716,-1.11733 0.8095,-1.72849 0.35235,-0.61114 0.95268,-1.7534 1.3341,-2.53831 0.38141,-0.78491 1.15137,-1.92387 1.71102,-2.53103 l 1.01756,-1.10392 h 1.97648 1.97648 l 1.01695,1.06357 c 1.66211,1.73823 4.05895,5.83705 4.86509,8.31977 0.86428,2.66163 1.70714,6.23406 1.71858,7.28385 0.006,0.54356 0.11928,1.48833 0.25198,2.09949 0.54031,2.48761 0.54757,2.82406 0.0703,3.2457 -0.50765,0.44844 -1.65739,0.69837 -2.46794,0.53647 z M 241.55,-101.70468 c 0.0805,-0.21016 -0.27444,-1.02817 -0.81029,-1.86656 -1.51237,-2.36635 -1.90485,-2.78201 -2.46035,-2.60572 -0.97723,0.31017 -2.30228,4.04191 -1.6624,4.6818 0.0904,0.0905 1.20521,0.1646 2.47703,0.1646 1.83798,0 2.34189,-0.0768 2.45601,-0.37412 z"
       style="fill:#ffffff;stroke-width:0.24692985"
       id="path4998-1"
       inkscape:connector-curvature="0" />
    <path
       id="path4974-3"
       d="m 255.13522,-89.940724 c -0.0802,-0.13007 -0.43937,-1.10048 -0.79775,-2.15641 -0.59739,-1.76027 -0.65172,-2.30505 -0.65338,-6.55243 -0.003,-4.232146 -0.0513,-4.734426 -0.57452,-5.811336 -0.48219,-0.99248 -0.76287,-1.24195 -1.77609,-1.5785 -2.01877,-0.67054 -2.35609,-1.02643 -2.35609,-2.48584 0,-1.14298 0.093,-1.34961 0.87416,-1.94556 1.02424,-0.78121 1.96394,-0.84416 3.12491,-0.20942 0.70687,0.38656 1.78842,0.47771 6.97899,0.58812 l 6.14249,0.13065 0.0761,1.86629 0.0764,1.86624 -3.9111,0.0954 c -2.15112,0.0525 -4.00855,0.19248 -4.12763,0.31117 -0.11929,0.11869 -0.2549,1.861 -0.30195,3.87184 -0.0729,3.115856 -0.006,3.920136 0.45746,5.443236 0.53255,1.75332 0.72515,4.91964 0.37806,6.21483 -0.14232,0.53128 -0.31734,0.58811 -1.81065,0.58811 -0.90921,0 -1.71886,-0.10644 -1.79927,-0.23651 z"
       style="fill:#ffffff;stroke-width:0.24692985"
       inkscape:connector-curvature="0" />
    <path
       id="path4882-6"
       d="m 268.83099,-91.19212 c -0.34861,-0.69689 -0.5387,-1.5059 -0.62349,-2.65316 -0.0671,-0.90779 -0.26569,-1.99462 -0.44144,-2.41512 -0.25432,-0.60878 -0.31947,-1.65293 -0.31947,-5.12593 0,-4.16312 0.0233,-4.42807 0.52879,-5.82904 0.62194,-1.72619 1.01969,-2.19797 2.55479,-3.03019 1.69288,-0.91779 3.43295,-1.26688 6.8094,-1.36607 2.42306,-0.0712 3.2225,-0.0199 4.22513,0.27149 1.62437,0.47196 1.75188,0.59084 1.75188,1.63353 0,0.73401 -0.10762,0.97441 -0.63414,1.41748 l -0.63413,0.53359 h -4.40813 c -4.14732,0 -4.4208,0.0236 -4.62154,0.39865 -0.11724,0.21926 -0.2132,1.32432 -0.2132,2.45565 v 2.057 l 1.59728,0.13687 c 1.62484,0.13925 3.6136,0.76557 5.10107,1.60658 0.69129,0.39084 0.83446,0.58565 0.88673,1.20642 0.0519,0.61595 -0.0461,0.83153 -0.58257,1.28304 -0.72291,0.60828 -1.35842,0.66453 -2.5713,0.2276 -0.82062,-0.29565 -3.71092,-0.40786 -4.57003,-0.17749 -0.43657,0.11711 -0.44964,0.21836 -0.51523,3.99947 -0.037,2.1336 -0.13882,3.9506 -0.22603,4.03778 -0.0875,0.0872 -0.70652,0.19804 -1.37574,0.24643 l -1.21685,0.0881 z"
       style="fill:#ffffff;stroke-width:0.24692985"
       inkscape:connector-curvature="0" />
    <path
       id="path4802-4"
       d="m 359.06935,-92.213525 c -0.53479,-0.56219 -0.92651,-1.24357 -1.02902,-1.78991 -0.091,-0.48519 -0.38271,-1.30526 -0.64816,-1.82234 -0.26541,-0.51715 -0.94285,-2.24721 -1.50535,-3.84461 -1.787,-5.074765 -1.79782,-5.100615 -2.06788,-4.927865 -0.14175,0.0904 -0.49575,0.63521 -0.78696,1.21031 -0.29107,0.57502 -0.76876,1.35998 -1.06131,1.74432 -0.29256,0.38425 -0.7925,1.26113 -1.11098,1.948605 -0.31852,0.68739 -1.02684,1.70609 -1.5741,2.26367 -2.04175,2.08044 -3.70126,1.14985 -6.04393,-3.389155 -1.63636,-3.1704 -2.85382,-5.14671 -3.33715,-5.41719 -0.39448,-0.22076 -0.49277,-0.0204 -1.30227,2.66322 -0.28144,0.93323 -1.26552,3.26517 -2.18658,5.182025 -1.27544,2.65441 -1.9227,3.72367 -2.71499,4.48538 -1.01471,0.97554 -1.07412,0.99845 -2.4127,0.92942 l -1.37236,-0.0709 -0.0697,-1.47172 c -0.0677,-1.43301 -0.0452,-1.49823 0.86042,-2.48078 1.00022,-1.08506 2.8726,-4.593225 3.16099,-5.922335 0.0971,-0.44728 0.47693,-1.34591 0.84423,-1.99694 0.36731,-0.65106 0.83558,-1.74873 1.04067,-2.4393 0.20503,-0.69054 0.72148,-1.94781 1.14755,-2.79387 0.63098,-1.25299 0.95545,-1.62774 1.74899,-2.02041 l 0.97429,-0.48199 1.36159,0.68733 c 0.7489,0.37801 1.3616,0.76848 1.3616,0.8677 0,0.0992 0.5264,1.01264 1.16974,2.02973 0.64338,1.01711 1.74553,2.97325 2.44925,4.34705 0.70366,1.37377 1.3261,2.49774 1.38315,2.49774 0.0572,0 0.47527,-0.70577 0.92939,-1.56834 0.96361,-1.83012 2.08915,-3.3791 3.71095,-5.10701 1.04008,-1.10816 1.28726,-1.25238 2.36032,-1.37716 0.65922,-0.0764 1.56065,-0.0715 2.00325,0.0116 0.74727,0.14028 0.82426,0.2377 1.07957,1.36589 0.15137,0.66818 0.41698,1.84224 0.59056,2.60896 0.48916,2.16055 1.40508,4.87464 1.93376,5.73033 0.26336,0.42648 0.73516,1.455055 1.04816,2.285695 0.313,0.83066 0.91201,2.25962 1.33123,3.17552 0.70036,1.53043 0.7374,1.7248 0.45716,2.40134 -0.45433,1.09696 -0.86121,1.39364 -1.91115,1.39364 -0.80084,0 -1.08339,-0.14148 -1.81228,-0.90774 z"
       style="fill:#ffffff;stroke-width:0.24692985"
       inkscape:connector-curvature="0" />
    <path
       d="m 196.95533,-90.982434 c -0.50395,-0.40807 -0.96529,-2.1342 -1.42037,-5.31431 -0.11639,-0.8133 -0.34907,-1.80774 -0.5171,-2.20986 -0.2036,-0.48707 -0.30551,-1.44789 -0.30551,-2.877616 0,-1.44148 -0.10155,-2.38951 -0.30928,-2.8866 -0.17023,-0.40711 -0.30928,-1.09958 -0.30928,-1.5388 0,-0.43922 -0.13806,-1.25409 -0.30706,-1.81076 -0.16878,-0.55668 -0.30804,-1.40019 -0.30928,-1.87442 -0.002,-0.94223 0.26403,-1.22209 1.99989,-2.10054 0.79687,-0.40327 1.19558,-0.43929 4.86095,-0.43929 4.52199,0 4.32142,-0.07 5.32809,1.85568 0.43445,0.83097 0.48527,1.20023 0.48718,3.53725 l 0.002,2.60939 -0.63864,0.7927 c -0.35124,0.43596 -1.06439,1.0575 -1.58476,1.3812 -0.83941,0.52217 -1.19263,0.60115 -3.13062,0.70003 -1.20144,0.0612 -2.21894,0.1677 -2.2611,0.23625 -0.17266,0.28086 0.3135,3.788256 0.60246,4.347006 0.46166,0.89273 0.4498,5.68056 -0.0146,5.85876 -0.64391,0.24702 -1.69894,0.11782 -2.17314,-0.26599 z m 4.3831,-14.069156 c 1.18291,-0.54521 1.43755,-0.75593 1.63437,-1.35232 0.2703,-0.8189 -0.0277,-1.80231 -0.64628,-2.13343 -0.54104,-0.28961 -3.50492,-0.23769 -4.10901,0.072 -0.36234,0.18579 -0.50344,0.41447 -0.47502,0.77014 0.0823,1.03115 0.30241,2.78213 0.38097,3.03178 0.15122,0.48043 1.74911,0.28757 3.21497,-0.38813 z"
       style="fill:#ffffff;stroke-width:0.24692985"
       id="path4776-7-0"
       inkscape:connector-curvature="0" />
    <path
       d="m 292.91322,-91.35736 c -0.74697,-0.17364 -2.02367,-0.39524 -2.83714,-0.49243 -2.0393,-0.24367 -2.91676,-0.76137 -5.09144,-3.00403 -2.87108,-2.96084 -2.93633,-3.14884 -2.93633,-8.45923 v -4.44249 l 0.89823,-1.71958 c 1.14968,-2.20096 2.47076,-3.94523 3.52723,-4.65721 0.69366,-0.46744 1.16296,-0.56141 2.80383,-0.56141 1.90541,0 2.00241,0.0286 2.92735,0.86425 0.83712,0.75628 1.1185,0.86428 2.25229,0.86445 1.86976,2.5e-4 3.88675,1.0446 5.78895,2.99728 2.06826,2.12316 2.79114,4.05461 2.79114,7.45756 0,2.61488 -0.46617,4.39811 -2.04379,7.81778 -0.92902,2.01382 -0.92202,2.00867 -4.00598,2.95195 -2.25777,0.69057 -2.60947,0.72364 -4.07434,0.38311 z m 3.7171,-4.9438 c 0.30288,-0.2696 0.81166,-1.04576 1.13061,-1.72482 0.49682,-1.05779 0.58026,-1.61986 0.58233,-3.92383 0.003,-3.338 -0.4088,-4.32885 -2.4467,-5.88713 l -1.37831,-1.05395 h -3.24588 c -3.94261,0 -3.94249,-8e-5 -4.89277,3.09773 -0.86553,2.82156 -0.75091,4.2456 0.49758,6.1835 0.46778,0.72606 0.85051,1.40578 0.85051,1.51052 0,0.20322 3.16609,1.86199 4.1978,2.19932 0.33954,0.111 1.4131,0.17642 2.38575,0.14533 1.35955,-0.0435 1.89569,-0.16983 2.31908,-0.54667 z"
       style="fill:#ffffff;stroke-width:0.24692985"
       id="path5002-3"
       inkscape:connector-curvature="0" />
    <path
       id="path4752-5"
       d="m 307.77087,-92.893156 c -0.20444,-0.1537 -0.45558,-0.60185 -0.55754,-0.99572 -0.55571,-2.146569 -0.68996,-2.652729 -0.9283,-3.499679 -0.6971,-2.477351 -1.18978,-4.130105 -1.56744,-5.257715 -0.22807,-0.68042 -0.49245,-1.70104 -0.58793,-2.26807 -0.0954,-0.56699 -0.27532,-1.29212 -0.39971,-1.61136 -0.13037,-0.33432 -0.22603,-1.97149 -0.22603,-3.86124 v -3.28082 l 0.56703,-0.35473 c 0.31186,-0.19512 0.60287,-0.37996 0.64667,-0.41088 0.0438,-0.0309 0.18957,-0.54608 0.32446,-1.14487 0.20591,-0.91645 0.37888,-1.1831 1.09223,-1.68521 0.71393,-0.50245 1.16648,-0.62949 2.87146,-0.80603 4.06049,-0.42047 6.45896,-0.13736 8.28856,0.97811 1.84781,1.12658 2.61403,2.05335 3.21188,3.88477 1.21653,3.72684 0.34893,5.79391 -3.80634,9.06858 l -0.72166,0.56871 0.54821,0.43619 c 0.30154,0.24003 1.91611,1.07085 3.58793,1.84652 1.67182,0.77567 3.40335,1.668534 3.84785,1.984064 0.4445,0.3156 1.08502,0.75937 1.42342,0.986161 0.3384,0.22661 1.21327,0.91035 1.94417,1.519 1.2939,1.077499 1.32887,1.132499 1.32887,2.089929 0,0.91563 -0.0481,1.00619 -0.70124,1.31607 -0.38571,0.18286 -0.94611,0.33274 -1.24535,0.33274 -0.81136,0 -2.03472,-0.70221 -2.6666,-1.53066 -0.37638,-0.49342 -1.07543,-0.97161 -2.13855,-1.462799 -0.86868,-0.40134 -1.72377,-0.86034 -1.90019,-1.02002 -0.38381,-0.34732 -3.01489,-1.771531 -5.95945,-3.225845 -2.64747,-1.30759 -3.7392,-2.31305 -3.7392,-3.44377 0,-1.00048 0.64687,-1.65045 2.47496,-2.48693 1.28731,-0.58898 3.10552,-2.19545 3.99012,-3.5254 0.78223,-1.17607 0.21203,-2.70248 -1.60422,-4.29521 l -0.77695,-0.68132 -2.60896,0.0811 c -1.78002,0.0554 -3.03478,0.20824 -3.94919,0.4814 l -1.34019,0.40023 0.077,1.84941 c 0.0426,1.02611 0.24907,2.3891 0.46392,3.06182 0.21291,0.66683 0.38705,1.38265 0.38705,1.59074 0,0.20795 0.14991,0.82027 0.33344,1.36049 0.18345,0.54019 0.41152,1.44807 0.50692,2.01751 0.33519,2.00086 0.66187,3.3113 1.02909,4.128134 0.86045,1.914121 1.4886,5.96295 1.03596,6.67766 -0.25636,0.40466 -2.08853,0.54005 -2.55593,0.18899 z"
       style="fill:#ffffff;stroke-width:0.24692985"
       inkscape:connector-curvature="0" />
  </g>
</svg>
