<?xml version="1.0" encoding="UTF-8" standalone="no"?>
<svg
   xmlns:dc="http://purl.org/dc/elements/1.1/"
   xmlns:cc="http://creativecommons.org/ns#"
   xmlns:rdf="http://www.w3.org/1999/02/22-rdf-syntax-ns#"
   xmlns:svg="http://www.w3.org/2000/svg"
   xmlns="http://www.w3.org/2000/svg"
   xmlns:sodipodi="http://sodipodi.sourceforge.net/DTD/sodipodi-0.dtd"
   xmlns:inkscape="http://www.inkscape.org/namespaces/inkscape"
   id="svg5647"
   viewBox="0 0 336.915707083 180.615465646"
   height="180.615465646mm"
   width="336.915707083mm"
   version="1.1"
   sodipodi:docname="selecciona-una-plataforma.svg"
   inkscape:version="0.92.3 (unknown)">
  <sodipodi:namedview
     pagecolor="#ffffff"
     bordercolor="#666666"
     borderopacity="1"
     objecttolerance="10"
     gridtolerance="10"
     guidetolerance="10"
     inkscape:pageopacity="0"
     inkscape:pageshadow="2"
     inkscape:window-width="1920"
     inkscape:window-height="1031"
     id="namedview2358"
     showgrid="false"
     inkscape:zoom="0.3887087"
     inkscape:cx="69.358669"
     inkscape:cy="228.9735"
     inkscape:window-x="0"
     inkscape:window-y="27"
     inkscape:window-maximized="1"
     inkscape:current-layer="svg5647" />
  <defs
     id="defs32" />
  <metadata
     id="metadata5644">
    <rdf:RDF>
      <cc:Work
         rdf:about="">
        <dc:format>image/svg+xml</dc:format>
        <dc:type
           rdf:resource="http://purl.org/dc/dcmitype/StillImage" />
        <dc:title></dc:title>
      </cc:Work>
    </rdf:RDF>
  </metadata>
  <path
     style="fill:#000000;stroke:#000000;stroke-width:1.06500006;stroke-miterlimit:4;stroke-dasharray:none;stroke-opacity:1"
     d="m 303.88957,173.65849 c 0.6409,-0.13726 2.57238,-2.94393 3.06324,-4.45122 0.18954,-0.58208 0.56486,-1.38494 0.83404,-1.78413 0.26916,-0.39919 0.40709,-0.85899 0.30647,-1.02177 -0.1006,-0.16278 -0.0784,-0.37196 0.0494,-0.46483 0.23286,-0.16924 0.83894,-1.63048 1.02317,-2.46679 0.054,-0.24522 0.25228,-0.72147 0.44058,-1.05833 0.18828,-0.33687 0.36912,-0.89404 0.40185,-1.23817 0.0327,-0.34413 0.24416,-0.82976 0.46988,-1.07917 0.22571,-0.24941 0.41039,-0.65246 0.41039,-0.89567 0,-0.2432 0.10494,-0.44218 0.23318,-0.44218 0.12824,0 0.36809,-0.53578 0.53298,-1.19063 0.16488,-0.65484 0.41714,-1.19062 0.56057,-1.19062 0.14343,0 0.26077,-0.2311 0.26077,-0.51355 0,-0.28246 0.12536,-0.59102 0.27856,-0.68571 0.15319,-0.0947 0.2305,-0.31007 0.17179,-0.47863 -0.0587,-0.16857 0.11361,-0.59044 0.3829,-0.93748 0.26932,-0.34705 0.48967,-0.79353 0.48967,-0.99219 0,-0.19866 0.11906,-0.36119 0.26458,-0.36119 0.14552,0 0.26459,-0.23813 0.26459,-0.52917 0,-0.29104 0.1261,-0.52917 0.28019,-0.52917 0.15412,0 0.21809,-0.10048 0.14219,-0.2233 -0.24715,-0.39989 0.76477,-2.6329 1.50328,-3.31734 0.39611,-0.36708 0.72017,-0.83712 0.72017,-1.04453 0,-0.20741 0.17859,-0.52533 0.39687,-0.70649 0.21828,-0.18116 0.39688,-0.50478 0.39688,-0.71916 0,-0.21438 0.23021,-0.71308 0.51157,-1.10822 0.28136,-0.39514 0.59735,-1.06016 0.70218,-1.47781 0.22955,-0.91467 1.68211,-3.3094 2.00734,-3.3094 0.12737,0 0.34475,-0.29765 0.48307,-0.66145 0.13833,-0.36381 0.34642,-0.66146 0.46244,-0.66146 0.11605,0 0.4354,-0.41672 0.7097,-0.92604 0.27426,-0.50933 0.5974,-0.92605 0.71807,-0.92605 0.12065,0 0.399,-0.38695 0.61857,-0.85989 0.61254,-1.31935 1.44447,-2.6232 2.28492,-3.58108 0.79055,-0.901 1.00735,-1.6934 0.43183,-1.5783 -0.18191,0.0364 -0.30097,-0.0827 -0.26459,-0.26458 0.0753,-0.37654 -1.14406,-0.46255 -1.3702,-0.0966 -0.0796,0.12874 -0.47355,0.29603 -0.87553,0.37174 -0.40195,0.0757 -1.26074,0.33521 -1.90838,0.57665 -0.64765,0.24145 -1.38772,0.38403 -1.6446,0.31686 -0.25689,-0.0672 -0.45702,-0.0451 -0.44477,0.0492 0.0763,0.5864 -0.10718,0.78952 -0.62335,0.69011 -0.32063,-0.0617 -0.85223,0.0641 -1.18132,0.27977 -0.32908,0.21563 -0.95972,0.39205 -1.40139,0.39205 -0.44169,0 -0.80306,0.11367 -0.80306,0.25259 0,0.13893 -0.44649,0.32609 -0.99219,0.41592 -0.5457,0.0898 -1.27111,0.29983 -1.612,0.46668 -0.34089,0.16685 -0.81714,0.31651 -1.05833,0.33258 -1.19259,0.0795 -1.38279,0.14074 -1.22571,0.39492 0.11136,0.18019 -0.0795,0.21254 -0.55303,0.0937 -0.48289,-0.1212 -0.66527,-0.0879 -0.54901,0.10016 0.10205,0.16511 -0.15531,0.35398 -0.62201,0.45648 -0.43784,0.0962 -0.79605,0.28304 -0.79605,0.41529 0,0.13224 -0.20836,0.22298 -0.46303,0.20164 -0.9598,-0.0804 -1.38906,0.0577 -1.38906,0.44695 0,0.29171 -0.17346,0.35838 -0.63259,0.24315 -0.34793,-0.0873 -0.71215,-0.0301 -0.80936,0.12725 -0.0972,0.15731 -0.3933,0.28602 -0.65794,0.28602 -0.26464,0 -0.62936,0.17859 -0.81053,0.39688 -0.18116,0.21828 -0.61245,0.39687 -0.95842,0.39687 -0.346,0 -0.62908,0.12488 -0.62908,0.27752 0,0.15264 -0.50601,0.50721 -1.12447,0.78794 -1.17978,0.53552 -2.84427,0.69662 -2.84427,0.27529 0,-0.13572 -0.26745,-0.33164 -0.59431,-0.43538 -0.32687,-0.10374 -0.74528,-0.37965 -0.9298,-0.61314 -0.56179,-0.71082 -1.41602,-2.67592 -1.26762,-2.91605 0.17701,-0.28642 -0.36573,-1.8741 -0.64066,-1.8741 -0.21016,0 -0.58537,-1.29758 -0.65029,-2.24895 -0.0534,-0.78299 -0.38214,-1.19063 -0.96002,-1.19063 -0.28247,0 -0.51355,-0.16192 -0.51355,-0.35981 0,-0.1979 -0.31579,-0.58485 -0.70176,-0.8599 -1.29881,-0.92554 -1.67949,-1.4223 -1.67949,-2.19156 0,-0.42099 -0.16167,-0.82748 -0.35926,-0.9033 -0.19759,-0.0758 -0.43275,-0.50528 -0.52255,-0.95435 -0.0968,-0.48394 -0.32763,-0.81649 -0.56679,-0.81649 -0.2219,0 -0.4123,-0.14883 -0.42307,-0.33073 -0.0198,-0.33446 -2.59596,-2.48314 -3.30197,-2.75406 -0.21042,-0.0808 -0.38261,-0.36229 -0.38261,-0.62564 0,-0.26334 -0.12962,-0.52202 -0.28806,-0.57483 -0.20005,-0.0667 -0.16729,-0.55853 0.10716,-1.60955 0.21738,-0.83244 0.32856,-1.51352 0.24707,-1.51352 -0.0815,0 0.0289,-0.20836 0.24535,-0.46302 0.51792,-0.6094 1.27598,-2.28363 1.27598,-2.81812 0,-0.23267 0.11906,-0.42303 0.26458,-0.42303 0.14552,0 0.26458,-0.16867 0.26458,-0.37483 0,-0.20615 0.0893,-0.41451 0.19844,-0.46302 0.10914,-0.0485 0.65426,-1.04069 1.21139,-2.20486 0.55714,-1.16417 1.12671,-2.32987 1.26574,-2.59045 0.13902,-0.26058 0.1822,-0.588 0.0959,-0.7276 -0.0863,-0.1396 -0.0543,-0.25382 0.071,-0.25382 0.29421,0 1.04105,-2.17223 1.27352,-3.70417 0.0994,-0.65484 0.40454,-1.63237 0.67815,-2.172272 0.27361,-0.539906 0.49747,-1.284047 0.49747,-1.653646 0,-0.369599 0.11906,-0.671999 0.26458,-0.671999 0.14552,0 0.26459,-0.290629 0.26459,-0.645843 0,-0.355213 0.11906,-0.719428 0.26458,-0.809365 0.14552,-0.08994 0.26458,-0.384972 0.26458,-0.655633 0,-0.27066 0.16693,-0.82918 0.37092,-1.241155 0.61926,-1.250542 1.24026,-3.392868 1.37126,-4.730477 0.0682,-0.696098 0.34816,-1.772568 0.62225,-2.392156 0.27408,-0.619586 0.43791,-1.186926 0.36409,-1.260753 -0.0738,-0.07383 0.0353,-0.469897 0.24246,-0.880155 0.2072,-0.410255 0.57597,-1.142524 0.81952,-1.627259 0.24358,-0.484735 0.44284,-1.050282 0.44284,-1.256771 0,-0.206488 0.12427,-0.375433 0.27617,-0.375433 0.1519,0 0.2522,-0.148828 0.22286,-0.330729 -0.0293,-0.181901 0.008,-0.509323 0.0833,-0.727604 0.63588,-1.846781 0.75536,-2.313657 1.55753,-6.085507 0.1702,-0.800364 0.49548,-1.604036 0.72284,-1.785937 0.22738,-0.181901 0.2799,-0.330729 0.11671,-0.330729 -0.19749,0 -0.22741,-0.243242 -0.0895,-0.727604 0.11396,-0.400183 0.18854,-2.156354 0.16571,-3.902604 -0.023,-1.753037 0.0757,-3.332152 0.22032,-3.525896 0.18102,-0.24262 0.15091,-0.419441 -0.0976,-0.573048 -0.30142,-0.186282 -0.29181,-0.620921 0.0595,-2.691812 0.46455,-2.738811 0.46471,-6.764465 2.6e-4,-6.477416 -0.11081,0.06848 -0.21931,-0.728162 -0.24111,-1.770321 -0.0217,-1.042162 -0.12748,-2.252028 -0.23482,-2.68859 -0.10734,-0.436563 -0.2195,-1.865313 -0.24924,-3.174996 -0.0298,-1.30969 -0.12734,-2.55985 -0.21688,-2.77813 -0.0895,-0.21828 -0.13673,-0.635 -0.10493,-0.92604 0.0344,-0.31454 -0.0815,-0.50061 -0.28567,-0.45876 -0.25334,0.0519 -0.29919,-0.16588 -0.17468,-0.8296 0.10194,-0.54345 0.0546,-0.9706 -0.11951,-1.07821 -0.15859,-0.098 -0.28834,-0.40508 -0.28834,-0.68237 0,-0.46857 -0.93041,-2.35116 -1.75864,-3.55837 -0.25688,-0.37447 -0.35917,-0.41184 -0.36208,-0.13229 -0.003,0.33066 -0.0398,0.33319 -0.24011,0.0167 -0.12983,-0.20508 -0.17478,-0.53251 -0.0999,-0.7276 0.0749,-0.1951 0.008,-0.35473 -0.14846,-0.35473 -0.15653,0 -0.22225,-0.16249 -0.14602,-0.36109 0.0774,-0.20175 -0.24731,-0.68755 -0.73591,-1.10093 -0.48096,-0.40691 -0.84471,-0.83973 -0.80833,-0.96182 0.0364,-0.1221 -0.11949,-0.22199 -0.34634,-0.22199 -0.22688,0 -0.3442,-0.11049 -0.26075,-0.24553 0.0834,-0.13505 -0.10917,-0.32835 -0.42804,-0.42956 -0.31891,-0.10121 -0.88495,-0.46697 -1.25791,-0.8128 -0.37296,-0.34583 -0.74155,-0.62878 -0.8191,-0.62878 -0.0775,0 -0.36049,-0.40766 -0.62883,-0.90591 -0.29573,-0.54911 -0.62897,-0.85176 -0.84614,-0.76843 -0.19706,0.0756 -0.67548,-0.11203 -1.0632,-0.417 -0.3877,-0.30497 -0.85942,-0.55449 -1.04828,-0.55449 -0.18883,0 -0.41288,-0.21906 -0.49787,-0.4868 -0.16139,-0.50857 -0.97565,-1.01703 -1.84671,-1.15321 -0.2807,-0.0439 -0.47839,-0.18814 -0.43931,-0.32058 0.065,-0.22018 -0.46559,-0.6355 -0.96296,-0.7538 -0.11223,-0.0267 -0.52744,-0.37937 -0.92273,-0.78374 -0.39529,-0.40436 -0.96083,-0.7352 -1.25677,-0.7352 -0.29594,0 -0.53808,-0.11907 -0.53808,-0.26459 0,-0.14552 -0.15521,-0.26458 -0.34494,-0.26458 -0.4045,0 -3.16333,-1.32795 -3.36463,-1.61953 -0.17288,-0.25047 -1.64285,-0.86298 -1.9227,-0.80116 -0.11456,0.0253 -0.47863,-0.26828 -0.80907,-0.65242 -0.33041,-0.38414 -0.86328,-0.71304 -1.18414,-0.73089 -0.32086,-0.0179 -0.55208,-0.14078 -0.51385,-0.27316 0.0934,-0.32354 -1.86819,-0.88451 -2.76143,-0.78968 -0.48379,0.0514 -0.76149,-0.069 -0.86058,-0.37293 -0.18508,-0.56782 -2.09307,-1.4961 -2.64208,-1.28542 -0.22727,0.0872 -0.41325,0.0362 -0.41325,-0.11331 0,-0.14954 -0.11068,-0.20349 -0.24596,-0.11988 -0.1353,0.0836 -0.85492,-0.20702 -1.59916,-0.64584 -0.74425,-0.43883 -1.63857,-0.79786 -1.98737,-0.79786 -0.3488,0 -0.69808,-0.10337 -0.77615,-0.22971 -0.0781,-0.12634 -0.73996,-0.30904 -1.47085,-0.40599 -0.73086,-0.0969 -1.32884,-0.27172 -1.32884,-0.38838 0,-0.11665 -0.48345,-0.23103 -1.07432,-0.25419 -0.66598,-0.0261 -1.39507,-0.28116 -1.91823,-0.67107 -0.46415,-0.34593 -0.99673,-0.57338 -1.18353,-0.50543 -0.1868,0.0679 -0.5012,-0.0106 -0.69869,-0.17443 -0.19745,-0.16389 -0.72765,-0.32398 -1.17821,-0.35575 -0.45053,-0.0318 -0.87945,-0.21414 -0.95311,-0.40526 -0.0737,-0.19112 -0.25384,-0.27339 -0.40037,-0.18282 -0.14655,0.0906 -0.26646,0.0461 -0.26646,-0.0989 0,-0.15345 -0.38687,-0.20079 -0.92604,-0.11329 -0.54417,0.0883 -0.92604,0.0405 -0.92604,-0.11586 0,-0.14637 -0.29549,-0.26613 -0.65665,-0.26613 -0.41081,0 -0.59293,0.11143 -0.48649,0.29766 0.0936,0.16371 -0.14673,0.009 -0.53398,-0.34377 -0.48794,-0.4445 -0.70538,-0.52573 -0.70818,-0.26459 -0.003,0.31288 -0.0483,0.30948 -0.26458,-0.02 -0.22879,-0.34849 -0.29105,-0.3494 -0.51089,-0.007 -0.21841,0.33978 -0.27043,0.33713 -0.40777,-0.0208 -0.1047,-0.27278 -0.47049,-0.39988 -1.09157,-0.37928 -0.51374,0.017 -0.98785,-0.056 -1.05357,-0.16233 -0.0657,-0.10633 -0.68225,-0.27476 -1.37009,-0.37429 -0.68784,-0.0995 -1.36967,-0.26947 -1.51519,-0.37766 -0.28617,-0.21276 -1.85015,-0.5309 -3.26073,-0.6633 -0.48372,-0.0454 -0.93616,-0.13923 -1.00544,-0.2085 -0.0693,-0.0693 -0.53021,-0.0348 -1.0243,0.0767 -0.61344,0.13835 -1.05975,0.0896 -1.40721,-0.15381 -0.27987,-0.19602 -0.572,-0.29326 -0.64919,-0.21607 -0.0772,0.0772 -0.59884,0.0175 -1.15924,-0.13271 -0.56039,-0.15017 -2.11235,-0.32471 -3.4488,-0.38784 -1.33646,-0.0631 -2.54103,-0.18347 -2.67684,-0.2674 -0.23393,-0.14458 -3.70026,-0.45963 -5.53235,-0.50283 -0.46724,-0.011 -0.90724,-0.17044 -0.97778,-0.35427 -0.13822,-0.3602 -2.25665,-0.32929 -3.17704,0.0463 -0.30206,0.12327 -0.44413,0.10589 -0.35206,-0.0431 0.0865,-0.14002 -0.33039,-0.26141 -0.94879,-0.27625 -8.79484,-0.21104 -12.13529,-0.2231 -12.24586,-0.0442 -0.0733,0.11864 -0.3119,0.21571 -0.53018,0.21571 -0.21828,0 -0.32329,-0.11906 -0.23336,-0.26459 0.17054,-0.27593 -0.16091,-0.36773 -1.05833,-0.29312 -0.95511,0.0794 -3.1389,2.6e-4 -3.33482,-0.12077 -0.10552,-0.0652 -0.2525,0.031 -0.32661,0.21381 -0.10452,0.25783 -0.19229,0.25008 -0.39132,-0.0346 -0.15575,-0.22274 -0.5276,-0.31515 -0.94619,-0.23513 -0.37928,0.0725 -0.6896,0.0293 -0.6896,-0.0961 0,-0.12534 -0.44648,-0.2308 -0.99219,-0.23436 -0.5457,-0.004 -1.51145,-0.1262 -2.14612,-0.27253 -0.82826,-0.19098 -1.2566,-0.18086 -1.51771,0.0358 -0.22321,0.18525 -0.74855,0.23428 -1.35961,0.1269 -1.13339,-0.19919 -3.75954,-0.20907 -5.01731,-0.0189 -0.46557,0.0704 -0.91928,0.0102 -1.00825,-0.13373 -0.10482,-0.16961 -0.32954,-0.17194 -0.63844,-0.007 -0.289,0.15466 -1.03052,0.16756 -1.88333,0.0327 -0.8022,-0.12681 -1.75582,-0.11967 -2.21924,0.0166 -0.87642,0.25775 -2.70417,0.0611 -2.93724,-0.31597 -0.0806,-0.13034 -0.43545,-0.12028 -0.81236,0.023 -0.882,0.33533 -1.23692,0.32188 -1.01422,-0.0384 0.12573,-0.20344 -0.011,-0.22763 -0.44741,-0.0791 -0.34564,0.11757 -0.86657,0.19704 -1.15761,0.17658 -1.26219,-0.0887 -3.82489,-0.0793 -5.28152,0.0195 -0.86754,0.0588 -1.90038,0.0143 -2.29519,-0.0989 -0.39481,-0.11323 -0.78565,-0.13805 -0.86855,-0.0552 -0.17274,0.17275 -0.18107,0.17343 -5.84224,0.48237 -2.32833,0.12706 -5.037,0.23407 -6.01927,0.23781 -0.98227,0.004 -1.78594,0.0712 -1.78594,0.14991 0,0.0787 -1.27992,0.1784 -2.84427,0.22151 -1.56435,0.0431 -3.30213,0.0978 -3.86173,0.12146 -0.55961,0.0237 -1.07238,-0.0458 -1.1395,-0.15439 -0.0671,-0.10861 -0.44269,-0.0382 -0.83462,0.15637 -0.42765,0.21236 -1.34016,0.32079 -2.28209,0.27118 -0.86323,-0.0455 -1.72122,0.0433 -1.90664,0.19713 -0.18542,0.15389 -0.45981,0.20398 -0.60975,0.11131 -0.14994,-0.0927 -0.66125,-0.0612 -1.13625,0.07 -0.47499,0.13116 -1.10167,0.15322 -1.39261,0.049 -0.29095,-0.10418 -0.82312,-0.0794 -1.18262,0.0552 -0.64584,0.24167 -1.28069,0.32083 -4.90263,0.61131 -1.01864,0.0817 -2.56645,0.21408 -3.43958,0.29418 -0.87312,0.0801 -2.18281,0.16777 -2.91041,0.19483 -0.72761,0.0271 -1.48506,0.15146 -1.68323,0.27646 -0.21278,0.13421 -0.42945,0.11622 -0.52917,-0.0439 -0.2418,-0.38838 -1.11907,-0.45032 -1.88865,-0.13336 -0.3638,0.14983 -0.69827,0.17647 -0.74326,0.0592 -0.0938,-0.24465 -1.71739,-0.0616 -2.69632,0.30399 -0.85665,0.31994 -2.32057,0.56475 -3.24115,0.54202 -0.40018,-0.01 -0.7276,0.0963 -0.7276,0.23597 0,0.13967 -0.38695,0.2546 -0.8599,0.25541 -0.47294,8e-4 -1.32122,0.12957 -1.88506,0.28613 -1.60445,0.4455 -2.08297,0.54196 -3.07587,0.6201 -0.50933,0.0401 -0.90094,0.19546 -0.87025,0.34529 0.0307,0.14982 -0.42451,0.27904 -1.01156,0.28714 -0.58705,0.008 -1.24414,0.16145 -1.4602,0.34077 -0.21607,0.17931 -0.95149,0.34669 -1.63427,0.37195 -0.68279,0.0253 -1.50932,0.13204 -1.83674,0.23728 -0.36506,0.11735 -0.59532,0.0821 -0.59532,-0.0911 0,-0.45595 -0.64819,-0.32506 -1.27302,0.25706 -0.31848,0.29671 -0.57906,0.481 -0.57906,0.40953 0,-0.0715 -0.55611,0.0374 -1.23579,0.24198 -0.67969,0.20455 -1.33207,0.31242 -1.44974,0.23969 -0.11767,-0.0727 -0.4815,0.011 -0.80851,0.18597 -0.80651,0.43163 -2.1686,0.75675 -3.91429,0.93431 -0.80037,0.0814 -1.6338,0.30606 -1.85209,0.49924 -0.21828,0.19318 -0.99218,0.42236 -1.71979,0.50931 -1.94595,0.23251 -2.2149,0.287 -2.41769,0.48979 -0.10122,0.10122 -0.55115,0.18471 -0.99984,0.18552 -0.44869,7.9e-4 -1.24877,0.12174 -1.77795,0.26872 -0.52918,0.14699 -1.36379,0.30022 -1.85469,0.34052 -0.4909,0.0403 -1.05868,0.17595 -1.26174,0.30144 -0.20306,0.1255 -0.79158,0.27472 -1.30783,0.33161 -0.51625,0.0569 -1.06332,0.2009 -1.2157,0.32003 -0.15238,0.11912 -0.96989,0.28449 -1.81669,0.36749 -0.84679,0.083 -1.70931,0.29174 -1.9167,0.46387 -0.2074,0.17212 -0.67827,0.25537 -1.04638,0.185 -0.36811,-0.0704 -0.73421,-0.0229 -0.81355,0.10547 -0.0793,0.12838 -0.25509,0.16492 -0.39056,0.0812 -0.13547,-0.0837 -0.39513,-0.0559 -0.57703,0.0618 -0.1819,0.11773 -0.98557,0.3535 -1.78594,0.52393 -0.80036,0.17044 -2.11005,0.48837 -2.91042,0.70651 -1.71965,0.4687 -4.04746,0.95077 -5.15937,1.06847 -0.43656,0.0462 -1.12117,0.21815 -1.52135,0.38209 -0.40019,0.16395 -0.72761,0.21874 -0.72761,0.12177 0,-0.097 -0.16053,0.0432 -0.35674,0.31155 -0.1962,0.26832 -0.4914,0.40464 -0.65599,0.30292 -0.16458,-0.10173 -0.56206,-0.0443 -0.88326,0.1276 -0.32121,0.17191 -1.00762,0.36964 -1.52536,0.43941 -0.51774,0.0698 -1.17686,0.29182 -1.4647,0.49344 -0.28785,0.20161 -0.76803,0.36657 -1.06707,0.36657 -0.29905,0 -0.81064,0.18696 -1.13689,0.41547 -0.32624,0.22851 -0.86675,0.44464 -1.20114,0.48029 -0.33438,0.0356 -0.88152,0.25643 -1.21586,0.49061 -0.33435,0.23419 -0.75746,0.3684 -0.94026,0.29825 -0.1828,-0.0701 -0.40352,0.0579 -0.49049,0.28455 -0.087,0.22664 -0.34046,0.41208 -0.56331,0.41208 -0.22285,0 -0.40518,0.11906 -0.40518,0.26458 0,0.14552 -0.35719,0.26459 -0.79375,0.26459 -0.43656,0 -0.79375,0.12513 -0.79375,0.27808 0,0.15295 -0.41672,0.4522 -0.92604,0.66501 -0.50932,0.21281 -0.92604,0.50439 -0.92604,0.64796 0,0.14356 -0.24515,0.26103 -0.54478,0.26103 -0.29963,0 -0.4712,0.11906 -0.38126,0.26458 0.10275,0.16626 -0.49058,0.26459 -1.59666,0.26459 -1.53766,0 -1.77767,0.0669 -1.89855,0.52916 -0.0761,0.29104 -0.2422,0.52917 -0.36909,0.52917 -0.61222,0 -2.40526,1.8645 -2.23064,2.31956 0.0747,0.19456 0.0215,0.28317 -0.11805,0.1969 -0.13958,-0.0863 -0.32872,0.1417 -0.42031,0.5066 -0.0916,0.3649 -0.2439,0.64853 -0.33848,0.63028 -0.33538,-0.0647 -1.09801,0.37595 -1.09801,0.63446 0,0.63383 -0.9778,2.26657 -1.83938,3.07142 -0.51631,0.48231 -0.90164,1.05708 -0.8563,1.27728 0.0463,0.22457 -0.15573,0.46263 -0.46004,0.54221 -0.29837,0.078 -0.47838,0.24561 -0.40001,0.37241 0.0784,0.1268 -0.22063,0.5855 -0.66444,1.01934 -0.4438,0.43383 -0.80692,0.95018 -0.80692,1.14745 0,0.19726 -0.3443,0.82042 -0.76511,1.38481 -0.42082,0.56438 -0.70574,1.1809 -0.63316,1.37005 0.0726,0.18914 0.0224,0.34389 -0.11154,0.34389 -0.13392,0 -0.41084,0.42648 -0.61536,0.94772 -0.20452,0.52124 -0.57949,1.05884 -0.83328,1.19466 -0.25378,0.13582 -0.40091,0.40465 -0.32695,0.5974 0.074,0.19274 -0.0552,0.50784 -0.28696,0.700208 -0.33572,0.278625 -0.35162,0.394877 -0.0782,0.571558 0.2799,0.180859 0.27804,0.263874 -0.0101,0.44981 -0.19433,0.125413 -0.33215,0.274241 -0.30627,0.330729 0.0259,0.05649 -0.0725,0.400368 -0.21873,0.76417 -0.91582,2.279123 -1.45883,3.817874 -1.45883,4.133977 0,0.200168 -0.15875,0.36394 -0.35278,0.36394 -0.19402,0 -0.36766,0.238125 -0.38585,0.529166 -0.0182,0.291042 -0.0547,0.618464 -0.0811,0.727604 -0.0264,0.109141 -0.13733,0.573046 -0.24651,1.030899 -0.10917,0.457854 -0.42706,1.039312 -0.70642,1.29213 -0.27937,0.25282 -0.44096,0.568036 -0.3591,0.700484 0.0818,0.132448 0.009,0.408977 -0.16131,0.614508 -0.17058,0.205531 -0.23418,0.49661 -0.14133,0.646838 0.10436,0.168854 -0.006,0.20625 -0.28774,0.09795 -0.34983,-0.134244 -0.41683,-0.07169 -0.28663,0.267613 0.0935,0.243546 0.0546,0.442809 -0.0864,0.442809 -0.14095,0 -0.25628,0.239742 -0.25628,0.532757 0,0.484767 -0.20252,0.996191 -0.83679,2.113077 -0.12396,0.218281 -0.37196,0.694531 -0.5511,1.058333 -0.17915,0.363802 -0.47594,0.81879 -0.65954,1.011087 -0.1836,0.192294 -0.33382,0.626041 -0.33382,0.963879 0,0.337839 -0.17859,0.682784 -0.39687,0.766549 -0.25482,0.09778 -0.39833,0.51041 -0.40093,1.152786 -0.003,0.661276 -0.0812,0.87878 -0.23151,0.641514 -0.15856,-0.250245 -0.28228,-0.270279 -0.40844,-0.06614 -0.0995,0.161057 -0.11248,0.403666 -0.0288,0.539131 0.0837,0.135466 0.0185,0.328943 -0.14493,0.429947 -0.21603,0.133514 -0.20999,0.237512 0.0221,0.380963 0.22929,0.141709 0.0981,0.502688 -0.46572,1.280946 -0.43173,0.595998 -0.87192,0.998339 -0.9782,0.894093 -0.10627,-0.104248 -0.16394,0.108114 -0.12815,0.471916 0.0746,0.758595 -0.15843,1.422355 -0.85042,2.422094 -0.26736,0.386265 -0.48611,1.011343 -0.48611,1.389063 0,0.454384 -0.14386,0.68676 -0.42518,0.68676 -0.26526,0 -0.36908,0.146198 -0.27603,0.388691 0.082,0.213778 -0.0227,0.719794 -0.23286,1.12448 -0.21011,0.404682 -0.31793,0.938056 -0.23961,1.185275 0.0816,0.257468 -0.0952,0.687104 -0.41382,1.005721 -0.37882,0.378819 -0.50068,0.731268 -0.38206,1.105 0.11234,0.353946 0.0749,0.487408 -0.10548,0.375931 -0.29221,-0.180592 -0.92189,0.725612 -0.67544,0.972058 0.20456,0.204557 -0.4989,1.251177 -0.84094,1.251177 -0.33067,0 -0.3609,0.128881 -0.49651,2.116667 -0.0546,0.800364 -0.24178,1.812396 -0.41593,2.248958 -0.33576,0.841637 -0.37896,2.327542 -0.13077,4.497917 0.0832,0.727604 0.14933,1.590807 0.14696,1.918229 -0.002,0.327422 0.10545,0.595312 0.23961,0.595312 0.13415,0 0.23442,0.334296 0.2228,0.742881 -0.0283,0.997019 0.6406,2.30726 1.15831,2.268736 0.28082,-0.0209 0.37624,0.127948 0.29099,0.453927 -0.12462,0.476542 1.55166,2.355292 2.10147,2.355292 0.13488,0 0.68377,0.41568 1.21976,0.92375 0.53599,0.50806 1.06246,0.92478 1.16994,0.92604 0.24396,0.003 1.15431,0.72682 1.97178,1.56807 0.57843,0.59525 1.23404,1.04766 2.19843,1.51705 0.21828,0.10624 0.86122,0.52763 1.42876,0.93642 0.56754,0.40879 1.16744,0.74325 1.33312,0.74325 0.16568,0 0.76834,0.23815 1.33925,0.52921 0.57091,0.29107 1.24073,0.46488 1.48849,0.38624 0.26846,-0.0852 0.70885,0.11541 1.08996,0.49652 0.35172,0.35171 1.4919,0.90851 2.53373,1.23732 1.04184,0.32881 2.029,0.7602 2.1937,0.95865 0.3463,0.41726 1.29299,0.48772 1.29299,0.0962 0,-0.14552 0.11906,-0.26459 0.26458,-0.26459 0.14552,0 0.26459,0.1786 0.26459,0.39688 0,0.22369 0.23664,0.39687 0.5423,0.39687 0.29827,0 0.88999,0.1798 1.31493,0.39954 0.42494,0.21975 0.86551,0.37911 0.97905,0.35415 0.21246,-0.0467 1.38816,0.3794 2.32309,0.84196 0.29104,0.14399 0.88635,0.30694 1.32292,0.3621 0.43656,0.0552 1.2605,0.30215 1.83097,0.54885 0.57048,0.24671 1.46345,0.49192 1.98438,0.54492 1.77445,0.18052 3.06206,0.37122 4.51902,0.6693 2.30264,0.47109 2.7431,0.55318 3.32065,0.61889 0.29839,0.034 0.70346,0.16119 0.90014,0.28275 0.19669,0.12156 0.86166,0.24688 1.47773,0.2785 0.61606,0.0316 1.28256,0.15846 1.48111,0.28187 0.19855,0.12341 1.73022,0.2556 3.4037,0.29376 4.84347,0.11042 6.46365,0.20047 6.74688,0.37497 0.39199,0.24152 3.82101,-0.091 4.35748,-0.42256 0.15,-0.0927 0.27273,-0.0608 0.27273,0.0708 0,0.13165 0.67693,0.2615 1.50428,0.28853 0.82736,0.027 1.6581,0.17681 1.84609,0.33283 0.19723,0.16368 1.21164,0.25267 2.39832,0.21039 1.13108,-0.0403 2.23511,-2.7e-4 2.45339,0.0889 0.21828,0.0892 0.87313,0.22787 1.45521,0.30817 0.58208,0.0803 1.47505,0.24413 1.98437,0.36406 0.50933,0.11994 1.28323,0.19641 1.7198,0.16995 0.43656,-0.0265 0.91281,0.0446 1.05833,0.15801 0.14552,0.11337 1.27661,0.21292 2.51354,0.22122 2.84313,0.0191 7.33477,0.39846 7.57623,0.63991 0.0728,0.0728 0.52805,0.0231 1.01165,-0.1104 0.58881,-0.16258 1.12917,-0.14232 1.6358,0.0613 0.41609,0.16726 1.73982,0.34016 2.94162,0.38422 1.2018,0.0441 2.43706,0.16008 2.74501,0.25782 0.34985,0.11104 0.64679,0.043 0.79147,-0.18133 0.15643,-0.24255 0.29593,-0.26792 0.42999,-0.0782 0.10914,0.15446 0.43656,0.30277 0.72761,0.32957 0.29104,0.0268 1.06494,0.0978 1.71979,0.15776 0.65484,0.06 1.48828,0.15852 1.85208,0.21901 0.3638,0.0605 1.76281,0.0417 3.10892,-0.0417 1.34609,-0.0834 2.44742,-0.0549 2.44739,0.0635 -3e-5,0.11836 0.8968,0.15255 1.99297,0.076 1.09617,-0.0766 2.2936,-0.025 2.66095,0.11472 0.39513,0.15023 0.60615,0.15399 0.51667,0.009 -0.0832,-0.1346 0.0588,-0.30605 0.31561,-0.38099 0.50458,-0.14726 9.1062,0.003 12.76999,0.22319 2.87662,0.17281 5.55957,0.16509 6.15156,-0.0177 0.25466,-0.0786 0.46302,-0.014 0.46302,0.14363 0,0.15764 0.32743,0.27721 0.72761,0.26571 1.16682,-0.0335 6.14117,0.50402 6.45417,0.69746 0.15715,0.0971 0.37633,0.03 0.48707,-0.14921 0.14231,-0.23027 0.34699,-0.24903 0.69803,-0.064 0.71574,0.37727 6.34659,0.70304 6.547,0.37877 0.10331,-0.16717 0.53314,-0.13344 1.19193,0.0935 0.70042,0.24131 2.81945,0.37999 6.61741,0.43307 3.07287,0.043 5.58708,0.13968 5.58712,0.21496 4e-5,0.0753 0.44656,0.1125 0.99227,0.0827 0.5457,-0.0298 3.83958,-0.0914 7.31972,-0.13688 4.64269,-0.0607 6.355,-5.3e-4 6.43066,0.2254 0.0739,0.22076 0.34275,0.23606 0.9485,0.054 0.77476,-0.23292 3.43953,-0.29495 6.60305,-0.15371 0.92791,0.0414 1.22569,-0.0325 1.13044,-0.2806 -0.10375,-0.27026 -0.0128,-0.27236 0.46004,-0.0106 0.67436,0.37327 2.44809,0.5165 5.92286,0.47829 1.41821,-0.0156 2.49346,0.0872 2.59278,0.24792 0.16649,0.26938 1.48124,0.19525 2.78934,-0.15729 0.3638,-0.0981 1.43536,-0.19939 2.38125,-0.22522 0.94588,-0.0258 2.10674,-0.1343 2.57969,-0.24104 0.55894,-0.12617 0.85989,-0.0941 0.85989,0.0915 0,0.15708 0.29766,0.2856 0.66146,0.2856 0.3638,0 0.66154,-0.0893 0.66165,-0.19843 1e-4,-0.10915 0.29775,-0.21561 0.66145,-0.2366 0.3637,-0.021 0.6631,0.0981 0.66533,0.26459 0.003,0.1928 0.0746,0.20666 0.19843,0.0382 0.20313,-0.27649 4.29664,-0.38041 4.29587,-0.10906 -5.3e-4,0.22771 8.7805,0.0921 9.32612,-0.14406 0.25467,-0.11021 0.46302,-0.0972 0.46302,0.0289 0,0.28939 2.66396,0.29805 3.10886,0.0101 0.1819,-0.11773 0.33073,-0.11773 0.33073,0 -1e-5,0.11773 1.45851,0.17503 3.24114,0.12734 1.78263,-0.0477 3.7174,-0.0819 4.29948,-0.0759 0.58209,0.006 1.59412,-0.008 2.24896,-0.0303 0.65484,-0.0226 2.14313,-0.0479 3.30729,-0.0563 1.16417,-0.008 2.20414,-0.13436 2.31106,-0.27988 0.12038,-0.16386 0.19592,-0.13867 0.19844,0.0661 0.005,0.40999 1.35342,0.43063 2.75262,0.0421 0.56583,-0.15711 1.10161,-0.18621 1.19062,-0.0647 0.089,0.12154 0.51753,0.25968 0.95226,0.30699 0.43471,0.0473 0.86842,0.21224 0.96377,0.36654 0.10107,0.16353 0.47408,0.20506 0.89437,0.0996 0.49594,-0.12448 0.86821,-0.0477 1.19275,0.24601 0.32461,0.29377 0.52816,0.33573 0.65254,0.13451 0.2037,-0.32961 2.9995,-0.13389 4.11832,0.2883 0.37105,0.14002 1.56167,0.2936 2.64583,0.34129 1.08413,0.0477 2.26883,0.16407 2.63263,0.25863 0.3638,0.0946 1.13062,0.23382 1.70408,0.30945 1.41472,0.18662 1.64891,0.43253 2.85781,3.0009 0.57648,1.2247 1.45275,2.80239 1.94728,3.50597 0.49454,0.70359 0.89916,1.43922 0.89916,1.63474 0,0.19552 0.35388,0.70276 0.7864,1.12719 0.43251,0.42444 0.7897,0.89983 0.79375,1.05643 0.004,0.1566 0.42407,0.63218 0.9334,1.05685 0.50932,0.42467 0.92604,0.9804 0.92604,1.23497 0,0.48886 1.94545,2.05366 2.55323,2.05366 0.19645,0 0.35901,0.26789 0.36123,0.59531 0.003,0.4814 0.0531,0.51937 0.26054,0.19844 0.23074,-0.35703 0.37843,-0.19195 0.29591,0.33073 -0.0172,0.10914 0.15761,0.19844 0.38854,0.19844 0.2309,0 0.55507,0.35827 0.72035,0.79616 0.16529,0.43789 0.41386,0.75838 0.5524,0.7122 0.13851,-0.0462 0.58825,0.26806 0.99941,0.69829 0.41116,0.43024 0.74755,0.69389 0.74755,0.5859 0,-0.108 0.59558,0.23153 1.32353,0.7545 0.72795,0.52298 1.42626,0.95087 1.55183,0.95087 0.57029,0 1.5775,1.13201 1.72985,1.94421 0.1797,0.95787 -0.008,1.75995 -0.41124,1.75995 -0.13605,0 -0.49596,0.23163 -0.79984,0.51472 -0.55158,0.51389 -2.34103,0.63407 -3.03697,0.20396 -0.16346,-0.10103 -0.44883,-0.001 -0.63415,0.22232 -0.18531,0.2233 -0.51673,0.33702 -0.73644,0.25271 -0.21971,-0.0843 -0.47368,-0.0332 -0.56441,0.11357 -0.17097,0.27667 -1.01867,0.49112 -2.07579,0.52514 -0.33631,0.0108 -0.53742,0.1386 -0.44741,0.28425 0.16481,0.26665 -0.36197,0.38834 -1.30405,0.30124 -0.28067,-0.0259 -0.59539,0.0905 -0.6994,0.2588 -0.10401,0.16828 -0.80124,0.36479 -1.5494,0.43667 -0.98176,0.0943 -1.43584,0.27189 -1.63182,0.63805 -0.18087,0.33797 -0.43794,0.45451 -0.77007,0.34911 -0.27418,-0.087 -1.03431,0.0858 -1.68915,0.38415 -1.2465,0.56786 -1.89812,0.71628 -1.21965,0.27781 0.284,-0.18354 0.29922,-0.25763 0.0535,-0.26053 -0.18886,-0.002 -0.62923,0.3044 -0.97864,0.6814 -0.37703,0.40682 -0.76494,0.60531 -0.95427,0.48829 -0.18587,-0.11486 -0.2503,-0.0859 -0.15433,0.0693 0.0906,0.14656 -0.0164,0.49238 -0.23742,0.76848 -0.38568,0.4815 -0.39528,0.47727 -0.235,-0.10365 0.1528,-0.55383 0.10306,-0.59 -0.58161,-0.42268 -0.41179,0.10064 -1.03266,0.40295 -1.37972,0.6718 -0.34703,0.26885 -0.77893,0.48882 -0.95977,0.48882 -0.18085,0 -0.46202,0.1605 -0.62482,0.35667 -0.1628,0.19617 -1.01081,0.64059 -1.88447,0.98761 -0.87365,0.34701 -1.58847,0.79457 -1.58847,0.99455 0,0.22391 -0.1619,0.30149 -0.42135,0.20193 -0.2811,-0.10786 -0.46755,0.0148 -0.56005,0.36857 -0.0763,0.29164 -0.29535,0.53025 -0.48683,0.53025 -0.19151,0 -0.42378,0.23813 -0.51615,0.52917 -0.30771,0.96953 0.089,1.51378 1.33146,1.82663 0.65014,0.16371 1.18208,0.39931 1.18208,0.52355 0,0.12424 0.96967,0.24659 2.15482,0.27189 1.18518,0.0253 2.38207,0.16761 2.6598,0.31624 0.27774,0.14864 1.00468,0.27553 1.61547,0.282 0.61079,0.006 1.24741,0.12263 1.4147,0.25815 0.1673,0.13552 0.99491,0.19739 1.83917,0.1375 0.84426,-0.0599 1.89468,-0.006 2.33429,0.12033 0.43961,0.12607 1.45743,0.25028 2.26187,0.27601 0.80441,0.0257 1.5667,0.10217 1.69394,0.16986 0.12724,0.0677 0.78208,0.15955 1.45521,0.20412 1.66256,0.11009 2.72121,0.27306 3.27438,0.50406 0.27858,0.11633 0.46302,0.0767 0.46302,-0.0995 0,-0.16109 0.11906,-0.29289 0.26458,-0.29289 0.14552,0 0.26458,0.19133 0.26458,0.42518 0,0.25433 0.14783,0.36846 0.36786,0.28403 0.20232,-0.0776 0.64592,0.11798 0.98578,0.43471 0.48704,0.45392 0.96792,0.58278 2.27081,0.60848 0.95859,0.0189 2.06068,0.2261 2.62361,0.49323 0.53388,0.25333 1.45984,0.52582 2.05767,0.60552 0.59785,0.0797 1.47756,0.36376 1.95492,0.63125 0.47736,0.26749 1.16197,0.48635 1.52136,0.48635 0.35938,0 0.65341,0.10094 0.65341,0.22432 0,0.12337 0.37351,0.23494 0.83,0.24791 0.45651,0.013 0.95374,0.14733 1.10495,0.29856 0.19021,0.19021 0.38291,0.18536 0.62521,-0.0158 0.25525,-0.21182 0.35026,-0.21011 0.35026,0.006 0,0.16334 0.35719,0.29698 0.79375,0.29698 0.43656,0 0.79375,0.0937 0.79375,0.2083 0,0.11457 0.38695,0.23433 0.85989,0.26612 1.2672,0.0852 2.31511,0.33496 2.31511,0.55179 0,0.2801 1.63674,0.82355 2.53232,0.84081 0.42622,0.008 1.19169,0.17496 1.70101,0.37055 0.90046,0.34579 3.01823,0.46383 4.11345,0.22927 z"
     id="path5224" />
  <path
     inkscape:connector-curvature="0"
     id="path4998-7"
     style="fill:#ffffff;stroke-width:0.22591349"
     d="m 256.37093,102.11294 c -0.8311,-0.166 -1.17563,-0.80311 -1.39655,-2.582716 -0.11688,-0.942364 -0.34514,-1.957388 -0.50697,-2.255606 -0.16197,-0.298226 -0.36942,-1.085396 -0.4613,-1.749287 -0.0919,-0.663889 -0.23374,-1.273855 -0.31504,-1.355481 -0.0815,-0.08161 -1.69955,-0.182649 -3.59587,-0.224505 -3.34713,-0.07382 -3.46505,-0.06065 -4.0376,0.451818 -0.75129,0.672527 -1.38757,2.429315 -2.09349,5.780407 -0.16169,0.7677 -1.55726,0.71032 -2.40173,-0.0988 -0.58081,-0.556456 -0.63364,-0.744388 -0.63364,-2.254571 0,-0.906125 0.14409,-2.030799 0.32051,-2.499258 0.29255,-0.777519 1.68704,-5.260431 2.05694,-6.612546 0.0848,-0.310623 0.41825,-1.022251 0.74061,-1.581387 0.32236,-0.559134 0.8716,-1.604158 1.22055,-2.322273 0.34895,-0.718106 1.05338,-1.760127 1.56539,-2.315612 l 0.93096,-1.009955 h 1.80826 1.80826 l 0.9304,0.97303 c 1.52064,1.590298 3.71349,5.340264 4.45102,7.611678 0.79071,2.435107 1.56184,5.703466 1.5723,6.663927 0.005,0.497296 0.10913,1.361657 0.23054,1.920788 0.49432,2.275899 0.50097,2.583719 0.0644,2.969459 -0.46443,0.41026 -1.51632,0.63893 -2.25789,0.49082 z m -4.00097,-11.935457 c 0.0737,-0.192273 -0.25108,-0.940653 -0.74133,-1.707686 -1.38365,-2.164949 -1.74273,-2.545251 -2.25095,-2.383947 -0.89405,0.283754 -2.10633,3.697901 -1.52091,4.283322 0.0827,0.0828 1.10263,0.15059 2.26621,0.15059 1.68155,0 2.14256,-0.07026 2.24698,-0.342288 z" />
  <path
     inkscape:connector-curvature="0"
     style="fill:#ffffff;stroke-width:0.22591349"
     d="m 90.850291,104.3876 c -0.612788,-0.39251 -1.128649,-0.43424 -5.382832,-0.4353 h -4.705064 l -0.660384,-0.66036 -0.660365,-0.66037 V 93.393786 84.156212 L 80.0903,83.534764 c 0.541319,-0.518595 0.812386,-0.60971 1.63789,-0.550571 l 0.989207,0.0709 0.112868,8.380899 c 0.08964,6.643224 0.177183,8.458291 0.423004,8.754148 0.270669,0.32581 0.925967,0.37323 5.156912,0.37323 h 4.84686 l 0.660371,0.66039 c 0.845569,0.84557 0.874664,1.83992 0.08411,2.87641 -0.497818,0.6527 -0.70544,0.75331 -1.524915,0.73906 -0.524156,-0.01 -1.251903,-0.21076 -1.626372,-0.45065 z"
     id="path5016-8" />
  <path
     inkscape:connector-curvature="0"
     id="path4998-1"
     style="fill:#ffffff;stroke-width:0.22591349"
     d="m 111.08536,104.38655 c -0.83108,-0.16597 -1.17562,-0.80309 -1.39655,-2.5827 -0.11687,-0.94235 -0.34513,-1.957378 -0.50697,-2.255603 -0.16197,-0.298215 -0.36942,-1.085389 -0.46128,-1.749279 -0.0919,-0.663907 -0.23376,-1.273864 -0.31505,-1.35549 -0.0815,-0.08161 -1.69956,-0.182657 -3.59587,-0.224514 -3.34713,-0.07382 -3.46506,-0.06065 -4.0376,0.451819 -0.7513,0.672525 -1.387584,2.429337 -2.093502,5.780407 -0.161693,0.7677 -1.557246,0.71033 -2.401725,-0.0987 -0.580808,-0.55647 -0.633642,-0.7444 -0.633642,-2.25458 0,-0.906109 0.144086,-2.030793 0.320512,-2.499262 0.292541,-0.77751 1.687037,-5.260422 2.056945,-6.612546 0.08475,-0.310614 0.418256,-1.022233 0.740603,-1.581377 0.322357,-0.559125 0.871598,-1.604168 1.220547,-2.322273 0.348952,-0.718106 1.053382,-1.760128 1.565392,-2.315612 l 0.93097,-1.009965 h 1.80826 1.80826 l 0.93039,0.973048 c 1.52065,1.590289 3.71349,5.340255 4.45102,7.61167 0.79073,2.435097 1.56185,5.703475 1.57232,6.663921 0.005,0.497298 0.10911,1.361646 0.23053,1.920796 0.49432,2.27588 0.50096,2.5837 0.0644,2.96946 -0.46444,0.41027 -1.51633,0.63893 -2.25789,0.49081 z M 107.0844,92.451111 c 0.0737,-0.192273 -0.25109,-0.940662 -0.74134,-1.707696 -1.38365,-2.164947 -1.74273,-2.545231 -2.25094,-2.383945 -0.89406,0.283771 -2.10633,3.6979 -1.52091,4.283329 0.0827,0.0828 1.10262,0.150592 2.2662,0.150592 1.68155,0 2.14257,-0.07026 2.24699,-0.34228 z" />
  <path
     inkscape:connector-curvature="0"
     style="fill:#ffffff;stroke-width:0.22591349"
     d="m 119.51337,103.21384 c -0.0734,-0.119 -0.40198,-1.00683 -0.72986,-1.97289 -0.54655,-1.610443 -0.59625,-2.108863 -0.59777,-5.994746 -0.003,-3.871945 -0.047,-4.331476 -0.52562,-5.316729 -0.44114,-0.908009 -0.69794,-1.136246 -1.62493,-1.444153 -1.84694,-0.61347 -2.15556,-0.93907 -2.15556,-2.274269 0,-1.0457 0.0851,-1.234743 0.79976,-1.779972 0.93707,-0.714721 1.79679,-0.772313 2.85894,-0.191595 0.64671,0.353659 1.63622,0.437051 6.38501,0.538065 l 5.6197,0.11953 0.0696,1.707448 0.0699,1.707404 -3.57823,0.08727 c -1.96803,0.04803 -3.66738,0.176098 -3.77631,0.284686 -0.10915,0.108588 -0.23322,1.702609 -0.27626,3.542305 -0.0667,2.850664 -0.005,3.586491 0.41852,4.979958 0.48722,1.604099 0.66343,4.500938 0.34588,5.685888 -0.1302,0.48606 -0.29033,0.53806 -1.65655,0.53806 -0.83182,0 -1.57255,-0.0974 -1.64612,-0.21638 z"
     id="path4974-3" />
  <path
     inkscape:connector-curvature="0"
     style="fill:#ffffff;stroke-width:0.22591349"
     d="m 151.45178,102.06894 c -0.31895,-0.63758 -0.49286,-1.37773 -0.57043,-2.42735 -0.0614,-0.830522 -0.24307,-1.824854 -0.40387,-2.209565 -0.23268,-0.556966 -0.29228,-1.512248 -0.29228,-4.689658 0,-3.808795 0.0213,-4.051195 0.48379,-5.332927 0.56901,-1.579274 0.93291,-2.010899 2.33735,-2.772289 1.5488,-0.839676 3.14076,-1.159055 6.22985,-1.249803 2.21683,-0.06514 2.94823,-0.0182 3.86552,0.248383 1.48612,0.431792 1.60278,0.540553 1.60278,1.4945 0,0.671538 -0.0984,0.891477 -0.58018,1.296837 l -0.58015,0.488176 h -4.03295 c -3.79435,0 -4.04455,0.02159 -4.22821,0.364721 -0.10725,0.200598 -0.19505,1.211606 -0.19505,2.246648 v 1.881927 l 1.46134,0.125221 c 1.48655,0.127399 3.30604,0.700412 4.66692,1.469843 0.63245,0.357575 0.76344,0.535805 0.81126,1.103741 0.0475,0.563525 -0.0422,0.760757 -0.53298,1.17384 -0.66139,0.556509 -1.24282,0.607971 -2.35247,0.208229 -0.75077,-0.270487 -3.39508,-0.373148 -4.18107,-0.162385 -0.3994,0.107144 -0.41137,0.199776 -0.47137,3.659073 -0.0338,1.952008 -0.12701,3.614368 -0.2068,3.694128 -0.0801,0.0798 -0.64639,0.18118 -1.25864,0.22545 l -1.11328,0.0806 z"
     id="path4882-6" />
  <path
     inkscape:connector-curvature="0"
     style="fill:#ffffff;stroke-width:0.22591349"
     d="m 234.00989,101.13447 c -0.48928,-0.51434 -0.84765,-1.137726 -0.94144,-1.637562 -0.0833,-0.443907 -0.35013,-1.194183 -0.59299,-1.667249 -0.24281,-0.473136 -0.8626,-2.055949 -1.37723,-3.517393 -1.6349,-4.642848 -1.64481,-4.666498 -1.89188,-4.508451 -0.12969,0.0827 -0.45356,0.581147 -0.71998,1.1073 -0.2663,0.526079 -0.70333,1.244231 -0.97099,1.59586 -0.26765,0.351546 -0.72505,1.153795 -1.01641,1.782757 -0.29142,0.628886 -0.93946,1.560884 -1.44014,2.071008 -1.86797,1.903377 -3.38624,1.051986 -5.52952,-3.100702 -1.4971,-2.900565 -2.61094,-4.70867 -3.05313,-4.956129 -0.36091,-0.201972 -0.45082,-0.01866 -1.19143,2.436551 -0.25748,0.853802 -1.15781,2.98727 -2.00048,4.740981 -1.16688,2.42849 -1.75906,3.406754 -2.48391,4.10363 -0.92835,0.892509 -0.98271,0.913469 -2.20735,0.850309 l -1.25556,-0.0648 -0.0637,-1.346457 c -0.0619,-1.311047 -0.0414,-1.370716 0.7872,-2.26964 0.91507,-0.992711 2.62809,-4.202293 2.89194,-5.418281 0.0889,-0.409212 0.43634,-1.231359 0.77237,-1.826979 0.33605,-0.595648 0.76448,-1.599895 0.95211,-2.23169 0.18757,-0.631768 0.66007,-1.78203 1.04988,-2.556082 0.57728,-1.146347 0.87413,-1.489203 1.60013,-1.848451 l 0.89137,-0.440968 1.2457,0.628831 c 0.68517,0.345837 1.24572,0.703074 1.24572,0.793849 0,0.09076 0.4816,0.926454 1.07018,1.856979 0.58862,0.930543 1.59697,2.720194 2.24079,3.977069 0.64377,1.256848 1.21323,2.285156 1.26543,2.285156 0.0524,0 0.43482,-0.645702 0.8503,-1.434858 0.88159,-1.674356 1.91134,-3.091503 3.3951,-4.672348 0.95156,-1.013845 1.17769,-1.14579 2.15944,-1.259949 0.60311,-0.06989 1.42782,-0.06541 1.83275,0.01061 0.68367,0.128341 0.7541,0.217469 0.98768,1.249638 0.13849,0.611311 0.38149,1.685446 0.5403,2.38691 0.44752,1.976665 1.28548,4.459757 1.76917,5.242617 0.24095,0.390183 0.67259,1.331215 0.95895,2.091158 0.28637,0.759964 0.8344,2.067303 1.21793,2.905246 0.64076,1.400176 0.67465,1.578 0.41825,2.19696 -0.41566,1.00359 -0.7879,1.27503 -1.74849,1.27503 -0.73267,0 -0.99118,-0.12945 -1.65803,-0.83049 z"
     id="path4802-4" />
  <path
     inkscape:connector-curvature="0"
     id="path4776-7-0"
     style="fill:#ffffff;stroke-width:0.22591349"
     d="m 66.285201,102.26079 c -0.461059,-0.37334 -0.883133,-1.95256 -1.299481,-4.862016 -0.106484,-0.74408 -0.319361,-1.653882 -0.47309,-2.021777 -0.186272,-0.445615 -0.279507,-1.324659 -0.279507,-2.6327 0,-1.318794 -0.09291,-2.186137 -0.282957,-2.64092 -0.155742,-0.37246 -0.282958,-1.005994 -0.282958,-1.407831 0,-0.401838 -0.126309,-1.147355 -0.280925,-1.656646 -0.154415,-0.5093 -0.281823,-1.281019 -0.282957,-1.714886 -0.0018,-0.862037 0.241558,-1.118078 1.829678,-1.921762 0.729048,-0.368948 1.093823,-0.401903 4.44723,-0.401903 4.137119,0 3.953626,-0.06403 4.874612,1.697742 0.397472,0.760247 0.443973,1.098078 0.445721,3.236193 l 0.0019,2.387303 -0.584284,0.725233 c -0.321342,0.398855 -0.973798,0.967496 -1.44988,1.263645 -0.767968,0.477728 -1.091125,0.549986 -2.864174,0.64045 -1.099182,0.056 -2.030081,0.153427 -2.068653,0.216143 -0.157965,0.256955 0.286818,3.465834 0.551185,3.977029 0.422367,0.816749 0.411516,5.197083 -0.01335,5.360113 -0.589107,0.22601 -1.554342,0.1078 -1.988184,-0.24334 z M 70.29525,89.389059 c 1.082238,-0.498807 1.315199,-0.691593 1.49527,-1.237223 0.247295,-0.749203 -0.02538,-1.648914 -0.591278,-1.951853 -0.494989,-0.26496 -3.20661,-0.21746 -3.759286,0.06587 -0.331501,0.169977 -0.460592,0.379194 -0.434591,0.704593 0.0753,0.943388 0.276672,2.545341 0.348546,2.773743 0.138349,0.43954 1.600243,0.263095 2.941339,-0.355095 z" />
  <path
     inkscape:connector-curvature="0"
     id="path5002-3"
     style="fill:#ffffff;stroke-width:0.22591349"
     d="m 173.48436,101.91776 c -0.6834,-0.15886 -1.85145,-0.36159 -2.59567,-0.45052 -1.86575,-0.22293 -2.66851,-0.69656 -4.65811,-2.748347 -2.62672,-2.708844 -2.68642,-2.880843 -2.68642,-7.739262 v -4.064387 l 0.82179,-1.573226 c 1.05182,-2.013634 2.26047,-3.609448 3.22702,-4.260831 0.63462,-0.427656 1.06398,-0.513628 2.56519,-0.513628 1.74324,0 1.83198,0.02617 2.6782,0.790693 0.76587,0.691912 1.02331,0.79072 2.0606,0.790876 1.71062,2.29e-4 3.55594,0.955694 5.29624,2.74218 1.89224,1.942456 2.5536,3.709519 2.5536,6.822842 0,2.392326 -0.4265,4.023784 -1.86985,7.152401 -0.84995,1.842429 -0.84354,1.837719 -3.66503,2.700709 -2.0656,0.6318 -2.38738,0.66205 -3.72756,0.3505 z m 3.40073,-4.523026 c 0.2771,-0.246654 0.74257,-0.956754 1.03438,-1.578019 0.45454,-0.967761 0.53087,-1.481992 0.53276,-3.589871 0.003,-3.0539 -0.374,-3.960418 -2.23845,-5.386072 l -1.26101,-0.964248 h -2.96961 c -3.60706,0 -3.60695,-7.3e-5 -4.47635,2.834081 -0.79186,2.581415 -0.68699,3.884253 0.45523,5.657217 0.42796,0.664266 0.77813,1.286134 0.77813,1.381959 0,0.185925 2.89662,1.703515 3.84052,2.012136 0.31064,0.101551 1.29283,0.161403 2.18269,0.13296 1.24384,-0.0398 1.73435,-0.155376 2.12171,-0.500143 z" />
  <path
     inkscape:connector-curvature="0"
     style="fill:#ffffff;stroke-width:0.22591349"
     d="m 187.07745,100.51267 c -0.18703,-0.14061 -0.4168,-0.550621 -0.51008,-0.910964 -0.50841,-1.963871 -0.63124,-2.426952 -0.8493,-3.201819 -0.63777,-2.266501 -1.0885,-3.778588 -1.43403,-4.810227 -0.20865,-0.622508 -0.45053,-1.556263 -0.53788,-2.075033 -0.0873,-0.518733 -0.25189,-1.182146 -0.3657,-1.474216 -0.11928,-0.305865 -0.2068,-1.803695 -0.2068,-3.532606 v -3.001588 l 0.51878,-0.324539 c 0.28532,-0.178513 0.55157,-0.347621 0.59163,-0.37591 0.0401,-0.02827 0.17343,-0.499603 0.29685,-1.047429 0.18839,-0.83845 0.34663,-1.082406 0.99927,-1.541781 0.65316,-0.459686 1.0672,-0.575914 2.62707,-0.737428 3.71489,-0.384683 5.90922,-0.125669 7.58312,0.894862 1.69053,1.030697 2.39154,1.878589 2.93851,3.554136 1.11299,3.409645 0.31924,5.300786 -3.48239,8.296746 l -0.66023,0.520307 0.50154,0.399066 c 0.27588,0.219601 1.75303,0.979709 3.28257,1.689361 1.52953,0.709653 3.11369,1.526525 3.52036,1.8152 0.40666,0.288738 0.99267,0.69474 1.30226,0.902227 0.3096,0.207324 1.11001,0.83287 1.7787,1.389717 1.18379,0.985793 1.21577,1.036111 1.21577,1.912055 0,0.837699 -0.044,0.920549 -0.64156,1.204063 -0.35287,0.16729 -0.86558,0.30441 -1.13935,0.30441 -0.7423,0 -1.86154,-0.642438 -2.43965,-1.400387 -0.34435,-0.451421 -0.98389,-0.888908 -1.95653,-1.338292 -0.79475,-0.367181 -1.57706,-0.787116 -1.73846,-0.933206 -0.35115,-0.317758 -2.7583,-1.620754 -5.45224,-2.951291 -2.42214,-1.196299 -3.42096,-2.116184 -3.42096,-3.150668 0,-0.915328 0.59181,-1.509979 2.26431,-2.275266 1.17775,-0.538851 2.84122,-2.008593 3.65053,-3.22535 0.71564,-1.075974 0.19398,-2.472471 -1.46768,-3.929642 l -0.71083,-0.623334 -2.3869,0.0742 c -1.62853,0.05068 -2.77649,0.190517 -3.61308,0.440428 l -1.22613,0.366166 0.0704,1.692006 c 0.0389,0.938776 0.22785,2.185762 0.42442,2.801226 0.1948,0.610077 0.35411,1.264972 0.35411,1.455352 0,0.19025 0.13716,0.750456 0.30507,1.244697 0.16783,0.494214 0.37649,1.324824 0.46377,1.845799 0.30666,1.830565 0.60554,3.029472 0.94149,3.776786 0.78722,1.751207 1.36192,5.455439 0.9478,6.109306 -0.23454,0.37022 -1.91077,0.4941 -2.33839,0.17291 z"
     id="path4752-5" />
  <path
     id="path8519"
     style="fill:#ffffff;stroke-width:0.53702873"
     d="m 249.65072,59.535802 c -0.4821,-0.58089 -0.59808,-2.194005 -0.40337,-5.609488 0.23306,-4.087313 0.56113,-5.392294 2.22518,-8.851151 1.07351,-2.231342 2.28535,-4.056994 2.69302,-4.056994 0.73153,0 3.32201,4.06101 6.76575,10.606311 2.58118,4.90592 3.48725,4.621023 4.2696,-1.342572 1.00281,-7.644248 1.23841,-8.458207 2.44847,-8.458207 0.97316,0 1.05847,0.302691 0.90807,3.222176 -0.29545,5.736375 -1.12069,11.446821 -1.93629,13.398837 -0.61136,1.463183 -1.10879,1.906492 -2.13924,1.906492 -1.55862,0 -2.70044,-1.399633 -6.46221,-7.921185 -3.37636,-5.85348 -4.45739,-5.841257 -5.66882,0.06422 -0.35563,1.733578 -0.48786,4.210633 -0.29382,5.504542 0.31359,2.091144 0.2371,2.352584 -0.68839,2.352584 -0.5727,0 -1.34577,-0.366926 -1.71795,-0.815396 z m -14.2788,1.147454 c -1.89842,-0.855567 -3.63805,-3.090944 -4.19538,-5.390948 -0.20899,-0.862531 -0.21625,-3.661414 -0.0156,-6.219765 0.29722,-3.799353 0.55697,-4.772118 1.41781,-5.309725 1.56291,-0.976059 2.8026,0.145843 1.9249,1.742233 -0.83897,1.525788 -0.7737,8.394978 0.0998,10.503844 0.69782,1.684631 2.50757,2.590646 4.01753,2.01122 1.50508,-0.577571 2.56131,-3.712813 2.90773,-8.631278 0.31908,-4.530247 0.43032,-4.892287 1.55203,-5.051605 1.17909,-0.167489 1.20825,-0.0504 1.20532,4.833249 -0.004,5.708753 -0.60955,8.442224 -2.30437,10.39242 -1.44603,1.663892 -4.32162,2.151326 -6.60933,1.120355 z m 45.88932,-12.549454 c 0.60111,-1.14717 -0.20533,-3.573942 -1.02028,-3.070258 -1.06091,0.655673 -1.69422,3.070944 -0.93203,3.554517 1.02627,0.6511 1.40681,0.556693 1.95231,-0.484259 z m -10.65796,11.58346 c 2.4e-4,-2.989256 1.51939,-6.938595 5.17712,-13.45999 3.05304,-5.443317 4.31892,-6.479859 6.49273,-5.316449 1.00229,0.536418 2.29262,3.772108 2.29262,5.749063 0,0.54028 0.65364,1.664615 1.45253,2.498445 1.43887,1.501883 1.44355,1.531314 0.49872,3.130787 -0.67765,1.147144 -0.9126,2.50439 -0.81147,4.687574 0.11501,2.485946 -0.0249,3.105125 -0.73295,3.24148 -0.88749,0.17081 -2.00831,-2.617865 -2.0149,-5.013511 -0.006,-1.92985 -1.51973,-3.475931 -3.40463,-3.475931 -3.21613,0 -5.44591,2.797796 -6.20608,7.786917 -0.25853,1.696571 -0.58134,2.184207 -1.53564,2.319721 -1.0931,0.15521 -1.20829,-0.04959 -1.20805,-2.148106 z"
     inkscape:connector-curvature="0" />
  <g
     id="g9145"
     transform="matrix(0.91488936,0,0,0.91488936,2.7267377,-2.6210145)">
    <path
       id="path5010-2"
       d="m 115.31538,73.707465 c -0.40744,-0.12575 -1.45014,-0.39127 -2.31713,-0.59 -1.08709,-0.24918 -1.81517,-0.58938 -2.34585,-1.09611 -0.42322,-0.40414 -1.16809,-0.89834 -1.65532,-1.09824 -0.64533,-0.26479 -1.09018,-0.72556 -1.63863,-1.69736 -0.41405,-0.73365 -0.93214,-1.48274 -1.15134,-1.66465 -0.34281,-0.2845 -0.39851,-1.03194 -0.39851,-5.34629 0,-4.88131 0.0175,-5.05593 0.65431,-6.52425 0.64239,-1.48123 0.69069,-1.52602 2.65448,-2.46019 3.61569,-1.71998 5.7531,-2.3038 8.05218,-2.1994 1.85139,0.0841 2.07082,0.14968 2.61443,0.7817 0.44631,0.51884 0.59345,0.98038 0.59345,1.8614 0,0.64432 -0.13329,1.30484 -0.29632,1.46781 -0.19657,0.19663 -1.26602,0.29632 -3.17842,0.29632 h -2.88208 l -1.83876,1.20035 c -2.68843,1.75503 -2.91627,2.12091 -2.91627,4.68317 0,2.02602 0.0402,2.17961 0.98047,3.73238 1.29411,2.1374 1.65228,2.53256 2.97042,3.27715 1.07797,0.60892 1.2755,0.63096 6.6072,0.73693 l 5.49606,0.10925 0.73895,0.70795 c 0.40642,0.38937 0.73893,0.88759 0.73893,1.10716 0,0.67255 -1.54589,1.97645 -2.35758,1.98852 -0.40096,0.006 -1.17351,0.18295 -1.71677,0.39329 -1.16111,0.4496 -6.28429,0.67998 -7.4079,0.33312 z"
       style="fill:#ffffff;stroke-width:0.24692985"
       inkscape:connector-curvature="0" />
    <path
       id="path4848-3"
       d="m 26.095515,77.067623 c -0.79087,-0.33998 -1.17217,-0.984 -1.20501,-2.03536 -0.0204,-0.59797 0.084,-1.15123 0.2514,-1.35294 0.36313,-0.43814 1.96992,-0.45544 2.98302,-0.0321 0.4515,0.1887 1.39207,0.30915 2.41317,0.30915 h 1.67328 l 1.32184,-1.26929 c 1.17371,-1.12705 1.32184,-1.35771 1.32184,-2.05811 0,-0.70422 -0.0939,-0.84788 -0.87594,-1.33955 -0.48177,-0.30293 -1.24691,-0.80212 -1.70034,-1.10937 -0.45346,-0.30723 -1.33453,-0.81245 -1.95799,-1.12268 -1.26232,-0.62818 -2.35863,-1.57451 -2.79998,-2.41694 -0.19453,-0.37142 -0.29048,-1.22844 -0.28786,-2.57631 0.002,-1.64298 0.11374,-2.36832 0.59354,-3.88851 0.91277,-2.89171 1.37542,-3.55687 3.21575,-4.62348 0.45343,-0.26281 1.06099,-0.6946 1.35019,-0.95955 0.28903,-0.26497 1.65975,-1.03855 3.04576,-1.71908 2.04682,-1.00503 2.71097,-1.23734 3.53747,-1.23734 1.19816,0 1.44428,0.29356 1.44428,1.72252 0,1.22467 -0.70894,2.10289 -1.85372,2.29629 -0.44879,0.0758 -1.11959,0.35863 -1.49065,0.62846 -0.37104,0.26983 -1.37945,0.85889 -2.24086,1.30904 -2.03315,1.06245 -3.4018,2.53089 -3.60176,3.86442 -0.19161,1.27706 0.009,3.50371 0.35249,3.92226 0.15457,0.18817 0.98263,0.67425 1.83987,1.08002 1.18573,0.56128 1.86195,1.06269 2.82635,2.09563 0.69718,0.7468 1.36384,1.61075 1.48134,1.91987 0.2927,0.76984 0.25403,4.63008 -0.0534,5.3096 -0.41851,0.92572 -1.98432,2.44557 -2.99737,2.9094 -0.84514,0.38702 -1.39496,0.44667 -4.56761,0.49558 -1.98377,0.0306 -3.79231,-0.0233 -4.01901,-0.12162 z"
       style="fill:#ffffff;stroke-width:0.24692985"
       inkscape:connector-curvature="0" />
    <path
       id="path4788-7"
       d="m 155.81697,68.13668 c -0.72279,-0.27065 -1.59647,-0.38845 -2.92319,-0.39448 -1.79388,-0.006 -1.91448,-0.0367 -2.31961,-0.55184 -0.25368,-0.3225 -0.42732,-0.84678 -0.42732,-1.29016 0,-0.669 0.10205,-0.80971 0.97938,-1.34941 0.74237,-0.45672 1.30371,-0.62425 2.3196,-0.69226 0.7371,-0.0496 1.45621,-0.18315 1.59795,-0.29752 0.34989,-0.28201 0.32475,-1.56501 -0.0516,-2.63154 -0.16997,-0.4821 -0.30967,-1.4912 -0.31017,-2.2424 0,-1.04668 -0.12102,-1.60285 -0.51544,-2.3802 -0.28305,-0.55786 -0.51461,-1.17866 -0.51461,-1.37955 0,-0.57282 -0.36336,-0.68013 -2.71672,-0.80232 -2.44274,-0.12687 -3.05649,-0.41697 -3.05649,-1.44481 0,-0.65772 0.84452,-1.64764 1.40562,-1.64764 0.21699,0 0.63032,-0.18549 0.91869,-0.41239 0.31816,-0.25024 0.83561,-0.4121 1.31646,-0.41172 0.43572,5.3e-4 1.45833,-0.19687 2.27243,-0.43806 1.88404,-0.55839 2.77431,-0.42248 3.64032,0.55568 l 0.62548,0.70649 h 2.29462 c 2.25835,0 2.30362,0.009 2.86263,0.59286 0.45715,0.47716 0.55523,0.74886 0.50253,1.39179 -0.0597,0.72585 -0.15608,0.84377 -1.05667,1.29031 -0.96917,0.48057 -1.0142,0.48399 -2.03398,0.15458 -1.31181,-0.42365 -2.11225,-0.42775 -2.5272,-0.0117 -0.43225,0.43225 -0.44175,3.0552 -0.0146,4.0772 0.17775,0.42546 0.31025,1.3786 0.31155,2.24168 0.003,0.8258 0.0599,1.8494 0.13004,2.27469 l 0.12785,0.77319 h 2.41649 c 1.32905,0 2.69671,0.0977 3.03921,0.21699 0.74579,0.25986 1.36031,1.29784 1.2618,2.13102 -0.0638,0.53973 -0.20576,0.63865 -1.51371,1.05583 -0.79382,0.25315 -2.18559,0.51082 -3.09279,0.57254 -0.9072,0.0618 -1.99443,0.25927 -2.41609,0.43905 -0.94457,0.40265 -1.23169,0.39189 -2.53238,-0.0951 z"
       style="fill:#ffffff;stroke-width:0.24692985"
       inkscape:connector-curvature="0" />
    <path
       id="path4758-6"
       d="m 144.3269,73.43879 c -0.91294,-0.32435 -1.69328,-0.40419 -4.00251,-0.40959 -3.72687,-0.009 -4.84201,-0.30395 -7.40781,-1.96097 -0.82518,-0.5329 -1.13913,-0.96853 -2.37757,-3.29896 -2.5323,-4.76526 -2.29465,-3.88975 -2.29465,-8.45459 v -4.03342 l 0.84923,-1.69644 c 0.46707,-0.93308 1.27892,-2.16486 1.80414,-2.73736 0.52518,-0.57252 1.1057,-1.32536 1.28998,-1.67297 0.18434,-0.34762 0.84341,-0.96942 1.46465,-1.38177 l 1.12951,-0.74977 h 2.50449 2.50444 v 1.51771 1.51769 l -1.08249,0.13007 c -0.59533,0.0715 -1.3436,0.13065 -1.6628,0.13183 -0.7507,0.002 -2.45377,1.43415 -3.19024,2.68224 -0.30112,0.5103 -0.8432,1.31804 -1.20456,1.79501 -0.90914,1.19997 -1.17475,2.14555 -1.17534,4.18438 0,2.05783 0.59233,4.062 1.98255,6.70106 0.74343,1.4112 1.02447,1.74211 1.9457,2.29081 0.59221,0.35275 1.79842,0.90683 2.68044,1.23135 1.46552,0.53921 1.91442,0.60016 5.21189,0.70784 3.48411,0.11374 3.64228,0.13794 4.5969,0.69867 l 0.98864,0.58085 -0.061,1.26588 -0.061,1.26583 -1.64949,0.0487 c -1.211,0.0359 -1.95093,-0.0583 -2.7835,-0.3541 z"
       style="fill:#ffffff;stroke-width:0.24692985"
       inkscape:connector-curvature="0" />
    <path
       id="path5016-8-8"
       d="m 79.754716,74.998173 c -0.6698,-0.42902 -1.23365,-0.47463 -5.88359,-0.4758 h -5.14277 l -0.72181,-0.72178 -0.7218,-0.72181 V 62.981627 52.884697 l 0.709,-0.67926 c 0.59167,-0.56684 0.88796,-0.66643 1.79026,-0.60179 l 1.081229,0.0775 0.12337,9.16056 c 0.098,7.261236 0.19366,9.245146 0.46235,9.568526 0.29585,0.35612 1.012111,0.40796 5.636651,0.40796 h 5.29776 l 0.7218,0.72181 c 0.92424,0.92424 0.95603,2.01109 0.0919,3.14401 -0.54413,0.7134 -0.77106,0.82339 -1.66678,0.8078 -0.57291,-0.01 -1.36836,-0.23037 -1.77766,-0.49257 z"
       style="fill:#ffffff;stroke-width:0.24692985"
       inkscape:connector-curvature="0" />
    <path
       id="path8611"
       d="m 86.322758,71.320909 c -0.945161,-0.666316 -1.376016,-1.58866 -1.36867,-2.930084 0.0089,-1.845423 1.353042,-10.889343 2.191759,-14.75989 l 0.382929,-1.767292 7.326441,0.301749 c 4.029549,0.165833 7.613353,0.588608 7.963983,0.939262 0.35065,0.350654 0.4536,1.21706 0.22869,1.925356 -0.37287,1.174745 -0.86429,1.287823 -5.597588,1.287823 -4.111265,0 -5.264281,0.196551 -5.551903,0.946007 -0.532269,1.387077 -0.224061,1.507835 5.072383,1.987884 4.648568,0.421305 4.838568,0.499725 5.020318,2.071156 0.23675,2.047072 -0.74175,2.400419 -6.100654,2.203111 -4.629554,-0.170508 -6.20969,0.673283 -5.920495,3.161226 0.147357,1.266966 0.553414,1.617598 2.023435,1.747036 5.012722,0.441205 5.906664,0.78133 5.70878,2.17197 -0.176292,1.238852 -0.576407,1.357851 -5.095757,1.51576 -3.702151,0.129328 -5.242532,-0.067 -6.283763,-0.801074 z"
       style="fill:#ffffff;stroke-width:0.61305189"
       inkscape:connector-curvature="0" />
    <path
       id="path8593"
       d="M 46.152544,74.839025 C 45.159772,74.580503 45.079148,73.71915 45.232938,65.013218 l 0.168727,-9.542444 1.730409,-1.291317 c 1.363371,-1.017415 2.826198,-1.337172 6.896813,-1.507479 l 5.166473,-0.21614 v 1.902051 c 0,1.898913 -0.0045,1.902095 -3.402252,1.902095 -1.879836,0 -4.22779,0.426915 -5.247208,0.954065 -1.551998,0.802566 -1.814861,1.264985 -1.655438,2.911987 l 0.189429,1.957922 5.364225,0.176963 c 5.242488,0.173178 5.364181,0.211243 5.364181,1.685889 0,1.44108 -0.171843,1.509171 -3.831548,1.517808 -5.168766,0.01113 -6.896858,0.936101 -6.896858,3.687374 v 2.127585 l 4.696685,0.178075 c 4.856709,0.184309 6.529354,1.012652 5.813044,2.879399 -0.286814,0.747362 -1.519522,0.913574 -6.352392,0.856256 -3.298054,-0.03918 -6.486148,-0.198555 -7.084639,-0.354416 z"
       style="fill:#ffffff;stroke-width:0.61305189"
       inkscape:connector-curvature="0" />
    <path
       inkscape:connector-curvature="0"
       d="m 227.25902,53.005568 c 0,-0.578863 -0.31479,-1.246985 -0.69955,-1.484769 -0.94226,-0.582387 -2.71843,1.643321 -2.10434,2.636967 0.65329,1.056982 2.80389,0.173304 2.80389,-1.152198 z m 4.59793,12.948602 c -0.59416,-1.026417 -1.61659,-2.93124 -2.27202,-4.232967 -0.87128,-1.730345 -1.83963,-2.430636 -3.60111,-2.604283 -2.89699,-0.285594 -4.03088,0.900034 -4.38007,4.579775 -0.20338,2.1449 -0.61243,2.758051 -1.83948,2.758051 -3.37286,0 -1.99282,-8.842762 2.9319,-18.786362 2.03593,-4.11091 4.15752,-3.708301 7.53614,1.430057 1.42656,2.169534 2.72287,4.654654 2.88071,5.522462 0.15783,0.867808 0.67806,3.697559 1.15601,6.288322 0.70885,3.842417 0.6662,4.913263 -0.23146,5.810834 -0.94119,0.941197 -1.25664,0.830426 -2.1807,-0.765889 z m -38.76818,2.753096 c -0.82538,-0.825356 -0.64701,-13.731162 0.23203,-16.796548 1.61662,-5.636871 3.66407,-4.921857 8.06737,2.817404 3.93139,6.909781 5.46488,7.295575 6.28239,1.580474 0.72782,-5.088229 1.15025,-6.025989 2.71448,-6.025989 1.15904,0 1.2689,0.758412 0.8966,6.190241 -0.53882,7.860831 -2.11864,11.166065 -5.33713,11.166065 -2.01333,0 -2.68148,-0.605418 -4.78863,-4.339098 -1.34681,-2.386465 -2.8979,-4.339069 -3.4468,-4.339069 -0.62111,0 -1.263,1.838997 -1.69978,4.869951 -0.65437,4.541133 -1.62888,6.16827 -2.92061,4.876569 z m -14.49389,-2.7659 c 3.52391,-1.858734 5.45534,-4.689802 4.94397,-7.246735 -0.86655,-4.332595 -5.30992,-7.306575 -8.92094,-5.97076 -2.0956,0.775226 -2.76607,3.044561 -2.43542,8.242959 0.20424,3.212681 0.58285,4.042964 2.21866,4.86683 2.40915,1.213356 2.11199,1.205707 4.19373,0.107706 z m -4.96643,3.18415 c -4.1703,-1.663918 -4.74976,-2.852581 -4.74976,-9.743513 0,-5.485997 0.24921,-6.702217 1.68941,-8.248202 1.48718,-1.596286 2.25633,-1.772339 6.42571,-1.470733 4.24508,0.307048 5.01088,0.64214 7.38323,3.230841 4.92821,5.377632 3.13505,13.116005 -3.67029,15.838966 -3.6085,1.443807 -4.34174,1.484541 -7.0783,0.392641 z"
       style="fill:#ffffff;stroke-width:0.78892326"
       id="path8579" />
  </g>
  <path
     inkscape:connector-curvature="0"
     id="path4998-7-4"
     style="fill:#ffffff;stroke-width:0.22591349"
     d="m 144.86881,102.98629 c -0.8311,-0.16599 -1.17562,-0.80311 -1.39655,-2.5827 -0.11687,-0.942365 -0.34514,-1.957393 -0.50697,-2.25561 -0.16197,-0.298228 -0.36942,-1.085398 -0.4613,-1.749287 -0.0918,-0.66389 -0.23373,-1.273855 -0.31504,-1.355482 -0.0815,-0.0816 -1.69954,-0.182649 -3.59586,-0.224504 -3.34714,-0.07382 -3.46507,-0.06065 -4.0376,0.451817 -0.7513,0.672526 -1.38758,2.429315 -2.0935,5.780396 -0.16169,0.7677 -1.55725,0.71034 -2.40173,-0.0988 -0.58081,-0.55644 -0.63363,-0.74438 -0.63363,-2.254557 0,-0.906127 0.14408,-2.0308 0.3205,-2.49926 0.29255,-0.77752 1.68704,-5.260432 2.05694,-6.612547 0.0848,-0.310623 0.41826,-1.022251 0.74062,-1.581386 0.32235,-0.559135 0.87158,-1.604158 1.22054,-2.322272 0.34895,-0.718107 1.05338,-1.760129 1.5654,-2.315613 l 0.93095,-1.009955 h 1.80826 1.80826 l 0.93041,0.973031 c 1.52064,1.590296 3.71349,5.340263 4.45101,7.611678 0.79071,2.435106 1.56184,5.703465 1.5723,6.663926 0.005,0.497296 0.10914,1.36166 0.23054,1.920791 0.49432,2.275894 0.50097,2.583714 0.0644,2.969454 -0.46444,0.41027 -1.51633,0.63893 -2.25789,0.49082 z m -4.00097,-11.935447 c 0.0736,-0.192273 -0.25108,-0.940651 -0.74132,-1.707685 -1.38365,-2.16495 -1.74273,-2.54525 -2.25096,-2.383946 -0.89405,0.283753 -2.10632,3.6979 -1.52091,4.28332 0.0827,0.0828 1.10264,0.150591 2.26621,0.150591 1.68155,0 2.14257,-0.07026 2.24698,-0.342288 z" />
</svg>
