<?xml version="1.0" encoding="UTF-8" standalone="no"?>
<svg
   xmlns:dc="http://purl.org/dc/elements/1.1/"
   xmlns:cc="http://creativecommons.org/ns#"
   xmlns:rdf="http://www.w3.org/1999/02/22-rdf-syntax-ns#"
   xmlns:svg="http://www.w3.org/2000/svg"
   xmlns="http://www.w3.org/2000/svg"
   viewBox="0 0 46.476083 10.067466"
   height="10.067466px"
   width="46.476083px"
   xml:space="preserve"
   id="svg2"
   version="1.1"><defs
   id="defs408" />
  
  <metadata
   id="metadata8">
    <rdf:RDF>
      <cc:Work
   rdf:about="">
        <dc:format>image/svg+xml</dc:format>
        <dc:type
   rdf:resource="http://purl.org/dc/dcmitype/StillImage" />
        <dc:title />
      </cc:Work>
    </rdf:RDF>
  </metadata>
  <g
   id="g405"
   transform="matrix(1.333333,0.000000,0.000000,-1.333333,-206.253050,455.453590)">
    <g
   id="g3473">
      <g
   id="g652"
   transform="translate(188.3939,336.9932)">
        <path
   d="m 0,0 c 0.003,-0.577 -0.062,-0.876 -0.219,-1.033 -0.155,-0.155 -0.449,-0.222 -0.982,-0.222 h -0.114 -0.092 -0.116 c -0.733,0.008 -0.748,0.022 -0.864,0.745 -0.02,0.132 -0.054,0.262 -0.09,0.392 -0.039,0.143 -0.076,0.279 -0.09,0.413 -0.037,0.33 0.018,0.446 0.054,0.486 0.012,0.013 0.047,0.052 0.177,0.052 0.051,0 0.107,-0.005 0.166,-0.016 L -2.021,0.792 C -1.432,0.693 -0.822,0.59 -0.229,0.466 -0.047,0.428 0.027,0.319 0.003,0.121 -0.002,0.082 -0.001,0.041 0,0 m -2.513,3.38 c 0.138,0.026 0.277,0.038 0.422,0.038 0.484,0 0.938,-0.14 1.418,-0.288 L -0.542,3.089 C -0.469,3.067 -0.358,2.969 -0.341,2.93 -0.351,2.89 -0.45,2.741 -0.52,2.711 -1.052,2.478 -1.611,2.27 -2.183,2.093 -2.207,2.085 -2.236,2.082 -2.272,2.082 -2.347,2.082 -2.426,2.095 -2.508,2.109 -2.525,2.112 -2.543,2.114 -2.561,2.117 -2.565,2.19 -2.57,2.261 -2.576,2.332 -2.604,2.721 -2.63,3.061 -2.513,3.38 M 1.025,-1.196 C 1.087,-0.69 1.128,-0.139 1.152,0.489 1.171,0.982 0.905,1.344 0.402,1.506 0.307,1.538 0.215,1.58 0.1,1.634 l 0.013,0.011 c 0.171,0.124 0.309,0.223 0.443,0.326 0.345,0.267 0.528,0.698 0.474,1.125 -0.049,0.39 -0.29,0.716 -0.644,0.87 -0.593,0.257 -1.205,0.45 -1.82,0.573 -0.201,0.04 -0.364,0.058 -0.512,0.058 -0.459,0 -0.806,-0.189 -1.031,-0.563 C -3.68,3.858 -3.7,3.289 -3.715,2.874 c -0.061,-1.73 0.019,-3.293 0.243,-4.795 0.011,-0.072 0.06,-0.133 0.127,-0.161 0.036,-0.014 0.074,-0.034 0.113,-0.054 0.111,-0.057 0.249,-0.128 0.404,-0.135 l 0.483,-0.022 c 0.486,-0.023 0.988,-0.048 1.484,-0.048 0.23,0 0.461,0.006 0.691,0.018 0.649,0.036 1.117,0.478 1.195,1.127"
   style="fill:#231f20;fill-opacity:1;fill-rule:nonzero;stroke:none"
   id="path654" />
      </g>
      <g
   id="g656"
   transform="translate(168.4906,338.5068)">
        <path
   d="m 0,0 c 0.062,-0.005 0.122,-0.009 0.181,-0.014 0.237,-0.017 0.443,-0.032 0.636,-0.075 0.134,-0.03 0.31,-0.064 0.49,-0.064 0.253,0 0.484,0.067 0.707,0.206 0.189,0.118 0.398,0.176 0.639,0.176 0.222,0 0.473,-0.052 0.744,-0.153 0.307,-0.114 0.45,-0.395 0.392,-0.772 C 3.78,-0.751 3.766,-0.807 3.751,-0.861 3.722,-0.978 3.688,-1.11 3.697,-1.249 3.73,-1.726 3.476,-1.974 2.991,-2.265 2.477,-2.575 1.898,-2.601 1.397,-2.601 l -0.3,0.003 C 0.358,-2.589 0.358,-2.589 0.099,-1.904 -0.126,-1.31 -0.109,-0.707 0,0 m -0.774,-3.13 c 0.066,-0.183 0.205,-0.564 0.678,-0.564 h 0.1 c 0.227,0 0.448,-0.003 0.67,-0.005 0.222,-0.003 0.446,-0.006 0.669,-0.006 0.493,0 0.872,0.014 1.229,0.045 0.399,0.034 0.772,0.214 1.132,0.388 l 0.201,0.096 c 0.441,0.205 0.729,0.573 0.813,1.036 l 0.018,0.106 C 4.837,-1.48 4.94,-0.907 4.978,-0.333 5.032,0.498 4.604,1.031 3.704,1.251 2.935,1.438 2.174,1.534 1.44,1.534 1.212,1.534 0.983,1.525 0.754,1.506 L 0.704,1.502 C 0.53,1.489 0.333,1.474 0.167,1.376 -0.161,1.185 -0.517,1.147 -0.853,1.135 -0.976,1.13 -1.087,1.097 -1.205,1.061 -1.257,1.045 -1.312,1.028 -1.373,1.013 -1.472,0.988 -1.537,0.895 -1.527,0.793 -1.523,0.752 -1.522,0.716 -1.522,0.686 -1.521,0.603 -1.52,0.508 -1.451,0.426 -1.141,0.053 -1.108,-0.397 -1.154,-0.958 -1.222,-1.775 -1,-2.515 -0.774,-3.13"
   style="fill:#231f20;fill-opacity:1;fill-rule:nonzero;stroke:none"
   id="path658" />
      </g>
      <g
   id="g660"
   transform="translate(176.8128,338.7466)">
        <path
   d="M 0,0 C 0.299,0.042 0.595,0.112 0.88,0.18 L 1.091,0.23 C 1.335,0.287 1.579,0.348 1.823,0.409 L 2.286,0.523 C 2.643,0.61 2.84,0.873 2.8,1.209 2.776,1.415 2.651,1.659 2.194,1.659 c -0.002,0 -0.048,0 -0.05,0 L 2.071,1.661 1.99,1.663 C 1.932,1.663 1.883,1.657 1.837,1.645 1.547,1.565 1.259,1.484 0.97,1.402 0.616,1.302 0.264,1.202 -0.091,1.106 L -0.163,1.087 C -0.36,1.033 -0.565,0.978 -0.75,0.978 H -0.752 C -1.194,0.978 -1.469,0.772 -1.588,0.383 -1.636,0.226 -1.642,0.067 -1.646,-0.086 L -1.65,-0.177 c -0.039,-0.835 0.028,-1.689 0.206,-2.614 0.12,-0.62 0.226,-0.782 0.923,-0.829 0.154,-0.01 0.307,-0.015 0.459,-0.015 0.855,0 1.7,0.154 2.486,0.321 0.095,0.02 0.163,0.104 0.163,0.201 v 0.732 c 0,0.058 -0.024,0.113 -0.067,0.152 -0.039,0.035 -0.088,0.054 -0.139,0.054 -0.007,0 -0.013,0 -0.02,-0.001 L 2.072,-2.202 C 1.867,-2.219 1.677,-2.235 1.487,-2.263 1.343,-2.284 1.199,-2.313 1.056,-2.341 0.837,-2.385 0.63,-2.427 0.423,-2.439 0.304,-2.447 0.2,-2.452 0.109,-2.452 c -0.387,0 -0.428,0 -0.449,0.727 0.001,-0.003 0.002,-0.004 0.003,-0.004 0.002,0 0.006,0.006 0.011,0.014 h 0.131 0.268 0.358 0.005 c 0.187,0 0.343,-10e-4 0.501,-0.003 0.158,-0.002 0.318,-0.004 0.477,-0.004 0.237,0 0.475,0.004 0.712,0.018 0.246,0.014 0.55,0.059 0.719,0.284 0.171,0.224 0.131,0.534 0.077,0.778 -0.021,0.095 -0.105,0.163 -0.202,0.163 h -3.188 c -0.018,0.158 -0.031,0.325 0,0.368 C -0.429,-0.06 -0.171,-0.024 0,0"
   style="fill:#231f20;fill-opacity:1;fill-rule:nonzero;stroke:none"
   id="path662" />
      </g>
      <g
   id="g664"
   transform="translate(161.6273,334.8169)">
        <path
   d="M 0,0 Z M 0.248,0.961 C 0.16,0.944 0.085,0.93 0.009,0.924 -0.079,0.917 -0.167,0.916 -0.256,0.914 -0.41,0.91 -0.564,0.906 -0.716,0.883 -0.898,0.854 -1.055,0.759 -1.144,0.622 -1.221,0.504 -1.243,0.362 -1.205,0.221 c 0.059,-0.22 0.343,-0.364 0.519,-0.408 0.082,-0.02 0.171,-0.029 0.28,-0.029 0.057,0 0.115,0.003 0.173,0.006 0.051,0.002 0.103,0.004 0.155,0.004 l 0.077,-0.001 0.086,0.001 h 0.082 c 0.295,0 0.473,-0.033 0.626,-0.218 0.104,-0.126 0.241,-0.192 0.395,-0.192 0.166,0 0.344,0.081 0.487,0.222 0.161,0.16 0.347,0.191 0.596,0.191 l 0.088,-10e-4 0.144,-0.003 c 0.156,-0.004 0.312,-0.008 0.469,-0.008 0.171,0 0.341,0.005 0.509,0.019 0.188,0.016 0.363,0.072 0.532,0.127 0.069,0.022 0.139,0.044 0.209,0.064 C 4.324,0.022 4.389,0.124 4.371,0.229 4.257,0.887 3.772,0.904 3.482,0.914 3.279,0.921 3.092,0.923 2.904,0.923 L 2.603,0.922 2.304,0.921 c -0.111,0 -0.22,0.001 -0.33,0.003 C 1.586,0.93 1.533,1 1.49,1.27 1.389,1.911 1.394,2.464 1.507,2.996 h 2.109 c 0.057,0 0.112,0.024 0.151,0.065 0.039,0.041 0.058,0.097 0.055,0.153 L 3.815,3.333 3.785,3.839 C 3.779,3.939 3.702,4.02 3.603,4.032 L 3.462,4.05 C 3.368,4.063 3.292,4.073 3.215,4.073 2.363,4.075 1.513,4.076 0.661,4.076 L -0.864,4.075 -0.889,3.972 H -0.937 L -0.96,4.075 c -0.187,0 -0.685,0 -0.696,-0.539 C -1.66,3.372 -1.615,3.241 -1.524,3.147 -1.375,2.996 -1.15,2.996 -1.029,2.996 h 0.051 0.097 C -0.584,2.986 -0.286,2.984 0.021,2.981 L 0.242,2.979 C 0.321,2.272 0.325,1.623 0.254,0.962 Z"
   style="fill:#231f20;fill-opacity:1;fill-rule:nonzero;stroke:none"
   id="path666" />
      </g>
      <g
   id="g668"
   transform="translate(156.6234,338.3276)">
        <path
   d="m 0,0 h 0.056 l 0.233,0.002 0.228,0.002 c 0.087,0 0.172,-0.001 0.258,-0.005 0.328,-0.017 0.655,-0.041 0.98,-0.065 L 2.16,-0.095 c 0.005,0 0.01,0 0.015,0 0.1,0 0.187,0.073 0.203,0.174 C 2.441,0.485 2.447,0.757 2.288,0.946 2.14,1.122 1.899,1.162 1.584,1.167 L 1.392,1.171 C 1.104,1.176 0.818,1.181 0.531,1.181 0.251,1.181 -0.028,1.176 -0.308,1.162 -0.802,1.135 -1.2,0.951 -1.46,0.629 -1.735,0.288 -1.836,-0.177 -1.75,-0.715 -1.64,-1.404 -1.266,-1.883 -0.573,-2.223 -0.092,-2.459 0.318,-2.691 0.709,-3.02 0.672,-3.054 0.631,-3.088 0.612,-3.092 0.346,-3.151 0.061,-3.168 -0.186,-3.18 -0.374,-3.189 -0.563,-3.19 -0.753,-3.191 -0.93,-3.192 -1.107,-3.193 -1.284,-3.201 -1.513,-3.21 -1.685,-3.283 -1.795,-3.417 c -0.127,-0.153 -0.166,-0.374 -0.12,-0.675 0.016,-0.101 0.103,-0.175 0.204,-0.175 0.264,0 0.524,-0.005 0.781,-0.011 0.254,-0.005 0.506,-0.01 0.756,-0.01 0.375,0 0.683,0.012 0.969,0.037 0.471,0.042 0.86,0.3 1.041,0.69 0.185,0.399 0.129,0.872 -0.149,1.266 -0.141,0.2 -0.354,0.341 -0.542,0.466 l -0.049,0.032 c -0.195,0.129 -0.392,0.252 -0.589,0.376 -0.277,0.171 -0.553,0.343 -0.818,0.532 -0.137,0.098 -0.35,0.307 -0.23,0.606 C -0.514,-0.212 -0.428,0 0,0"
   style="fill:#231f20;fill-opacity:1;fill-rule:nonzero;stroke:none"
   id="path670" />
      </g>
    </g>
  </g>
</svg>