<?xml version="1.0" encoding="UTF-8" standalone="no"?>
<svg
   xmlns:dc="http://purl.org/dc/elements/1.1/"
   xmlns:cc="http://creativecommons.org/ns#"
   xmlns:rdf="http://www.w3.org/1999/02/22-rdf-syntax-ns#"
   xmlns:svg="http://www.w3.org/2000/svg"
   xmlns="http://www.w3.org/2000/svg"
   viewBox="0 0 45.742907 9.7622664"
   height="9.7622664px"
   width="45.742907px"
   xml:space="preserve"
   id="svg2"
   version="1.1"><defs
   id="defs642" />
  
  <metadata
   id="metadata8">
    <rdf:RDF>
      <cc:Work
   rdf:about="">
        <dc:format>image/svg+xml</dc:format>
        <dc:type
   rdf:resource="http://purl.org/dc/dcmitype/StillImage" />
        <dc:title />
      </cc:Work>
    </rdf:RDF>
  </metadata>
  <g
   id="g639"
   transform="matrix(1.333333,0.000000,0.000000,-1.333333,-206.619650,587.205990)">
    <g
   id="g3293">
      <g
   id="g976"
   transform="translate(174.0287,438.522)">
        <path
   d="M 0,0 C -0.117,-0.698 -0.235,-1.396 0.003,-2.117 0.029,-2.196 0.021,-2.304 0.013,-2.418 0.005,-2.532 -0.004,-2.65 0.016,-2.772 0.065,-3.087 0.133,-3.4 0.201,-3.711 l 0.08,-0.379 c 0.02,-0.092 0.099,-0.158 0.193,-0.16 l 0.453,-0.012 c 0.285,-0.008 0.565,-0.016 0.844,-0.016 0.708,0 1.545,0.047 2.393,0.39 0.081,0.033 0.131,0.115 0.124,0.202 L 4.27,-3.471 4.236,-3.083 C 4.228,-2.98 4.142,-2.901 4.037,-2.901 l -0.272,0.002 -0.23,10e-4 C 3.424,-2.898 3.318,-2.899 3.212,-2.904 3.118,-2.908 3.025,-2.927 2.932,-2.946 2.883,-2.956 2.835,-2.966 2.786,-2.973 2.686,-2.987 2.586,-3.003 2.486,-3.02 2.248,-3.06 2.022,-3.098 1.798,-3.101 H 1.797 c -0.192,0 -0.421,0.035 -0.532,0.199 -0.081,0.119 -0.09,0.296 -0.027,0.505 l 2.646,0.389 c 0.098,0.015 0.171,0.099 0.171,0.198 v 0.734 c 0,0.056 -0.024,0.11 -0.065,0.147 -0.037,0.034 -0.086,0.053 -0.136,0.053 -0.005,0 -0.01,0 -0.016,0 L 3.447,-0.908 C 3.181,-0.929 2.935,-0.948 2.689,-0.976 2.311,-1.018 1.931,-1.067 1.545,-1.117 L 1.224,-1.158 c -0.112,0.449 -0.116,0.723 -0.015,0.856 0.092,0.121 0.319,0.179 0.716,0.181 L 2.859,-0.119 3.474,-0.12 H 3.995 4 c 0.203,0 0.639,0.004 0.652,0.477 C 4.658,0.58 4.596,0.765 4.471,0.895 4.358,1.011 4.201,1.074 4.018,1.075 L 3.519,1.081 C 3.152,1.085 2.786,1.089 2.42,1.089 1.959,1.089 1.498,1.083 1.039,1.061 0.271,1.024 0.08,0.475 0,0"
   style="fill:#231f20;fill-opacity:1;fill-rule:nonzero;stroke:none"
   id="path978" />
      </g>
      <g
   id="g980"
   transform="translate(170.8636,435.0879)">
        <path
   d="m 0,0 c -0.406,-0.308 -0.823,-0.464 -1.239,-0.464 -0.183,0 -0.368,0.03 -0.554,0.09 V 2.281 C -1.67,2.263 -1.572,2.249 -1.494,2.215 -1.032,2.013 -0.573,1.813 -0.152,1.573 0.145,1.404 0.334,1.106 0.355,0.776 0.376,0.469 0.246,0.187 0,0 M 0.22,2.808 C 0.059,2.909 -0.117,3.013 -0.305,3.083 -0.97,3.331 -1.639,3.569 -2.309,3.803 -2.382,3.829 -2.453,3.842 -2.52,3.842 -2.756,3.842 -2.929,3.686 -2.981,3.425 -3.006,3.304 -3.006,3.187 -3.006,3.073 V 2.685 c -0.001,-1.171 -0.003,-2.343 0.002,-3.515 10e-4,-0.124 0.019,-0.249 0.041,-0.404 0.011,-0.076 0.023,-0.16 0.034,-0.255 0.012,-0.1 0.098,-0.176 0.199,-0.176 l 0.516,0.003 0.45,0.003 c 0.186,0 0.367,-0.003 0.548,-0.009 l 0.12,-0.003 c 0.669,0 1.3,0.218 1.93,0.667 0.41,0.292 0.63,0.647 0.651,1.054 L 1.503,0.342 C 1.581,1.661 1.551,1.97 0.22,2.808"
   style="fill:#231f20;fill-opacity:1;fill-rule:nonzero;stroke:none"
   id="path982" />
      </g>
      <g
   id="g984"
   transform="translate(186.7757,438.8135)">
        <path
   d="M 0,0 C 0.22,-0.24 0.307,-0.464 0.286,-0.734 H -0.282 C -0.301,-0.471 -0.188,-0.257 0,0 m -0.89,1.009 c -0.322,-0.49 -0.58,-1.027 -0.789,-1.488 -0.281,-0.62 -0.543,-1.258 -0.796,-1.876 l -0.17,-0.413 c -0.165,-0.402 -0.09,-0.796 0.201,-1.054 0.149,-0.133 0.321,-0.2 0.509,-0.2 0.182,0 0.372,0.064 0.561,0.19 0.057,0.038 0.09,0.1 0.09,0.167 0,0.03 0.002,0.059 0.005,0.087 0.006,0.081 0.013,0.173 -0.022,0.267 -0.117,0.315 0.005,0.589 0.148,0.906 0.029,0.065 0.058,0.131 0.086,0.197 0.085,0.205 0.194,0.244 0.365,0.244 0.07,0 0.142,-0.007 0.215,-0.014 0.084,-0.008 0.168,-0.016 0.25,-0.016 0.056,0 0.111,0.004 0.165,0.013 0.053,0.008 0.107,0.01 0.162,0.01 0.054,0 0.107,-0.002 0.161,-0.005 0.061,-0.002 0.12,-0.004 0.18,-0.004 0.312,0 0.478,-0.113 0.567,-0.367 0.042,-0.12 0.089,-0.239 0.135,-0.359 0.096,-0.248 0.186,-0.482 0.242,-0.724 0.031,-0.139 0.129,-0.56 0.569,-0.56 0.116,0 0.25,0.031 0.41,0.093 0.077,0.03 0.127,0.104 0.127,0.187 0,0.094 0.004,0.187 0.008,0.277 0.008,0.209 0.017,0.407 -0.019,0.609 -0.079,0.447 -0.188,0.894 -0.293,1.325 L 2.104,-1.203 C 2.082,-1.11 2.036,-1.036 1.995,-0.971 L 1.959,-0.91 1.8,-0.62 C 1.646,-0.336 1.489,-0.052 1.331,0.23 1.289,0.304 1.25,0.379 1.21,0.455 1.097,0.669 0.98,0.891 0.819,1.084 0.538,1.42 0.249,1.591 -0.038,1.591 -0.35,1.591 -0.637,1.395 -0.89,1.009"
   style="fill:#231f20;fill-opacity:1;fill-rule:nonzero;stroke:none"
   id="path986" />
      </g>
      <g
   id="g988"
   transform="translate(165.1302,438.5625)">
        <path
   d="m 0,0 c -0.082,0.005 -0.163,0.008 -0.244,0.008 -0.304,0 -0.607,-0.034 -0.888,-0.071 -0.114,-0.016 -0.214,-0.03 -0.31,-0.03 -0.175,0 -0.284,0.05 -0.388,0.176 -0.192,0.234 -0.389,0.283 -0.52,0.283 -0.132,0 -0.335,-0.051 -0.544,-0.293 -0.105,-0.123 -0.234,-0.177 -0.417,-0.177 -0.072,0 -0.146,0.008 -0.221,0.021 -0.041,0.007 -0.082,0.021 -0.124,0.035 -0.08,0.026 -0.172,0.056 -0.271,0.056 -0.01,0 -0.059,-0.004 -0.069,-0.005 -0.17,-0.025 -0.569,-0.111 -0.608,-0.361 -0.032,-0.216 0.043,-0.54 0.228,-0.709 0.167,-0.154 0.409,-0.193 0.622,-0.228 L -3.7,-1.304 c 0.159,-0.027 0.321,-0.033 0.495,-0.039 0.019,-0.001 0.038,-0.002 0.058,-0.002 l 0.207,-2.141 -1.482,-0.118 c -0.104,-0.007 -0.184,-0.094 -0.184,-0.199 v -0.723 c 0,-0.111 0.088,-0.201 0.2,-0.201 0.123,0 0.246,-0.004 0.367,-0.009 0.124,-0.005 0.247,-0.01 0.368,-0.01 0.183,0 0.333,0.011 0.473,0.035 0.02,0.003 0.04,0.005 0.059,0.005 0.124,0 0.207,-0.078 0.342,-0.214 0.153,-0.156 0.345,-0.35 0.668,-0.35 0.082,0 0.167,0.051 0.197,0.127 0.143,0.361 0.379,0.43 0.765,0.43 0.08,0 0.161,-0.003 0.242,-0.006 0.087,-0.003 0.174,-0.006 0.259,-0.006 h 0.054 c 0.184,0.003 0.368,0.009 0.552,0.015 l 0.247,0.008 c 0.054,0.001 0.105,0.024 0.141,0.063 0.037,0.039 0.057,0.092 0.054,0.145 -0.028,0.662 -0.091,0.88 -0.73,0.931 -0.333,0.026 -0.668,0.033 -1.003,0.041 l -0.269,0.006 c -0.036,0.196 -0.083,0.387 -0.128,0.572 -0.132,0.538 -0.256,1.047 -0.12,1.597 l 0.057,0.005 c 0.146,0.011 0.295,0.024 0.446,0.027 l 0.257,0.002 0.263,-0.001 0.266,-10e-4 c 0.178,0 0.355,0.002 0.532,0.01 0.246,0.012 0.492,0.129 0.644,0.305 0.101,0.119 0.15,0.257 0.135,0.388 C 0.694,-0.257 0.42,-0.029 0,0"
   style="fill:#231f20;fill-opacity:1;fill-rule:nonzero;stroke:none"
   id="path990" />
      </g>
      <g
   id="g992"
   transform="translate(157.4876,434.4028)">
        <path
   d="m 0,0 c -0.341,-0.13 -0.688,-0.196 -1.031,-0.196 -0.242,0 -0.49,0.032 -0.738,0.096 -0.083,0.022 -0.157,0.033 -0.226,0.033 -0.255,0 -0.438,-0.151 -0.502,-0.414 -0.054,-0.216 -0.023,-0.418 0.089,-0.567 0.099,-0.136 0.26,-0.216 0.448,-0.226 l 0.147,-0.009 c 0.33,-0.018 0.661,-0.037 0.99,-0.037 0.664,0 1.194,0.08 1.671,0.251 0.268,0.097 0.535,0.342 0.648,0.597 C 1.846,0.31 1.53,1.37 0.794,1.892 L 0.567,2.051 c -0.329,0.231 -0.67,0.47 -0.97,0.735 -0.162,0.142 -0.237,0.296 -0.21,0.433 0.026,0.141 0.16,0.264 0.367,0.339 0.148,0.054 0.329,0.088 0.554,0.104 0.108,0.008 0.215,0.009 0.324,0.009 H 0.726 0.82 c 0.129,0 0.258,0.002 0.386,0.013 0.602,0.05 0.652,0.273 0.645,0.894 C 1.85,4.687 1.761,4.775 1.65,4.775 H 1.15 L 0.647,4.776 C 0.252,4.776 -0.144,4.775 -0.54,4.771 -0.675,4.77 -0.8,4.706 -0.894,4.65 -1.33,4.392 -1.646,3.959 -1.762,3.465 -1.874,2.983 -1.789,2.494 -1.523,2.087 -1.354,1.829 -1.101,1.644 -0.854,1.464 l 0.082,-0.06 C -0.639,1.305 -0.493,1.219 -0.349,1.133 -0.154,1.018 0.03,0.909 0.181,0.771 0.327,0.635 0.394,0.487 0.368,0.353 0.34,0.207 0.206,0.079 0,0"
   style="fill:#231f20;fill-opacity:1;fill-rule:nonzero;stroke:none"
   id="path994" />
      </g>
    </g>
  </g>
</svg>