<?xml version="1.0" encoding="UTF-8" standalone="no"?>
<svg
   xmlns:dc="http://purl.org/dc/elements/1.1/"
   xmlns:cc="http://creativecommons.org/ns#"
   xmlns:rdf="http://www.w3.org/1999/02/22-rdf-syntax-ns#"
   xmlns:svg="http://www.w3.org/2000/svg"
   xmlns="http://www.w3.org/2000/svg"
   xmlns:sodipodi="http://sodipodi.sourceforge.net/DTD/sodipodi-0.dtd"
   xmlns:inkscape="http://www.inkscape.org/namespaces/inkscape"
   viewBox="0 0 150 13.999999"
   width="100%"
   xml:space="preserve"
   id="svg2"
   version="1.1"
   sodipodi:docname="song--selected.svg"
   inkscape:version="0.92.3 (unknown)"><sodipodi:namedview
   pagecolor="#ffffff"
   bordercolor="#666666"
   borderopacity="1"
   objecttolerance="10"
   gridtolerance="10"
   guidetolerance="10"
   inkscape:pageopacity="0"
   inkscape:pageshadow="2"
   inkscape:window-width="1920"
   inkscape:window-height="1031"
   id="namedview31"
   showgrid="false"
   inkscape:zoom="15.662544"
   inkscape:cx="43.40001"
   inkscape:cy="-2.4013693"
   inkscape:window-x="0"
   inkscape:window-y="27"
   inkscape:window-maximized="1"
   inkscape:current-layer="svg2" /><defs
   id="defs604" />
  
  <metadata
   id="metadata8">
    <rdf:RDF>
      <cc:Work
   rdf:about="">
        <dc:format>image/svg+xml</dc:format>
        <dc:type
   rdf:resource="http://purl.org/dc/dcmitype/StillImage" />
        <dc:title></dc:title>
      </cc:Work>
    </rdf:RDF>
  </metadata>
  
<path
   style="fill:#000000;stroke:#000000;stroke-width:0.93827319px;stroke-linecap:butt;stroke-linejoin:miter;stroke-opacity:1;fill-opacity:1"
   d="m 2.0592644,4.1772936 c -3.1896619,5.7496191 -1.54359505,10.0169254 4.7552397,9.2640224 6.5526569,-0.783243 16.4944789,0.149968 23.0950989,-0.0087 16.008484,-0.38485 28.618319,-1.025981 44.630356,-0.663721 7.669086,0.173507 18.562589,-0.214101 26.278671,0.262248 14.21589,0.18122 28.61023,-0.973915 42.73588,0.465101 8.5119,0.867129 7.57889,-14.28980477 -0.56357,-12.94476019 C 136.37939,0.66064614 129.84408,1.7639923 123.20622,1.4466163 114.30153,1.6379645 105.38544,0.77122499 96.498194,0.88832617 88.488406,0.9938532 80.854431,2.0066127 72.824302,1.543137 62.713533,1.7828731 52.610126,2.5669108 42.522258,1.9902884 31.494748,1.3599563 19.958059,2.8172696 8.8106656,1.879718 6.5572527,1.6901948 3.4679117,1.6380946 2.0592644,4.1772936 Z"
   id="path845"
   inkscape:connector-curvature="0"
   sodipodi:nodetypes="sssscsccscsss" /><path
   style="fill:#ffffff;fill-opacity:1;stroke:#ffffff;stroke-width:1.06268871;stroke-linecap:round;stroke-linejoin:round;stroke-miterlimit:4;stroke-dasharray:none;stroke-opacity:1"
   d="M 4.7986224,5.2326965 C 4.912366,6.7159391 4.6736331,8.2029866 4.7951597,9.6857162 4.8314225,9.8911787 4.8317951,10.224628 4.9687793,10.324397 6.1132841,9.7725571 6.8462591,9.5107618 7.884413,8.7382446 8.2003635,8.4986361 9.1849356,7.9690601 9.3672496,7.6124703 8.7410031,7.0774598 8.0572912,6.7325205 7.4131725,6.4120958 6.6295842,6.0149532 6.0829478,5.7277137 5.3278943,5.2747073 5.1524991,5.2367239 4.9776294,5.2254033 4.7986209,5.2326965 Z"
   id="path853"
   inkscape:connector-curvature="0"
   sodipodi:nodetypes="ccccccccc" /></svg>