<?xml version="1.0" encoding="UTF-8" standalone="no"?>
<svg
   xmlns:dc="http://purl.org/dc/elements/1.1/"
   xmlns:cc="http://creativecommons.org/ns#"
   xmlns:rdf="http://www.w3.org/1999/02/22-rdf-syntax-ns#"
   xmlns:svg="http://www.w3.org/2000/svg"
   xmlns="http://www.w3.org/2000/svg"
   id="svg5647"
   viewBox="0 0 121.66292025 31.1626673333"
   height="31.1626673333mm"
   width="121.66292025mm"
   version="1.1">
  <defs
     id="defs16" />
  <metadata
     id="metadata5644">
    <rdf:RDF>
      <cc:Work
         rdf:about="">
        <dc:format>image/svg+xml</dc:format>
        <dc:type
           rdf:resource="http://purl.org/dc/dcmitype/StillImage" />
      </cc:Work>
    </rdf:RDF>
  </metadata>
  <g
     id="g13"
     transform="matrix(1.000000,0.000000,0.000000,1.000000,834.730386,-117.766449)">
    <path
       d="m -789.61115,139.61966 c 0,0.29605 1.7856,-0.56613 2.35806,-1.1386 0.3038,-0.3038 0.55236,-0.6159 0.55236,-0.69356 0,-0.0777 0.35719,-0.49038 0.79375,-0.91712 0.43656,-0.42675 0.79859,-0.92877 0.8045,-1.11557 0.006,-0.18679 0.36311,-0.75186 0.79375,-1.25568 1.03231,-1.20772 1.01097,-1.78512 -0.0769,-2.08016 -0.47295,-0.12827 -0.97896,-0.15414 -1.12448,-0.0575 -0.14552,0.0966 -0.44318,0.16722 -0.66146,0.15682 -0.21828,-0.0103 -0.89227,0.48829 -1.49776,1.10823 -0.60548,0.61995 -1.34543,1.12718 -1.64433,1.12718 -0.29891,0 -0.6709,0.23813 -0.82666,0.52917 -0.15576,0.29104 -0.44487,0.52916 -0.64246,0.52916 -0.6173,0 -1.19268,2.32926 -0.65714,2.66026 0.15204,0.094 0.30668,0.37682 0.34362,0.62854 0.0925,0.63027 0.72644,0.98026 1.14554,0.63244 0.18678,-0.15502 0.3396,-0.20617 0.3396,-0.11362 z m -0.10043,2.88293 c -0.0596,-0.0596 -0.6005,-0.11515 -1.20202,-0.12346 -0.78169,-0.0108 -1.16818,-0.1543 -1.35485,-0.5031 -0.15062,-0.28144 -0.42748,-0.42421 -0.65402,-0.33729 -0.25052,0.0962 -0.39284,-0.009 -0.39284,-0.29004 0,-0.24244 -0.10659,-0.37494 -0.23686,-0.29443 -0.13027,0.0805 -0.30513,-0.0315 -0.38857,-0.24894 -0.0834,-0.21746 -0.33031,-0.39537 -0.54859,-0.39537 -0.24407,0 -0.33824,-0.1528 -0.24458,-0.39687 0.0838,-0.21829 0.008,-0.39688 -0.16839,-0.39688 -0.21415,0 -0.2874,-0.34893 -0.2205,-1.05047 0.0702,-0.73634 -0.008,-1.0726 -0.26053,-1.12448 -0.26752,-0.0549 -0.21559,-0.24088 0.20105,-0.72001 0.30897,-0.35531 0.49619,-0.81688 0.41605,-1.02571 -0.0801,-0.20887 -0.0204,-0.53071 0.13272,-0.71523 0.15314,-0.18452 0.24449,-0.49143 0.203,-0.68204 -0.0415,-0.1906 0.10317,-0.35195 0.32145,-0.35856 0.21828,-0.007 0.40537,-0.1311 0.41575,-0.27662 0.0324,-0.45424 0.71732,-1.7198 0.93074,-1.7198 0.11176,0 0.36272,-0.14882 0.55769,-0.33072 0.80216,-0.74843 2.09144,-1.26268 3.16865,-1.26381 0.62968,0 1.76564,-0.0175 2.52435,-0.0375 0.75871,-0.0198 1.53262,0.0782 1.71979,0.21791 0.18718,0.13978 0.63798,0.23056 1.00178,0.20172 0.3638,-0.0288 0.81936,0.0757 1.01235,0.23223 0.2546,0.20653 0.40787,0.19248 0.55849,-0.0512 0.15774,-0.25524 0.24842,-0.22952 0.37757,0.10703 0.0935,0.2436 0.10387,0.54988 0.0231,0.68061 -0.0808,0.13073 0.0372,0.16703 0.26221,0.0807 0.225,-0.0864 0.34322,-0.26358 0.26271,-0.39386 -0.0805,-0.13028 0.0415,-0.23686 0.27114,-0.23686 0.31325,0 0.37607,0.16521 0.25152,0.66146 -0.0942,0.37526 -0.0515,0.66146 0.0986,0.66146 0.63789,0 0.5536,1.29048 -0.17769,2.72039 -0.55018,1.0758 -0.6756,1.5548 -0.46282,1.76758 0.21278,0.21278 0.13179,0.33372 -0.29887,0.44635 -0.37979,0.0993 -0.59075,0.35727 -0.59075,0.72234 0,0.33512 -0.244,0.6749 -0.59531,0.82905 -0.32742,0.14364 -0.6325,0.52247 -0.67795,0.84185 -0.054,0.37952 -0.21441,0.53012 -0.46302,0.43471 -0.462,-0.17727 -0.49982,0.21455 -0.0629,0.65148 0.2287,0.22871 0.23307,0.3175 0.0156,0.3175 -0.16603,0 -0.37396,-0.11663 -0.46205,-0.25916 -0.17517,-0.28342 -0.951,0.0727 -1.88296,0.86432 -0.50964,0.43288 -3.12655,1.04738 -3.3802,0.79372 z m 19.61819,0.48805 c -1.03566,-0.23945 -2.81765,-1.97615 -2.33424,-2.27491 0.12612,-0.0779 0.16707,-0.37971 0.091,-0.67062 -0.0773,-0.29562 -0.008,-0.5289 0.15713,-0.5289 0.40114,0 0.36877,-0.51464 -0.0874,-1.38906 -0.33004,-0.6327 -0.32983,-0.72761 0.002,-0.72761 0.23021,0 0.38119,-0.26199 0.38119,-0.66145 0,-0.36381 -0.14182,-0.66146 -0.31516,-0.66146 -0.17333,0 -0.10305,-0.1551 0.15619,-0.34465 0.43488,-0.318 0.43782,-0.37245 0.038,-0.70424 -0.31631,-0.26252 -0.34861,-0.41196 -0.11962,-0.55346 0.37221,-0.23005 0.44416,-1.45063 0.13755,-2.33338 -0.14193,-0.40865 -0.12447,-0.57047 0.0499,-0.46271 0.158,0.0977 0.14247,-0.10302 -0.0378,-0.48842 -0.3894,-0.83251 -1.48177,-1.08098 -2.94781,-0.6705 -1.36815,0.38303 -2.25297,0.0369 -2.25297,-0.88133 0,-0.32957 -0.1325,-0.73173 -0.29445,-0.89368 -0.39046,-0.39045 -0.0692,-0.86972 0.58295,-0.86972 0.28702,0 0.59407,-0.18819 0.68233,-0.4182 0.1,-0.26056 0.3562,-0.367 0.67979,-0.28239 0.46254,0.12097 1.70243,-0.25154 2.05355,-0.61692 0.0728,-0.0757 0.84666,-0.17034 1.71979,-0.21024 2.38375,-0.10893 3.90325,-0.32208 4.54276,-0.63723 0.40025,-0.19727 0.81194,-0.19994 1.36003,-0.009 0.55264,0.19267 0.87106,0.18896 1.07246,-0.0124 0.20553,-0.20552 0.48306,-0.19687 0.98253,0.0307 0.39969,0.18211 1.08318,0.24453 1.60515,0.14661 0.65411,-0.12272 0.88756,-0.0788 0.83243,0.15645 -0.0421,0.17986 0.14959,0.36467 0.42607,0.41071 0.55158,0.0918 0.99281,0.63338 0.78716,0.96615 -0.0718,0.11607 0.0254,0.22315 0.2159,0.23791 0.19048,0.0148 0.81198,0.0687 1.3811,0.11999 0.71791,0.0646 1.25704,-0.0651 1.76064,-0.42373 0.39923,-0.28427 0.89204,-0.51686 1.09513,-0.51686 0.2031,0 0.49598,-0.12671 0.65086,-0.2816 0.19906,-0.19907 0.38904,-0.17639 0.64822,0.0773 0.20165,0.19741 0.72383,0.50509 1.16039,0.68377 0.60627,0.2481 0.80686,0.51107 0.84924,1.11331 0.0305,0.43365 -0.055,0.78846 -0.19013,0.78846 -0.13509,0 -0.1696,0.19812 -0.0767,0.44027 0.10771,0.28069 0.0647,0.37584 -0.1188,0.26244 -0.1924,-0.11891 -0.26162,0.1516 -0.20887,0.81629 0.0434,0.54679 -0.0168,1.24576 -0.13373,1.55331 -0.14743,0.3878 -0.0797,0.69205 0.22083,0.99261 0.39827,0.39828 0.39913,0.49245 0.0106,1.16081 -0.25916,0.4458 -0.37636,1.08588 -0.30276,1.65344 0.0805,0.62036 0.0387,0.80949 -0.12652,0.57295 -0.19172,-0.2745 -0.27872,-0.23037 -0.39079,0.19817 -0.0793,0.30319 -0.0363,0.61794 0.0956,0.69943 0.36232,0.22394 0.28731,0.92022 -0.091,0.84455 -0.20247,-0.0405 -0.29938,0.16028 -0.24988,0.51774 0.0505,0.36462 -0.12341,0.71146 -0.46302,0.92355 -0.29913,0.1868 -0.54387,0.49482 -0.54387,0.68448 0,0.49122 -0.7804,0.28866 -1.46009,-0.37902 -0.72886,-0.71593 -0.96057,-2.08084 -0.55576,-3.27358 0.18051,-0.53184 0.23771,-1.36745 0.13547,-1.9789 -0.0973,-0.58208 -0.0874,-1.11786 0.022,-1.19062 0.10943,-0.0728 0.20618,-0.93597 0.21499,-1.91823 0.0127,-1.40957 -0.0667,-1.78594 -0.37651,-1.78594 -0.2159,0 -0.31897,-0.11906 -0.22903,-0.26458 0.0899,-0.14553 -0.0519,-0.27451 -0.31511,-0.28663 -1.61353,-0.0743 -3.79262,-0.74586 -3.97666,-1.22547 -0.1071,-0.27911 -0.21691,-0.28607 -0.52179,-0.033 -0.26014,0.21588 -0.44432,0.23085 -0.56442,0.0458 -0.22072,-0.34002 -2.63468,-0.39471 -2.83888,-0.0643 -0.0818,0.13237 -0.41111,0.24067 -0.73179,0.24067 -0.32067,0 -0.80489,0.29541 -1.07604,0.65648 -0.27115,0.36105 -0.58028,0.60254 -0.68695,0.5366 -0.10668,-0.0659 -0.33798,0.97812 -0.51398,2.32008 -0.17602,1.342 -0.43193,2.64832 -0.56871,2.90298 -0.16496,0.30713 -0.1536,0.46303 0.0337,0.46303 0.15996,0 0.19268,0.14343 0.0754,0.33072 -0.27072,0.43255 -0.30676,4.92242 -0.0456,5.68071 0.14586,0.42352 0.0792,0.65641 -0.23867,0.83432 -0.37143,0.20785 -0.38568,0.31345 -0.0904,0.66926 0.37019,0.44606 0.31595,0.4586 -0.83392,0.19275 z m -35.99059,-11.72932 c 0.18215,-0.15116 0.80189,-0.30996 1.3772,-0.35285 0.60665,-0.0453 1.29486,-0.30985 1.63843,-0.62992 0.32582,-0.30356 0.67989,-0.55192 0.78682,-0.55192 0.10692,0 0.0111,-0.36746 -0.21294,-0.81656 -0.29451,-0.59036 -0.54543,-0.78047 -0.90577,-0.68622 -0.27412,0.0717 -0.4984,0.0297 -0.4984,-0.0933 0,-0.123 -0.53122,-0.30326 -1.18047,-0.40063 -0.92395,-0.13856 -1.43627,-0.0532 -2.35761,0.39283 -0.64743,0.3134 -1.24731,0.75268 -1.33307,0.97618 -0.53098,1.38369 0.46239,2.91213 1.69208,2.6035 0.36441,-0.0915 0.81159,-0.28996 0.99373,-0.44114 z m -3.6355,12.0016 c 0,-0.12213 -0.35719,-0.20082 -0.79375,-0.17483 -0.54544,0.0324 -0.79375,-0.0752 -0.79375,-0.34409 0,-0.21524 -0.18164,-0.52414 -0.40364,-0.68647 -0.26436,-0.19333 -0.42413,-0.81086 -0.46302,-1.78969 -0.0327,-0.82201 -0.14868,-1.43944 -0.25782,-1.37205 -0.10914,0.0674 -0.19843,0.006 -0.19843,-0.13565 0,-0.142 0.14284,-0.30578 0.31743,-0.36399 0.37114,-0.12369 0.34532,-4.25492 -0.0274,-4.38192 -0.12593,-0.0429 -0.13618,-0.48938 -0.0228,-0.99219 0.1134,-0.50279 0.13538,-0.91416 0.0488,-0.91416 -0.0865,0 -0.0263,-0.1311 0.13401,-0.29136 0.17531,-0.17531 0.21261,-0.57047 0.0936,-0.99219 -0.10874,-0.38544 -0.14659,-0.84966 -0.0841,-1.03156 0.0625,-0.1819 -0.0281,-0.33073 -0.20132,-0.33073 -0.17322,0 -0.24641,-0.17859 -0.16265,-0.39687 0.0944,-0.24604 -10e-4,-0.39688 -0.25189,-0.39688 -0.2223,0 -0.3306,-0.11906 -0.24066,-0.26458 0.0899,-0.14552 0.003,-0.26458 -0.19267,-0.26458 -0.1959,0 -0.37576,-0.25993 -0.39969,-0.57764 -0.0239,-0.31769 -0.22787,-0.6808 -0.45318,-0.8069 -0.60901,-0.34081 -0.50137,-0.68413 0.38313,-1.22203 0.43604,-0.26517 0.71385,-0.56108 0.61736,-0.65757 -0.0965,-0.0965 -0.0603,-0.17545 0.0803,-0.17545 0.14067,0 0.39864,0.14288 0.57326,0.3175 0.21512,0.21514 0.3175,0.2236 0.3175,0.0262 0,-0.18817 0.43148,-0.24628 1.21923,-0.16418 0.83738,0.0872 1.16359,0.037 1.04157,-0.16044 -0.23561,-0.38124 0.52741,-0.65807 1.11264,-0.40367 0.56389,0.24511 1.46747,0.15187 1.66949,-0.1723 0.0815,-0.13073 0.37914,-0.0287 0.66146,0.22669 0.28233,0.25543 0.77315,0.42696 1.09072,0.38122 0.31758,-0.0458 0.93674,0.1026 1.37593,0.32972 0.43918,0.22712 1.20657,0.41294 1.7053,0.41294 0.49873,0 1.0595,0.18401 1.24615,0.40891 0.18666,0.22489 0.50468,0.34549 0.70672,0.26794 0.36862,-0.14144 0.99487,0.32105 2.54886,1.88233 0.97138,0.97591 1.13453,2.29187 0.35483,2.862 -0.26435,0.1933 -0.47502,0.45159 -0.46814,0.57398 0.007,0.1224 -0.22701,0.22254 -0.51975,0.22254 -0.29273,0 -0.61784,0.13277 -0.72248,0.29507 -0.10463,0.16229 -0.48789,0.38669 -0.8517,0.49868 -0.3638,0.112 -0.73178,0.31274 -0.81774,0.44609 -0.086,0.13338 -0.44818,0.27361 -0.80494,0.31165 -0.35676,0.038 -0.79404,0.15899 -0.97173,0.26882 -0.17768,0.1098 -0.68291,0.20989 -1.12272,0.22241 -0.43981,0.0124 -0.86317,0.12549 -0.94079,0.25109 -0.0776,0.1256 -0.25198,0.15986 -0.38744,0.0761 -0.13547,-0.0837 -0.2463,-0.0238 -0.2463,0.13313 0,0.16434 -0.29749,0.23143 -0.70124,0.15822 -0.43903,-0.0796 -0.96959,0.0639 -1.41893,0.38389 -0.39473,0.28107 -0.79355,0.43519 -0.88626,0.34248 -0.0927,-0.0927 -0.18393,-0.0594 -0.20269,0.0739 -0.10784,0.7666 -0.17669,2.13463 -0.2286,4.54202 -0.0322,1.49159 -0.16481,2.71198 -0.29476,2.71198 -0.12995,0 -0.23627,0.23812 -0.23627,0.52916 0,0.29105 -0.11907,0.52917 -0.26459,0.52917 -0.14552,0 -0.26458,-0.0999 -0.26458,-0.22204 z m 64.16146,0.22204 c 0.0912,-0.14756 -0.10995,-0.26458 -0.45475,-0.26458 -1.0753,0 -1.61591,-0.93956 -1.45237,-2.52418 0.088,-0.85278 0.0296,-1.49651 -0.15245,-1.67852 -0.21724,-0.21725 -0.20723,-0.29522 0.0379,-0.29522 0.18322,0 0.25035,-0.13393 0.14919,-0.2976 -0.17568,-0.28427 -0.28587,-1.21658 -0.47411,-4.01151 -0.0469,-0.69649 0.0109,-1.3258 0.12836,-1.39843 0.1175,-0.0726 0.10637,-0.41418 -0.0247,-0.75901 -0.13111,-0.34486 -0.18548,-1.02526 -0.12082,-1.51199 0.0647,-0.48675 0.17485,-1.70727 0.24489,-2.71227 0.0768,-1.1027 0.28636,-2.003 0.52838,-2.27044 0.22058,-0.24373 0.31599,-0.52821 0.21202,-0.63219 -0.10397,-0.10396 0.22319,-0.18267 0.72703,-0.17492 2.76363,0.0426 3.4296,-0.01 3.4296,-0.26905 0,-0.15584 0.21984,-0.24612 0.48853,-0.20059 0.26868,0.0455 0.6854,-0.0806 0.92604,-0.28035 0.24063,-0.19971 0.43752,-0.25207 0.43752,-0.11633 0,0.1357 0.62508,0.25222 1.38906,0.25892 1.6966,0.0148 2.88111,0.29538 3.26514,0.77332 0.1626,0.20235 0.56686,0.30387 0.92604,0.23257 1.03748,-0.20595 2.32936,0.64897 2.52053,1.66799 0.0907,0.48326 0.10295,0.94051 0.0273,1.01615 -0.24963,0.24964 -3.10101,0.32139 -3.10101,0.0781 0,-0.38899 -6.09704,-0.12036 -6.34417,0.27948 -0.11563,0.18711 -0.50655,0.34017 -0.86871,0.34017 -0.52705,0 -0.65847,0.13282 -0.65847,0.66551 0,0.36602 -0.19348,0.77377 -0.42995,0.90612 -0.23647,0.13234 -0.42995,0.36078 -0.42995,0.50765 0,0.14687 0.11371,0.19677 0.25268,0.11089 0.14909,-0.0921 0.21463,0.25397 0.15987,0.84428 -0.0511,0.55026 0.0235,1.14332 0.16561,1.31795 0.77035,0.94644 3.95822,1.88335 7.09476,2.0851 2.97225,0.19119 3.33463,0.27056 3.92352,0.85947 0.84811,0.8481 0.71719,1.17541 -0.74852,1.87129 -0.72761,0.34544 -1.32292,0.72115 -1.32292,0.8349 0,0.11374 -0.42754,0.0887 -0.95009,-0.0555 -0.52256,-0.14428 -1.12649,-0.19465 -1.34209,-0.11192 -0.21559,0.0827 -0.60244,0.0378 -0.85966,-0.0999 -0.25721,-0.13767 -1.30181,-0.32568 -2.32131,-0.41781 -1.40474,-0.12694 -1.94362,-0.0785 -2.22515,0.1999 -0.20432,0.20206 -0.56491,0.44055 -0.80131,0.52998 -0.4571,0.17291 -0.93054,2.36183 -0.61965,2.86486 0.0953,0.15425 0.20636,0.58121 0.2467,0.94879 0.0599,0.54571 -0.0205,0.64379 -0.43801,0.53459 -0.29916,-0.0782 -0.57131,0.0225 -0.6558,0.2426 -0.0794,0.20698 -0.25776,0.37634 -0.3963,0.37634 -0.13854,0 -0.17831,-0.11906 -0.0884,-0.26458 z m -80.69792,1.85208 c -0.29104,-0.12506 -0.86361,-0.23577 -1.27238,-0.24598 -0.4914,-0.0124 -0.67926,-0.1221 -0.55443,-0.32406 0.12622,-0.20423 0.0714,-0.23294 -0.16536,-0.0866 -0.44789,0.27681 -3.17639,0.32692 -3.34044,0.0613 -0.0674,-0.10914 0.0928,-0.20026 0.35606,-0.20248 0.27115,-0.003 0.36251,-0.0883 0.21077,-0.19844 -0.33821,-0.24543 -0.42527,-1.7004 -0.0893,-1.49278 0.13644,0.0843 0.40357,0.0243 0.59363,-0.13346 0.25305,-0.21002 0.75734,-0.14509 1.8839,0.24249 0.8461,0.2911 1.59716,0.47046 1.66904,0.3986 0.0719,-0.0719 0.28019,-0.007 0.46292,0.14504 0.24135,0.20029 0.48325,0.11364 0.88424,-0.31676 0.3036,-0.32588 0.552,-0.68913 0.552,-0.80721 0,-0.11809 0.23812,-0.21469 0.52917,-0.21469 0.42837,0 0.52916,-0.17639 0.52916,-0.92604 0,-0.84161 0.19787,-1.0619 0.8599,-0.95737 0.33665,0.0532 0.21873,-0.70987 -0.13229,-0.85603 -0.23841,-0.0993 -0.19657,-0.24643 0.14991,-0.52713 0.26435,-0.21418 0.47271,-0.45976 0.46302,-0.54578 -0.0597,-0.52986 0.0265,-0.68556 0.37925,-0.68556 0.21829,0 0.39688,-0.11906 0.39688,-0.26459 0,-0.14552 -0.11906,-0.26458 -0.26458,-0.26458 -0.14553,0 -0.26641,-0.20836 -0.26864,-0.46302 -0.003,-0.35459 -0.0564,-0.38036 -0.22776,-0.11012 -0.18156,0.28644 -0.25278,0.27718 -0.37796,-0.049 -0.0848,-0.22108 -0.0121,-0.46013 0.16162,-0.53123 0.22571,-0.0923 0.20258,-0.20934 -0.081,-0.40992 -0.34045,-0.24077 -0.32883,-0.28125 0.0818,-0.28471 0.31494,-0.003 0.40876,-0.11711 0.27433,-0.33462 -0.11237,-0.18182 -0.16992,-0.65834 -0.1279,-1.05897 0.0481,-0.45905 -0.0709,-0.78491 -0.32199,-0.88125 -0.21912,-0.0841 -0.5227,-0.50945 -0.67462,-0.94528 -0.15192,-0.43579 -0.39105,-0.72141 -0.53139,-0.63468 -0.14035,0.0867 -0.3716,-0.0504 -0.51391,-0.30461 -0.22073,-0.39444 -0.68853,-0.46543 -3.18499,-0.4834 -2.85065,-0.0206 -2.95189,-0.0418 -3.91848,-0.82412 -0.54572,-0.4417 -1.07246,-1.08987 -1.17052,-1.44042 -0.0981,-0.35052 -0.19017,-0.4885 -0.20467,-0.3066 -0.0145,0.1819 -0.14544,0.33073 -0.29096,0.33073 -0.49397,0 -0.2673,-0.52266 0.53776,-1.23997 0.44128,-0.3932 0.74414,-0.86654 0.67301,-1.0519 -0.0711,-0.18537 -0.003,-0.41524 0.15195,-0.51086 0.18897,-0.11679 0.16906,-0.24318 -0.0607,-0.38518 -0.47882,-0.29594 0.16005,-1.04542 0.89113,-1.04542 0.29748,0 0.46253,-0.0784 0.36678,-0.1741 -0.0958,-0.0957 -0.0415,-0.33388 0.12059,-0.52916 0.16207,-0.19529 0.2121,-0.35508 0.11115,-0.35508 -0.10093,0 0.25833,-0.41671 0.79837,-0.92604 0.54004,-0.50932 1.11519,-0.92604 1.27811,-0.92604 0.16292,0 0.44766,-0.24249 0.63275,-0.53888 0.27804,-0.44521 1.3789,-1.07415 1.90743,-1.08971 0.0728,-0.003 0.296,-0.13978 0.49609,-0.30583 0.2001,-0.16608 0.69431,-0.26728 1.09825,-0.2249 0.40393,0.0424 0.81299,-0.0501 0.90902,-0.20545 0.12173,-0.19698 0.32992,-0.19936 0.68769,-0.008 0.38367,0.20531 0.51514,0.18883 0.52116,-0.0654 0.005,-0.20154 0.1179,-0.15145 0.27773,0.12297 0.14832,0.25467 0.38192,0.46303 0.51911,0.46303 0.13718,0 0.539,0.25177 0.89294,0.55954 0.74786,0.65024 0.63345,1.39631 -0.17479,1.13979 -0.32468,-0.10305 -0.4672,-0.0653 -0.36683,0.097 0.10122,0.16378 -0.41848,0.28697 -1.35593,0.32142 -2.4206,0.0889 -2.71069,0.1211 -2.71069,0.30091 0,0.0934 -0.27725,0.23934 -0.6161,0.32438 -0.33886,0.0851 -0.75302,0.45514 -0.92037,0.82243 -0.16735,0.36729 -0.46697,0.66781 -0.66581,0.66781 -0.53602,0 -1.1539,0.81068 -1.36117,1.78594 -0.10052,0.47294 -0.26814,0.85989 -0.37247,0.85989 -0.15553,0 -0.19973,1.05251 -0.067,1.59446 0.0188,0.0766 0.71873,0.15901 1.55547,0.18314 1.972,0.0569 3.21345,0.31459 4.0349,0.83762 0.9809,0.62455 2.50093,2.26862 2.60083,2.81305 0.048,0.26165 0.25592,0.73308 0.46201,1.04762 0.2061,0.31456 0.40115,0.89114 0.43344,1.28135 0.0323,0.39018 0.12204,0.70938 0.19944,0.70935 0.19058,-1.3e-4 0.11759,2.37805 -0.11027,3.59262 -0.10126,0.53977 -0.36335,1.16064 -0.58241,1.37972 -0.21907,0.21905 -0.33889,0.62547 -0.26628,0.90313 0.10353,0.39592 0.0562,0.44188 -0.21954,0.21309 -0.27553,-0.22868 -0.41684,-0.094 -0.65344,0.62294 -0.16603,0.50308 -0.48226,0.98393 -0.70273,1.06852 -0.22046,0.0846 -0.32129,0.28255 -0.22406,0.43987 0.0972,0.15732 -0.0589,0.54509 -0.34704,0.86175 -0.28811,0.31665 -0.66196,0.84362 -0.83078,1.17104 -0.32413,0.62863 -1.26191,0.7651 -2.27272,0.33073 z m 102.59219,2.4706 c -0.1819,-0.0734 -0.33073,-0.31485 -0.33073,-0.53657 0,-0.24334 -0.15197,-0.34483 -0.3834,-0.25601 -0.25625,0.0983 -0.33461,0.0198 -0.23628,-0.23627 0.0809,-0.21088 0.0153,-0.38341 -0.14576,-0.38341 -0.16109,0 -0.29289,-0.41672 -0.29289,-0.92604 0,-0.50933 0.11532,-0.92605 0.25628,-0.92605 0.14095,0 0.18774,-0.17859 0.10398,-0.39687 -0.0838,-0.21828 -0.01,-0.39688 0.16385,-0.39688 0.22355,0 0.26246,-0.31779 0.13284,-1.08497 -0.17667,-1.04572 -0.16076,-1.0786 0.43977,-0.90871 0.46547,0.13168 0.52483,0.10871 0.23468,-0.0908 -0.3305,-0.22722 -0.30458,-0.33969 0.17389,-0.75467 0.30925,-0.26821 0.60308,-0.72141 0.65297,-1.00708 0.0499,-0.2857 0.20976,-0.6178 0.35528,-0.738 0.17141,-0.14161 0.14811,-0.26586 -0.0661,-0.3528 -0.1819,-0.0738 -0.33073,-0.36534 -0.33073,-0.64786 0,-0.30445 -0.2694,-0.61608 -0.66145,-0.76515 -0.36381,-0.13832 -0.66146,-0.38052 -0.66146,-0.53824 0,-0.15769 -0.11907,-0.21315 -0.26459,-0.12321 -0.14552,0.0899 -0.26458,0.0504 -0.26458,-0.088 0,-0.13833 -0.29766,-0.32621 -0.66146,-0.41752 -0.3638,-0.0913 -0.66146,-0.34134 -0.66146,-0.55562 0,-0.21426 -0.23812,-0.5383 -0.52916,-0.72007 -0.29104,-0.18174 -0.52917,-0.4613 -0.52917,-0.62121 0,-0.15991 -0.29437,-0.42489 -0.65416,-0.58883 -0.35979,-0.16394 -0.73108,-0.60452 -0.8251,-0.97912 -0.10912,-0.43479 -0.54232,-0.87053 -1.19792,-1.20499 -0.56484,-0.28818 -1.02699,-0.70384 -1.02699,-0.92374 0,-0.21989 -0.17859,-0.46834 -0.39687,-0.55211 -1.08295,-0.41555 0.1753,-1.94775 1.59952,-1.94775 0.64783,0 1.14273,0.20465 1.59953,0.66146 0.3638,0.3638 0.7113,0.66145 0.77221,0.66145 0.0609,0 1.08229,1.00151 2.26972,2.22555 1.91258,1.97154 2.25052,2.21395 2.9612,2.12402 0.89427,-0.11319 2.03263,-1.04307 2.06121,-1.6837 0.0132,-0.29739 0.0779,-0.2652 0.22543,0.11226 0.2026,0.51832 0.21055,0.5175 0.38805,-0.0408 0.0997,-0.31345 0.12517,-0.87905 0.0567,-1.25683 -0.0907,-0.49998 0.021,-0.7648 0.41033,-0.97316 0.38854,-0.20794 0.49276,-0.45408 0.38093,-0.89966 -0.11281,-0.44948 0.058,-0.84032 0.63904,-1.46233 0.70322,-0.75279 0.90525,-0.83 1.78438,-0.68178 0.54525,0.0919 1.19323,0.18995 1.43994,0.21783 0.51005,0.0577 0.93844,1.32707 0.49744,1.47408 -0.1565,0.0522 -0.28455,0.31602 -0.28455,0.58634 0,0.27033 -0.10788,0.55819 -0.23974,0.63968 -0.13186,0.0815 -0.17751,0.38616 -0.10144,0.67707 0.0773,0.29562 0.008,0.5289 -0.15713,0.5289 -0.16249,0 -0.29544,0.1786 -0.29544,0.39688 0,0.21828 -0.12898,0.39687 -0.28663,0.39687 -0.15765,0 -0.23416,0.14883 -0.17002,0.33073 0.0641,0.1819 -0.0909,0.62839 -0.34456,0.99219 -0.25365,0.3638 -0.64614,1.10514 -0.87222,1.64743 -0.22607,0.54229 -0.65641,1.24934 -0.95631,1.57125 -0.31956,0.34301 -0.54526,0.9425 -0.54526,1.44828 0,0.47464 -0.14917,0.95821 -0.3315,1.07458 -0.7156,0.45675 -1.76039,2.38662 -1.88177,3.47588 -0.0703,0.63122 -0.3365,1.37816 -0.59147,1.65992 -0.3554,0.39269 -0.39095,0.58489 -0.15234,0.82349 0.17118,0.17118 0.30942,0.4958 0.3072,0.72136 -0.004,0.36213 -0.0369,0.36369 -0.28473,0.0132 -0.21775,-0.3079 -0.31149,-0.32055 -0.41813,-0.0564 -0.0756,0.1873 -0.406,0.66355 -0.73423,1.05834 -0.32822,0.39481 -0.54503,0.86667 -0.4818,1.04857 0.11844,0.34078 -0.0807,0.38793 -0.65675,0.15549 z"
       style="fill:#000000;stroke-width:1.865;stroke:#000000;stroke-opacity:1;stroke-miterlimit:4;stroke-dasharray:none"
       id="path6299" />
  </g>
</svg>
