<?xml version="1.0" encoding="UTF-8" standalone="no"?>
<svg
   xmlns:dc="http://purl.org/dc/elements/1.1/"
   xmlns:cc="http://creativecommons.org/ns#"
   xmlns:rdf="http://www.w3.org/1999/02/22-rdf-syntax-ns#"
   xmlns:svg="http://www.w3.org/2000/svg"
   xmlns="http://www.w3.org/2000/svg"
   version="1.1"
   id="svg2"
   xml:space="preserve"
   width="100%"
   viewBox="0 0 150 14"><defs
   id="defs234" />
  
  <metadata
   id="metadata8">
    <rdf:RDF>
      <cc:Work
   rdf:about="">
        <dc:format>image/svg+xml</dc:format>
        <dc:type
   rdf:resource="http://purl.org/dc/dcmitype/StillImage" />
        <dc:title></dc:title>
      </cc:Work>
    </rdf:RDF>
  </metadata>
  <g
   style="fill:#000000;fill-opacity:1"
   transform="matrix(0.86669792,0,0,-0.86669792,-106.31482,279.59898)"
   id="g231">
    <g
   style="fill:#000000;fill-opacity:1"
   id="g3535">
      <g
   style="fill:#000000;fill-opacity:1"
   transform="translate(156.5755,313.1841)"
   id="g336">
        <path
   id="path338"
   style="fill:#000000;fill-opacity:1;fill-rule:nonzero;stroke:none"
   d="M 0,0 C 0.332,-0.014 0.344,0.314 0.357,0.576 0.359,0.619 0.359,0.662 0.36,0.705 0.378,1.712 0.401,2.72 0.409,3.728 0.41,3.938 0.382,4.158 0.318,4.358 0.152,4.876 -0.162,5.019 -0.67,4.822 -0.807,4.768 -0.936,4.681 -1.056,4.594 -1.487,4.28 -1.914,3.959 -2.429,3.577 -2.744,3.996 -3.042,4.384 -3.332,4.778 -3.668,5.235 -4.148,5.194 -4.619,5.144 -5.029,5.1 -5.085,4.752 -5.144,4.432 -5.197,4.14 -5.236,3.844 -5.28,3.55 -5.312,3.34 -5.348,3.13 -5.369,2.918 -5.428,2.325 -5.485,1.732 -5.533,1.138 -5.555,0.87 -5.407,0.741 -5.146,0.743 c 0.232,0.002 0.338,0.122 0.36,0.357 0.079,0.85 0.162,1.701 0.263,2.549 0.025,0.212 0.122,0.416 0.199,0.666 0.617,-0.295 0.923,-0.742 1.185,-1.24 0.291,-0.555 0.782,-0.669 1.264,-0.282 0.334,0.268 0.624,0.588 0.941,0.875 0.165,0.149 0.309,0.37 0.649,0.261 C -0.276,3.722 -0.259,3.515 -0.262,3.308 -0.273,2.407 -0.292,1.506 -0.307,0.606 -0.312,0.346 -0.338,0.014 0,0" />
      </g>
      <g
   style="fill:#000000;fill-opacity:1"
   transform="translate(163.9974,316.4746)"
   id="g340">
        <path
   id="path342"
   style="fill:#000000;fill-opacity:1;fill-rule:nonzero;stroke:none"
   d="M 0,0 C -0.143,0.383 -0.141,0.721 0.001,1.041 0.254,1.612 1.082,1.89 1.648,1.613 1.992,1.445 2.021,0.855 1.658,0.573 1.18,0.201 0.621,0.016 0,0 m 2.888,-2.55 c 0.137,0.336 0.038,0.612 -0.198,0.874 -0.342,0.381 -0.669,0.777 -1.022,1.19 0.102,0.088 0.282,0.235 0.451,0.395 C 2.762,0.518 2.863,1.402 2.342,2.054 2.218,2.208 2.013,2.37 1.83,2.391 0.881,2.497 -0.051,2.434 -0.909,1.911 -0.924,1.808 -0.954,1.702 -0.952,1.598 c 0.024,-1.199 0.055,-2.396 0.084,-3.594 0.001,-0.043 -0.004,-0.091 0.014,-0.127 0.108,-0.218 0.22,-0.434 0.32,-0.628 0.417,0.077 0.586,0.264 0.564,0.596 -0.019,0.298 -0.053,0.593 -0.079,0.89 -0.016,0.193 -0.028,0.386 -0.049,0.669 0.904,-0.502 1.674,-0.953 2.286,-1.637 0.173,-0.196 0.337,-0.475 0.7,-0.317" />
      </g>
      <g
   style="fill:#000000;fill-opacity:1"
   transform="translate(159.3753,316.5928)"
   id="g344">
        <path
   id="path346"
   style="fill:#000000;fill-opacity:1;fill-rule:nonzero;stroke:none"
   d="M 0,0 C -0.147,0.479 -0.109,0.676 0.175,0.885 0.524,1.142 1.028,1.084 1.542,0.701 1.044,0.298 0.432,0.025 0,0 M 1.223,-2.029 C 1.151,-2.137 0.991,-2.236 0.864,-2.247 0.552,-2.273 0.233,-2.246 -0.124,-2.24 c 0.009,0.502 0.017,0.94 0.026,1.485 0.287,-0.005 0.5,0.008 0.709,-0.016 0.606,-0.069 0.944,-0.755 0.612,-1.258 m 0.411,3.69 C 1.124,1.784 0.577,1.75 0.049,1.805 -0.282,1.84 -0.478,1.698 -0.586,1.4 -0.659,1.2 -0.793,1.004 -0.801,0.803 c -0.04,-1.068 -0.052,-2.138 -0.065,-3.207 -0.005,-0.336 0.186,-0.517 0.513,-0.531 0.491,-0.02 0.984,-0.039 1.475,-0.023 0.431,0.014 0.813,0.304 0.859,0.659 0.086,0.648 0.301,1.362 -0.275,1.979 0.169,0.182 0.316,0.31 0.426,0.466 0.404,0.577 0.178,1.352 -0.498,1.515" />
      </g>
      <g
   style="fill:#000000;fill-opacity:1"
   transform="translate(195.5599,316.8936)"
   id="g348">
        <path
   id="path350"
   style="fill:#000000;fill-opacity:1;fill-rule:nonzero;stroke:none"
   d="m 0,0 c -0.344,-0.009 -0.669,-0.018 -1.033,-0.027 -0.117,0.506 0.025,0.862 0.226,1.187 0.076,0.119 0.267,0.237 0.398,0.23 0.128,-0.008 0.294,-0.152 0.36,-0.279 C 0.125,0.778 0.093,0.419 0,0 M 0.968,-0.97 C 0.908,-0.249 0.87,0.475 0.8,1.195 0.775,1.447 0.712,1.707 0.609,1.937 0.538,2.094 0.392,2.272 0.238,2.327 -0.592,2.625 -1.135,2.34 -1.511,1.526 -2.002,0.461 -2.107,-0.695 -2.371,-1.814 -2.43,-2.061 -2.438,-2.325 -2.43,-2.58 c 0.011,-0.323 0.293,-0.465 0.522,-0.242 0.148,0.144 0.21,0.394 0.268,0.608 0.089,0.326 0.115,0.672 0.225,0.988 0.043,0.122 0.241,0.255 0.377,0.267 0.376,0.03 0.758,-0.001 1.164,-0.008 0.103,-0.547 0.199,-1.024 0.278,-1.505 0.053,-0.317 0.202,-0.504 0.559,-0.505 0.177,0.296 0.182,0.604 0.133,0.928 -0.055,0.358 -0.098,0.718 -0.128,1.079" />
      </g>
      <g
   style="fill:#000000;fill-opacity:1"
   transform="translate(146.1224,315.6675)"
   id="g352">
        <path
   id="path354"
   style="fill:#000000;fill-opacity:1;fill-rule:nonzero;stroke:none"
   d="M 0,0 C 0.072,0.436 0.232,0.862 0.404,1.272 0.463,1.413 0.684,1.586 0.817,1.576 1.281,1.54 1.749,1.464 2.195,1.336 2.731,1.182 2.895,0.898 2.88,0.197 2.841,-0.247 2.7,-0.792 2.378,-1.293 2.223,-1.536 2.014,-1.641 1.755,-1.684 0.688,-1.863 -0.175,-1.054 0,0 m 2.376,-2.341 c 0.149,0.056 0.272,0.198 0.392,0.316 0.782,0.771 0.931,1.747 0.859,2.778 C 3.594,1.228 3.343,1.612 2.903,1.817 2.597,1.96 2.262,2.043 1.938,2.152 1.718,2.226 1.484,2.273 1.276,2.374 0.652,2.676 0.439,2.648 0,2.138 -0.606,1.434 -0.75,0.579 -0.816,-0.316 c 0.038,-0.312 -0.006,-0.668 0.129,-0.931 0.442,-0.851 2.143,-1.44 3.063,-1.094" />
      </g>
      <g
   style="fill:#000000;fill-opacity:1"
   transform="translate(143.2572,313.4922)"
   id="g356">
        <path
   id="path358"
   style="fill:#000000;fill-opacity:1;fill-rule:nonzero;stroke:none"
   d="M 0,0 C 0.007,-0.229 0.071,-0.444 0.348,-0.451 0.624,-0.458 0.689,-0.23 0.73,-0.017 0.758,0.129 0.749,0.282 0.752,0.432 0.769,1.331 0.773,2.231 0.805,3.13 0.818,3.512 0.892,3.892 0.926,4.273 0.946,4.5 0.902,4.709 0.635,4.769 0.4,4.822 0.261,4.692 0.202,4.487 0.138,4.264 0.086,4.034 0.064,3.803 0.039,3.511 0.049,3.215 0.043,2.85 -0.648,2.861 -1.264,2.84 -1.871,2.896 c -0.322,0.03 -0.515,0.282 -0.5,0.642 0.012,0.3 0.034,0.603 0,0.898 C -2.388,4.573 -2.502,4.761 -2.619,4.808 -2.819,4.889 -3.01,4.763 -3.055,4.546 -3.135,4.155 -3.214,3.758 -3.23,3.36 -3.246,3.002 -3.155,2.64 -3.15,2.279 -3.143,1.659 -3.183,1.037 -3.17,0.417 c 0.011,-0.541 0.109,-0.608 0.697,-0.553 0.016,0.199 0.039,0.408 0.046,0.618 0.013,0.364 0.005,0.728 0.026,1.092 0.023,0.438 0.104,0.519 0.545,0.526 0.45,0.007 0.9,-0.003 1.348,-0.025 C -0.345,2.067 -0.185,2.003 0.027,1.952 0.02,1.514 0.012,1.11 0.006,0.707 0.002,0.471 -0.007,0.235 0,0" />
      </g>
      <g
   style="fill:#000000;fill-opacity:1"
   transform="translate(179.4984,315.5811)"
   id="g360">
        <path
   id="path362"
   style="fill:#000000;fill-opacity:1;fill-rule:nonzero;stroke:none"
   d="M 0,0 C -0.229,-0.396 -0.586,-0.74 -0.949,-1.026 -1.137,-1.174 -1.464,-1.144 -1.78,-1.204 -2.146,-0.078 -2.074,1.025 -2.198,2.209 -1.746,2.202 -1.425,2.223 -1.111,2.186 0.005,2.051 0.567,0.983 0,0 M 0.82,1.547 C 0.646,2.307 0.104,2.77 -0.667,2.847 -0.944,2.874 -1.225,2.86 -1.503,2.865 v 0.008 c -0.215,0.004 -0.43,0.008 -0.643,0.011 -0.043,10e-4 -0.086,0.003 -0.129,10e-4 -0.52,-0.023 -0.661,-0.125 -0.647,-0.657 0.024,-0.918 0.102,-1.834 0.16,-2.751 0.021,-0.32 0.043,-0.64 0.083,-0.958 0.063,-0.495 0.237,-0.688 0.708,-0.623 0.501,0.068 1.013,0.187 1.473,0.391 1.246,0.553 1.572,2.157 1.318,3.26" />
      </g>
      <g
   style="fill:#000000;fill-opacity:1"
   transform="translate(127.8275,316.8838)"
   id="g364">
        <path
   id="path366"
   style="fill:#000000;fill-opacity:1;fill-rule:nonzero;stroke:none"
   d="M 0,0 C 0.713,0.077 1.407,0.387 2.151,0.193 2.266,0.163 2.525,0.291 2.544,0.38 2.576,0.54 2.506,0.746 2.416,0.894 2.367,0.976 2.189,1.016 2.07,1.013 1.667,1.003 1.264,0.957 0.86,0.94 0.505,0.926 0.145,0.897 -0.205,0.942 -0.461,0.975 -0.652,0.958 -0.85,0.78 -1.073,0.579 -1.18,0.353 -1.183,0.052 c -0.011,-1.093 -0.039,-2.186 -0.052,-3.279 -0.002,-0.144 0.037,-0.289 0.059,-0.449 0.121,-0.03 0.222,-0.074 0.324,-0.077 0.962,-0.021 1.925,-0.037 2.963,-0.055 0.019,0.241 0.035,0.449 0.053,0.675 -0.924,0.1 -1.78,-0.006 -2.668,0.128 -0.015,0.302 -0.047,0.554 -0.033,0.803 0.029,0.517 0.198,0.678 0.72,0.695 0.321,0.011 0.643,-0.014 0.963,-0.009 0.514,0.008 0.557,0.084 0.357,0.673 C 0.867,-0.832 0.211,-0.82 -0.436,-0.809 -0.531,-0.134 -0.53,-0.057 0,0" />
      </g>
      <g
   style="fill:#000000;fill-opacity:1"
   transform="translate(171.4066,314.0439)"
   id="g368">
        <path
   id="path370"
   style="fill:#000000;fill-opacity:1;fill-rule:nonzero;stroke:none"
   d="M 0,0 C 0.199,0.084 0.411,0.168 0.356,0.454 0.295,0.774 0.051,0.767 -0.192,0.751 -0.276,0.745 -0.36,0.702 -0.443,0.703 c -0.614,0.006 -1.228,0.019 -1.829,0.03 -0.177,0.8 -0.116,0.885 0.613,0.879 0.45,-0.003 0.901,-0.033 1.35,-0.013 0.415,0.018 0.494,0.145 0.467,0.694 -0.798,0.014 -1.603,0.028 -2.454,0.043 -0.026,0.221 -0.049,0.325 -0.051,0.43 -0.018,0.957 0.141,1.116 1.106,1.114 0.301,-10e-4 0.602,-0.021 0.9,0.007 0.289,0.027 0.404,0.212 0.353,0.495 C -0.035,4.645 -0.208,4.771 -0.45,4.678 -1.016,4.461 -1.595,4.579 -2.169,4.566 -2.865,4.551 -3.345,4.097 -3.193,3.433 -3.013,2.64 -3.123,1.855 -3.084,1.068 -3.07,0.796 -3.026,0.51 -2.919,0.263 c 0.06,-0.138 0.273,-0.286 0.426,-0.295 0.727,-0.042 1.457,-0.041 2.186,-0.046 C -0.204,-0.079 -0.097,-0.041 0,0" />
      </g>
      <g
   style="fill:#000000;fill-opacity:1"
   transform="translate(184.1683,314.6045)"
   id="g372">
        <path
   id="path374"
   style="fill:#000000;fill-opacity:1;fill-rule:nonzero;stroke:none"
   d="m 0,0 c -0.406,0.026 -0.814,0.02 -1.222,0.028 -0.958,0.019 -0.984,0.048 -0.864,0.99 0.005,0.036 0.045,0.068 0.13,0.192 0.675,-0.012 1.412,-0.025 2.164,-0.038 0.005,0.275 0.008,0.46 0.013,0.737 -0.769,0.014 -1.505,0.027 -2.252,0.04 -0.075,0.485 -0.14,0.876 0.103,1.311 0.484,-0.009 0.975,-0.04 1.464,-0.019 0.451,0.02 0.491,0.087 0.576,0.679 C -0.651,3.959 -1.405,4.078 -2.161,3.901 -2.608,3.797 -2.829,3.489 -2.832,3.011 -2.836,2.047 -2.863,1.083 -2.878,0.118 c -10e-4,-0.106 0.012,-0.215 0.032,-0.319 0.048,-0.232 0.176,-0.4 0.429,-0.405 0.914,-0.022 1.828,-0.035 2.729,-0.051 C 0.437,-0.084 0.413,-0.026 0,0" />
      </g>
      <g
   style="fill:#000000;fill-opacity:1"
   transform="translate(206.0658,318.1855)"
   id="g376">
        <path
   id="path378"
   style="fill:#000000;fill-opacity:1;fill-rule:nonzero;stroke:none"
   d="m 0,0 c 0.247,-0.408 0.417,-0.821 0.331,-1.346 -0.271,0.005 -0.52,0.01 -0.768,0.014 C -0.605,-0.732 -0.493,-0.376 0,0 m 0.198,-2.052 c 0.283,0.004 0.419,-0.121 0.48,-0.403 0.07,-0.327 0.195,-0.642 0.302,-0.979 0.541,0.033 0.599,0.325 0.534,0.644 C 1.305,-1.766 1.069,-0.746 0.848,0.276 0.795,0.52 0.646,0.631 0.404,0.665 c -0.68,0.092 -1.459,-0.158 -1.657,-1.06 -0.197,-0.9 -0.345,-1.808 -0.295,-2.736 0.023,-0.432 0.082,-0.477 0.658,-0.508 0.041,0.514 0.083,1.033 0.129,1.602 0.366,-0.006 0.663,-0.018 0.959,-0.015" />
      </g>
      <g
   style="fill:#000000;fill-opacity:1"
   transform="translate(216.0042,318.2007)"
   id="g380">
        <path
   id="path382"
   style="fill:#000000;fill-opacity:1;fill-rule:nonzero;stroke:none"
   d="M 0,0 C 0.352,0.076 0.707,0.152 1.064,0.183 1.487,0.219 1.673,0.299 1.636,0.522 1.578,0.865 1.306,0.862 1.041,0.864 0.762,0.866 0.477,0.912 0.206,0.868 -0.146,0.811 -0.495,0.702 -0.831,0.579 -1.042,0.502 -1.161,0.328 -1.151,0.075 c 0.031,-0.812 0.043,-1.625 0.076,-2.437 0.019,-0.476 0.283,-0.761 0.767,-0.763 0.446,-10e-4 0.891,0.087 1.337,0.122 0.281,0.021 0.452,0.138 0.432,0.435 -0.022,0.304 -0.257,0.288 -0.476,0.291 -0.421,0.006 -0.841,0.015 -1.339,0.024 0.023,0.372 0.041,0.649 0.053,0.863 0.524,0.104 0.941,0.18 1.355,0.27 0.193,0.043 0.39,0.111 0.354,0.371 C 1.365,-0.45 1.121,-0.473 0.911,-0.475 0.785,-0.477 0.661,-0.534 0.534,-0.542 0.283,-0.559 0.032,-0.558 -0.237,-0.565 -0.375,-0.2 -0.244,-0.053 0,0" />
      </g>
      <g
   style="fill:#000000;fill-opacity:1"
   transform="translate(203.1556,314.9473)"
   id="g384">
        <path
   id="path386"
   style="fill:#000000;fill-opacity:1;fill-rule:nonzero;stroke:none"
   d="m 0,0 c -0.021,0.307 -0.213,0.453 -0.508,0.473 -0.256,0.017 -0.513,0.014 -0.768,0.044 -0.649,0.076 -1.129,0.532 -1.056,1.071 0.075,0.551 0.253,1.082 0.635,1.519 0.298,0.342 0.657,0.46 1.093,0.34 0.181,-0.049 0.362,-0.1 0.589,-0.164 0.076,0.571 0.054,0.63 -0.229,0.785 C -0.841,4.395 -1.9,4.236 -2.318,3.696 -2.916,2.925 -3.213,2.044 -3.061,1.055 -3.036,0.896 -2.969,0.72 -2.866,0.598 -2.261,-0.124 -1.447,-0.4 -0.534,-0.419 -0.191,-0.426 0.016,-0.246 0,0" />
      </g>
      <g
   style="fill:#000000;fill-opacity:1"
   transform="translate(133.2074,312.6396)"
   id="g388">
        <path
   id="path390"
   style="fill:#000000;fill-opacity:1;fill-rule:nonzero;stroke:none"
   d="M 0,0 C 0.75,-0.028 1.501,-0.039 2.251,-0.043 2.495,-0.045 2.674,0.097 2.679,0.346 2.684,0.579 2.491,0.664 2.284,0.687 2.136,0.703 1.985,0.705 1.835,0.708 1.449,0.717 1.062,0.732 0.677,0.728 0.358,0.723 0.187,0.846 0.208,1.18 0.285,2.418 0.117,3.668 0.396,4.896 0.422,5.013 0.39,5.144 0.386,5.258 -0.122,5.377 -0.214,5.354 -0.362,5.018 -0.431,4.865 -0.476,4.69 -0.479,4.523 -0.511,3.28 -0.529,2.036 -0.551,0.792 -0.552,0.707 -0.541,0.621 -0.532,0.536 -0.501,0.212 -0.323,0.012 0,0" />
      </g>
      <g
   style="fill:#000000;fill-opacity:1"
   transform="translate(192.3382,314.6953)"
   id="g392">
        <path
   id="path394"
   style="fill:#000000;fill-opacity:1;fill-rule:nonzero;stroke:none"
   d="m 0,0 c -0.862,0.015 -1.646,0.029 -2.409,0.042 -0.169,0.64 -0.112,2.794 0.071,3.42 0.125,0.427 0.085,0.579 -0.165,0.629 C -2.829,4.155 -3.062,4.002 -3.149,3.652 -3.187,3.508 -3.218,3.358 -3.221,3.21 -3.244,2.205 -3.267,1.199 -3.273,0.193 -3.277,-0.336 -3.097,-0.613 -2.601,-0.65 -1.753,-0.714 -0.899,-0.694 -0.013,-0.709 -0.009,-0.464 -0.005,-0.282 0,0" />
      </g>
      <g
   style="fill:#000000;fill-opacity:1"
   transform="translate(210.6693,314.6372)"
   id="g396">
        <path
   id="path398"
   style="fill:#000000;fill-opacity:1;fill-rule:nonzero;stroke:none"
   d="M 0,0 C 0.23,0.012 0.284,0.275 0.224,0.458 0.182,0.588 0.027,0.707 -0.105,0.775 -0.209,0.83 -0.357,0.798 -0.485,0.806 -1.092,0.845 -1.131,0.882 -1.126,1.497 -1.12,2.31 -1.104,3.124 -1.094,3.938 -1.092,4.207 -1.178,4.396 -1.499,4.384 -1.802,4.373 -1.83,4.169 -1.835,3.941 L -1.864,2.271 -1.894,0.602 C -1.898,0.35 -1.848,0.067 -1.582,0.037 -1.059,-0.023 -0.526,-0.027 0,0" />
      </g>
      <g
   style="fill:#000000;fill-opacity:1"
   transform="translate(214.3119,315.4536)"
   id="g400">
        <path
   id="path402"
   style="fill:#000000;fill-opacity:1;fill-rule:nonzero;stroke:none"
   d="m 0,0 c -0.582,0.087 -1.167,0.156 -1.836,0.242 -0.073,1.115 -0.146,2.24 -0.223,3.413 -0.524,-0.06 -0.587,-0.128 -0.629,-0.62 -0.085,-1.007 0.026,-2.005 0.133,-3.001 0.045,-0.411 0.209,-0.555 0.634,-0.576 0.492,-0.022 0.986,-0.02 1.48,-0.028 0.275,-0.005 0.507,0.058 0.601,0.377 C 0.104,-0.123 0.06,-0.009 0,0" />
      </g>
    </g>
  </g>
<path
   d="M 98.149275,6.7843301 C 98.096882,6.7675822 98.003743,6.709889 97.94226,6.6561141 L 97.830478,6.5583413 V 5.2964695 4.0345967 L 97.93943,3.8296793 c 0.05986,-0.1127059 0.108963,-0.2321129 0.108963,-0.2653502 0,-0.033239 0.08648,-0.097503 0.192191,-0.1428148 0.120588,-0.051687 0.214169,-0.1282411 0.251181,-0.2054679 l 0.05902,-0.1230834 h 0.691839 0.691839 l 0.179227,0.211527 0.17922,0.2115284 -4.4e-4,0.4639994 c 0,0.3912236 -0.0138,0.4842167 -0.0871,0.5928984 -0.079,0.1171895 -0.0869,0.2017261 -0.0869,0.9307092 v 0.8018114 l -0.15254,0.1310568 c -0.08395,0.07208 -0.260408,0.1824751 -0.392242,0.2453202 -0.214211,0.1021125 -0.297651,0.1152586 -0.784484,0.1236123 -0.299629,0.00513 -0.587632,-0.00438 -0.640014,-0.021093 z M 99.25646,5.9228765 C 99.441318,5.7299525 99.4468,5.7161726 99.434217,5.4761572 L 99.421277,5.2285015 99.09863,5.2155565 c -0.1778,-0.00713 -0.342406,0.00681 -0.366656,0.031086 -0.0242,0.024215 -0.05313,0.2015082 -0.06428,0.3939887 -0.02357,0.407076 0.01399,0.4813058 0.243416,0.4813058 0.126764,0 0.189088,-0.035925 0.345404,-0.1990651 z m 0.06102,-1.377956 c 0.250044,-0.1152482 0.303857,-0.1597847 0.345456,-0.2858477 0.05713,-0.1730955 -0.0053,-0.3809633 -0.1366,-0.450949 -0.11436,-0.061196 -0.740855,-0.050243 -0.868534,0.015235 -0.07659,0.039277 -0.106416,0.087611 -0.100367,0.1627907 0.01746,0.2179567 0.06397,0.5880691 0.08048,0.6408364 0.03198,0.1015508 0.369717,0.060779 0.679562,-0.082041 z"
   style="fill:#000000;fill-opacity:1;stroke-width:0.04358243"
   id="path3479" /><path
   id="path3469"
   d="m 115.68977,6.8350272 -0.128,-0.133552 -0.0139,-1.5443708 -0.0139,-1.5443711 -0.5091,-0.0043 c -0.7306,-0.00625 -0.72427,-0.00326 -0.73973,-0.3496889 l -0.0127,-0.2850287 0.34482,-0.094502 c 0.31625,-0.086669 0.44777,-0.094503 1.58671,-0.094503 1.19038,0 1.24663,0.00375 1.3567,0.090328 0.1554,0.1222312 0.16222,0.4163015 0.0137,0.5889999 -0.0981,0.113994 -0.11945,0.1184651 -0.69483,0.1452198 -0.32653,0.015186 -0.6095,0.043448 -0.62884,0.062812 -0.0194,0.019364 -0.0343,0.3718656 -0.0332,0.7833364 0.001,0.6189993 0.0147,0.7722022 0.0763,0.8876066 0.0603,0.1129695 0.0744,0.2592575 0.0744,0.769714 v 0.6302344 l -0.13409,0.1128307 c -0.18777,0.1580052 -0.37988,0.1506898 -0.54417,-0.020725 z"
   style="fill:#000000;fill-opacity:1;stroke-width:0.04358243" /><path
   id="path3461"
   d="M 90.45023,6.3009533 C 90.361056,6.161551 90.323775,6.128647 90.254854,6.1285053 90.095866,6.1281791 89.947967,6.0669838 89.842038,5.9576899 l -0.10561,-0.1089572 0.05702,-0.1264461 c 0.07892,-0.1750076 0.108268,-0.1922023 0.367559,-0.215359 l 0.227929,-0.020357 0.0093,-0.2472833 c 0.0061,-0.1630586 -0.0073,-0.2956465 -0.03916,-0.3892783 -0.02904,-0.085213 -0.04838,-0.2509271 -0.04838,-0.4144012 0,-0.1498235 -0.0092,-0.3179974 -0.02025,-0.3737203 l -0.02025,-0.101315 -0.175504,0.01901 c -0.09653,0.010458 -0.233091,0.027355 -0.303479,0.037556 -0.115826,0.016786 -0.135903,0.00913 -0.211424,-0.080625 -0.0548,-0.065123 -0.08345,-0.1359634 -0.08345,-0.206338 0,-0.093854 0.01845,-0.1187736 0.148782,-0.2005964 l 0.148777,-0.09343 0.627311,-5.986e-4 c 0.537817,-4.989e-4 0.638044,0.00692 0.702557,0.052109 0.05588,0.039147 0.164452,0.056172 0.42199,0.066187 0.328471,0.012769 0.350403,0.017838 0.416097,0.096077 0.09109,0.1084805 0.08934,0.2086554 -0.0056,0.3032749 -0.07265,0.072635 -0.09661,0.076882 -0.433921,0.076882 -0.504485,0 -0.742098,0.028218 -0.742098,0.088133 0,0.026337 0.02469,0.0751 0.05481,0.108361 0.04689,0.051733 0.05707,0.1471798 0.07048,0.6602359 l 0.01567,0.59976 0.297569,0.01665 c 0.163653,0.00915 0.325752,0.032184 0.360205,0.051174 0.0345,0.01899 0.126069,0.044239 0.203596,0.056115 0.259717,0.039777 0.250577,0.030081 0.250577,0.2657853 v 0.2132295 l -0.09788,0.019579 c -0.05386,0.010765 -0.307545,0.01958 -0.5638,0.01958 -0.465528,0 -0.465932,6.17e-5 -0.465932,0.072161 0,0.091207 -0.18355,0.2723845 -0.27595,0.2723845 -0.04982,0 -0.100388,-0.048488 -0.179572,-0.172273 z"
   style="fill:#000000;fill-opacity:1;stroke-width:0.03132235" /><path
   id="path3457"
   d="m 141.72974,6.5547526 c -0.11822,-0.075723 -0.21773,-0.083772 -1.03843,-0.083979 l -0.90769,-2.179e-4 -0.12739,-0.1273949 -0.1274,-0.127395 V 4.4336877 2.6516096 l 0.12513,-0.11989 c 0.10447,-0.1000473 0.15673,-0.117626 0.31598,-0.1062136 l 0.19084,0.01368 0.0218,1.6168159 c 0.0173,1.2815842 0.0342,1.6317436 0.0816,1.6888183 0.0522,0.062854 0.17864,0.072004 0.99486,0.072004 h 0.93503 l 0.1274,0.1273949 c 0.16313,0.1631287 0.16874,0.354956 0.0162,0.5549143 -0.0961,0.1259104 -0.13608,0.1453226 -0.29418,0.1425707 -0.1011,-0.00174 -0.24151,-0.040658 -0.31376,-0.086934 z"
   style="fill:#000000;fill-opacity:1;stroke-width:0.04358243" /><path
   d="m 114.24712,7.0467686 c -0.16033,-0.032024 -0.2268,-0.1549326 -0.26942,-0.4982492 -0.0225,-0.1817969 -0.0666,-0.377611 -0.0978,-0.4351425 -0.0312,-0.057531 -0.0712,-0.2093914 -0.089,-0.3374665 -0.0177,-0.1280738 -0.0451,-0.2457462 -0.0608,-0.2614945 -0.0157,-0.015748 -0.32787,-0.035238 -0.69371,-0.043309 -0.6457,-0.014249 -0.66846,-0.011709 -0.77892,0.087165 -0.14493,0.1297416 -0.26767,0.4686544 -0.40386,1.1151344 -0.0312,0.1481022 -0.30042,0.1370333 -0.46333,-0.019052 -0.11205,-0.1073484 -0.12224,-0.1436048 -0.12224,-0.4349433 0,-0.1748076 0.0278,-0.3917746 0.0619,-0.4821477 0.0564,-0.149997 0.32546,-1.0148246 0.39683,-1.2756687 0.0164,-0.059926 0.0807,-0.19721 0.14287,-0.3050768 0.0622,-0.1078661 0.16814,-0.309468 0.23546,-0.4480034 0.0673,-0.1385346 0.20322,-0.3395591 0.30199,-0.4467193 l 0.1796,-0.1948383 h 0.34884 0.34884 l 0.17949,0.187713 c 0.29336,0.3067959 0.7164,1.0302251 0.85868,1.4684193 0.15254,0.4697712 0.3013,1.100292 0.30332,1.2855799 7e-4,0.095937 0.021,0.2626856 0.0445,0.3705524 0.0953,0.4390598 0.0967,0.4984416 0.0124,0.5728581 -0.0896,0.079147 -0.29253,0.1232591 -0.43559,0.094686 z m -0.77185,-2.302545 c 0.0142,-0.037091 -0.0484,-0.1814678 -0.14302,-0.3294403 -0.26693,-0.4176549 -0.3362,-0.4910207 -0.43424,-0.4599031 -0.17248,0.054741 -0.40635,0.7133861 -0.29341,0.8263224 0.016,0.015977 0.21271,0.029053 0.43718,0.029053 0.32441,0 0.41335,-0.013555 0.43349,-0.066032 z"
   style="fill:#000000;fill-opacity:1;stroke-width:0.04358243"
   id="path3439" /><path
   id="path3405"
   d="m 120.67334,6.6034446 c -0.19736,-0.3012178 -0.21042,-0.4365255 -0.21042,-2.1810652 0,-0.920857 0.0125,-1.7071271 0.028,-1.7472626 0.0217,-0.056594 0.0981,-0.072971 0.34024,-0.072971 h 0.31223 l 0.0288,0.1441669 c 0.0158,0.079288 0.0298,0.2090408 0.0308,0.2883283 0.001,0.079292 0.0323,0.2272072 0.0695,0.3287005 0.0371,0.1014939 0.0808,0.304595 0.097,0.4513412 l 0.0295,0.2668012 0.46614,-0.013076 0.46613,-0.013076 0.0142,-0.2502112 c 0.008,-0.1492579 -0.0174,-0.3447042 -0.064,-0.4843979 -0.15397,-0.4613113 -0.0684,-0.818154 0.22095,-0.9212797 0.16932,-0.060349 0.3593,-2.728e-4 0.3593,0.1135957 0,0.051527 0.031,0.1537109 0.069,0.2270787 0.0379,0.073367 0.0901,0.2819097 0.11579,0.4634269 0.0258,0.1815123 0.0778,0.3741948 0.11556,0.4281768 0.0566,0.080775 0.0687,0.3081772 0.0687,1.2849935 v 1.1868511 l -0.15814,0.1206657 c -0.11995,0.091492 -0.2008,0.1171528 -0.33446,0.106147 l -0.17627,-0.014513 -0.0242,-0.7008204 c -0.0134,-0.385447 -0.037,-0.7136894 -0.0528,-0.7294259 -0.0158,-0.015748 -0.14181,-0.040304 -0.28019,-0.054581 -0.21043,-0.021724 -0.29801,-0.00513 -0.53538,0.1013961 l -0.28381,0.127365 -0.002,0.5126996 c -0.002,0.6292854 -0.047,0.8759552 -0.18481,1.0226027 -0.14433,0.1536332 -0.42729,0.1581218 -0.52543,0.00833 z"
   style="fill:#000000;fill-opacity:1;stroke-width:0.04358243" /><path
   d="m 87.377185,6.6402624 -0.20951,-0.095631 0.0095,-1.7315993 0.0095,-1.7316003 0.39549,-0.010373 c 0.297176,-0.0078 0.415382,0.0027 0.47553,0.042074 0.04401,0.028846 0.148106,0.072839 0.231309,0.097766 0.232122,0.069546 0.632582,0.4289923 0.757881,0.6802564 l 0.104133,0.2088202 v 0.7457245 c 0,0.7029133 -0.0048,0.7544793 -0.08155,0.8982902 -0.08561,0.1601463 -0.5699,0.6509901 -0.720741,0.7304885 -0.06836,0.036029 -0.729652,0.265278 -0.756096,0.2621123 -0.0027,-3.865e-4 -0.100094,-0.043753 -0.215325,-0.09633 z m 0.781457,-0.8942378 c 0.421184,-0.4367137 0.428423,-0.4522322 0.428423,-0.9190648 0,-0.4615119 0.0048,-0.4500253 -0.359392,-0.8270171 -0.182476,-0.1887917 -0.216929,-0.2091658 -0.353666,-0.2091658 -0.12636,0 -0.155136,0.013583 -0.173432,0.081848 -0.0388,0.1447312 -0.02561,1.954934 0.01472,2.0303931 0.07227,0.1350296 0.208079,0.086934 0.443338,-0.1569925 z"
   style="fill:#000000;fill-opacity:1;stroke-width:0.04358243"
   id="path3319" /><path
   id="path3315"
   d="m 123.92303,6.0732817 c -0.4057,-0.1473742 -0.37218,0.01225 -0.36129,-1.7198409 l 0.009,-1.509019 0.20007,-0.074485 c 0.17537,-0.06529 0.30227,-0.076014 1.028,-0.086868 l 0.8279,-0.012382 0.0906,0.090594 c 0.13688,0.1368848 0.1277,0.3721195 -0.02,0.5136657 l -0.11058,0.1059856 -0.15758,-0.083596 c -0.1397,-0.074119 -0.19625,-0.081939 -0.49866,-0.068983 -0.25449,0.010896 -0.40116,0.03825 -0.57757,0.1076939 l -0.23645,0.093084 v 0.1950174 0.195016 l 0.18189,0.024098 c 0.10005,0.013256 0.44097,0.025535 0.75761,0.027283 l 0.57573,0.00319 0.10634,0.1063323 c 0.087,0.086987 0.10632,0.1370562 0.10632,0.2752189 0,0.2734004 -0.0365,0.3096068 -0.31192,0.3096068 -0.16483,0 -0.27989,-0.022085 -0.37923,-0.072752 -0.1193,-0.060862 -0.2144,-0.072757 -0.58172,-0.072757 -0.38398,0 -0.4424,0.00799 -0.46525,0.063659 -0.0321,0.078135 -0.0316,0.9069702 4.2e-4,0.9391205 0.0127,0.012722 0.11836,0.03437 0.23473,0.048085 0.11637,0.013707 0.23612,0.040686 0.26611,0.059967 0.03,0.019246 0.33897,0.043851 0.68661,0.054643 l 0.63208,0.019635 0.0862,0.1076975 c 0.11036,0.1379287 0.10949,0.2517506 -0.003,0.3639928 l -0.0893,0.089289 -0.88379,-0.00409 c -0.82517,-0.00409 -0.89906,-0.00984 -1.11402,-0.08791 z"
   style="fill:#000000;fill-opacity:1;stroke-width:0.04358243" /><path
   d="m 92.966242,6.7217619 c -0.07825,-0.083287 -0.07909,-0.098565 -0.07909,-1.4199002 V 3.9661552 l 0.09457,-0.1897689 c 0.05199,-0.1043734 0.178321,-0.2757081 0.280677,-0.3807453 l 0.1861,-0.190978 h 0.4999 0.499889 l 0.147037,0.1398743 c 0.0809,0.07693 0.147037,0.1648305 0.147037,0.1953324 0,0.030497 0.03272,0.1579413 0.0727,0.2831965 0.103523,0.3241377 0.095,0.5531585 -0.03072,0.8188063 -0.09479,0.200363 -0.322353,0.4543784 -0.407065,0.4543784 -0.09132,0 -0.01315,0.1449019 0.214043,0.3967907 0.137031,0.1518967 0.275115,0.3265177 0.306845,0.3880427 0.06544,0.12678 0.313727,0.362688 0.44453,0.4222911 0.101735,0.046377 0.142019,0.1862376 0.107143,0.3722078 l -0.02441,0.1303711 H 95.167134 94.908841 L 94.31961,6.2206288 C 93.909756,5.8134924 93.71,5.6391983 93.663447,5.6481004 c -0.06049,0.011556 -0.06902,0.067574 -0.08848,0.5762298 -0.01189,0.3098915 -0.0242,0.5675256 -0.02725,0.572534 -0.0032,0.00513 -0.117463,0.00911 -0.254021,0.00911 -0.212507,0 -0.259692,-0.012098 -0.327395,-0.084187 z m 0.890721,-2.0711261 c 0.231212,-0.1706233 0.303374,-0.2934013 0.303374,-0.5161783 0,-0.1697549 -0.01557,-0.2211238 -0.08932,-0.2948561 -0.156348,-0.1563379 -0.347235,-0.1009342 -0.347235,0.1007796 0,0.056517 -0.03272,0.1959119 -0.0728,0.3097595 -0.07259,0.206611 -0.09437,0.4122079 -0.0485,0.4580923 0.04608,0.046092 0.143912,0.023931 0.254411,-0.057593 z"
   style="fill:#000000;fill-opacity:1;stroke-width:0.04358243"
   id="path3311" /><path
   id="path3283"
   d="m 126.95957,6.452954 c -0.0459,-0.018579 -0.103,-0.058961 -0.1268,-0.08967 -0.0671,-0.086443 -0.21253,-0.6058593 -0.23587,-0.8424653 -0.0116,-0.1168751 -0.0563,-0.2829598 -0.0994,-0.3690831 -0.0432,-0.086123 -0.09,-0.2765411 -0.10405,-0.4231427 -0.0141,-0.1466123 -0.0527,-0.3403803 -0.0859,-0.4305964 -0.0342,-0.092794 -0.0619,-0.3154405 -0.0636,-0.5126115 -0.002,-0.2215083 -0.0246,-0.3859516 -0.0619,-0.4510989 -0.0323,-0.056393 -0.0592,-0.2051805 -0.0601,-0.3306563 -0.001,-0.1986536 0.0138,-0.2427063 0.1163,-0.3409368 0.0983,-0.094143 0.14748,-0.1106771 0.29731,-0.099944 0.16782,0.012042 0.18533,0.024861 0.26757,0.196291 0.0634,0.132173 0.096,0.304028 0.117,0.6151347 0.016,0.2374405 0.0548,0.493942 0.0863,0.5700014 0.0315,0.076055 0.0572,0.2387425 0.0572,0.361522 0,0.2421754 0.052,0.381885 0.142,0.381885 0.0781,0 0.21216,-0.1785063 0.27139,-0.3613929 0.0595,-0.1837826 0.3902,-0.7465879 0.48039,-0.8176188 0.0787,-0.061938 0.47473,-0.067949 0.58511,-0.00886 0.0976,0.052277 0.22889,0.3031535 0.34218,0.6542257 0.0912,0.2825218 0.19805,0.368949 0.24402,0.1973203 0.0139,-0.05184 0.0255,-0.5290837 0.0258,-1.060541 l 3.8e-4,-0.9662944 0.11775,-0.1128079 c 0.0983,-0.094138 0.14747,-0.1106826 0.29733,-0.099939 l 0.17955,0.012868 0.0118,1.8248927 c 0.006,1.0036959 0.001,1.8848712 -0.0121,1.9581773 l -0.0239,0.1332799 h -0.25938 c -0.25393,0 -0.26255,-0.00409 -0.41148,-0.1742858 -0.21046,-0.2411355 -0.48671,-0.6681901 -0.59486,-0.91957 -0.0498,-0.1157007 -0.13493,-0.2521108 -0.18924,-0.3031327 l -0.0988,-0.092774 -0.15912,0.3450395 c -0.0875,0.1897792 -0.20986,0.5111345 -0.27191,0.7141273 -0.21637,0.7077181 -0.25942,0.8164082 -0.33531,0.8462896 -0.10142,0.039943 -0.34311,0.037986 -0.44577,-0.00361 z"
   style="fill:#000000;fill-opacity:1;stroke-width:0.04358243" /><path
   d="M 136.73992,6.3419812 C 136.0684,5.9686718 135.82216,5.7445379 135.57245,5.2792683 135.47913,5.10539 135.46861,5.0395839 135.46861,4.6282034 V 4.1705622 l 0.20235,-0.3741587 c 0.16245,-0.3003689 0.28173,-0.4519582 0.60488,-0.7686701 0.49565,-0.4857881 0.71993,-0.6101993 1.09996,-0.6101993 0.29751,0 0.42493,0.050805 0.88142,0.3516489 0.36738,0.2420983 0.46238,0.3527393 0.65401,0.7616442 l 0.16617,0.3546077 v 0.7415122 c 0,0.9726776 -0.0458,1.129353 -0.455,1.5559134 -0.15688,0.1635579 -0.33212,0.3151992 -0.3894,0.3369782 -0.0572,0.021828 -0.32901,0.039381 -0.60383,0.039124 l -0.49969,-3.811e-4 -0.38959,-0.2165721 z m 1.30265,-0.695483 c 0.17191,-0.1740789 0.22084,-0.2553278 0.25309,-0.4203471 0.022,-0.1124997 0.0794,-0.3149567 0.12753,-0.4498995 0.10779,-0.3020931 0.0857,-0.4899886 -0.0913,-0.7777353 -0.17145,-0.2786358 -0.51971,-0.6735803 -0.65622,-0.7441685 -0.25842,-0.1336351 -0.63752,-0.0191 -0.92179,0.2785178 -0.25455,0.2664925 -0.67008,0.9351054 -0.67008,1.0781813 0,0.1056222 0.22797,0.5211769 0.38694,0.705371 0.18145,0.2101944 0.47813,0.3593697 0.88202,0.4434962 0.1679,0.034953 0.314,0.072301 0.32465,0.082973 0.0586,0.058662 0.17516,-0.00409 0.36518,-0.1963893 z"
   style="fill:#000000;fill-opacity:1;stroke-width:0.04358243"
   id="path3271" /><path
   id="path3269"
   d="m 133.66575,6.5542398 c -0.0665,-0.055948 -0.13248,-0.1597174 -0.14666,-0.2306096 -0.0142,-0.070891 -0.0904,-0.2719595 -0.16933,-0.4468108 -0.0789,-0.1748612 -0.14353,-0.3446168 -0.14353,-0.3772467 0,-0.032635 -0.0801,-0.2240777 -0.17783,-0.4254386 -0.0978,-0.2013555 -0.19136,-0.421459 -0.20791,-0.4891286 -0.0166,-0.067664 -0.0732,-0.2245198 -0.12606,-0.348575 -0.33872,-0.7959578 -0.39963,-0.9929949 -0.38205,-1.2361801 0.0201,-0.2781825 0.14036,-0.4451841 0.32051,-0.4451841 0.19127,0 0.32022,0.2191304 0.54303,0.9227004 0.0786,0.2481005 0.18104,0.5189482 0.22772,0.6018698 0.0467,0.082932 0.10622,0.230563 0.13234,0.3280725 0.0644,0.2406934 0.31973,0.6899087 0.39209,0.6899087 0.0323,0 0.0841,-0.059974 0.11508,-0.133275 0.079,-0.1865624 0.23061,-0.6946389 0.2299,-0.7704158 -3.7e-4,-0.03464 0.0553,-0.2284218 0.12372,-0.4305956 0.0684,-0.2021697 0.15996,-0.500963 0.20352,-0.6639856 0.0436,-0.163017 0.10849,-0.3530225 0.14429,-0.4222419 0.0632,-0.1223568 0.0721,-0.1255119 0.31933,-0.113688 l 0.25427,0.012202 -0.001,0.3280779 c -0.001,0.2478999 -0.0327,0.4282851 -0.12882,0.7381613 -0.07,0.2255442 -0.13624,0.46545 -0.14735,0.533114 -0.0266,0.1618794 -0.41644,1.3836563 -0.51688,1.6198557 -0.0431,0.101494 -0.12884,0.309686 -0.19042,0.4626397 -0.0615,0.1529537 -0.15062,0.3052024 -0.19791,0.3383216 -0.13151,0.092109 -0.33163,0.074418 -0.46939,-0.041491 z"
   style="fill:#000000;fill-opacity:1;stroke-width:0.04358243" /><path
   id="path3215"
   d="m 102.25492,6.8772767 c -0.10215,-0.1860833 -0.11827,-0.2505561 -0.11827,-0.4744637 0,-0.1461173 -0.0216,-0.3019798 -0.0495,-0.3573929 -0.0272,-0.054047 -0.0595,-0.2110585 -0.0718,-0.3489199 -0.0123,-0.1378614 -0.0497,-0.2934353 -0.083,-0.3457189 -0.0333,-0.052284 -0.19894,-0.2310002 -0.36796,-0.3971474 -0.2913,-0.2863413 -0.32112,-0.3308931 -0.5725,-0.8551898 -0.30572,-0.6376348 -0.32516,-0.691015 -0.29518,-0.8104838 0.0205,-0.081862 0.039,-0.088353 0.25168,-0.088353 0.28195,0 0.30695,0.023063 0.5717,0.5276733 0.10499,0.200152 0.24405,0.4212327 0.30897,0.4912809 0.0649,0.070058 0.15285,0.1969697 0.19541,0.282038 0.0453,0.090561 0.10289,0.1546577 0.13899,0.1546577 0.0789,0 0.42897,-0.369047 0.52072,-0.5488914 0.0386,-0.075679 0.0871,-0.1480635 0.1078,-0.1608398 0.0207,-0.012764 0.0766,-0.099867 0.12428,-0.1935265 0.0477,-0.093659 0.12599,-0.2069156 0.17401,-0.2516839 0.048,-0.044781 0.1432,-0.1969184 0.2115,-0.338105 l 0.1242,-0.2567021 0.23788,0.01055 0.23789,0.01055 0.0109,0.1895114 c 0.008,0.1523152 -0.012,0.2380317 -0.10594,0.4366957 -0.18355,0.3881448 -0.64523,1.0848936 -0.91778,1.3850979 -0.31653,0.3486264 -0.3312,0.3881136 -0.24127,0.6494894 0.0418,0.1212192 0.0713,0.3036734 0.0713,0.4393318 0,0.1276073 0.0246,0.2908046 0.0546,0.3626587 0.03,0.071854 0.0546,0.2257143 0.0546,0.3419092 0,0.1848841 -0.012,0.2206802 -0.0958,0.2866869 -0.0572,0.045038 -0.14891,0.075247 -0.22745,0.074989 -0.12285,-4.067e-4 -0.13937,-0.014672 -0.24983,-0.2157691 z"
   style="fill:#000000;fill-opacity:1;stroke-width:0.04358243" /><path
   id="path3211"
   d="m 83.178194,7.7582192 -0.140472,-0.1841664 0.137663,-0.338778 c 0.08753,-0.2155022 0.137663,-0.4464771 0.137663,-0.6347255 0,-0.38024 0.09826,-0.4785304 0.478459,-0.4785304 0.409149,0 0.487138,0.1094013 0.485918,0.681533 -6.42e-4,0.3558573 -0.0263,0.4969773 -0.122566,0.6785303 -0.165395,0.3117252 -0.367392,0.4602957 -0.6258,0.4602957 -0.173697,0 -0.234906,-0.032151 -0.350865,-0.1841587 z"
   style="fill:#000000;fill-opacity:1;stroke-width:0.06606277" /><path
   id="path3185"
   d="m 142.33573,3.2042441 c 0.0105,-0.026032 0.0803,-0.081935 0.15588,-0.1243408 0.1169,-0.065617 0.15289,-0.071071 0.24103,-0.036707 0.0743,0.029009 0.57159,0.0273 1.75885,-0.00611 1.52375,-0.042855 1.66558,-0.041597 1.78521,0.016193 0.18178,0.087767 0.33686,0.2293514 0.34008,0.310486 0.003,0.079387 -0.15876,0.3974633 -0.20322,0.3992244 -0.0165,6.541e-4 -0.11912,0.089384 -0.22807,0.197168 -0.23411,0.2316097 -0.46684,0.3983026 -0.83258,0.5963052 -0.14708,0.079621 -0.31474,0.1913491 -0.37257,0.2482779 -0.10332,0.1017485 -0.36025,0.2913485 -0.80277,0.5924919 -0.12315,0.083792 -0.2602,0.1870561 -0.30456,0.2294826 -0.0746,0.071303 -0.0756,0.078874 -0.0142,0.1003356 0.0365,0.012791 0.23013,0.018601 0.43021,0.012965 0.24686,-0.00701 0.41132,0.00719 0.51162,0.043983 0.12027,0.044205 0.33542,0.050618 1.15397,0.034634 0.92199,-0.017977 1.01275,-0.014068 1.08532,0.046613 0.11838,0.099009 0.11486,0.2892202 -0.007,0.3761971 -0.0857,0.061188 -0.21822,0.074354 -1.26459,0.1256175 -1.08225,0.053013 -1.19013,0.0527 -1.45649,-0.00604 -0.15819,-0.034787 -0.39703,-0.058946 -0.53074,-0.053651 -0.13372,0.00527 -0.31233,-0.011799 -0.3969,-0.037903 -0.0846,-0.026104 -0.23458,-0.054956 -0.33334,-0.064117 -0.17913,-0.016519 -0.17963,-0.016984 -0.20965,-0.1743634 -0.0166,-0.086767 -0.0215,-0.1989729 -0.0109,-0.2493548 0.0296,-0.1411887 0.20527,-0.3344699 0.48527,-0.5337786 0.14012,-0.099746 0.3186,-0.2428752 0.39661,-0.3180864 0.0781,-0.075205 0.23317,-0.1977171 0.34475,-0.2722438 0.11159,-0.074534 0.25444,-0.1737907 0.31746,-0.2205886 0.063,-0.046812 0.19464,-0.1318157 0.29254,-0.188935 0.22574,-0.1317135 0.62014,-0.4344309 0.61854,-0.4747451 -0.002,-0.058741 -0.12096,-0.070101 -0.55377,-0.052957 -0.28201,0.011171 -0.46442,0.00236 -0.51699,-0.025086 -0.0552,-0.028792 -0.34014,-0.037858 -0.89005,-0.028508 -0.74704,0.012783 -0.81455,0.00844 -0.88382,-0.056046 -0.0753,-0.070199 -0.13952,-0.3184164 -0.1051,-0.406529 z"
   style="fill:#000000;fill-opacity:1;stroke-width:0.04358243" /><path
   id="path3151"
   d="m 118.91332,6.3451573 c -0.0442,-0.048849 -0.0647,-0.1404873 -0.0807,-0.3612286 -0.0118,-0.1626672 -0.0391,-0.3391142 -0.0608,-0.3920926 -0.0216,-0.052984 -0.0473,-0.2335947 -0.0571,-0.4013632 -0.0119,-0.2034869 -0.0377,-0.3446944 -0.0776,-0.4241672 -0.0432,-0.086164 -0.0599,-0.1894336 -0.0599,-0.3732419 0,-0.1397611 -0.0203,-0.3116571 -0.0451,-0.3819829 -0.0248,-0.070331 -0.0555,-0.2250709 -0.0683,-0.3438754 l -0.0232,-0.2160065 -0.51774,0.01647 c -0.28475,0.00906 -0.57298,0.026409 -0.64051,0.038603 -0.0906,0.016366 -0.15156,0.0066 -0.23278,-0.037112 -0.0992,-0.053401 -0.11004,-0.072946 -0.11004,-0.1979018 0,-0.1043913 0.0195,-0.158117 0.0788,-0.2174578 0.0434,-0.043344 0.0993,-0.078813 0.12425,-0.078813 0.025,0 0.1359,-0.02888 0.24647,-0.064215 0.15971,-0.051014 0.28943,-0.064221 0.63133,-0.064221 0.30987,0 0.46259,-0.013485 0.5456,-0.048181 0.14436,-0.060314 0.24192,-0.060238 0.44164,3.498e-4 0.1136,0.034488 0.31539,0.047973 0.72246,0.048286 0.31065,2.568e-4 0.58434,0.012868 0.60818,0.02795 0.0289,0.018274 0.0433,0.094694 0.0433,0.2284217 0,0.1337229 -0.0145,0.2101376 -0.0433,0.2284171 -0.0239,0.015082 -0.3055,0.027693 -0.6259,0.02795 -0.5013,3.762e-4 -0.58528,0.00756 -0.60205,0.05127 -0.0424,0.1105021 -0.0203,0.8704889 0.0286,0.9878012 0.0265,0.063395 0.0482,0.2011446 0.0482,0.3060977 0,0.1049531 0.0287,0.2824142 0.0637,0.3943628 0.0515,0.1640207 0.0639,0.2950975 0.0642,0.6750621 3.8e-4,0.5890327 -0.0145,0.6362408 -0.20253,0.6362408 -0.10036,0 -0.15715,-0.018635 -0.19954,-0.065456 z"
   style="fill:#000000;fill-opacity:1;stroke-width:0.04358243" /><path
   id="path3099"
   d="m 110.79109,6.6745539 c -0.10738,-0.043962 -0.18563,-0.155435 -0.20978,-0.298912 -0.0126,-0.074973 -0.0464,-0.2224298 -0.0751,-0.3276862 -0.0287,-0.1052566 -0.0522,-0.2668639 -0.0522,-0.3591331 0,-0.092269 -0.0159,-0.2084439 -0.0353,-0.258154 -0.0195,-0.049723 -0.0481,-0.1897272 -0.0639,-0.3111373 -0.0157,-0.1214093 -0.0491,-0.294799 -0.0743,-0.3853081 -0.0599,-0.2152798 -0.11647,-0.450697 -0.15161,-0.6301452 -0.0344,-0.1752221 -0.15454,-0.4816342 -0.18897,-0.4816342 -0.0354,0 -0.12684,0.2390674 -0.17821,0.4655792 -0.024,0.1059616 -0.0742,0.2938003 -0.11149,0.4174181 -0.0374,0.1236179 -0.0792,0.2825587 -0.0932,0.3532029 -0.014,0.07064 -0.0481,0.2151314 -0.0759,0.3210881 -0.13796,0.5268808 -0.1831,0.7201497 -0.1831,0.7839687 0,0.038403 -0.0355,0.1053029 -0.0788,0.1486506 -0.0703,0.070247 -0.10611,0.078813 -0.33,0.078813 -0.17161,0 -0.27303,-0.01529 -0.32014,-0.048286 -0.038,-0.026561 -0.14023,-0.1963422 -0.22736,-0.3772826 -0.0871,-0.180946 -0.2038,-0.385159 -0.25928,-0.453812 -0.0554,-0.06865 -0.10089,-0.1444703 -0.10089,-0.1684834 0,-0.023987 -0.0505,-0.099513 -0.11215,-0.1677838 -0.0618,-0.068275 -0.15089,-0.2091908 -0.19825,-0.3131556 -0.10278,-0.225688 -0.32686,-0.5331036 -0.37661,-0.5167141 -0.0983,0.032329 -0.11477,0.1727977 -0.11525,0.9789263 -3.8e-4,0.6497628 0.009,0.8347906 0.0477,0.9270605 0.1221,0.2922509 0.015,0.5054096 -0.24463,0.4867401 -0.12856,-0.00927 -0.14635,-0.021724 -0.22053,-0.1545494 l -0.0807,-0.1444918 -0.009,-1.0917082 c -0.009,-1.0895881 -0.009,-1.092229 0.0723,-1.3622224 0.0449,-0.1487838 0.10405,-0.3048005 0.1315,-0.3467065 0.0719,-0.1096166 0.23779,-0.2012944 0.36464,-0.2014389 0.0913,-9.22e-5 0.13926,0.030677 0.28898,0.1855019 0.0987,0.1020904 0.24121,0.2935435 0.31665,0.4254436 0.18609,0.3253807 0.52653,0.8537489 0.65057,1.0096933 0.0559,0.070228 0.1365,0.1966512 0.17923,0.2809519 0.12269,0.242135 0.18339,0.2059738 0.25477,-0.1517642 0.021,-0.1059623 0.07,-0.2938009 0.10857,-0.4174189 0.0386,-0.1236227 0.0835,-0.2897852 0.0998,-0.369258 0.0164,-0.079467 0.0576,-0.2095093 0.0918,-0.2889772 0.0342,-0.079473 0.0945,-0.2528618 0.13413,-0.3853081 0.0901,-0.3010429 0.22285,-0.5706705 0.33034,-0.6708728 0.10641,-0.099208 0.34466,-0.1260783 0.509,-0.057412 0.0983,0.041026 0.12333,0.072019 0.15233,0.1880288 0.019,0.07639 0.10037,0.3339511 0.18065,0.5723646 0.0803,0.2384073 0.16056,0.4912649 0.17846,0.5619044 0.0179,0.07064 0.0478,0.171783 0.0664,0.2247613 0.0186,0.052985 0.0451,0.2285969 0.0588,0.3902604 0.0138,0.1616634 0.04,0.3217105 0.0581,0.3556738 0.0182,0.033919 0.0418,0.1401004 0.0523,0.2358649 0.0106,0.09577 0.0395,0.2535982 0.0642,0.3507272 0.20815,0.820351 0.20371,0.7702142 0.0805,0.9105929 -0.10289,0.1172346 -0.17777,0.1384889 -0.30469,0.086541 z"
   style="fill:#000000;fill-opacity:1;stroke-width:0.04358243" /></svg>