<?xml version="1.0" encoding="UTF-8" standalone="no"?>
<svg
   xmlns:dc="http://purl.org/dc/elements/1.1/"
   xmlns:cc="http://creativecommons.org/ns#"
   xmlns:rdf="http://www.w3.org/1999/02/22-rdf-syntax-ns#"
   xmlns:svg="http://www.w3.org/2000/svg"
   xmlns="http://www.w3.org/2000/svg"
   xmlns:sodipodi="http://sodipodi.sourceforge.net/DTD/sodipodi-0.dtd"
   xmlns:inkscape="http://www.inkscape.org/namespaces/inkscape"
   viewBox="0 0 150.00001 12.72663"
   height="12.72663"
   width="150"
   xml:space="preserve"
   id="svg2"
   version="1.1"
   sodipodi:docname="videos.svg"
   inkscape:version="0.92.3 (unknown)"><sodipodi:namedview
   pagecolor="#ffffff"
   bordercolor="#666666"
   borderopacity="1"
   objecttolerance="10"
   gridtolerance="10"
   guidetolerance="10"
   inkscape:pageopacity="0"
   inkscape:pageshadow="2"
   inkscape:window-width="1920"
   inkscape:window-height="1031"
   id="namedview1875"
   showgrid="false"
   fit-margin-top="0"
   fit-margin-left="0"
   fit-margin-right="0"
   fit-margin-bottom="0"
   inkscape:zoom="9.1024468"
   inkscape:cx="69.931371"
   inkscape:cy="0.95719908"
   inkscape:window-x="0"
   inkscape:window-y="27"
   inkscape:window-maximized="1"
   inkscape:current-layer="svg2" /><defs
   id="defs48" />
  
  <metadata
   id="metadata8">
    <rdf:RDF>
      <cc:Work
   rdf:about="">
        <dc:format>image/svg+xml</dc:format>
        <dc:type
   rdf:resource="http://purl.org/dc/dcmitype/StillImage" />
        <dc:title></dc:title>
      </cc:Work>
    </rdf:RDF>
  </metadata>
  
<path
   style="fill:#000000;stroke-width:0.12272099"
   d="m 62.273107,12.05173 c -0.34939,-0.546181 -0.49545,-0.675091 -0.76549,-0.67565 -0.6229,-0.0012 -1.20239,-0.241051 -1.61742,-0.66925 l -0.41376,-0.426894 0.2234,-0.4954218 c 0.30919,-0.685674 0.42418,-0.753043 1.44008,-0.843776 l 0.89303,-0.07977 0.0362,-0.968855 c 0.0238,-0.638868 -0.0284,-1.158347 -0.1534,-1.525199 -0.11376,-0.33386 -0.18956,-0.983129 -0.18956,-1.623625 0,-0.587011 -0.0358,-1.245915 -0.0793,-1.464229 l -0.0795,-0.396955 -0.68762,0.07454 c -0.37819,0.04098 -0.91326,0.107175 -1.18904,0.147143 -0.4538,0.06578 -0.53248,0.03576 -0.82837,-0.3159 -0.21469,-0.255149 -0.32694,-0.532702 -0.32694,-0.808428 0,-0.36772 0.0724,-0.465362 0.58292,-0.785938 l 0.58293,-0.36605699 2.45779,-0.0024 c 2.10716,-0.0024 2.49986,0.02714 2.75261,0.20417299 0.21897,0.153366 0.64432,0.220073 1.65336,0.259308 1.28695,0.05009 1.37287,0.06984 1.63025,0.376427 0.35688,0.42503 0.35004,0.817516 -0.0207,1.188242 -0.28459,0.284578 -0.37851,0.301214 -1.70011,0.301214 -1.97653,0 -2.90751,0.110568 -2.90751,0.345311 0,0.103155 0.0966,0.294231 0.21476,0.424556 0.18372,0.202697 0.22363,0.576654 0.27612,2.586808 l 0.0614,2.349856 1.16585,0.06525 c 0.64122,0.03588 1.2763,0.126105 1.4113,0.200512 0.13498,0.07443 0.49395,0.173329 0.79768,0.219849 1.0176,0.155844 0.98177,0.117836 0.98177,1.0413368 v 0.835445 l -0.38351,0.07668 c -0.21092,0.0422 -1.20497,0.07667 -2.20897,0.07667 -1.8239,0 -1.82547,2.41e-4 -1.82547,0.28272 0,0.357357 -0.71916,1.067207 -1.08118,1.067207 -0.19531,0 -0.39332,-0.189953 -0.70357,-0.674964 z"
   id="path1209"
   inkscape:connector-curvature="0" /><path
   id="path1075"
   style="fill:#000000;stroke:#000000;stroke-width:0.38432643;stroke-miterlimit:4;stroke-dasharray:none;stroke-opacity:1"
   d="m 89.198107,10.574465 c -0.80437,-0.254572 -1.46217,-0.7634978 -1.92002,-1.4854608 -0.26751,-0.421799 -0.29217,-0.541402 -0.29217,-1.416998 0,-0.618353 0.0543,-1.08629 0.15365,-1.324063 0.0845,-0.202248 0.15365,-0.545889 0.15365,-0.76365 0,-0.39721 0.31715,-1.750178 0.73596,-3.139734 0.19526,-0.647842 0.28452,-0.790929 0.69161,-1.108694 0.42556,-0.332184 0.51323,-0.36053799 0.97955,-0.316744 0.28168,0.02647 0.83362,0.161599 1.22654,0.300327 0.58545,0.206711 0.80462,0.351893 1.2146,0.804511 0.27513,0.303746 0.62041,0.736656 0.76727,0.962 0.14688,0.22535 0.41113,0.574583 0.58722,0.776079 0.29318,0.335432 0.32519,0.443748 0.37961,1.283352 0.0325,0.504354 0.11422,1.037402 0.18131,1.184545 0.0977,0.214409 0.0892,0.398194 -0.043,0.92545 -0.0908,0.361849 -0.165,1.019661 -0.165,1.461818 0,1.042806 -0.28062,1.5805528 -0.98815,1.8935268 -0.68384,0.302501 -2.65375,0.282981 -3.66253,-0.03631 z m 2.46487,-1.3385178 c 0.4585,-0.131242 0.5376,-0.436402 0.55201,-2.129727 l 0.0131,-1.582211 -0.31996,-0.604442 c -0.50499,-0.953986 -0.86463,-1.389781 -1.4018,-1.698638 -0.27448,-0.157817 -0.52824,-0.287316 -0.5639,-0.287777 -0.12117,-0.0012 -0.60096,1.13018 -0.60096,1.417751 0,0.157428 -0.0706,0.493146 -0.15667,0.746018 -0.11755,0.345269 -0.14954,0.812168 -0.12799,1.874566 l 0.0287,1.414789 0.71701,0.411508 c 0.96738,0.555179 1.23282,0.617703 1.8602,0.438163 z"
   inkscape:connector-curvature="0" /><path
   id="path1067"
   style="fill:#000000;stroke:#000000;stroke-width:0.38432643;stroke-miterlimit:4;stroke-dasharray:none;stroke-opacity:1"
   d="m 71.264417,11.273041 -0.58994,-0.269284 0.0267,-4.8759058 0.0267,-4.8759 1.11362,-0.02926 c 0.83681,-0.02192 1.16966,0.0075 1.33901,0.118479 0.12393,0.08127 0.41707,0.205095 0.65135,0.275288 0.6536,0.195825 1.78125,1.207975 2.13407,1.915494 l 0.29322,0.588007 v 2.099837 c 0,1.979281 -0.0131,2.124487 -0.22963,2.529439 -0.24105,0.450943 -1.60474,1.8330788 -2.02949,2.0569288 -0.19255,0.101449 -2.05458,0.746978 -2.12904,0.738065 -0.009,-0.0012 -0.28185,-0.123203 -0.60632,-0.271245 z m 2.20046,-2.5180368 c 1.18597,-1.229704 1.20635,-1.273401 1.20635,-2.587931 0,-1.299539 0.0145,-1.267196 -1.01199,-2.328745 -0.51382,-0.531609 -0.61082,-0.588972 -0.99586,-0.588972 -0.35582,0 -0.43683,0.03825 -0.48835,0.230468 -0.10929,0.407532 -0.0722,5.504775 0.0414,5.717253 0.20348,0.380216 0.58591,0.244785 1.24836,-0.442073 z"
   inkscape:connector-curvature="0" /><path
   style="fill:#000000;stroke:#000000;stroke-width:0.38432643;stroke-miterlimit:4;stroke-dasharray:none;stroke-opacity:1"
   d="m 79.995147,11.187184 c -1.14238,-0.414976 -1.04797,0.03449 -1.01731,-4.8427858 l 0.0268,-4.249157 0.56339,-0.209728 c 0.4938,-0.183857 0.85112,-0.214045 2.89464,-0.244609 l 2.33126,-0.03491 0.25511,0.255094 c 0.38544,0.38545 0.3596,1.047833 -0.0564,1.446397 l -0.3115,0.298439 -0.44373,-0.235392 c -0.3934,-0.208708 -0.5526,-0.230724 -1.40419,-0.194246 -0.71659,0.03066 -1.12958,0.107709 -1.6263,0.303248 l -0.66581,0.262107 v 0.549137 0.549131 l 0.51216,0.06781 c 0.28168,0.03728 1.24167,0.07187 2.13331,0.07678 l 1.62117,0.0086 0.29941,0.29941 c 0.24495,0.244943 0.29941,0.385935 0.29941,0.774986 0,0.769842 -0.10273,0.871789 -0.87834,0.871789 -0.46413,0 -0.78809,-0.06215 -1.06784,-0.204853 -0.3359,-0.171374 -0.60371,-0.204864 -1.63802,-0.204864 -1.08127,0 -1.24572,0.02252 -1.31006,0.179243 -0.0904,0.220025 -0.089,2.553888 10e-4,2.644414 0.0358,0.03576 0.33325,0.09675 0.66094,0.135395 0.32768,0.03855 0.66487,0.114563 0.74931,0.168855 0.0845,0.05416 0.95447,0.123476 1.93338,0.153864 l 1.77985,0.05531 0.24264,0.3032598 c 0.31076,0.388376 0.30832,0.708891 -0.007,1.024937 l -0.25143,0.251421 -2.48859,-0.01166 c -2.32361,-0.01166 -2.53169,-0.02769 -3.13698,-0.247529 z"
   id="path1063"
   inkscape:connector-curvature="0" /><path
   style="fill:#000000;stroke:#000000;stroke-width:0.38432643;stroke-miterlimit:4;stroke-dasharray:none;stroke-opacity:1"
   d="m 96.291717,11.22 c -0.0784,-0.0459 -0.21775,-0.250116 -0.30964,-0.453881 -0.16499,-0.365857 -0.16463,-0.375541 0.0284,-0.7727938 l 0.19546,-0.40228 h 1.73586 c 1.48266,0 1.83563,-0.02757 2.419743,-0.189042 0.83583,-0.231027 1.09074,-0.38412 1.09074,-0.655073 0,-0.315033 -0.40953,-0.641965 -1.35621,-1.082666 -0.472413,-0.219922 -1.143733,-0.592354 -1.491833,-0.827631 -0.34808,-0.235295 -0.94207,-0.583915 -1.31996,-0.774731 -0.72419,-0.365705 -1.47956,-1.083248 -1.58575,-1.506365 -0.0307,-0.121897 -0.0368,-0.515465 -0.0138,-0.874449 0.0355,-0.552895 0.0908,-0.729097 0.36138,-1.152147 0.17572,-0.274699 0.43666,-0.589483 0.57987,-0.699523 0.92292,-0.70917 1.19927,-0.85574799 2.34794,-1.24545999 1.216183,-0.412595 1.229703,-0.414891 2.235213,-0.378868 1.02826,0.03685 1.5144,0.182691 1.98359,0.595147 0.21203,0.18642 0.22338,0.97086399 0.0152,1.05075899 -0.27134,0.104121 -1.2199,0.05446 -1.54358,-0.08073 -0.17852,-0.07464 -0.43982,-0.135674 -0.58063,-0.135674 -0.40315,0 -1.817643,0.492156 -2.481493,0.863404 -0.53364,0.298427 -1.39942,1.059515 -1.39942,1.230209 0,0.03436 0.11004,0.193238 0.24456,0.353083 0.33946,0.403433 1.31115,1.007603 2.600803,1.617164 0.95322,0.450524 1.46612,0.746158 2.28322,1.316011 0.11056,0.0771 0.31247,0.330357 0.44867,0.56278 0.20947,0.357418 0.25323,0.550182 0.28387,1.250233 0.0225,0.516048 -0.002,0.900216 -0.067,1.020347 -0.12109,0.2262908 -1.707,1.0089688 -2.0444,1.0089688 -0.126,0 -0.47076,0.101558 -0.76613,0.226043 -0.505953,0.212952 -0.630063,0.225854 -2.144613,0.223267 -0.88415,-0.0012 -1.67172,-0.04025 -1.75013,-0.08607 z"
   id="path893"
   inkscape:connector-curvature="0" /><path
   style="fill:#000000;stroke:#000000;stroke-width:0.87032109;stroke-miterlimit:4;stroke-dasharray:none;stroke-opacity:1"
   d="m 52.605496,10.813513 c -0.0861,-0.136688 -0.25275,-0.367266 -0.37048,-0.512241 -0.1177,-0.144964 -0.43034,-0.6942158 -0.69469,-1.2205738 -0.26435,-0.526357 -0.63195,-1.180774 -0.81687,-1.454283 -0.83659,-1.237264 -2.12474,-4.400319 -2.12474,-5.217332 0,-0.329816 0.32906,-0.659553 0.65819,-0.659553 0.35777,0 0.83863,0.468016 0.95478,0.929231 0.0536,0.212813 0.2415,0.663349 0.41761,1.001204 0.17611,0.337867 0.32019,0.674587 0.32019,0.748295 0,0.275768 0.55922,1.43301 1.13805,2.35515 0.32937,0.524681 0.69576,1.173112 0.81421,1.440975 0.11842,0.267845 0.26998,0.486996 0.3367,0.486996 0.15384,0 0.4472,-0.641443 0.74428,-1.627443 0.12741,-0.422681 0.28942,-0.890581 0.36014,-1.039764 0.0707,-0.149171 0.17238,-0.474671 0.22588,-0.723305 0.0535,-0.248628 0.15615,-0.626397 0.22811,-0.839483 0.072,-0.213074 0.13089,-0.629281 0.13089,-0.924909 0,-0.295622 0.0566,-0.690889 0.12581,-0.878377 0.0691,-0.187476 0.16218,-0.483274 0.20655,-0.65732 l 0.0806,-0.316453 0.71233,-0.02671 c 0.82143,-0.03078 0.86024,-0.0012 0.86229,0.648625 10e-4,0.411454 -0.35097,1.590103 -0.54516,1.824087 -0.0464,0.05586 -0.12089,0.403111 -0.16569,0.771658 -0.088,0.72461 -0.95947,3.616888 -1.28233,4.255853 -0.36382,0.720093 -0.92826,1.6568838 -1.06719,1.7712348 -0.0755,0.06215 -0.35235,0.113058 -0.61519,0.113058 -0.42317,0 -0.49585,-0.02854 -0.63436,-0.248635 z"
   id="path841"
   inkscape:connector-curvature="0" /></svg>