<?xml version="1.0" encoding="UTF-8" standalone="no"?>
<svg
   xmlns:dc="http://purl.org/dc/elements/1.1/"
   xmlns:cc="http://creativecommons.org/ns#"
   xmlns:rdf="http://www.w3.org/1999/02/22-rdf-syntax-ns#"
   xmlns:svg="http://www.w3.org/2000/svg"
   xmlns="http://www.w3.org/2000/svg"
   xmlns:xlink="http://www.w3.org/1999/xlink"
   xmlns:sodipodi="http://sodipodi.sourceforge.net/DTD/sodipodi-0.dtd"
   xmlns:inkscape="http://www.inkscape.org/namespaces/inkscape"
   id="svg8"
   version="1.1"
   viewBox="0 0 312.7375 481.01252"
   height="1818"
   width="1182"
   sodipodi:docname="map-2.svg"
   inkscape:version="0.92.3 (unknown)">
  <sodipodi:namedview
     pagecolor="#ffffff"
     bordercolor="#666666"
     borderopacity="1"
     objecttolerance="10"
     gridtolerance="10"
     guidetolerance="10"
     inkscape:pageopacity="0"
     inkscape:pageshadow="2"
     inkscape:window-width="1920"
     inkscape:window-height="1031"
     id="namedview13"
     showgrid="false"
     inkscape:zoom="0.36716656"
     inkscape:cx="698.05723"
     inkscape:cy="933.3057"
     inkscape:window-x="0"
     inkscape:window-y="27"
     inkscape:window-maximized="1"
     inkscape:current-layer="layer1" />
  <defs
     id="defs2" />
  <metadata
     id="metadata5">
    <rdf:RDF>
      <cc:Work
         rdf:about="">
        <dc:format>image/svg+xml</dc:format>
        <dc:type
           rdf:resource="http://purl.org/dc/dcmitype/StillImage" />
        <dc:title></dc:title>
      </cc:Work>
    </rdf:RDF>
  </metadata>
  <g
     transform="translate(-51.637604,245.0118)"
     id="layer1">
    <image
       sodipodi:absref="/home/ignacio.cavina/Projects/juanwauters.com/static/images/map2.png"
       xlink:href="map2.png"
       width="312.73749"
       height="481.01251"
       preserveAspectRatio="none"
       style="image-rendering:optimizeQuality"
       id="image3949"
       x="52.005047"
       y="-244.69244" />
    <path
       style="fill:none;stroke:#000000;stroke-width:0.18603256px;stroke-linecap:butt;stroke-linejoin:miter;stroke-opacity:1"
       d="m 182.2018,-239.82468 c 0,0.73233 0.30919,1.56115 0,2.19699 -1.03923,2.13715 -3.51908,1.92466 -5.14133,2.19699 -1.09058,0.18308 -2.17391,0.44174 -3.27176,0.54925 -8.89687,0.87125 5.45337,-1.39153 -5.14132,1.0985 -0.40918,0.0962 -4.84915,0 -5.14134,0 -0.1558,0 -0.35723,-0.12946 -0.46739,0 -0.11017,0.12946 0.13935,0.46737 0,0.54924 -0.2787,0.16376 -0.62319,0 -0.93479,0 -0.46739,0 -0.93479,0 -1.40218,0 -1.24639,0 -2.49277,0 -3.73915,0 -0.62319,0 -1.2512,-0.0908 -1.86958,0 -0.78828,0.1158 -1.55053,0.41723 -2.33696,0.54925 -0.30847,0.0518 -0.65609,-0.16375 -0.93479,0 -0.13935,0.0819 0.11016,0.41979 0,0.54925 -0.11017,0.12946 -0.35723,-0.12946 -0.4674,0 -0.53707,0.63113 -0.46739,0.97137 -0.46739,1.64775 0,0.18308 0.0864,0.39691 0,0.54925 -0.24444,0.43086 -0.69035,0.66763 -0.93479,1.09849 -0.0864,0.15233 0.0306,0.36972 0,0.54925 -0.12598,0.74021 -0.21435,1.50316 -0.46739,2.197 -0.44256,1.21347 -1.45233,2.06968 -1.86958,3.29549 -0.11572,0.33997 0.0985,0.75111 0,1.09849 -0.0697,0.24563 -0.36886,0.31767 -0.46739,0.54925 -0.0697,0.16376 0.0697,0.3855 0,0.54925 -0.25122,0.59042 -0.75715,1.0215 -0.93479,1.64774 -0.1478,0.52107 0.1478,1.12668 0,1.64775 -1.54497,5.4466 -0.17378,-0.79217 -1.86957,2.19699 -0.17285,0.30467 0.11572,0.75852 0,1.09849 -0.20863,0.61291 -0.64578,1.0817 -0.93479,1.64775 -1.63428,3.20082 0.69949,-1.00382 -0.93479,2.19699 -0.28901,0.56605 -0.64578,1.0817 -0.93479,1.64775 -0.17923,0.35104 -0.33801,0.71839 -0.46739,1.09849 -0.18298,0.53755 -0.21392,1.1513 -0.46739,1.64775 -0.22672,0.44404 -0.6232,0.73233 -0.93479,1.0985 -0.1558,0.18308 -0.36886,0.31766 -0.4674,0.54924 -0.0697,0.16376 0.0579,0.37926 0,0.54925 -0.25876,0.76021 -0.71445,1.42024 -0.93478,2.197 -0.14781,0.52106 0.1478,1.12668 0,1.64774 -0.96706,3.40925 0.0378,-1.82543 -0.93479,2.74624 -0.0756,0.35524 0,0.73234 0,1.0985 0,1.0985 0,2.19699 0,3.29549 0,2.56315 0,5.12631 0,7.68947 0,4.39399 0,8.78798 0,13.18197 0,0.1332 -0.015,1.63008 0,1.64774 0.11016,0.12946 0.31159,0 0.46739,0 0.1558,0.73233 0.40348,1.44587 0.4674,2.19699 0.093,1.09305 -0.15368,2.21194 0,3.29549 0.0256,0.18059 0.39772,-0.16376 0.46739,0 0.44066,1.03567 0.62319,2.19699 0.93479,3.29549 0.1558,0.54925 0.17179,1.18458 0.46739,1.64774 0.20903,0.32751 0.60429,0.41979 0.93479,0.54925 0.1478,0.0579 0.38097,-0.15233 0.46739,0 0.27329,0.48173 0.15962,1.19566 0.4674,1.64775 0.35091,0.51546 1.00497,0.63172 1.40218,1.09849 0.24634,0.28949 0.25837,0.77099 0.46739,1.0985 0.2644,0.41427 0.62319,0.73233 0.93479,1.0985 0.31159,0.36616 0.56813,0.81125 0.93479,1.09849 0.25926,0.20311 0.66759,-0.18839 0.93478,0 0.66798,0.47098 1.22142,1.13997 1.86958,1.64775 0.28986,0.22708 0.68845,0.25977 0.93479,0.54925 0.11016,0.12946 -0.0697,0.38549 0,0.54925 0.0985,0.23158 0.31159,0.36616 0.46739,0.54925 0.1558,0.18308 0.27032,0.43345 0.4674,0.54924 0.13935,0.0819 0.31462,-0.0359 0.46739,0 0.6299,0.14805 1.25192,0.34187 1.86958,0.54925 0.47371,0.15905 0.94474,0.33423 1.40217,0.54925 0.64692,0.30408 1.19363,0.89991 1.86958,1.0985 0.62319,0.18308 2.49277,-0.36617 2.80436,0 0.44067,0.51783 -0.13518,1.4821 0,2.19699 0.18201,0.96245 0.55958,1.86439 0.93479,2.74624 0.85095,1.99994 1.62777,2.34215 3.27176,3.84473 1.04128,0.95173 3.01508,2.73545 4.20654,3.2955 0.7376,0.34671 1.56627,0.32283 2.33697,0.54925 0.95593,0.28083 1.86958,0.73233 2.80437,1.09849 0.46739,0.18308 0.91445,0.46737 1.40217,0.54925 3.20274,0 0.6139,-0.23158 3.27176,0.54925 0.15115,0.0444 0.3116,0 0.4674,0 0.31159,0 0.62319,0 0.93478,0 1.09059,0 2.18118,0 3.27176,0 3.11596,0 6.23192,0 9.34787,0 3.27176,0 6.54352,0 9.81527,0 1.09059,0 2.18117,0 3.27176,0 0.4674,0 0.94875,0.13321 1.40218,0 0.33798,-0.0993 0.59682,-0.44996 0.93479,-0.54925 0.3023,-0.0888 0.63918,0.11579 0.93479,0 1.035,0.24919 0.14394,-0.94645 0.46739,-1.0985 0.7376,-0.34671 1.55616,-0.3772 2.33697,-0.54924 1.71204,-0.37723 3.42596,-0.74277 5.14134,-1.0985 0.93325,-0.19354 1.87508,-0.33085 2.80436,-0.54925 1.40849,-0.33103 2.7897,-0.821 4.20654,-1.0985 3.24399,-0.63534 -0.69972,1.00642 3.27175,-0.54925 0.3116,-0.18308 0.6232,-0.36616 0.93479,-0.54925 0,-0.18308 -0.13934,-0.46736 0,-0.54924 0.27871,-0.16376 0.65609,0.16375 0.93479,0 0.13935,-0.0819 0,-0.36617 0,-0.54925 0,-1.46466 0,-2.92933 0,-4.39399 0,-1.09849 0,-2.19699 0,-3.29548 0,-0.31036 0.0839,-1.40139 0,-1.64775 -0.46754,-1.37356 -1.16581,-3.0583 -2.33697,-3.84474 -0.55773,-0.37452 -1.32484,-0.14916 -1.86957,-0.54925 -1.79479,-0.64266 -1.89376,-3.31443 -3.27176,-4.39398 -0.38889,-0.30467 -0.95877,0.17368 -1.40218,0 -0.1478,-0.0579 0.11017,-0.41979 0,-0.54925 -0.11016,-0.12946 -0.35723,0.12946 -0.46739,0 -0.11017,-0.12946 0.11016,-0.41979 0,-0.54925 -0.11017,-0.12946 -0.3116,0 -0.4674,0 0,-0.18308 0.0697,-0.38549 0,-0.54925 -0.0985,-0.23158 -0.29534,-0.3875 -0.46739,-0.54925 -0.60829,-0.57185 -1.31875,-1.00045 -1.86957,-1.64774 -0.0577,-0.0678 0,-1.85257 0,-2.197 0,-1.46466 0,-2.92932 0,-4.39398 0,-2.56315 0,-5.12631 0,-7.68947 0,-0.73233 0,-1.46467 0,-2.197 0,-0.54925 -0.0769,-1.10597 0,-1.64774 0.081,-0.57109 0.33204,-1.09107 0.46738,-1.64775 0.0121,-0.0497 0.93114,-4.38396 0.93479,-4.39399 0.22128,-0.60673 0.75716,-1.0215 0.93479,-1.64774 0.1478,-0.52106 0,-1.0985 0,-1.64775 0,-0.18308 -0.11016,-0.41979 0,-0.54925 2.1699,-1.27495 0.0794,0.36277 0.93479,-1.64774 0.0697,-0.16375 0.39772,0.16376 0.4674,0 0.13934,-0.32751 0,-0.73233 0,-1.09849 0,-0.91542 0,-1.83083 0,-2.74624 0,-1.83083 0,-3.66166 0,-5.49248 0,-0.91542 0.0775,-1.83537 0,-2.74625 -0.19339,-2.27249 -0.47229,-3.03093 -1.40219,-4.94324 -0.2787,-0.57313 -0.68357,-1.05731 -0.93479,-1.64774 -0.57558,-1.35277 1.35673,0.49583 -0.46739,-1.64775 -0.24634,-0.28947 -0.68845,-0.25976 -0.93478,-0.54924 -0.22034,-0.25892 0.22032,-0.83958 0,-1.0985 -0.11017,-0.12946 -0.35723,0.12946 -0.4674,0 -0.39721,-0.46677 -0.4854,-1.25168 -0.93479,-1.64775 -0.8361,-0.73688 -1.94816,-0.94344 -2.80436,-1.64774 -1.07393,-0.8834 -3.01809,-3.81345 -3.73915,-4.94323 -0.33705,-0.52809 -0.53758,-1.18098 -0.93479,-1.64774 -0.24634,-0.28949 -0.64492,-0.32217 -0.93479,-0.54925 -0.18332,-0.14362 -0.27032,-0.43346 -0.46739,-0.54925 -0.2787,-0.16375 -0.71446,0.25892 -0.93479,0 -0.24634,-0.28949 -0.23799,-0.7904 -0.46739,-1.0985 -0.87054,-1.16913 -1.86958,-2.19699 -2.80437,-3.29549 -0.46739,-0.54925 -0.89438,-1.15048 -1.40217,-1.64774 -0.43154,-0.4226 -1.00498,-0.63173 -1.40219,-1.0985 -0.55082,-0.6473 -0.70543,-1.78761 -1.40218,-2.197 -0.2787,-0.16375 -0.71445,0.25892 -0.93479,0 -0.11016,-0.12945 0.11017,-0.41978 0,-0.54924 -0.3972,-0.46677 -0.92583,-0.74864 -1.40218,-1.0985 -0.77036,-0.56579 -1.52442,-1.17032 -2.33697,-1.64775 -3.25485,-1.27495 0.22936,0.36277 -2.33697,-1.64774 -0.25926,-0.20311 -0.71445,0.25892 -0.93478,0 -0.11017,-0.12946 0.11016,-0.41979 0,-0.54925 -0.11017,-0.12946 -0.3338,0.0942 -0.4674,0 -0.66798,-0.47098 -1.20159,-1.17677 -1.86957,-1.64774 -0.1336,-0.0942 -0.3116,0 -0.4674,0 -0.15579,0 -0.31159,0 -0.46739,0 -1.58921,0 -1.43458,0.01 -3.27176,0.54925 z"
       id="path4544"
       inkscape:connector-curvature="0" />
    <path
       style="fill:none;stroke:#000000;stroke-width:0.26458335px;stroke-linecap:butt;stroke-linejoin:miter;stroke-opacity:1"
       d="m 156.12583,-108.45015 c -3.36284,0 -6.72567,0 -10.08851,0 -1.68266,0 -5.03102,-0.18843 -6.48548,0.72061 -1.01846,0.63654 -1.41156,1.9446 -2.16183,2.88243 -0.2122,0.26526 -0.4804,0.48041 -0.7206,0.72061 -0.72061,0.72061 -1.36605,1.5252 -2.16183,2.16183 -0.83882,0.67106 -2.12284,0.68163 -2.88243,1.44122 -2.02905,0.0447 -0.1835,1.62471 -0.72061,2.161819 -0.16985,0.16985 -0.61319,-0.214841 -0.72061,0 -0.21484,0.429689 0.11652,0.975157 0,1.441217 -0.13027,0.521074 -0.59034,0.920145 -0.72061,1.441218 -0.11651,0.466063 0,0.960813 0,1.441217 0,0.720608 0,1.441217 0,2.161826 0,1.441217 0,2.882434 0,4.323651 0,0.720609 0.0796,1.445625 0,2.161826 -0.16135,1.45216 -0.59927,2.867599 -0.72061,4.323649 -0.11968,1.43624 0.15916,2.89125 0,4.323652 -0.0839,0.754943 -0.53638,1.424916 -0.72061,2.161825 -0.29705,1.188231 -0.45491,2.40741 -0.7206,3.603043 -1.15125,5.180616 -0.2001,0.600274 -2.16183,6.485478 -0.3603,1.080913 0.72061,0.720608 0,2.161823 -0.10742,0.214844 -0.61319,-0.214842 -0.72061,0 -0.21484,0.429689 0,0.960813 0,1.441217 -0.4804,0.960813 -0.79668,2.02306 -1.44122,2.882435 -0.14412,0.192161 -0.55075,-0.16985 -0.7206,0 -0.16985,0.169849 0.16985,0.550759 0,0.720608 -0.16985,0.16985 -0.55076,-0.169849 -0.72061,0 -0.16985,0.16985 0.16985,0.55076 0,0.720609 -0.16985,0.169849 -0.66235,-0.233032 -0.72061,0 -0.23303,0.932124 0.33736,1.982798 0,2.882434 -0.4217,1.124546 -1.62472,1.808216 -2.16183,2.882435 -0.44291,0.885825 -0.4804,1.921621 -0.7206,2.882434 -0.24021,0.960811 -0.5578,1.905527 -0.72061,2.882432 -0.14202,0.852075 0,1.989868 0,2.882434 0,1.921624 0,3.843245 0,5.764869 0,2.161826 0,4.323652 0,6.485478 0,0.96081 0,1.921621 0,2.882431 0,0.720609 -0.14133,1.455211 0,2.161826 0.10939,0.546971 1.56953,3.306898 2.16182,3.603043 0.21485,0.107424 0.55076,-0.169849 0.72061,0 0.16985,0.16985 0,0.480407 0,0.720609 0.96081,1.201015 1.79487,2.515478 2.88243,3.603043 0.6124,0.612399 1.48555,0.900192 2.16183,1.441217 1.31992,1.055936 3.0054,3.532701 4.32365,4.323651 0.41195,0.247166 0.96081,0 1.44122,0 0.2402,0 0.55076,-0.169849 0.72061,0 0.37979,0.379794 0.34081,1.061421 0.7206,1.4412153 0.16985,0.169849 0.49274,-0.07596 0.72061,0 2.35228,0.784095 0.60405,0.941385 3.60305,1.441217 0.7108,0.118467 1.51729,-0.322265 2.16182,0 3.26943,2.615544 3.04624,2.849692 6.48548,4.323652 1.39634,0.598445 2.91313,0.876998 4.32365,1.441222 0.49869,0.19947 0.92014,0.590339 1.44121,0.720593 0.46606,0.116523 1.01153,-0.214842 1.44122,0 0.21484,0.107421 0,0.480404 0,0.720619 0.72061,0.48040398 1.32908,1.20329898 2.16182,1.44121198 1.35516,0.69910902 2.92547,-0.349541 4.32366,0 0.52107,0.130281 0.92014,0.590338 1.44121,0.72061902 0.46606,0.116523 0.96081,0 1.44122,0 0.4804,0 0.96081,0 1.44122,0 0.72061,0 1.46273,-0.17478302 2.16182,0 0.32956,0.08239 0.38751,0.653971 0.72061,0.720593 7.20608,1.441238 0,-0.720593 4.32365,0 0.97691,0.162825 1.90201,0.580549 2.88243,0.720619 0.71337,0.101918 1.44122,0 2.16183,0 2.40203,0 4.80406,0 7.20608,0 5.76487,0 11.52974,0 17.29461,0 4.80406,0 9.60811,0 14.41217,0 0.72061,0 1.44122,0 2.16183,0 0.96081,0 1.99034,0.356844 2.88243,0 0.49869,-0.199469 0.4804,-0.960808 0.72061,-1.441212 0.7206,-0.24021502 1.41257,-0.59573602 2.16182,-0.72061902 0.71081,-0.118454 1.44122,0 2.16183,0 0.2402,0 0.55076,0.169863 0.72061,0 0.33969,-0.339698 -0.28825,-1.056878 0,-1.44121198 0.61145,-0.815287 1.6375,-1.287965 2.16182,-2.161831 0.24717,-0.411938 -0.11651,-0.975148 0,-1.441212 0.13027,-0.521073 0.59034,-0.920144 0.72061,-1.441217 0.11652,-0.466061 -0.15192,-0.985464 0,-1.441217 0.21485,-0.64453 1.22637,-0.796684 1.44122,-1.441217 0.38731,-1.1619453 0.38413,-2.4253673 0.72061,-3.6030413 0.14628,-0.511987 0.80013,-1.841283 1.44121,-2.161825 0.21485,-0.107424 0.55076,0.169849 0.72061,0 0.0702,-0.07017 -0.0802,-2.481255 0,-2.882435 0.14897,-0.744836 0.59574,-1.412573 0.72061,-2.161826 0.11847,-0.710803 -0.22788,-1.478195 0,-2.161825 0.15192,-0.455753 1.10152,0.339698 1.44122,0 0.16984,-0.16985 0,-0.480404 0,-0.720609 0,-0.720608 0,-1.441217 0,-2.161826 0,-1.201012 -0.26054,-2.430626 0,-3.60304 0.23303,-1.048642 1.10152,-1.863341 1.44121,-2.882434 0.19341,-0.580211 -0.20686,-3.909915 0,-4.323652 0.15192,-0.303835 0.61319,-0.398344 0.72061,-0.720609 0.15192,-0.455753 0,-0.960811 0,-1.441217 0,-1.201015 0,-2.402028 0,-3.603043 0,-0.480404 0,-0.960811 0,-1.441217 0,-0.240202 -0.16985,-0.55076 0,-0.720609 0.16985,-0.169849 0.55076,0.169849 0.72061,0 0.16985,-0.169849 0,-0.480404 0,-0.720609 0,-0.480404 0,-0.96081 0,-1.441214 0,-3.122639 0,-6.245276 0,-9.367912 0,-1.681419 0,-3.362838 0,-5.04426 0,-0.960811 0.23303,-1.95031 0,-2.882435 -0.31373,-1.254908 -0.98703,-2.39187 -1.44122,-3.60304 -0.0271,-0.07239 -1.43387,-4.310806 -1.44121,-4.323652 -1.06225,-1.858933 -2.26059,-2.4581 -2.88244,-4.323651 -0.076,-0.227875 0,-0.480404 0,-0.720609 -0.4804,-1.681419 -0.76863,-3.430071 -1.44121,-5.04426 -0.5387,-1.292871 -1.67004,-2.291609 -2.16183,-3.60304 -0.25302,-0.674728 0.43237,-1.585339 0,-2.161826 -0.45575,-0.607671 -1.52981,-0.299265 -2.16183,-0.720609 -0.0961,-0.06406 0.12459,-2.037239 0,-2.161826 -0.16984,-0.169849 -0.55075,0.16985 -0.7206,0 -0.16985,-0.169849 0.076,-0.49273 0,-0.720608 -0.25599,-0.767964 -1.79638,-3.328959 -2.16183,-3.603043 -0.38432,-0.288243 -0.98546,0.151918 -1.44122,0 -0.32226,-0.107421 -0.41677,-0.56869 -0.72061,-0.720609 -0.21484,-0.107421 -0.55075,0.16985 -0.7206,0 -0.3397,-0.339698 0.33969,-1.101518 0,-1.441217 -0.16985,-0.169849 -0.50577,0.107424 -0.72061,0 -0.77463,-0.387316 -1.54943,-0.828818 -2.16183,-1.441217 -0.16984,-0.169847 0.13324,-0.520748 0,-0.720609 -0.37686,-0.56529 -0.96081,-0.96081 -1.44121,-1.441214 -0.72061,-0.720605 -1.44122,-1.441215 -2.16183,-2.161825 -0.48041,-0.48041 -1.03358,-0.8977 -1.44122,-1.44122 -0.98021,-1.30695 -0.39675,-1.9999 -2.16182,-2.88243 -0.64453,-0.32227 -1.44122,0 -2.16183,0 -0.2402,0 -0.61318,0.21484 -0.72061,0 -0.21484,-0.42969 0.3397,-1.10152 0,-1.44122 -0.75958,-0.75959 -1.92162,-0.96081 -2.88243,-1.44122 -0.4804,-0.2402 -0.93167,-0.55076 -1.44122,-0.72061 -0.22787,-0.076 -0.55076,0.16985 -0.72061,0 -0.16985,-0.16984 0.16985,-0.55075 0,-0.7206 -0.16985,-0.16985 -0.50576,0.10742 -0.7206,0 -0.30384,-0.15192 -0.39106,-0.63822 -0.72061,-0.72061 -2.51471,-0.62868 -1.9069,0.89056 -4.32365,-0.72061 -0.19986,-0.13324 0,-0.4804 0,-0.72061 -1.20102,-0.2402 -2.39056,-0.54739 -3.60305,-0.72061 -0.87844,-0.12549 -1.97331,0 -2.88243,0 -2.40203,0 -4.80406,0 -7.20609,0 -6.96588,0 -13.93176,0 -20.89764,0 -0.2402,0 -0.48041,0 -0.72061,0 -0.2402,0 -0.55076,-0.16985 -0.72061,0 -0.16985,0.16985 0,0.48041 0,0.72061 0,1.20102 0,2.40203 0,3.60304 0,0.24021 0.16985,0.55076 0,0.72061 -0.16985,0.16985 -0.55076,-0.16985 -0.72061,0 -0.16985,0.16985 0.16985,0.55076 0,0.72061 -0.16985,0.16985 -0.55076,-0.16985 -0.7206,0 -0.36031,0.3603 0.3603,1.80152 0,2.16183 -0.16985,0.16985 -0.48041,0 -0.72061,0 -0.24021,0 -0.57649,0.19216 -0.72061,0 -0.64453,-0.85938 -0.96081,-1.92163 -1.44122,-2.88244 z"
       id="path4546"
       inkscape:connector-curvature="0" />
    <path
       style="fill:none;stroke:#000000;stroke-width:0.26458335px;stroke-linecap:butt;stroke-linejoin:miter;stroke-opacity:1"
       d="m 182.06774,107.7324 c 0,7.20609 0,14.41217 0,21.61826 0,1.20099 0,2.40202 0,3.60304 0,1.201 0.23554,2.42536 0,3.60304 -0.25368,1.26842 -1.06952,2.36406 -1.44121,3.60305 -1.57922,7.89606 0.39541,-0.33383 -2.16183,6.48546 -0.34775,0.92734 -0.31838,1.97742 -0.72061,2.88245 -1.10223,2.48 -2.04776,2.95757 -2.88243,5.04426 -0.28211,0.70525 -0.26486,1.55413 -0.72061,2.1618 -0.0447,2.02907 -1.62472,0.18352 -2.16183,0.72062 -0.16985,0.16986 0.0892,0.49758 0,0.72062 -0.39895,0.99737 -0.87188,1.97149 -1.44122,2.88243 -0.7206,0.9608 -1.44121,1.92161 -2.16182,2.88242 0,0.4804 0.21484,1.01153 0,1.44124 -0.30384,0.60767 -1.1889,0.81039 -1.44122,1.44121 -0.26762,0.66905 0.19797,1.46894 0,2.16183 -0.29511,1.03288 -1.10152,1.86333 -1.44121,2.88242 -0.15192,0.45575 0.21484,1.01153 0,1.44122 -0.21485,0.42968 -1.10152,-0.3397 -1.44122,0 -0.3397,0.33969 0.15192,0.98546 0,1.44121 -0.40905,1.22716 -1.03217,2.3759 -1.44122,3.60304 -0.15192,0.45577 0,0.96081 0,1.44124 0,1.44121 0,2.88242 0,4.32364 0,1.92161 0,3.84325 0,5.76487 0,0.72059 -0.22787,1.4782 0,2.16183 0.076,0.22786 0.59703,-0.20598 0.72061,0 1.3817,2.30283 2.40203,4.80404 3.60304,7.20609 0.88102,1.76204 1.60926,3.51644 2.88244,5.04425 0.65241,0.78288 1.59653,1.3139 2.16182,2.16183 0.42135,0.63201 0.32981,1.51048 0.72061,2.16181 0.34955,0.58258 0.96081,0.96083 1.44122,1.44124 0.4804,0.4804 0.85864,1.09167 1.44121,1.44121 0.65135,0.39079 1.48243,0.38089 2.16183,0.72059 0.30384,0.15192 0.44885,0.51681 0.72061,0.72062 0.69285,0.51964 1.38719,1.05389 2.16183,1.44121 3.28543,1.64272 1.13393,-0.0615 5.04425,0.72062 0.33311,0.0666 0.38433,0.67257 0.72061,0.72059 1.42674,0.20384 2.88244,0 4.32365,0 1.44122,0 2.88244,0 4.32365,0 5.76487,0 11.52974,0 17.29461,0 6.96588,0 13.93176,0 20.89765,0 2.40202,0 4.80405,0 7.20608,0 0.72061,0 1.46894,0.19799 2.16182,0 1.03289,-0.29509 1.86335,-1.10151 2.88244,-1.44121 0.45575,-0.15192 0.96081,0 1.44122,0 1.20101,0 2.40202,0 3.60304,0 0.96081,0 1.92162,0 2.88243,0 0.96081,0 1.9347,0.15796 2.88244,0 0.5298,-0.0883 0.96081,-0.4804 1.44121,-0.72059 1.44122,-0.24022 2.87149,-0.55928 4.32365,-0.72062 0.7162,-0.0796 1.4782,0.22788 2.16183,0 0.22788,-0.076 -0.16985,-0.55076 0,-0.72062 0.16985,-0.16984 0.52075,0.13324 0.72061,0 0.56529,-0.37685 0.96081,-0.96081 1.44122,-1.44121 0.4804,-0.48041 0.96081,-0.96081 1.44121,-1.44121 0.48041,-0.48041 1.13738,-0.83355 1.44122,-1.44122 0.21484,-0.42968 -0.3397,-1.10151 0,-1.44121 0.3397,-0.3397 1.10152,0.3397 1.44122,0 0.12188,-0.12189 -0.15363,-3.29578 0,-3.60304 0.2402,-0.4804 1.11895,-0.29094 1.44121,-0.72062 0.45576,-0.60767 0.26486,-1.55416 0.72061,-2.16183 0.32227,-0.42968 1.06142,-0.34081 1.44122,-0.72059 0.37979,-0.37981 0.42267,-0.99433 0.72061,-1.44124 0.18843,-0.28263 0.61318,-0.39833 0.7206,-0.72059 0.15192,-0.45575 -0.33969,-1.10152 0,-1.44122 0.3397,-0.3397 1.0415,0.26647 1.44122,0 0.4469,-0.29794 0.48041,-0.9608 0.72061,-1.44124 0.72061,0 1.4782,0.22789 2.16183,0 0.82162,-0.27387 1.41918,-0.99562 2.16182,-1.44121 0.46057,-0.27633 0.93167,-0.55075 1.44122,-0.72059 0.22787,-0.076 0.55076,0.16984 0.72061,0 0.16985,-0.16986 -0.16985,-0.55076 0,-0.72062 0.16985,-0.16983 0.52075,0.13325 0.72061,0 0.56529,-0.37687 0.9107,-1.01679 1.44121,-1.44121 0.0123,-0.01 2.7012,-1.61811 2.88244,-2.16183 0.15191,-0.45575 -0.11652,-0.97515 0,-1.44121 0.13027,-0.52107 0.55076,-0.93168 0.72061,-1.44122 0.076,-0.22788 -0.0583,-0.48757 0,-0.72061 0.18422,-0.73692 0.63672,-1.40687 0.72061,-2.16184 0.15915,-1.4324 0,-2.88242 0,-4.32363 0,-4.08345 0,-8.1669 0,-12.25034 0,-2.16183 0.2151,-4.33438 0,-6.4855 -0.0985,-0.98546 -0.52639,-1.91127 -0.72061,-2.88242 -0.10594,-0.5297 0.19117,-1.71574 0,-2.16183 -0.63474,-1.48103 -1.79951,-2.75357 -2.16183,-4.32364 -0.37808,-1.63838 0.53171,-3.44913 0,-5.04428 -0.48637,-1.45912 -2.11935,-2.26764 -2.88243,-3.60304 -0.10533,-0.18431 0,-3.96949 0,-4.32364 0,-0.24021 0.16985,-0.55075 0,-0.72062 -0.16985,-0.16983 -0.55076,0.16987 -0.72061,0 -0.3397,-0.33969 0.42969,-1.22637 0,-1.44121 -1.35879,-0.67939 -3.24943,-0.367 -4.32365,-1.44121 -0.86607,-0.86606 -0.51926,-2.3949 -0.72061,-3.60304 -0.0395,-0.23694 0.19986,-0.58738 0,-0.72062 -1.34071,-0.89379 -2.98295,-1.26802 -4.32365,-2.16183 -4.10951,3.27144 -1.74279,-2.46338 -2.16183,-2.88243 -0.16985,-0.16983 -0.51464,0.12359 -0.72061,0 -1.02986,-0.6179 -1.83966,-1.56596 -2.88243,-2.16183 -1.31901,-0.75372 -2.96486,-0.76181 -4.32365,-1.44121 -1.25275,-0.62637 -2.49747,-1.30194 -3.60304,-2.16183 -3.19137,-2.48216 -1.94528,-2.77416 -5.04426,-4.32364 -0.21485,-0.10742 -0.50577,0.10742 -0.72061,0 -0.30384,-0.15192 -0.40254,-0.60134 -0.72061,-0.72062 -1.63736,-0.61401 -3.48017,-0.65918 -5.04426,-1.44121 -0.48041,-0.24021 -0.29092,-1.11895 -0.72061,-1.44121 -1.47401,-1.10551 -3.54675,-0.44289 -5.04426,-1.44121 -0.72061,-0.48043 -1.0539,-1.38721 -1.44122,-2.16183 -0.10742,-0.21484 0.21485,-0.6132 0,-0.72062 -0.42968,-0.21484 -1.01152,0.21484 -1.44121,0 -0.21485,-0.10742 0.16985,-0.55076 0,-0.72059 -0.16985,-0.16987 -0.48758,0.0582 -0.72061,0 -0.73691,-0.18423 -1.50232,-0.34375 -2.16183,-0.72062 -3.65985,1.03388 -2.18981,-2.66089 -3.60304,-3.60305 -0.39972,-0.26648 -0.99517,0.17841 -1.44121,0 -0.80413,-0.32165 -1.35771,-1.119553 -2.16183,-1.441207 -0.44605,-0.178435 -0.97516,0.116523 -1.44122,0 -0.52107,-0.130281 -0.92014,-0.590338 -1.44122,-0.720619 -0.6814,-0.170339 -3.06879,0.213704 -3.60304,0 -0.99738,-0.398939 -1.84029,-1.180677 -2.88243,-1.441212 -0.93212,-0.233018 -1.9347,0.157956 -2.88243,0 -0.52981,-0.08829 -0.91142,-0.632301 -1.44122,-0.720619 -1.30167,-0.216932 -3.56064,0 -5.04426,0 -3.36284,0 -6.72568,0 -10.08852,0 -2.88243,0 -5.76487,0 -8.6473,0 -0.20147,0 -3.4903,-0.05636 -3.60305,0 -0.21484,0.107421 0.19987,0.587375 0,0.720619 -0.63201,0.421349 -1.52981,0.29927 -2.16182,0.720619 -0.19986,0.133218 0.16985,0.550757 0,0.720593 -0.16985,0.169863 -0.55076,-0.169836 -0.72061,0 -0.16985,0.169863 0.10742,0.505778 0,0.720619 -0.30383,0.607669 -1.13738,0.833544 -1.44122,1.441207 -0.21183,0.42368 0.14789,2.2909 0,2.88243 -0.76181,3.04728 -0.64828,2.10759 -3.60304,4.32366 z"
       id="path4548"
       inkscape:connector-curvature="0" />
    <path
       style="fill:none;stroke:#000000;stroke-width:0.25092733px;stroke-linecap:butt;stroke-linejoin:miter;stroke-opacity:1"
       d="m 348.53478,-48.764068 c -0.26448,0.981146 -0.64449,1.948984 -0.7934,2.94344 -0.20444,1.365207 0,2.747214 0,4.120819 0,3.335903 0,6.671803 0,10.007703 0,9.222785 0,18.445573 0,27.668358 0,4.70950578 0,9.419014 0,14.128521 0,1.766064 0,3.532129 0,5.298195 0,0.784918 0.25656,1.593282 0,2.354745 -0.1283,0.380743 -1.12756,-0.194705 -1.58677,0 -13.40357,5.68308 1.69543,-0.04031 -7.93385,3.53214 -1.05785,0.392458 -2.18948,0.690589 -3.17356,1.177373 -0.62237,0.307879 -0.89223,0.971255 -1.58676,1.177372 -0.73663,0.218633 -1.64352,-0.218632 -2.38016,0 -3.73957,1.109914 0.45364,1.2278 -3.17354,1.76607 -3.70961,0.550504 -1.10766,-0.766434 -4.76032,0.588697 -0.85286,0.316396 -1.46331,0.982992 -2.38013,1.177373 -1.01716,0.215628 -2.13012,-0.129039 -3.17357,0 -0.58331,0.07213 -1.02574,0.449931 -1.58677,0.588697 -0.56719,0.14028 -4.66276,0 -5.55368,0 -4.2314,0 -8.46278,0 -12.69417,0 -2.38017,0 -4.76032,0 -7.14048,0 -1.31183,0 -2.89502,0.04757 -3.96692,-0.588697 -0.65304,-0.387638 -0.36311,-1.23396 -0.79339,-1.76607 -0.38485,-0.475933 -1.05784,-0.784915 -1.58676,-1.177373 -0.26447,-0.196239 -0.62614,-0.340473 -0.79339,-0.588697 -0.11828,-0.175511 0.18701,-0.449931 0,-0.588675 -0.41816,-0.310279 -1.28252,-0.212451 -1.58677,-0.588697 -0.92167,-1.139785 -0.79339,-2.319708 -0.79339,-3.532119 0,-0.588697 0.35482,-1.239536 0,-1.766069 -0.26446,-0.392458 -1.25874,-0.223604 -1.58676,-0.588697 -0.29341,-0.326542 0,-0.784913 0,-1.177373 0,-1.373606 0,-2.747211 0,-4.120819 0,-1.177376 0,-2.3547525 0,-3.5321293 0,-0.2005512 0.14312,-2.0361517 0,-2.3547537 -0.18701,-0.4162663 -0.60639,-0.7611106 -0.79339,-1.1773769 -0.0837,-0.1861609 0.187,-0.4499337 0,-0.5886888 -0.187,-0.1387552 -0.60638,0.1387551 -0.79339,0 -0.187,-0.1387552 0.23654,-0.5009331 0,-0.588688 -0.47308,-0.1755139 -1.06108,0.043338 -1.58677,0 -1.85859,-0.1532288 -3.7282,-0.2876877 -5.5537,-0.5886888 -3.96692,-0.654099 0.52893,-0.3270491 -2.38016,-1.76606572 -0.88018,-0.4353931 -2.22737,0.35102682 -3.17354,0 -0.23654,-0.0877557 0.18701,-0.44993286 0,-0.58868801 -0.187,-0.13875597 -0.60638,0.13875515 -0.79339,0 -0.0773,-0.05732415 0.0883,-2.02701757 0,-2.35475447 -0.164,-0.6084807 -0.59055,-1.1640601 -0.79337,-1.7660633 -0.24809,-0.7363101 0.32377,-1.6340236 0,-2.354754 -0.11828,-0.263271 -0.62614,-0.3404765 -0.79339,-0.5886885 -0.18953,-0.2812674 0.0836,-1.3942501 0,-1.7660654 -0.22169,-0.9869646 -0.62613,-1.9505921 -0.79339,-2.9434421 -0.0984,-0.584144 0,-1.177377 0,-1.766066 0,-0.784918 0,-1.569835 0,-2.354754 0,-2.943441 0,-5.886883 0,-8.830326 0,-9.419014 0,-18.838029 0,-28.257043 0,-1.962295 0,-3.924592 0,-5.886885 0,-0.392458 0,-0.784918 0,-1.177378 0,-0.196229 -0.187,-0.449933 0,-0.588688 0.18701,-0.138754 0.60639,0.138755 0.79339,0 0.41815,-0.310266 0.46536,-0.812288 0.79339,-1.177375 0.20746,-0.230903 0.58591,-0.357788 0.79337,-0.588688 0.32803,-0.36509 0.60639,-0.761113 0.79339,-1.177378 0.65834,-1.46545 -2.52036,0.184811 1.58678,-2.354754 0.90858,-0.561804 2.33723,-0.556845 3.17353,-1.177376 0.59136,-0.438783 0.29161,-1.26964 0.79339,-1.766066 0.35482,-0.351027 1.09474,-0.345296 1.58677,-0.588689 0.62239,-0.30787 0.91773,-0.929164 1.58677,-1.177377 0.23655,-0.08776 0.52893,0 0.79338,0 0.52893,0 1.06812,0.07697 1.58678,0 1.41266,1.182269 2.38016,-0.981145 3.17355,-1.177377 0.50177,-0.124105 1.05784,0 1.58676,0 1.3223,0 2.64462,0 3.96694,0 3.17353,0 6.34707,0 9.52062,0 4.49585,0 8.99169,0 13.48755,0 0.79338,0 1.58677,0 2.38016,0 1.05784,0 2.14088,-0.170271 3.17352,0 1.39028,0.229237 2.57668,0.948141 3.96693,1.177377 7.90729,0 0.88414,-0.555021 3.96693,0.588689 0.23654,0.08776 0.60638,-0.138755 0.7934,0 0.18698,0.138755 -0.18702,0.449933 0,0.588688 0.96631,0.717013 1.77259,0.275756 2.38016,1.177378 0.11827,0.175513 -0.23654,0.50093 0,0.588688 0.47308,0.175514 1.11369,-0.175513 1.58677,0 0.23653,0.08776 -0.11827,0.413176 0,0.588689 0.16726,0.248211 0.52891,0.39246 0.79336,0.588688 0.52895,0.392457 0.91776,0.929163 1.5868,1.177377 0.47307,0.175513 1.21275,-0.277511 1.58676,0 0.37401,0.277511 -0.2934,0.850831 0,1.177377 0.32801,0.365089 1.16863,0.27842 1.58676,0.588688 0.18703,0.138756 -0.0837,0.402528 0,0.588689 0.18703,0.416264 0.37523,0.867109 0.7934,1.177377 0.37401,0.277508 1.26942,-0.313969 1.58677,0 0.70962,0.702051 0.75046,1.734221 1.58677,2.354752 1.60867,1.193618 3.77722,1.888939 5.55369,2.943442 0.87616,0.52008 1.51819,1.233094 2.38016,1.766066 0.0357,0.02206 3.03543,1.356145 3.17353,1.766066 1.78144,5.287259 -3.0104,-2.701365 1.5868,4.120819 z"
       id="path4550"
       inkscape:connector-curvature="0" />
    <path
       style="fill:none;stroke:#000000;stroke-width:0.26458335px;stroke-linecap:butt;stroke-linejoin:miter;stroke-opacity:1"
       d="m 315.38031,-210.05595 c -2.58979,-0.47765 -5.34738,0.57318 -7.92669,0 -0.84544,-0.18787 -1.32162,-1.23116 -2.16183,-1.44121 -1.16515,-0.29129 -2.40202,0 -3.60304,0 -1.44122,0 -2.88243,0 -4.32365,0 -5.52466,0 -11.04933,0 -16.574,0 -1.92162,0 -3.84324,0 -5.76486,0 -0.17124,0 -2.72093,-0.0808 -2.88244,0 -0.30383,0.15192 -0.43796,0.53217 -0.7206,0.72061 -1.16538,0.77692 -2.61267,1.17144 -3.60305,2.16182 -0.53711,0.53711 -0.34374,1.50232 -0.72061,2.16183 -0.59587,1.04277 -1.49562,1.88313 -2.16182,2.88243 -1.17868,1.76802 -3.62026,6.05097 -4.32365,7.92669 -0.16868,0.44982 0.17842,0.99518 0,1.44122 -0.32165,0.80412 -1.13712,1.3509 -1.44122,2.16183 -0.43005,1.14681 -0.17286,2.50755 -0.72061,3.60304 -0.45575,0.9115 -1.55037,1.34655 -2.16182,2.16183 -0.28825,0.38432 0.24716,1.02927 0,1.44121 -0.61792,1.02986 -1.49563,1.88313 -2.16183,2.88243 -1.25699,1.88549 -2.34605,3.87939 -3.60304,5.76487 -0.48041,0.72061 -0.82882,1.54943 -1.44122,2.16183 -0.6124,0.6124 -1.38719,1.0539 -2.16182,1.44122 -0.21485,0.10742 -0.61319,-0.21485 -0.72061,0 -0.36031,0.7206 0.18015,1.44121 0,2.16182 -0.18423,0.73691 -0.48041,1.44122 -0.72061,2.16183 -0.2402,0.72061 -0.3298,1.51048 -0.72061,2.16182 -0.34955,0.58258 -1.00628,0.91929 -1.44122,1.44122 -0.76887,0.92264 -1.5439,1.85257 -2.16182,2.88243 -0.0848,0.14131 0,3.28982 0,3.60305 0,4.56385 0,9.1277 0,13.69156 0,4.56385 0,9.1277 0,13.69156 0,1.92162 0,3.84324 0,5.76487 0,0.4804 0,0.96081 0,1.44121 0,0.48041 -0.11652,0.97516 0,1.44122 0.13027,0.52107 0.61527,0.91454 0.72061,1.44122 0.14132,0.70661 -0.14133,1.45521 0,2.16182 0.91009,4.55047 0.14679,0.1468 1.44121,1.44122 0.3798,0.37979 0.44427,0.98065 0.72061,1.44122 0.44559,0.74264 1.0539,1.38719 1.44122,2.16182 0.10742,0.21484 -0.10742,0.50577 0,0.72061 1.10693,2.21387 0.40645,-1.19185 2.16182,1.44122 0.26648,0.39972 -0.26648,1.04149 0,1.44121 0.29794,0.44691 0.99432,0.42268 1.44122,0.72061 0.2402,0.24021 0.48041,0.48041 0.72061,0.72061 0,0.24021 -0.16985,0.55076 0,0.72061 1.2248,1.2248 2.97109,1.80038 4.32365,2.88243 0.39179,0.31343 3.30905,3.21106 3.60304,3.60305 0.32227,0.42969 0.34082,1.06142 0.72061,1.441214 0.16985,0.169849 0.48041,0 0.72061,0 0.48041,0 1.02927,-0.247164 1.44122,0 0.87386,0.52432 1.44121,1.441217 2.16182,2.161826 0.2402,0.240202 0.41678,0.56869 0.72061,0.720609 0.21485,0.10742 0.55076,-0.16985 0.72061,0 0.16985,0.169849 -0.21484,0.613185 0,0.720608 0.42969,0.214842 1.01153,-0.214844 1.44122,0 0.60767,0.303834 0.85864,1.091671 1.44121,1.441217 0.65134,0.390803 1.51049,0.329803 2.16183,0.720609 0.58258,0.349546 0.83355,1.13738 1.44122,1.441214 0.42968,0.214845 0.98546,-0.151915 1.44121,0 0.32227,0.107424 0.41678,0.568693 0.72061,0.720609 0.21484,0.107424 0.48041,0 0.72061,0 1.44122,0 2.89692,-0.203819 4.32365,0 0.75195,0.107424 1.44122,0.480407 2.16183,0.720609 0.96081,0.240204 1.8997,0.597768 2.88243,0.720608 1.19174,0.148969 2.40203,0 3.60304,0 2.40203,0 4.80406,0 7.20609,0 5.76487,0 11.52973,0 17.2946,0 1.92162,0 3.84325,0 5.76486,0 0.72062,0 1.51731,0.322268 2.16183,0 0.91152,-0.455752 1.44121,-1.441217 2.16183,-2.161826 1.83447,-1.834464 2.93701,-2.73319 4.32364,-5.044257 0.12359,-0.205973 -0.13322,-0.520748 0,-0.720609 0.37687,-0.565293 1.03359,-0.897699 1.44124,-1.441217 0.32226,-0.429684 0.55075,-0.931674 0.72059,-1.441214 0.076,-0.22788 -0.19217,-0.57649 0,-0.72061 0.85939,-0.64453 2.12286,-0.68163 2.88245,-1.44122 0.3397,-0.3397 -0.21484,-1.01153 0,-1.44122 0.30382,-0.60767 1.13737,-0.83354 1.44121,-1.44121 0.42969,-0.85938 -0.35684,-1.99034 0,-2.88244 0.32166,-0.80412 1.10006,-1.36578 1.44121,-2.16182 0.39013,-0.91031 0.21106,-2.03319 0.72062,-2.88244 0.27633,-0.46056 1.06141,-0.34081 1.44122,-0.7206 0.16983,-0.16985 -0.16987,-0.55076 0,-0.72061 0.16983,-0.16985 0.61317,0.21484 0.72059,0 0.33419,-0.66835 -0.31001,-3.54862 0,-4.32365 0.32165,-0.80412 0.96083,-1.44122 1.44124,-2.16183 0.9608,-1.44122 1.99125,-2.83836 2.88242,-4.32365 0.24022,-0.48041 0.4804,-0.96081 0.72062,-1.44122 0,-0.4804 -0.21487,-1.01153 0,-1.44122 0.30382,-0.60766 1.13736,-0.83354 1.44121,-1.44121 0.21484,-0.42969 -0.26649,-1.0415 0,-1.44122 0.29792,-0.4469 1.201,-0.2402 1.44121,-0.72061 0.64453,-1.28906 -0.45574,-2.95639 0,-4.32365 0.27387,-0.82162 1.10006,-1.36579 1.44122,-2.16182 1.46849,-3.42647 0.22113,-2.26856 0.72061,-5.76487 0.10743,-0.75196 0.53637,-1.42492 0.7206,-2.16183 0.133,-0.53196 0,-3.08901 0,-3.60304 0,-2.88243 0,-5.76487 0,-8.6473 0,-5.52467 0,-11.04933 0,-16.574 0,-1.44121 0,-2.88243 0,-4.32365 0,-0.32453 0.10967,-1.94252 0,-2.16182 -0.1519,-0.30384 -0.56867,-0.41678 -0.7206,-0.72061 -0.57848,-1.15697 -0.72368,-2.52676 -1.44121,-3.60304 -0.59589,-0.89381 -2.12285,-0.68163 -2.88245,-1.44122 -0.16983,-0.16985 0,-0.48041 0,-0.72061 0,-0.48041 0.23837,-1.02411 0,-1.44122 -0.76308,-1.3354 -1.79485,-2.51547 -2.88242,-3.60304 -2.65814,-2.65814 -0.29078,1.72567 -2.88245,-2.16183 -0.13322,-0.19986 0.21484,-0.61318 0,-0.7206 -0.88583,-0.44292 -1.96287,-0.35279 -2.88243,-0.72061 -1.52246,0.1877 -0.27371,-1.14328 -0.72061,-1.44122 -0.63201,-0.42134 -1.51048,-0.3298 -2.16181,-0.72061 -3.60304,-2.16182 0,-0.72061 -2.16183,-2.16182 -0.44691,-0.29794 -1.06143,-0.34082 -1.44121,-0.72061 -0.16986,-0.16985 0.16983,-0.55076 0,-0.72061 -0.16986,-0.16985 -0.55076,0.16985 -0.72062,0 -0.16984,-0.16985 0.19217,-0.57649 0,-0.72061 -1.71876,-1.28906 -4.01661,-1.63368 -5.76488,-2.88243 -0.82925,-0.59234 -1.34654,-1.55037 -2.1618,-2.16183 -0.19217,-0.14412 -0.4876,0.0583 -0.72062,0 -0.73692,-0.18422 -1.52981,-0.29926 -2.16183,-0.72061 -1.56096,-1.04064 -2.88243,-2.40202 -4.32365,-3.60304"
       id="path4552"
       inkscape:connector-curvature="0" />
  </g>
</svg>
