<?xml version="1.0" encoding="UTF-8" standalone="no"?>
<svg
   xmlns:dc="http://purl.org/dc/elements/1.1/"
   xmlns:cc="http://creativecommons.org/ns#"
   xmlns:rdf="http://www.w3.org/1999/02/22-rdf-syntax-ns#"
   xmlns:svg="http://www.w3.org/2000/svg"
   xmlns="http://www.w3.org/2000/svg"
   xmlns:xlink="http://www.w3.org/1999/xlink"
   id="svg8"
   version="1.1"
   viewBox="0 0 312.7375 481.01252"
   height="1818"
   width="1182">
  <defs
     id="defs2" />
  <metadata
     id="metadata5">
    <rdf:RDF>
      <cc:Work
         rdf:about="">
        <dc:format>image/svg+xml</dc:format>
        <dc:type
           rdf:resource="http://purl.org/dc/dcmitype/StillImage" />
        <dc:title></dc:title>
      </cc:Work>
    </rdf:RDF>
  </metadata>
  <g
     transform="translate(-51.637604,245.0118)"
     id="layer1">
    <image
       xlink:href="map.png"
       y="-244.69244"
       x="52.005047"
       id="image3949"
       style="image-rendering:optimizeQuality"
       preserveAspectRatio="none"
       height="481.01251"
       width="312.73749" />
    <path
       onclick="{(e) =&gt; {
          e.stopPropagation();
          onCountryClick('ar')}}"
       id="path3794"
       d="m 290.90052,62.111889 c -2.38919,0.04719 -4.81363,1.621203 -5.35683,4.04796 -2.34175,1.659146 -4.52775,-3.125796 -7.7304,-2.257764 -2.26886,-1.000957 -4.54144,1.412923 -7.34607,1.234553 -1.89043,0.976985 -4.39701,1.075374 -6.35848,2.22229 -1.61817,0.465505 -4.08774,1.475776 -6.42008,-0.06188 -2.9949,-0.866719 -4.08184,-1.903181 -5.67951,-5.432472 -3.3452,-1.979912 -5.8174,1.045151 -10.14075,-4.391948 -2.36925,-0.713259 -6.11582,-1.410047 -8.13227,0.255975 -2.43116,1.591823 -3.55714,3.011466 -5.06192,3.518696 -2.00391,1.312596 -4.09224,3.455781 -6.98797,1.913651 -3.76811,-3.654372 -5.52149,-0.70057 -7.45746,0.740732 -1.69243,0.732731 -4.8201,3.043378 -2.96311,5.802839 0.79086,2.380469 3.02253,5.192282 3.76563,7.654919 1.30907,3.062912 1.89506,4.958842 2.46911,7.77825 1.31057,2.453729 0.16253,4.657142 0.432,8.148709 0.99383,2.828127 -0.0412,5.533143 -0.24722,8.766011 -0.35462,2.67705 0.0803,5.1405 0.74092,7.77831 0.8985,3.80684 1.14491,7.19192 1.72844,10.6181 0.3402,3.49404 -0.42841,5.62972 -0.18534,8.39575 -0.35706,2.5504 -0.93223,5.50114 -1.79014,7.9634 -1.67949,2.52993 -0.14002,4.32178 0.0616,6.63489 0.26098,2.985 0.87254,5.08424 0.92614,8.05742 -0.6475,3.58564 -1.09663,6.38201 -2.65451,9.32153 -0.61653,2.55312 -1.81079,3.62125 -3.39509,6.48163 -0.79511,1.53209 -2.9398,4.4107 -3.02481,6.54369 -0.27254,2.75965 0.32011,3.97849 1.17298,6.85246 1.02853,2.17404 1.5491,3.50035 2.96306,5.43226 1.0779,2.59462 3.13745,6.04684 5.00035,8.27219 2.24166,3.12592 4.31306,5.02854 5.37052,9.01287 0.47673,2.42563 1.63677,4.23411 1.79029,6.66209 -0.24847,3.37589 0.52314,6.65468 0.18503,10.06764 0.16502,1.8959 3.58858,1.2113 6.77329,1.17289 3.17008,-0.33777 4.54619,1.56425 6.80798,3.33357 2.31871,0.95117 5.89883,1.66556 8.3338,1.97526 2.81904,1.68158 1.034,-1.31676 0.92589,-3.70404 0.90597,-2.98568 -0.20347,-4.44208 -0.30849,-7.03745 -1.36947,-2.9914 -1.46139,-6.58486 -1.54316,-9.19818 -0.4685,-2.60453 0.98155,-3.84905 1.72844,-5.74111 0.79324,-0.82352 2.51952,-3.24612 3.08654,-4.87689 2.04745,-2.38663 2.87776,-4.49881 4.52566,-6.92031 0.61096,-2.36353 -2.20473,-3.34583 -1.74766,-5.91983 -1.42765,-2.7052 -1.42733,-7.32549 0.74076,-8.95129 2.67379,-0.14471 7.09112,-1.91478 6.23503,-5.37071 -2.64882,-7.57957 1.00945,-6.09686 0.94191,-9.12498 1.09266,-3.81968 0.7087,-6.37448 -0.20128,-9.51834 -0.20159,-2.79272 -0.18033,-5.86235 1.23465,-8.82794 0.76764,-2.17084 3.54398,-5.48176 5.08921,-6.92775 1.30231,-1.5676 2.03035,-1.91215 2.99937,-4.25421 1.38673,-1.36841 3.64287,-6.24299 -0.18691,-6.5967 -4.28686,-1.0434 -7.0092,-3.2882 -6.04974,-7.19057 0.75598,-4.33369 0.92207,-7.04214 1.72853,-11.08248 0.74726,-3.90747 1.03377,-4.99335 -0.24691,-8.766074 3.08935,-4.007142 5.68441,-7.996531 8.2721,-11.97595 3.74701,-3.720132 7.75293,-5.43813 11.60555,-7.83979 1.70425,-1.010365 7.11272,0.274102 6.35839,-2.066673 1.33613,-1.164012 -0.88322,-3.070819 0.80236,-3.921192 2.3149,-2.649696 7.52225,-6.260374 5.00038,-7.469549 -1.92346,-1.052277 -4.94456,-2.263296 -8.58021,-1.234553 z"
       style="fill:#ffffff;stroke:#000000;stroke-width:0.82694238px;stroke-linecap:butt;stroke-linejoin:miter;stroke-opacity:1" />
    <path
       onclick="{(e) =&gt; {
          e.stopPropagation();
          onCountryClick('cl')}}"
       id="path3794-3"
       d="m 205.84742,56.118989 c 3.24659,6.120749 3.56126,10.826074 5.41825,13.585534 0.79086,2.38047 3.02253,5.19228 3.76563,7.65492 1.30907,3.06291 1.89506,4.95884 2.46911,7.77825 1.31057,2.45372 0.16253,4.65714 0.432,8.14871 0.99383,2.82812 -0.0412,5.53314 -0.24722,8.766007 -0.35462,2.67705 0.0803,5.1405 0.74092,7.77831 0.8985,3.80684 1.14491,7.19192 1.72844,10.6181 0.3402,3.49404 -0.42841,5.62972 -0.18534,8.39575 -0.35706,2.5504 -0.93223,5.50114 -1.79014,7.9634 -1.67949,2.52993 -0.14002,4.32178 0.0616,6.63489 0.26098,2.985 0.87254,5.08424 0.92614,8.05742 -0.6475,3.58564 -1.09663,6.38201 -2.65451,9.32153 -0.61653,2.55312 -1.81079,3.62125 -3.39509,6.48163 -0.79511,1.53209 -2.86497,4.4107 -2.94998,6.54369 -0.27254,2.75965 0.24528,3.97849 1.09815,6.85246 1.02853,2.17404 1.5491,3.50035 2.96306,5.43226 1.0779,2.59462 3.13745,6.04684 5.00035,8.27219 2.24166,3.12592 4.31306,5.02854 5.37052,9.01287 0.47673,2.42563 1.63677,4.23411 1.79029,6.66209 -0.24847,3.37589 0.52314,6.65468 0.18503,10.06764 0.16502,1.8959 -21.85484,-20.93944 -18.67013,-20.97785 0.76607,-2.10193 0.0982,-5.94658 -0.51584,-11.94661 -0.61482,-6.01176 -6.78978,-8.04891 -7.90445,-16.69776 -1.02791,-7.97565 -1.52744,-6.5303 -1.28428,-16.24292 0.13125,-5.24248 2.9891,-10.41082 3.42773,-17.7377 0.26734,-4.46563 6.57663,-13.97563 6.61818,-18.77969 0.10116,-11.69489 -9.78635,-15.28372 -8.72979,-22.445315 0.2237,-1.516282 -2.19959,-5.099949 -2.66272,-9.722535 -0.41792,-4.171432 1.23277,-9.23057 -0.49044,-13.642692 -2.61859,-6.704652 -7.75926,-11.163157 -8.08005,-14.511219 -0.47089,-4.91465 -1.04828,-11.337878 0.98376,-15.035095 0.94156,-1.713132 -1.60419,-2.63519 -0.0711,-3.273004 1.0523,-0.437793 6.29727,-0.834285 13.65228,6.311573 3.1146,3.026028 2.93832,6.376673 2.99923,10.673166 z"
       style="fill:#ffffff;stroke:#000000;stroke-width:0.82694238px;stroke-linecap:butt;stroke-linejoin:miter;stroke-opacity:1" />
    <path
       onclick="{(e) =&gt; {
          e.stopPropagation();
          onCountryClick('ur')}}"
       id="path3794-6"
       d="m 312.17249,70.578355 c 1.22259,2.491318 -1.36218,4.501303 -2.77492,8.331215 -1.59126,4.313861 -2.15804,10.474182 -2.94626,13.408005 -1.76571,6.572117 -3.08799,7.380855 -8.91629,11.668795 -3.78694,2.78609 -8.12463,3.51763 -11.952,5.11446 -2.82509,2.2423 -3.11096,3.44164 -5.13166,6.6557 -4.64562,8.6855 -4.61192,8.25581 -8.4417,7.9021 -4.28686,-1.0434 -7.00921,-3.2882 -6.04974,-7.19057 0.75598,-4.33369 0.92207,-7.04214 1.72853,-11.08248 0.74726,-3.90747 1.03377,-4.99335 -0.24691,-8.76608 3.08935,-4.00714 5.68441,-7.99653 8.2721,-11.97595 3.74701,-3.72013 7.75293,-5.43813 11.60555,-7.83979 1.70425,-1.01036 7.11272,0.2741 6.35839,-2.06667 1.33613,-1.16401 -0.88322,-3.07082 0.80236,-3.92119 2.3149,-2.6497 7.52225,-6.26038 5.00038,-7.46955 -1.92346,-1.05228 4.15688,2.499081 8.56436,4.480297 z"
       style="fill:#ffffff;stroke:#000000;stroke-width:0.82694238px;stroke-linecap:butt;stroke-linejoin:miter;stroke-opacity:1" />
    <path
       onclick="pe"
       id="path4028"
       d="m 165.93475,-78.951428 c -2.77964,4.503113 -6.35384,7.465638 -8.31791,13.500929 -1.33575,4.832887 -1.26681,11.359567 -5.59435,14.616681 -4.81838,5.096889 4.98903,7.372182 -0.72547,16.157655 -3.43578,2.951731 -7.68462,4.218053 -7.77373,6.345609 1.87574,4.333059 0.2261,12.394938 6.10365,18.8617276 3.2474,3.7551892 3.41559,11.3249006 9.54262,12.5508115 8.04592,0.2870647 7.83915,0.6980489 11.60953,4.6468062 1.65651,5.1267237 5.01561,9.5313287 7.37361,14.3064667 2.67568,4.220749 5.17005,8.573163 7.93575,12.655944 1.29824,5.917318 8.98473,3.624698 12.65329,7.43865 2.44595,1.877548 6.9921,4.413009 6.05742,-0.923959 1.60496,-5.292303 -0.85719,-10.183215 -0.2219,-15.716497 -2.72077,-4.120151 -3.48248,-8.495017 -3.83028,-13.210967 -0.0509,-4.6557528 -0.99629,-10.5753088 2.25939,-14.5036579 1.34339,-5.9368519 -0.6822,-12.7946801 -3.2098,-17.4773231 -1.08305,-6.223119 -2.13395,-8.708206 -3.54506,-14.013134 -0.27449,-4.627382 3.70661,-9.55357 1.66875,-14.222605 -4.41934,-2.926 -7.98772,0.771277 -12.83269,0.250509 -5.88521,-0.662037 -8.44081,5.063422 -12.09387,-0.400516 -4.32639,-0.97345 -7.64216,-1.030627 -7.06112,-8.290197 2.79235,-7.624528 1.94102,-8.191879 1.79399,-13.321896 -0.0181,-2.772846 1.08074,-9.732425 -1.79182,-9.251037 z"
       style="fill:#ffffff;stroke:#000000;stroke-width:0.82694238px;stroke-linecap:butt;stroke-linejoin:miter;stroke-opacity:1;font-variant-east_asian:normal;opacity:1;vector-effect:none;fill-opacity:1;stroke-miterlimit:4;stroke-dasharray:none;stroke-dashoffset:0" />
    <path
       onclick="mx"
       id="path4046"
       d="m 60.617636,-224.67492 c -4.694299,4.79402 5.65741,10.80599 0.501467,16.72329 -4.525517,4.7487 0.923402,9.89885 0.995204,15.00615 3.838873,4.18702 2.689933,13.03719 10.206063,12.25227 -2.513514,-4.15367 3.664116,-11.01496 -1.5642,-15.41275 -1.957167,-3.68414 -3.322265,-16.99749 2.675043,-9.00665 2.287473,5.67206 1.002027,12.37117 4.375596,17.85229 2.719387,5.49336 10.262217,14.39147 10.509892,21.51226 4.785687,7.83222 7.455998,9.65017 9.73134,16.63865 3.512279,5.85032 0.633133,16.07346 3.849589,22.3165 3.49952,6.45712 10.93718,2.17325 13.20915,16.41402 1.94812,8.34579 12.0859,7.88117 18.75117,10.16108 7.5042,-4.73605 11.68004,6.381752 19.55429,2.385882 6.29699,-0.505895 11.2756,-3.914862 13.89901,-8.990352 5.45599,-1.97918 13.76477,-3.56897 15.93263,-9.31319 -3.62483,-3.49213 -8.28534,-3.20522 -12.05856,-5.70534 -5.09485,-1.84796 -10.55483,0.65943 -15.67869,-1.06042 -8.01053,-3.68993 -11.17679,-10.92692 -12.13331,-19.25254 -2.4463,-7.36211 -3.17983,-15.37159 -7.80821,-21.86078 -4.32662,-6.88636 -10.04775,-12.83874 -14.45568,-19.64721 -3.36871,-8.68688 -0.58025,-18.34748 -3.01959,-27.24378 1.86437,-7.70868 -2.41889,-13.37934 -9.4423,-15.97452 -7.08837,-3.02729 -12.301554,-11.26306 -20.592172,-10.56212 -5.973969,0.87871 -11.193919,4.99308 -17.229008,2.55605 -1.119713,4.40548 -7.549687,2.23072 -7.538328,7.29663 -1.122151,0.70971 -2.827981,1.22547 -2.670396,2.91458 z"
       style="opacity:1;vector-effect:none;fill:#ffffff;fill-opacity:1;stroke:#000000;stroke-width:0.82694238px;stroke-linecap:butt;stroke-linejoin:miter;stroke-miterlimit:4;stroke-dasharray:none;stroke-dashoffset:0;stroke-opacity:1" />
    <path
       onclick="pr"
       id="path4064"
       d="m 263.93396,-196.00016 c -0.28221,0.0705 -0.56443,0.1411 -0.84665,0.21166 -0.0706,0.0705 -0.117,0.1801 -0.21166,0.21166 -0.13386,0.0446 -0.28495,-0.0277 -0.42332,0 -0.21878,0.0438 -0.41491,0.17498 -0.63498,0.21166 -0.20879,0.0348 -0.42621,-0.0348 -0.63499,0 -2.10871,0.35145 1.14315,0.0952 -1.48163,0.42332 -0.28003,0.035 -0.57285,-0.0685 -0.84664,0 -2.76466,0.69117 1.55126,0.2682 -2.11662,0.63499 -2.00303,0.2003 0.44561,-0.31069 -1.90495,0.21166 -0.28397,0.0631 -0.56694,0.13174 -0.84664,0.21166 -0.21453,0.0613 -0.41491,0.17498 -0.63499,0.21166 -0.20878,0.0348 -0.43418,-0.0669 -0.63498,0 -0.24133,0.0804 -0.41685,0.29244 -0.63499,0.42332 -0.13528,0.0812 -0.27684,0.15307 -0.42332,0.21166 -0.20715,0.0829 -0.42783,0.1288 -0.63498,0.21167 -0.29296,0.11718 -0.56443,0.28221 -0.84665,0.42332 -0.14111,0.0705 -0.29711,0.117 -0.42332,0.21166 -0.23947,0.1796 -0.38593,0.46894 -0.63499,0.63498 -0.13126,0.0875 -0.29711,0.11701 -0.42332,0.21167 -0.39911,0.29933 -0.66874,0.74665 -1.05831,1.0583 -0.12319,0.0986 -0.29205,0.12415 -0.42332,0.21166 -0.29352,0.19568 -0.55958,0.42994 -0.84664,0.63499 -0.20701,0.14786 -0.43635,0.26441 -0.63499,0.42332 -0.15583,0.12466 -0.2522,0.32065 -0.42332,0.42332 -0.19132,0.11479 -0.46076,0.0723 -0.63498,0.21167 -0.19865,0.15891 -0.24345,0.4551 -0.42333,0.63498 -0.17987,0.17988 -0.42332,0.28221 -0.63498,0.42332 -1.54704,1.03136 0.39817,-0.22753 -1.48163,0.84665 -0.22087,0.12621 -0.41412,0.29711 -0.63499,0.42332 -0.27395,0.15654 -0.57269,0.26678 -0.84664,0.42332 -0.22087,0.12621 -0.40117,0.32312 -0.63498,0.42333 -0.26738,0.11459 -0.56694,0.13174 -0.84665,0.21166 -0.99277,0.28364 -0.35277,0.15118 -1.48163,0.63498 -1.19398,0.51171 -0.0495,-0.11372 -1.48163,0.42332 -0.29544,0.11079 -0.56443,0.28222 -0.84664,0.42333 -0.28222,0.1411 -0.5727,0.26677 -0.84665,0.42332 -0.22087,0.12621 -0.41685,0.29244 -0.63498,0.42332 -0.13529,0.0812 -0.29712,0.117 -0.42333,0.21166 -0.15964,0.11974 -0.26368,0.30359 -0.42332,0.42333 -0.12621,0.0947 -0.28222,0.1411 -0.42332,0.21166 -0.14111,0.0705 -0.28222,0.14111 -0.42333,0.21166 -0.1411,0.0705 -0.28221,0.14111 -0.42332,0.21166 -0.14111,0.0705 -0.27027,0.1734 -0.42332,0.21166 -0.1369,0.0342 -0.28946,-0.0446 -0.42332,0 -0.29934,0.0998 -0.55664,0.29903 -0.84665,0.42332 -0.20507,0.0879 -0.42783,0.1288 -0.63498,0.21167 -0.14648,0.0586 -0.27028,0.17339 -0.42333,0.21166 -0.13689,0.0342 -0.29711,-0.0631 -0.42332,0 -0.17849,0.0892 -0.25728,0.31262 -0.42332,0.42332 -0.0587,0.0391 -0.14322,-0.0171 -0.21166,0 -1.76177,0.44044 0.25549,-0.0146 -1.05831,0.42332 -0.0669,0.0223 -0.14473,-0.0223 -0.21166,0 -1.53315,0.51105 0.3337,-0.061 -0.63499,0.42333 -0.19955,0.0998 -0.42783,0.12879 -0.63498,0.21166 -0.14648,0.0586 -0.27027,0.17339 -0.42332,0.21166 -0.1369,0.0342 -0.28643,-0.0342 -0.42332,0 -0.23981,0.06 -0.95485,0.55221 -1.05831,0.63498 -0.23374,0.18699 -0.38593,0.46894 -0.63499,0.63499 -0.13126,0.0875 -0.31176,0.1001 -0.42332,0.21166 -0.79405,0.79405 -0.13391,0.39021 -0.63498,1.0583 -0.11974,0.15965 -0.29866,0.2675 -0.42333,0.42333 -0.62412,0.78015 -0.2393,0.39883 -0.63498,1.0583 -0.13088,0.21814 -0.34288,0.39366 -0.42332,0.63499 -0.0669,0.2008 0.0348,0.4262 0,0.63498 -0.0367,0.22007 -0.14111,0.42333 -0.21166,0.63499 -0.0706,0.21166 -0.12378,0.42991 -0.21166,0.63498 -0.1243,0.29001 -0.32355,0.54731 -0.42333,0.84665 -0.0446,0.13386 0.0524,0.2923 0,0.42332 -0.0945,0.23619 -0.29244,0.41685 -0.42332,0.63498 -0.0812,0.13528 -0.117,0.29711 -0.21166,0.42333 -0.11974,0.15964 -0.29866,0.26749 -0.42332,0.42332 -0.15892,0.19864 -0.24345,0.4551 -0.42333,0.63498 -0.11155,0.11156 -0.33581,0.0804 -0.42332,0.21166 -0.0783,0.11741 0.0446,0.28946 0,0.42333 -0.0315,0.0947 -0.14111,0.1411 -0.21166,0.21166 0,0.14111 0.0342,0.28643 0,0.42332 -0.0383,0.15305 -0.16178,0.27365 -0.21166,0.42332 -0.0223,0.0669 0.0316,0.14856 0,0.21167 -0.0446,0.0892 -0.18747,0.11486 -0.21166,0.21166 -0.0513,0.20534 0.0415,0.42743 0,0.63498 -0.0309,0.1547 -0.16178,0.27365 -0.21167,0.42332 -0.0446,0.13387 0,0.28222 0,0.42333 0,0.21166 0,0.42332 0,0.63498 0,0.0705 0.0223,0.14473 0,0.21166 -0.0499,0.14967 -0.16177,0.27365 -0.21166,0.42332 -0.0223,0.0669 0.0316,0.14856 0,0.21167 -0.0446,0.0892 -0.15631,0.12864 -0.21166,0.21166 -0.20563,0.30845 -0.13214,0.44086 -0.42332,0.63498 -0.46846,0.3123 -0.48045,0.0857 -0.84665,0.63499 -0.0391,0.0587 0,0.1411 0,0.21166 -0.1411,0.21166 -0.26441,0.43634 -0.42332,0.63498 -0.18699,0.23374 -0.46894,0.38592 -0.63498,0.63498 -0.30364,0.45546 -0.35345,1.0124 -0.63499,1.48163 -0.26176,0.43627 -0.61911,0.81491 -0.84664,1.26997 -0.0316,0.0631 0,0.14111 0,0.21166 0,0.21167 0.0669,0.43419 0,0.63499 -0.0804,0.24133 -0.32885,0.39879 -0.42333,0.63498 -0.0524,0.13102 0.0524,0.29231 0,0.42333 -0.0945,0.23618 -0.32884,0.39879 -0.42332,0.63498 -0.0524,0.13101 0.0524,0.29231 0,0.42332 -0.0945,0.23619 -0.32885,0.3988 -0.42332,0.63499 -0.10481,0.26203 0.0892,0.57891 0,0.84664 -0.0316,0.0947 -0.14111,0.14111 -0.21166,0.21166 -0.0706,0.14111 -0.1734,0.27027 -0.21166,0.42333 -0.0685,0.27378 0.0553,0.56991 0,0.84664 -0.0438,0.21878 -0.16791,0.41621 -0.21167,0.63499 -0.0277,0.13836 0,0.28221 0,0.42332 0,0.56443 0,1.12886 0,1.69329 0,0.21166 0.0348,0.4262 0,0.63498 -0.0367,0.22008 -0.15754,0.41854 -0.21166,0.63499 -0.0171,0.0684 0,0.1411 0,0.21166 0,0.14111 0,0.28221 0,0.42332 0,0.14111 0,0.28222 0,0.42332 0,0.14111 -0.0342,0.28643 0,0.42333 0.0383,0.15305 0.1734,0.27027 0.21166,0.42332 0.0342,0.13689 0,0.28221 0,0.42332 0,0.0706 -0.0316,0.14856 0,0.21166 0.0446,0.0892 0.16704,0.12242 0.21167,0.21167 0.0631,0.1262 -0.0631,0.29711 0,0.42332 0.0446,0.0892 0.16704,0.12241 0.21166,0.21166 0.0316,0.0631 -0.0499,0.16177 0,0.21166 0.0499,0.0499 0.1801,-0.0631 0.21166,0 0.0631,0.12621 -0.0342,0.28643 0,0.42332 0.0383,0.15305 0.16177,0.27366 0.21166,0.42333 0.0223,0.0669 -0.0391,0.15295 0,0.21166 0.11069,0.16604 0.30359,0.26367 0.42332,0.42332 0.0947,0.12621 0.14111,0.28221 0.21166,0.42332 0.14111,0.14111 0.29867,0.2675 0.42333,0.42332 0.38411,0.24747 0.38814,0.72919 0.63498,1.05831 0.23947,0.31929 0.59732,0.53499 0.84665,0.84665 0.98775,1.23469 -0.21166,0.10583 1.0583,1.0583 0.3951,0.29633 0.66321,0.76198 1.05831,1.05831 0.12621,0.0947 0.28222,0.14111 0.42332,0.21166 0.14111,0.0706 0.27366,0.16177 0.42333,0.21166 0.0669,0.0223 0.14855,-0.0316 0.21166,0 0.0892,0.0446 0.12241,0.16704 0.21166,0.21166 0.19956,0.0998 0.44367,0.0969 0.63498,0.21166 0.17112,0.10268 0.25728,0.31263 0.42333,0.42333 0.0587,0.0391 0.14855,-0.0315 0.21166,0 0.0992,0.0496 0.69781,0.41173 0.84664,0.63498 0.31231,0.46846 0.0857,0.48045 0.63499,0.84665 0.0587,0.0391 0.14855,-0.0315 0.21166,0 0.45505,0.22753 0.81491,0.61911 1.26997,0.84664 0.0631,0.0316 0.14321,-0.0171 0.21166,0 0.21645,0.0541 0.42332,0.14111 0.63498,0.21166 0.21166,0.0706 0.42783,0.12881 0.63499,0.21167 0.79201,0.3168 0.0644,0.13805 1.0583,0.63498 0.0631,0.0316 0.14856,-0.0316 0.21166,0 1.22818,0.61409 -0.003,0.29003 1.48163,0.84664 0.54476,0.20429 1.14135,0.23935 1.69329,0.42333 0.36045,0.12015 0.69439,0.31415 1.05831,0.42332 0.34458,0.10338 0.71701,0.0979 1.05831,0.21166 0.29933,0.0998 0.55121,0.31254 0.84664,0.42332 0.27238,0.10215 0.56443,0.14111 0.84665,0.21167 0.28221,0.0705 0.55867,0.17052 0.84664,0.21166 0.20954,0.0299 0.43147,-0.0582 0.63499,0 0.30338,0.0867 0.53725,0.36144 0.84664,0.42332 0.41511,0.083 0.84924,-0.0467 1.26997,0 0.98787,0.10976 0.51262,0.52464 1.69329,0.84665 0.40841,0.11138 0.84665,0 1.26997,0 0.42332,0 0.84665,0 1.26997,0 0.35277,0 0.70699,-0.0319 1.05831,0 0.4274,0.0388 0.84343,0.16426 1.26996,0.21166 0.42074,0.0468 0.84665,0 1.26997,0 0.56443,0 1.12886,0 1.69329,0 0.22627,0 1.25242,0.0458 1.48163,0 0.43756,-0.0875 0.82982,-0.34997 1.26997,-0.42333 0.41756,-0.0696 0.85241,0.0696 1.26997,0 0.22008,-0.0367 0.41412,-0.1801 0.63498,-0.21166 0.27938,-0.0399 0.56443,0 0.84665,0 1.10167,0 0.70341,-0.0553 1.90495,0.21166 0.28397,0.0631 0.55752,0.17954 0.84665,0.21167 0.35061,0.0389 0.70554,0 1.0583,0 0.28222,0 0.56443,0 0.84665,0 0.42332,0 0.84665,0 1.26997,0 0.21166,0 0.42743,0.0415 0.63498,0 0.1547,-0.0309 0.27027,-0.1734 0.42333,-0.21167 0.13689,-0.0342 0.28642,0.0342 0.42332,0 0.3061,-0.0765 0.54054,-0.34679 0.84664,-0.42332 0.1369,-0.0342 0.28946,0.0446 0.42333,0 0.0947,-0.0316 0.12864,-0.15631 0.21166,-0.21166 0.13126,-0.0875 0.27684,-0.15307 0.42332,-0.21166 0.63436,-0.25374 0.77917,-0.22262 1.48163,-0.42332 0.42905,-0.12259 0.84665,-0.28222 1.26997,-0.42333 0.21166,-0.0705 0.43543,-0.11188 0.63498,-0.21166 0.22753,-0.11376 0.41685,-0.29244 0.63499,-0.42332 0.27056,-0.16234 0.58411,-0.2483 0.84664,-0.42332 0.083,-0.0554 0.12864,-0.15632 0.21166,-0.21167 0.13127,-0.0875 0.29206,-0.12414 0.42333,-0.21166 0.083,-0.0553 0.12241,-0.16703 0.21166,-0.21166 0.19955,-0.0998 0.42783,-0.1288 0.63498,-0.21166 0.29296,-0.11718 0.56443,-0.28221 0.84665,-0.42332 0.42332,-0.21166 0.86412,-0.39148 1.26997,-0.63499 0.21813,-0.13088 0.43634,-0.2644 0.63498,-0.42332 0.15583,-0.12466 0.28221,-0.28221 0.42332,-0.42332 0.0706,-0.0706 0.1261,-0.16033 0.21166,-0.21166 0.27056,-0.16234 0.56443,-0.28222 0.84665,-0.42333 0.14111,-0.0705 0.28221,-0.1411 0.42332,-0.21166 0.14111,-0.0705 0.27027,-0.17339 0.42332,-0.21166 0.1369,-0.0342 0.29712,0.0631 0.42333,0 0.17849,-0.0892 0.25728,-0.31262 0.42332,-0.42332 0.0587,-0.0391 0.14856,0.0316 0.21166,0 0.22753,-0.11376 0.40745,-0.30956 0.63499,-0.42332 0.25551,-0.51067 0.73653,-0.0508 1.0583,-0.21167 0.17849,-0.0892 0.24483,-0.33407 0.42332,-0.42332 0.12621,-0.0631 0.29231,0.0524 0.42333,0 0.23619,-0.0945 0.39365,-0.34288 0.63498,-0.42332 0.2008,-0.0669 0.43419,0.0669 0.63499,0 0.24133,-0.0804 0.41685,-0.29244 0.63498,-0.42332 0.92472,-0.55483 -0.15321,0.18243 1.05831,-0.42333 0.66346,-0.33173 1.24149,-0.93823 1.90495,-1.26996 0.19956,-0.0998 0.43543,-0.11189 0.63498,-0.21167 0.22753,-0.11376 0.41685,-0.29244 0.63499,-0.42332 0.40584,-0.2435 0.85904,-0.40017 1.26997,-0.63498 0.0224,-0.0128 1.26091,-0.84277 1.26996,-0.84665 0.26738,-0.11459 0.57427,-0.10952 0.84665,-0.21166 1.48431,-0.55661 0.25345,-0.23255 1.48163,-0.84664 0.19956,-0.0998 0.42608,-0.13333 0.63498,-0.21166 0.35575,-0.13341 0.70256,-0.28992 1.05831,-0.42333 0.2089,-0.0783 0.43543,-0.11188 0.63498,-0.21166 0.36797,-0.18398 0.68237,-0.4679 1.05831,-0.63498 0.004,-0.002 1.67116,-0.417 1.69329,-0.42332 0.42905,-0.12259 0.82982,-0.34997 1.26997,-0.42333 0.41756,-0.0696 0.85487,0.083 1.26997,0 0.1547,-0.0309 0.27365,-0.16177 0.42332,-0.21166 0.27597,-0.092 0.56139,-0.15461 0.84665,-0.21166 0.21166,-0.0423 0.42332,0.0847 0.63498,0 0.23619,-0.0945 0.39365,-0.34288 0.63498,-0.42332 2.07275,-0.69092 -1.22725,1.12461 1.48163,-0.42333 0.44174,-0.25242 0.81491,-0.61911 1.26997,-0.84664 0.19956,-0.0998 0.43543,-0.11189 0.63499,-0.21166 0.22753,-0.11377 0.40745,-0.30956 0.63498,-0.42333 0.19956,-0.0998 0.44367,-0.0969 0.63499,-0.21166 0.17111,-0.10267 0.27001,-0.29557 0.42332,-0.42332 0.49397,-0.41164 0.88701,-0.57961 1.26997,-1.05831 0.15891,-0.19864 0.2644,-0.43634 0.42332,-0.63498 0.31165,-0.38957 0.74665,-0.66874 1.05831,-1.05831 0.0985,-0.12319 0.12415,-0.29206 0.21166,-0.42332 1.12829,-1.69244 0.17421,-0.20906 1.0583,-1.26997 0.22584,-0.271 0.42994,-0.55958 0.63499,-0.84664 0.14786,-0.20701 0.25581,-0.44355 0.42332,-0.63499 0.32852,-0.37545 0.72272,-0.68916 1.05831,-1.0583 0.37067,-0.40774 0.69221,-0.85812 1.0583,-1.26997 0.19887,-0.22373 0.44018,-0.40772 0.63499,-0.63499 0.22958,-0.26784 0.40061,-0.58298 0.63498,-0.84664 0.33145,-0.37288 0.78157,-0.64321 1.05831,-1.05831 0.16136,-0.24205 0.0503,-0.6046 0.21166,-0.84665 0.14111,-0.21166 0.45511,-0.24344 0.63499,-0.42332 0.0499,-0.0499 -0.0223,-0.14473 0,-0.21166 0.0499,-0.14967 0.117,-0.29711 0.21166,-0.42332 0.11949,-0.15933 0.89898,-0.93882 1.0583,-1.05831 0.12621,-0.0947 0.33582,-0.0804 0.42333,-0.21166 0.0783,-0.11741 -0.0342,-0.28643 0,-0.42332 0.0383,-0.15306 0.18072,-0.26863 0.21166,-0.42333 0.0415,-0.20755 0,-0.42332 0,-0.63498 0,-0.0706 -0.0316,-0.14856 0,-0.21166 0.98715,-1.9743 0.0519,0.58724 0.42332,-1.26997 0.0309,-0.1547 0.15307,-0.27684 0.21166,-0.42332 0.85226,-2.13064 -0.16527,0.4494 0.21166,-1.05831 0.34546,-1.38185 0.11366,0.79969 0.42333,-1.05831 0.0348,-0.20878 -0.0348,-0.4262 0,-0.63498 0.0367,-0.22008 0.17498,-0.41491 0.21166,-0.63498 0.058,-0.34797 -0.0692,-0.71239 0,-1.05831 0.0437,-0.21878 0.1679,-0.41621 0.21166,-0.63499 0.0277,-0.13836 -0.0342,-0.28643 0,-0.42332 0.0383,-0.15305 0.1734,-0.27027 0.21166,-0.42332 0.0342,-0.1369 0,-0.28222 0,-0.42332 0,-0.21166 0,-0.42333 0,-0.63499 0,-0.63498 0,-1.26997 0,-1.90495 0,-0.49388 0,-0.98775 0,-1.48163 0,-0.21166 0.0415,-0.42743 0,-0.63498 -0.0309,-0.15471 -0.15307,-0.27685 -0.21166,-0.42333 -0.70199,-2.10597 0.19955,0.49889 -0.42332,-1.0583 -0.0829,-0.20716 -0.16791,-0.41621 -0.21167,-0.63499 -0.0277,-0.13837 0.0631,-0.29711 0,-0.42332 -0.0892,-0.17849 -0.30359,-0.26368 -0.42332,-0.42332 -0.18932,-0.25243 -0.2483,-0.58412 -0.42332,-0.84665 -0.11069,-0.16604 -0.28222,-0.28221 -0.42332,-0.42332 -0.21167,-0.21166 -0.40125,-0.44799 -0.63499,-0.63499 -0.27547,-0.22037 -0.57564,-0.40914 -0.84664,-0.63498 -0.15331,-0.12775 -0.26094,-0.30733 -0.42333,-0.42332 -1.91586,-1.36848 -0.18523,0.0147 -2.11661,-1.05831 -0.30838,-0.17132 -0.5475,-0.44802 -0.84665,-0.63498 -0.26756,-0.16723 -0.56443,-0.28222 -0.84664,-0.42333 -0.70554,-0.35276 -1.41108,-0.70553 -2.11661,-1.0583 -0.28222,-0.14111 -0.56444,-0.28222 -0.84665,-0.42333 -0.14111,-0.0705 -0.29206,-0.12415 -0.42332,-0.21166 -0.083,-0.0553 -0.12865,-0.15631 -0.21166,-0.21166 -0.13127,-0.0875 -0.28805,-0.13049 -0.42333,-0.21166 -0.21813,-0.13088 -0.40745,-0.30956 -0.63498,-0.42332 -0.19956,-0.0998 -0.42991,-0.12378 -0.63499,-0.21166 -1.86319,-0.79852 0.26119,-0.059 -1.90495,-0.84665 -0.41935,-0.15249 -0.85736,-0.25342 -1.26997,-0.42332 -0.78829,-0.3246 -1.53438,-0.74766 -2.32827,-1.05831 -0.83108,-0.32521 -1.69659,-0.55472 -2.53994,-0.84664 -0.99115,-0.3431 -1.9755,-0.70554 -2.96326,-1.05831 -0.98775,-0.35277 -1.9721,-0.71522 -2.96326,-1.05831 -0.84334,-0.29193 -1.70431,-0.53329 -2.53993,-0.84664 -0.8588,-0.32205 -1.69103,-0.71103 -2.53994,-1.05831 -0.70331,-0.28772 -1.42366,-0.53482 -2.11661,-0.84665 -1.37176,-0.61729 -3.02757,-1.62055 -4.44489,-2.11661 -0.61396,-0.21489 -1.26997,-0.28221 -1.90495,-0.42332 -4.33117,-0.96248 0.22159,-0.0953 -3.38659,-0.42332 -0.2897,-0.0263 -0.5597,-0.16384 -0.84664,-0.21167 -0.13919,-0.0232 -0.28222,0 -0.42332,0 -0.49388,0 -0.98776,0 -1.48163,0 -0.42333,0 -0.84665,0 -1.26997,0 -0.0953,0 -0.57057,-0.0322 -0.63499,0 -0.0892,0.0446 -0.12241,0.16704 -0.21166,0.21167 -0.0631,0.0316 -0.14855,-0.0316 -0.21166,0 -0.0892,0.0446 -0.12242,0.16703 -0.21166,0.21166 -0.0631,0.0316 -0.14856,-0.0316 -0.21166,0 -0.0892,0.0446 -0.14111,0.1411 -0.21166,0.21166 -0.0706,0.0705 -0.16704,0.12241 -0.21166,0.21166 -0.0316,0.0631 0.0315,0.14855 0,0.21166 -0.44045,0.88088 0.0146,-0.22627 -0.42333,0.21166 -0.0499,0.0499 0.0315,0.14856 0,0.21166 -0.0753,0.15052 -0.34806,0.27281 -0.42332,0.42333 -0.0316,0.0631 0,0.1411 0,0.21166 0,0.0705 0,0.14111 0,0.21166 0,0.35277 0,0.70554 0,1.05831 z"
       style="fill:#ffffff;stroke:none;stroke-width:0.26458332px;stroke-linecap:butt;stroke-linejoin:miter;stroke-opacity:1" />
  </g>
</svg>
