<?xml version="1.0" standalone="no"?>
<!DOCTYPE svg PUBLIC "-//W3C//DTD SVG 20010904//EN"
 "http://www.w3.org/TR/2001/REC-SVG-20010904/DTD/svg10.dtd">
<svg version="1.0" xmlns="http://www.w3.org/2000/svg"
 width="1004.000000pt" height="56.000000pt" viewBox="0 0 1004.000000 56.000000"
 preserveAspectRatio="xMidYMid meet">

<g transform="translate(0.000000,56.000000) scale(0.100000,-0.100000)"
fill="#000000" stroke="none">
<path d="M3270 515 c-6 -8 -25 -80 -41 -161 -16 -81 -31 -149 -33 -152 -12
-11 -29 50 -40 144 -12 98 -22 123 -48 124 -26 0 -52 -65 -79 -197 -7 -35 -16
-63 -20 -63 -16 0 -25 171 -9 199 20 38 -38 79 -68 49 -15 -15 -16 -139 -2
-222 30 -187 126 -209 155 -35 l8 44 22 -52 c42 -93 108 -106 141 -27 21 51
75 324 68 346 -7 22 -37 24 -54 3z"/>
<path d="M6913 478 c-33 -16 -29 -51 8 -83 36 -30 60 -29 74 3 8 19 35 32 35
16 0 -3 -19 -33 -42 -66 -30 -45 -43 -75 -46 -109 -4 -43 -2 -49 24 -65 21
-15 45 -19 104 -18 79 1 120 15 120 38 0 28 -29 39 -93 34 -102 -9 -106 -2
-46 85 51 72 61 125 30 156 -17 17 -33 21 -83 20 -35 0 -73 -5 -85 -11z"/>
<path d="M3605 469 c-4 -5 -9 -49 -11 -97 -12 -285 -11 -292 26 -292 25 0 29
8 36 79 l7 61 41 11 c23 6 45 13 50 16 4 3 5 -21 1 -55 -6 -56 -5 -61 15 -72
34 -18 47 3 59 93 16 118 14 222 -5 241 -38 39 -59 13 -56 -67 3 -57 3 -58
-32 -72 -62 -26 -66 -23 -66 49 0 79 -13 116 -39 116 -11 0 -23 -5 -26 -11z"/>
<path d="M5588 463 c-26 -30 -35 -55 -53 -143 -20 -97 -16 -171 10 -200 22
-24 38 -25 59 -4 14 14 14 18 1 44 -21 40 -19 50 9 50 20 0 25 -6 30 -45 9
-58 38 -94 63 -79 19 12 20 32 8 98 -7 31 -5 40 8 48 25 13 21 47 -6 57 -20 8
-26 21 -35 76 -17 103 -55 142 -94 98z m28 -181 c-12 -12 -18 8 -10 35 l8 28
4 -28 c2 -16 1 -31 -2 -35z"/>
<path d="M7638 471 c-49 -10 -70 -29 -66 -60 2 -19 10 -27 27 -29 13 -2 26 1
30 6 6 9 39 16 69 13 17 -1 15 -26 -5 -42 -9 -8 -38 -40 -65 -72 -37 -45 -48
-66 -48 -93 0 -63 50 -91 147 -81 67 7 105 30 101 60 -3 19 -8 22 -43 19 -85
-8 -128 -7 -132 3 -2 6 26 43 61 83 69 78 82 112 60 154 -12 23 -70 52 -94 47
-3 -1 -22 -5 -42 -8z"/>
<path d="M4023 461 c-78 -13 -83 -24 -83 -183 0 -77 5 -148 10 -159 11 -20 45
-26 55 -9 3 6 26 10 50 10 58 0 95 15 95 39 0 28 -23 42 -58 35 -49 -10 -84 3
-80 29 3 18 11 23 55 28 69 9 83 15 83 37 0 33 -20 42 -82 35 l-58 -6 0 36 0
35 68 7 c37 3 76 7 86 8 28 3 43 32 27 51 -14 17 -87 20 -168 7z"/>
<path d="M5234 455 c-37 -25 -47 -67 -41 -173 3 -53 10 -114 17 -134 13 -46
45 -67 67 -45 13 13 13 22 0 73 -8 33 -14 60 -12 61 1 2 26 7 56 13 66 12 104
48 94 89 -24 96 -121 159 -181 116z m85 -81 c26 -33 27 -54 4 -54 -10 0 -28
-3 -40 -6 -20 -6 -23 -3 -23 24 0 66 24 80 59 36z"/>
<path d="M4612 448 c-15 -15 -15 -112 0 -196 10 -52 10 -66 0 -70 -16 -5 -42
-31 -42 -42 0 -40 105 -54 180 -24 78 31 90 102 35 212 -54 107 -132 161 -173
120z m119 -170 c14 -29 19 -55 15 -71 -7 -30 -43 -43 -50 -18 -10 32 -26 135
-26 160 l0 26 20 -25 c10 -14 29 -46 41 -72z"/>
<path d="M1741 424 c-34 -43 -120 -326 -121 -396 0 -25 3 -28 35 -28 28 0 35
4 35 20 0 10 5 42 11 70 8 38 14 49 22 41 18 -18 54 -12 69 11 18 27 48 18 48
-15 0 -37 20 -85 37 -92 9 -3 23 1 31 9 13 13 13 28 -2 123 -31 199 -41 237
-71 266 -25 26 -70 21 -94 -9z m62 -78 c3 -7 8 -34 12 -59 7 -46 7 -46 -30
-62 -21 -8 -41 -13 -44 -10 -6 7 41 145 50 145 4 0 9 -6 12 -14z"/>
<path d="M5965 428 c-82 -64 -86 -214 -6 -261 67 -38 176 -24 176 23 0 24 -3
25 -63 26 -74 2 -102 20 -102 68 0 28 32 96 45 96 3 0 14 -9 25 -20 27 -27 60
-11 60 29 0 59 -80 82 -135 39z"/>
<path d="M6498 444 c-3 -3 -59 -8 -124 -12 l-119 -7 -2 -85 c-2 -150 29 -185
155 -178 100 6 175 37 170 70 -4 30 -29 34 -93 13 -64 -20 -149 -17 -153 5 -2
12 10 15 50 17 82 2 132 23 136 54 4 33 -19 43 -62 29 -17 -5 -52 -14 -78 -19
-43 -8 -48 -7 -48 10 0 16 8 19 58 20 120 2 194 35 163 73 -13 16 -42 21 -53
10z"/>
<path d="M7991 432 c-19 -9 -38 -24 -42 -32 -13 -29 -39 -127 -39 -151 0 -80
126 -129 207 -79 76 46 96 170 37 231 -26 27 -77 49 -114 49 -8 0 -30 -8 -49
-18z m112 -80 c21 -18 22 -53 2 -91 -21 -43 -72 -55 -110 -27 -17 12 -18 18
-7 53 7 22 23 52 36 66 26 28 45 28 79 -1z"/>
<path d="M2472 420 c-18 -4 -42 -5 -53 -3 -12 3 -29 -3 -42 -15 -12 -11 -36
-27 -53 -35 -41 -21 -57 -42 -49 -67 8 -24 47 -27 65 -5 24 29 38 17 45 -39 8
-60 0 -109 -21 -143 -18 -28 -34 -30 -27 -3 11 43 -55 71 -76 31 -13 -23 2
-82 27 -104 35 -32 67 -31 106 3 50 45 71 117 62 221 l-7 77 48 14 c50 14 65
36 43 63 -14 16 -19 17 -68 5z"/>
<path d="M2714 419 c-53 -26 -87 -149 -73 -266 12 -94 33 -124 74 -105 28 13
33 43 10 62 -9 7 -15 29 -15 54 1 40 2 41 60 68 100 45 118 123 41 175 -36 25
-63 28 -97 12z m76 -84 c0 -2 -10 -13 -22 -25 -41 -38 -64 -18 -32 28 12 18
19 20 35 12 10 -6 19 -13 19 -15z"/>
<path d="M4931 413 c-37 -18 -71 -66 -71 -99 0 -21 45 -69 100 -106 21 -14 23
-19 10 -27 -9 -7 -18 -7 -24 -1 -14 14 -50 12 -64 -2 -37 -37 13 -85 78 -74
58 9 90 26 96 53 11 42 -5 72 -61 114 -59 45 -64 55 -37 75 26 20 41 17 52
-11 11 -29 54 -35 64 -9 11 29 6 45 -23 75 -34 33 -69 37 -120 12z"/>
<path d="M7325 423 c-6 -4 -27 -33 -48 -64 -47 -68 -59 -130 -32 -159 47 -52
153 -46 206 12 55 58 47 149 -16 188 -38 23 -94 35 -110 23z m90 -103 c12 -19
-8 -61 -37 -76 -31 -16 -78 -12 -78 7 0 29 35 68 64 72 17 2 34 5 38 5 4 1 9
-2 13 -8z"/>
<path d="M4329 385 c-38 -20 -81 -127 -83 -202 -1 -52 1 -58 21 -61 12 -2 27
5 35 15 18 26 84 29 110 6 15 -13 23 -15 36 -7 22 14 28 71 9 92 -8 10 -20 41
-27 71 -12 49 -46 102 -67 101 -4 -1 -20 -7 -34 -15z m35 -107 c10 -39 7 -48
-18 -48 -23 0 -24 2 -13 35 12 40 22 44 31 13z"/>
</g>
</svg>
