<?xml version="1.0" standalone="no"?>
<!DOCTYPE svg PUBLIC "-//W3C//DTD SVG 20010904//EN"
 "http://www.w3.org/TR/2001/REC-SVG-20010904/DTD/svg10.dtd">
<svg version="1.0" xmlns="http://www.w3.org/2000/svg"
 width="1004.000000pt" height="72.000000pt" viewBox="0 0 1004.000000 72.000000"
 preserveAspectRatio="xMidYMid meet">

<g transform="translate(0.000000,72.000000) scale(0.100000,-0.100000)"
fill="#000000" stroke="none">
<path d="M8710 695 c5 -13 34 -65 64 -115 66 -110 93 -178 108 -275 10 -67 9
-78 -10 -129 -19 -50 -20 -57 -6 -71 20 -20 27 -19 48 4 46 50 56 138 30 254
-21 91 -42 139 -112 259 -56 96 -58 98 -94 98 -36 0 -37 -1 -28 -25z"/>
<path d="M3130 619 c-9 -15 -7 -54 6 -153 9 -74 14 -141 11 -150 -19 -48 -86
15 -111 103 -20 71 -45 92 -74 63 -22 -22 -86 -274 -78 -307 7 -28 35 -41 51
-23 7 7 19 49 28 92 19 90 24 99 40 71 35 -64 111 -98 166 -75 54 22 61 71 36
243 -7 54 -11 105 -8 113 7 19 -15 44 -38 44 -10 0 -23 -9 -29 -21z"/>
<path d="M5627 590 c-41 -32 -50 -85 -43 -238 8 -146 10 -158 33 -166 29 -12
43 14 43 79 0 62 0 63 31 69 17 3 47 6 65 6 29 0 34 -3 34 -24 0 -12 5 -37 11
-55 9 -26 16 -32 37 -29 l25 3 1 159 c2 129 -1 159 -12 164 -28 10 -47 -14
-57 -76 -5 -33 -12 -63 -15 -65 -3 -2 -33 -7 -67 -10 l-63 -7 0 34 c0 68 11
97 42 108 24 8 29 15 26 37 -4 35 -52 41 -91 11z"/>
<path d="M8500 605 c-8 -2 -32 -6 -52 -10 -47 -7 -71 -31 -64 -61 3 -12 2 -25
-3 -28 -5 -4 -10 -41 -10 -85 0 -71 2 -80 25 -102 22 -20 36 -24 92 -24 99 0
152 28 135 71 -4 12 -14 14 -42 9 -96 -17 -131 -17 -137 -1 -3 9 -3 27 0 40 5
20 14 24 66 30 53 6 90 24 90 44 -1 27 -20 34 -73 28 -33 -4 -58 -3 -61 3 -4
5 21 12 61 16 97 9 95 8 106 27 19 29 -8 48 -67 47 -28 -1 -58 -3 -66 -4z"/>
<path d="M3692 565 c-40 -34 -62 -101 -69 -210 -7 -117 16 -184 91 -261 54
-56 96 -75 121 -54 24 20 18 38 -22 64 -106 67 -143 170 -112 318 15 70 33 98
59 91 20 -5 50 12 50 28 0 18 -41 49 -64 49 -14 0 -38 -11 -54 -25z"/>
<path d="M4386 577 c-25 -19 -17 -48 21 -70 25 -14 36 -16 52 -7 31 16 25 46
-13 69 -39 25 -37 25 -60 8z"/>
<path d="M8014 575 c-17 -12 -19 -27 -19 -137 0 -129 10 -169 48 -192 15 -9
23 -6 42 17 24 27 26 27 54 12 38 -19 160 -20 185 -2 10 7 17 22 14 33 -3 16
-13 19 -68 22 -126 5 -131 13 -80 121 35 74 36 114 3 119 -28 4 -56 -27 -99
-108 l-35 -65 5 87 c4 78 3 89 -13 98 -13 6 -24 5 -37 -5z"/>
<path d="M6271 561 c-25 -25 -49 -104 -63 -208 -14 -97 -4 -133 36 -133 30 0
51 32 38 58 -10 18 -6 91 7 138 l8 29 8 -30 c13 -52 55 -133 72 -139 37 -15
73 27 73 85 0 11 5 19 10 19 6 0 10 -7 10 -15 0 -9 9 -34 20 -55 16 -31 26
-40 46 -40 33 0 40 23 20 68 -9 20 -25 75 -35 122 -20 86 -37 112 -71 103 -20
-5 -33 -32 -51 -108 -14 -55 -15 -54 -45 48 -15 49 -35 77 -58 77 -3 0 -15 -9
-25 -19z"/>
<path d="M6636 549 c-28 -32 -28 -36 -23 -119 3 -52 13 -107 27 -142 19 -52
25 -59 61 -68 58 -16 159 -9 172 12 20 30 -8 48 -77 48 -55 0 -62 3 -72 24
-11 23 -9 24 46 35 62 12 84 29 78 58 -3 15 -12 17 -48 14 -25 -2 -61 -4 -80
-5 l-35 -1 0 50 0 50 87 0 c89 0 113 9 103 38 -9 23 -30 28 -126 34 l-85 6
-28 -34z"/>
<path d="M7376 565 c-10 -27 -5 -195 7 -254 13 -57 33 -79 62 -67 15 5 17 14
12 55 -6 48 -5 49 25 55 47 9 48 8 48 -29 0 -20 7 -52 15 -71 12 -30 19 -35
42 -32 30 3 30 -2 16 112 -3 27 0 67 6 88 15 47 -2 114 -33 130 -29 16 -56
-21 -56 -78 0 -40 -2 -44 -25 -45 -14 -1 -31 -2 -37 -3 -9 -1 -15 23 -18 74
-5 72 -6 75 -31 78 -17 2 -29 -3 -33 -13z"/>
<path d="M7782 573 c-20 -8 -51 -77 -83 -182 -33 -109 -35 -133 -14 -151 18
-15 42 1 55 36 6 15 20 23 47 27 21 4 39 3 41 -1 1 -4 11 -22 22 -39 21 -35
55 -44 78 -21 16 16 15 21 -8 48 -19 22 -19 22 3 41 18 14 20 21 11 36 -6 10
-20 19 -31 21 -16 2 -23 18 -37 81 -19 93 -42 121 -84 104z m28 -169 c0 -20
-26 -41 -37 -30 -3 3 0 21 7 42 9 26 15 33 21 23 5 -8 9 -24 9 -35z"/>
<path d="M7062 544 c-36 -25 -28 -59 28 -118 28 -29 50 -58 50 -64 0 -21 -51
-26 -80 -8 -53 30 -98 11 -86 -37 16 -67 186 -62 231 7 22 34 8 77 -42 128
l-37 38 75 0 c91 0 119 18 83 54 -22 23 -190 23 -222 0z"/>
<path d="M1945 515 c-5 -2 -21 -6 -35 -9 -41 -9 -70 -42 -70 -81 0 -36 35 -79
90 -112 17 -9 30 -20 30 -24 0 -18 -38 -34 -79 -34 -44 0 -46 -1 -46 -30 0
-63 85 -67 156 -8 65 55 58 94 -29 163 -63 49 -59 60 20 68 29 2 59 9 66 14
17 14 15 45 -4 52 -16 6 -81 7 -99 1z"/>
<path d="M4663 505 c-93 -15 -103 -19 -103 -45 0 -27 27 -39 72 -33 l38 6 0
-90 c0 -116 13 -155 49 -151 l26 3 -4 96 c-4 126 3 157 36 161 30 3 49 28 40
52 -8 19 -37 19 -154 1z"/>
<path d="M6054 506 c-17 -8 -41 -26 -53 -41 -29 -38 -54 -128 -46 -165 11 -50
67 -76 97 -46 8 7 28 17 46 21 49 10 82 57 82 116 0 64 -21 104 -61 118 -18 6
-32 11 -33 11 -1 -1 -15 -7 -32 -14z m54 -104 c2 -18 -2 -40 -8 -47 -10 -12
-15 -12 -36 3 -28 20 -29 30 -8 60 22 33 48 24 52 -16z"/>
<path d="M4231 493 c-5 -10 -12 -39 -15 -65 -3 -27 -9 -68 -12 -93 -3 -25 -9
-43 -14 -40 -5 3 -18 36 -31 73 -21 65 -43 102 -61 102 -26 0 -45 -42 -58
-129 -7 -50 -16 -94 -20 -96 -12 -7 -39 69 -44 122 -6 59 -38 82 -66 48 -15
-18 -6 -88 21 -162 20 -51 67 -103 94 -103 29 0 57 37 69 90 l12 54 23 -37
c31 -50 69 -70 102 -54 19 10 26 25 36 77 19 109 30 204 26 218 -7 18 -51 15
-62 -5z"/>
<path d="M5070 495 c-9 -11 -11 -32 -6 -70 3 -29 2 -56 -2 -59 -5 -3 -27 -8
-50 -12 l-41 -6 -3 67 c-3 71 -18 95 -52 82 -14 -5 -16 -25 -16 -136 0 -149
10 -184 49 -179 24 3 26 6 24 51 -3 43 -1 47 21 47 13 0 37 3 53 6 28 6 30 4
36 -31 7 -44 23 -65 49 -65 26 0 32 21 20 73 -7 37 -6 47 9 66 14 17 16 27 9
42 -6 10 -16 19 -22 19 -7 0 -9 14 -5 39 8 64 -39 107 -73 66z"/>
<path d="M1686 478 c-3 -13 -7 -73 -8 -135 -2 -61 -7 -115 -11 -120 -13 -12
-54 44 -78 107 -27 69 -50 94 -77 86 -32 -10 -47 -61 -62 -207 -10 -102 -1
-132 38 -127 26 3 27 5 30 73 1 39 5 81 7 94 6 21 8 20 37 -23 52 -79 121 -98
162 -43 19 26 21 42 21 170 l0 142 -27 3 c-22 3 -28 -2 -32 -20z"/>
<path d="M4425 443 c-14 -14 -16 -30 -13 -92 7 -97 22 -133 57 -129 22 3 26 7
23 33 -1 17 -4 65 -6 107 -2 42 -7 82 -11 87 -9 16 -31 13 -50 -6z"/>
<path d="M2246 433 c-86 -13 -133 -112 -91 -192 17 -35 88 -71 136 -71 54 0
120 39 142 83 17 33 18 44 8 77 -6 21 -25 50 -41 64 -28 23 -91 48 -115 44 -5
0 -23 -3 -39 -5z m14 -83 c14 -7 25 -7 39 2 29 18 71 -13 71 -52 0 -54 -84
-79 -134 -39 -28 22 -33 48 -14 79 15 23 14 23 38 10z"/>
<path d="M2553 410 c-63 -38 -84 -131 -41 -185 58 -73 231 -90 204 -19 -4 11
6 30 29 55 21 24 35 49 35 65 0 35 -28 80 -57 93 -40 18 -134 13 -170 -9z
m147 -65 c11 -13 9 -20 -10 -40 -25 -26 -92 -50 -116 -41 -21 8 -17 53 6 76
25 25 101 28 120 5z"/>
<path d="M671 406 c-6 -7 -16 -43 -21 -78 -6 -34 -20 -102 -31 -150 -23 -96
-17 -128 25 -128 26 0 36 16 36 58 0 15 8 58 18 96 l18 70 27 -47 c61 -104
127 -93 127 19 0 45 16 36 24 -13 21 -116 57 -166 94 -129 13 12 13 20 4 40
-6 14 -21 65 -32 114 -25 106 -50 152 -83 152 -13 0 -31 -8 -39 -17 -15 -18
-20 -29 -33 -88 -6 -29 -7 -28 -43 40 -38 72 -66 91 -91 61z"/>
<path d="M1142 365 c-31 -39 -46 -92 -46 -162 -1 -54 3 -66 24 -87 34 -34 70
-38 120 -14 77 38 119 140 86 210 -20 41 -56 64 -117 73 -42 6 -48 4 -67 -20z
m113 -75 c35 -38 -13 -130 -68 -130 -24 0 -31 22 -23 75 11 71 53 97 91 55z"/>
</g>
</svg>
