<?xml version="1.0" standalone="no"?>
<!DOCTYPE svg PUBLIC "-//W3C//DTD SVG 20010904//EN"
 "http://www.w3.org/TR/2001/REC-SVG-20010904/DTD/svg10.dtd">
<svg version="1.0" xmlns="http://www.w3.org/2000/svg"
 width="1004.000000pt" height="64.000000pt" viewBox="0 0 1004.000000 64.000000"
 preserveAspectRatio="xMidYMid meet">

<g transform="translate(0.000000,64.000000) scale(0.100000,-0.100000)"
fill="#000000" stroke="none">
<path d="M7284 559 c-13 -15 -19 -40 -22 -92 -5 -108 -10 -111 -51 -27 -54
112 -94 105 -132 -23 -43 -140 3 -242 81 -179 24 20 19 48 -11 57 -20 7 -24
37 -10 85 6 23 8 22 33 -20 39 -66 65 -90 98 -90 39 0 47 17 55 130 4 52 14
107 21 122 12 23 12 29 -2 42 -21 21 -37 20 -60 -5z"/>
<path d="M7553 552 c-18 -10 -49 -32 -68 -51 -27 -26 -35 -40 -35 -69 0 -30 8
-43 50 -83 28 -26 50 -50 50 -53 0 -3 -18 -6 -40 -6 -39 0 -45 -6 -40 -40 3
-23 20 -30 75 -30 63 0 95 20 95 61 0 22 -14 42 -62 89 l-61 60 23 25 c13 14
37 29 54 33 38 10 55 36 40 60 -15 23 -43 25 -81 4z"/>
<path d="M6830 533 c-65 -10 -108 -34 -119 -65 -17 -48 -13 -138 7 -177 28
-56 64 -76 135 -76 77 0 122 20 122 55 0 28 -16 30 -107 15 -42 -7 -49 -5 -72
18 -34 34 -33 44 8 45 51 2 130 22 138 35 23 36 -10 60 -68 47 -21 -4 -54 -11
-73 -14 l-34 -6 25 24 c17 18 40 27 79 32 61 7 84 26 68 55 -10 19 -44 23
-109 12z"/>
<path d="M6426 510 c-44 -14 -66 -39 -64 -74 1 -17 -4 -58 -12 -91 -17 -77 -6
-113 41 -138 44 -23 123 -17 187 15 58 29 73 51 49 75 -16 16 -19 16 -60 -4
-63 -30 -130 -39 -146 -19 -20 24 -6 44 36 51 97 17 129 39 102 71 -10 12 -24
14 -71 9 -54 -7 -58 -6 -58 14 0 21 21 28 104 33 42 3 63 24 53 52 -5 13 -20
16 -69 15 -35 0 -76 -5 -92 -9z"/>
<path d="M3877 459 c-33 -29 -47 -94 -47 -214 0 -57 4 -86 14 -94 13 -11 120
-4 254 15 49 7 69 31 48 59 -12 17 -20 17 -108 5 -109 -14 -138 -6 -138 36 0
21 3 23 19 15 21 -12 195 21 218 41 17 14 16 33 -2 48 -13 11 -32 10 -103 -4
-48 -10 -95 -20 -105 -23 -16 -4 -18 0 -15 29 3 33 3 33 60 36 31 2 88 -1 125
-6 77 -11 106 -2 101 31 -4 28 -39 37 -178 44 -112 6 -117 5 -143 -18z"/>
<path d="M4720 470 c-100 -16 -151 -48 -136 -85 5 -14 14 -16 40 -12 l33 5 7
-61 c3 -34 11 -79 17 -100 11 -41 47 -71 73 -61 20 8 21 32 1 70 -8 17 -17 61
-21 100 l-6 70 43 9 c35 8 45 15 47 34 6 39 -12 45 -98 31z"/>
<path d="M5735 466 c-107 -47 -128 -219 -38 -313 19 -21 39 -48 44 -60 5 -13
17 -23 28 -23 21 0 43 30 39 51 -2 6 18 17 44 23 89 24 128 71 128 153 -1 130
-131 219 -245 169z m123 -72 c48 -33 66 -109 36 -152 -18 -26 -39 -30 -30 -6
4 9 1 23 -5 30 -13 16 -65 19 -74 4 -3 -5 -22 -10 -41 -10 -31 0 -34 2 -34 30
0 40 24 95 47 109 27 15 75 13 101 -5z"/>
<path d="M3605 460 c-3 -6 1 -13 10 -16 19 -8 30 0 20 15 -8 14 -22 14 -30 1z"/>
<path d="M4406 454 c-17 -17 -19 -31 -16 -144 1 -67 0 -73 -13 -55 -7 11 -24
47 -37 80 -30 76 -37 85 -65 85 -32 0 -39 -12 -73 -122 -17 -54 -40 -115 -52
-136 -26 -46 -23 -76 7 -80 28 -4 60 43 94 136 l26 74 22 -43 c49 -96 114
-134 145 -86 16 24 26 272 12 295 -10 17 -31 15 -50 -4z"/>
<path d="M2505 440 c-11 -12 -19 -42 -22 -85 -3 -36 -9 -65 -13 -65 -3 0 -14
16 -23 35 -9 18 -28 42 -42 51 -23 15 -27 15 -50 0 -27 -18 -65 -124 -65 -185
0 -65 48 -104 81 -65 10 12 10 20 1 35 -15 23 -15 43 -1 93 l11 39 29 -53 c39
-72 47 -80 79 -80 41 0 50 19 56 111 3 46 10 104 16 127 9 36 8 46 -3 53 -21
13 -34 11 -54 -11z"/>
<path d="M2800 440 c-114 -20 -144 -34 -138 -66 2 -14 14 -20 44 -22 l40 -3
12 -86 c12 -93 24 -116 56 -111 24 3 26 23 12 145 l-8 72 34 9 c35 9 47 34 28
57 -13 16 -13 16 -80 5z"/>
<path d="M1714 417 c-131 -47 -147 -84 -56 -127 49 -24 92 -69 92 -97 0 -24
-71 -15 -112 14 -36 24 -40 25 -55 11 -44 -45 36 -108 136 -108 92 0 124 57
80 147 -11 24 -32 52 -46 63 -15 11 -24 22 -22 24 2 3 27 13 54 23 41 15 51
23 53 46 3 25 1 27 -30 26 -18 0 -60 -10 -94 -22z"/>
<path d="M3032 428 c6 -18 28 -21 28 -4 0 9 -7 16 -16 16 -9 0 -14 -5 -12 -12z"/>
<path d="M4925 406 c-17 -19 -39 -59 -49 -91 -16 -50 -17 -60 -4 -93 11 -29
22 -40 55 -51 37 -13 45 -13 88 3 57 22 85 63 85 124 0 51 -19 92 -56 121 -40
32 -81 27 -119 -13z m89 -58 c32 -45 14 -101 -35 -113 -51 -13 -57 41 -11 113
18 28 27 28 46 0z"/>
<path d="M6062 408 c-30 -30 -6 -156 38 -200 69 -68 144 -15 180 128 15 58 9
84 -18 84 -26 0 -37 -15 -55 -80 -9 -30 -23 -64 -31 -75 -14 -19 -16 -19 -33
-2 -13 13 -18 33 -18 75 0 31 -4 63 -8 70 -10 15 -39 16 -55 0z"/>
<path d="M3181 397 c-18 -22 -53 -177 -54 -242 l-2 -60 30 0 c29 0 30 2 36 52
11 85 15 90 48 54 43 -46 83 -37 105 24 7 18 9 16 26 -15 28 -54 54 -74 79
-60 26 14 26 30 1 63 -12 15 -28 59 -36 99 -17 79 -27 98 -55 98 -22 0 -42
-29 -59 -85 -22 -71 -30 -68 -50 21 -14 61 -42 82 -69 51z"/>
<path d="M2045 376 c-67 -17 -131 -51 -151 -81 -12 -18 -14 -38 -10 -77 3 -29
6 -65 6 -80 0 -43 28 -51 152 -46 114 6 141 16 136 52 -2 15 -12 22 -38 26
l-35 6 33 7 c29 6 33 10 30 34 -3 28 -4 28 -67 25 -49 -2 -68 1 -82 14 -16 14
-24 15 -45 6 -14 -7 -23 -8 -20 -3 10 16 74 41 137 54 68 14 92 35 70 61 -16
19 -47 19 -116 2z m52 -212 c-3 -3 -12 -4 -19 -1 -8 3 -5 6 6 6 11 1 17 -2 13
-5z"/>
<path d="M3609 353 c-8 -9 -15 -47 -17 -93 -4 -84 10 -114 51 -108 20 3 21 9
22 98 0 52 -4 101 -8 108 -13 17 -32 15 -48 -5z"/>
<path d="M2990 291 c-15 -28 -12 -96 5 -137 12 -30 19 -35 42 -32 25 3 28 7
25 33 -2 17 -5 53 -7 80 -1 28 -3 56 -4 63 -2 19 -49 14 -61 -7z"/>
</g>
</svg>
