<?xml version="1.0" standalone="no"?>
<!DOCTYPE svg PUBLIC "-//W3C//DTD SVG 20010904//EN"
 "http://www.w3.org/TR/2001/REC-SVG-20010904/DTD/svg10.dtd">
<svg version="1.0" xmlns="http://www.w3.org/2000/svg"
 width="1004.000000pt" height="44.000000pt" viewBox="0 0 1004.000000 44.000000"
 preserveAspectRatio="xMidYMid meet">

<g transform="translate(0.000000,44.000000) scale(0.100000,-0.100000)"
fill="#000000" stroke="none">
<path d="M3601 403 c-22 -82 -33 -177 -29 -244 3 -59 8 -73 31 -97 23 -22 35
-27 75 -25 26 1 74 10 107 20 51 16 60 22 63 45 4 36 -13 39 -104 17 -75 -18
-80 -18 -92 -1 -18 22 -9 170 13 237 21 59 13 85 -25 85 -25 0 -31 -5 -39 -37z"/>
<path d="M4892 409 c-54 -25 -68 -55 -88 -196 -17 -110 -11 -153 20 -153 31 0
43 28 49 114 4 53 14 104 26 132 18 40 24 45 48 42 41 -5 37 -29 -10 -63 -59
-43 -60 -71 -6 -130 79 -85 170 -120 177 -68 3 17 -9 29 -50 56 -29 19 -62 44
-73 56 -19 22 -19 23 0 34 36 20 65 56 65 81 0 88 -77 134 -158 95z"/>
<path d="M5258 394 c-33 -17 -52 -53 -102 -187 -41 -110 -41 -140 2 -135 21 2
30 12 43 48 16 43 19 45 73 56 l56 11 10 -37 c12 -45 31 -63 62 -58 18 2 24
10 26 39 2 24 -3 42 -13 53 -14 14 -14 16 -1 16 8 0 19 8 25 17 13 25 -5 53
-33 53 -20 0 -25 6 -31 38 -3 21 -15 53 -25 70 -22 36 -48 40 -92 16z m52
-121 c0 -19 -5 -23 -31 -23 -30 0 -31 1 -17 23 8 12 18 28 22 36 7 11 10 11
17 0 5 -8 9 -24 9 -36z"/>
<path d="M4315 381 c-69 -17 -119 -67 -130 -130 -14 -84 47 -141 149 -141 75
0 111 17 111 50 0 25 -1 25 -77 22 -67 -4 -79 -1 -98 18 -42 42 2 102 83 110
48 5 52 7 55 32 3 22 -2 30 -23 38 -29 11 -27 11 -70 1z"/>
<path d="M4636 358 c-8 -13 -17 -39 -21 -58 -4 -19 -12 -43 -17 -54 -9 -16
-12 -16 -24 -4 -8 8 -18 34 -22 58 -8 48 -30 62 -59 39 -11 -10 -14 -24 -9
-57 12 -89 66 -137 127 -112 39 17 54 40 74 118 12 49 13 67 4 78 -17 20 -36
17 -53 -8z"/>
<path d="M3877 317 c-48 -47 -48 -149 -1 -186 55 -43 137 -36 186 17 77 82 26
178 -101 189 -54 5 -62 3 -84 -20z m143 -73 c32 -31 -41 -86 -87 -65 -34 16
-30 72 7 82 30 8 60 2 80 -17z"/>
</g>
</svg>
