<?xml version="1.0" standalone="no"?>
<!DOCTYPE svg PUBLIC "-//W3C//DTD SVG 20010904//EN"
 "http://www.w3.org/TR/2001/REC-SVG-20010904/DTD/svg10.dtd">
<svg version="1.0" xmlns="http://www.w3.org/2000/svg"
 width="1004.000000pt" height="48.000000pt" viewBox="0 0 1004.000000 48.000000"
 preserveAspectRatio="xMidYMid meet">

<g transform="translate(0.000000,48.000000) scale(0.100000,-0.100000)"
fill="#000000" stroke="none">
<path d="M5366 458 c-3 -13 -6 -72 -6 -131 0 -60 -4 -106 -9 -103 -4 3 -16 34
-26 68 -20 74 -30 88 -60 88 -31 0 -47 -38 -79 -180 -22 -97 -24 -116 -12
-128 8 -8 22 -11 34 -8 16 6 25 24 39 89 l19 82 23 -47 c39 -82 95 -106 123
-54 7 11 15 84 19 161 3 77 9 150 14 163 7 20 4 22 -33 22 -33 0 -41 -4 -46
-22z"/>
<path d="M5617 457 c-42 -64 -104 -288 -93 -333 10 -37 56 -30 74 11 11 25 25
34 70 48 l56 17 27 -26 c33 -32 72 -30 77 4 2 13 -1 29 -7 36 -6 8 -9 20 -6
27 6 17 -3 30 -29 44 -10 6 -31 45 -47 89 -16 43 -34 84 -40 92 -18 22 -65 17
-82 -9z m71 -149 c13 -35 9 -42 -27 -53 -21 -6 -23 -5 -17 11 4 11 10 31 13
47 7 36 16 34 31 -5z"/>
<path d="M4334 425 c-22 -22 -24 -32 -24 -120 0 -52 -4 -95 -8 -95 -4 0 -25
29 -47 64 -48 80 -74 95 -109 63 -28 -25 -50 -84 -67 -182 -13 -76 -3 -115 30
-115 26 0 36 17 37 60 1 50 24 150 34 150 4 0 19 -19 33 -42 57 -95 115 -132
147 -93 8 10 15 60 18 138 2 67 8 130 13 139 23 43 -21 69 -57 33z"/>
<path d="M3603 425 c-26 -18 -49 -84 -64 -185 -6 -41 -14 -79 -18 -83 -12 -12
-30 40 -45 125 -15 87 -20 98 -46 98 -32 0 -38 -26 -24 -108 18 -100 29 -133
65 -181 31 -44 65 -53 93 -26 19 19 22 29 41 140 18 109 33 162 45 170 16 10
11 52 -6 59 -20 8 -16 8 -41 -9z"/>
<path d="M4616 411 c-96 -17 -122 -35 -96 -66 11 -13 23 -15 56 -10 l42 6 4
-126 c3 -101 7 -128 21 -142 13 -14 21 -15 35 -7 15 10 17 27 13 147 l-3 136
38 6 c54 9 69 18 69 46 0 22 -5 24 -45 25 -25 1 -85 -6 -134 -15z"/>
<path d="M4945 398 c-33 -39 -135 -248 -135 -275 0 -26 25 -47 45 -39 9 3 22
20 30 39 9 23 24 36 52 46 21 8 43 16 49 18 7 2 18 -13 24 -34 15 -47 37 -73
62 -73 28 0 32 24 14 76 -12 36 -13 50 -4 61 9 11 7 20 -9 41 -11 15 -23 49
-26 76 -13 96 -54 121 -102 64z m31 -140 c-28 -19 -36 -8 -19 25 l17 32 6 -25
c4 -14 2 -28 -4 -32z"/>
<path d="M3810 407 c-71 -25 -98 -112 -81 -261 5 -43 15 -84 23 -92 11 -11 34
-12 128 -4 121 11 150 24 130 59 -7 13 -27 16 -107 16 l-98 0 -3 38 -3 37 53
1 c83 1 159 14 168 29 5 8 4 22 -1 33 -10 17 -19 18 -115 11 -94 -6 -104 -5
-104 10 0 58 50 75 155 53 76 -16 90 -14 100 11 10 26 -27 49 -98 61 -78 14
-102 13 -147 -2z"/>
<path d="M9411 74 c0 -11 3 -14 6 -6 3 7 2 16 -1 19 -3 4 -6 -2 -5 -13z"/>
</g>
</svg>
