<?xml version="1.0" standalone="no"?>
<!DOCTYPE svg PUBLIC "-//W3C//DTD SVG 20010904//EN"
 "http://www.w3.org/TR/2001/REC-SVG-20010904/DTD/svg10.dtd">
<svg version="1.0" xmlns="http://www.w3.org/2000/svg"
 width="1004.000000pt" height="72.000000pt" viewBox="0 0 1004.000000 72.000000"
 preserveAspectRatio="xMidYMid meet">

<g transform="translate(0.000000,72.000000) scale(0.100000,-0.100000)"
fill="#000000" stroke="none">
<path d="M9231 698 c-5 -13 -14 -70 -20 -126 -20 -167 -32 -179 -52 -51 -14
86 -23 101 -58 97 -37 -4 -72 -79 -79 -167 -5 -78 7 -111 42 -111 31 0 54 26
38 42 -7 7 -12 28 -11 48 l0 35 15 -39 c25 -70 60 -93 105 -70 38 19 52 60 69
199 6 49 16 95 22 102 5 7 7 24 4 38 -9 34 -62 36 -75 3z"/>
<path d="M9471 683 c13 -53 12 -220 -1 -277 -13 -58 -41 -114 -69 -140 -27
-24 -27 -52 0 -66 29 -16 58 6 92 67 53 98 73 248 53 396 l-7 57 -39 0 -38 0
9 -37z"/>
<path d="M6985 689 c-95 -38 -130 -95 -101 -163 14 -34 14 -38 -9 -78 -34 -59
-34 -136 -2 -166 30 -28 78 -28 127 -1 35 20 39 20 68 5 58 -30 122 -13 106
28 -3 9 -18 19 -33 22 -39 10 -42 13 -28 34 17 29 -2 55 -41 55 -27 0 -82 37
-82 55 0 3 29 28 65 56 36 27 72 59 80 71 18 27 19 75 3 91 -18 18 -97 13
-153 -9z m75 -53 c0 -2 -23 -23 -52 -45 -37 -30 -54 -38 -59 -29 -11 17 9 38
56 59 41 18 55 22 55 15z m-89 -254 c8 -21 7 -29 -7 -39 -28 -20 -44 -15 -44
13 0 32 18 66 31 58 6 -3 15 -18 20 -32z"/>
<path d="M8937 682 c-21 -23 -22 -46 -2 -62 14 -12 13 -15 -5 -32 -17 -16 -20
-31 -20 -111 0 -103 15 -141 53 -135 21 3 22 7 19 113 -2 61 -6 117 -8 126 -3
11 3 19 16 22 18 5 21 12 18 49 -3 38 -6 43 -29 46 -15 2 -32 -5 -42 -16z"/>
<path d="M7505 647 c-33 -28 -44 -79 -45 -213 0 -88 3 -105 21 -128 45 -58
188 -8 224 79 18 41 9 78 -26 111 -16 15 -29 36 -29 46 0 37 -29 88 -62 108
-42 25 -51 25 -83 -3z m65 -76 c14 -27 13 -31 -10 -31 -15 0 -20 7 -20 25 0
30 15 33 30 6z m68 -156 c-4 -23 -46 -54 -78 -57 -22 -3 -25 1 -28 30 -3 29
-1 32 25 32 16 0 38 6 49 14 22 17 38 7 32 -19z"/>
<path d="M3384 646 c-65 -29 -107 -146 -108 -301 -1 -116 19 -187 67 -241 53
-61 117 -82 137 -45 7 15 6 23 -6 35 -8 9 -21 16 -28 16 -19 0 -63 50 -79 90
-35 83 -28 251 14 337 19 39 24 43 59 43 57 0 66 45 14 69 -30 14 -32 13 -70
-3z"/>
<path d="M5526 624 c-10 -9 -15 -22 -12 -29 2 -7 10 -42 16 -76 35 -201 41
-223 68 -227 29 -4 43 26 32 72 -8 34 -7 37 13 34 19 -3 23 -11 27 -60 6 -67
29 -100 58 -82 9 7 16 22 15 35 -19 262 -23 293 -38 308 -12 12 -19 13 -33 4
-14 -9 -16 -23 -14 -72 3 -59 2 -61 -21 -61 -22 0 -26 6 -38 71 -10 52 -20 75
-35 86 -19 12 -24 12 -38 -3z"/>
<path d="M6025 623 c-19 -18 -19 -27 1 -160 19 -137 30 -170 56 -179 22 -7 53
20 42 37 -8 13 1 11 40 -7 71 -34 92 16 26 63 -22 15 -42 34 -45 41 -3 8 17
48 45 89 27 41 50 78 50 83 0 15 -30 32 -48 26 -10 -4 -33 -29 -51 -56 -40
-62 -51 -69 -53 -33 -3 55 -5 78 -6 89 -3 19 -41 23 -57 7z"/>
<path d="M8191 626 c-9 -10 -25 -96 -31 -171 -1 -5 -11 17 -23 50 -20 55 -25
60 -54 63 -39 4 -45 -5 -78 -130 -31 -115 -32 -163 -6 -178 32 -17 72 13 55
42 -8 13 16 128 27 128 4 0 13 -17 20 -37 21 -67 41 -93 71 -93 17 0 31 7 37
19 18 33 43 292 30 307 -15 18 -33 18 -48 0z"/>
<path d="M8378 615 c-23 -22 -30 -46 -53 -162 -4 -18 -17 -39 -31 -47 -32 -22
-30 -40 5 -65 36 -26 56 -26 73 -2 7 10 23 21 34 25 17 5 23 2 28 -18 8 -32
45 -45 62 -21 8 10 11 21 9 25 -3 4 -9 52 -15 106 -14 129 -19 151 -37 169
-21 22 -47 18 -75 -10z m42 -150 c0 -14 -4 -25 -10 -25 -11 0 -14 33 -3 43 11
11 13 8 13 -18z"/>
<path d="M8741 616 c-7 -8 -18 -45 -25 -83 -14 -69 -23 -69 -28 1 -3 45 -28
67 -55 50 -24 -15 -61 -155 -62 -231 -1 -53 2 -64 20 -73 31 -17 49 4 49 57
l0 44 23 -27 c34 -39 69 -28 92 28 l18 43 8 -44 c10 -52 26 -73 52 -69 30 5
43 32 29 60 -6 13 -18 66 -26 119 -8 54 -19 106 -25 118 -13 24 -53 28 -70 7z"/>
<path d="M4761 604 c-17 -12 -21 -22 -16 -38 4 -11 8 -32 10 -46 1 -14 8 -54
14 -90 6 -36 11 -84 11 -107 0 -32 5 -45 21 -53 50 -27 62 40 34 195 -8 44
-12 90 -8 103 5 23 -11 52 -31 52 -6 0 -22 -7 -35 -16z"/>
<path d="M5851 601 c-24 -24 -46 -100 -62 -213 -11 -71 -10 -89 0 -102 8 -9
19 -16 26 -16 21 0 47 37 41 58 -5 15 -1 21 15 25 28 7 39 1 39 -22 0 -22 19
-41 42 -41 27 0 31 21 19 92 -36 219 -66 273 -120 219z m39 -163 c0 -5 -4 -8
-10 -8 -5 0 -10 10 -10 23 0 18 2 19 10 7 5 -8 10 -18 10 -22z"/>
<path d="M6272 608 c5 -15 28 -18 29 -3 0 6 -7 12 -17 13 -10 3 -15 -1 -12
-10z"/>
<path d="M7812 600 c-35 -9 -68 -22 -74 -28 -15 -15 -10 -233 5 -280 17 -51
53 -69 105 -54 55 17 104 59 100 86 -4 31 -39 31 -83 2 -21 -15 -41 -26 -45
-26 -10 0 -23 70 -15 79 4 3 20 11 38 17 36 12 53 34 43 59 -5 14 -14 16 -47
11 l-40 -6 3 32 c3 31 6 34 62 49 66 17 88 38 67 63 -17 20 -40 19 -119 -4z"/>
<path d="M6527 582 c-9 -10 -19 -38 -23 -62 l-7 -45 -16 50 c-13 42 -20 50
-43 53 -36 4 -44 -13 -62 -142 -18 -128 -11 -159 32 -154 25 3 27 7 32 58 4
47 6 51 14 30 12 -35 36 -60 57 -60 24 0 49 38 49 75 l1 30 17 -34 c23 -46 47
-60 67 -40 15 15 15 21 1 65 -8 27 -23 75 -31 106 -24 84 -54 108 -88 70z"/>
<path d="M3136 558 c-12 -19 -13 -40 -6 -118 5 -52 10 -114 10 -137 0 -88 -40
-32 -59 82 -13 76 -24 95 -52 95 -29 0 -38 -29 -56 -174 -17 -129 -17 -137 0
-153 24 -25 51 -6 55 38 5 58 9 60 45 24 41 -41 66 -44 104 -11 l28 25 -3 157
c-1 86 -7 165 -13 175 -13 25 -35 24 -53 -3z"/>
<path d="M5181 545 c-17 -20 -31 -40 -31 -45 0 -6 -5 -10 -11 -10 -6 0 -8 9
-4 20 14 44 -44 69 -66 29 -17 -34 14 -232 43 -266 15 -18 45 -16 56 4 9 15
14 15 67 -5 71 -27 92 -28 100 -2 9 30 -7 44 -75 69 -33 12 -62 27 -66 32 -3
6 10 34 29 62 52 77 61 100 48 126 -18 32 -54 26 -90 -14z"/>
<path d="M3714 535 c-3 -14 -4 -39 -1 -55 4 -17 2 -32 -5 -36 -16 -10 -2 -181
17 -211 18 -26 37 -29 54 -9 9 10 9 31 1 77 -5 35 -10 75 -10 89 0 26 0 26 55
16 61 -11 59 -8 71 -131 7 -77 24 -115 53 -115 27 0 32 23 21 98 -19 138 -19
140 12 151 32 11 46 37 30 53 -7 7 -55 12 -116 12 -58 1 -108 5 -113 9 -4 4
-2 16 4 26 10 15 8 22 -6 35 -27 25 -60 20 -67 -9z"/>
<path d="M4631 532 c-7 -12 -7 -42 0 -87 5 -37 8 -70 6 -72 -2 -2 -14 24 -26
57 -40 109 -89 98 -111 -26 -22 -129 -24 -168 -7 -183 20 -16 51 -11 54 9 1 8
5 38 8 65 l7 50 23 -46 c29 -55 47 -72 77 -67 39 5 50 42 43 153 -7 127 -15
159 -42 163 -13 2 -26 -4 -32 -16z"/>
<path d="M6241 531 c-11 -7 -13 -24 -8 -73 12 -121 39 -170 75 -134 13 12 13
26 2 98 -18 115 -30 134 -69 109z"/>
<path d="M4908 513 c-41 -47 -52 -138 -23 -193 41 -80 174 -110 163 -36 -2 14
-13 22 -38 27 -43 9 -70 41 -70 84 0 59 8 67 39 44 56 -41 85 14 33 64 -33 32
-81 36 -104 10z"/>
<path d="M1883 503 c-4 -9 -1 -59 5 -111 7 -52 10 -97 8 -100 -7 -7 -36 67
-50 128 -11 48 -16 55 -39 58 -34 4 -41 -10 -66 -143 -25 -132 -26 -178 -5
-196 29 -24 48 2 57 80 5 39 12 71 16 71 3 0 14 -15 24 -33 10 -18 31 -41 48
-51 64 -38 95 10 85 133 l-7 78 31 -5 c37 -5 45 -21 54 -115 11 -108 37 -150
72 -115 13 13 14 25 5 74 -5 32 -11 79 -13 103 l-3 44 50 16 c42 14 50 20 50
41 0 24 -3 25 -55 25 -30 0 -61 4 -68 9 -7 4 -18 3 -25 -2 -7 -5 -33 -11 -59
-13 -42 -4 -48 -2 -53 18 -7 28 -52 32 -62 6z"/>
<path d="M2258 493 c-26 -30 -37 -58 -63 -155 -30 -112 -31 -144 -6 -157 26
-14 53 8 56 45 5 70 3 67 27 50 12 -9 30 -16 39 -16 10 0 20 -11 24 -27 14
-56 58 -80 86 -47 10 13 10 20 -3 42 -12 20 -13 33 -5 50 8 18 6 26 -11 43
-12 11 -22 28 -22 38 0 27 -31 114 -48 134 -8 9 -25 17 -37 17 -12 0 -29 -8
-37 -17z m51 -140 c1 -7 -8 -13 -19 -13 -23 0 -25 9 -8 46 l13 27 6 -24 c4
-13 7 -30 8 -36z"/>
<path d="M1331 463 c-75 -68 -83 -144 -21 -208 38 -39 38 -45 -1 -45 -44 0
-69 -17 -69 -46 0 -66 140 -37 177 36 15 30 -2 65 -46 98 -46 33 -42 66 15
118 51 48 55 77 13 82 -18 2 -38 -8 -68 -35z"/>
<path d="M3610 481 c-5 -11 -10 -49 -10 -85 0 -72 -14 -88 -24 -28 -4 20 -9
44 -12 54 -10 34 -64 32 -64 -3 0 -10 -4 -19 -9 -19 -5 0 -7 8 -4 19 5 20 -20
51 -42 51 -8 0 -19 -9 -25 -20 -14 -26 4 -167 28 -216 20 -43 59 -56 81 -27
l16 20 27 -20 c25 -19 28 -19 52 -3 14 9 28 27 32 40 11 47 21 222 12 239 -12
23 -45 22 -58 -2z"/>
<path d="M644 471 c-57 -26 -87 -67 -79 -106 3 -16 7 -46 9 -65 1 -19 5 -42 8
-50 4 -8 12 -46 19 -85 15 -88 24 -107 52 -103 19 3 22 9 22 48 0 25 -4 66 -8
93 -7 37 -5 47 6 47 8 0 32 13 54 29 l41 30 7 -67 c12 -114 53 -183 91 -151
16 13 19 40 5 54 -4 6 -11 23 -15 38 -7 28 -6 29 26 22 18 -4 57 -23 86 -42
41 -28 55 -33 66 -24 8 7 25 9 39 6 20 -5 29 -2 39 14 10 16 23 21 53 21 52 0
80 19 71 48 -6 18 -16 22 -68 24 -74 4 -88 23 -26 35 37 7 43 12 46 35 3 22
-2 29 -23 34 -14 3 -35 4 -46 1 -17 -5 -20 -1 -17 21 3 26 5 27 67 27 49 0 66
4 75 17 18 30 -13 49 -87 55 -64 5 -67 5 -98 -26 l-31 -32 4 -109 3 -109 -30
23 c-16 12 -38 26 -49 29 -14 6 -16 13 -11 30 16 49 17 115 1 145 -29 57 -90
69 -132 27 l-25 -25 -22 25 c-30 34 -73 40 -123 16z m76 -83 c0 -20 -42 -68
-60 -68 -5 0 -10 6 -10 13 0 6 -3 22 -6 34 -5 16 1 25 22 36 34 18 54 12 54
-15z m164 6 c14 -38 -7 -104 -35 -104 -12 0 -11 50 2 89 12 34 24 40 33 15z"/>
<path d="M2595 485 c-5 -1 -44 -8 -85 -15 -102 -16 -122 -25 -118 -53 3 -20 9
-22 58 -23 l55 -1 6 -104 c6 -111 12 -134 36 -143 34 -13 40 10 35 136 l-4
123 31 12 c39 14 51 41 26 59 -19 14 -22 15 -40 9z"/>
<path d="M4193 483 c-8 -3 -13 -25 -13 -58 0 -58 -1 -59 -42 -69 -26 -6 -28
-4 -28 28 0 49 -9 66 -35 66 -32 0 -37 -12 -39 -84 -2 -103 32 -168 76 -145
14 7 19 18 16 34 -4 19 1 24 29 33 l33 10 0 -38 c0 -54 16 -90 39 -90 35 0 40
19 31 130 -5 58 -9 117 -10 132 0 15 -7 34 -16 42 -16 17 -21 18 -41 9z"/>
<path d="M1533 469 c-56 -16 -68 -48 -66 -167 2 -75 7 -112 18 -128 19 -29 51
-31 65 -4 8 16 21 20 59 20 91 0 97 62 7 68 -25 2 -46 7 -46 11 0 5 27 14 59
20 47 9 61 17 67 33 9 30 -19 49 -60 40 -53 -11 -78 -8 -90 11 -18 29 10 39
95 32 82 -7 107 5 95 43 -9 28 -134 41 -203 21z"/>
<path d="M2674 469 c-3 -6 -2 -15 2 -19 12 -12 38 5 30 19 -9 14 -23 14 -32 0z"/>
<path d="M2793 420 c-25 -15 -36 -31 -45 -67 l-13 -48 -5 49 c-6 56 -28 79
-54 57 -23 -19 -23 -202 0 -225 8 -9 19 -16 23 -16 14 0 31 24 31 44 0 19 1
18 16 -4 38 -57 88 -66 145 -27 68 46 73 149 11 217 -36 39 -69 45 -109 20z
m72 -95 c11 -24 12 -41 6 -59 -30 -77 -82 -8 -56 74 10 31 34 24 50 -15z"/>
</g>
</svg>
