<?xml version="1.0" standalone="no"?>
<!DOCTYPE svg PUBLIC "-//W3C//DTD SVG 20010904//EN"
 "http://www.w3.org/TR/2001/REC-SVG-20010904/DTD/svg10.dtd">
<svg version="1.0" xmlns="http://www.w3.org/2000/svg"
 width="1004.000000pt" height="56.000000pt" viewBox="0 0 1004.000000 56.000000"
 preserveAspectRatio="xMidYMid meet">

<g transform="translate(0.000000,56.000000) scale(0.100000,-0.100000)"
fill="#000000" stroke="none">
<path d="M5932 533 c-11 -16 -32 -63 -48 -105 -19 -50 -36 -80 -48 -84 -15 -5
-17 -13 -12 -47 4 -23 12 -47 18 -54 17 -21 47 -15 59 11 8 16 22 26 48 30 52
8 61 8 61 -7 0 -15 36 -57 50 -57 5 0 15 7 24 15 13 13 13 20 1 49 -8 19 -24
79 -36 133 -11 54 -27 108 -35 121 -20 31 -58 29 -82 -5z m50 -142 c4 -24 0
-30 -19 -34 -26 -5 -29 8 -12 47 14 31 25 26 31 -13z"/>
<path d="M7615 524 c37 -54 55 -127 55 -220 0 -96 -17 -150 -65 -213 -19 -24
-35 -50 -35 -57 0 -21 31 -33 55 -22 28 12 78 90 100 153 33 96 18 272 -31
367 -13 24 -21 28 -59 28 l-44 0 24 -36z"/>
<path d="M3413 535 c-32 -22 -46 -79 -46 -180 0 -114 26 -187 84 -240 43 -39
74 -43 93 -12 9 14 4 23 -31 55 -57 49 -76 98 -76 197 -1 88 8 125 28 125 7 0
16 7 19 16 8 21 8 20 -10 38 -19 20 -34 20 -61 1z"/>
<path d="M7431 523 c-5 -10 -12 -40 -16 -68 -10 -77 -12 -81 -34 -61 -10 9
-21 30 -25 47 -4 19 -12 29 -24 29 -67 0 -48 -110 25 -145 l33 -16 -6 -107
c-6 -91 -4 -109 9 -120 9 -8 24 -12 34 -10 15 3 19 19 25 108 5 58 13 127 18
155 27 135 30 166 20 185 -13 25 -46 26 -59 3z"/>
<path d="M6505 487 c-54 -54 -69 -144 -41 -252 19 -72 20 -73 65 -85 43 -11
131 1 166 24 57 37 57 116 0 173 -29 29 -32 38 -28 71 4 31 0 44 -22 70 -22
26 -34 32 -67 32 -32 0 -47 -7 -73 -33z m90 -61 c0 -13 -10 -22 -29 -27 -38
-11 -43 -5 -22 26 20 30 51 30 51 1z m54 -132 c12 -15 21 -33 21 -40 0 -19
-35 -35 -82 -37 -39 -2 -41 -1 -53 41 -13 42 -13 42 14 42 14 0 33 5 41 10 24
15 37 12 59 -16z"/>
<path d="M2456 474 c-10 -26 -7 -33 19 -50 29 -19 65 -11 65 15 0 40 -71 70
-84 35z"/>
<path d="M4034 479 c-3 -6 -2 -15 2 -19 12 -12 38 5 30 19 -9 14 -23 14 -32 0z"/>
<path d="M4200 473 c-24 -3 -50 -9 -57 -15 -20 -17 -15 -48 10 -57 18 -7 25
-23 40 -97 32 -156 74 -221 115 -180 15 14 14 19 -5 59 -25 51 -57 191 -49
212 3 9 18 15 35 15 34 0 65 26 57 47 -3 8 -6 17 -6 19 0 4 -69 3 -140 -3z"/>
<path d="M5129 465 c-58 -32 -83 -158 -43 -212 32 -43 68 -65 116 -70 32 -4
47 -1 57 10 23 29 9 52 -36 58 -59 8 -83 32 -83 85 0 26 6 49 16 59 15 15 18
14 41 -7 19 -17 28 -20 41 -12 26 17 26 47 -1 72 -30 28 -75 36 -108 17z"/>
<path d="M5570 465 c-15 -19 0 -162 24 -219 13 -31 20 -36 48 -36 18 0 56 8
83 18 42 15 50 22 50 42 0 20 -6 26 -28 28 -16 2 -42 -1 -59 -7 -17 -6 -33 -9
-35 -7 -2 2 -9 45 -16 97 -11 82 -15 94 -33 97 -11 2 -27 -4 -34 -13z"/>
<path d="M7181 471 c-8 -5 -16 -35 -20 -72 -3 -35 -10 -64 -16 -64 -5 0 -26
27 -46 60 -28 47 -41 60 -60 60 -17 0 -25 -6 -27 -22 -6 -43 67 -152 117 -172
28 -12 29 -13 23 -77 -3 -43 -1 -69 8 -79 13 -16 46 -20 53 -7 3 4 11 85 17
181 12 165 11 175 -6 188 -21 15 -24 16 -43 4z"/>
<path d="M3860 455 c-7 -8 -18 -57 -24 -107 -13 -105 -21 -104 -46 7 -13 57
-20 71 -36 73 -32 5 -45 -20 -51 -100 -3 -40 -9 -79 -13 -87 -11 -21 -39 62
-48 139 -7 64 -7 65 -37 65 l-30 0 1 -70 c2 -84 32 -170 73 -209 36 -35 68
-31 96 10 20 30 22 31 33 13 15 -24 55 -34 81 -20 24 13 37 58 46 161 4 41 11
83 16 92 21 39 -32 68 -61 33z"/>
<path d="M2239 433 c-9 -10 -15 -49 -17 -105 -2 -48 -7 -88 -11 -88 -4 0 -16
28 -26 63 -16 50 -24 63 -43 65 -33 5 -49 -13 -65 -71 -34 -122 -30 -194 14
-217 17 -10 24 -9 37 4 13 13 14 22 5 45 -6 16 -8 44 -4 63 l7 32 13 -32 c34
-81 85 -106 117 -57 12 18 18 57 22 138 2 61 8 119 12 127 20 38 -33 67 -61
33z"/>
<path d="M4412 438 c-15 -15 -17 -235 -2 -272 7 -19 17 -26 35 -26 31 0 49 38
40 82 -7 29 -3 32 62 52 19 6 23 2 34 -51 16 -76 35 -113 58 -113 36 0 40 21
18 107 -20 77 -20 83 -4 101 24 27 21 59 -9 87 -54 51 -94 40 -94 -25 0 -34
-3 -38 -31 -44 -49 -9 -49 -9 -49 42 0 47 -12 72 -35 72 -6 0 -16 -5 -23 -12z"/>
<path d="M3156 431 c-3 -5 -17 -42 -31 -82 -13 -40 -31 -79 -38 -87 -13 -12
-18 -9 -42 21 -16 19 -38 59 -50 88 -17 44 -26 55 -47 57 -42 5 -44 -27 -5
-110 38 -82 77 -127 119 -135 31 -6 34 -20 17 -92 -11 -50 1 -74 35 -69 15 2
23 13 29 38 62 279 74 346 66 362 -10 19 -44 24 -53 9z"/>
<path d="M3993 424 c-8 -22 15 -212 30 -243 8 -18 20 -26 37 -26 21 0 25 5 24
30 -1 64 -26 231 -36 243 -15 17 -47 15 -55 -4z"/>
<path d="M5340 420 c-45 -45 -55 -148 -20 -192 68 -88 220 -45 220 61 0 51
-35 93 -105 126 -63 30 -69 31 -95 5z m112 -97 c26 -23 19 -56 -15 -67 -41
-15 -61 2 -65 54 l-3 43 32 -7 c18 -3 41 -14 51 -23z"/>
<path d="M6808 423 c-32 -20 -48 -52 -48 -99 0 -84 53 -144 127 -144 38 0 50
5 79 34 28 28 34 42 34 75 0 89 -51 151 -124 151 -22 0 -53 -8 -68 -17z m106
-75 c29 -41 21 -54 -30 -50 -35 3 -44 7 -40 19 3 8 6 23 6 34 0 27 45 25 64
-3z"/>
<path d="M2701 410 c-122 -19 -145 -32 -122 -69 10 -16 46 -18 104 -7 l37 7 1
-88 c0 -112 15 -158 49 -158 l25 0 -4 127 -3 127 38 7 c46 8 64 20 64 44 0 34
-20 35 -189 10z"/>
<path d="M2444 356 c-9 -23 14 -236 26 -251 16 -19 34 -19 49 -1 9 10 9 42 1
124 -6 61 -13 118 -16 127 -8 19 -53 20 -60 1z"/>
<path d="M1770 350 c-22 -13 -19 -180 4 -235 31 -72 70 -98 121 -79 27 11 54
78 72 179 16 90 16 97 0 113 -29 29 -50 4 -64 -74 -16 -91 -32 -144 -42 -144
-17 0 -31 63 -31 137 0 100 -18 130 -60 103z"/>
</g>
</svg>
