<?xml version="1.0" standalone="no"?>
<!DOCTYPE svg PUBLIC "-//W3C//DTD SVG 20010904//EN"
 "http://www.w3.org/TR/2001/REC-SVG-20010904/DTD/svg10.dtd">
<svg version="1.0" xmlns="http://www.w3.org/2000/svg"
 width="1004.000000pt" height="64.000000pt" viewBox="0 0 1004.000000 64.000000"
 preserveAspectRatio="xMidYMid meet">

<g transform="translate(0.000000,64.000000) scale(0.100000,-0.100000)"
fill="#000000" stroke="none">
<path d="M6903 629 c-6 -6 -22 -17 -35 -23 -21 -10 -25 -26 -45 -156 -26 -169
-24 -193 15 -188 23 3 28 9 36 46 8 37 12 42 37 42 22 0 31 -8 46 -37 24 -49
47 -63 69 -41 15 15 15 21 4 48 -12 28 -11 33 3 42 25 13 21 47 -7 57 -20 8
-24 18 -30 82 -8 77 -20 119 -39 131 -17 11 -41 10 -54 -3z m25 -172 c-2 -27
-6 -34 -16 -28 -10 6 -11 19 -6 45 8 47 27 33 22 -17z"/>
<path d="M7964 618 c43 -157 24 -251 -82 -412 -54 -82 -59 -116 -16 -116 18 0
35 18 76 77 85 126 107 190 108 303 0 52 -5 112 -11 133 -9 34 -13 37 -46 37
-32 0 -35 -2 -29 -22z"/>
<path d="M2893 610 c-49 -20 -74 -110 -75 -264 0 -145 20 -206 87 -264 42 -38
81 -42 90 -11 6 17 -2 29 -34 58 -22 20 -48 54 -57 75 -19 46 -21 200 -4 280
10 48 14 54 40 60 40 8 43 52 4 66 -14 6 -26 10 -27 9 -1 0 -12 -4 -24 -9z"/>
<path d="M5744 596 c-12 -31 2 -51 46 -66 l45 -16 3 -91 3 -92 -28 -3 c-22 -2
-28 -8 -28 -28 0 -46 80 -65 153 -35 114 48 118 127 10 241 -78 83 -188 131
-204 90z m197 -192 c19 -32 20 -37 6 -51 -23 -23 -37 -7 -37 43 0 24 2 44 4
44 2 0 14 -16 27 -36z"/>
<path d="M6151 595 c-67 -16 -90 -47 -57 -74 10 -8 28 -8 72 3 33 8 70 16 83
18 28 4 47 29 38 52 -8 20 -58 20 -136 1z"/>
<path d="M6604 592 c-17 -11 -36 -52 -49 -107 l-12 -50 -11 45 c-19 70 -35 95
-64 98 -21 3 -30 -3 -41 -25 -29 -57 -51 -222 -33 -251 10 -16 41 -15 54 1 6
7 12 40 14 72 l3 60 14 -42 c8 -23 24 -52 37 -64 34 -32 69 -14 85 43 27 99
25 98 38 35 15 -70 42 -103 71 -87 11 6 20 15 20 20 0 22 -62 235 -72 247 -12
14 -37 17 -54 5z"/>
<path d="M7152 588 c-30 -37 -46 -280 -20 -306 30 -30 71 3 61 50 -6 29 -5 30
18 18 13 -8 40 -26 60 -42 43 -34 82 -35 87 -2 2 16 -11 32 -45 60 -44 35 -48
41 -39 65 21 61 -27 162 -80 167 -17 2 -36 -3 -42 -10z m58 -117 c0 -11 -4
-23 -10 -26 -6 -4 -10 5 -10 19 0 14 5 26 10 26 6 0 10 -9 10 -19z"/>
<path d="M7508 558 c-15 -13 -37 -45 -49 -73 -53 -121 -15 -192 98 -186 30 1
42 40 17 58 -10 7 -28 13 -41 13 -13 0 -24 6 -24 13 -5 51 31 124 63 129 18 2
23 9 23 33 0 26 -4 30 -30 33 -20 2 -40 -5 -57 -20z"/>
<path d="M3565 560 c-8 -13 4 -32 16 -25 12 8 12 35 0 35 -6 0 -13 -4 -16 -10z"/>
<path d="M7765 556 c-35 -10 -44 -19 -72 -75 -44 -86 -45 -139 -3 -174 45 -38
101 -44 158 -15 86 42 94 129 20 215 -52 61 -55 63 -103 49z m57 -103 c38 -45
33 -86 -13 -102 -41 -14 -79 1 -79 31 0 33 37 88 58 88 11 0 26 -8 34 -17z"/>
<path d="M5070 533 c-30 -38 -48 -84 -71 -178 -25 -104 -25 -141 1 -155 15 -8
24 -6 39 9 10 10 20 23 22 29 2 6 16 13 31 17 22 6 28 2 40 -22 15 -31 42 -41
63 -23 17 14 20 66 5 75 -5 3 -7 12 -3 21 3 8 -1 22 -10 32 -8 9 -23 58 -33
107 -25 124 -42 142 -84 88z"/>
<path d="M3850 530 c-25 -5 -71 -9 -102 -9 -52 -1 -88 -17 -88 -40 0 -18 28
-31 67 -31 l43 0 0 -90 c0 -106 16 -150 54 -150 29 0 39 21 26 56 -11 28 -13
136 -4 171 4 16 16 23 50 28 48 7 64 26 47 54 -12 19 -33 22 -93 11z"/>
<path d="M4797 513 c-8 -10 -21 -47 -27 -83 -7 -36 -16 -69 -20 -73 -5 -5 -15
17 -25 50 -30 108 -30 108 -58 111 -20 3 -29 -2 -36 -20 -13 -31 -34 -180 -35
-248 -1 -50 1 -55 21 -58 26 -4 36 14 50 88 l9 45 17 -32 c37 -69 95 -64 120
11 l14 41 12 -42 c14 -51 34 -73 66 -73 31 0 43 35 21 59 -9 10 -25 60 -37
112 -26 120 -54 154 -92 112z"/>
<path d="M4005 510 c-12 -19 -5 -252 8 -279 8 -17 22 -27 40 -29 22 -3 29 2
38 25 6 15 8 42 6 60 -4 22 -1 33 10 37 30 12 39 5 50 -37 16 -60 43 -91 71
-83 27 9 28 26 2 94 l-20 53 20 26 c11 14 20 37 20 50 0 25 -49 83 -69 83 -23
0 -51 -41 -51 -74 0 -26 -5 -35 -22 -40 -36 -9 -38 -8 -38 33 0 55 -15 91 -39
91 -11 0 -23 -5 -26 -10z"/>
<path d="M5337 509 c-28 -16 -57 -84 -57 -133 0 -59 45 -110 105 -120 51 -9
95 7 95 33 0 26 -17 36 -62 37 -63 1 -84 38 -56 99 10 22 17 25 52 23 37 -3
41 0 44 21 3 15 -3 30 -14 38 -21 15 -82 17 -107 2z"/>
<path d="M6120 469 c-6 -10 -10 -39 -10 -64 0 -38 5 -52 29 -76 24 -24 38 -29
78 -29 47 0 113 29 113 49 0 21 -32 42 -54 34 -11 -4 -37 -7 -56 -8 -49 0 -46
26 4 40 43 12 63 33 53 58 -9 24 -144 21 -157 -4z"/>
<path d="M1627 460 c-37 -29 -50 -101 -41 -230 8 -121 16 -150 43 -150 31 0
43 24 36 74 -9 58 0 59 73 3 53 -41 94 -67 106 -67 2 0 12 7 21 16 14 15 18
15 33 1 28 -25 66 -30 108 -12 69 29 93 67 59 95 -12 10 -21 8 -48 -9 -64 -39
-97 -19 -97 59 0 32 4 34 89 48 52 8 72 32 51 57 -12 14 -25 16 -67 11 -29 -3
-53 -2 -53 3 0 11 36 21 82 21 64 0 86 50 32 71 -25 9 -96 -1 -146 -20 -41
-15 -50 -44 -51 -162 l-2 -108 -26 17 c-14 9 -40 28 -57 42 -30 24 -31 27 -20
61 17 58 2 127 -37 166 -38 38 -53 40 -88 13z m57 -92 c10 -40 7 -68 -9 -68
-11 0 -15 12 -15 45 0 48 14 60 24 23z"/>
<path d="M3312 453 c-6 -15 -14 -55 -17 -88 -3 -33 -8 -76 -12 -95 l-5 -35
-13 37 c-8 20 -17 62 -20 93 -7 51 -24 85 -44 85 -19 0 -35 -35 -47 -107 -8
-42 -16 -78 -19 -81 -13 -13 -20 15 -21 83 -2 81 -7 95 -34 95 -41 0 -53 -92
-25 -188 25 -84 91 -107 131 -47 l16 25 18 -32 c22 -43 63 -67 87 -52 30 18
42 57 55 165 18 161 17 163 -13 167 -21 2 -28 -3 -37 -25z"/>
<path d="M2390 455 c-15 -18 -9 -60 25 -199 32 -130 49 -150 126 -143 95 8
147 51 105 86 -10 8 -24 7 -56 -4 -59 -21 -79 -19 -89 8 -11 28 -42 178 -43
209 -2 26 -25 58 -43 58 -7 0 -18 -7 -25 -15z"/>
<path d="M3500 455 c-9 -10 -11 -46 -8 -120 3 -92 6 -108 26 -127 18 -18 26
-21 40 -12 10 7 16 21 14 35 -2 13 -6 68 -10 122 -5 70 -11 100 -22 107 -20
13 -26 12 -40 -5z"/>
<path d="M2184 450 c-39 -15 -64 -117 -64 -262 0 -101 10 -128 46 -128 18 0
28 7 35 28 12 35 68 61 82 37 10 -18 38 -20 55 -3 17 17 15 63 -2 78 -8 6 -27
48 -42 93 -15 45 -32 89 -39 97 -7 8 -16 25 -19 37 -8 26 -24 33 -52 23z m55
-232 c1 -10 -6 -18 -14 -18 -16 0 -19 20 -8 60 l7 25 7 -25 c4 -14 7 -33 8
-42z"/>
</g>
</svg>
