<?xml version="1.0" standalone="no"?>
<!DOCTYPE svg PUBLIC "-//W3C//DTD SVG 20010904//EN"
 "http://www.w3.org/TR/2001/REC-SVG-20010904/DTD/svg10.dtd">
<svg version="1.0" xmlns="http://www.w3.org/2000/svg"
 width="1004.000000pt" height="48.000000pt" viewBox="0 0 1004.000000 48.000000"
 preserveAspectRatio="xMidYMid meet">

<g transform="translate(0.000000,48.000000) scale(0.100000,-0.100000)"
fill="#000000" stroke="none">
<path d="M4415 450 c-29 -55 -9 -291 27 -313 30 -19 51 10 46 64 l-5 47 40 5
c88 12 122 80 77 152 -32 52 -71 75 -124 75 -40 0 -47 -3 -61 -30z m125 -85
c16 -29 14 -33 -28 -41 -34 -7 -34 -8 -34 56 0 17 1 32 1 35 2 12 49 -27 61
-50z"/>
<path d="M3550 435 c-22 -27 -13 -321 12 -368 13 -26 50 -17 66 15 l13 27 32
-19 c41 -25 115 -27 124 -4 10 26 -11 48 -51 55 -39 6 -76 34 -76 56 0 22 40
94 77 140 38 46 40 76 5 81 -29 4 -45 -9 -99 -82 l-43 -58 0 76 c0 64 -3 77
-19 86 -25 13 -26 13 -41 -5z"/>
<path d="M4196 434 c-65 -23 -73 -37 -81 -125 -8 -94 3 -132 46 -149 52 -22
159 18 159 59 0 28 -30 34 -75 16 -20 -9 -45 -13 -54 -9 -11 4 4 13 48 28 68
23 89 42 77 71 -7 18 -14 18 -101 -2 -28 -6 -29 -5 -12 11 9 10 17 21 17 25 0
5 14 12 31 17 41 12 58 37 40 58 -16 19 -43 19 -95 0z"/>
<path d="M5054 401 c-47 -33 -68 -63 -84 -118 -11 -36 -10 -46 6 -80 25 -50
82 -79 127 -66 58 16 43 73 -19 73 -90 0 -42 129 57 153 31 8 44 33 28 53 -19
23 -73 16 -115 -15z"/>
<path d="M5876 398 c-40 -62 -63 -221 -37 -252 16 -19 76 -21 118 -5 15 6 62
17 103 25 71 14 90 24 90 51 0 35 -66 34 -193 -3 -31 -10 -59 -15 -62 -12 -6
6 25 127 41 160 12 23 12 29 -2 42 -22 22 -41 20 -58 -6z"/>
<path d="M3914 386 c-49 -23 -53 -28 -73 -87 -11 -35 -21 -75 -21 -90 0 -62
45 -109 105 -109 45 0 125 40 131 66 12 47 -14 56 -73 24 -43 -23 -64 -25 -81
-8 -23 23 -11 35 53 53 71 19 97 44 74 72 -13 14 -27 14 -89 -3 -22 -7 -24 -6
-11 9 7 9 21 17 31 17 19 0 50 30 50 48 0 9 -30 32 -42 32 -2 0 -26 -11 -54
-24z"/>
<path d="M5638 393 c-34 -5 -107 -98 -114 -145 -8 -50 10 -87 52 -104 60 -25
128 -1 164 59 29 47 26 62 -30 177 -8 16 -29 20 -72 13z m40 -113 c23 -37 -23
-85 -70 -72 -25 6 -22 35 7 71 28 32 43 32 63 1z"/>
<path d="M5242 365 c-33 -27 -55 -95 -45 -135 19 -79 133 -117 208 -70 37 23
60 68 50 99 -7 24 -58 65 -93 76 -13 4 -27 18 -32 31 -12 32 -50 32 -88 -1z
m103 -99 c56 -24 42 -56 -24 -56 -33 0 -51 16 -51 47 0 27 24 30 75 9z"/>
</g>
</svg>
