<?xml version="1.0" standalone="no"?>
<!DOCTYPE svg PUBLIC "-//W3C//DTD SVG 20010904//EN"
 "http://www.w3.org/TR/2001/REC-SVG-20010904/DTD/svg10.dtd">
<svg version="1.0" xmlns="http://www.w3.org/2000/svg"
 width="1004.000000pt" height="56.000000pt" viewBox="0 0 1004.000000 56.000000"
 preserveAspectRatio="xMidYMid meet">

<g transform="translate(0.000000,56.000000) scale(0.100000,-0.100000)"
fill="#000000" stroke="none">
<path d="M6877 542 c-10 -10 -17 -26 -17 -34 0 -21 26 -41 42 -32 26 16 88 69
88 77 0 4 -22 7 -48 7 -35 0 -54 -5 -65 -18z"/>
<path d="M6059 484 c-10 -12 -14 -46 -14 -116 0 -54 -3 -98 -7 -98 -3 0 -16
28 -27 63 -27 81 -47 109 -74 105 -35 -5 -49 -52 -54 -172 -6 -129 4 -166 42
-166 29 0 28 -1 26 100 l-1 75 25 -47 c43 -82 99 -106 127 -54 7 13 12 79 12
171 1 145 0 150 -20 153 -11 2 -27 -5 -35 -14z"/>
<path d="M6630 449 c-60 -83 -88 -209 -56 -252 17 -22 65 -22 73 -1 3 9 1 25
-5 35 -20 31 -14 39 27 39 36 0 40 -3 62 -47 25 -51 56 -66 78 -39 10 12 9 21
-4 46 -11 21 -14 42 -10 62 5 22 2 34 -13 48 -11 10 -23 36 -27 56 -12 66 -32
94 -65 94 -23 0 -36 -9 -60 -41z m60 -84 c0 -16 -6 -25 -15 -25 -16 0 -19 9
-9 34 9 25 24 19 24 -9z"/>
<path d="M6321 463 c-24 -8 -63 -34 -87 -57 -74 -71 -57 -125 58 -186 46 -25
58 -35 44 -38 -11 -2 -36 1 -57 8 -45 15 -69 8 -69 -20 0 -67 196 -84 230 -21
17 33 -10 72 -80 111 -34 19 -71 42 -83 52 -22 16 -22 16 -2 38 31 34 76 54
125 54 40 1 45 4 48 25 7 49 -45 63 -127 34z"/>
<path d="M5330 423 c-37 -34 -52 -108 -44 -211 9 -108 33 -145 78 -120 18 10
22 43 6 53 -5 3 -10 24 -10 46 0 35 3 39 25 39 38 0 90 25 109 51 46 67 -9
169 -93 169 -30 0 -48 -7 -71 -27z m98 -55 c29 -29 2 -68 -47 -68 -15 0 -21 6
-21 21 0 49 39 76 68 47z"/>
<path d="M5650 433 c-65 -11 -103 -43 -85 -73 4 -6 -1 -30 -10 -53 -9 -25 -15
-63 -13 -92 4 -69 35 -90 128 -89 75 1 103 14 98 48 -3 19 -10 21 -68 21 -84
1 -90 2 -90 19 0 18 22 26 68 26 46 0 86 20 90 44 6 27 -16 36 -78 31 -30 -3
-49 -2 -42 1 7 3 17 17 22 29 7 19 18 24 51 27 49 3 71 27 50 52 -13 16 -61
19 -121 9z"/>
<path d="M4627 402 c-15 -15 -27 -38 -27 -51 0 -41 -23 -114 -42 -133 -18 -18
-18 -22 -5 -42 9 -13 17 -35 19 -51 2 -15 11 -33 21 -39 15 -9 22 -7 38 13 10
13 19 34 19 46 0 25 8 29 71 40 33 6 39 4 59 -25 15 -21 29 -30 44 -28 24 3
34 41 16 63 -6 7 -8 25 -4 40 5 21 3 27 -15 32 -14 3 -32 25 -48 57 -14 28
-34 63 -45 79 -26 36 -66 36 -101 -1z m81 -143 c-25 -16 -38 -9 -38 20 0 16 3
37 7 47 5 13 10 9 26 -21 15 -31 16 -39 5 -46z"/>
<path d="M4346 371 c-9 -16 -18 -65 -22 -110 -4 -44 -10 -81 -15 -81 -4 0 -13
26 -19 58 -20 97 -48 130 -86 104 -29 -19 -64 -133 -64 -210 0 -47 25 -84 53
-80 19 3 22 9 20 43 -1 22 0 56 3 75 l6 35 18 -49 c24 -62 46 -86 81 -86 42 0
57 32 69 149 6 56 15 112 19 124 21 54 -37 79 -63 28z"/>
<path d="M2963 350 c-23 -21 -53 -133 -53 -198 l0 -39 -56 -10 c-75 -13 -132
-2 -162 32 -26 30 -24 66 7 119 21 38 37 43 45 13 13 -53 66 -39 66 17 0 42
-35 76 -79 76 -90 0 -161 -174 -107 -263 31 -51 140 -83 227 -67 36 7 56 7 65
-1 20 -16 51 -1 62 30 14 40 67 53 88 22 18 -25 52 -28 61 -4 9 24 -65 242
-93 270 -28 28 -44 29 -71 3z m61 -152 c5 -21 3 -28 -9 -28 -11 0 -15 11 -15
37 0 41 13 35 24 -9z"/>
<path d="M4022 358 c6 -18 28 -21 28 -4 0 9 -7 16 -16 16 -9 0 -14 -5 -12 -12z"/>
<path d="M3241 331 c-27 -27 -41 -83 -44 -177 -2 -69 0 -79 16 -82 10 -2 26 3
35 11 35 30 68 26 129 -14 61 -41 82 -46 101 -27 22 22 13 37 -49 79 -57 38
-61 43 -55 71 20 101 -74 198 -133 139z m59 -102 c0 -19 -5 -29 -15 -29 -16 0
-18 12 -9 47 8 31 24 19 24 -18z"/>
<path d="M3622 327 c-16 -18 -41 -118 -48 -192 -7 -67 7 -92 46 -80 16 5 20
15 20 48 0 60 14 76 30 37 7 -17 23 -38 36 -46 33 -22 60 -4 88 59 l23 52 17
-52 c20 -59 36 -76 67 -71 37 5 47 33 22 60 -12 13 -29 53 -38 90 -31 121 -77
129 -128 20 l-31 -67 -13 50 c-8 28 -19 61 -26 75 -14 28 -48 38 -65 17z"/>
<path d="M4015 296 c-37 -27 -28 -205 11 -220 33 -13 41 10 39 111 -2 54 -3
101 -4 104 -2 14 -30 17 -46 5z"/>
</g>
</svg>
