<?xml version="1.0" standalone="no"?>
<!DOCTYPE svg PUBLIC "-//W3C//DTD SVG 20010904//EN"
 "http://www.w3.org/TR/2001/REC-SVG-20010904/DTD/svg10.dtd">
<svg version="1.0" xmlns="http://www.w3.org/2000/svg"
 width="1004.000000pt" height="60.000000pt" viewBox="0 0 1004.000000 60.000000"
 preserveAspectRatio="xMidYMid meet">

<g transform="translate(0.000000,60.000000) scale(0.100000,-0.100000)"
fill="#000000" stroke="none">
<path d="M9516 568 c-14 -20 -23 -53 -44 -168 l-9 -45 -22 75 c-27 88 -35 100
-67 100 -31 0 -57 -41 -89 -143 -29 -92 -33 -155 -9 -164 29 -11 49 12 56 63
4 27 14 67 22 89 12 34 15 37 21 20 36 -100 75 -142 119 -131 29 7 43 41 51
126 3 36 13 88 22 117 8 29 13 59 10 68 -9 22 -43 18 -61 -7z"/>
<path d="M8629 558 c-10 -18 -8 -24 11 -40 12 -10 33 -18 46 -18 13 0 24 -3
24 -7 1 -50 22 -199 30 -214 6 -10 19 -19 28 -19 31 0 40 18 31 68 -4 26 -10
75 -13 110 l-6 62 38 0 c49 0 77 19 68 47 -5 17 -18 21 -83 27 -134 11 -161 9
-174 -16z"/>
<path d="M7766 549 c-40 -32 -58 -75 -63 -158 -9 -127 25 -198 80 -169 21 11
22 31 1 63 -20 31 -7 32 46 5 48 -24 95 -26 104 -4 9 22 -10 43 -56 61 -21 8
-38 17 -38 20 0 3 11 18 25 35 36 43 34 100 -4 139 -35 34 -59 36 -95 8z m54
-77 c0 -11 -9 -27 -20 -37 -19 -17 -20 -17 -20 -1 0 23 18 56 30 56 6 0 10 -8
10 -18z"/>
<path d="M8158 550 c-43 -13 -85 -47 -96 -79 -13 -37 5 -66 76 -121 28 -22 52
-45 52 -50 0 -15 -38 -12 -64 5 -29 19 -56 10 -56 -20 0 -37 35 -60 95 -60
128 0 127 116 -1 195 -19 12 -34 26 -34 30 0 15 40 32 78 34 49 2 66 30 33 57
-25 20 -40 22 -83 9z"/>
<path d="M8418 532 c-13 -16 -35 -56 -48 -90 -14 -34 -30 -62 -36 -62 -18 0
-22 -19 -16 -85 5 -66 22 -91 53 -75 12 7 19 24 21 53 3 42 3 42 46 45 35 3
42 0 42 -15 0 -31 30 -64 53 -61 19 3 22 10 22 45 0 22 3 45 8 49 14 14 7 43
-13 57 -14 10 -24 33 -30 70 -5 31 -14 65 -20 77 -15 29 -54 25 -82 -8z m41
-134 c1 -5 -6 -8 -15 -8 -11 0 -14 5 -10 16 3 9 6 21 7 27 0 12 17 -20 18 -35z"/>
<path d="M8992 538 c6 -18 28 -21 28 -4 0 9 -7 16 -16 16 -9 0 -14 -5 -12 -12z"/>
<path d="M7495 530 c-38 -4 -82 -13 -97 -20 -25 -12 -27 -18 -33 -106 -7 -83
-5 -98 14 -136 25 -52 65 -78 120 -78 47 0 115 31 125 56 7 18 -10 44 -29 44
-7 0 -26 -7 -41 -15 -45 -23 -79 -19 -104 13 l-22 27 44 8 c94 19 123 31 126
55 5 30 -16 36 -93 25 -52 -8 -65 -7 -65 4 0 7 4 13 9 13 5 0 11 9 14 20 4 16
14 20 49 21 74 2 103 12 106 37 3 16 -4 25 -23 32 -14 5 -27 9 -28 9 -1 -1
-33 -5 -72 -9z"/>
<path d="M5440 513 c-15 -6 -30 -23 -30 -35 0 -17 35 -38 64 -38 l32 0 18
-107 c19 -115 27 -133 58 -133 28 0 33 26 19 104 -7 39 -15 88 -18 108 l-5 37
53 3 c48 3 54 6 57 27 2 13 -2 28 -10 32 -14 10 -214 11 -238 2z"/>
<path d="M7252 511 c-16 -10 -42 -93 -42 -133 0 -17 -4 -27 -10 -23 -5 3 -10
26 -10 51 0 48 -19 66 -49 47 -23 -14 -25 -65 -6 -143 22 -88 47 -130 80 -130
34 0 44 25 56 132 6 51 17 112 25 136 12 34 13 47 3 58 -13 16 -28 18 -47 5z"/>
<path d="M3839 494 c-8 -10 -16 -62 -20 -136 -4 -66 -10 -123 -13 -126 -3 -3
-22 31 -42 74 -43 91 -60 114 -85 114 -27 0 -46 -35 -69 -130 -33 -139 -24
-220 25 -220 23 0 29 21 31 100 1 41 6 86 11 100 10 24 11 24 36 -25 48 -95
102 -129 141 -89 22 21 25 40 35 194 9 135 5 160 -24 160 -7 0 -18 -7 -26 -16z"/>
<path d="M9114 491 c-62 -38 -110 -122 -98 -173 7 -33 55 -68 92 -68 36 0 80
27 97 60 20 40 19 79 -5 118 -11 18 -18 37 -15 42 5 8 -21 40 -33 40 -4 0 -21
-9 -38 -19z m36 -127 c0 -17 -28 -44 -46 -44 -19 0 -18 35 3 66 16 25 17 25
30 8 7 -10 13 -23 13 -30z"/>
<path d="M3053 485 c-35 -24 -53 -106 -60 -260 -5 -125 -4 -142 11 -155 33
-27 51 -1 54 77 l3 71 51 6 c100 14 136 93 87 193 -37 76 -96 103 -146 68z
m72 -79 c9 -13 19 -40 22 -60 5 -32 3 -37 -21 -46 -54 -20 -59 -15 -52 44 10
91 23 106 51 62z"/>
<path d="M5817 488 c-87 -23 -119 -93 -77 -171 l20 -37 -25 0 c-21 0 -25 -5
-25 -29 0 -47 82 -86 129 -62 32 18 27 63 -15 125 -51 78 -41 100 51 108 24 2
31 8 33 30 3 22 -2 30 -23 38 -14 5 -27 10 -28 9 -1 -1 -19 -6 -40 -11z"/>
<path d="M2394 453 c-33 -36 -64 -141 -64 -219 0 -57 3 -65 26 -80 24 -16 26
-16 47 4 17 17 19 24 9 34 -7 7 -12 25 -12 40 0 24 4 28 28 28 15 1 68 -21
118 -47 79 -41 94 -46 108 -34 32 27 19 49 -56 88 l-73 38 3 52 c5 76 -25 122
-81 123 -18 0 -37 -10 -53 -27z m66 -79 c0 -23 -24 -43 -37 -31 -9 9 18 68 28
61 5 -3 9 -16 9 -30z"/>
<path d="M4992 467 c-6 -7 -13 -60 -14 -123 l-3 -109 -28 60 c-59 127 -61 130
-87 130 -34 0 -46 -30 -60 -151 -12 -114 -8 -134 26 -134 29 0 44 31 44 93 l0
42 26 -45 c38 -66 53 -80 90 -80 53 0 66 36 67 194 l2 131 -26 3 c-14 2 -31
-3 -37 -11z"/>
<path d="M5331 458 c-5 -13 -19 -55 -30 -94 -36 -126 -73 -124 -81 4 -4 64 -8
77 -23 80 -34 7 -47 -17 -47 -85 0 -104 37 -163 104 -163 61 0 129 119 130
230 1 39 -2 45 -21 48 -16 2 -26 -3 -32 -20z"/>
<path d="M8896 467 c-25 -18 -27 -139 -3 -184 17 -32 48 -50 67 -38 13 8 13
52 0 60 -5 3 -10 39 -10 79 0 88 -15 111 -54 83z"/>
<path d="M6985 446 c-22 -22 -25 -34 -25 -95 0 -38 -4 -72 -9 -75 -5 -3 -15
18 -21 47 -22 91 -36 117 -64 117 -30 0 -47 -23 -72 -100 -26 -79 -25 -154 2
-181 27 -27 64 -18 64 15 0 12 -5 27 -10 32 -7 7 -8 28 -4 53 8 48 14 45 38
-20 21 -58 46 -81 83 -77 39 4 53 40 60 149 3 49 10 92 15 95 15 10 8 43 -12
54 -17 9 -25 6 -45 -14z"/>
<path d="M551 432 c-33 -27 -35 -33 -47 -133 -15 -121 -17 -208 -5 -227 4 -8
19 -12 32 -10 19 2 25 11 31 47 9 51 13 57 50 66 25 6 28 4 37 -33 13 -45 32
-65 58 -60 26 5 20 63 -25 242 -33 129 -70 160 -131 108z m63 -136 c7 -37 -2
-55 -26 -56 -10 0 -10 82 -2 105 9 22 19 5 28 -49z"/>
<path d="M2023 431 c-66 -17 -79 -33 -86 -108 -12 -119 -10 -132 24 -165 28
-29 34 -30 88 -25 89 8 140 41 125 82 -8 19 -32 19 -79 -1 -48 -20 -90 -15
-90 10 0 16 12 22 62 32 75 15 83 19 83 44 0 28 -31 41 -71 30 -49 -14 -58
-13 -52 10 4 14 17 22 45 26 44 8 71 28 66 53 -4 18 -62 24 -115 12z"/>
<path d="M3314 413 c-32 -34 -114 -198 -114 -229 0 -23 33 -54 57 -54 7 0 22
9 33 20 16 16 18 25 10 40 -10 18 -7 20 30 20 36 0 42 -3 51 -29 12 -34 35
-46 55 -30 13 11 14 84 1 119 -2 8 -10 41 -17 73 -12 59 -37 97 -65 97 -8 0
-26 -12 -41 -27z m46 -120 c0 -7 -9 -13 -20 -13 -23 0 -24 4 -9 32 9 17 13 18
20 7 5 -8 9 -20 9 -26z"/>
<path d="M4300 410 c-24 -24 -25 -48 -5 -160 8 -47 15 -101 15 -120 0 -20 5
-41 12 -48 28 -28 137 -2 170 41 16 21 17 21 37 3 26 -24 97 -24 147 0 124 61
106 234 -26 234 -41 0 -106 -43 -132 -86 l-21 -36 -12 35 c-28 82 -96 157
-141 157 -13 0 -33 -9 -44 -20z m120 -166 c19 -53 20 -94 0 -94 -5 0 -15 -3
-24 -6 -14 -5 -16 5 -16 75 0 45 4 81 9 81 5 0 19 -25 31 -56z m270 9 c0 -38
-70 -90 -104 -77 -20 8 -20 43 0 72 12 18 23 22 60 20 25 -2 44 -8 44 -15z"/>
<path d="M1152 404 c-59 -25 -78 -123 -49 -260 15 -73 40 -114 68 -114 29 0
35 27 16 76 -17 47 -15 54 21 54 14 0 38 14 58 34 28 28 34 42 34 75 0 95 -77
165 -148 135z m62 -86 c31 -43 14 -88 -31 -88 -19 0 -23 5 -23 33 0 74 24 98
54 55z"/>
<path d="M6265 411 c-28 -12 -52 -41 -70 -84 -20 -48 -19 -72 5 -122 36 -75
133 -101 238 -66 53 18 69 20 100 10 85 -25 192 41 192 118 0 65 -52 101 -158
110 -62 5 -70 4 -97 -20 -26 -22 -30 -32 -31 -84 -2 -58 -2 -58 -40 -71 -111
-37 -197 56 -123 132 18 19 20 19 75 2 52 -16 58 -17 73 -2 12 13 13 21 5 34
-23 37 -124 63 -169 43z m376 -121 c37 -20 18 -53 -41 -70 -42 -12 -78 3 -86
35 -11 44 -1 53 56 49 29 -3 60 -9 71 -14z"/>
<path d="M1641 396 c-25 -30 -9 -51 41 -54 l46 -3 4 -108 c2 -91 6 -113 22
-130 11 -12 29 -21 40 -19 17 2 20 9 18 33 -2 17 -5 73 -8 127 -6 92 -5 96 16
103 16 5 20 13 18 33 -3 27 -4 27 -94 30 -71 2 -94 -1 -103 -12z"/>
<path d="M1445 380 c-92 -19 -126 -50 -102 -95 6 -11 9 -42 8 -69 -5 -88 29
-131 112 -142 48 -7 113 15 124 41 3 9 -1 24 -10 33 -14 13 -21 14 -56 2 -45
-15 -86 -8 -95 16 -8 22 -6 23 56 44 55 18 75 37 65 64 -7 18 -48 21 -79 5
-23 -13 -31 -8 -22 14 3 9 22 19 42 22 66 11 85 31 57 59 -18 17 -37 18 -100
6z"/>
</g>
</svg>
