<?xml version="1.0" standalone="no"?>
<!DOCTYPE svg PUBLIC "-//W3C//DTD SVG 20010904//EN"
 "http://www.w3.org/TR/2001/REC-SVG-20010904/DTD/svg10.dtd">
<svg version="1.0" xmlns="http://www.w3.org/2000/svg"
 width="1004.000000pt" height="60.000000pt" viewBox="0 0 1004.000000 60.000000"
 preserveAspectRatio="xMidYMid meet">

<g transform="translate(0.000000,60.000000) scale(0.100000,-0.100000)"
fill="#000000" stroke="none">
<path d="M8996 563 c5 -21 9 -85 9 -143 0 -127 -24 -207 -85 -288 -33 -44 -38
-56 -30 -72 16 -30 38 -24 77 17 91 100 137 312 102 473 -10 49 -12 50 -46 50
l-35 0 8 -37z"/>
<path d="M5082 568 c-33 -33 -1 -73 49 -61 41 11 58 35 40 57 -16 19 -72 21
-89 4z"/>
<path d="M7701 563 c-15 -14 -26 -45 -41 -126 -12 -59 -25 -117 -29 -130 l-9
-22 -10 25 c-5 14 -12 52 -16 85 -7 59 -18 77 -45 72 -21 -3 -29 -24 -42 -106
-14 -89 -29 -77 -35 27 -2 39 -9 72 -18 80 -18 18 -52 8 -59 -18 -7 -27 19
-167 39 -211 27 -62 77 -70 107 -19 18 29 18 29 37 10 26 -26 62 -25 87 3 30
33 31 37 53 144 11 54 25 115 31 135 9 29 9 41 -1 53 -16 19 -23 19 -49 -2z"/>
<path d="M4371 537 c-56 -28 -97 -175 -89 -321 5 -89 21 -131 71 -184 29 -30
36 -32 95 -32 54 0 63 3 60 17 -2 9 -21 22 -43 30 -53 18 -93 59 -106 108 -15
53 -5 208 17 266 16 43 19 46 53 45 30 -1 37 3 39 20 2 14 -7 29 -24 43 -31
24 -40 25 -73 8z"/>
<path d="M8763 531 c-87 -40 -90 -115 -8 -187 25 -21 45 -42 45 -46 0 -16 -54
-7 -87 13 -31 20 -36 20 -50 6 -26 -26 -9 -62 37 -81 62 -25 126 -21 155 9 14
13 25 33 25 43 0 25 -50 93 -84 115 -14 10 -26 24 -26 32 0 25 44 46 91 43 38
-3 44 0 47 18 7 52 -67 70 -145 35z"/>
<path d="M7897 523 c-20 -23 -63 -110 -72 -145 -4 -15 -13 -29 -21 -32 -16 -6
-19 -47 -5 -61 5 -6 11 -21 13 -35 2 -20 9 -25 33 -25 26 0 30 4 33 32 3 28 7
32 43 38 22 4 42 5 44 3 2 -2 10 -22 17 -43 14 -45 52 -61 65 -29 15 38 -50
287 -79 306 -22 13 -54 9 -71 -9z m47 -105 c10 -38 7 -45 -19 -50 -28 -6 -29
-3 -14 41 13 37 24 40 33 9z"/>
<path d="M8485 520 c-94 -23 -137 -61 -117 -105 7 -15 7 -37 1 -65 -13 -55 -4
-91 27 -121 21 -19 36 -24 77 -23 67 2 161 35 165 58 5 25 -18 48 -42 41 -137
-39 -156 -39 -156 1 0 22 4 24 54 24 74 0 106 13 106 44 0 31 -10 34 -87 28
-59 -4 -62 -4 -56 17 5 19 33 32 97 43 24 4 41 31 33 52 -7 17 -48 20 -102 6z"/>
<path d="M3768 504 c-92 -22 -133 -59 -110 -99 5 -10 3 -45 -5 -91 -13 -69
-13 -78 4 -112 36 -74 129 -79 270 -13 66 31 80 55 48 81 -13 11 -27 7 -83
-18 -88 -40 -144 -49 -166 -27 -22 23 -20 35 7 35 12 0 56 13 97 28 65 24 75
31 78 54 5 39 -24 43 -104 14 -38 -14 -70 -23 -73 -20 -3 2 3 18 12 33 9 16
14 36 11 44 -4 12 4 17 33 22 107 19 139 39 112 71 -14 17 -56 17 -131 -2z"/>
<path d="M8243 514 c-14 -6 -37 -74 -53 -158 -14 -69 -20 -63 -45 44 -26 117
-24 111 -53 108 -21 -2 -28 -9 -30 -31 -7 -55 61 -271 94 -298 20 -17 59 -3
72 25 6 13 16 53 22 88 6 35 18 93 27 130 14 55 15 69 4 82 -14 17 -18 18 -38
10z"/>
<path d="M6363 486 c-42 -36 -114 -192 -120 -263 -4 -47 -2 -61 12 -73 23 -19
49 -2 53 36 6 65 11 75 32 64 10 -5 36 -10 57 -10 38 0 39 -1 52 -47 19 -73
53 -102 81 -68 10 11 9 24 -4 61 -11 34 -13 51 -5 60 13 16 3 54 -14 54 -7 0
-19 34 -29 81 -27 128 -56 155 -115 105z m51 -138 c7 -37 6 -38 -21 -38 -50 0
-55 11 -26 59 28 48 35 44 47 -21z"/>
<path d="M6586 495 c-14 -37 37 -74 70 -50 16 11 16 17 6 39 -9 19 -19 26 -41
26 -16 0 -31 -6 -35 -15z"/>
<path d="M6834 490 c-11 -5 -32 -22 -46 -38 -70 -84 -58 -322 17 -322 31 0 40
29 20 66 -21 41 -19 64 5 64 12 0 63 -16 114 -35 100 -37 126 -37 126 1 0 26
-23 41 -107 68 l-53 18 15 28 c40 78 -19 176 -91 150z m31 -109 c-3 -12 -15
-26 -26 -31 -15 -9 -19 -7 -19 7 0 28 30 67 42 55 6 -6 7 -19 3 -31z"/>
<path d="M5375 455 c-5 -2 -27 -6 -47 -10 -25 -4 -39 -12 -43 -26 -11 -32 12
-50 55 -43 l37 6 6 -74 c6 -73 27 -149 48 -175 16 -18 48 -16 56 3 3 9 -2 38
-11 64 -9 26 -20 79 -23 118 l-6 71 43 3 c46 3 68 23 57 52 -5 13 -21 16 -84
15 -43 0 -82 -2 -88 -4z"/>
<path d="M5783 453 c-8 -3 -13 -25 -13 -58 l0 -53 -50 -11 c-28 -6 -53 -11
-56 -11 -3 0 -4 25 -2 56 2 45 -1 59 -14 67 -30 20 -49 -12 -59 -98 -13 -122
11 -196 61 -180 19 6 21 12 16 45 -6 37 -5 38 32 45 20 3 46 9 58 11 18 5 22
0 28 -38 9 -58 31 -90 59 -86 18 3 22 9 19 38 -12 163 -24 249 -35 268 -8 12
-23 14 -44 5z"/>
<path d="M1101 441 c-11 -7 -17 -47 -24 -162 -4 -84 -6 -168 -2 -186 12 -64
72 -79 170 -41 64 24 86 51 61 76 -14 14 -21 14 -81 -7 -47 -17 -69 -21 -77
-13 -7 7 -7 56 1 164 10 139 9 154 -6 166 -20 14 -23 15 -42 3z"/>
<path d="M1354 436 c-18 -14 -18 -17 -4 -43 18 -32 51 -41 69 -19 10 12 10 20
0 38 -21 40 -36 45 -65 24z"/>
<path d="M2009 428 c-8 -15 -10 -54 -5 -130 4 -59 5 -108 3 -108 -3 0 -30 38
-62 85 -49 74 -61 85 -86 85 -19 0 -34 -8 -45 -25 -21 -33 -30 -133 -14 -179
10 -32 16 -37 38 -34 27 3 27 4 24 71 -2 37 -2 67 1 67 3 0 26 -29 51 -64 47
-65 92 -106 118 -106 8 0 23 9 32 19 15 16 17 37 13 169 -3 82 -8 155 -11 161
-12 19 -45 12 -57 -11z"/>
<path d="M2536 408 c-32 -18 -37 -54 -21 -154 8 -52 15 -107 15 -124 0 -28 -2
-30 -39 -30 -63 0 -81 -52 -22 -67 57 -15 195 -8 234 11 54 27 76 73 58 124
-17 48 -90 157 -135 203 -40 41 -65 51 -90 37z m113 -182 c62 -89 57 -126 -15
-126 -32 0 -34 2 -34 33 0 39 12 137 16 137 2 0 17 -20 33 -44z"/>
<path d="M6595 406 c-16 -11 -16 -19 -5 -92 16 -97 25 -116 53 -112 28 4 32
37 17 129 -13 76 -33 99 -65 75z"/>
<path d="M4873 378 c-6 -7 -16 -49 -23 -93 -13 -94 -19 -115 -29 -115 -13 0
-50 75 -64 131 -16 59 -37 80 -64 63 -14 -9 -20 -31 -25 -98 -3 -48 -9 -90
-12 -93 -19 -19 -48 68 -50 150 -1 49 -3 52 -28 55 -52 6 -58 -61 -20 -187 38
-124 123 -148 162 -46 l11 29 20 -31 c11 -17 33 -36 49 -43 47 -20 79 7 105
85 6 19 8 18 27 -8 44 -60 117 -74 167 -32 21 18 37 24 54 20 15 -4 28 -1 37
10 12 14 11 21 -5 47 -13 22 -18 48 -16 86 2 57 -10 82 -40 82 -26 0 -33 -16
-40 -93 -6 -71 -27 -107 -60 -107 -25 0 -53 43 -81 125 -18 53 -29 71 -44 73
-12 2 -26 -3 -31 -10z"/>
<path d="M3387 353 c-8 -10 -22 -44 -30 -76 -9 -33 -18 -61 -20 -63 -2 -3 -16
22 -30 55 -41 94 -89 105 -126 28 -28 -59 -35 -110 -21 -152 15 -45 53 -73 75
-55 19 16 19 35 -1 64 -11 18 -13 32 -6 58 l9 33 26 -52 c15 -29 38 -60 52
-69 41 -27 66 -9 95 70 l11 29 26 -41 c28 -43 63 -65 88 -56 24 9 18 43 -15
80 -16 19 -34 53 -40 76 -22 83 -58 110 -93 71z"/>
<path d="M1595 343 c-31 -8 -83 -51 -100 -83 -8 -16 -15 -49 -15 -74 0 -37 5
-48 28 -66 52 -42 170 -6 213 64 31 51 25 83 -23 127 -41 37 -58 43 -103 32z
m58 -87 c15 -11 16 -19 8 -34 -11 -21 -68 -52 -95 -52 -23 0 -20 42 5 74 22
29 54 33 82 12z"/>
<path d="M2895 289 c-92 -71 -110 -158 -42 -199 88 -54 227 17 227 115 0 48
-23 91 -60 110 -44 23 -70 17 -125 -26z m110 -59 c14 -45 -30 -90 -90 -90 -53
0 -36 58 28 92 42 23 54 22 62 -2z"/>
<path d="M1335 303 c-13 -13 -16 -27 -11 -61 9 -67 27 -119 48 -142 21 -22 27
-24 48 -10 12 8 13 15 1 52 -8 24 -14 67 -15 96 -1 41 -6 57 -20 68 -25 18
-31 18 -51 -3z"/>
</g>
</svg>
