<?xml version="1.0" standalone="no"?>
<!DOCTYPE svg PUBLIC "-//W3C//DTD SVG 20010904//EN"
 "http://www.w3.org/TR/2001/REC-SVG-20010904/DTD/svg10.dtd">
<svg version="1.0" xmlns="http://www.w3.org/2000/svg"
 width="1004.000000pt" height="52.000000pt" viewBox="0 0 1004.000000 52.000000"
 preserveAspectRatio="xMidYMid meet">

<g transform="translate(0.000000,52.000000) scale(0.100000,-0.100000)"
fill="#000000" stroke="none">
<path d="M4575 504 c-116 -18 -117 -19 -113 -51 3 -27 5 -28 58 -28 l54 0 23
-100 c38 -167 44 -184 65 -191 12 -3 26 0 34 8 13 12 11 29 -10 119 -41 172
-41 175 -14 182 12 4 37 7 55 7 53 0 85 17 81 43 -3 20 -9 22 -73 23 -38 1
-110 -5 -160 -12z"/>
<path d="M6147 380 c5 -106 3 -140 -6 -140 -15 0 -43 63 -67 148 -13 49 -23
67 -42 75 -47 21 -87 -53 -99 -181 -7 -73 8 -112 42 -112 32 0 49 24 36 49
-13 24 -14 81 -2 100 7 10 10 6 15 -15 12 -52 64 -133 91 -140 42 -10 71 3 89
41 14 29 17 61 14 175 l-2 140 -38 0 -37 0 6 -140z"/>
<path d="M6419 489 c-46 -66 -64 -192 -34 -249 30 -57 132 -82 187 -46 30 19
38 13 38 -29 0 -37 15 -55 46 -55 31 0 36 24 20 94 -25 104 -74 146 -175 149
-69 1 -68 1 -29 84 16 35 25 42 51 45 21 2 33 9 35 21 3 15 -5 17 -57 17 -55
0 -61 -2 -82 -31z m89 -215 c27 -8 29 -20 4 -26 -22 -6 -62 8 -62 22 0 11 23
13 58 4z"/>
<path d="M5389 484 c-10 -13 -11 -37 -1 -132 15 -144 27 -188 54 -203 19 -10
25 -8 48 19 l26 31 82 -17 c88 -18 117 -12 117 23 0 23 -16 30 -95 45 -76 14
-89 23 -68 47 9 10 30 44 48 76 28 50 31 62 22 83 -19 39 -56 32 -90 -18 -15
-24 -34 -59 -42 -78 -22 -59 -28 -55 -35 26 -4 44 -9 87 -11 97 -7 21 -37 22
-55 1z"/>
<path d="M4882 483 c-28 -6 -36 -22 -52 -108 -7 -38 -18 -81 -24 -95 -6 -14
-10 -51 -8 -82 2 -48 6 -58 24 -64 27 -8 43 13 52 65 5 33 10 39 37 45 60 12
66 9 79 -41 11 -46 34 -83 51 -83 4 0 14 7 22 15 13 12 11 28 -15 126 -34 133
-64 206 -89 219 -18 10 -36 11 -77 3z m72 -154 c-2 -4 -15 -9 -29 -11 -29 -6
-32 9 -13 63 l12 34 17 -40 c10 -21 16 -42 13 -46z"/>
<path d="M5772 478 c5 -15 28 -18 29 -3 0 6 -7 12 -17 13 -10 3 -15 -1 -12
-10z"/>
<path d="M4006 472 c-3 -5 -6 -45 -7 -89 -1 -44 -5 -98 -8 -119 l-7 -39 -25
40 c-14 22 -33 61 -43 87 -28 75 -69 75 -88 0 -10 -42 -12 -44 -20 -22 -5 13
-10 37 -12 53 -5 38 -19 51 -50 43 -33 -8 -34 -31 -1 -133 35 -110 64 -157 98
-161 21 -3 29 2 37 23 5 14 10 38 10 53 l0 27 30 -37 c65 -79 127 -65 141 33
9 66 11 212 3 233 -6 17 -49 22 -58 8z"/>
<path d="M3253 459 c-96 -14 -115 -24 -111 -57 2 -21 9 -28 29 -30 24 -3 27
-8 33 -55 12 -107 1 -207 -25 -207 -16 0 -31 42 -33 93 -2 34 -8 54 -20 63
-40 28 -63 -13 -52 -92 13 -101 78 -165 134 -133 47 26 67 83 67 189 0 52 -3
109 -7 126 l-7 32 59 6 c64 7 91 27 73 54 -12 20 -55 23 -140 11z"/>
<path d="M5114 458 c-4 -7 -7 -49 -7 -95 2 -147 54 -210 152 -183 39 10 71 33
71 50 0 8 -28 40 -34 40 -2 0 -21 -7 -42 -16 -37 -15 -39 -15 -56 6 -14 17
-18 40 -18 100 0 43 -3 85 -6 94 -7 19 -50 21 -60 4z"/>
<path d="M3518 436 c-40 -20 -52 -77 -39 -181 15 -117 41 -175 76 -175 34 0
41 21 21 70 l-16 40 28 5 c113 23 131 113 42 203 -44 44 -78 55 -112 38z m96
-151 c-4 -8 -18 -15 -34 -15 -23 0 -30 5 -35 30 -4 16 -3 40 1 52 6 21 8 21
40 -15 20 -22 31 -42 28 -52z"/>
<path d="M5745 420 c-4 -6 -7 -56 -7 -111 0 -80 3 -105 16 -117 13 -13 20 -14
34 -6 14 9 18 29 20 114 2 67 -1 107 -9 116 -13 16 -45 19 -54 4z"/>
</g>
</svg>
