<?xml version="1.0" standalone="no"?>
<!DOCTYPE svg PUBLIC "-//W3C//DTD SVG 20010904//EN"
 "http://www.w3.org/TR/2001/REC-SVG-20010904/DTD/svg10.dtd">
<svg version="1.0" xmlns="http://www.w3.org/2000/svg"
 width="1004.000000pt" height="48.000000pt" viewBox="0 0 1004.000000 48.000000"
 preserveAspectRatio="xMidYMid meet">

<g transform="translate(0.000000,48.000000) scale(0.100000,-0.100000)"
fill="#000000" stroke="none">
<path d="M2244 463 c-42 -43 -55 -131 -33 -232 12 -57 38 -86 68 -76 23 7 27
35 11 66 -14 26 -4 25 89 -11 87 -34 114 -32 109 8 -2 22 -13 30 -66 51 -55
21 -63 27 -57 45 21 65 8 121 -34 153 -23 18 -67 16 -87 -4z m60 -78 c7 -20
-2 -42 -20 -49 -15 -6 -17 6 -8 42 7 25 19 29 28 7z"/>
<path d="M2460 476 c0 -24 26 -67 45 -72 20 -5 23 -13 28 -82 6 -95 40 -180
75 -189 38 -9 112 3 141 24 40 30 55 67 41 106 -12 38 -74 108 -149 172 -52
43 -58 45 -118 45 -35 0 -63 -2 -63 -4z m224 -181 c41 -49 45 -70 17 -85 -27
-14 -72 -13 -70 3 4 30 -2 57 -16 71 -8 8 -15 31 -15 51 0 35 0 35 24 19 14
-8 41 -35 60 -59z"/>
<path d="M2889 451 c-33 -33 -34 -40 -16 -65 10 -14 11 -28 4 -55 -13 -50 -2
-88 36 -126 42 -42 91 -51 162 -30 79 23 103 53 62 79 -11 7 -27 7 -53 -3 -56
-20 -105 -17 -126 9 -10 12 -18 26 -18 30 0 4 31 11 69 15 86 9 116 23 116 55
0 28 -15 30 -132 15 -35 -4 -63 -5 -63 -1 0 26 26 46 85 61 36 10 70 24 76 31
10 12 -4 14 -81 14 -88 0 -93 -1 -121 -29z"/>
<path d="M3264 461 c-36 -22 -50 -61 -33 -94 6 -12 30 -39 53 -59 27 -25 36
-37 25 -38 -9 0 -22 7 -29 15 -14 17 -56 20 -65 4 -12 -19 4 -54 34 -72 17
-10 50 -17 80 -17 43 0 53 4 67 25 22 34 6 73 -52 124 -24 21 -44 42 -44 45 0
13 69 36 108 36 39 0 62 14 62 37 0 22 -168 17 -206 -6z"/>
<path d="M3762 453 c-16 -42 -30 -101 -37 -164 -8 -68 14 -167 51 -222 31 -47
86 -76 109 -57 22 18 19 36 -14 62 -41 33 -59 67 -71 127 -11 60 0 156 26 221
15 37 19 40 54 40 22 0 42 5 45 10 4 6 -23 10 -73 10 -78 0 -80 -1 -90 -27z"/>
<path d="M4400 472 c0 -16 36 -42 57 -42 21 0 38 24 27 41 -7 11 -84 12 -84 1z"/>
<path d="M6994 465 c-15 -39 23 -66 62 -45 17 10 28 10 35 3 15 -15 17 -205 2
-210 -7 -2 -13 7 -15 23 -7 63 -68 52 -68 -13 0 -74 90 -111 141 -57 22 23 24
34 24 112 0 48 -2 102 -5 121 -5 33 -4 34 35 38 54 5 65 10 65 28 0 22 -268
23 -276 0z"/>
<path d="M7290 461 c-13 -26 -13 -101 1 -157 23 -90 99 -132 147 -82 31 34 42
71 49 170 l6 89 -34 -3 -34 -3 -8 -83 c-4 -46 -12 -93 -18 -105 -11 -20 -12
-20 -25 -2 -17 23 -28 96 -21 139 3 19 0 39 -6 45 -17 17 -45 13 -57 -8z"/>
<path d="M7622 448 c-23 -37 -62 -180 -62 -226 0 -52 51 -53 69 -2 14 41 54
50 80 19 16 -20 23 -22 38 -13 20 13 20 16 4 134 -17 123 -16 120 -66 120 -38
0 -46 -4 -63 -32z m54 -115 c-11 -11 -19 6 -11 24 8 17 8 17 12 0 3 -10 2 -21
-1 -24z"/>
<path d="M7902 453 c-42 -107 -54 -220 -27 -243 24 -20 50 -8 53 25 1 17 5 50
8 74 l6 44 24 -41 c27 -46 53 -59 84 -42 28 15 36 40 45 133 l7 77 -35 0 c-40
0 -47 -11 -48 -73 l-1 -42 -15 58 c-15 57 -15 57 -53 57 -32 0 -39 -4 -48 -27z"/>
<path d="M8210 398 c0 -94 -16 -165 -50 -224 -27 -47 -22 -74 14 -74 18 0 30
11 49 43 40 68 57 141 57 244 l0 93 -35 0 -35 0 0 -82z"/>
<path d="M6489 433 c-6 -16 -12 -66 -13 -113 -1 -92 12 -127 55 -150 49 -27
168 -2 184 38 3 8 -1 22 -9 30 -12 13 -22 13 -59 3 -67 -19 -90 -12 -99 29 -4
19 -2 65 3 102 12 76 8 88 -27 88 -17 0 -28 -8 -35 -27z"/>
<path d="M1386 418 c-15 -24 -50 -161 -61 -239 -4 -34 -2 -49 9 -58 26 -22 50
-8 62 34 9 33 15 40 37 41 35 1 41 -3 70 -63 29 -57 60 -75 85 -49 14 14 13
20 -12 66 -16 29 -25 58 -21 68 3 12 -3 28 -18 43 -12 14 -31 52 -41 85 -26
84 -29 89 -64 92 -23 2 -34 -2 -46 -20z m58 -133 c3 -9 0 -15 -9 -15 -8 0 -15
7 -15 15 0 8 4 15 9 15 5 0 11 -7 15 -15z"/>
<path d="M4675 414 c-66 -7 -121 -12 -123 -13 -2 -1 -2 -13 0 -28 3 -26 6 -28
60 -31 63 -3 58 3 74 -102 11 -76 29 -110 59 -110 31 0 41 21 26 58 -18 44
-30 153 -17 157 55 13 71 22 74 42 5 35 -23 40 -153 27z"/>
<path d="M5996 398 c-28 -37 -64 -137 -73 -203 -8 -63 11 -107 46 -103 23 3
26 7 25 41 l-1 37 51 0 c46 0 53 -3 68 -31 13 -22 24 -30 40 -27 19 2 23 9 21
33 -2 36 -75 248 -93 270 -21 25 -57 18 -84 -17z m53 -90 c25 -66 24 -68 -8
-68 -35 0 -35 -1 -19 51 13 45 16 47 27 17z"/>
<path d="M1755 408 c-82 -23 -121 -119 -80 -198 23 -44 91 -74 133 -59 42 16
21 69 -28 69 -34 0 -50 17 -50 55 0 43 27 65 77 65 42 0 58 15 47 45 -4 8 -7
15 -8 15 0 0 -15 4 -31 8 -17 5 -43 5 -60 0z"/>
<path d="M5693 411 c-123 -7 -151 -19 -138 -60 6 -20 11 -22 59 -16 l52 7 12
-89 c16 -117 33 -173 58 -190 19 -12 24 -12 38 3 10 10 14 23 10 33 -15 38
-33 117 -39 177 l-7 64 30 0 c47 0 82 17 82 39 0 17 -31 46 -42 39 -2 -1 -53
-4 -115 -7z"/>
<path d="M6229 398 c-15 -28 -5 -163 15 -212 28 -68 88 -82 173 -39 49 24 63
48 41 69 -16 16 -20 16 -67 -4 -27 -12 -54 -22 -60 -22 -21 0 -34 45 -37 127
-2 47 -6 89 -9 94 -11 17 -44 9 -56 -13z"/>
<path d="M4444 389 c-4 -7 -7 -48 -7 -93 -1 -90 16 -139 49 -144 29 -4 48 21
35 47 -6 11 -11 55 -11 98 0 48 -5 84 -12 91 -15 15 -45 16 -54 1z"/>
<path d="M5050 385 c-11 -13 -11 -23 -1 -51 7 -18 9 -38 6 -44 -3 -5 -29 -10
-57 -10 l-50 0 6 43 c8 50 -9 73 -43 62 -37 -11 -41 -158 -6 -241 18 -44 59
-64 82 -42 16 16 15 21 -12 68 -18 32 -11 38 50 41 l50 3 7 -43 c9 -54 32 -91
57 -91 25 0 34 26 22 64 -5 17 -15 63 -20 103 -16 104 -32 147 -57 151 -11 2
-27 -4 -34 -13z"/>
<path d="M4277 372 c-10 -10 -17 -32 -17 -48 0 -54 -13 -134 -21 -134 -4 0
-15 26 -25 58 -26 89 -32 102 -53 102 -28 0 -38 -19 -46 -85 -11 -111 -17
-135 -27 -129 -17 11 -49 97 -56 154 -7 53 -8 55 -37 55 -28 0 -30 -3 -33 -41
-4 -48 27 -148 64 -205 49 -79 114 -76 136 5 l12 45 24 -20 c45 -35 94 -20
111 34 6 18 15 70 19 116 7 66 5 86 -6 97 -18 18 -26 18 -45 -4z"/>
<path d="M1931 364 c-32 -23 -61 -90 -61 -142 0 -86 82 -128 158 -82 85 52 97
169 22 227 -22 18 -92 16 -119 -3z m87 -66 c20 -20 14 -57 -13 -84 -32 -31
-59 -28 -63 8 -7 58 43 109 76 76z"/>
</g>
</svg>
