<svg id="Capa_1" data-name="Capa 1" xmlns="http://www.w3.org/2000/svg" viewBox="0 0 648.77 231.44"><defs><style>.cls-1{fill:#1d1d1b;}</style></defs><title>titulo Who me</title><path class="cls-1" d="M136.84,91.3c-5.9,1.91-8.24,7.07-7.32,12.89.07.44.12.73.16.91s0,.32,0,.52c.11,1.06.21,2.12.28,3.19q.18,2.66.18,5.31c0,2.13-.09,4.26-.26,6.39-.08.88-.19,1.76-.27,2.65v.1l-.12.8a87.27,87.27,0,0,1-2.74,11.38c-.31.94-.65,1.87-1,2.81,0,.13-.08.23-.11.33l-.17.3c-.34.62-.65,1.25-1,1.85-.08.13-.17.26-.26.38l-.12.13-.34.25-.32.09a2.74,2.74,0,0,0-.8-.06c-.36-.08-.72-.15-1.07-.25-.78-.21-1.52-.52-2.29-.75,2.21.66-.09-.08-.58-.34-.75-.39-1.48-.82-2.2-1.27l-.89-.61-1-.84c-.63-.57-1.24-1.16-1.82-1.78-.43-.46-.84-1-1.24-1.44l-.51-.76a32.43,32.43,0,0,1-1.82-3.25c.22.4-.48-1.13-.59-1.48-.26-.8-.47-1.62-.67-2.45-2.43-10.07-17.65-9.88-20.2,0-.46,1.8-1,3.57-1.58,5.32-.26.74-.55,1.47-.83,2.2-.1.23-.24.57-.38.87a62.41,62.41,0,0,1-5.28,9.22c-.07.09-.74,1-1,1.36-.44.55-.89,1.1-1.35,1.64q-1.66,1.92-3.48,3.71l-.34.31c-.75-.83-1.48-1.68-2.22-2.53l0,0c-.22-.28-.43-.57-.64-.86-.46-.65-.91-1.3-1.35-2a68.43,68.43,0,0,1-5.28-9.61c-.11-.25-.27-.65-.39-1-.34-.89-.66-1.78-1-2.68-.55-1.65-1-3.33-1.47-5s-.82-3.7-1.15-5.58a4,4,0,0,0-.09-.47c0-.14,0-.29,0-.51-.07-.95-.16-1.9-.22-2.84-.36-5.46-4.57-10.74-10.48-10.48-5.37.24-10.85,4.62-10.47,10.48a81.34,81.34,0,0,0,7.79,30,69.12,69.12,0,0,0,6.86,11.37c3.3,4.44,6.83,9.05,11.75,11.8,7,3.94,14.5,2.17,20.42-2.75a59.88,59.88,0,0,0,8.92-9.43,80.57,80.57,0,0,0,4.91-7.08,50.29,50.29,0,0,0,4.44,3.78c8.56,6.42,21.44,9.86,31.07,3.73,8.92-5.69,12.34-17.19,14.29-27a94.54,94.54,0,0,0,.47-33.63C148.87,93.19,141.8,89.7,136.84,91.3Z"/><path class="cls-1" d="M230.18,118.43q-1.41-5.18-3.13-10.24c-.62-1.82-1.26-3.63-1.77-5.48-.22-.79-.43-1.58-.6-2.38-.06-.26-.1-.51-.14-.76s0-.29,0-.5C224.12,93.61,220,88.33,214,88.59c-5.35.24-10.88,4.62-10.47,10.48s2.1,11.12,3.85,16.51a248.13,248.13,0,0,0-25.77,3.22c-.24-1.58-.48-3.15-.7-4.73-.05-.42-.15-1.21-.19-1.52-.12-1-.24-1.93-.35-2.9-.27-2.25-.5-4.5-.73-6.75-.53-5.44-4.43-10.75-10.47-10.48-5.22.24-11.05,4.64-10.47,10.48a366.38,366.38,0,0,0,9.15,53.44c1.34,5.32,7.59,9,12.89,7.31a10.68,10.68,0,0,0,7.31-12.88c-.95-3.8-1.84-7.63-2.66-11.46,1.45-.27,2.9-.53,4.36-.76s3-.48,4.52-.7l1.51-.21-1.28.17a26.25,26.25,0,0,1,2.65-.32c5.19-.62,10.39-1,15.61-1.29.61,3.18,1.15,6.38,1.59,9.59.32,2.4,2.83,5.1,4.81,6.26a10.48,10.48,0,0,0,14.33-3.76c1.41-2.67,1.46-5.11,1.06-8.07A171.91,171.91,0,0,0,230.18,118.43Z"/><path class="cls-1" d="M451.74,86.55a10.58,10.58,0,0,0-17.5-4.62,108.84,108.84,0,0,0-18.34,23.34c-1.15-.29-2.3-.61-3.42-1-.16,0-1.68-.68-1.71-.66-.61-.29-1.22-.57-1.82-.89a47.43,47.43,0,0,1-4.25-2.61c-.06-.07-1.05-.79-1.35-1-.68-.6-1.34-1.22-2-1.83a52.76,52.76,0,0,0-5.58-4.55,19.53,19.53,0,0,0-15.11-3c-4.13.71-8.09,5.88-7.69,10.1q2,20.85,4.45,41.65c.64,5.42,4.36,10.74,10.47,10.47,5.13-.23,11.17-4.65,10.48-10.47q-1.31-11-2.47-22.07c.55.34,1.09.69,1.66,1a53.68,53.68,0,0,0,24.09,6.69,10.25,10.25,0,0,0,9-5.19A103.48,103.48,0,0,1,437,111q4.06,14.06,8.14,28.12c1.52,5.26,7.45,9.07,12.88,7.31s8.95-7.24,7.31-12.88Q458.54,110,451.74,86.55Z"/><path class="cls-1" d="M520.32,131.51a114.88,114.88,0,0,0-13.12-.18c-.9,0-6.46.59-10.5,1-.15-.46-.31-.91-.46-1.37-.39-1.16-.74-2.33-1.11-3.5q4.14-.8,8.32-1.39c2.08-.27,4.17-.52,6.26-.72a11.27,11.27,0,0,0,7.4-3.07,10.47,10.47,0,0,0,0-14.81c-1.93-1.78-4.68-3.33-7.4-3.07-6.74.65-13.45,1.59-20.1,2.87-.07-.31-.15-.62-.22-.93-.24-1.05-.45-2.11-.68-3.17,2-.53,3.9-1,5.87-1.44s4-.83,6-1.17l2-.32.52-.08.75-.09,2-.22c5.44-.57,10.75-4.41,10.48-10.47-.23-5.19-4.64-11.08-10.48-10.48A152.89,152.89,0,0,0,488,81.78c-5,1.15-10.72,2.28-15.18,4.9a13,13,0,0,0-6.2,11.63,52.79,52.79,0,0,0,1.48,8.63q1.61,7.77,3.67,15.42t4.58,15.17c1.85,5.5,3.85,11.3,9.27,14.31,3.95,2.19,8,2,12.34,1.29l.85-.15.53,0c1.39-.16,2.78-.31,4.18-.42a114.75,114.75,0,0,1,16.79,0c5.48.38,10.71-5.09,10.47-10.47C530.52,136,526.19,131.92,520.32,131.51Zm-36.15-27.24a4.18,4.18,0,0,1-1.43.72C482.81,104.75,483.4,104.5,484.17,104.27Z"/><path class="cls-1" d="M575.85,153.41c4.66-3,6.86-9.36,3.76-14.33a15.49,15.49,0,0,1-.79-1.36c0-.06,0-.12-.07-.19-.16-.51-.28-1-.39-1.56v-.06c0-1.06.06-2.14,0-3.19v0c.08-.44.16-.89.27-1.34a34.52,34.52,0,0,1,1-3.61c.18-.54.38-1.07.58-1.59l.13-.29q1.51-3.15,3.13-6.25c5.14-9.87,10.58-21.43,6.73-32.74s-16.08-17.45-27.2-19.77c-11.78-2.47-24-.41-32.94,8.12-4,3.8-4.1,11,0,14.81a10.69,10.69,0,0,0,14.82,0c.27-.28.57-.53.87-.79l.17-.12A23.16,23.16,0,0,0,548,88c.28,0,1.5-.47,1.66-.52.62-.16,1.24-.3,1.87-.42a25.05,25.05,0,0,0,2.68-.07c.33,0,2,.14,2,.09a38.18,38.18,0,0,1,5.19,1.28c1.12.36,2.23.76,3.32,1.2.19.1,1.3.61,1.53.73.83.41,1.6.89,2.4,1.33.24.13.41.22.53.27l.24.28a8.31,8.31,0,0,1,.65.68,2.41,2.41,0,0,0,.2.38c.08.25.13.5.19.75s.06,1.66.06,1.87,0,.48,0,.64c-.06.31-.12.62-.19.92-.26,1.13-.58,2.23-.95,3.33-.09.26-.59,1.52-.67,1.78-.78,1.77-1.66,3.5-2.56,5.22A122.69,122.69,0,0,0,560,120.86c-3.49,9.22-3.81,20.2,1.55,28.79C564.42,154.29,571,156.53,575.85,153.41Z"/><path class="cls-1" d="M596.45,169.88a11.75,11.75,0,0,0-3.07-7.41A10.9,10.9,0,0,0,586,159.4H574.14l-2.79.38a7.8,7.8,0,0,0-3.56,1.87,5.29,5.29,0,0,0-1.88,1.88A7.9,7.9,0,0,0,564,167.1a19.19,19.19,0,0,0-.54,3.61,5.57,5.57,0,0,0,0,1,16.77,16.77,0,0,0,4.44,10.49,18.08,18.08,0,0,0,3.52,3,20.41,20.41,0,0,0,4.23,2,13.31,13.31,0,0,0,2.21.65,49,49,0,0,0,7.44.84,11.61,11.61,0,0,0,7.4-3.07,11,11,0,0,0,3.07-7.4l0-1.38a19.93,19.93,0,0,0,.66-4.67C596.53,171.37,596.49,170.62,596.45,169.88Z"/><path class="cls-1" d="M286.38,116.73c0-.29,0-.59,0-.87v-.07A3.31,3.31,0,0,0,286.38,116.73Z"/><path class="cls-1" d="M265.12,111.24l-.11.06a4.8,4.8,0,0,0,1-.34Z"/><path class="cls-1" d="M262,113.58a6.47,6.47,0,0,1-.56.59l-.05.09A1.36,1.36,0,0,0,262,113.58Z"/><path class="cls-1" d="M295.35,94c-5.69-3.82-13.31-5-20-5.17a42.32,42.32,0,0,0-16.91,2.68c-8,3.23-14.13,8.74-17.29,16.92s-1.87,16.71-.68,25c.33,2.29,2.57,4.8,4.51,6.05a36,36,0,0,0,27.83,18.66,31.87,31.87,0,0,0,18.88-3.68c7.17-3.89,11.21-10.82,13.08-18.54,1.67-6.84,3.31-14.12,2.48-21.18C306.22,106.18,302.58,98.81,295.35,94Zm-9.2,20.54-.42-1C286,113.9,286.2,114.32,286.15,114.49ZM285,112.14s0,0,0,0l-.26-.24A1,1,0,0,1,285,112.14Zm-1.31-.86-.54-.23A1.49,1.49,0,0,1,283.69,111.28Zm-13.13-1.48Zm10.16,26.74.57-.25A1.55,1.55,0,0,1,280.72,136.54Zm1.84-1.07a1.93,1.93,0,0,1-.32.22,3.76,3.76,0,0,1,.38-.33Zm3.81-14.27c0,.13,0,.33,0,.52-.13,1.23-.5,2.51-.74,3.69-.49,2.38-1,4.78-1.67,7.11-.16.53-.35,1-.53,1.58l-.14.18-.45.74q-.3.33-.63.63l-.15.15c-.38.21-.82.42-1,.49l-.32.17-.36.18-.48.13c-.76.23-1.53.36-2.29.54-.58,0-1.16.06-1.74.05-.37,0-.75,0-1.13-.05a21.8,21.8,0,0,0-2.88-.65c-.4-.12-.79-.27-1.2-.39h0c-1-.49-1.91-1-2.83-1.57a12.35,12.35,0,0,0-1.11-.81l0,0c-.65-.59-1.24-1.22-1.83-1.86-.22-.41-.74-1-.94-1.28s-.5-.92-.77-1.37l-.13-.21a13.22,13.22,0,0,0-2.7-4.28c-.07-.74-.15-1.47-.18-2.22a37.16,37.16,0,0,1,0-4c0-.19.1-.8.13-1.21l.12-.61c.12-.49.3-1,.42-1.48,0,0,0-.06,0-.09.2-.33.4-.69.59-1a2,2,0,0,1-.29.15,1.26,1.26,0,0,0,.34-.24l.19-.35c.29-.58.45-.5.37-.24.32-.38.63-.78.8-1,.38-.25.75-.51,1.14-.74s.7-.38,1.06-.57l-.44.12c.18,0,.36-.12.55-.18l.21-.11c.4-.22.81-.27.68-.17.43-.16.86-.32,1.3-.44.76-.21,1.53-.37,2.3-.53a13.44,13.44,0,0,0,1.73-.2,42.2,42.2,0,0,1,6,0c.44,0,.87.08,1.31.13h.06c1.22.26,2.43.47,3.63.83l.64.17.6.31c.17.09.52.24.84.41l.26.3s.22.2.45.44c.06.12.14.28.26.48l.33.52c.14.4.28.8.39,1.21s.19.76.28,1.14c0-.13,0-.25,0-.42,0,.16,0,.32,0,.49s0,.12,0,.18c.13.52,0,.87,0,.69.05.76.13,1.53.12,2.26S286.4,120.46,286.37,121.2Z"/></svg>