<svg id="Capa_1" data-name="Capa 1" xmlns="http://www.w3.org/2000/svg" viewBox="0 0 822 1196"><defs><style>.cls-1{fill:#fff;}</style></defs><title>título NAP</title><path class="cls-1" d="M784,1140H39V56H784ZM174.38,585.59c1.6-8.17,11-11.66,17.48-17,8.82-7.27,19.78-11.92,29.75-17.81a130.29,130.29,0,0,0,12.89-8.29c10-7.66,19.85-15.55,29.67-23.44,17.7-14.22,35.3-28.57,53-42.75,7.78-6.23,15.63-12.39,23.73-18.2,3.82-2.73,8.56-4.16,12.41-6.86,9.45-6.64,18.62-13.68,27.91-20.54Q393,422,404.79,413.33c9.45-7,18.85-14.05,28.35-21a4.42,4.42,0,0,1,3.59-.72,56.37,56.37,0,0,1,7.26,3.89c6,3.55,12.07,7.08,18,10.77s12.07,7.44,17.83,11.56c8.94,6.39,17.39,13.51,26.52,19.6,11.36,7.57,22.68,15,32.32,24.85,6.83,7,14.34,13.3,21.79,19.63,4.12,3.52,8.69,6.52,13.15,9.63,3.09,2.16,6.52,3.85,9.46,6.18,6.21,4.91,12,10.39,18.33,15.09,5.13,3.78,11.1,6.41,16.26,10.16,13.28,9.67,26.46,19.49,39.4,29.59,10.85,8.47,21.36,17.37,31.9,26.22,4.25,3.57,8.18,7.51,12.21,11.24,5.06-3.49,5.18-7.92.53-11.13a33.73,33.73,0,0,1-3.24-2.29c-7.42-6.58-14.78-13.23-22.23-19.79-3-2.61-6-5.16-9.19-7.5q-15.49-11.42-31.14-22.63c-11.21-8-22.51-15.93-33.7-24-6.35-4.58-12.55-9.38-18.84-14-1.57-1.17-3.25-2.2-4.89-3.29-6.18-4.09-12.59-7.9-18.48-12.37-4.4-3.33-8.1-7.56-12.18-11.32-6.81-6.28-13.39-12.87-20.62-18.63-6.56-5.22-13.89-9.47-20.84-14.2C490.29,418,474.27,407,458.18,396.12c-5.51-3.73-11.18-7.2-16.77-10.78.66-1,.77-1.4,1-1.57,15-10.46,30.12-20.87,45.14-31.37,7.12-5,14.06-10.19,21.2-15.12,2.92-2,6.23-3.46,9.25-5.35,4.55-2.87,8.94-6,13.51-8.86,4.19-2.62,9.54-4.15,12.61-7.69,9.82-11.29,23.24-17.43,35-26,7.65-5.57,16.08-10.05,24-15.28q13.39-8.88,26.45-18.25c6.51-4.69,12.39-10.31,19.17-14.52,7-4.36,13-11.18,22.23-11.39a2.28,2.28,0,0,0,1.66-.94c3.81-6.87,11.21-9.24,17-13.6,1.31-1,3.25-1.07,4.86-1.69.69-.26,1.68-.73,1.79-1.26a4,4,0,0,0-.63-2.51c-1-1.76-2.2-3.41-3.79-5.84-3.35,2.33-7.33,5.06-11.27,7.85-4.81,3.4-9.44,7.08-14.42,10.21-5.41,3.41-11.46,5.87-16.66,9.55-13.44,9.5-26.46,19.6-39.89,29.12-4.13,2.93-9.34,4.33-13.51,7.21-10,6.86-19.54,14.25-29.36,21.29-6.66,4.78-13.46,9.37-20.22,14-11.33,7.77-22.66,15.56-34.06,23.22-3.23,2.18-6.89,3.72-10.06,6-5.63,4-10.93,8.44-16.55,12.43-10.28,7.29-20.72,14.34-31,21.57-5.85,4.1-11.91,8-17.27,12.68-3.61,3.14-6.42,2-9.21-.16-4.71-3.59-9.55-6.76-13.86-11.23-9.31-9.65-20.36-17.66-30.87-26.12S362.78,325,352,317.1c-9.12-6.68-18.77-12.64-28.16-19-4.77-3.21-9.63-6.32-14.16-9.84-5.57-4.33-10.3-10-16.35-13.37-9.84-5.55-19.34-11.23-26.55-20.12-.4-.49-1.12-.69-1.63-1.1-3.34-2.65-7-5-10-8-6.72-6.71-13.27-13.49-21.51-18.51-7.15-4.35-13.83-9.47-20.74-14.22-13.83-9.5-27.76-18.86-41.49-28.51-4.33-3-7.65-2.06-11.65,1.5,4.17,2.5,8,4.77,11.85,7.12,6.74,4.15,13.67,8,20.14,12.59,9.1,6.39,17.81,13.35,26.77,19.94,8.15,6,16.79,11.37,24.56,17.81,10.22,8.46,19.69,17.82,29.69,26.55a150.84,150.84,0,0,0,13.11,9.69c3,2.07,6.32,3.61,9.17,5.81,7,5.41,13.76,11.22,20.86,16.55,4.43,3.33,9.48,5.82,14,9.1,11.26,8.25,22.5,16.57,33.49,25.18,13,10.22,25.71,20.87,38.69,31.15,6,4.76,10,12,18,14.42,3,.91,5.64,3,9,4.82-3.78,2.95-6.95,5.55-10.24,8q-18.91,13.88-37.9,27.64c-6.66,4.84-13.35,9.64-20.13,14.29-5,3.41-10.37,6.26-15.18,9.87q-14.21,10.69-27.94,22c-12.6,10.35-24.82,21.16-37.51,31.38-7.16,5.77-14.93,10.76-22.44,16.09q-9.31,6.61-18.66,13.19c-11.7,8.22-23.35,16.51-35.15,24.58-6.23,4.26-13,7.81-19.07,12.26-6.75,4.94-12.74,11-19.63,15.66-3.66,2.51-9.18,2.73-6.86,10.53Zm363.35-36c-7.77-4.84-13,2.14-20.67,4.38,7.31-6.59,1.41-11.57-.75-17L504,538.86l.05,1.27-2.83-2.53c-1.68.23-3.18.93-4.11.47-3.85-1.89-6.93-.61-9.86,1.79-3.2,2.63-6.35,5.32-9.53,8l-1-.68,8.15-13.85c-4.08-4.85-9.47-6.62-15.78-5.87-4.56.54-9.37,2.34-13.59,1.42-6.85-1.48-13,.08-19.11,2-10.63,3.39-21,7.07-32.57,6.88a46.43,46.43,0,0,1-12-1.86c-6.92-1.9-13.83-3.6-21.15-.31-4.2,1.88-9.83,3.9-13.69,2.57-9.66-3.32-19.32-3.85-29.18-3.27a137.73,137.73,0,0,0-20.16,2.46c-6.45,1.35-12.65,3.85-19,5.66-10.62,3-11.81,4.54-11.72,15.91,0,4.5.12,9,.28,13.49.1,3,1,6.11.4,8.94-1,5,.82,11.74,4.82,14.6a18.17,18.17,0,0,1,2.75,2.51c6.24,6.82,12.07,14.08,18.8,20.38,4.79,4.49,7,10.18,8.09,15.83,1.22,6.28,1.29,12.22,8.94,14.06.8.2,1.26,1.52,2.08,2,2.94,1.57,6.46,4.74,8.86,4.07,4-1.12,5.91.28,7.26,3,2.24,4.48,5.86,7,10.46,7.07,6.55,0,10.38,4,14.51,8,3.05,2.93,5.59,5.78,5.5,10.56,0,2.48,1.7,4.59,5.3,4.24,7.19-.69,13.85-7,14.13-14.15.21-5.37,2.44-9.05,8.71-10.92,1,2.81,1.15,6.55,3,7.86,6.51,4.55,4.94,10.94,5.22,17.08a8.21,8.21,0,0,0,1.64,4.94c3.83,4,7.93,7.73,12.06,11.43,3.5,3.12,9.21,2.53,11.13-1.3A54.61,54.61,0,0,0,435.46,691c1.48-6.2,4.8-10.72,9.51-14.89,4-3.52,7-8.12,10.45-12.24l-1.31-1.1-5,5.43-.85-.74,4.59-7.7c11.77,5.47,11.77,5.47,24.26,2.34,9-2.26,8.55-2,13.18,5.75,2.63,4.39,6.59,8.62,12.46,9.07a62.86,62.86,0,0,0,11-.34c3.38-.35,4.56,1.47,5.71,4.18,1.83,4.35,3.47,9,6.35,12.6,2.2,2.75,6.14,5.58,9.38,5.67,4.23.12,6.7-4.21,8.19-8.24,2-5.41-2.69-23.31-7.52-26.73-3.65-2.59-4-5.82-2.72-9.22,1.8-4.71.69-8.64-1.17-13-1.29-3-2.41-7.54-1.07-10,4.88-9,11.06-17.32,16.29-26.16a66.2,66.2,0,0,0,6.72-15c1.9-6.54,1.48-13.55,6.08-19.55,3.92-5.11,6.47-11.27,9.63-17,3.35-6,7.55-11.47,8.59-18.83.71-5-1.63-7.53-4.77-9.11-2-1-5.73-.36-8,.86-8,4.37-12.3,13.41-21.36,16.71C541.66,544.67,539.88,547.57,537.73,549.59ZM423,161.41c-2.23,5.32-4.22,10-6.16,14.71s-4,9.51-5.78,14.37c-2,5.72-3.4,11.71-5.73,17.29-4.53,10.84-9.67,21.43-14.31,32.23-3,6.92-5,14.31-8.41,21-2.9,5.61-2.24,14.33-11.69,15.27-.77.07-2.11,3.58-1.61,4.89a6,6,0,0,0,4.51,3.09c6.71.23,13.46,0,20.17-.36a6.17,6.17,0,0,0,4.09-2.75,6.55,6.55,0,0,0,.56-4.89c-.23-.75-2.5-1.07-3.88-1.2-2.28-.23-4.6-.14-6.9-.19.08-2.53-.45-5.27.35-7.55,3.07-8.78,6.36-17.49,10-26,1.23-2.89,3.18-6.7,5.68-7.57a71.49,71.49,0,0,1,17.73-3.24c10.94-.87,21.93-1.14,32.63-1.65l12.32,45.33c-2.69.17-5.52,0-8.19.61s-4.94,1.9-7.45,2.91c2.69,5.69,6.73,5.52,11,4.61,1.27-.28,2.52-1,3.77-1,5.84,0,11.69.12,17.53.26,4,.1,4.41-3.05,4.81-5.71.54-3.52-2.33-2.86-4.4-2.89-2.94-.05-5.88,0-8.2,0-1.72-5.12-3.27-9.61-4.72-14.14-.58-1.83-.81-3.77-1.41-5.6-1.41-4.35-3.25-8.57-4.35-13-1.69-6.74-2.59-13.69-4.38-20.39-2.16-8.06-5.38-15.85-7.26-24-2.66-11.5-4.51-23.19-6.75-35.06.23-.06,1.34-.3,2.44-.61s2.51-.7,3.73-1.16c2.62-1,4.33-5.55,2.85-8.18-1.85-3.28-3.69-1.21-5.66.12a8.69,8.69,0,0,1-4.12,1.47c-8.23.47-16.48.65-24.71,1.17-3.37.22-6.71,1.05-10.21,1.63C412.79,162.38,418,160.54,423,161.41ZM170.53,417.49c-.91,5-1.65,9.07-2.36,13l-8,3.49c3.76,2.4,6.18,5.2,8.79,5.38,6.71.47,13.5-.11,20.24-.56.87-.06,2.34-1.92,2.25-2.8-.12-1.14-1.41-2.87-2.43-3.06-3.34-.62-6.79-.66-10.83-1-2.83-6.13-1.32-13.4-1.08-20.63.49-14.33.65-28.68,1-44.09,3.77,2.65,6.22,4.24,8.52,6,2,1.58,5.18,3.07,5.67,5.12,1.83,7.59,7.59,12.09,12.38,17.31,9.62,10.46,19.51,20.68,29.26,31a15.68,15.68,0,0,1,1.18,2.14c2,3,2.2,5.11-2.1,6.07-1,.23-1.67,2-2.49,3,1.22.72,2.43,2,3.67,2.05,7,.21,14.09,0,21.13.21,3.76.12,6.74-.68,8.92-4.42-1-.61-2-1.66-2.88-1.66-5.39,0-4.79-3.08-4.65-7,.15-4.47-.92-9-1.75-13.48s-2.59-8.9-2.94-13.42c-.48-6.2.18-12.49,0-18.72-.25-8.16-1-16.3-1.26-24.46-.09-2.72,1.78-4.12,4.67-3.71,3.18.46,5.05-.78,5.37-5.07-2.53-.88-5.14-2.15-7.89-2.65-3.08-.57-6.51.21-9.41-.75-4.89-1.64-6.77,1.06-9.19,5l9.53,4.22c-.74,2.26-2,4.29-1.93,6.25.37,7.86,1.14,15.7,1.81,23.55.21,2.52.64,5,.83,7.54.4,5.6.43,11.24,1.15,16.8.66,5.14,2.14,10.17,3,15.3.2,1.29-.74,2.76-1.32,4.71-4.4-3.68-8.35-6.46-11.66-9.86-7.32-7.53-14.35-15.33-21.44-23.09-4.3-4.71-8.5-9.51-12.67-14.33-1-1.1-1.4-2.67-2.41-3.68-5.61-5.63-11.53-11-16.86-16.83-1.53-1.69-2-4.88-1.82-7.29.07-.9,3.41-1.55,5.25-2.31a12.83,12.83,0,0,0,3.1-1.3,5.58,5.58,0,0,0,2.11-2.78c.1-.46-1.4-1.69-2.34-1.93-4.35-1.13-8.73-2.16-13.15-2.92-1.1-.18-3.45.87-3.43,1.22.25,3.34-2.32,1.71-3.59,2.38a25.58,25.58,0,0,0-4.16,3.4,36.15,36.15,0,0,0,3.41,3.68c.65.54,1.75.55,3.43,1-.63,8.63-1.37,17.13-1.77,25.64-.08,1.77,1.11,3.6,1.61,5.09-3.8,10.2.34,21.07-2,31.35C168.71,416.27,170.41,417.36,170.53,417.49Zm454.68-93a28.84,28.84,0,0,0-1.22,5.42c-.17,4.15.28,8.33,0,12.46-.46,6.18-2.56,12.5-1.74,18.45.87,6.37-5.55,12.59,0,18.73.17.19-.32.91-.37,1.39-.66,7.17-1.26,14.35-2,21.52-.67,7-1.49,14-2.14,20.95-.43,4.73-1.1,9.49-.9,14.21.2,4.89-1.68,7.44-5.95,5.44-4.91-2.3-5.64.41-6.8,3.6,2.75,3.15,2.71,3.38,11.32,4.9,3.61.64,7.44.26,11.14,0,5.21-.39,10.39-1.12,15.87-1.74l-3.19-7.49-13.71,2.51a36.42,36.42,0,0,1-.4-4.27c.3-6.41.7-12.81,1-19.22.36-7.92.57-15.86,1-23.78.35-6.23,1-12.44,1.46-18.82,3.72,0,7.39.39,11-.08,7.14-.94,14.24-2.28,21.33-3.58,3.36-.61,7-.82,9.94-2.38,9.95-5.36,17.62-12.86,20.7-24.27,2.35-8.71,2.63-17.18-2.7-24.89-4.94-7.16-13.4-8.63-20.73-11.82-1.1-.48-2.66-.14-4,.11-5,.93-9.85,2.36-14.84,2.9-8.85.95-17.78,1.21-26.64,2.13-3,.31-5.84,1.76-8.75,2.69l.15,2.72ZM311.84,874.14c-10.48,4.55-12.41,16.1-19.6,24-1.15-1.69-2.26-3.09-3.11-4.63-3.31-6-6.34-12.1-9.91-17.9-.8-1.29-3.48-2.3-5.06-2-2.31.39-4,1.75-4,5.15,0,4-1.46,7.94-2.38,11.89-.26,1.1-.93,2.1-1.23,3.19-2.11,7.63-1,15.93-4.87,23.24a2.85,2.85,0,0,0,.65,2.67,80.5,80.5,0,0,0,7.79,2.55c0-5.39-.41-9.35.09-13.2.81-6.2,2.12-12.36,3.44-18.48a66.64,66.64,0,0,1,2.7-7.7c1.15,1,2,1.44,2.28,2.09,2.63,6.66,5,13.42,7.81,20a6.06,6.06,0,0,0,3.87,3c1.44.3,3.88-.2,4.62-1.24,2.55-3.6,4.37-7.7,6.81-11.4,2.6-4,5.58-7.65,9.13-12.45.33,2.91.36,4.23.65,5.5,1.5,6.62,3.88,13.17,4.32,19.86.31,4.7,2.3,8.63,3.31,12.95.26,1.13,2.24,1.86,3.44,2.77.92-1.5,2.59-3,2.6-4.51,0-2.6-1-5.21-1.53-7.81-1.74-8-3.36-16-5.25-23.88C317.24,882.78,317.05,877.21,311.84,874.14ZM580,827.53c1.45.43,4.12,1.92,6.61,1.66,1.24-.13,3.12-3.53,3-5.36-.44-8.62-1.15-17.22-1.21-25.87a118.38,118.38,0,0,0-1.93-18.57c-.2-1.16-2.85-1.92-4.37-2.86-.79,1.59-2.39,3.28-2.19,4.73.51,3.8,2.42,7.47,2.59,11.24.14,2.93-1.52,5.93-2.66,9.84-3.38-4.58-7-4.88-11-4s-8.07,1.28-11.9,2.55c-4.71,1.57-5.16-.81-4.86-4.36.32-3.92,1.11-7.86.84-11.73-.09-1.34-2.61-3.08-4.3-3.49-.87-.21-3.21,2-3.39,3.31-.55,4-.16,8.21-.53,12.3-.55,6-1.42,12-2.18,17.93-.36,2.88-1.57,5.94-.94,8.58.42,1.76,3.36,4.05,5.22,4.09,2.93.07,4.38-2.54,3.62-5.66-1.14-4.61-2.33-10.15,1.94-12.83,6.18-3.88,13.76-3.61,20.9-2.5,2.61.4,5,2.2,8.72,3.94C581.51,814.82,580.88,820.18,580,827.53ZM510.9,1017.77c1-3.57,2.21-6.31,2.51-9.15.33-3.25-.51-6.62-.16-9.87.63-5.92,2.5-11.8,2.5-17.69,0-6.64,3.57-10.64,8-14.29,1.14-.94,3.91-1.26,5.09-.52,2,1.3,4.47,3.07,2.51,6.51-2.57,4.5-4.47,9.34-10.05,11.34a6.67,6.67,0,0,0-3.44,4.33c-.19.85,2.21,2.25,3.41,3.43,1.82,1.79,4.1,3.32,5.34,5.46,3.75,6.43,7,13.15,10.64,19.65.7,1.25,2.23,2,3.38,3,.83-1.48,2-2.88,2.41-4.47a5.69,5.69,0,0,0-.67-3.77c-3.66-6.69-7.36-13.37-11.27-19.92-1.82-3-1.67-4.91,1.62-6.85,3.79-2.23,7.69-14.25,6.2-17.64-4-9.2-9.52-10.24-18.47-6-10.75,5.13-12.22,14.88-12.26,24.11a88.92,88.92,0,0,1-2.05,17.5C505.05,1008.45,505.82,1014.17,510.9,1017.77ZM324.34,783.54c.17.18-.54-.63-1.27-1.41s-1.45-2.07-2.37-2.29c-.59-.14-2,1.14-2.24,2-.86,3.74-2,7.55-2,11.34,0,8.18.62,16.36,1,25.59l-40-41c-.82,5.06-1.72,8.6-1.93,12.18-.5,8.94-.44,17.92-1.13,26.85-.26,3.28-2,6.44-3.54,11.11l4.75,3.38c1.14-2.65,2.92-5.21,3.29-8,1.11-8.2,1.72-16.47,2.41-24.72.21-2.4,0-4.82,0-8.1,4.19,4.44,7.36,8.76,11.44,11.9a46.3,46.3,0,0,1,15,18.71c.56,1.32,3.46,1.64,5,2.33l2.94-3.43c1.23,3.68,2.33,7,3.45,10.35,5.66-2.68,7.42-5.61,4.71-10.38-.62-1.1.13-2.92.09-4.41-.16-5.46-.54-10.91-.52-16.37C323.59,794.39,324,789.65,324.34,783.54Zm310.68,95c1.91,1.65,3.33,2.26,3.5,3.13,1,4.92,4.53,7.71,8.21,10.44a3.67,3.67,0,0,1,1,1.14c2.67,4.66,5.2,9.4,8,14,2.37,3.85,7.9,5.42,9.56,2.56,2.07-3.59,3.15-7.86,4.07-12,.74-3.32.37-6.87.9-10.26.68-4.33,3.17-8.94,2.25-12.8-.86-3.59-.94-5.83,1.61-8.22l-4.8-4.32c-1.31,2.06-3,3.66-3.38,5.53-.81,4.14-.85,8.42-1.4,12.62-.93,7-2,14.08-3.13,21.92-5.57-7.13-10.89-14-16.21-20.78-.08-.1,0-.4,0-.48-3.44-3-6.62-6.51-10.47-8.89-2.12-1.31-4.66,0-5.34,3.32-.92,4.44-2.55,8.74-3.51,13.17-1.49,6.82-2.73,13.7-3.93,20.58-.2,1.16.32,2.45.53,3.78,5-2.18,5.86-4.16,6.63-8.33C630.61,896.16,632.85,887.81,635,878.52ZM354.85,816.58c1.48,3.92,2,8.84,4.67,11.52,3.61,3.57,9.38,8.11,13.46,7.47,10.47-1.66,18.13-8.65,22-19a89.56,89.56,0,0,0,3.86-11.22,13.49,13.49,0,0,0-.66-6.65c-.51-1.64-2-3-2.93-4.5-4.68-8-16.59-12.35-24.83-8.58-3,1.38-6.23,3.45-8,6.1C357.45,799,355.51,807.37,354.85,816.58Zm-11,101.76c1.69,2,3.7,2.29,7.27,1.48a47.55,47.55,0,0,1,17.56-.51c7.39,1.15,10.21,0,11.63-7H351.72c.24-5,.46-9.4.68-13.8l23.46-2.64c.73-3.41-.62-5.2-4-5.25-6-.1-12,0-18.9,0,.85-1.87,1.34-3.27,2.07-4.52,4.44-7.55,12.46-5.35,18.65-5.36,5.05,0,7.36-.67,8.86-6.16-11.63-2-22.59-.36-34.55,4.13-.79,8.42-1.61,17.62-2.54,26.82C345.08,909.51,344.46,913.47,343.82,918.34Zm-117.57-3.87a27.8,27.8,0,0,0,4.88,1.85c3.5.6,5.56-1.43,4.4-4.23-5.7-13.85-8.75-28.5-13.09-42.76-.71-2.34-3.32-4.61-5.63-5.79s-3.78,1.05-5.33,3c-3.45,4.36-6.8,8.41-9.23,13.74-4.71,10.37-11.34,19.87-16.93,29.87-.69,1.24-.53,4,.35,4.8s4.37,1.25,4.81.58c2.66-4,5.34-8.14,6.92-12.62,2.71-7.71,4.88-9.54,12.1-7.76,4.09,1,8.8,4.71,13.1-.06C227.88,910.42,227.88,910.42,226.25,914.47ZM448.72,807.15c6.33-3.9,8.71-9.45,7.6-16.16-.35-2.11-2.09-5.17-3.8-5.67a68.31,68.31,0,0,0-15.87-2.58c-4.45-.19-6.09,4.06-7.63,7.23a204.6,204.6,0,0,1-.82,23.5c-.58,5.63-2.35,11.13-3.12,16.76-.18,1.32,1.52,2.91,2.36,4.37,1.2-.69,2.66-1.14,3.56-2.11,2.32-2.49,3.24-4.66,2-8.82-1.35-4.38,2.4-9.72.41-14.88-.12-.31,1.24-1.19,1.13-1.09,3.18,2.3,6,4,8.39,6.19,2.2,2,4.89,4.28,5.67,6.93,1.54,5.27,4.6,8.89,9.08,12.24l3.56-3.93ZM318.4,991.75c-1.49,10.06,2.07,15.67,7.72,18.86,6.4,3.61,14,4.12,20.22-.84,6-4.78,11.36-10.39,9.73-19.37-.33-1.81.65-3.83.62-5.74-.05-2.85.53-6.44-.93-8.36a31.34,31.34,0,0,0-9.86-8.21c-8.14-4.37-15.39-2.19-21.94,4.57C317.71,979.12,320,987.31,318.4,991.75Zm103.25,18.92c-4.8-5-9.1-2.3-13.38-1.86-4.44.45-9,.1-13.5.1.67-4.31,1.37-8.47,2-12.65.31-2.26.83-2.7,3.61-3,5.24-.59,11.66,1.12,16.15-5.3-1.83-1.06-3.4-2.78-4.79-2.65-5,.47-9.92,1.56-15.28,2.48l4.06-14.61c7-2,15.67-1.43,23.6-5.71-1.8-1.93-3.79-3.52-5.68-3.4-4.2.26-8.34,1.4-12.52,2.12a15,15,0,0,1-4.8.49c-5-.85-8.09,1.42-8.56,6.38-.43,4.41-1.1,8.8-1.74,13.19-.28,1.89-.93,3.72-1.13,5.62-.42,3.93,0,8-1.09,11.79-2,7.25,0,12.78,6,12.71a157.74,157.74,0,0,0,21.11-2C417.67,1014.05,419.41,1012.1,421.65,1010.67Zm3.25-111.9c6-1.13,8.67-5.15,10-9.87,1.41-5-1.8-8.52-5.56-11.19-3.29-2.33-16.78-2.06-20.18,1-.36.32-1,.54-1.08.91-1.79,6.7-4,13.34-5.12,20.16-1.06,6.53-.95,13.25-1.39,20.35l5.69,2.43c.76-6.77,1.38-12.76,2.12-18.75.69-5.53,1-11.17,2.42-16.53,1.13-4.41,11.11-6.74,14.59-3.8.76.64,1.61,2.29,1.29,2.9-1.32,2.56-2.57,5.62-4.77,7.15-3,2-6.78,2.84-11.52,4.67,2.63,2.21,4.7,4,6.8,5.73,3.08,2.57,6.62,4.74,9.18,7.74,5.12,6,7.23,7.05,13.43,3.68Zm177.38,96.06c-.87,8.46-1.81,17.58-2.74,26.6l7.42,1c-.19-2.58-.67-4.88-.48-7.11.58-6.84,1.11-13.71,2.27-20.47a29.73,29.73,0,0,1,4-10.63c2.61-4.12,6.36-7.5,9.24-11.47a6,6,0,0,0,.46-4.88c-.3-.86-2.65-1.74-3.73-1.42-1.72.51-4.15,1.74-4.53,3.14-2.19,8.05-9.38,11.48-13.92,16.83-4-2.61-7.61-4.67-10.9-7.12a53.76,53.76,0,0,1-9.12-7.86c-4.17-4.92-4.74-5.2-9.91-.27C579.34,980.48,588,990.14,602.28,994.83Zm-5.82-79.76,2.95.07c.54-1.82,1.63-3.68,1.52-5.46a78.93,78.93,0,0,0-1.75-11.62,56.18,56.18,0,0,0-2.86-9.61c-1.35-3.26-3.28-6.27-4.89-9.43-3.28-6.42-11-7.42-14.39-1.36a242.62,242.62,0,0,0-11.39,24c-1.4,3.32-4.15,7.11.28,11.5,1-2,1.77-3.81,2.75-5.49,1.68-2.9,2.21-6.67,7.51-5.82a27.44,27.44,0,0,0,12.61-1.19c4.25-1.45,4.42.6,5,3.5C594.54,907.83,595.56,911.44,596.46,915.07Zm-124-29.17c.25,7.12.5,13.37.63,19.62a5.83,5.83,0,0,1-.86,2.73c-2.55,4.6-6.64,2.75-10,1.84-3.05-.82-4.73-.29-6.25,3.36,1.88,1.35,3.74,3.72,5.91,4a149.3,149.3,0,0,0,18.8,1.29c3,.06,6.3-.2,8.75-1.59,1.16-.66.62-4.31.89-7-2.7.69-4.49,1.7-6,1.4-1.77-.35-4.5-1.66-4.71-2.9a71.23,71.23,0,0,1-.66-13.23c.07-3.26.73-6.5,1.18-10.14,1.12.09,2.83.6,4.33.24,1.81-.43,3.45-1.6,5.16-2.46-1.45-1.69-2.66-3.74-4.44-4.94-.83-.56-2.75.74-4.19.78a59.39,59.39,0,0,1-9.05-.2c-3.81-.45-7.57-1.33-11.53-2.06-.76,4.28-.9,7.11,3.37,7.74C466.57,884.88,469.43,885.4,472.41,885.9Zm-5.19,90.91c.16,3.5.54,7.92.51,12.33,0,2.74-.81,5.46-1,8.21-.45,6.66,1.88,13.57-2.14,20-.55.88.72,3.79,1.93,4.6.91.62,4.06-.14,4.51-1.08,2.45-5.23,4-10.67,3-16.7a59.54,59.54,0,0,1-.27-11.8c.22-6.17,2.66-12.59-3.45-18.46a40.91,40.91,0,0,1,4.83-1.12c2.63-.22,5.32,0,7.9-.42,1.45-.25,2.74-1.46,4.1-2.24-.81-1.3-1.41-3.47-2.48-3.73-2.71-.64-5.91-1.26-8.41-.41-6.74,2.27-13.25,4.53-20.27,1.23a3.62,3.62,0,0,0-2.91-.12,9.21,9.21,0,0,0-3.59,3.49c-.25.53,1.6,2.78,2.8,3.11C456.77,974.89,461.43,975.64,467.22,976.81ZM507,836.63c5.16-7.6,4.83-15.54,4.79-23.44-.05-8.28,0-16.56,0-25.44a53.7,53.7,0,0,0,7,1c1.61,0,3.65-.21,4.73-1.18s1.81-3.49,1.23-4.34a6,6,0,0,0-4.55-2c-9.31.27-18.62.77-27.91,1.41-1.28.09-2.47,1.34-3.88,2.16,6,6.81,12.55,5.78,19.42,3.69a71.63,71.63,0,0,0-2.14,7.64c-.33,1.91.11,3.94,0,5.91-.18,3.88-.4,7.77-.78,11.64-.61,6.32-1.35,12.62-2.08,19.3Zm37.81,73.65a63.47,63.47,0,0,1-6.42,1.53,63.69,63.69,0,0,1-6.49.19,12.57,12.57,0,0,1-12.52-11.94c-.17-5.74,1.71-10.5,5-15.34,3.12-4.65,6.84-7.32,12.33-6.56,1.37.2,3-1.63,4.55-2.53-.76-1.26-1.25-3.29-2.31-3.66-6.31-2.19-11.51,0-16,4.67-5.65,5.85-9.06,12.46-9.61,20.89-.37,5.71,1.73,12.41,6.23,16s9.55,4.77,14.8,5.7C540.19,920.24,545.14,916.34,544.77,910.28ZM264,992.23c3.57.79,6.27,1.68,9,1.94,9.11.89,14-5.56,18.56-11.7s2.89-13,.09-19.33c-1.56-3.56-11.15-7.25-15.74-6.23a110.19,110.19,0,0,0-12,3.56,44.54,44.54,0,0,0-6,3.18c4.44,3.28,8.67,3.44,13.54.79a10.92,10.92,0,0,1,12.13.65c3.35,2.3,4,5.34,3.27,9.7-.88,5.07-4.55,7.22-7.39,10.43-2.24,2.52-4.29,4-7.64,1.87-1.13-.73-2.75-.7-4.06-1Zm-6-24.58c-.28,3.53-.64,6.73-.76,10-.11,2.85.28,5.74,0,8.58-.64,7-1.55,13.89-2.32,20.84-.55,5.05-1.19,10.09-1.49,15.16-.08,1.38.92,2.82,1.42,4.24,1.61-.75,4-1.09,4.64-2.35a17.2,17.2,0,0,0,1.57-7.06c.77-13,1.38-26,2.06-39a10.1,10.1,0,0,1,.45-3.37C265.4,970.5,263.85,968.44,258,967.65Z"/><path d="M174.38,585.59l-16,6.52c-2.32-7.8,3.2-8,6.86-10.53,6.89-4.71,12.88-10.72,19.63-15.66,6.1-4.45,12.84-8,19.07-12.26,11.8-8.07,23.45-16.36,35.15-24.58q9.36-6.57,18.66-13.19c7.51-5.33,15.28-10.32,22.44-16.09,12.69-10.22,24.91-21,37.51-31.38q13.72-11.3,27.94-22c4.81-3.61,10.2-6.46,15.18-9.87,6.78-4.65,13.47-9.45,20.13-14.29q19-13.75,37.9-27.64c3.29-2.42,6.46-5,10.24-8-3.34-1.84-6-3.91-9-4.82-8-2.42-12-9.66-18-14.42-13-10.28-25.66-20.93-38.69-31.15-11-8.61-22.23-16.93-33.49-25.18-4.48-3.28-9.53-5.77-14-9.1-7.1-5.33-13.82-11.14-20.86-16.55-2.85-2.2-6.2-3.74-9.17-5.81a150.84,150.84,0,0,1-13.11-9.69c-10-8.73-19.47-18.09-29.69-26.55-7.77-6.44-16.41-11.82-24.56-17.81-9-6.59-17.67-13.55-26.77-19.94-6.47-4.55-13.4-8.44-20.14-12.59-3.82-2.35-7.68-4.62-11.85-7.12,4-3.56,7.32-4.54,11.65-1.5,13.73,9.65,27.66,19,41.49,28.51,6.91,4.75,13.59,9.87,20.74,14.22,8.24,5,14.79,11.8,21.51,18.51,3,3,6.61,5.39,10,8,.51.41,1.23.61,1.63,1.1,7.21,8.89,16.71,14.57,26.55,20.12,6.05,3.4,10.78,9,16.35,13.37,4.53,3.52,9.39,6.63,14.16,9.84,9.39,6.32,19,12.28,28.16,19,10.77,7.88,21.18,16.24,31.58,24.61s21.56,16.47,30.87,26.12c4.31,4.47,9.15,7.64,13.86,11.23,2.79,2.13,5.6,3.3,9.21.16,5.36-4.68,11.42-8.58,17.27-12.68,10.32-7.23,20.76-14.28,31-21.57,5.62-4,10.92-8.44,16.55-12.43,3.17-2.24,6.83-3.78,10.06-6,11.4-7.66,22.73-15.45,34.06-23.22,6.76-4.63,13.56-9.22,20.22-14,9.82-7,19.4-14.43,29.36-21.29,4.17-2.88,9.38-4.28,13.51-7.21,13.43-9.52,26.45-19.62,39.89-29.12,5.2-3.68,11.25-6.14,16.66-9.55,5-3.13,9.61-6.81,14.42-10.21,3.94-2.79,7.92-5.52,11.27-7.85,1.59,2.43,2.78,4.08,3.79,5.84a4,4,0,0,1,.63,2.51c-.11.53-1.1,1-1.79,1.26-1.61.62-3.55.71-4.86,1.69-5.8,4.36-13.2,6.73-17,13.6a2.28,2.28,0,0,1-1.66.94c-9.24.21-15.18,7-22.23,11.39-6.78,4.21-12.66,9.83-19.17,14.52q-13,9.38-26.45,18.25c-7.91,5.23-16.34,9.71-24,15.28-11.72,8.54-25.14,14.68-35,26-3.07,3.54-8.42,5.07-12.61,7.69-4.57,2.86-9,6-13.51,8.86-3,1.89-6.33,3.33-9.25,5.35-7.14,4.93-14.08,10.15-21.2,15.12-15,10.5-30.1,20.91-45.14,31.37-.25.17-.36.54-1,1.57,5.59,3.58,11.26,7.05,16.77,10.78C474.27,407,490.29,418,506.35,428.88c6.95,4.73,14.28,9,20.84,14.2,7.23,5.76,13.81,12.35,20.62,18.63,4.08,3.76,7.78,8,12.18,11.32,5.89,4.47,12.3,8.28,18.48,12.37,1.64,1.09,3.32,2.12,4.89,3.29,6.29,4.66,12.49,9.46,18.84,14,11.19,8.06,22.49,15.95,33.7,24Q651.53,538,667,549.35c3.19,2.34,6.23,4.89,9.19,7.5,7.45,6.56,14.81,13.21,22.23,19.79a33.73,33.73,0,0,0,3.24,2.29c4.65,3.21,4.53,7.64-.53,11.13-4-3.73-8-7.67-12.21-11.24-10.54-8.85-21.05-17.75-31.9-26.22-12.94-10.1-26.12-19.92-39.4-29.59-5.16-3.75-11.13-6.38-16.26-10.16-6.35-4.7-12.12-10.18-18.33-15.09-2.94-2.33-6.37-4-9.46-6.18-4.46-3.11-9-6.11-13.15-9.63-7.45-6.33-15-12.65-21.79-19.63-9.64-9.85-21-17.28-32.32-24.85-9.13-6.09-17.58-13.21-26.52-19.6-5.76-4.12-11.82-7.82-17.83-11.56s-12-7.22-18-10.77a56.37,56.37,0,0,0-7.26-3.89,4.42,4.42,0,0,0-3.59.72c-9.5,6.91-18.9,14-28.35,21Q393,422,381.25,430.67c-9.29,6.86-18.46,13.9-27.91,20.54-3.85,2.7-8.59,4.13-12.41,6.86-8.1,5.81-15.95,12-23.73,18.2-17.73,14.18-35.33,28.53-53,42.75-9.82,7.89-19.66,15.78-29.67,23.44a130.29,130.29,0,0,1-12.89,8.29c-10,5.89-20.93,10.54-29.75,17.81C185.33,573.93,176,577.42,174.38,585.59Z"/><path d="M537.73,549.59c2.15-2,3.93-4.92,6.44-5.83,9.06-3.3,13.4-12.34,21.36-16.71,2.23-1.22,5.92-1.89,8-.86,3.14,1.58,5.48,4.14,4.77,9.11-1,7.36-5.24,12.8-8.59,18.83-3.16,5.7-5.71,11.86-9.63,17-4.6,6-4.18,13-6.08,19.55a66.2,66.2,0,0,1-6.72,15c-5.23,8.84-11.41,17.14-16.29,26.16-1.34,2.48-.22,7,1.07,10,1.86,4.39,3,8.32,1.17,13-1.29,3.4-.93,6.63,2.72,9.22,4.83,3.42,9.53,21.32,7.52,26.73-1.49,4-4,8.36-8.19,8.24-3.24-.09-7.18-2.92-9.38-5.67-2.88-3.6-4.52-8.25-6.35-12.6-1.15-2.71-2.33-4.53-5.71-4.18a62.86,62.86,0,0,1-11,.34c-5.87-.45-9.83-4.68-12.46-9.07-4.63-7.72-4.14-8-13.18-5.75-12.49,3.13-12.49,3.13-24.26-2.34l-4.59,7.7.85.74,5-5.43,1.31,1.1C452,668,449,672.59,445,676.11c-4.71,4.17-8,8.69-9.51,14.89a54.61,54.61,0,0,1-4.61,11.55c-1.92,3.83-7.63,4.42-11.13,1.3-4.13-3.7-8.23-7.43-12.06-11.43a8.21,8.21,0,0,1-1.64-4.94c-.28-6.14,1.29-12.53-5.22-17.08-1.86-1.31-2-5-3-7.86-6.27,1.87-8.5,5.55-8.71,10.92-.28,7.19-6.94,13.46-14.13,14.15-3.6.35-5.35-1.76-5.3-4.24.09-4.78-2.45-7.63-5.5-10.56-4.13-4-8-7.95-14.51-8-4.6,0-8.22-2.59-10.46-7.07-1.35-2.71-3.25-4.11-7.26-3-2.4.67-5.92-2.5-8.86-4.07-.82-.43-1.28-1.75-2.08-2-7.65-1.84-7.72-7.78-8.94-14.06-1.1-5.65-3.3-11.34-8.09-15.83-6.73-6.3-12.56-13.56-18.8-20.38A18.17,18.17,0,0,0,282.4,596c-4-2.86-5.86-9.57-4.82-14.6.59-2.83-.3-6-.4-8.94-.16-4.5-.24-9-.28-13.49-.09-11.37,1.1-12.88,11.72-15.91,6.37-1.81,12.57-4.31,19-5.66a137.73,137.73,0,0,1,20.16-2.46c9.86-.58,19.52,0,29.18,3.27,3.86,1.33,9.49-.69,13.69-2.57,7.32-3.29,14.23-1.59,21.15.31a46.43,46.43,0,0,0,12,1.86c11.58.19,21.94-3.49,32.57-6.88,6.15-1.95,12.26-3.51,19.11-2,4.22.92,9-.88,13.59-1.42,6.31-.75,11.7,1,15.78,5.87l-8.15,13.85,1,.68c3.18-2.67,6.33-5.36,9.53-8,2.93-2.4,6-3.68,9.86-1.79.93.46,2.43-.24,4.11-.47l2.83,2.53-.05-1.27,12.32-1.9c2.16,5.44,8.06,10.42.75,17C524.69,551.73,530,544.75,537.73,549.59Zm32.9-18.66c-3,1.62-5.32,2.34-6.85,3.87-5.23,5.22-9.7,11.28-17.53,13.11a6.46,6.46,0,0,0-3.63,3.24c-2.23,4.6-5.91,4.74-10,3.71-4.62-1.17-11.51,2.44-13.12,6.88-1.92,5.32-3.55,10.85-6.25,15.77-1.7,3.1-4.93,5.52-7.9,7.65-1,.74-3.79.25-4.9-.7-.86-.73-.79-3.15-.4-4.62a28.82,28.82,0,0,1,2.77-6.17c2.88-5.34,6.67-10.29,5.59-17-.19-1.19,1.4-2.85,2.46-4,4.26-4.7,4.27-6-.29-10.5-6.85,5-6.74,4.85-13.46.19-1.29-.9-4.36-.68-5.76.28-5.49,3.73-8.87,10.67-16.72,10.75-1.5,0-3.54.44-4.36-.34a5.15,5.15,0,0,1-1.09-4.44c.69-2,2.43-3.73,3.53-5.67,1.65-2.89,3.13-5.88,4.68-8.82l-1.05-1.77c-4.36.32-8.72.76-13.09.93-6.76.26-13.59-.12-20.28.66-4.37.5-8.47,3-12.83,3.84-6.64,1.34-12.28,7.34-20,4a8.09,8.09,0,0,0-6.74.52c-3.71,2.61-6.75,1.09-10.14-.13-3.06-1.1-6.18-2.35-9.36-2.68-3.88-.41-7.66-1.09-11.78,1a34.45,34.45,0,0,1-14.55,3.53c-4.56.08-9.1-2.41-13.74-2.93-7.82-.89-15.86-2.23-23.56-1.32-8.42,1-16.57,4.36-25.21,6.78v2.51l-11.93,4.36c-.56,8-1.64,15.41-1.41,22.76.16,5.19,1,10.94,3.52,15.31s7.14,8.17,11.54,11.17c7.59,5.19,9.07,15.5,17.42,19.86.45.24.64,1.13.78,1.76.92,4.17,1.53,8.44,2.8,12.5a11.1,11.1,0,0,0,3.78,5.07c3.64,2.77,7.59,5.13,11.38,7.64,6.23-3,10-.15,12.6,9.24,8.34-.59,29.75,10.57,30.26,23.51,4.07,1.66,5.38-1.11,6.24-4.12,1-3.41,1.55-6.94,2.42-10.39.82-3.25,9.12-10.38,12.28-10.69,4.48-.43,8.28,3.06,8.94,8.08.18,1.38.51,3.75,1.16,3.89,6.07,1.32,4.16,6.11,4.75,9.92.57,3.63.72,7.72,2.58,10.65,2,3.17,5.7,5.31,8.79,7.73,2.76,2.16,5,.82,5.84-2.81,1.57-6.45,3.57-12.64,8.3-17.81,4.53-5,8.4-10.56,6.72-17.88,4.1-2.84,8-6.26,13.48-4,2.46,1,4.86,3.19,7.25,3.14a78.55,78.55,0,0,0,16.28-2.14c5.73-1.37,11.17.3,13.22,4.72,3.42,7.4,6.82,11.89,16,10.57a23.87,23.87,0,0,1,3.49-.08c7.4,0,9,1.21,11.83,8,2.32,5.5,4.1,11.56,11.27,13.42,2-4,4.16-8,1.15-12.69-3.12-4.83-6.56-9.5-9.24-14.57-1.51-2.84-3.07-6.72-2.31-9.5,2-7.29-.79-13.76-1.81-20.55-.29-1.92-1.1-4.47-.22-5.74,3.74-5.43,9-10,11.87-15.79,4.51-9.27,11.75-17.47,12.24-28.56a22.76,22.76,0,0,1,2.26-9.33c4.89-9.33,10.3-18.38,15.38-27.61C568.53,543.28,571.47,538.64,570.63,530.93Z"/><path d="M423,161.41c-5-.87-10.18,1-12.11-6.18,3.5-.58,6.84-1.41,10.21-1.63,8.23-.52,16.48-.7,24.71-1.17A8.69,8.69,0,0,0,449.9,151c2-1.33,3.81-3.4,5.66-.12,1.48,2.63-.23,7.21-2.85,8.18-1.22.46-2.48.81-3.73,1.16s-2.21.55-2.44.61c2.24,11.87,4.09,23.56,6.75,35.06,1.88,8.11,5.1,15.9,7.26,24,1.79,6.7,2.69,13.65,4.38,20.39,1.1,4.42,2.94,8.64,4.35,13,.6,1.83.83,3.77,1.41,5.6,1.45,4.53,3,9,4.72,14.14,2.32,0,5.26,0,8.2,0,2.07,0,4.94-.63,4.4,2.89-.4,2.66-.79,5.81-4.81,5.71-5.84-.14-11.69-.27-17.53-.26-1.25,0-2.5.67-3.77,1-4.28.91-8.32,1.08-11-4.61,2.51-1,4.89-2.35,7.45-2.91s5.5-.44,8.19-.61l-12.32-45.33c-10.7.51-21.69.78-32.63,1.65a71.49,71.49,0,0,0-17.73,3.24c-2.5.87-4.45,4.68-5.68,7.57-3.63,8.56-6.92,17.27-10,26-.8,2.28-.27,5-.35,7.55,2.3.05,4.62,0,6.9.19,1.38.13,3.65.45,3.88,1.2a6.55,6.55,0,0,1-.56,4.89,6.17,6.17,0,0,1-4.09,2.75c-6.71.41-13.46.59-20.17.36a6,6,0,0,1-4.51-3.09c-.5-1.31.84-4.82,1.61-4.89,9.45-.94,8.79-9.66,11.69-15.27,3.44-6.65,5.44-14,8.41-21,4.64-10.8,9.78-21.39,14.31-32.23,2.33-5.58,3.68-11.57,5.73-17.29,1.74-4.86,3.81-9.6,5.78-14.37S420.74,166.73,423,161.41Zm30.54,59.07c-6.95-9.51-7.2-19.76-8.64-29.63-1.49-10.17-2.76-20.32-9.72-29.86-2.78,3.48-6.14,6.36-7.8,10-3.76,8.28-6.71,16.94-9.94,25.47-3.5,9.25-7,18.53-10.18,27.15Z"/><path d="M170.53,417.49c-.12-.13-1.82-1.22-1.67-1.88,2.38-10.28-1.76-21.15,2-31.35-.5-1.49-1.69-3.32-1.61-5.09.4-8.51,1.14-17,1.77-25.64-1.68-.46-2.78-.47-3.43-1a36.15,36.15,0,0,1-3.41-3.68,25.58,25.58,0,0,1,4.16-3.4c1.27-.67,3.84,1,3.59-2.38,0-.35,2.33-1.4,3.43-1.22,4.42.76,8.8,1.79,13.15,2.92.94.24,2.44,1.47,2.34,1.93a5.58,5.58,0,0,1-2.11,2.78,12.83,12.83,0,0,1-3.1,1.3c-1.84.76-5.18,1.41-5.25,2.31-.18,2.41.29,5.6,1.82,7.29,5.33,5.87,11.25,11.2,16.86,16.83,1,1,1.46,2.58,2.41,3.68,4.17,4.82,8.37,9.62,12.67,14.33,7.09,7.76,14.12,15.56,21.44,23.09,3.31,3.4,7.26,6.18,11.66,9.86.58-2,1.52-3.42,1.32-4.71-.83-5.13-2.31-10.16-3-15.3-.72-5.56-.75-11.2-1.15-16.8-.19-2.52-.62-5-.83-7.54-.67-7.85-1.44-15.69-1.81-23.55-.09-2,1.19-4,1.93-6.25l-9.53-4.22c2.42-3.91,4.3-6.61,9.19-5,2.9,1,6.33.18,9.41.75,2.75.5,5.36,1.77,7.89,2.65-.32,4.29-2.19,5.53-5.37,5.07-2.89-.41-4.76,1-4.67,3.71.25,8.16,1,16.3,1.26,24.46.2,6.23-.46,12.52,0,18.72.35,4.52,2.1,8.92,2.94,13.42s1.9,9,1.75,13.48c-.14,3.95-.74,7.06,4.65,7,.92,0,1.86,1.05,2.88,1.66-2.18,3.74-5.16,4.54-8.92,4.42-7-.24-14.09,0-21.13-.21-1.24,0-2.45-1.33-3.67-2.05.82-1.05,1.48-2.81,2.49-3,4.3-1,4.08-3.11,2.1-6.07a15.68,15.68,0,0,0-1.18-2.14c-9.75-10.35-19.64-20.57-29.26-31-4.79-5.22-10.55-9.72-12.38-17.31-.49-2-3.62-3.54-5.67-5.12-2.3-1.77-4.75-3.36-8.52-6-.32,15.41-.48,29.76-1,44.09-.24,7.23-1.75,14.5,1.08,20.63,4,.32,7.49.36,10.83,1,1,.19,2.31,1.92,2.43,3.06.09.88-1.38,2.74-2.25,2.8-6.74.45-13.53,1-20.24.56-2.61-.18-5-3-8.79-5.38l8-3.49C168.88,426.56,169.62,422.52,170.53,417.49Z"/><path d="M625.21,324.45l-11.11-2.23L614,319.5c2.91-.93,5.77-2.38,8.75-2.69,8.86-.92,17.79-1.18,26.64-2.13,5-.54,9.88-2,14.84-2.9,1.29-.25,2.85-.59,4-.11,7.33,3.19,15.79,4.66,20.73,11.82,5.33,7.71,5,16.18,2.7,24.89-3.08,11.41-10.75,18.91-20.7,24.27-2.9,1.56-6.58,1.77-9.94,2.38-7.09,1.3-14.19,2.64-21.33,3.58-3.56.47-7.23.08-11,.08-.5,6.38-1.11,12.59-1.46,18.82-.44,7.92-.65,15.86-1,23.78-.3,6.41-.7,12.81-1,19.22a36.42,36.42,0,0,0,.4,4.27l13.71-2.51,3.19,7.49c-5.48.62-10.66,1.35-15.87,1.74-3.7.28-7.53.66-11.14,0-8.61-1.52-8.57-1.75-11.32-4.9,1.16-3.19,1.89-5.9,6.8-3.6,4.27,2,6.15-.55,5.95-5.44-.2-4.72.47-9.48.9-14.21.65-7,1.47-14,2.14-20.95.7-7.17,1.3-14.35,2-21.52.05-.48.54-1.2.37-1.39-5.59-6.14.83-12.36,0-18.73-.82-5.95,1.28-12.27,1.74-18.45.31-4.13-.14-8.31,0-12.46A28.84,28.84,0,0,1,625.21,324.45Zm3.16,46.65c3.9,0,6.25.24,8.52-.05,7.44-.94,14.87-2,22.27-3.18,3.66-.61,7.65-.95,10.79-2.68,9.72-5.38,13.8-14.84,15.85-25.11.67-3.4.74-8.36-1.22-10.57-5.78-6.55-13-11-22.65-8.86-3.62.81-7.42.83-11.14,1.16-6.9.62-13.79,1.2-20.39,1.77.8,2.13,1.93,3.68,1.86,5.18-.22,4.71-.93,9.38-1.37,14.08C630,352.08,629.24,361.32,628.37,371.1Z"/><path d="M311.84,874.14c5.21,3.07,5.4,8.64,6.59,13.61,1.89,7.92,3.51,15.91,5.25,23.88.56,2.6,1.56,5.21,1.53,7.81,0,1.51-1.68,3-2.6,4.51-1.2-.91-3.18-1.64-3.44-2.77-1-4.32-3-8.25-3.31-12.95-.44-6.69-2.82-13.24-4.32-19.86-.29-1.27-.32-2.59-.65-5.5-3.55,4.8-6.53,8.5-9.13,12.45-2.44,3.7-4.26,7.8-6.81,11.4-.74,1-3.18,1.54-4.62,1.24a6.06,6.06,0,0,1-3.87-3c-2.79-6.59-5.18-13.35-7.81-20-.25-.65-1.13-1.06-2.28-2.09a66.64,66.64,0,0,0-2.7,7.7c-1.32,6.12-2.63,12.28-3.44,18.48-.5,3.85-.09,7.81-.09,13.2a80.5,80.5,0,0,1-7.79-2.55,2.85,2.85,0,0,1-.65-2.67c3.84-7.31,2.76-15.61,4.87-23.24.3-1.09,1-2.09,1.23-3.19.92-4,2.42-7.93,2.38-11.89,0-3.4,1.67-4.76,4-5.15,1.58-.27,4.26.74,5.06,2,3.57,5.8,6.6,11.93,9.91,17.9.85,1.54,2,2.94,3.11,4.63C299.43,890.24,301.36,878.69,311.84,874.14Z"/><path d="M580,827.53c.87-7.35,1.5-12.71,2-17.06-3.72-1.74-6.11-3.54-8.72-3.94-7.14-1.11-14.72-1.38-20.9,2.5-4.27,2.68-3.08,8.22-1.94,12.83.76,3.12-.69,5.73-3.62,5.66-1.86,0-4.8-2.33-5.22-4.09-.63-2.64.58-5.7.94-8.58.76-6,1.63-11.94,2.18-17.93.37-4.09,0-8.25.53-12.3.18-1.31,2.52-3.52,3.39-3.31,1.69.41,4.21,2.15,4.3,3.49.27,3.87-.52,7.81-.84,11.73-.3,3.55.15,5.93,4.86,4.36,3.83-1.27,7.93-1.68,11.9-2.55s7.61-.58,11,4c1.14-3.91,2.8-6.91,2.66-9.84-.17-3.77-2.08-7.44-2.59-11.24-.2-1.45,1.4-3.14,2.19-4.73,1.52.94,4.17,1.7,4.37,2.86A118.38,118.38,0,0,1,588.44,798c.06,8.65.77,17.25,1.21,25.87.09,1.83-1.79,5.23-3,5.36C584.13,829.45,581.46,828,580,827.53Z"/><path d="M510.9,1017.77c-5.08-3.6-5.85-9.32-4.75-14.77a88.92,88.92,0,0,0,2.05-17.5c0-9.23,1.51-19,12.26-24.11,8.95-4.28,14.42-3.24,18.47,6,1.49,3.39-2.41,15.41-6.2,17.64-3.29,1.94-3.44,3.81-1.62,6.85,3.91,6.55,7.61,13.23,11.27,19.92a5.69,5.69,0,0,1,.67,3.77c-.43,1.59-1.58,3-2.41,4.47-1.15-1-2.68-1.78-3.38-3-3.63-6.5-6.89-13.22-10.64-19.65-1.24-2.14-3.52-3.67-5.34-5.46-1.2-1.18-3.6-2.58-3.41-3.43a6.67,6.67,0,0,1,3.44-4.33c5.58-2,7.48-6.84,10.05-11.34,2-3.44-.46-5.21-2.51-6.51-1.18-.74-4-.42-5.09.52-4.44,3.65-8,7.65-8,14.29,0,5.89-1.87,11.77-2.5,17.69-.35,3.25.49,6.62.16,9.87C513.11,1011.46,511.92,1014.2,510.9,1017.77Z"/><path d="M324.34,783.54c-.32,6.11-.75,10.85-.77,15.6,0,5.46.36,10.91.52,16.37,0,1.49-.71,3.31-.09,4.41,2.71,4.77.95,7.7-4.71,10.38-1.12-3.37-2.22-6.67-3.45-10.35l-2.94,3.43c-1.59-.69-4.49-1-5-2.33a46.3,46.3,0,0,0-15-18.71c-4.08-3.14-7.25-7.46-11.44-11.9,0,3.28.17,5.7,0,8.1-.69,8.25-1.3,16.52-2.41,24.72-.37,2.75-2.15,5.31-3.29,8L271,827.84c1.54-4.67,3.28-7.83,3.54-11.11.69-8.93.63-17.91,1.13-26.85.21-3.58,1.11-7.12,1.93-12.18l40,41c-.42-9.23-1-17.41-1-25.59,0-3.79,1.1-7.6,2-11.34.2-.84,1.65-2.12,2.24-2,.92.22,1.6,1.46,2.37,2.29S324.51,783.72,324.34,783.54Z"/><path d="M635,878.52c-2.17,9.29-4.41,17.64-6,26.11-.77,4.17-1.61,6.15-6.63,8.33-.21-1.33-.73-2.62-.53-3.78,1.2-6.88,2.44-13.76,3.93-20.58,1-4.43,2.59-8.73,3.51-13.17.68-3.36,3.22-4.63,5.34-3.32,3.85,2.38,7,5.86,10.47,8.89.09.08,0,.38,0,.48,5.32,6.83,10.64,13.65,16.21,20.78,1.13-7.84,2.2-14.87,3.13-21.92.55-4.2.59-8.48,1.4-12.62.37-1.87,2.07-3.47,3.38-5.53l4.8,4.32c-2.55,2.39-2.47,4.63-1.61,8.22.92,3.86-1.57,8.47-2.25,12.8-.53,3.39-.16,6.94-.9,10.26-.92,4.11-2,8.38-4.07,12-1.66,2.86-7.19,1.29-9.56-2.56-2.82-4.57-5.35-9.31-8-14a3.67,3.67,0,0,0-1-1.14c-3.68-2.73-7.21-5.52-8.21-10.44C638.35,880.78,636.93,880.17,635,878.52Z"/><path d="M354.85,816.58c.66-9.21,2.6-17.56,7.57-24.83,1.81-2.65,5-4.72,8-6.1,8.24-3.77,20.15.58,24.83,8.58.91,1.55,2.42,2.86,2.93,4.5a13.49,13.49,0,0,1,.66,6.65A89.56,89.56,0,0,1,395,816.6c-3.91,10.32-11.57,17.31-22,19-4.08.64-9.85-3.9-13.46-7.47C356.81,825.42,356.33,820.5,354.85,816.58Zm37.2-13.23C392,797.5,387,792,379.9,790c-3.12-.87-11,2-12.26,5.54-2.11,6.08-3.21,12.53-4.47,18.88-.28,1.39.46,3,.89,4.52.66,2.26.8,5.39,2.34,6.5,2.54,1.83,5.1,4.84,9.32,2.89C383.84,824.56,392.09,812.3,392.05,803.35Z"/><path d="M343.82,918.34c.64-4.87,1.26-8.83,1.66-12.82.93-9.2,1.75-18.4,2.54-26.82,12-4.49,22.92-6.16,34.55-4.13-1.5,5.49-3.81,6.15-8.86,6.16-6.19,0-14.21-2.19-18.65,5.36-.73,1.25-1.22,2.65-2.07,4.52,6.93,0,12.92-.07,18.9,0,3.35.05,4.7,1.84,4,5.25l-23.46,2.64c-.22,4.4-.44,8.79-.68,13.8h28.56c-1.42,7-4.24,8.13-11.63,7a47.55,47.55,0,0,0-17.56.51C347.52,920.63,345.51,920.38,343.82,918.34Z"/><path d="M226.25,914.47c1.63-4.05,1.63-4.05-3.65-19.37-4.3,4.77-9,1.07-13.1.06-7.22-1.78-9.39.05-12.1,7.76-1.58,4.48-4.26,8.63-6.92,12.62-.44.67-3.81.36-4.81-.58s-1-3.56-.35-4.8c5.59-10,12.22-19.5,16.93-29.87,2.43-5.33,5.78-9.38,9.23-13.74,1.55-2,3.09-4.16,5.33-3s4.92,3.45,5.63,5.79c4.34,14.26,7.39,28.91,13.09,42.76,1.16,2.8-.9,4.83-4.4,4.23A27.8,27.8,0,0,1,226.25,914.47ZM223,890.94c-1.79-5.49-3.75-11.6-5.83-17.66a12.4,12.4,0,0,0-2-2.76,16.87,16.87,0,0,0-2.89,2.76c-1.58,2.4-2.91,5-4.33,7.46-1.09,1.93-2.15,3.86-3.27,5.88Z"/><path d="M448.72,807.15l12.48,22-3.56,3.93c-4.48-3.35-7.54-7-9.08-12.24-.78-2.65-3.47-4.91-5.67-6.93-2.39-2.19-5.21-3.89-8.39-6.19.11-.1-1.25.78-1.13,1.09,2,5.16-1.76,10.5-.41,14.88,1.28,4.16.36,6.33-2,8.82-.9,1-2.36,1.42-3.56,2.11-.84-1.46-2.54-3.05-2.36-4.37.77-5.63,2.54-11.13,3.12-16.76A204.6,204.6,0,0,0,429,790c1.54-3.17,3.18-7.42,7.63-7.23a68.31,68.31,0,0,1,15.87,2.58c1.71.5,3.45,3.56,3.8,5.67C457.43,797.7,455.05,803.25,448.72,807.15Zm-14.49-1.49c2.07-.58,3.39-.86,4.64-1.33,2.71-1,5.94-1.55,7.93-3.39s2.94-4.92,3.64-7.63c.12-.5-3.08-2.2-4.92-2.77-2.86-.89-5.87-1.3-9.39-2C435.49,794.34,434.87,799.9,434.23,805.66Z"/><path d="M318.4,991.75c1.58-4.44-.69-12.63,5.56-19.09,6.55-6.76,13.8-8.94,21.94-4.57a31.34,31.34,0,0,1,9.86,8.21c1.46,1.92.88,5.51.93,8.36,0,1.91-.95,3.93-.62,5.74,1.63,9-3.77,14.59-9.73,19.37-6.18,5-13.82,4.45-20.22.84C320.47,1007.42,316.91,1001.81,318.4,991.75Zm18.12,14.7c4.73-.11,10-3.94,11.22-8.64a63.18,63.18,0,0,0,1.45-10.1c.91-10-.7-11.93-10-15.34-3.31-1.22-5,.07-7,1.9-6.39,5.91-8.39,13.06-7.1,21.7C326,1002.16,330.14,1006.59,336.52,1006.45Z"/><path d="M421.65,1010.67c-2.24,1.43-4,3.38-6,3.67a157.74,157.74,0,0,1-21.11,2c-6,.07-8-5.46-6-12.71,1.05-3.74.67-7.86,1.09-11.79.2-1.9.85-3.73,1.13-5.62.64-4.39,1.31-8.78,1.74-13.19.47-5,3.55-7.23,8.56-6.38a15,15,0,0,0,4.8-.49c4.18-.72,8.32-1.86,12.52-2.12,1.89-.12,3.88,1.47,5.68,3.4-7.93,4.28-16.57,3.72-23.6,5.71l-4.06,14.61c5.36-.92,10.29-2,15.28-2.48,1.39-.13,3,1.59,4.79,2.65-4.49,6.42-10.91,4.71-16.15,5.3-2.78.31-3.3.75-3.61,3-.58,4.18-1.28,8.34-2,12.65,4.54,0,9.06.35,13.5-.1C412.55,1008.37,416.85,1005.67,421.65,1010.67Z"/><path d="M424.9,898.77l15.89,16.57c-6.2,3.37-8.31,2.34-13.43-3.68-2.56-3-6.1-5.17-9.18-7.74-2.1-1.74-4.17-3.52-6.8-5.73,4.74-1.83,8.56-2.63,11.52-4.67,2.2-1.53,3.45-4.59,4.77-7.15.32-.61-.53-2.26-1.29-2.9-3.48-2.94-13.46-.61-14.59,3.8-1.38,5.36-1.73,11-2.42,16.53-.74,6-1.36,12-2.12,18.75l-5.69-2.43c.44-7.1.33-13.82,1.39-20.35,1.11-6.82,3.33-13.46,5.12-20.16.1-.37.72-.59,1.08-.91,3.4-3.05,16.89-3.32,20.18-1,3.76,2.67,7,6.14,5.56,11.19C433.57,893.62,430.93,897.64,424.9,898.77Z"/><path d="M602.28,994.83c-14.27-4.69-22.94-14.35-32-23.69,5.17-4.93,5.74-4.65,9.91.27a53.76,53.76,0,0,0,9.12,7.86c3.29,2.45,6.87,4.51,10.9,7.12,4.54-5.35,11.73-8.78,13.92-16.83.38-1.4,2.81-2.63,4.53-3.14,1.08-.32,3.43.56,3.73,1.42a6,6,0,0,1-.46,4.88c-2.88,4-6.63,7.35-9.24,11.47a29.73,29.73,0,0,0-4,10.63c-1.16,6.76-1.69,13.63-2.27,20.47-.19,2.23.29,4.53.48,7.11l-7.42-1C600.47,1012.41,601.41,1003.29,602.28,994.83Z"/><path d="M596.46,915.07c-.9-3.63-1.92-7.24-2.66-10.91-.58-2.9-.75-4.95-5-3.5a27.44,27.44,0,0,1-12.61,1.19c-5.3-.85-5.83,2.92-7.51,5.82-1,1.68-1.75,3.48-2.75,5.49-4.43-4.39-1.68-8.18-.28-11.5a242.62,242.62,0,0,1,11.39-24c3.39-6.06,11.11-5.06,14.39,1.36,1.61,3.16,3.54,6.17,4.89,9.43a56.18,56.18,0,0,1,2.86,9.61,78.93,78.93,0,0,1,1.75,11.62c.11,1.78-1,3.64-1.52,5.46ZM574.4,894.6c6.05,2.37,11.78.41,17.53-1.3L583.51,879Z"/><path d="M472.41,885.9c-3-.5-5.84-1-8.71-1.45-4.27-.63-4.13-3.46-3.37-7.74,4,.73,7.72,1.61,11.53,2.06a59.39,59.39,0,0,0,9.05.2c1.44,0,3.36-1.34,4.19-.78,1.78,1.2,3,3.25,4.44,4.94-1.71.86-3.35,2-5.16,2.46-1.5.36-3.21-.15-4.33-.24-.45,3.64-1.11,6.88-1.18,10.14a71.23,71.23,0,0,0,.66,13.23c.21,1.24,2.94,2.55,4.71,2.9,1.53.3,3.32-.71,6-1.4-.27,2.66.27,6.31-.89,7-2.45,1.39-5.79,1.65-8.75,1.59a149.3,149.3,0,0,1-18.8-1.29c-2.17-.32-4-2.69-5.91-4,1.52-3.65,3.2-4.18,6.25-3.36,3.38.91,7.47,2.76,10-1.84a5.83,5.83,0,0,0,.86-2.73C472.91,899.27,472.66,893,472.41,885.9Z"/><path d="M467.22,976.81c-5.79-1.17-10.45-1.92-15-3.14-1.2-.33-3.05-2.58-2.8-3.11a9.21,9.21,0,0,1,3.59-3.49,3.62,3.62,0,0,1,2.91.12c7,3.3,13.53,1,20.27-1.23,2.5-.85,5.7-.23,8.41.41,1.07.26,1.67,2.43,2.48,3.73-1.36.78-2.65,2-4.1,2.24-2.58.43-5.27.2-7.9.42a40.91,40.91,0,0,0-4.83,1.12c6.11,5.87,3.67,12.29,3.45,18.46a59.54,59.54,0,0,0,.27,11.8c1,6-.51,11.47-3,16.7-.45.94-3.6,1.7-4.51,1.08-1.21-.81-2.48-3.72-1.93-4.6,4-6.4,1.69-13.31,2.14-20,.19-2.75,1-5.47,1-8.21C467.76,984.73,467.38,980.31,467.22,976.81Z"/><path d="M507,836.63,502.83,833c.73-6.68,1.47-13,2.08-19.3.38-3.87.6-7.76.78-11.64.1-2-.34-4,0-5.91a71.63,71.63,0,0,1,2.14-7.64c-6.87,2.09-13.44,3.12-19.42-3.69,1.41-.82,2.6-2.07,3.88-2.16,9.29-.64,18.6-1.14,27.91-1.41a6,6,0,0,1,4.55,2c.58.85-.22,3.44-1.23,4.34s-3.12,1.21-4.73,1.18a53.7,53.7,0,0,1-7-1c0,8.88,0,17.16,0,25.44C511.79,821.09,512.12,829,507,836.63Z"/><path d="M544.77,910.28c.37,6.06-4.58,10-10.44,8.93-5.25-.93-10.37-2.17-14.8-5.7s-6.6-10.27-6.23-16c.55-8.43,4-15,9.61-20.89,4.46-4.62,9.66-6.86,16-4.67,1.06.37,1.55,2.4,2.31,3.66-1.53.9-3.18,2.73-4.55,2.53-5.49-.76-9.21,1.91-12.33,6.56-3.26,4.84-5.14,9.6-5,15.34A12.57,12.57,0,0,0,531.86,912a63.69,63.69,0,0,0,6.49-.19A63.47,63.47,0,0,0,544.77,910.28Z"/><path d="M264,992.23l3.78-6.13c1.31.29,2.93.26,4.06,1,3.35,2.13,5.4.65,7.64-1.87,2.84-3.21,6.51-5.36,7.39-10.43.76-4.36.08-7.4-3.27-9.7a10.92,10.92,0,0,0-12.13-.65c-4.87,2.65-9.1,2.49-13.54-.79a44.54,44.54,0,0,1,6-3.18,110.19,110.19,0,0,1,12-3.56c4.59-1,14.18,2.67,15.74,6.23,2.8,6.37,4.46,13.21-.09,19.33s-9.45,12.59-18.56,11.7C270.29,993.91,267.59,993,264,992.23Z"/><path d="M258,967.65c5.83.79,7.38,2.85,5.59,7a10.1,10.1,0,0,0-.45,3.37c-.68,13-1.29,26-2.06,39a17.2,17.2,0,0,1-1.57,7.06c-.68,1.26-3,1.6-4.64,2.35-.5-1.42-1.5-2.86-1.42-4.24.3-5.07.94-10.11,1.49-15.16.77-6.95,1.68-13.88,2.32-20.84.26-2.84-.13-5.73,0-8.58C257.38,974.38,257.74,971.18,258,967.65Z"/><path class="cls-1" d="M570.63,530.93c.84,7.71-2.1,12.35-4.66,17-5.08,9.23-10.49,18.28-15.38,27.61a22.76,22.76,0,0,0-2.26,9.33c-.49,11.09-7.73,19.29-12.24,28.56-2.82,5.81-8.13,10.36-11.87,15.79-.88,1.27-.07,3.82.22,5.74,1,6.79,3.8,13.26,1.81,20.55-.76,2.78.8,6.66,2.31,9.5,2.68,5.07,6.12,9.74,9.24,14.57,3,4.65.89,8.69-1.15,12.69-7.17-1.86-8.95-7.92-11.27-13.42-2.87-6.8-4.43-8-11.83-8a23.87,23.87,0,0,0-3.49.08c-9.21,1.32-12.61-3.17-16-10.57-2-4.42-7.49-6.09-13.22-4.72a78.55,78.55,0,0,1-16.28,2.14c-2.39.05-4.79-2.14-7.25-3.14-5.47-2.23-9.38,1.19-13.48,4,1.68,7.32-2.19,12.93-6.72,17.88-4.73,5.17-6.73,11.36-8.3,17.81-.88,3.63-3.08,5-5.84,2.81-3.09-2.42-6.79-4.56-8.79-7.73-1.86-2.93-2-7-2.58-10.65-.59-3.81,1.32-8.6-4.75-9.92-.65-.14-1-2.51-1.16-3.89-.66-5-4.46-8.51-8.94-8.08-3.16.31-11.46,7.44-12.28,10.69-.87,3.45-1.45,7-2.42,10.39-.86,3-2.17,5.78-6.24,4.12-.51-12.94-21.92-24.1-30.26-23.51-2.57-9.39-6.37-12.2-12.6-9.24-3.79-2.51-7.74-4.87-11.38-7.64a11.1,11.1,0,0,1-3.78-5.07c-1.27-4.06-1.88-8.33-2.8-12.5-.14-.63-.33-1.52-.78-1.76-8.35-4.36-9.83-14.67-17.42-19.86-4.4-3-9-6.69-11.54-11.17s-3.36-10.12-3.52-15.31c-.23-7.35.85-14.73,1.41-22.76L295,548.94v-2.51c8.64-2.42,16.79-5.77,25.21-6.78,7.7-.91,15.74.43,23.56,1.32,4.64.52,9.18,3,13.74,2.93a34.45,34.45,0,0,0,14.55-3.53c4.12-2.08,7.9-1.4,11.78-1,3.18.33,6.3,1.58,9.36,2.68,3.39,1.22,6.43,2.74,10.14.13a8.09,8.09,0,0,1,6.74-.52c7.74,3.38,13.38-2.62,20-4,4.36-.89,8.46-3.34,12.83-3.84,6.69-.78,13.52-.4,20.28-.66,4.37-.17,8.73-.61,13.09-.93l1.05,1.77c-1.55,2.94-3,5.93-4.68,8.82-1.1,1.94-2.84,3.62-3.53,5.67a5.15,5.15,0,0,0,1.09,4.44c.82.78,2.86.36,4.36.34,7.85-.08,11.23-7,16.72-10.75,1.4-1,4.47-1.18,5.76-.28,6.72,4.66,6.61,4.83,13.46-.19,4.56,4.48,4.55,5.8.29,10.5-1.06,1.18-2.65,2.84-2.46,4,1.08,6.75-2.71,11.7-5.59,17a28.82,28.82,0,0,0-2.77,6.17c-.39,1.47-.46,3.89.4,4.62,1.11.95,3.88,1.44,4.9.7,3-2.13,6.2-4.55,7.9-7.65,2.7-4.92,4.33-10.45,6.25-15.77,1.61-4.44,8.5-8,13.12-6.88,4.1,1,7.78.89,10-3.71a6.46,6.46,0,0,1,3.63-3.24c7.83-1.83,12.3-7.89,17.53-13.11C565.31,533.27,567.67,532.55,570.63,530.93Z"/><path class="cls-1" d="M453.51,220.48l-46.28,3.15c3.23-8.62,6.68-17.9,10.18-27.15,3.23-8.53,6.18-17.19,9.94-25.47,1.66-3.66,5-6.54,7.8-10,7,9.54,8.23,19.69,9.72,29.86C446.31,200.72,446.56,211,453.51,220.48Z"/><path class="cls-1" d="M628.37,371.1c.87-9.78,1.67-19,2.52-28.26.44-4.7,1.15-9.37,1.37-14.08.07-1.5-1.06-3.05-1.86-5.18,6.6-.57,13.49-1.15,20.39-1.77,3.72-.33,7.52-.35,11.14-1.16,9.62-2.14,16.87,2.31,22.65,8.86,2,2.21,1.89,7.17,1.22,10.57-2,10.27-6.13,19.73-15.85,25.11-3.14,1.73-7.13,2.07-10.79,2.68-7.4,1.21-14.83,2.24-22.27,3.18C634.62,371.34,632.27,371.1,628.37,371.1Z"/><path class="cls-1" d="M392.05,803.35c0,8.95-8.21,21.21-16.33,25-4.22,2-6.78-1.06-9.32-2.89-1.54-1.11-1.68-4.24-2.34-6.5-.43-1.48-1.17-3.13-.89-4.52,1.26-6.35,2.36-12.8,4.47-18.88,1.24-3.57,9.14-6.41,12.26-5.54C387,792,392,797.5,392.05,803.35Z"/><path class="cls-1" d="M223,890.94l-18.29-4.32c1.12-2,2.18-4,3.27-5.88,1.42-2.5,2.75-5.06,4.33-7.46a16.87,16.87,0,0,1,2.89-2.76,12.4,12.4,0,0,1,2,2.76C219.2,879.34,221.16,885.45,223,890.94Z"/><path class="cls-1" d="M434.23,805.66c.64-5.76,1.26-11.32,1.9-17.15,3.52.73,6.53,1.14,9.39,2,1.84.57,5,2.27,4.92,2.77-.7,2.71-1.68,5.82-3.64,7.63s-5.22,2.37-7.93,3.39C437.62,804.8,436.3,805.08,434.23,805.66Z"/><path class="cls-1" d="M336.52,1006.45c-6.38.14-10.51-4.29-11.44-10.48-1.29-8.64.71-15.79,7.1-21.7,2-1.83,3.67-3.12,7-1.9,9.33,3.41,10.94,5.36,10,15.34a63.18,63.18,0,0,1-1.45,10.1C346.54,1002.51,341.25,1006.34,336.52,1006.45Z"/><path class="cls-1" d="M574.4,894.6,583.51,879l8.42,14.29C586.18,895,580.45,897,574.4,894.6Z"/></svg>