<?xml version="1.0" encoding="UTF-8" standalone="no"?>
<svg
   xmlns:dc="http://purl.org/dc/elements/1.1/"
   xmlns:cc="http://creativecommons.org/ns#"
   xmlns:rdf="http://www.w3.org/1999/02/22-rdf-syntax-ns#"
   xmlns:svg="http://www.w3.org/2000/svg"
   xmlns="http://www.w3.org/2000/svg"
   version="1.1"
   width="176.349152mm"
   height="16.7756564833mm"
   viewBox="0 0 176.349152 16.7756564833"
   id="svg3760">
  <defs
     id="defs21" />
  <metadata
     id="metadata3757">
    <rdf:RDF>
      <cc:Work
         rdf:about="">
        <dc:format>image/svg+xml</dc:format>
        <dc:type
           rdf:resource="http://purl.org/dc/dcmitype/StillImage" />
        <dc:title></dc:title>
      </cc:Work>
    </rdf:RDF>
  </metadata>
  <g
     transform="matrix(0.97887223,0,0,0.97887223,-142.64742,-44.037683)"
     id="g7001">
    <path
       style="fill:#000000;stroke:#000000;stroke-width:0.64600658;stroke-miterlimit:4;stroke-dasharray:none;stroke-opacity:1"
       d="m 157.20571,61.017747 c -0.39448,-0.14094 -0.821,-0.35223 -0.94778,-0.46962 l -0.23052,-0.21341 v -5.370351 -5.37037 l 0.36197,-0.64727 c 0.1991,-0.35601 0.43672,-0.70932 0.52807,-0.78513 0.1314,-0.10906 0.84449,-0.1378 3.41843,-0.1378 3.78322,0 3.68353,-0.0249 3.68353,0.92019 0,0.43688 -0.0462,0.57335 -0.2642,0.77819 -0.26375,0.24798 -0.26916,0.2485 -3.15073,0.29963 l -2.88647,0.0512 v 1.79311 1.79306 l 3.53495,0.0559 c 1.94422,0.0307 3.54853,0.0654 3.5652,0.0769 0.0168,0.0115 0.0168,0.33214 0,0.71254 l -0.0304,0.69162 -3.07385,0.0513 -3.07385,0.0512 -0.48668,0.2915 -0.48673,0.29151 v 1.67625 1.67623 l 0.38423,0.0595 c 0.21137,0.0327 0.66093,0.13764 0.99903,0.23312 0.46313,0.13092 1.19604,0.1869 2.9714,0.22703 l 2.3566,0.0532 v 0.71723 0.71724 l -3.22755,0.0165 c -3.20311,0.0165 -3.23296,0.0147 -3.94475,-0.239899 z"
       id="path5177-5-9-6" />
    <path
       id="path2445-2"
       style="fill:#000000;stroke-width:0.16787633"
       d="m 280.38691,59.668197 c -0.20176,-0.0646 -0.5606,-0.28676 -0.79741,-0.49388 l -0.43058,-0.37661 v -4.860641 -4.86065 l 0.41966,-0.78933 c 0.23085,-0.43414 0.41972,-0.89407 0.41972,-1.02211 0,-0.12797 0.33312,-0.37557 0.7403,-0.55011 0.4645,-0.19911 0.82499,-0.49397 0.96757,-0.79145 l 0.22721,-0.47411 h 2.6649 2.66492 l 0.69037,0.8148 0.69034,0.81478 -0.002,1.78729 c 0,1.50697 -0.0534,1.86518 -0.33575,2.28381 -0.30448,0.45141 -0.33488,0.77703 -0.33488,3.58503 v 3.088521 l -0.58757,0.50481 c -0.32319,0.27766 -1.00308,0.70288 -1.5109,0.94497 -0.82514,0.39332 -1.14652,0.44395 -3.02178,0.47613 -1.15415,0.0199 -2.26353,-0.0168 -2.46526,-0.0812 z m 4.2648,-3.31826 c 0.71203,-0.74313 0.73318,-0.79621 0.68469,-1.720731 l -0.05,-0.95395 -1.2428,-0.0498 c -0.6849,-0.0275 -1.31894,0.0263 -1.41237,0.11979 -0.0931,0.0932 -0.20472,0.7762 -0.24762,1.517621 -0.0908,1.56802 0.0539,1.85395 0.93761,1.85395 0.4883,0 0.72838,-0.13834 1.33049,-0.76678 z m 0.23502,-5.307781 c 0.96312,-0.44394 1.17044,-0.61548 1.33068,-1.10107 0.22007,-0.66676 -0.0226,-1.46744 -0.52618,-1.73703 -0.44053,-0.23573 -2.8537,-0.19351 -3.34554,0.0587 -0.29504,0.15129 -0.40991,0.33748 -0.38677,0.62705 0.067,0.83955 0.24622,2.26521 0.31018,2.46847 0.1232,0.39116 1.42412,0.23409 2.61763,-0.31603 z" />
    <path
       style="fill:#000000;stroke:#000000;stroke-width:0.92817694;stroke-miterlimit:4;stroke-dasharray:none;stroke-opacity:1"
       d="m 230.32507,59.699197 c -0.032,-0.0588 -0.19195,-0.5622 -0.35517,-1.11877 -0.28359,-0.96705 -0.295,-1.22744 -0.25733,-5.868481 l 0.0394,-4.85652 0.54051,-0.57641 c 0.50951,-0.5433 0.58633,-0.5764 1.33779,-0.5764 1.2866,0 1.90231,0.42312 4.36267,2.99791 1.18339,1.23843 2.25413,2.46454 2.37944,2.72469 0.22399,0.46505 2.08127,2.53824 2.27388,2.53824 0.0541,0 0.11729,-1.91772 0.14021,-4.26161 l 0.0415,-4.26159 0.33151,-0.36733 c 0.39676,-0.43962 1.42433,-0.53268 1.56824,-0.14203 0.0457,0.12393 0.0831,2.87206 0.0831,6.10699 0,4.535031 -0.0392,5.914021 -0.171,6.022971 -0.27647,0.22853 -1.08316,0.31706 -1.72117,0.18888 -0.53739,-0.10795 -0.83744,-0.37784 -3.19901,-2.87754 -1.43327,-1.517131 -2.75767,-3.014871 -2.94307,-3.328331 -0.3497,-0.5912 -2.20274,-2.63512 -2.38903,-2.63512 -0.0584,0 -0.10601,0.13138 -0.10601,0.29193 0,0.16056 -0.10564,0.49705 -0.23485,0.74775 -0.1868,0.36251 -0.24472,0.92232 -0.28299,2.73467 -0.0423,2.00295 -0.0143,2.388871 0.23486,3.187581 0.27697,0.8894 0.37404,2.42598 0.19678,3.11487 -0.0745,0.28949 -0.16598,0.32046 -0.94726,0.32046 -0.47564,0 -0.89109,-0.0481 -0.92321,-0.10683 z"
       id="path2437-7" />
    <path
       style="fill:#000000;stroke-width:0.16787633"
       d="m 293.93093,58.470567 c -1.14899,-0.34951 -1.88738,-0.9589 -2.45432,-2.02553 -0.24605,-0.46299 -0.33042,-1.08758 -0.39784,-2.945981 -0.0711,-1.95927 -0.14092,-2.44227 -0.41191,-2.85389 -0.36845,-0.55945 -0.57141,-3.1618 -0.28014,-3.5921 0.10923,-0.16154 0.48146,-0.24576 1.11265,-0.25182 1.05812,-0.0102 1.4254,0.27167 1.4254,1.09369 0,0.24807 0.11335,0.72224 0.25182,1.05371 0.18301,0.43802 0.25181,1.24277 0.25181,2.94546 0,2.27549 0.0125,2.35761 0.43463,2.85928 0.53226,0.632581 1.10741,0.668531 1.67147,0.10445 0.40514,-0.40514 0.41204,-0.45994 0.41204,-3.26267 0,-2.879 0.11334,-3.58942 0.63614,-3.98659 0.43573,-0.33105 0.86914,-0.27302 1.48844,0.19937 l 0.56144,0.42823 v 3.53154 3.531561 l -0.61324,1.09658 c -0.33728,0.60313 -0.86861,1.35196 -1.18071,1.66408 -0.51766,0.51764 -0.65178,0.56621 -1.52718,0.55305 -0.52783,-0.007 -1.14907,-0.072 -1.3805,-0.14243 z"
       id="path2413-6" />
    <path
       style="fill:#000000;stroke-width:0.16787633"
       d="m 302.49372,59.011977 c -0.13859,-0.0505 -0.42177,-0.24669 -0.62954,-0.4357 -0.31948,-0.29069 -0.37715,-0.51377 -0.37402,-1.44754 0.002,-0.7346 0.11478,-1.34874 0.33576,-1.83571 0.2327,-0.512861 0.33205,-1.094861 0.33205,-1.945231 0,-1.25318 0.63296,-3.76074 1.24751,-4.94225 l 0.29566,-0.56849 1.33899,0.0917 c 1.63051,0.11175 1.82079,0.25832 2.41751,1.86213 0.77154,2.07355 0.95661,2.45664 1.18695,2.45664 0.28847,0 0.84083,-0.88551 1.70424,-2.7322 0.62301,-1.33249 0.75771,-1.50442 1.41116,-1.80098 0.93472,-0.42422 2.0054,-0.43675 2.3755,-0.0278 0.15309,0.16906 0.46689,0.93783 0.69751,1.70834 0.3449,1.15227 0.41935,1.75447 0.41935,3.39256 0,1.69949 0.0523,2.09421 0.35678,2.691011 0.29819,0.58451 0.34033,0.87981 0.25654,1.79797 -0.0831,0.90944 -0.17693,1.16523 -0.54477,1.48554 -0.76052,0.66208 -1.21358,0.45958 -1.9926,-0.89057 -0.67765,-1.17443 -0.67809,-1.17637 -0.73373,-3.231621 -0.0306,-1.13106 -0.10994,-2.05648 -0.17654,-2.05648 -0.1669,0 -0.85879,1.45416 -0.86079,1.80916 -0.002,0.41984 -0.80042,2.072361 -1.21389,2.513661 -0.28855,0.30798 -0.53445,0.37772 -1.33186,0.37772 -1.23324,0 -1.38242,-0.14243 -2.50345,-2.389171 -0.95429,-1.91263 -1.47591,-2.61255 -1.69261,-2.2712 -0.0739,0.11643 -0.13519,0.96709 -0.13644,1.8904 -0.002,1.622711 -0.44763,3.826521 -0.89109,4.406761 -0.16241,0.2125 -0.8334,0.25982 -1.29443,0.0913 z"
       id="path2403-6" />
    <path
       style="fill:#000000;stroke-width:0.16787633"
       d="m 268.76634,60.019767 c -0.73866,-0.23696 -1.37572,-0.46069 -1.41574,-0.49719 -0.0401,-0.0365 -0.12606,-1.63265 -0.19132,-3.54701 -0.0702,-2.061541 -0.20877,-3.771561 -0.33968,-4.194151 -0.17835,-0.57563 -0.18083,-0.85131 -0.0143,-1.42694 0.11442,-0.39242 0.29558,-1.1806 0.40264,-1.75154 0.15274,-0.81413 0.2692,-1.05809 0.54019,-1.13086 0.45085,-0.1211 1.25762,-0.11833 1.72091,0.006 0.36608,0.0982 0.36836,0.12416 0.41966,4.76846 0.0283,2.56837 0.10493,4.723001 0.17011,4.788071 0.0654,0.0652 0.82065,0.15669 1.67877,0.2036 0.85809,0.0469 1.76416,0.18871 2.01348,0.3151 0.24934,0.12636 0.77816,0.23095 1.17513,0.23237 1.08319,0.005 1.16538,0.11059 1.10781,1.43941 l -0.0501,1.1601 -2.93784,0.0327 c -2.7425,0.0305 -3.02714,0.005 -4.28086,-0.39807 z"
       id="path2397-3" />
    <path
       id="path2391-2"
       style="fill:#000000;stroke-width:0.16787633"
       d="m 262.26557,60.848647 c -0.10439,-0.0678 -0.24314,-0.58838 -0.30844,-1.15677 -0.0652,-0.56838 -0.28808,-1.58823 -0.495,-2.26632 l -0.37626,-1.23291 -2.20722,-0.0467 -2.20725,-0.0468 -0.86097,1.72558 c -1.12496,2.25471 -1.3397,2.48102 -2.35366,2.48102 -0.66208,0 -0.8572,-0.0754 -1.14588,-0.44234 -0.19135,-0.24326 -0.34795,-0.55091 -0.34795,-0.68362 0,-0.13265 0.40841,-1.06048 0.90754,-2.06168 0.49912,-1.00123 0.96117,-1.996721 1.02676,-2.212251 0.22406,-0.73624 1.80562,-4.0841 2.16777,-4.58876 0.19881,-0.27699 0.67146,-1.03259 1.0503,-1.67912 0.37889,-0.64653 0.84466,-1.31648 1.03504,-1.48877 0.39566,-0.35808 1.56836,-0.53552 2.44825,-0.37045 0.71124,0.13336 1.16797,0.87471 1.35505,2.19929 0.13251,0.93719 0.8986,3.24528 1.41028,4.24829 0.185,0.36277 0.4103,1.11784 0.50051,1.67794 0.0902,0.560121 0.2444,1.168631 0.34268,1.352261 0.0983,0.18362 0.1787,1.20218 0.1787,2.26349 0,2.23762 -0.11066,2.45875 -1.22908,2.45465 -0.38582,-10e-4 -0.78685,-0.058 -0.89113,-0.12592 z m -2.24455,-8.128611 c 0,-0.50529 -0.53773,-1.31185 -0.87464,-1.31185 -0.19748,0 -0.82845,1.50358 -0.71083,1.69392 0.0519,0.084 0.42987,0.15272 0.83992,0.15272 0.72612,0 0.74555,-0.0147 0.74555,-0.53477 z" />
    <path
       id="path62-2"
       style="fill:#231f20;fill-opacity:1;fill-rule:nonzero;stroke:none;stroke-width:2.22122216"
       d="m 190.51279,51.985366 c 0.37537,-0.59085 0.75078,-1.18391 1.11062,-1.78586 0.35315,-0.59085 0.87514,-0.88628 1.5926,-0.89738 0.19325,-0.002 0.3865,-0.014 0.58197,-0.0245 0.80409,-0.0444 1.50376,-0.0843 2.1457,0.41091 0.23545,0.18204 0.51754,0.25988 0.81521,0.21102 0.34649,-0.0533 0.67522,-0.27322 0.90402,-0.60195 0.22667,-0.32875 0.47978,-0.984 -0.37982,-1.66591 -0.53533,-0.42427 -1.27942,-0.90849 -2.28786,-0.83518 l -0.29544,0.0233 c -0.56641,0.0444 -1.10394,0.0822 -1.61927,0.0245 -1.5482,-0.1776 -2.48777,0.71523 -3.33849,1.64148 -0.27987,0.3043 -0.50423,0.64194 -0.72412,0.968451 -0.0912,0.13764 -0.18437,0.27544 -0.27987,0.4087 -1.37716,1.93468 -1.92802,3.84938 -1.68147,5.85958 0.0621,0.50867 0.0755,1.06621 0.0423,1.69924 -0.0778,1.450461 0.55754,2.487771 1.94578,3.17412 1.94581,0.959581 3.91159,1.088401 6.27941,1.155041 0.0334,0 0.0666,0 0.1,0 1.988,0 3.725,-1.68812 3.96267,-3.23855 0.11333,-0.732991 0.16217,-1.528201 0.14651,-2.365581 -0.0245,-1.25056 -0.502,-1.72367 -1.75477,-1.72367 -0.0233,0 -0.0444,0 -0.069,0 -1.4749,0.021 -2.94977,0.0621 -4.42467,0.1089 -0.21755,0.004 -0.43092,0.04 -0.6375,0.0755 l -0.51976,0.0778 -0.0444,0.28654 c -0.0956,0.63082 -0.13553,1.03509 0.11544,1.32384 0.22877,0.271 0.59751,0.293221 1.02175,0.293221 0.45759,0.0187 0.95291,-0.014 1.43048,-0.0266 0.54865,-0.0187 1.09062,-0.0355 1.65925,-0.0266 0.22222,0.004 0.51754,0.0468 0.67304,0.22667 0.15095,0.1776 0.1465,0.466461 0.11987,0.67526 -0.14441,0.98176 -0.99955,1.792511 -2.04131,1.9258 -1.68592,0.21755 -3.19633,-0.348739 -4.84669,-0.968449 -0.53311,-0.199801 -0.77523,-0.57087 -0.76189,-1.170611 0.0233,-0.8174 0,-1.6859 -0.06,-2.57661 -0.0379,-0.535311 0.0956,-1.02842 0.4176,-1.54817 0.2311,-0.373191 0.46644,-0.74191 0.70189,-1.11285" />
    <path
       id="path74-43"
       style="fill:#231f20;fill-opacity:1;fill-rule:nonzero;stroke:none;stroke-width:2.18484402"
       d="m 222.82616,59.254427 -0.10488,0.002 h -0.0918 c -1.03125,0 -1.46166,-0.31681 -1.68888,-1.22788 -0.29277,-1.14705 -0.44134,-2.33997 -0.53966,-3.248861 -0.0634,-0.57899 -0.0677,-1.182 -0.0699,-1.76536 0,-0.27093 -0.002,-0.54185 -0.009,-0.81057 l -0.0175,-0.81714 c -0.0175,-0.81495 -0.0371,-1.62989 -0.0634,-2.44484 l -0.002,-0.14642 c -0.004,-0.27092 -0.007,-0.5746 -0.13545,-0.85862 -0.15512,-0.33211 -0.49159,-0.63142 -0.81713,-0.72757 -0.13766,-0.0416 -0.28403,-0.0161 -0.44134,0.0742 -0.17259,0.0961 -0.45882,0.34085 -0.53528,0.62269 l -0.0808,0.30368 c -0.18354,0.67513 -0.37143,1.37645 -0.39765,2.09526 -0.0328,0.9679 0.002,1.94671 0.035,2.89275 0.0154,0.45662 0.0328,0.91108 0.0415,1.36552 0.0262,1.22351 0.33429,2.38586 0.63579,3.511041 0.0896,0.3343 0.17915,0.67075 0.26,1.00723 0.0896,0.3736 0.28621,0.77342 0.57898,1.1951 0.61832,0.88049 1.43763,1.3284 2.4361,1.3284 0.0306,0 0.0612,-0.002 0.0939,-0.002 0.79529,-0.0239 1.59276,-0.0416 2.38804,-0.0591 0.91326,-0.0207 1.643,-0.4195 2.29407,-1.25847 1.09898,-1.41797 1.18639,-3.04786 1.26942,-4.62532 l 0.0306,-0.554951 c 0.0984,-1.54905 0.0262,-3.12651 -0.0437,-4.64935 -0.0262,-0.56369 -0.0547,-1.12519 -0.0699,-1.68669 -0.0161,-0.4916 -0.0961,-0.88487 -0.25346,-1.20167 -0.15951,-0.32772 -0.58991,-0.68167 -0.97881,-0.68167 -0.37578,0 -0.85645,0.32335 -1.00939,0.67948 -0.15076,0.35613 -0.21849,0.78655 -0.20974,1.31527 0.011,0.81496 0.0328,1.6321 0.0546,2.44703 0.035,1.24755 0.0677,2.49511 0.0677,3.74046 -0.002,0.797461 -0.10706,1.614601 -0.30369,2.366191 -0.43915,1.71509 -0.52655,1.78064 -2.32249,1.81997" />
    <path
       id="path82-4"
       style="fill:#231f20;fill-opacity:1;fill-rule:nonzero;stroke:none;stroke-width:2.22122216"
       d="m 177.92619,49.553616 2.05684,-0.46868 c 0.021,0.0489 0.0334,0.0822 0.0399,0.1021 0.0843,3.12304 0.17105,6.246061 0.22433,9.371331 0.002,0.14651 -0.0666,0.32208 -0.13997,0.49534 l -1.74366,-0.0665 c -0.4176,-0.0187 -0.69523,0.0888 -0.89961,0.30651 -0.2089,0.22223 -0.29319,0.53755 -0.24877,0.93738 l 0.12432,1.08839 0.3132,0.029 c 0.19091,0.0187 0.38206,0.0311 0.56862,0.0423 0.39761,0.0243 0.76854,0.0512 1.12839,0.12432 0.79964,0.16427 1.6015,0.21755 2.39891,0.21755 0.66194,0 1.3172,-0.0355 1.96357,-0.0711 0.63749,-0.0334 1.29054,-0.0711 1.93246,-0.0711 0.06,0.002 0.13764,-0.002 0.18227,0 0.77298,0 1.17058,-0.39761 1.1839,-1.18393 0.014,-0.7441 -0.41314,-1.21944 -1.13726,-1.2683 -0.37984,-0.0245 -0.76409,-0.0187 -1.1506,-0.0117 l -0.20657,0.004 c -0.50867,0.007 -1.01509,0.021 -1.49488,0.0334 l -0.26433,0.007 v -0.002 l -0.0378,-1.72144 c -0.0533,-2.56774 -0.1089,-5.13547 -0.14208,-7.7032 -0.01,-0.65527 -0.01,-0.65527 0.74631,-0.68414 0.66417,-0.0245 1.3283,-0.0379 1.98357,-0.0533 l 1.13948,-0.0243 0.0489,-0.319851 c 0.1,-0.639719 0.14652,-1.081739 -0.10441,-1.388269 -0.22877,-0.27544 -0.58641,-0.31321 -0.99511,-0.33097 -0.21335,-0.0117 -0.42871,-0.002 -0.64416,0.007 l -1.98579,0.0512 c -1.7081,0.0423 -3.41399,0.0822 -5.12212,0.11777 -0.38872,0.009 -1.19502,0.0245 -1.36161,0.96623 -0.11544,0.66416 0.10211,1.032879 0.30209,1.2239 0.21545,0.20213 0.62194,0.408709 1.34161,0.244339" />
    <path
       id="path126-0"
       style="fill:#231f20;fill-opacity:1;fill-rule:nonzero;stroke:none;stroke-width:2.22122216"
       d="m 171.0651,59.375497 h -0.95069 c 0.0911,-3.20745 0.0689,-6.370491 0.0444,-9.433541 l -0.007,-0.753 -0.33095,-0.0512 c -0.71746,-0.10452 -1.22389,-0.11334 -1.57706,0.17782 -0.34208,0.2821 -0.40871,0.75741 -0.43093,1.2261 -0.0488,1.11728 -0.0311,2.2501 -0.0117,3.34516 0.0379,1.996881 0.0734,4.060391 -0.32651,6.061711 -0.11544,0.57309 -0.0379,1.03288 0.22876,1.3705 0.27322,0.34429 0.72412,0.52642 1.34386,0.54642 0.74409,0.0233 1.49709,0.029 2.24122,0.029 0.49532,0 0.99064,-0.004 1.47931,-0.007 l 1.48156,-0.007 c 0.36872,0 0.65527,-0.10209 0.8574,-0.30652 0.21102,-0.21334 0.31096,-0.5131 0.30652,-0.91514 -0.0117,-0.96623 -0.3132,-1.2639 -1.29053,-1.27721 -1.00399,-0.0117 -2.0102,-0.0117 -3.05862,-0.007" />
    <path
       style="fill:#000000;stroke-width:0.16014583"
       d="m 202.24379,61.408037 c -0.45427,-0.1624 -0.94538,-0.40559 -1.09139,-0.54078 l -0.26548,-0.24573 v -6.184031 -6.18404 l 0.41686,-0.74534 c 0.22923,-0.40996 0.50287,-0.81677 0.60809,-0.90407 0.15143,-0.12549 0.97239,-0.15867 3.93632,-0.15867 4.35645,0 4.24165,-0.0287 4.24165,1.05959 0,0.5031 -0.0533,0.66025 -0.30425,0.8961 -0.30371,0.28555 -0.3099,0.28614 -3.62807,0.34504 l -3.32382,0.0589 v 2.06478 2.06473 l 4.07052,0.0643 c 2.23878,0.0355 4.08623,0.0753 4.10542,0.0885 0.0187,0.014 0.0187,0.38246 0,0.82048 l -0.0348,0.79642 -3.5396,0.0589 -3.53958,0.0589 -0.56045,0.33567 -0.56043,0.335681 v 1.93021 1.9302 l 0.44245,0.0684 c 0.24337,0.0376 0.76101,0.15843 1.15037,0.26844 0.53329,0.15073 1.37729,0.21522 3.42161,0.26142 l 2.71369,0.0612 v 0.82593 0.82588 l -3.71658,0.0187 c -3.68845,0.0187 -3.7228,0.0164 -4.54248,-0.27626 z"
       id="path5177-5-24" />
  </g>
</svg>
